<svg xmlns="http://www.w3.org/2000/svg" width="307" height="172" viewBox="0 0 307 172">
  <g id="Grupo_215609" data-name="Grupo 215609" transform="translate(-927 -4485)">
    <rect id="Imagen_4" data-name="Imagen 4" width="307" height="172" rx="19" transform="translate(927 4485)" fill="#feca2e"/>
    <g id="Grupo_213804" data-name="Grupo 213804" transform="translate(777.751 4486.085)">
      <path id="Trazado_225293" data-name="Trazado 225293" d="M295.721,109.916c-.118-.179-.2-.453-.366-.524a4.664,4.664,0,0,1-2.913-4.767c.021-6.727.007-13.453.007-20.178,0-1.866-.026-3.733.009-5.6.057-2.941,1.784-4.729,4.717-4.741,8.721-.037,17.444,0,26.167-.017,2.348-.005,3.714,1.328,4.671,3.274V106.27a5.307,5.307,0,0,1-3.178,3.223c-.1.033-.139.277-.207.423Zm27.812-31.282h-26.5v26.494h26.5Z" transform="translate(41.605 41.592)"/>
      <path id="Trazado_225294" data-name="Trazado 225294" d="M268.578,17.915c2.616,1.154,3.345,3.232,3.309,5.973-.1,8.069-.035,16.139-.038,24.208,0,3.744-1.646,5.38-5.4,5.381q-12.364.005-24.73,0c-3.836,0-5.428-1.612-5.428-5.474,0-8.156.066-16.313-.037-24.467-.035-2.719.889-4.593,3.422-5.622ZM240.79,22.4V48.9h26.494V22.4Z" transform="translate(0)"/>
      <path id="Trazado_225295" data-name="Trazado 225295" d="M314.5,17.915c2.584,1.088,3.4,3.088,3.373,5.8-.094,8.156-.031,16.313-.037,24.469,0,3.571-1.692,5.284-5.246,5.287q-12.56.013-25.121,0c-3.542-.005-5.226-1.721-5.226-5.3,0-8.157.063-16.315-.038-24.47-.033-2.732.8-4.711,3.39-5.79Zm-1.168,4.515H286.763V48.895h26.568Z" transform="translate(34.025)"/>
      <path id="Trazado_225296" data-name="Trazado 225296" d="M291.4,17.915c2.553,1,3.476,2.868,3.443,5.59-.1,8.279-.035,16.562-.04,24.843,0,3.411-1.692,5.12-5.1,5.126q-12.682.018-25.363,0c-3.342-.005-5.045-1.714-5.049-5.047-.01-8.324.057-16.651-.038-24.973-.031-2.731.9-4.6,3.507-5.538Zm-27.6,31h26.489V22.421H263.8Z" transform="translate(17.025)"/>
      <path id="Trazado_225297" data-name="Trazado 225297" d="M254.025,63.87c4.252,0,8.5-.007,12.756,0,3.234.007,5.037,1.746,5.045,4.953q.031,12.818,0,25.638c-.009,3.232-1.787,5-5.005,5q-12.756.016-25.509,0c-3.288,0-5.04-1.782-5.04-5.087q-.008-12.756,0-25.509c0-3.208,1.78-4.986,5-4.993C245.523,63.862,249.773,63.87,254.025,63.87ZM240.77,94.944c.308.037.477.073.646.073,8.288,0,16.578-.017,24.865.03,1.159.005,1.1-.616,1.1-1.392q-.01-11.978-.007-23.955c0-.419-.047-.839-.075-1.307H240.77Z" transform="translate(0.015 34.024)"/>
      <path id="Trazado_225298" data-name="Trazado 225298" d="M254.121,76.434c-4.337,0-8.676.009-13.013,0-3.061-.009-4.831-1.791-4.835-4.864q-.01-12.883,0-25.767c0-3.1,1.73-4.873,4.812-4.88q12.949-.031,25.9,0c3.088.007,4.833,1.747,4.842,4.861q.037,12.883,0,25.767c-.009,3.157-1.791,4.88-4.95,4.887C262.623,76.441,258.373,76.434,254.121,76.434Zm-13.325-31V71.921h26.5V45.433Z" transform="translate(0.014 17.021)"/>
      <path id="Trazado_225299" data-name="Trazado 225299" d="M277.058,40.911c4.252,0,8.5-.012,12.754,0,3.276.01,4.972,1.711,4.974,4.972q.008,12.816,0,25.635c0,3.169-1.74,4.906-4.91,4.908q-12.884.013-25.765,0c-3.084,0-4.833-1.737-4.838-4.844q-.026-12.949,0-25.9c.007-3.03,1.742-4.755,4.774-4.772C268.384,40.892,272.721,40.911,277.058,40.911Zm-13.269,31h26.486V45.431H263.789Z" transform="translate(17.038 17.022)"/>
      <path id="Trazado_225300" data-name="Trazado 225300" d="M300.057,76.434c-4.339,0-8.676.01-13.015,0a4.446,4.446,0,0,1-4.809-4.777q-.026-12.949,0-25.9c.005-3.013,1.765-4.826,4.743-4.835q13.014-.037,26.028,0c3.06.007,4.81,1.8,4.816,4.9q.021,12.818,0,25.638c-.005,3.225-1.775,4.971-5.009,4.976Q306.433,76.443,300.057,76.434Zm13.259-30.988H286.748V71.895h26.568Z" transform="translate(34.039 17.021)"/>
      <path id="Trazado_225301" data-name="Trazado 225301" d="M294.789,81.808c0,4.252.009,8.5,0,12.754-.009,3.067-1.78,4.892-4.824,4.9q-12.949.029-25.9,0a4.421,4.421,0,0,1-4.79-4.791q-.034-13.014,0-26.028c.009-2.985,1.815-4.76,4.814-4.765q12.949-.021,25.9,0a4.439,4.439,0,0,1,4.8,4.786C294.8,73.047,294.789,77.428,294.789,81.808Zm-31.007,13.1h26.487V68.4H263.781Z" transform="translate(17.037 34.023)"/>
      <path id="Trazado_225302" data-name="Trazado 225302" d="M295.441,73.811a15.015,15.015,0,0,1,.238-1.636,2.027,2.027,0,0,1,2.193-1.638,1.885,1.885,0,0,1,2.038,1.794c.1,2.464.115,4.939,0,7.4-.057,1.277-1.043,1.836-2.269,1.85-2.123.023-4.248.042-6.372-.005a2.145,2.145,0,0,1-2.334-2.1,2.188,2.188,0,0,1,2.141-2.31c.3-.042.6-.049,1.189-.092-.439-.475-.726-.8-1.034-1.114q-4.086-4.1-8.18-8.187a1.938,1.938,0,0,1-.578-2.456,2.973,2.973,0,0,1,1.829-1.363,3.165,3.165,0,0,1,2.115.957c2.632,2.517,5.174,5.124,7.752,7.694C294.535,72.968,294.914,73.311,295.441,73.811Z" transform="translate(34.046 34.086)"/>
      <path id="Trazado_225303" data-name="Trazado 225303" d="M321.581,76.7v26.494h-26.5V76.7Zm-11.116,8.829h.005c0-.78.038-1.561-.01-2.339A2.088,2.088,0,0,0,308.4,81.1a2.049,2.049,0,0,0-2.282,1.843,36.6,36.6,0,0,0,.017,5.188,2.11,2.11,0,0,0,2.209,1.812,2.184,2.184,0,0,0,2.106-2.075C310.51,87.092,310.465,86.309,310.465,85.529Zm-2.149,13.3a2.225,2.225,0,0,0,2.158-2.3,2.11,2.11,0,0,0-2.2-2.214,2.322,2.322,0,0,0-2.221,2.285A2.285,2.285,0,0,0,308.315,98.833Z" transform="translate(43.557 43.526)" fill="#feca2e"/>
      <path id="Trazado_225304" data-name="Trazado 225304" d="M238.858,20.492h26.494v26.5H238.858Zm10.848,14.3c-.2-.151-.317-.254-.446-.345-1.236-.872-2.407-.808-3.234.178a2.223,2.223,0,0,0,.3,3.136c.656.689,1.316,1.382,2.022,2.017a2.093,2.093,0,0,0,3.3-.211q3.415-4.415,6.7-8.93a2.114,2.114,0,0,0-.388-3.016,2.252,2.252,0,0,0-3.291.573C253.011,30.353,251.394,32.541,249.706,34.791Z" transform="translate(1.932 1.908)" fill="#4dd0e1"/>
      <path id="Trazado_225305" data-name="Trazado 225305" d="M311.391,20.509V46.974H284.823V20.509ZM295.7,34.735c-.205-.122-.317-.176-.416-.247-1.253-.9-2.4-.875-3.242.061-.881.976-.754,2.184.359,3.329.573.59,1.145,1.18,1.744,1.744a2.212,2.212,0,0,0,3.658-.294q3.193-4.18,6.313-8.411c.931-1.26.815-2.541-.224-3.34s-2.4-.52-3.361.743C298.934,30.421,297.357,32.535,295.7,34.735Z" transform="translate(35.966 1.921)" fill="#4dd0e1"/>
      <path id="Trazado_225306" data-name="Trazado 225306" d="M261.859,46.995V20.5h26.489V46.995Zm10.836-12.239-.491-.339a2.22,2.22,0,1,0-2.9,3.361c.656.689,1.314,1.382,2.028,2.01a2.051,2.051,0,0,0,3.2-.157c2.337-3,4.64-6.036,6.838-9.141a2.13,2.13,0,0,0-1.549-3.331,2.384,2.384,0,0,0-2.3,1.154C275.929,30.463,274.315,32.6,272.695,34.756Z" transform="translate(18.963 1.917)" fill="#4dd0e1"/>
      <path id="Trazado_225307" data-name="Trazado 225307" d="M238.855,93.019V66.467h26.526c.028.468.075.888.075,1.307q.005,11.978.007,23.955c0,.776.063,1.4-1.1,1.392-8.288-.047-16.578-.026-24.865-.03C239.332,93.092,239.163,93.055,238.855,93.019Zm10.869-12.286-.444-.318a2.271,2.271,0,0,0-3.248.153c-.8.94-.667,2.16.371,3.235.632.654,1.258,1.316,1.932,1.921a2.112,2.112,0,0,0,3.3-.184c2.275-2.941,4.489-5.931,6.7-8.923a2.057,2.057,0,0,0-.178-2.839,2.19,2.19,0,0,0-3.469.35C253.031,76.285,251.417,78.474,249.724,80.733Z" transform="translate(1.93 35.949)" fill="#4dd0e1"/>
      <path id="Trazado_225308" data-name="Trazado 225308" d="M238.87,43.506h26.5V69.994h-26.5ZM249.7,57.743c-.231-.171-.362-.272-.5-.365a2.194,2.194,0,0,0-3.141.139,2.241,2.241,0,0,0,.181,3.154c.679.726,1.377,1.441,2.122,2.1a2.1,2.1,0,0,0,3.128-.1c2.367-3.037,4.689-6.111,6.93-9.242a2.1,2.1,0,0,0-1.1-3.188,2.195,2.195,0,0,0-2.7.952C253.013,53.334,251.406,55.477,249.7,57.743Z" transform="translate(1.941 18.948)" fill="#4dd0e1"/>
      <path id="Trazado_225309" data-name="Trazado 225309" d="M261.862,69.982V43.505h26.486V69.982Zm10.829-12.254-.439-.3c-1.25-.886-2.4-.841-3.237.125s-.72,2.141.334,3.235q.854.888,1.744,1.744a2.254,2.254,0,0,0,3.752-.273q3.148-4.13,6.233-8.305c.962-1.3.841-2.649-.247-3.434-1.112-.8-2.323-.517-3.336.82C275.9,53.438,274.325,55.55,272.691,57.728Z" transform="translate(18.965 18.947)" fill="#4dd0e1"/>
      <path id="Trazado_225310" data-name="Trazado 225310" d="M311.39,43.513V69.962H284.822V43.513Zm-15.69,14.2c-.242-.165-.376-.259-.512-.35-1.227-.823-2.32-.769-3.148.155-.851.949-.754,2.151.285,3.242q.851.9,1.746,1.751c1.316,1.255,2.645,1.183,3.768-.256,1.227-1.572,2.4-3.187,3.594-4.784.985-1.319,2.014-2.611,2.94-3.973a2.029,2.029,0,0,0-.355-2.823,2,2,0,0,0-2.628-.238,4.606,4.606,0,0,0-1.065,1.121C298.784,53.587,297.263,55.63,295.7,57.715Z" transform="translate(35.965 18.953)" fill="#4dd0e1"/>
      <path id="Trazado_225311" data-name="Trazado 225311" d="M261.857,92.981V66.471h26.487v26.51Zm10.852-12.27c-.218-.134-.331-.195-.435-.27-1.244-.882-2.41-.846-3.251.106s-.727,2.137.332,3.246c.628.66,1.257,1.324,1.934,1.93a2.114,2.114,0,0,0,3.314-.193q3.43-4.417,6.718-8.946a2.156,2.156,0,0,0-.868-3.293c-1.063-.487-2.031-.183-2.92.989C275.934,76.384,274.358,78.508,272.709,80.711Z" transform="translate(18.961 35.952)" fill="#4dd0e1"/>
      <path id="Trazado_225312" data-name="Trazado 225312" d="M305.8,83.659c0,.78.045,1.563-.01,2.339a2.184,2.184,0,0,1-2.106,2.075,2.11,2.11,0,0,1-2.209-1.812,36.6,36.6,0,0,1-.017-5.188,2.049,2.049,0,0,1,2.282-1.843,2.088,2.088,0,0,1,2.055,2.09c.049.778.01,1.559.01,2.339Z" transform="translate(48.221 45.396)"/>
      <path id="Trazado_225313" data-name="Trazado 225313" d="M303.644,91.34a2.285,2.285,0,0,1-2.259-2.233,2.322,2.322,0,0,1,2.221-2.285,2.11,2.11,0,0,1,2.2,2.214A2.225,2.225,0,0,1,303.644,91.34Z" transform="translate(48.229 51.019)"/>
      <path id="Trazado_225314" data-name="Trazado 225314" d="M246.877,31.965c1.688-2.25,3.305-4.438,4.958-6.6a2.252,2.252,0,0,1,3.291-.573,2.114,2.114,0,0,1,.388,3.016q-3.292,4.509-6.7,8.93a2.093,2.093,0,0,1-3.3.211c-.707-.635-1.366-1.328-2.022-2.017a2.223,2.223,0,0,1-.3-3.136c.827-.985,2-1.049,3.234-.178C246.56,31.711,246.68,31.814,246.877,31.965Z" transform="translate(4.762 4.734)"/>
      <path id="Trazado_225315" data-name="Trazado 225315" d="M292.877,31.921c1.655-2.2,3.232-4.315,4.83-6.415.959-1.264,2.311-1.549,3.361-.743s1.156,2.08.224,3.34q-3.128,4.227-6.312,8.411a2.213,2.213,0,0,1-3.658.294c-.6-.564-1.171-1.154-1.744-1.744-1.112-1.145-1.239-2.353-.359-3.329.842-.936,1.989-.957,3.242-.061C292.56,31.745,292.671,31.8,292.877,31.921Z" transform="translate(38.791 4.735)"/>
      <path id="Trazado_225316" data-name="Trazado 225316" d="M269.885,31.933c1.62-2.158,3.234-4.294,4.831-6.443a2.384,2.384,0,0,1,2.3-1.154,2.13,2.13,0,0,1,1.549,3.331c-2.2,3.1-4.5,6.138-6.838,9.141a2.051,2.051,0,0,1-3.2.157c-.714-.628-1.371-1.321-2.028-2.01a2.22,2.22,0,1,1,2.9-3.361Z" transform="translate(21.773 4.741)"/>
      <path id="Trazado_225317" data-name="Trazado 225317" d="M246.89,77.921c1.693-2.259,3.307-4.449,4.965-6.6a2.19,2.19,0,0,1,3.469-.35,2.058,2.058,0,0,1,.178,2.839c-2.209,2.992-4.422,5.982-6.7,8.923a2.112,2.112,0,0,1-3.3.184c-.674-.606-1.3-1.267-1.932-1.921-1.037-1.076-1.17-2.3-.371-3.235a2.271,2.271,0,0,1,3.248-.153Z" transform="translate(4.764 38.761)"/>
      <path id="Trazado_225318" data-name="Trazado 225318" d="M246.883,54.945c1.7-2.266,3.309-4.409,4.922-6.549a2.195,2.195,0,0,1,2.7-.952,2.1,2.1,0,0,1,1.1,3.188c-2.242,3.131-4.563,6.2-6.93,9.242a2.1,2.1,0,0,1-3.128.1c-.745-.658-1.443-1.373-2.122-2.1a2.241,2.241,0,0,1-.181-3.154,2.194,2.194,0,0,1,3.141-.139C246.521,54.674,246.652,54.775,246.883,54.945Z" transform="translate(4.762 21.745)"/>
      <path id="Trazado_225319" data-name="Trazado 225319" d="M269.883,54.934c1.634-2.177,3.211-4.29,4.8-6.391,1.013-1.337,2.224-1.622,3.336-.82,1.088.785,1.21,2.135.247,3.434q-3.091,4.172-6.232,8.305a2.255,2.255,0,0,1-3.752.273q-.89-.854-1.744-1.744c-1.055-1.095-1.171-2.273-.334-3.235s1.988-1.011,3.237-.125C269.549,54.7,269.655,54.778,269.883,54.934Z" transform="translate(21.773 21.741)"/>
      <path id="Trazado_225320" data-name="Trazado 225320" d="M292.873,54.932c1.563-2.085,3.084-4.128,4.624-6.156a4.606,4.606,0,0,1,1.065-1.121,2,2,0,0,1,2.628.238,2.029,2.029,0,0,1,.355,2.823c-.926,1.363-1.954,2.654-2.94,3.973-1.2,1.6-2.367,3.213-3.594,4.784-1.123,1.439-2.452,1.511-3.768.256q-.893-.854-1.746-1.751c-1.039-1.091-1.136-2.294-.285-3.242.828-.924,1.921-.978,3.148-.155C292.5,54.673,292.631,54.767,292.873,54.932Z" transform="translate(38.792 21.736)"/>
      <path id="Trazado_225321" data-name="Trazado 225321" d="M269.9,77.9c1.65-2.2,3.225-4.327,4.823-6.431.889-1.171,1.857-1.476,2.92-.989a2.156,2.156,0,0,1,.868,3.293q-3.284,4.529-6.718,8.946a2.114,2.114,0,0,1-3.314.193c-.677-.606-1.305-1.271-1.934-1.93-1.06-1.109-1.173-2.294-.332-3.246s2.007-.989,3.251-.106C269.566,77.709,269.679,77.77,269.9,77.9Z" transform="translate(21.773 38.759)"/>
    </g>
  </g>
</svg>
