<svg xmlns="http://www.w3.org/2000/svg" width="299" height="168" viewBox="0 0 299 168">
  <g id="Grupo_215610" data-name="Grupo 215610" transform="translate(-381 -4747)">
    <rect id="Imagen_3" data-name="Imagen 3" width="299" height="168" rx="19" transform="translate(381 4747)" fill="#feca2e"/>
    <g id="Grupo_210596" data-name="Grupo 210596" transform="translate(51 563.446)">
      <g id="Grupo_210595" data-name="Grupo 210595" transform="translate(424 4200.553)">
        <path id="Trazado_222099" data-name="Trazado 222099" d="M135.119,158.865H81.286a4.5,4.5,0,0,1-4.486-4.486V55.686A4.5,4.5,0,0,1,81.286,51.2h53.832a4.5,4.5,0,0,1,4.486,4.486v98.693A4.486,4.486,0,0,1,135.119,158.865Z" transform="translate(-74.557 -37.742)" fill="#4dd0e1"/>
        <path id="Trazado_222100" data-name="Trazado 222100" d="M279.8,51.2h-6.729a4.5,4.5,0,0,1,4.486,4.486v98.693a4.486,4.486,0,0,1-4.486,4.486H279.8a4.486,4.486,0,0,0,4.486-4.486V55.686A4.5,4.5,0,0,0,279.8,51.2Z" transform="translate(-219.235 -37.742)" fill="#3ea6b4"/>
        <path id="Trazado_222101" data-name="Trazado 222101" d="M153.6,19.748V13.019a4.486,4.486,0,0,1,4.486-4.486h13.458a4.486,4.486,0,0,1,4.486,4.486v6.729Z" transform="translate(-131.17 -6.29)" fill="#bddcf6"/>
        <path id="Trazado_222102" data-name="Trazado 222102" d="M203,8.533h-6.729a4.486,4.486,0,0,1,4.486,4.486v6.729h6.729V13.019A4.486,4.486,0,0,0,203,8.533Z" transform="translate(-162.622 -6.29)" fill="#97b0c5"/>
        <path id="Trazado_222103" data-name="Trazado 222103" d="M147.491,221.942l16-21.9a2.243,2.243,0,0,0-1.806-3.569h-15.7l2.487-12.487a2.243,2.243,0,0,0-3.992-1.765l-15.99,21.9a2.243,2.243,0,0,0,1.794,3.569h15.7L143.5,220.177a2.243,2.243,0,0,0,3.993,1.765Z" transform="translate(-112.34 -133.67)" fill="#feca2e"/>
        <path id="Trazado_222104" data-name="Trazado 222104" d="M170.667,196.475H177.4l2.487-12.487a2.243,2.243,0,0,0-3.992-1.765l-3.277,4.486Z" transform="translate(-143.751 -133.67)" fill="#cba225"/>
        <path id="Trazado_222105" data-name="Trazado 222105" d="M204.854,238.933h-6.729a2.243,2.243,0,0,1,1.795,3.569l-12.725,17.415-.54,2.718a2.243,2.243,0,0,0,3.992,1.765l16-21.9a2.243,2.243,0,0,0-1.794-3.569Z" transform="translate(-155.507 -176.129)" fill="#cba225"/>
        <circle id="Elipse_16224" data-name="Elipse 16224" cx="29.159" cy="29.159" r="29.159" transform="translate(49.346 74.02)" fill="#fff"/>
        <path id="Trazado_222106" data-name="Trazado 222106" d="M357.5,281.6a29.2,29.2,0,0,0-3.365.209,29.143,29.143,0,0,1,0,57.9A29.159,29.159,0,1,0,357.5,281.6Z" transform="translate(-278.992 -207.58)" fill="#ffedb6"/>
        <circle id="Elipse_16225" data-name="Elipse 16225" cx="4.486" cy="4.486" r="4.486" transform="translate(74.02 98.693)" fill="#f5f5f5"/>
        <path id="Trazado_222107" data-name="Trazado 222107" d="M108.641,0H95.183a6.729,6.729,0,0,0-6.729,6.729v4.486H75a6.729,6.729,0,0,0-6.729,6.729v98.693A6.729,6.729,0,0,0,75,123.366h47.758a31.431,31.431,0,1,0,12.8-49.483V17.944a6.729,6.729,0,0,0-6.729-6.729H115.37V6.729A6.729,6.729,0,0,0,108.641,0ZM92.94,6.729a2.243,2.243,0,0,1,2.243-2.243h13.458a2.243,2.243,0,0,1,2.243,2.243v4.486H92.94Zm80.749,96.45a26.916,26.916,0,1,1-26.916-26.916A26.916,26.916,0,0,1,173.689,103.179ZM131.071,17.944V76.025a31.27,31.27,0,0,0-11.55,42.687l.1.168H75a2.243,2.243,0,0,1-2.243-2.243V17.944A2.243,2.243,0,0,1,75,15.7h53.832A2.243,2.243,0,0,1,131.071,17.944Z" transform="translate(-68.267)"/>
        <path id="Trazado_222108" data-name="Trazado 222108" d="M123.96,203.507h12.972l-1.954,9.8a4.457,4.457,0,0,0,2.593,4.986,4.567,4.567,0,0,0,1.844.4,4.4,4.4,0,0,0,3.569-1.855l16-21.9a4.486,4.486,0,0,0-3.62-7.137H142.4l1.954-9.8a4.457,4.457,0,0,0-2.593-4.986,4.394,4.394,0,0,0-5.412,1.458l-16,21.9a4.486,4.486,0,0,0,3.616,7.137Zm15.993-26.382-2.49,12.487a2.243,2.243,0,0,0,2.2,2.681h15.7l-15.979,21.869,2.476-12.449a2.243,2.243,0,0,0-2.2-2.692h-15.7Z" transform="translate(-106.016 -127.245)"/>
        <path id="Trazado_222109" data-name="Trazado 222109" d="M348.065,336.359a6.729,6.729,0,0,0,6.316-4.486h9.385a2.243,2.243,0,0,0,0-4.486h-9.385a6.729,6.729,0,0,0-4.073-4.073V309.443a2.243,2.243,0,0,0-4.486,0v13.871a6.713,6.713,0,0,0,2.243,13.045Zm0-8.972a2.243,2.243,0,1,1-2.243,2.243A2.243,2.243,0,0,1,348.065,327.387Z" transform="translate(-269.56 -226.451)"/>
      </g>
    </g>
  </g>
</svg>
