<svg xmlns="http://www.w3.org/2000/svg" width="190" height="121" viewBox="0 0 190 121">
  <g id="Grupo_215598" data-name="Grupo 215598" transform="translate(-180 -4566)">
    <g id="Grupo_215475" data-name="Grupo 215475" transform="translate(0 1901)">
      <rect id="Rect치ngulo_41430" data-name="Rect치ngulo 41430" width="85" height="28" rx="14" transform="translate(285 2665)" fill="#feca2e" opacity="0.2"/>
      <rect id="Rect치ngulo_41431" data-name="Rect치ngulo 41431" width="85" height="28" rx="14" transform="translate(180 2758)" fill="#4dd0e1" opacity="0.2"/>
      <g id="Grupo_215474" data-name="Grupo 215474" transform="translate(-213 -33.195)">
        <g id="Grupo_215473" data-name="Grupo 215473" transform="translate(437 2704)">
          <path id="Trazado_227357" data-name="Trazado 227357" d="M463.472,162.97v-1.238c0-4.457-.007-8.916,0-13.374a4.971,4.971,0,0,1,5.235-5.293q17.984-.012,35.969,0a4.968,4.968,0,0,1,5.234,5.295c.01,4.458,0,8.917,0,13.374v1.236c1.279,0,2.484.086,3.673-.016,4.2-.358,6.388,2.3,6.332,6.244-.154,10.746-.052,21.494-.052,32.242v1.345h1.18q5.857,0,11.712,0a4.987,4.987,0,0,1,5.351,5.388q.007,16.173,0,32.347c0,3.319-2.056,5.394-5.346,5.4q-17.88.008-35.761,0a4.981,4.981,0,0,1-5.332-5.3q-.013-6.686,0-13.374v-1.17h-9.951v1.071q0,6.688,0,13.374c0,3.363-2.059,5.4-5.442,5.405q-17.775.005-35.553,0c-3.387,0-5.443-2.039-5.445-5.4q-.005-16.173,0-32.347a4.99,4.99,0,0,1,5.354-5.384c4.247-.007,8.493,0,12.89,0v-1.245q0-16.484,0-32.969c0-3.6,1.979-5.6,5.554-5.6C460.488,162.969,461.9,162.97,463.472,162.97Zm53.077,39.815v-.936q0-16.687,0-33.377c0-.241.085-.557-.036-.711-.395-.512-.83-1.328-1.314-1.375-1.73-.167-3.485-.066-5.285-.066v1.24c0,4.457.009,8.915,0,13.371a4.972,4.972,0,0,1-5.27,5.26q-17.929.01-35.857,0a4.985,4.985,0,0,1-5.309-5.325q-.012-6.686,0-13.371v-1.209c-1.507,0-2.914,0-4.322,0-1.817,0-2.312.505-2.312,2.353q0,16.532,0,33.067c0,.334.03.667.049,1.078h1.188q9.069,0,18.136,0c3.512,0,5.5,2.008,5.5,5.547q.005,6.581,0,13.164v1.128h9.951v-1.192c0-4.492-.011-8.984,0-13.475a4.955,4.955,0,0,1,5.149-5.168c3.49-.017,6.978,0,10.467,0ZM506.6,159.727H466.79v1q0,9.948,0,19.895c0,1.746.525,2.26,2.3,2.26q17.612,0,35.223,0c1.761,0,2.283-.521,2.283-2.278q0-9.948,0-19.895Zm-68.005,59.69v1q0,9.948,0,19.895c0,1.769.516,2.289,2.27,2.289q17.612,0,35.223,0c1.814,0,2.312-.507,2.313-2.353q0-9.9,0-19.791c0-.334-.029-.669-.047-1.04Zm56.394-.006v1.03q0,9.946,0,19.895c0,1.75.523,2.265,2.295,2.265q17.612,0,35.223,0c1.765,0,2.287-.518,2.288-2.273q0-9.948,0-19.895c0-.333-.03-.665-.048-1.022ZM506.594,156.3c0-2.8.021-5.494-.01-8.184a1.643,1.643,0,0,0-1.884-1.726q-18.024-.01-36.047,0a1.665,1.665,0,0,0-1.858,1.862c-.022,1.485-.006,2.97-.006,4.455V156.3ZM478.4,216.019c0-2.566,0-5.047,0-7.526,0-1.9-.483-2.387-2.38-2.387q-17.5,0-35.01,0a6.325,6.325,0,0,0-.931.02,1.49,1.49,0,0,0-1.439,1.4c-.061,2.817-.023,5.636-.023,8.494Zm56.394,0c0-2.567,0-5.047,0-7.527,0-1.9-.483-2.386-2.38-2.387H497.4a6.184,6.184,0,0,0-.931.02,1.491,1.491,0,0,0-1.438,1.4c-.06,2.818-.023,5.638-.023,8.494Z" transform="translate(-435.273 -143.06)" fill="#0f2771"/>
          <path id="Trazado_227358" data-name="Trazado 227358" d="M499.706,166.99v3.19H466.665v-3.19Z" transform="translate(-431.746 -140.371)" fill="#0f2771"/>
          <path id="Trazado_227359" data-name="Trazado 227359" d="M499.706,172.955v3.191H466.664v-3.191Z" transform="translate(-431.746 -139.7)" fill="#0f2771"/>
          <path id="Trazado_227360" data-name="Trazado 227360" d="M498.7,161.022v3.2h-23.09v-3.2Z" transform="translate(-430.741 -141.041)" fill="#0f2771"/>
          <path id="Trazado_227361" data-name="Trazado 227361" d="M473.173,161.005v3.2h-6.529v-3.2Z" transform="translate(-431.748 -141.043)" fill="#0f2771"/>
          <path id="Trazado_227362" data-name="Trazado 227362" d="M474.336,223.877H441.287v-3.193h33.049Z" transform="translate(-434.598 -134.337)" fill="#0f2771"/>
          <path id="Trazado_227363" data-name="Trazado 227363" d="M441.26,229.824v-3.168h33.072v3.168Z" transform="translate(-434.601 -133.665)" fill="#0f2771"/>
          <path id="Trazado_227364" data-name="Trazado 227364" d="M473.352,214.714v3.193h-23.09v-3.193Z" transform="translate(-433.589 -135.007)" fill="#0f2771"/>
          <path id="Trazado_227365" data-name="Trazado 227365" d="M441.309,214.686h6.5v3.228h-6.5Z" transform="translate(-434.595 -135.011)" fill="#0f2771"/>
          <path id="Trazado_227366" data-name="Trazado 227366" d="M525.059,220.681v3.189H491.981v-3.189Z" transform="translate(-428.901 -134.337)" fill="#0f2771"/>
          <path id="Trazado_227367" data-name="Trazado 227367" d="M491.981,229.823v-3.2h33.041v3.2Z" transform="translate(-428.901 -133.669)" fill="#0f2771"/>
          <path id="Trazado_227368" data-name="Trazado 227368" d="M500.925,217.888V214.7h23.09v3.19Z" transform="translate(-427.896 -135.009)" fill="#0f2771"/>
          <path id="Trazado_227369" data-name="Trazado 227369" d="M492.012,214.682H498.5v3.227h-6.485Z" transform="translate(-428.897 -135.011)" fill="#0f2771"/>
          <path id="Trazado_227370" data-name="Trazado 227370" d="M466.605,152.274V149.1h3.225v3.173Z" transform="translate(-431.752 -142.381)" fill="#0f2771"/>
          <path id="Trazado_227371" data-name="Trazado 227371" d="M475.816,149.1v3.187h-3.188V149.1Z" transform="translate(-431.076 -142.382)" fill="#0f2771"/>
          <path id="Trazado_227372" data-name="Trazado 227372" d="M478.594,149.047h3.153v3.227h-3.153Z" transform="translate(-430.405 -142.387)" fill="#0f2771"/>
          <path id="Trazado_227373" data-name="Trazado 227373" d="M444.5,202.77v3.184h-3.2V202.77Z" transform="translate(-434.596 -136.35)" fill="#0f2771"/>
          <path id="Trazado_227374" data-name="Trazado 227374" d="M450.472,202.765v3.195h-3.213v-3.195Z" transform="translate(-433.926 -136.35)" fill="#0f2771"/>
          <path id="Trazado_227375" data-name="Trazado 227375" d="M456.42,205.981h-3.184v-3.2h3.184Z" transform="translate(-433.255 -136.349)" fill="#0f2771"/>
          <path id="Trazado_227376" data-name="Trazado 227376" d="M495.179,205.978h-3.2v-3.189h3.2Z" transform="translate(-428.901 -136.348)" fill="#0f2771"/>
          <path id="Trazado_227377" data-name="Trazado 227377" d="M497.92,205.961v-3.167h3.22v3.167Z" transform="translate(-428.233 -136.347)" fill="#0f2771"/>
          <path id="Trazado_227378" data-name="Trazado 227378" d="M507.154,202.778v3.166h-3.221v-3.166Z" transform="translate(-427.558 -136.349)" fill="#0f2771"/>
        </g>
      </g>
    </g>
  </g>
</svg>
