<svg xmlns="http://www.w3.org/2000/svg" width="200" height="200" viewBox="0 0 200 200">
  <g id="Grupo_215606" data-name="Grupo 215606" transform="translate(-858 -883)">
    <circle id="Elipse_16411" data-name="Elipse 16411" cx="100" cy="100" r="100" transform="translate(858 883)" fill="#0f2771"/>
    <g id="Grupo_213651" data-name="Grupo 213651" transform="translate(-494.71 -678.021)">
      <path id="Trazado_224948" data-name="Trazado 224948" d="M1505.546,1594.919h-70.7a2.281,2.281,0,0,0-2.281,2.281v54.739h-27.369a2.281,2.281,0,0,0-2.281,2.281v6.842h-2.281a2.281,2.281,0,0,0-2.281,2.281v61.581a2.281,2.281,0,0,0,2.281,2.281h82.108a2.281,2.281,0,0,0,2.281-2.281v-34.212h20.527a2.281,2.281,0,0,0,2.281-2.281V1597.2A2.281,2.281,0,0,0,1505.546,1594.919Zm-98.073,61.581h25.088v11.4h-3.617l-6.174-6.174a2.281,2.281,0,0,0-1.612-.668h-13.685Zm72.985,66.142h-77.546v-57.019h17.3l6.174,6.174a2.281,2.281,0,0,0,1.612.668h52.458Zm-22.808-56.563L1452,1657.6a9.986,9.986,0,0,1,10.647.992Zm8.031-3.823a10.136,10.136,0,0,1,1.092,4.507v1.141h-4.86Zm-12.291,5.647h-7.143v-1.141a10.158,10.158,0,0,1,2.2-6.272Zm49.876,18.246h-18.246v-15.965a2.281,2.281,0,0,0-2.281-2.281h-11.4v-1.141a14.825,14.825,0,0,0-29.65,0v1.141h-4.561V1599.48h66.142Z" transform="translate(0 0)" fill="#fff"/>
      <path id="Trazado_224949" data-name="Trazado 224949" d="M1565.521,1664.586l7.526,9.415a2.282,2.282,0,0,0,1.654.851l.132,0a2.271,2.271,0,0,0,1.613-.668l23.475-23.476v5.9h4.562v-11.4a2.281,2.281,0,0,0-2.281-2.281h-11.4v4.562h5.9l-21.667,21.667-7.526-9.415a2.284,2.284,0,0,0-1.665-.849,2.323,2.323,0,0,0-1.741.664l-11.4,11.4,3.226,3.225Z" transform="translate(-110.341 -34.315)" fill="#fff"/>
      <path id="Trazado_224950" data-name="Trazado 224950" d="M1694.35,1722.919h11.4v4.562h-11.4Z" transform="translate(-211.611 -91.508)" fill="#fff"/>
      <path id="Trazado_224951" data-name="Trazado 224951" d="M1662.35,1754.919h20.527v4.562H1662.35Z" transform="translate(-188.734 -114.385)" fill="#fff"/>
      <path id="Trazado_224952" data-name="Trazado 224952" d="M1694.35,1786.919h11.4v4.562h-11.4Z" transform="translate(-211.611 -137.261)" fill="#fff"/>
      <path id="Trazado_224953" data-name="Trazado 224953" d="M1670.35,1818.919H1688.6v4.562H1670.35Z" transform="translate(-194.454 -160.138)" fill="#fff"/>
      <path id="Trazado_224954" data-name="Trazado 224954" d="M1446.35,1994.919h13.685v4.562H1446.35Z" transform="translate(-34.315 -285.961)" fill="#fff"/>
      <path id="Trazado_224955" data-name="Trazado 224955" d="M1510.35,1994.919h4.562v4.562h-4.562Z" transform="translate(-80.069 -285.961)" fill="#fff"/>
      <path id="Trazado_224956" data-name="Trazado 224956" d="M1446.35,1962.919h22.808v4.562H1446.35Z" transform="translate(-34.315 -263.084)" fill="#fff"/>
    </g>
  </g>
</svg>
