<svg xmlns="http://www.w3.org/2000/svg" width="200" height="200" viewBox="0 0 200 200">
  <g id="Grupo_215605" data-name="Grupo 215605" transform="translate(-543 -883)">
    <circle id="Elipse_16410" data-name="Elipse 16410" cx="100" cy="100" r="100" transform="translate(543 883)" fill="#0f2771"/>
    <g id="Grupo_213650" data-name="Grupo 213650" transform="translate(-77.922 813.649)">
      <g id="Grupo_213650-2" data-name="Grupo 213650" transform="translate(658.922 107.351)">
        <path id="Trazado_224945" data-name="Trazado 224945" d="M721.422,107.351a3.388,3.388,0,1,0,0,6.776,55.493,55.493,0,0,1,36.914,14.019l-8,8a44.361,44.361,0,0,0-57.8.017l-10.4-10.4c-.018-.018-.039-.034-.057-.052s-.032-.038-.05-.056a3.388,3.388,0,0,0-4.791,0,62.5,62.5,0,1,0,44.194-18.306Zm26.622,35.911a3.387,3.387,0,0,0,4.791,0,3.45,3.45,0,0,0,.271-.309l.022-.02,10-10a55.5,55.5,0,0,1,13.913,33.526H773.27a3.388,3.388,0,0,0,0,6.776h3.77a55.247,55.247,0,0,1-13.894,33.546l-8.039-8.039a44.208,44.208,0,0,0,10.716-28.894,3.388,3.388,0,1,0-6.776,0,37.625,37.625,0,1,1-11-26.589Zm-26.622,74.723a3.388,3.388,0,0,0-3.388,3.388v4.1a55.5,55.5,0,0,1-33.526-13.913l8.02-8.02a44.313,44.313,0,0,0,57.788,0l8.039,8.039a55.242,55.242,0,0,1-33.546,13.895v-4.1A3.387,3.387,0,0,0,721.422,217.986ZM665.8,173.239h11.345a44.211,44.211,0,0,0,10.588,25.506l-8.02,8.02A55.5,55.5,0,0,1,665.8,173.239ZM679.7,132.917l8.039,8.039a44.213,44.213,0,0,0-10.588,25.506H665.8A55.246,55.246,0,0,1,679.7,132.917Z" transform="translate(-658.922 -107.351)" fill="#fff"/>
        <path id="Trazado_224946" data-name="Trazado 224946" d="M934.648,298.124v-11.56c2.855.639,4.381,2.256,4.537,4.81a.926.926,0,0,0,.88.907h4.617a.836.836,0,0,0,.607-.267,1.037,1.037,0,0,0,.276-.764c-.3-6.579-4.275-10.922-10.917-11.941v-3.855a.932.932,0,0,0-.883-.972h-4.616a.932.932,0,0,0-.883.972v3.855c-6.953,1.065-10.936,5.708-10.936,12.762s3.982,11.7,10.936,12.761v11.56c-2.854-.639-4.381-2.257-4.537-4.81a.926.926,0,0,0-.88-.907h-4.617a.836.836,0,0,0-.607.267,1.036,1.036,0,0,0-.276.764c.3,6.579,4.275,10.923,10.917,11.941V327.5a.932.932,0,0,0,.883.972h4.616a.932.932,0,0,0,.883-.972v-3.854c6.953-1.065,10.936-5.708,10.936-12.762S941.6,299.19,934.648,298.124Zm-6.382-.547c-4.554-1.02-4.554-4.269-4.554-5.507s0-4.486,4.554-5.507Zm6.382,18.816V305.379c4.554,1.02,4.554,4.269,4.554,5.507S939.2,315.372,934.648,316.392Z" transform="translate(-857.663 -238.978)" fill="#fff"/>
        <path id="Trazado_224947" data-name="Trazado 224947" d="M832.441,292.957h1.418c3.589,0,6.63,3.353,6.923,7.634a1.188,1.188,0,0,0,1.179,1.107h4.322a1.173,1.173,0,0,0,.858-.368,1.2,1.2,0,0,0,.327-.879c-.394-7.949-6.371-14.176-13.609-14.176h-1.418c-7.515,0-13.629,6.73-13.629,15V318.1c0,8.272,6.113,15,13.629,15h1.418c7.237,0,13.215-6.227,13.609-14.176a1.2,1.2,0,0,0-.326-.879,1.174,1.174,0,0,0-.858-.368h-4.322a1.188,1.188,0,0,0-1.179,1.107c-.293,4.281-3.334,7.634-6.923,7.634h-1.418c-3.83,0-6.946-3.732-6.946-8.319V301.276C825.494,296.688,828.61,292.957,832.441,292.957Z" transform="translate(-781.93 -247.189)" fill="#fff"/>
      </g>
    </g>
  </g>
</svg>
