<svg xmlns="http://www.w3.org/2000/svg" width="68.817" height="78.616" viewBox="0 0 68.817 78.616">
  <g id="Grupo_215598" data-name="Grupo 215598" transform="translate(-1019.931 -152.82)">
    <g id="Grupo_213743" data-name="Grupo 213743" transform="translate(849.063 133.313)">
      <g id="Grupo_213737" data-name="Grupo 213737">
        <path id="Trazado_225170" data-name="Trazado 225170" d="M193.652,86.985a25.622,25.622,0,0,0,3.148.347l-.289,5.3a47.532,47.532,0,0,0,8.276-.919l2.863-5.581a42.138,42.138,0,0,0,7.011-2.52l5.7,2.5a48.241,48.241,0,0,0,6.993-4.571l-3.534-3.929a26.058,26.058,0,0,0,2.226-2.279,20.306,20.306,0,0,0,1.722-2.372l8.364-1.76a16.018,16.018,0,0,0,1.6-5.553l-7.853.031a8.247,8.247,0,0,0-1.427-4.058l6.111-4.99a15.677,15.677,0,0,0-4.706-3.285l-7.586,3.973a20.016,20.016,0,0,0-2.816-.74,25.857,25.857,0,0,0-3.149-.347l.289-5.3a47.649,47.649,0,0,0-8.276.919l-2.862,5.581a42.11,42.11,0,0,0-7.011,2.521l-5.7-2.5a48.022,48.022,0,0,0-6.993,4.571l3.533,3.928a26.216,26.216,0,0,0-2.226,2.28A20.333,20.333,0,0,0,185.34,70.6l-8.363,1.761a15.984,15.984,0,0,0-1.6,5.553l7.853-.031a8.246,8.246,0,0,0,1.426,4.058l-6.111,4.989a15.677,15.677,0,0,0,4.707,3.285l7.586-3.973A19.844,19.844,0,0,0,193.652,86.985ZM197,70.043c3.494-4.115,10.6-6.671,15.881-5.709s6.724,5.077,3.23,9.192-10.6,6.672-15.881,5.71S193.507,74.158,197,70.043Z" fill="#feca2e"/>
        <path id="Trazado_225171" data-name="Trazado 225171" d="M229.719,78.454l8.363-1.761-1.948-5.488-8.364,1.761Z" fill="#fff7e0"/>
        <path id="Trazado_225172" data-name="Trazado 225172" d="M227.771,72.966a20.306,20.306,0,0,1-1.722,2.372,26.058,26.058,0,0,1-2.226,2.279l3.533,3.929v0s.435-.475.641-.718a20.306,20.306,0,0,0,1.722-2.372Z" fill="#fff7e0"/>
        <path id="Trazado_225173" data-name="Trazado 225173" d="M238.083,76.694a16.016,16.016,0,0,0,1.6-5.554l-1.948-5.487a16.018,16.018,0,0,1-1.6,5.553Z" fill="#fff7e0"/>
        <path id="Trazado_225174" data-name="Trazado 225174" d="M222.312,91.6a48.153,48.153,0,0,0,6.993-4.57l-1.949-5.488a48.176,48.176,0,0,1-6.992,4.571Z" fill="#fff7e0"/>
        <path id="Trazado_225175" data-name="Trazado 225175" d="M220.364,86.117l-5.7-2.5,1.948,5.488,5.7,2.5Z" fill="#fff7e0"/>
        <path id="Trazado_225176" data-name="Trazado 225176" d="M214.661,83.615a42.138,42.138,0,0,1-7.011,2.52l1.948,5.488a42.229,42.229,0,0,0,7.011-2.52Z" fill="#fff7e0"/>
        <path id="Trazado_225177" data-name="Trazado 225177" d="M207.65,86.135l-2.863,5.581,1.948,5.488,2.863-5.581Z" fill="#fff7e0"/>
        <path id="Trazado_225178" data-name="Trazado 225178" d="M204.787,91.716a47.532,47.532,0,0,1-8.276.919l1.948,5.488a47.532,47.532,0,0,0,8.276-.919Z" fill="#fff7e0"/>
        <path id="Trazado_225179" data-name="Trazado 225179" d="M229.884,65.684l2.284-.009,4.348-3.551-1.948-5.488-6.111,4.99A8.247,8.247,0,0,1,229.884,65.684Z" fill="#fff7e0"/>
        <path id="Trazado_225180" data-name="Trazado 225180" d="M197.367,78.194a8.48,8.48,0,0,1,1.581-2.663c3.494-4.115,10.6-6.671,15.881-5.709a8.325,8.325,0,0,1,2.863,1.041c1.084-3.1-.687-5.778-4.811-6.529-5.277-.962-12.387,1.594-15.881,5.709C194.262,73.269,194.57,76.487,197.367,78.194Z" fill="#fff7e0"/>
        <path id="Trazado_225181" data-name="Trazado 225181" d="M183.25,90.218a15.677,15.677,0,0,1-4.707-3.285l1.948,5.488a15.7,15.7,0,0,0,4.707,3.285Z" fill="#fff7e0"/>
        <path id="Trazado_225182" data-name="Trazado 225182" d="M192.784,91.733a19.979,19.979,0,0,0,2.816.74c.3.054.607.09.913.129l.287-5.27a25.622,25.622,0,0,1-3.148-.347,19.844,19.844,0,0,1-2.816-.74Z" fill="#fff7e0"/>
        <path id="Trazado_225183" data-name="Trazado 225183" d="M190.836,86.245l-7.586,3.973,1.948,5.488,7.586-3.973Z" fill="#fff7e0"/>
        <path id="Trazado_225184" data-name="Trazado 225184" d="M207.65,86.135l-2.863,5.581,1.948,5.488,2.863-5.581Z" fill="#a10016" opacity="0.3" style="mix-blend-mode: multiply;isolation: isolate"/>
        <path id="Trazado_225185" data-name="Trazado 225185" d="M190.836,86.245l-7.586,3.973,1.948,5.488,7.586-3.973Z" fill="#a10016" opacity="0.3" style="mix-blend-mode: multiply;isolation: isolate"/>
        <path id="Trazado_225186" data-name="Trazado 225186" d="M184.654,81.944a8.246,8.246,0,0,1-1.426-4.058l-7.853.031,1.948,5.488,5.569-.022Z" fill="#fff7e0"/>
        <path id="Trazado_225187" data-name="Trazado 225187" d="M218.622,56.466,216.6,50.934l-.288,5.3C217.1,56.281,217.865,56.361,218.622,56.466Z" fill="#fff7e0"/>
        <path id="Trazado_225188" data-name="Trazado 225188" d="M189.288,65.952l-3.533-3.928,1.936,5.523C188.2,67,188.727,66.469,189.288,65.952Z" fill="#fff7e0"/>
        <path id="Trazado_225189" data-name="Trazado 225189" d="M197.574,69.423c-.2.2-.394.408-.574.62-2.738,3.226-2.43,6.444.368,8.151a8.467,8.467,0,0,1,1.58-2.663,14.452,14.452,0,0,1,2.9-2.546Z" fill="#a10016" opacity="0.3" style="mix-blend-mode: multiply;isolation: isolate"/>
      </g>
      <g id="Grupo_213738" data-name="Grupo 213738">
        <path id="Trazado_225190" data-name="Trazado 225190" d="M184.033,46.642a16.912,16.912,0,0,0,2.055-.282l.664,3.412a31.19,31.19,0,0,0,5.106-1.906l.925-4a27.592,27.592,0,0,0,4.047-2.721l4.02.677a31.581,31.581,0,0,0,3.708-4.019l-2.871-1.929a16.945,16.945,0,0,0,1.048-1.8,13.285,13.285,0,0,0,.715-1.78l5.027-2.454a10.488,10.488,0,0,0,.129-3.781l-4.98,1.275a5.393,5.393,0,0,0-1.554-2.348l3.082-4.143a10.247,10.247,0,0,0-3.513-1.333l-4.18,3.734a13.056,13.056,0,0,0-1.9-.019,16.676,16.676,0,0,0-2.054.282l-.664-3.412A31.156,31.156,0,0,0,187.732,22l-.926,4a27.644,27.644,0,0,0-4.047,2.721l-4.019-.677a31.436,31.436,0,0,0-3.708,4.019l2.87,1.929a17.118,17.118,0,0,0-1.048,1.8,13.143,13.143,0,0,0-.714,1.78l-5.027,2.454a10.465,10.465,0,0,0-.129,3.781l4.979-1.275a5.4,5.4,0,0,0,1.554,2.348l-3.081,4.143a10.262,10.262,0,0,0,3.512,1.333l4.18-3.734A13.058,13.058,0,0,0,184.033,46.642Zm-.582-11.288a12.209,12.209,0,0,1,9.168-6.162c3.5-.233,5.079,2.148,3.519,5.318a12.206,12.206,0,0,1-9.168,6.162C183.467,40.9,181.891,38.524,183.451,35.354Z" fill="#feca2e"/>
        <path id="Trazado_225191" data-name="Trazado 225191" d="M205.563,35.463l5.027-2.454-2.114-3.172-5.027,2.454Z" fill="#fff7e0"/>
        <path id="Trazado_225192" data-name="Trazado 225192" d="M203.45,32.291a13.285,13.285,0,0,1-.715,1.78,16.945,16.945,0,0,1-1.048,1.8l2.87,1.929h0s.2-.371.292-.559a13.145,13.145,0,0,0,.714-1.78Z" fill="#fff7e0"/>
        <path id="Trazado_225193" data-name="Trazado 225193" d="M210.59,33.009a10.465,10.465,0,0,0,.129-3.781l-2.113-3.172a10.488,10.488,0,0,1-.129,3.781Z" fill="#fff7e0"/>
        <path id="Trazado_225194" data-name="Trazado 225194" d="M202.963,44.994a31.576,31.576,0,0,0,3.708-4.019L204.557,37.8a31.5,31.5,0,0,1-3.707,4.019Z" fill="#fff7e0"/>
        <path id="Trazado_225195" data-name="Trazado 225195" d="M200.85,41.822l-4.02-.676,2.114,3.172,4.02.676Z" fill="#fff7e0"/>
        <path id="Trazado_225196" data-name="Trazado 225196" d="M196.83,41.145a27.592,27.592,0,0,1-4.047,2.721l2.113,3.172a27.653,27.653,0,0,0,4.048-2.721Z" fill="#fff7e0"/>
        <path id="Trazado_225197" data-name="Trazado 225197" d="M192.783,43.866l-.925,4,2.114,3.172.925-4Z" fill="#fff7e0"/>
        <path id="Trazado_225198" data-name="Trazado 225198" d="M191.858,47.866a31.19,31.19,0,0,1-5.106,1.906l2.113,3.172a31.247,31.247,0,0,0,5.106-1.906Z" fill="#fff7e0"/>
        <path id="Trazado_225199" data-name="Trazado 225199" d="M203.626,27.331l1.449-.371,2.192-2.948-2.113-3.172-3.082,4.143A5.393,5.393,0,0,1,203.626,27.331Z" fill="#fff7e0"/>
        <path id="Trazado_225200" data-name="Trazado 225200" d="M184.987,40.469a5.542,5.542,0,0,1,.578-1.943,12.2,12.2,0,0,1,9.167-6.162,5.426,5.426,0,0,1,1.984.2c.192-2.14-1.36-3.557-4.1-3.375a12.209,12.209,0,0,0-9.168,6.162C182.229,37.839,182.939,39.832,184.987,40.469Z" fill="#fff7e0"/>
        <path id="Trazado_225201" data-name="Trazado 225201" d="M177.948,50.357a10.262,10.262,0,0,1-3.512-1.333l2.113,3.172a10.268,10.268,0,0,0,3.513,1.333Z" fill="#fff7e0"/>
        <path id="Trazado_225202" data-name="Trazado 225202" d="M184.242,49.795a13.054,13.054,0,0,0,1.9.019c.2-.013.4-.039.6-.063l-.66-3.391a16.912,16.912,0,0,1-2.055.282,13.058,13.058,0,0,1-1.9-.019Z" fill="#fff7e0"/>
        <path id="Trazado_225203" data-name="Trazado 225203" d="M182.128,46.623l-4.18,3.734,2.114,3.172,4.18-3.734Z" fill="#fff7e0"/>
        <path id="Trazado_225204" data-name="Trazado 225204" d="M192.783,43.866l-.925,4,2.114,3.172.925-4Z" fill="#a10016" opacity="0.3" style="mix-blend-mode: multiply;isolation: isolate"/>
        <path id="Trazado_225205" data-name="Trazado 225205" d="M182.128,46.623l-4.18,3.734,2.114,3.172,4.18-3.734Z" fill="#a10016" opacity="0.3" style="mix-blend-mode: multiply;isolation: isolate"/>
        <path id="Trazado_225206" data-name="Trazado 225206" d="M177.517,44.881a5.4,5.4,0,0,1-1.554-2.348l-4.979,1.275L173.1,46.98l3.531-.9Z" fill="#fff7e0"/>
        <path id="Trazado_225207" data-name="Trazado 225207" d="M195.005,23.28l-2.167-3.188L193.5,23.5C194.007,23.407,194.508,23.335,195.005,23.28Z" fill="#fff7e0"/>
        <path id="Trazado_225208" data-name="Trazado 225208" d="M177.9,33.99l-2.87-1.929,2.111,3.2C177.378,34.831,177.629,34.408,177.9,33.99Z" fill="#fff7e0"/>
        <path id="Trazado_225209" data-name="Trazado 225209" d="M183.716,34.869c-.093.16-.185.322-.265.485-1.222,2.485-.512,4.478,1.536,5.115a5.542,5.542,0,0,1,.578-1.943A9.434,9.434,0,0,1,187,36.446Z" fill="#a10016" opacity="0.3" style="mix-blend-mode: multiply;isolation: isolate"/>
      </g>
    </g>
  </g>
</svg>
