<svg xmlns="http://www.w3.org/2000/svg" xmlns:xlink="http://www.w3.org/1999/xlink" width="509" height="430" viewBox="0 0 509 430">
  <defs>
    <linearGradient id="linear-gradient" x1="0.669" y1="-0.1" x2="0.43" y2="0.816" gradientUnits="objectBoundingBox">
      <stop offset="0" stop-color="#aa80f9"/>
      <stop offset="0.996" stop-color="#6165d7"/>
    </linearGradient>
    <clipPath id="clip-path">
      <rect id="Rectángulo_303613" data-name="Rectángulo 303613" width="509" height="430" transform="translate(-6662 -6093)" fill="none" stroke="#707070" stroke-width="1"/>
    </clipPath>
    <linearGradient id="linear-gradient-2" y1="0.5" x2="1" y2="0.5" gradientUnits="objectBoundingBox">
      <stop offset="0" stop-color="#3da6b4"/>
      <stop offset="1" stop-color="#fb6fbb"/>
    </linearGradient>
    <clipPath id="clip-path-2">
      <path id="Trazado_222817" data-name="Trazado 222817" d="M1893.771,1535.88c-11.11,2.894-19.518-10.157-12.219-19.019a93.308,93.308,0,0,0,8.88-12.809c15.456-26.873,7.468-44.515,21.388-93.161,8.8-30.758,15.254-52.135,33.841-59.678,14.566-5.911,34.839-2.618,44.7,8.869,8.2,9.55,10.168,25.883,9.208,36.934-.782,9.006-3.55,14.98.259,20.81,3.892,5.958,10.062,4.738,13.934,9.4,7.852,9.464-3.683,31.161-5.547,34.668-20.737,39.007-66.271,57.2-86.228,64.9A261.168,261.168,0,0,1,1893.771,1535.88Z" transform="translate(-1878.815 -1348.332)" fill="none"/>
    </clipPath>
    <clipPath id="clip-path-3">
      <path id="Trazado_222822" data-name="Trazado 222822" d="M1839.243,2126.278c16.9,9.9,39.835,20.1,65.951,22.673,6.665.658,47.837,4.72,52.557-12.376,1.663-6.022-2.6-9.584-.519-17.675,2.468-9.587,10.035-10.722,19.568-18.946,5.689-4.907,22.337-19.267,17.306-35.435-3.007-9.662-13.618-19.532-24.184-22.729-15.5-4.689-27.863,5.9-48.474,24.175-18.27,16.2-19.39,22.119-32.75,33.556C1878.784,2108.009,1863.225,2118.6,1839.243,2126.278Z" transform="translate(-1839.243 -2040.683)" fill="url(#linear-gradient)"/>
    </clipPath>
    <linearGradient id="linear-gradient-4" x1="1.74" y1="0.831" x2="0.566" y2="0.511" gradientUnits="objectBoundingBox">
      <stop offset="0" stop-color="#0f2771"/>
      <stop offset="1" stop-color="#3da6b4"/>
    </linearGradient>
    <linearGradient id="linear-gradient-5" x1="2.229" y1="0.823" x2="0.272" y2="0.477" xlink:href="#linear-gradient-4"/>
    <linearGradient id="linear-gradient-6" x1="0.495" y1="0.117" x2="0.513" y2="1.536" gradientUnits="objectBoundingBox">
      <stop offset="0" stop-color="#feca2e"/>
      <stop offset="1" stop-color="#4dd0e1"/>
    </linearGradient>
    <linearGradient id="linear-gradient-10" x1="0.234" y1="0.5" x2="1.234" y2="0.5" gradientUnits="objectBoundingBox">
      <stop offset="0.494" stop-color="#ebeff2"/>
      <stop offset="1" stop-color="#fff"/>
    </linearGradient>
    <linearGradient id="linear-gradient-11" y1="0.5" x2="1" y2="0.5" gradientUnits="objectBoundingBox">
      <stop offset="0" stop-color="#4dd0e1"/>
      <stop offset="1" stop-color="#2e7d87"/>
    </linearGradient>
    <linearGradient id="linear-gradient-12" x1="0.505" y1="0.386" x2="0.42" y2="5.917" gradientUnits="objectBoundingBox">
      <stop offset="0" stop-color="#40447e"/>
      <stop offset="0.996" stop-color="#3c3b6b"/>
    </linearGradient>
    <linearGradient id="linear-gradient-13" x1="0.859" y1="-1.087" x2="0.29" y2="1.428" gradientUnits="objectBoundingBox">
      <stop offset="0.004" stop-color="#e38ddd"/>
      <stop offset="1" stop-color="#9571f6"/>
    </linearGradient>
    <clipPath id="clip-path-4">
      <path id="Trazado_222853" data-name="Trazado 222853" d="M1018.422,1130.179a25.31,25.31,0,0,1-25.857,25.149c-14.584-.117-26.569-11.878-26.569-26.267s11.985-25.639,26.569-25.134C1006.932,1104.425,1018.422,1116.176,1018.422,1130.179Z" transform="translate(-965.996 -1103.911)" fill="none"/>
    </clipPath>
    <linearGradient id="linear-gradient-14" x1="1.165" y1="-1.61" x2="-1.193" y2="5.71" xlink:href="#linear-gradient-13"/>
    <linearGradient id="linear-gradient-15" x1="0.949" y1="-2.822" x2="0.004" y2="5.054" xlink:href="#linear-gradient-13"/>
    <linearGradient id="linear-gradient-16" x1="1.111" y1="-1.456" x2="-1.229" y2="5.863" xlink:href="#linear-gradient-13"/>
    <linearGradient id="linear-gradient-17" x1="0.948" y1="-2.676" x2="-0.125" y2="5.105" xlink:href="#linear-gradient-13"/>
    <linearGradient id="linear-gradient-18" x1="43.31" y1="-208.584" x2="-75.838" y2="373.331" xlink:href="#linear-gradient-13"/>
    <linearGradient id="linear-gradient-19" x1="0.984" y1="-1.035" x2="-1.39" y2="6.281" xlink:href="#linear-gradient-13"/>
    <linearGradient id="linear-gradient-20" x1="0.902" y1="-2.135" x2="-0.214" y2="5.552" xlink:href="#linear-gradient-13"/>
    <linearGradient id="linear-gradient-21" x1="2.831" y1="-0.572" x2="3.827" y2="-0.572" gradientUnits="objectBoundingBox">
      <stop offset="0" stop-color="#444b8c"/>
      <stop offset="0.996" stop-color="#26264f"/>
    </linearGradient>
    <linearGradient id="linear-gradient-22" y1="0.5" x2="1" y2="0.5" gradientUnits="objectBoundingBox">
      <stop offset="0" stop-color="#ffc444"/>
      <stop offset="0.996" stop-color="#f36f56"/>
    </linearGradient>
    <linearGradient id="linear-gradient-23" x1="8.205" y1="-10.701" x2="9.168" y2="-10.701" xlink:href="#linear-gradient-21"/>
    <linearGradient id="linear-gradient-25" x1="-6.247" y1="1.627" x2="-5.994" y2="0.675" xlink:href="#linear-gradient-22"/>
    <linearGradient id="linear-gradient-26" x1="-5.902" y1="3.338" x2="-6.022" y2="0.667" gradientUnits="objectBoundingBox">
      <stop offset="0" stop-color="#311944"/>
      <stop offset="1" stop-color="#893976"/>
    </linearGradient>
    <linearGradient id="linear-gradient-27" x1="-20.363" y1="-0.345" x2="-20.236" y2="1.229" xlink:href="#linear-gradient-26"/>
    <linearGradient id="linear-gradient-29" x1="-4.042" y1="0.691" x2="-4.231" y2="0.249" xlink:href="#linear-gradient-21"/>
    <linearGradient id="linear-gradient-30" x1="-4.484" y1="1.422" x2="-4.063" y2="0.015" xlink:href="#linear-gradient-26"/>
    <linearGradient id="linear-gradient-31" x1="-5.155" y1="0.5" x2="-4.155" y2="0.5" xlink:href="#linear-gradient-26"/>
    <linearGradient id="linear-gradient-33" x1="0.537" y1="0.002" x2="0.441" y2="1.962" xlink:href="#linear-gradient-22"/>
    <linearGradient id="linear-gradient-34" x1="1.683" y1="0.454" x2="1.005" y2="-1.088" gradientUnits="objectBoundingBox">
      <stop offset="0" stop-color="#311944"/>
      <stop offset="1" stop-color="#6b3976"/>
    </linearGradient>
    <linearGradient id="linear-gradient-36" x1="1.689" y1="0.118" x2="0.904" y2="-2.071" xlink:href="#linear-gradient-34"/>
  </defs>
  <g id="Grupo_215616" data-name="Grupo 215616" transform="translate(6662 5969.69)">
    <g id="Enmascarar_grupo_74" data-name="Enmascarar grupo 74" transform="translate(0 123.31)" clip-path="url(#clip-path)">
      <g id="Grupo_215228" data-name="Grupo 215228" transform="translate(38.5 3.044)">
        <path id="Trazado_222811" data-name="Trazado 222811" d="M1105.354,646.13c-10.61-69.449-54.112-154.772-140.055-163.7,0,0-65.252-7.937-129.576,4.092-38.176,7.139-71.651,28.392-92.833,58.936s-28.257,67.79-19.67,103.3c5.577,23.063,9.346,46.933,8.311,70.631-1.8,41.246-.764,79.745,39.263,104.343,35.74,21.963,80.72,41.334,123.631,44.726,29.162,2.306,61.866-1.426,89.972-9.018C1127.635,820.745,1115.964,715.579,1105.354,646.13Z" transform="translate(-7343.114 -6559.008)" fill="#f4f7fa"/>
        <g id="Grupo_210892" data-name="Grupo 210892" transform="translate(-6452.455 -5951.028)">
          <path id="Trazado_222812" data-name="Trazado 222812" d="M1910,1534.828c-12.169,3.369-21.645-10.653-13.976-20.685a92.781,92.781,0,0,0,6.722-10.091c15.456-26.873,7.468-44.515,21.388-93.161,8.8-30.758,15.254-52.135,33.841-59.678,14.566-5.911,34.839-2.618,44.7,8.869,8.2,9.55,10.169,25.883,9.208,36.934-.782,9.006-3.55,14.98.259,20.81,3.892,5.958,10.062,4.738,13.934,9.4,7.852,9.464-3.682,31.161-5.546,34.668-20.737,39.007-66.271,57.2-86.228,64.9C1927.581,1529.394,1919.449,1532.212,1910,1534.828Z" transform="translate(-1891.13 -1348.332)" fill="url(#linear-gradient-2)"/>
          <g id="Grupo_210891" data-name="Grupo 210891" transform="translate(0 0)">
            <g id="Grupo_210890" data-name="Grupo 210890" clip-path="url(#clip-path-2)">
              <g id="Grupo_210889" data-name="Grupo 210889" transform="translate(-44.182 -8.97)" opacity="0.5" style="mix-blend-mode: soft-light;isolation: isolate">
                <path id="Trazado_222813" data-name="Trazado 222813" d="M1579.444,1496.581l-.118-1.051c19.508-2.184,36.867-6.3,51.6-12.245,21.71-8.758,37.038-21.264,45.559-37.171,6.676-12.462,9.065-26.543,12.371-46.034a266.99,266.99,0,0,0,3.52-36.768c.539-13,.966-23.272,6.046-37.031a111.011,111.011,0,0,1,24.942-38.75l.759.736a109.963,109.963,0,0,0-24.708,38.38c-5.022,13.6-5.446,23.8-5.982,36.709a267.888,267.888,0,0,1-3.534,36.9c-3.2,18.852-5.724,33.742-12.482,46.356-8.641,16.131-24.149,28.8-46.095,37.652C1616.5,1490.243,1599.047,1494.387,1579.444,1496.581Z" transform="translate(-1579.326 -1287.531)" fill="#fff"/>
                <path id="Trazado_222814" data-name="Trazado 222814" d="M2180.663,1527.349l-.471-.368a75.124,75.124,0,0,1-16.552-20.232c-6.886-12.045-13.85-31.767-7.919-57.327l1.03.239c-5.854,25.226,1.014,44.683,7.807,56.563a75.831,75.831,0,0,0,15.823,19.543c15.416-25.395,34.647-38.867,48.108-45.7,14.7-7.468,25.913-8.863,26.024-8.876l.125,1.05c-.11.013-11.172,1.395-25.715,8.791-13.416,6.824-32.626,20.309-47.953,45.808Z" transform="translate(-2068.78 -1425.539)" fill="#fff"/>
                <path id="Trazado_222815" data-name="Trazado 222815" d="M1963.321,1865.365l-.131-.361a216.946,216.946,0,0,0-15.982-33.332c-9.591-15.883-38.527-27.99-38.818-28.111l.4-.977c.295.122,29.549,12.36,39.319,28.541a218.331,218.331,0,0,1,15.937,33.155c34.015-1.623,86.622-66.736,87.151-67.4l.825.661A382.015,382.015,0,0,1,2021,1830.963c-23.522,22.329-42.8,33.9-57.3,34.389Z" transform="translate(-1859.844 -1721.741)" fill="#fff"/>
                <path id="Trazado_222816" data-name="Trazado 222816" d="M1962.2,2205.813a164.182,164.182,0,0,1-19.426-1l-1.044-.14.736-.754c11.652-11.921,14.253-26.918,7.734-44.574a83.913,83.913,0,0,0-13.4-23.118l.8-.693a85.119,85.119,0,0,1,13.6,23.446c6.44,17.441,3.936,32.944-7.232,44.908a198.018,198.018,0,0,0,36.069.119c19.766-1.663,48.745-7.015,74.556-23.066l50.156-31.19.559.9-50.155,31.19c-26,16.167-55.165,21.553-75.054,23.224C1973.473,2205.619,1967.418,2205.813,1962.2,2205.813Z" transform="translate(-1884.06 -2010.434)" fill="#fff"/>
              </g>
            </g>
          </g>
        </g>
        <g id="Grupo_210896" data-name="Grupo 210896" transform="translate(-6458.293 -5848.89)">
          <g id="Grupo_210895" data-name="Grupo 210895" transform="translate(0 0)">
            <path id="Trazado_222818" data-name="Trazado 222818" d="M1839.243,2126.278c16.9,9.9,39.835,20.1,65.951,22.673,6.665.658,47.837,4.72,52.557-12.376,1.663-6.022-2.6-9.584-.519-17.675,2.468-9.587,10.035-10.722,19.568-18.946,5.689-4.907,22.337-19.267,17.306-35.435-3.007-9.662-13.618-19.532-24.184-22.729-15.5-4.689-27.863,5.9-48.474,24.175-18.27,16.2-19.39,22.119-32.75,33.556C1878.784,2108.009,1863.225,2118.6,1839.243,2126.278Z" transform="translate(-1839.243 -2040.683)" fill="url(#linear-gradient)"/>
            <g id="Grupo_210894" data-name="Grupo 210894" clip-path="url(#clip-path-3)">
              <g id="Grupo_210893" data-name="Grupo 210893" transform="translate(-75.73 -13.508)" opacity="0.5" style="mix-blend-mode: soft-light;isolation: isolate">
                <path id="Trazado_222819" data-name="Trazado 222819" d="M1410.317,2048.447a109.323,109.323,0,0,1-31.025-4.462c-19.6-5.771-37.558-16.691-53.389-32.457l.746-.749c15.7,15.64,33.516,26.471,52.942,32.191,25.874,7.62,53.426,5.375,81.889-6.672,29.654-12.55,52.868-32.593,67.121-47.2,9.857-10.1,16.836-23.552,20.746-39.986l1.029.245c-3.954,16.623-11.026,30.242-21.018,40.479-14.321,14.674-37.649,34.813-67.466,47.433C1444.3,2044.716,1427.049,2048.447,1410.317,2048.447Z" transform="translate(-1325.903 -1949.115)" fill="#fff"/>
                <path id="Trazado_222820" data-name="Trazado 222820" d="M2484.561,2076.453l-.075-.469c-.054-.346-5.23-34.831,16.676-56.934l.751.744c-20.139,20.319-16.981,51.363-16.448,55.553,49.308-2.684,64.326-29.555,67.761-37.749.1-.229.16-.371.188-.42l.911.538-.455-.269.461.258c-.024.046-.066.149-.13.3-3.507,8.364-18.86,35.855-69.167,38.421Z" transform="translate(-2313.081 -2008.733)" fill="#fff"/>
                <path id="Trazado_222821" data-name="Trazado 222821" d="M2295.3,2093.1h-.175c-11.086-.033-28.58-3.457-48.962-19.575l-.222-.175.023-.282c.021-.264,2.334-26.7,20.8-53.8l18.6-27.3.874.6-18.6,27.3c-17.283,25.364-20.294,50.117-20.592,53.008,11.128,8.756,28.434,19.109,48.083,19.169h.168c11.689,0,18.725-3.7,18.8-3.742l.5.932C2314.3,2089.4,2307.252,2093.1,2295.3,2093.1Z" transform="translate(-2110.217 -1985.656)" fill="#fff"/>
              </g>
            </g>
          </g>
        </g>
        <g id="Grupo_210897" data-name="Grupo 210897" transform="translate(-6369.419 -6021.033)">
          <path id="Trazado_222823" data-name="Trazado 222823" d="M2481.393,910.977a3.954,3.954,0,0,0,3.569-7.029c-.093-.047-.188-.087-.283-.125a22.681,22.681,0,0,0,.753-3.239c.1,0,.206,0,.311-.011a4.125,4.125,0,0,0,3.626-4.2,3.493,3.493,0,0,0-3.781-3.538c-.107.01-.212.027-.316.045a20.84,20.84,0,0,0-.876-3.093c.094-.055.188-.112.28-.176a4.125,4.125,0,0,0,1.25-5.4,3.493,3.493,0,0,0-5.087-.965c-.09.063-.174.131-.257.2a18.494,18.494,0,0,0-2.27-2.118c.058-.094.114-.19.165-.291.985-1.941,2.273-4.062.467-4.943-4.179-2.04-5.973-.294-6.959,1.647-.051.1-.095.2-.137.3a18.5,18.5,0,0,0-3.05-.582c.007-.108.011-.216.01-.326-.043-2.136.591-3.292-1.462-3.332-4.477-.087-5.988,1.856-5.945,3.992,0,.112.012.221.023.329a20.855,20.855,0,0,0-3.014,1.119c-.047-.1-.1-.19-.151-.282a3.493,3.493,0,0,0-5.087-.965,4.125,4.125,0,0,0-1.25,5.4c.054.09.114.174.174.258a22.653,22.653,0,0,0-2.171,2.519c-.087-.054-.175-.108-.267-.155a3.954,3.954,0,0,0-3.569,7.029c.093.047.188.087.282.125a22.811,22.811,0,0,0-.752,3.24c-.1,0-.206,0-.311.011a4.125,4.125,0,0,0-3.626,4.2,3.493,3.493,0,0,0,3.781,3.538c.107-.009.212-.026.316-.045a20.809,20.809,0,0,0,.876,3.093c-.094.055-.188.112-.28.176a4.125,4.125,0,0,0-1.25,5.4c1.06,1.759,4.568,2.576,6.318,1.35.09-.063-1.057-.516-.973-.585a18.484,18.484,0,0,0,2.269,2.118c-.058.095-.114.19-.165.291a3.652,3.652,0,1,0,6.492,3.3c.051-.1.1-.2.138-.305a18.482,18.482,0,0,0,3.049.582c-.006.108-.011.216-.009.326a3.493,3.493,0,0,0,3.781,3.538,4.124,4.124,0,0,0,3.626-4.2c0-.112-.011-.221-.023-.329a20.861,20.861,0,0,0,3.014-1.119c.047.1.095.19.15.282a3.493,3.493,0,0,0,5.087.965,4.125,4.125,0,0,0,1.25-5.4c-.054-.09-.114-.174-.174-.258a22.71,22.71,0,0,0,2.171-2.519C2481.213,910.876,2481.3,910.93,2481.393,910.977Zm-22.348.284c-6.509-3.3-8.885-11.7-5.306-18.745s11.755-10.082,18.264-6.778,8.885,11.7,5.306,18.745S2465.554,914.565,2459.046,911.26Z" transform="translate(-2441.68 -873.799)" fill="url(#linear-gradient-4)"/>
          <path id="Trazado_222824" data-name="Trazado 222824" d="M2596.006,923.815a4.125,4.125,0,0,0,3.626-4.2,3.493,3.493,0,0,0-3.781-3.538c-.107.009-.212.026-.317.045a20.84,20.84,0,0,0-.876-3.094c.094-.055.188-.112.279-.176,1.75-1.226,3.915-4.188,2.68-5.829-2.343-3.114-4.767-1.766-6.518-.54-.089.063-.174.131-.257.2a18.444,18.444,0,0,0-2.27-2.118c.058-.094.115-.19.165-.291a4.07,4.07,0,0,0,.23-3.211q-2.535,4.462-5,8.965c5.193,3.8,6.846,11.3,3.6,17.7a14.333,14.333,0,0,1-13.556,8.078c-.238.618-.472,1.239-.727,1.85-.692,1.66-1.478,3.285-2.265,4.909q.742.14,1.491.219c-.007.108-.012.216-.009.326.043,2.136,1.339,3.951,5.046,3.754,2.051-.109,2.4-2.279,2.36-4.415,0-.112-.012-.221-.023-.329A20.861,20.861,0,0,0,2582.9,941c.047.1.1.19.15.282,1.06,1.759,4.737,2.506,6.486,1.28s.91-3.961-.149-5.72c-.054-.09-.114-.174-.174-.258a22.746,22.746,0,0,0,2.171-2.519c.087.054.175.107.268.155a3.954,3.954,0,0,0,3.569-7.029c-.093-.047-.188-.087-.283-.125a22.722,22.722,0,0,0,.753-3.239C2595.8,923.826,2595.9,923.824,2596.006,923.815Z" transform="translate(-2551.944 -897.042)" fill="url(#linear-gradient-5)"/>
          <path id="Trazado_222825" data-name="Trazado 222825" d="M2494.463,911.208a3.954,3.954,0,0,0,3.569-7.03c-.093-.047-.188-.087-.282-.125a22.743,22.743,0,0,0,.752-3.24c.1,0,.206,0,.311-.011a4.124,4.124,0,0,0,3.625-4.2,3.492,3.492,0,0,0-3.781-3.538c-.107.01-.212.026-.316.045a20.863,20.863,0,0,0-.875-3.094c.094-.055.188-.112.279-.176a4.124,4.124,0,0,0,1.249-5.4,3.492,3.492,0,0,0-5.087-.965c-.09.063-.174.131-.257.2a18.493,18.493,0,0,0-2.27-2.118c.058-.095.114-.19.165-.291a3.652,3.652,0,1,0-6.492-3.3c-.051.1-.1.2-.138.3a18.474,18.474,0,0,0-3.049-.582c.006-.108.011-.216.009-.326a3.493,3.493,0,0,0-3.781-3.538,4.125,4.125,0,0,0-3.626,4.2c0,.112.011.221.023.329a20.853,20.853,0,0,0-3.014,1.118c-.047-.1-.095-.19-.151-.282a3.493,3.493,0,0,0-5.087-.965,4.124,4.124,0,0,0-1.25,5.4c.054.09.114.174.174.258a22.723,22.723,0,0,0-2.172,2.519c-.086-.054-.175-.108-.268-.155a3.954,3.954,0,0,0-3.569,7.03c.093.047.188.087.283.125a22.751,22.751,0,0,0-.753,3.24c-.1,0-.206,0-.311.011a4.125,4.125,0,0,0-3.626,4.2,3.492,3.492,0,0,0,3.781,3.538c.107-.009.212-.026.317-.045a20.8,20.8,0,0,0,.875,3.094c-.094.055-.187.112-.279.176a4.125,4.125,0,0,0-1.249,5.4,3.493,3.493,0,0,0,5.087.965c.09-.063.174-.131.258-.2a18.483,18.483,0,0,0,2.269,2.118c-.058.095-.114.19-.165.291a3.652,3.652,0,1,0,6.492,3.3c.051-.1.094-.2.137-.3a18.486,18.486,0,0,0,3.049.582c-.006.108-.011.216-.009.326a3.493,3.493,0,0,0,3.781,3.538,4.125,4.125,0,0,0,3.626-4.2c0-.112-.011-.221-.023-.329a20.852,20.852,0,0,0,3.015-1.119c.046.1.095.19.151.282a3.492,3.492,0,0,0,5.087.965,4.124,4.124,0,0,0,1.25-5.4c-.054-.09-.114-.174-.174-.257a22.694,22.694,0,0,0,2.172-2.519C2494.282,911.108,2494.371,911.161,2494.463,911.208Zm-22.347.284c-6.509-3.3-8.885-11.7-5.306-18.745s11.756-10.082,18.264-6.777,8.885,11.7,5.306,18.745S2478.625,914.8,2472.116,911.492Z" transform="translate(-2452.823 -873.811)" fill="url(#linear-gradient-6)"/>
        </g>
        <g id="Grupo_210898" data-name="Grupo 210898" transform="translate(-6455.456 -6093.31)">
          <path id="Trazado_222826" data-name="Trazado 222826" d="M1936.27,456.695c3.512,1.783,7.923.146,9.854-3.657s.649-8.33-2.863-10.113c-.182-.092-.368-.17-.554-.244a44.519,44.519,0,0,0,1.474-6.346c.2,0,.4,0,.609-.022a8.079,8.079,0,0,0,7.1-8.223,6.842,6.842,0,0,0-7.406-6.93c-.209.019-.415.052-.62.088a40.884,40.884,0,0,0-1.715-6.06c.184-.108.367-.219.547-.345a8.08,8.08,0,0,0,2.448-10.587,6.843,6.843,0,0,0-9.966-1.89c-.176.123-.341.256-.5.391a36.21,36.21,0,0,0-4.445-4.149c.113-.185.223-.373.323-.57,1.931-3.8,4.454-7.956.914-9.684-8.187-4-11.7-.576-13.631,3.227-.1.2-.186.4-.269.6a36.186,36.186,0,0,0-5.973-1.14c.013-.211.022-.423.018-.638-.084-4.184,1.157-6.449-2.864-6.527-8.77-.171-11.729,3.636-11.645,7.82,0,.219.023.433.044.645a40.833,40.833,0,0,0-5.9,2.191c-.091-.187-.186-.372-.294-.552a6.842,6.842,0,0,0-9.966-1.89,8.079,8.079,0,0,0-2.448,10.586c.106.177.223.342.341.5a44.559,44.559,0,0,0-4.253,4.935c-.17-.107-.342-.211-.524-.3-3.512-1.783-7.923-.146-9.854,3.656s-.649,8.33,2.863,10.113c.182.092.367.17.554.244a44.488,44.488,0,0,0-1.474,6.346c-.2,0-.4,0-.608.022a8.08,8.08,0,0,0-7.1,8.224,6.842,6.842,0,0,0,7.406,6.93c.21-.019.415-.052.62-.088a40.816,40.816,0,0,0,1.715,6.06c-.184.108-.368.219-.547.345a8.079,8.079,0,0,0-2.448,10.587c2.076,3.445,8.949,5.046,12.376,2.645.176-.123-2.07-1.011-1.907-1.145a36.233,36.233,0,0,0,4.445,4.15c-.113.185-.224.373-.324.57-1.93,3.8-.649,8.33,2.863,10.113s7.924.146,9.854-3.656c.1-.2.186-.4.269-.6a36.185,36.185,0,0,0,5.973,1.14c-.012.211-.022.423-.018.638a6.842,6.842,0,0,0,7.406,6.93,8.08,8.08,0,0,0,7.1-8.223c0-.219-.023-.433-.045-.645a40.822,40.822,0,0,0,5.9-2.191c.091.187.186.372.295.552a6.842,6.842,0,0,0,9.965,1.89,8.08,8.08,0,0,0,2.448-10.587c-.106-.176-.223-.341-.341-.5a44.506,44.506,0,0,0,4.253-4.935C1935.916,456.5,1936.088,456.6,1936.27,456.695Zm-43.776.555c-12.75-6.474-17.4-22.913-10.395-36.719s23.028-19.75,35.778-13.276,17.4,22.913,10.395,36.719S1905.243,463.724,1892.493,457.25Z" transform="translate(-1858.476 -383.868)" fill="url(#linear-gradient-4)"/>
          <path id="Trazado_222827" data-name="Trazado 222827" d="M2160.782,481.842a8.08,8.08,0,0,0,7.1-8.223,6.842,6.842,0,0,0-7.406-6.93c-.209.019-.415.052-.62.088a40.78,40.78,0,0,0-1.716-6.06c.185-.108.368-.219.547-.345,3.428-2.4,7.669-8.2,5.25-11.418-4.589-6.1-9.34-3.46-12.767-1.058-.176.123-.341.256-.5.391a36.238,36.238,0,0,0-4.446-4.149c.113-.185.223-.373.324-.57a7.977,7.977,0,0,0,.449-6.291q-4.966,8.741-9.785,17.562c10.172,7.454,13.41,22.142,7.052,34.665-5.388,10.612-16.1,16.57-26.555,15.824-.466,1.21-.925,2.426-1.424,3.624-1.356,3.251-2.9,6.436-4.437,9.616q1.454.274,2.921.429c-.013.211-.022.423-.018.638.084,4.184,2.625,7.74,9.886,7.354,4.017-.213,4.707-4.463,4.623-8.648,0-.219-.022-.433-.044-.645a40.835,40.835,0,0,0,5.9-2.191c.091.187.186.372.295.552,2.075,3.445,9.277,4.909,12.705,2.508s1.783-7.759-.292-11.2c-.106-.176-.223-.341-.341-.5a44.526,44.526,0,0,0,4.253-4.935c.17.107.342.211.523.3,3.512,1.783,7.924.146,9.854-3.657s.649-8.33-2.863-10.113c-.182-.092-.368-.17-.554-.244a44.609,44.609,0,0,0,1.475-6.346C2160.375,481.863,2160.577,481.86,2160.782,481.842Z" transform="translate(-2074.468 -429.397)" fill="url(#linear-gradient-5)"/>
          <path id="Trazado_222828" data-name="Trazado 222828" d="M1961.872,457.148c3.512,1.783,7.924.146,9.854-3.657s.649-8.33-2.863-10.113c-.182-.092-.368-.17-.554-.244a44.506,44.506,0,0,0,1.474-6.346c.2,0,.4,0,.608-.022a8.08,8.08,0,0,0,7.1-8.223,6.842,6.842,0,0,0-7.406-6.93c-.209.019-.415.052-.62.088a40.869,40.869,0,0,0-1.715-6.06c.184-.108.368-.219.547-.345a8.08,8.08,0,0,0,2.448-10.587,6.842,6.842,0,0,0-9.965-1.89c-.176.123-.341.256-.5.391a36.2,36.2,0,0,0-4.445-4.149c.113-.185.224-.373.324-.57,1.93-3.8.649-8.33-2.863-10.113s-7.924-.146-9.854,3.657c-.1.2-.186.4-.269.6a36.212,36.212,0,0,0-5.973-1.14c.013-.211.022-.423.018-.638a6.843,6.843,0,0,0-7.407-6.93,8.079,8.079,0,0,0-7.1,8.223c0,.219.023.433.044.645a40.823,40.823,0,0,0-5.9,2.191c-.091-.187-.186-.372-.294-.552a6.842,6.842,0,0,0-9.965-1.89,8.079,8.079,0,0,0-2.448,10.587c.106.176.223.342.341.5a44.533,44.533,0,0,0-4.253,4.935c-.17-.107-.342-.211-.524-.3-3.512-1.783-7.924-.146-9.854,3.657s-.649,8.33,2.863,10.113c.182.092.368.17.554.244a44.522,44.522,0,0,0-1.474,6.346c-.2,0-.4,0-.608.022a8.08,8.08,0,0,0-7.1,8.223,6.842,6.842,0,0,0,7.406,6.93c.209-.019.415-.051.62-.088a40.828,40.828,0,0,0,1.715,6.06c-.184.108-.368.219-.547.345a8.08,8.08,0,0,0-2.448,10.587,6.842,6.842,0,0,0,9.965,1.89c.176-.123.341-.256.5-.391a36.2,36.2,0,0,0,4.445,4.15c-.112.185-.223.373-.323.57-1.931,3.8-.649,8.33,2.863,10.113s7.924.146,9.854-3.657c.1-.2.186-.4.269-.6a36.206,36.206,0,0,0,5.973,1.14c-.012.212-.022.423-.018.638a6.842,6.842,0,0,0,7.406,6.93,8.079,8.079,0,0,0,7.1-8.223c0-.219-.023-.432-.044-.645a40.822,40.822,0,0,0,5.9-2.191c.091.187.186.372.295.552a6.842,6.842,0,0,0,9.965,1.89,8.08,8.08,0,0,0,2.448-10.587c-.107-.176-.223-.341-.341-.5a44.5,44.5,0,0,0,4.253-4.935C1961.518,456.951,1961.69,457.055,1961.872,457.148Zm-43.776.555c-12.75-6.473-17.4-22.913-10.394-36.719s23.028-19.75,35.778-13.276,17.4,22.913,10.395,36.719S1930.846,464.177,1918.1,457.7Z" transform="translate(-1880.302 -383.891)" fill="url(#linear-gradient-6)"/>
        </g>
        <g id="Grupo_210901" data-name="Grupo 210901" transform="translate(-6661.5 -5928.204)">
          <g id="Grupo_210900" data-name="Grupo 210900" transform="translate(0 0)">
            <path id="Trazado_222829" data-name="Trazado 222829" d="M946.966,2918.115l-416.1-3.6v10.642c0,2.888,1.815,5.344,4.273,5.782L652.8,2951.9a16.306,16.306,0,0,0,4.222.2L942.444,2928.2c2.548-.213,4.522-2.677,4.522-5.645Z" transform="translate(-520.675 -2706.292)" fill="#97b0c4"/>
            <g id="Grupo_210899" data-name="Grupo 210899">
              <path id="Trazado_222830" data-name="Trazado 222830" d="M742.038,1511.217v178.031a9.208,9.208,0,0,1-2.126,5.9,7.2,7.2,0,0,1-4.949,2.669l-191.2,14.1-71.288,5.275h-.011l-.483.01-1.549.094a8.077,8.077,0,0,1-8.641-8.284V1512.069a8.96,8.96,0,0,1,8.7-9.027H734.957C738.859,1503.042,742.038,1506.773,742.038,1511.217Z" transform="translate(-461.794 -1503.042)" fill="#97b0c4"/>
              <path id="Trazado_222831" data-name="Trazado 222831" d="M770.712,1511.217v178.031a8.828,8.828,0,0,1-4.557,7.843c-.039.02-.088.04-.127.059a6.858,6.858,0,0,1-.78.326l-.179.064c-.048.011-.1.027-.141.037a5.457,5.457,0,0,1-.585.139,5.4,5.4,0,0,1-.724.1l-1.34.087-190.3,14h-.01l-72.823,5.369a7.827,7.827,0,0,1-2.042-.076,1.123,1.123,0,0,0-.188-.005h-.011a2.216,2.216,0,0,1-.536-.145,8.182,8.182,0,0,1-5.906-8.035V1512.069a8.95,8.95,0,0,1,8.688-9.027H763.619C767.521,1503.042,770.712,1506.773,770.712,1511.217Z" transform="translate(-486.238 -1503.042)" fill="#fff"/>
              <path id="Trazado_222832" data-name="Trazado 222832" d="M822.468,1752.069,576.146,1768.98a6.571,6.571,0,0,1-6.981-6.787V1589.772a7.168,7.168,0,0,1,6.981-7.3l246.323-1.062c3.216-.014,5.818,2.938,5.818,6.593v157.045C828.286,1748.707,825.685,1751.849,822.468,1752.069Z" transform="translate(-553.325 -1569.852)" fill="#d8dee8"/>
              <path id="Trazado_222833" data-name="Trazado 222833" d="M1473.811,1521.286a3.057,3.057,0,1,1-3.042-3.311A3.2,3.2,0,0,1,1473.811,1521.286Z" transform="translate(-1319.322 -1515.772)" fill="#fff"/>
              <path id="Trazado_222834" data-name="Trazado 222834" d="M499.762,1718.015l263.128-19.37,1.339-.1a7.1,7.1,0,0,0,4.658-2.357c-18.935-1.036-30.7-7.756-38.282-14.7-15.236-13.943-12.593-27.694-29.023-36.861-20.492-11.435-36.605,3.054-52.156-11.241-9.427-8.667-4.8-15.13-16.4-28.082-12.848-14.345-21.214-9.523-34.126-22.434-16.327-16.325-8.161-29.026-22.225-40.746-17.061-14.219-35.46-1.058-51.7-14.695-7-5.881-10.848-14.432-12.855-23.526H499.763a8.749,8.749,0,0,0-8.58,8.9v196.94A8.016,8.016,0,0,0,499.762,1718.015Z" transform="translate(-486.847 -1503.778)" fill="#fff" opacity="0.48" style="mix-blend-mode: soft-light;isolation: isolate"/>
            </g>
            <path id="Trazado_222835" data-name="Trazado 222835" d="M810.517,2815.645l-279.653,20.492L652.8,2857.854a16.317,16.317,0,0,0,4.222.2l289.946-24.272-132-18A21.382,21.382,0,0,0,810.517,2815.645Z" transform="translate(-520.675 -2621.955)" fill="url(#linear-gradient-10)"/>
            <path id="Trazado_222836" data-name="Trazado 222836" d="M807.468,2856.023l232.819-17.314,72.056,9.744-230.814,18.509Z" transform="translate(-756.472 -2641.666)" fill="#d8dee8"/>
          </g>
        </g>
        <path id="Trazado_222837" data-name="Trazado 222837" d="M884,1503.042v177.769a15.907,15.907,0,0,1-.805,4.76,16.945,16.945,0,0,1-14.6,11.664l-191.488,14.451-11.293.852a18.053,18.053,0,0,1-7.614-1.013,15.112,15.112,0,0,1-9.473-9.852,14.781,14.781,0,0,1-.559-4.341V1503.042Z" transform="translate(-7282.18 -7431.246)" fill="#97b0c4"/>
        <g id="Grupo_210912" data-name="Grupo 210912" transform="translate(-6629.967 -6042.696)">
          <path id="Trazado_222838" data-name="Trazado 222838" d="M896.22,733.213l-202.838-6.25c-9.829-.3-17.845,6.861-17.845,16v289.018c0,9.142,8.015,15.948,17.845,15.206l202.838-15.3a16.772,16.772,0,0,0,15.348-16.421V748.95A15.876,15.876,0,0,0,896.22,733.213Z" transform="translate(-675.538 -726.954)" fill="url(#linear-gradient-11)"/>
          <path id="Trazado_222839" data-name="Trazado 222839" d="M714.316,1063.381V771.469c0-5.261,4.609-9.392,10.276-9.227l206.292,6a9.151,9.151,0,0,1,8.86,9.074v270.164a9.667,9.667,0,0,1-8.86,9.469L724.592,1072.15C718.925,1072.568,714.316,1068.642,714.316,1063.381Z" transform="translate(-708.595 -757.032)" fill="#fff" opacity="0.74" style="mix-blend-mode: soft-light;isolation: isolate"/>
          <path id="Trazado_222840" data-name="Trazado 222840" d="M896.22,733.213l-202.838-6.25c-9.829-.3-17.845,6.861-17.845,16V754.84l236.03,5.059V748.95A15.876,15.876,0,0,0,896.22,733.213Z" transform="translate(-675.538 -726.954)" fill="url(#linear-gradient-12)"/>
          <path id="Trazado_222841" data-name="Trazado 222841" d="M823.583,798.268a5.413,5.413,0,0,1-5.764,5.222,5.762,5.762,0,0,1-5.786-5.521,5.414,5.414,0,0,1,5.786-5.221A5.762,5.762,0,0,1,823.583,798.268Z" transform="translate(-791.897 -783.04)" fill="#fff"/>
          <path id="Trazado_222842" data-name="Trazado 222842" d="M960.516,802.009a5.356,5.356,0,0,1-5.687,5.188,5.7,5.7,0,0,1-5.709-5.483,5.357,5.357,0,0,1,5.709-5.187A5.7,5.7,0,0,1,960.516,802.009Z" transform="translate(-908.76 -786.261)" fill="#fff"/>
          <path id="Trazado_222843" data-name="Trazado 222843" d="M1095.623,805.7a5.3,5.3,0,0,1-5.611,5.154,5.643,5.643,0,0,1-5.633-5.445,5.3,5.3,0,0,1,5.633-5.154A5.642,5.642,0,0,1,1095.623,805.7Z" transform="translate(-1024.065 -789.439)" fill="#fff"/>
          <g id="Grupo_210911" data-name="Grupo 210911" transform="translate(20.815 48.649)">
            <g id="Grupo_210905" data-name="Grupo 210905" transform="translate(14.721)">
              <path id="Trazado_222844" data-name="Trazado 222844" d="M983.04,1090.1c0,17.727-14.517,32.034-32.733,31.953-18.567-.082-33.882-15.025-33.882-33.375s15.315-32.639,33.882-31.929C968.523,1057.449,983.04,1072.375,983.04,1090.1Z" transform="translate(-916.425 -1056.727)" fill="url(#linear-gradient-13)"/>
              <path id="Trazado_222845" data-name="Trazado 222845" d="M1002.813,1112.45a28.34,28.34,0,0,1-28.905,28.159c-16.344-.105-29.8-13.274-29.8-29.412s13.454-28.732,29.8-28.14C989.979,1083.64,1002.813,1096.8,1002.813,1112.45Z" transform="translate(-940.025 -1079.156)" fill="#fff" opacity="0.9"/>
              <g id="Grupo_210904" data-name="Grupo 210904" transform="translate(7.313 6.961)">
                <g id="Grupo_210903" data-name="Grupo 210903" clip-path="url(#clip-path-4)">
                  <g id="Grupo_210902" data-name="Grupo 210902" transform="translate(-1.413 8.118)">
                    <path id="Trazado_222846" data-name="Trazado 222846" d="M1112.056,1214.755a3.956,3.956,0,0,0,2.393.937,3.805,3.805,0,0,0,2.4-.856c1.805-1.387,3.047-4.263,3.047-7.183,0-4.088-2.437-6.73-5.451-6.812s-5.483,2.441-5.483,6.552A9.8,9.8,0,0,0,1112.056,1214.755Z" transform="translate(-1086.462 -1194.657)" fill="url(#linear-gradient-14)"/>
                    <path id="Trazado_222847" data-name="Trazado 222847" d="M1079.633,1319.56a16.059,16.059,0,0,0-1.964-3.05c-.073-.091-.222-.177-.308-.265-.007-.008-.033-.016-.04-.025-.022-.026-.055-.052-.077-.078s-.074-.081-.111-.121a.334.334,0,0,0-.058-.063c-.076-.091-.16-.179-.24-.265l-.042-.043-.092-.095-.011-.011c-.022-.025-.045-.048-.068-.071s-.058-.058-.086-.086a.568.568,0,0,0-.056-.056c-.055-.056-.113-.111-.169-.164l-.036-.033c-.073-.069-.146-.136-.22-.2-.031-.028-.06-.057-.092-.084-.058-.051-.116-.1-.177-.155l-.043-.036a14,14,0,0,0-5.894-3c-.074-.019-.147-.035-.221-.052a0,0,0,0,0,0,0l-.005.007a13.585,13.585,0,0,0-2.019-.275c-.232-.014-.461-.033-.7-.037-.986-.019-1.951.791-2.881.262H1064s0,.006,0,0l0,0s-.005,0-.008,0h0a.06.06,0,0,1-.028-.01s0,.01-.005.01h0a13.845,13.845,0,0,0-9.637,7.643,12.97,12.97,0,0,0-1.111,5.254v.431l27.5.313v-.425a16.776,16.776,0,0,0-1.057-5.216Z" transform="translate(-1038.918 -1288.823)" fill="url(#linear-gradient-15)"/>
                    <path id="Trazado_222848" data-name="Trazado 222848" d="M1016.3,1173.9c3.06.069,5.533-3.961,5.533-8.081s-2.473-6.788-5.533-6.881-5.565,2.441-5.565,6.584S1013.228,1173.832,1016.3,1173.9Z" transform="translate(-1002.721 -1158.937)" fill="url(#linear-gradient-16)"/>
                    <path id="Trazado_222849" data-name="Trazado 222849" d="M979.11,1273.975c.008,0,.013-.314.02-.314h0c.184,0,.374.314.563.1.013.013,0,.177.011.19s-.02.157-.02.159v-.005l.058-.449h0s0,.007,0,.007l-.01-.007h0c-.53,0-1.1-.792-1.714-1.238.008.015.018.124.026.14,0,0-.008.042-.01.039a13.707,13.707,0,0,0-7.87-2.657,13.258,13.258,0,0,0-13.737,13.249v.072l12.855.193a.842.842,0,0,1-.094.05A15.393,15.393,0,0,1,979.11,1273.975Z" transform="translate(-956.421 -1253.566)" fill="url(#linear-gradient-17)"/>
                    <path id="Trazado_222850" data-name="Trazado 222850" d="M1114.5,1298.415a1.03,1.03,0,0,1,.223.187.969.969,0,0,0-.223-.192Z" transform="translate(-1091.183 -1277.834)" fill="url(#linear-gradient-18)"/>
                    <path id="Trazado_222851" data-name="Trazado 222851" d="M1209.889,1179.507c2.971.067,5.373-3.905,5.373-7.965s-2.4-6.688-5.373-6.778-5.4,2.407-5.4,6.49S1206.909,1179.44,1209.889,1179.507Z" transform="translate(-1167.89 -1163.903)" fill="url(#linear-gradient-19)"/>
                    <path id="Trazado_222852" data-name="Trazado 222852" d="M1185.219,1274.271a12.63,12.63,0,0,0-7.331,2.121,12.242,12.242,0,0,0-1.84,1.531l.06,0c.251.075.526-.061.771.029,4.638,1.65,8.023,5.763,9.64,9.644l11.591.177v-.07A13.206,13.206,0,0,0,1185.219,1274.271Z" transform="translate(-1143.648 -1257.254)" fill="url(#linear-gradient-20)"/>
                  </g>
                </g>
              </g>
            </g>
            <path id="Trazado_222854" data-name="Trazado 222854" d="M1578.426,1094.633l-77.2-2.5v-9.176l77.2,2.872Z" transform="translate(-1400.233 -1079.091)" fill="#fff"/>
            <path id="Trazado_222855" data-name="Trazado 222855" d="M1594.818,1233.186l-93.591-2.019v-9.176l93.591,2.478Z" transform="translate(-1400.233 -1197.611)" fill="#fff"/>
            <path id="Trazado_222856" data-name="Trazado 222856" d="M1594.818,1371.191l-93.591-.993v-9.176l93.591,1.452Z" transform="translate(-1400.233 -1316.131)" fill="#fff"/>
            <path id="Trazado_222857" data-name="Trazado 222857" d="M1011.22,2335.421l-194.585,13.332v-9.668L1011.22,2326.7Z" transform="translate(-816.635 -2139.353)" fill="#fff"/>
            <path id="Trazado_222858" data-name="Trazado 222858" d="M1011.22,2466.988l-194.585,15.4v-9.1l194.585-14.506Z" transform="translate(-816.635 -2251.947)" fill="#fff"/>
            <g id="Grupo_210910" data-name="Grupo 210910" transform="translate(0 82.236)">
              <g id="Grupo_210907" data-name="Grupo 210907" transform="translate(0 0.464)">
                <path id="Trazado_222859" data-name="Trazado 222859" d="M911.812,1705.573l-95.177,4.892v-92.7l95.177-.449Z" transform="translate(-816.635 -1617.318)" fill="#fff" opacity="0.42"/>
                <g id="Grupo_210906" data-name="Grupo 210906" transform="translate(8.989 12.017)">
                  <path id="Trazado_222860" data-name="Trazado 222860" d="M954.766,1708.02l-77.2,1.225v-9.625l77.2-.847Z" transform="translate(-877.567 -1698.773)" fill="#fff"/>
                  <path id="Trazado_222861" data-name="Trazado 222861" d="M954.766,1836.525l-77.2,1.982v-9.059l77.2-1.625Z" transform="translate(-877.567 -1808.784)" fill="#fff"/>
                  <path id="Trazado_222862" data-name="Trazado 222862" d="M954.766,1962.431l-77.2,2.76v-9.625l77.2-2.381Z" transform="translate(-877.567 -1915.652)" fill="#fff"/>
                  <path id="Trazado_222863" data-name="Trazado 222863" d="M954.766,2087.792l-77.2,3.516v-9.625l77.2-3.138Z" transform="translate(-877.567 -2022.52)" fill="#fff"/>
                </g>
              </g>
              <g id="Grupo_210909" data-name="Grupo 210909" transform="translate(110.511)">
                <path id="Trazado_222864" data-name="Trazado 222864" d="M1649.816,1697.75l-84.073,4.34v-87.529l84.073-.391Z" transform="translate(-1565.743 -1614.17)" fill="#fff" opacity="0.42"/>
                <g id="Grupo_210908" data-name="Grupo 210908" transform="translate(8.989 8.803)">
                  <path id="Trazado_222865" data-name="Trazado 222865" d="M1638.308,1979.683l-11.633.521v-28.85l11.633-.35Z" transform="translate(-1626.675 -1910.116)" fill="#fff"/>
                  <path id="Trazado_222866" data-name="Trazado 222866" d="M1763.756,1881.26l-11.633.551v-44.976l11.633-.263Z" transform="translate(-1733.617 -1812.565)" fill="#fff"/>
                  <path id="Trazado_222867" data-name="Trazado 222867" d="M1889.734,1796.719l-12.161.545v-58.652l12.161-.171Z" transform="translate(-1840.559 -1728.911)" fill="#fff"/>
                  <path id="Trazado_222868" data-name="Trazado 222868" d="M2013.6,1740.829l-10.575.518v-67.4l10.575-.105Z" transform="translate(-1947.501 -1673.839)" fill="#fff"/>
                </g>
              </g>
            </g>
          </g>
        </g>
        <g id="Grupo_210919" data-name="Grupo 210919" transform="translate(-6407.309 -5963.321)">
          <path id="Trazado_222869" data-name="Trazado 222869" d="M2483,1509.011c-5.106-5.452,9.03-25.933,16.6-34.907,6.61-7.84,13.4-15.9,21.746-14.878,7.324.9,14.451,8.62,14.878,16.023C2537.365,1495.163,2490.256,1516.761,2483,1509.011Z" transform="translate(-2438.086 -1430.497)" fill="#feca2e"/>
          <path id="Trazado_222870" data-name="Trazado 222870" d="M2810.444,3222.294c.961.781,1.138,2.733,1.253,4.007a3.146,3.146,0,0,1,.014,1.056c-.465,1.468-3.311,1.622-7.775,2.078-7.054.721-9.154,1.276-9.706.227-.517-.984.735-2.6.876-2.773.758-.955,1.688-1.3,3.487-1.894,3.328-1.1,5.576-1.7,6.257-1.877C2809.1,3221.984,2809.813,3221.781,2810.444,3222.294Z" transform="translate(-2704.225 -2933.318)" fill="url(#linear-gradient-21)"/>
          <path id="Trazado_222871" data-name="Trazado 222871" d="M2872.337,3180.149l-.706,8.038a4.365,4.365,0,0,0,4.488.554l1.814-7.9Z" transform="translate(-2770.313 -2897.618)" fill="url(#linear-gradient-22)"/>
          <path id="Trazado_222872" data-name="Trazado 222872" d="M2419.557,3210c1.153,1.272,1.415,3.615.413,4.769-.985,1.135-2.466.284-6.665.409-4.5.135-5.673,1.2-8.729.354-1.235-.341-3.416-1.169-3.374-2.051.029-.62,1.139-.94,4.848-2.183,5.264-1.763,5.241-1.859,6.359-2.045C2415.216,3208.791,2418.035,3208.324,2419.557,3210Z" transform="translate(-2369.284 -2922.061)" fill="url(#linear-gradient-23)"/>
          <path id="Trazado_222873" data-name="Trazado 222873" d="M2493.054,3167.1l-2.256,7.5a4.366,4.366,0,0,0,4.432.895l3.351-7.284Z" transform="translate(-2445.663 -2886.496)" fill="url(#linear-gradient-22)"/>
          <path id="Trazado_222874" data-name="Trazado 222874" d="M2513.606,2052.986a703.08,703.08,0,0,1-22.214,166.543l8.635,2.323c7.3-6.809,16.514-17.528,20.96-32.676,2.759-9.4,1.839-14.232,3.589-25.8,2.787-18.412,8.431-28.058,14.264-42.906a244.288,244.288,0,0,0,14.76-59.095Z" transform="translate(-2446.169 -1936.739)" fill="#0f2771"/>
          <path id="Trazado_222875" data-name="Trazado 222875" d="M2818.092,2036.007q2.643,48.114,4.309,98,1.236,37.429,1.831,73.9l8.821,1.089a102.733,102.733,0,0,0,9.2-23.741c3.14-12.589,2.413-20.065,3.79-33.112,1.544-14.634,3.789-17.822,7.764-36.282,8.069-37.465,12.1-56.2,3.1-67.849C2853.987,2044.23,2844.828,2034.741,2818.092,2036.007Z" transform="translate(-2724.673 -1922.166)" fill="#0f2771"/>
          <path id="Trazado_222876" data-name="Trazado 222876" d="M2682.523,1457.911a136.961,136.961,0,0,0-29.336-4.9c-17.627-1-26.441-1.495-32.687,2.7-14.425,9.7-3.257,32.072-9.162,87.541-.843,7.921-1.032,15.9-1.643,23.842-1.011,13.151-1.241,13.865-.326,15.2,5.738,8.357,27.146-4.248,58.524.734,17.557,2.788,25.52,9.211,30.329,4.578,5.609-5.4.8-19.933-3.344-32.441-4.754-14.358-7.691-14.543-10.39-25.356-2.821-11.3-1.115-17.121-.675-34.944A315.753,315.753,0,0,0,2682.523,1457.911Z" transform="translate(-2546.252 -1424.688)" fill="#feca2e"/>
          <g id="Grupo_210913" data-name="Grupo 210913" transform="translate(66.394 53.444)" opacity="0.3" style="mix-blend-mode: multiply;isolation: isolate">
            <path id="Trazado_222877" data-name="Trazado 222877" d="M2662.107,1711.186c8.2-.642,13.522,3.995,20.6.381,9.708-4.955,12.827-20.371,12.208-31.283-.94-16.578-10.406-20.948-8.774-31.665.882-5.795,5.021-13.489,19.875-21.35.2,6.616.16,12.255.05,16.735-.439,17.823-2.145,23.642.675,34.944,2.7,10.813,5.636,11,10.39,25.356,4.142,12.508,8.954,27.039,3.344,32.441-4.81,4.633-12.773-1.79-30.33-4.578-27.037-4.293-46.661,4.46-55.247,1.621C2645.275,1716.645,2654.686,1711.767,2662.107,1711.186Z" transform="translate(-2634.9 -1627.27)" fill="url(#linear-gradient-25)"/>
          </g>
          <path id="Trazado_222878" data-name="Trazado 222878" d="M2915.48,1486.675c5.858-4.813,17.635.635,20.783,2.091,17.556,8.121,33.319,30,29.414,53.131-.586,3.469-3.3,19.691-17.039,27.552-12.395,7.092-29.132,5.268-42.542-4.777l-5.5-4.878-5.409-5.847a43.416,43.416,0,0,1,14.413-7.941c8.917-2.877,15.408,2.286,19.545-1.639,2.855-2.709,2.861-7.493,2.156-10.393-1.421-5.844-6.572-7.488-10.872-11.636C2910.328,1512.593,2908.467,1492.438,2915.48,1486.675Z" transform="translate(-2790.396 -1452.313)" fill="#feca2e"/>
          <g id="Grupo_210914" data-name="Grupo 210914" transform="translate(40.709 108.602)">
            <path id="Trazado_222879" data-name="Trazado 222879" d="M2460.992,2002.915l78.51-1.172-20.877,10.076-57.833-3.785Z" transform="translate(-2460.791 -2001.657)" fill="url(#linear-gradient-26)"/>
            <path id="Trazado_222880" data-name="Trazado 222880" d="M2854.2,2003.333h0a3.5,3.5,0,0,1-2.3,3.284l-25.086,9.834-.114-6.818,24.73-8.387A2.171,2.171,0,0,1,2854.2,2003.333Z" transform="translate(-2772.718 -2001.161)" fill="url(#linear-gradient-27)"/>
          </g>
          <path id="Trazado_222881" data-name="Trazado 222881" d="M2817.753,1954.656c.481-.108-2.347-5.745-4.568-5.094s-13.083,6.946-14.071,9.538l-.988,2.592s4.738.37,7.677-.617S2813.835,1955.53,2817.753,1954.656Z" transform="translate(-2707.652 -1848.528)" fill="url(#linear-gradient-22)"/>
          <g id="Grupo_210916" data-name="Grupo 210916" transform="translate(0 64.308)">
            <g id="Grupo_210915" data-name="Grupo 210915">
              <path id="Trazado_222882" data-name="Trazado 222882" d="M2277.951,1705.839l5.534,50.387c.191,1.739-2.243,4.329-3.99,4.246l-81.183-4.984a2.846,2.846,0,0,1-2.67-2.361l-10.19-48.665c-.3-1.771,2.88-3.6,4.676-3.55l85.074,2.392A2.846,2.846,0,0,1,2277.951,1705.839Z" transform="translate(-2185.345 -1700.911)" fill="url(#linear-gradient-29)"/>
              <path id="Trazado_222883" data-name="Trazado 222883" d="M2275.6,1715.8l5.535,50.388a2.847,2.847,0,0,1-2.964,3.154l-82.209-3.892a2.846,2.846,0,0,1-2.67-2.361l-8.4-48.888a2.847,2.847,0,0,1,2.885-3.327l85.075,2.392A2.846,2.846,0,0,1,2275.6,1715.8Z" transform="translate(-2184.845 -1709.402)" fill="url(#linear-gradient-30)"/>
            </g>
            <path id="Trazado_222884" data-name="Trazado 222884" d="M2269.4,1766.47c7.178-3.042,4.645-8.844,13.122-16.073,11.182-9.537,22.581-5.4,26.571-12.793,1.243-2.3,1.837-5.885-.328-11.683l6.161.173a2.846,2.846,0,0,1,2.749,2.534l5.534,50.388a2.847,2.847,0,0,1-2.964,3.154l-82.21-3.892a2.846,2.846,0,0,1-2.671-2.361l-1.159-6.746a31.056,31.056,0,0,1,8.953-3.356C2255.219,1763.368,2261.136,1769.973,2269.4,1766.47Z" transform="translate(-2226.923 -1722.231)" opacity="0.3" fill="url(#linear-gradient-31)" style="mix-blend-mode: multiply;isolation: isolate"/>
          </g>
          <path id="Trazado_222885" data-name="Trazado 222885" d="M2224.864,2027.955a.641.641,0,0,1,.577-.845c1.738-.089,5.767-.125,7.992,1.238,2.89,1.77,6.627,5,3.48,6.63l-2.938,1.522a.625.625,0,0,1-.43.059c-1.044-.229-5.438-1.2-5.919-1.446C2227.187,2034.892,2225.512,2029.92,2224.864,2027.955Z" transform="translate(-2218.932 -1914.649)" fill="url(#linear-gradient-22)"/>
          <g id="Grupo_210918" data-name="Grupo 210918" transform="translate(87.559 0)">
            <path id="Trazado_222886" data-name="Trazado 222886" d="M2796.427,1326.452a61.1,61.1,0,0,0,1.091,12.209c.632,3.252,1.087,4.092,1.668,4.774.875,1.026,2.2,1.887,9.688,3.744,4.075,1.01,4.6.983,4.689,1.387.439,1.972-10.673,8.7-22.153,7.075-7.026-.991-13.419-5-13.026-7.1s7.413-.982,9.505-4.814c1.455-2.666-.176-6.451-2.1-9.586C2787.653,1330.637,2794.56,1329.951,2796.427,1326.452Z" transform="translate(-2778.367 -1317.386)" fill="url(#linear-gradient-33)"/>
            <g id="Grupo_210917" data-name="Grupo 210917" transform="translate(3.756)">
              <path id="Trazado_222887" data-name="Trazado 222887" d="M2805.092,1276.13a7.389,7.389,0,0,1,.15-8.479c1.644-2.092,4.231-2.39,5.78-2.569,4.489-.518,10.152,1.356,12.122,5.487,1.167,2.448-1.357,7.535-1.753,8.45-.448,1.034-1.26,1.389-2.01,2.171-1.041,1.084-2.67,2.808-5.33,5.692a18.456,18.456,0,0,0-1.02-3.046,16.37,16.37,0,0,0-2.132-3.579C2808.561,1277.4,2806.663,1278.218,2805.092,1276.13Z" transform="translate(-2803.828 -1264.998)" fill="url(#linear-gradient-34)"/>
              <path id="Trazado_222888" data-name="Trazado 222888" d="M2820.7,1332.8a10.03,10.03,0,0,1-8.826,4.459c-5.26-.343-6.031-12.139-2.671-14.642a6.638,6.638,0,0,1,5.191-.67c1.078.3,1.443.75,3.215,1.209,1.634.424,2.095.243,2.588.658.617.52,1.069,1.792.038,5.241,1-1.016,2.208-1.406,3.062-1a1.8,1.8,0,0,1,.7.682C2824.729,1330.077,2823.5,1331.8,2820.7,1332.8Z" transform="translate(-2806.679 -1313.338)" fill="url(#linear-gradient-22)"/>
              <path id="Trazado_222889" data-name="Trazado 222889" d="M2819.449,1331.039c-.254.189.522,1.136.58,2.475a6.439,6.439,0,0,1-5.2,5.986c-1.588.156-2.024-.8-4.648-1.078a12.018,12.018,0,0,0-3.828.221c-.825,2.852-.049,5.7,1.857,7.014,2.052,1.42,4.674.559,5.769.2a7.527,7.527,0,0,0,4.311-3.163c1.279-2.245.023-3.6,1.491-5.117.74-.766,1.713-1.1,2.66-2.581a7.335,7.335,0,0,0,.533-1C2821.614,1332.558,2819.817,1330.765,2819.449,1331.039Z" transform="translate(-2805.698 -1321.273)" fill="url(#linear-gradient-36)"/>
              <path id="Trazado_222890" data-name="Trazado 222890" d="M2818.7,1389.773a6.407,6.407,0,0,0,3.1.483c.1-.006.2.023.213.072a2.412,2.412,0,0,1-2.375.7c-.824-.232-1.465-1.012-1.355-1.21C2818.332,1389.73,2818.519,1389.74,2818.7,1389.773Z" transform="translate(-2816.141 -1371.345)" fill="url(#linear-gradient-22)"/>
            </g>
          </g>
        </g>
      </g>
    </g>
  </g>
</svg>
