<svg xmlns="http://www.w3.org/2000/svg" width="190" height="101" viewBox="0 0 190 101">
  <g id="Grupo_215607" data-name="Grupo 215607" transform="translate(-180 -2205)">
    <g id="Grupo_213803" data-name="Grupo 213803" transform="translate(0 -272)">
      <rect id="Rect치ngulo_41430" data-name="Rect치ngulo 41430" width="85" height="28" rx="14" transform="translate(285 2477)" fill="#feca2e" opacity="0.2"/>
      <rect id="Rect치ngulo_41431" data-name="Rect치ngulo 41431" width="85" height="28" rx="14" transform="translate(180 2550)" fill="#4dd0e1" opacity="0.2"/>
      <g id="Grupo_213802" data-name="Grupo 213802" transform="translate(-2.156)">
        <g id="Grupo_213801" data-name="Grupo 213801" transform="translate(139.24 2338.559)">
          <path id="Trazado_225291" data-name="Trazado 225291" d="M151.28,186.811h10.245a2.318,2.318,0,0,0,.1-1.212q.012-17.681.006-35.362c0-2.121.6-2.727,2.7-2.729,3.378,0,6.757,0,10.174,0a11.1,11.1,0,0,1,5.113-7.406,10.7,10.7,0,0,1,7.552-1.455,10.973,10.973,0,0,1-.878,21.748c-4.364.487-10.188-2.051-11.8-8.944h-8.9v35.409c2.811,0,5.611-.01,8.411.008.62,0,.581-.43.7-.825A10.787,10.787,0,0,1,183.4,178a10.964,10.964,0,1,1-8.761,13.273c-.037-.141-.07-.282-.119-.473h-8.946v35.3h8.892c2-6.508,6.718-9.744,12.8-8.8a10.985,10.985,0,1,1-12.8,12.759h-6.112q-2,0-3.992,0c-2.119,0-2.731-.606-2.733-2.694v-36.56H151.27a2.523,2.523,0,0,0-.108,1.241c-.006,9.963-.07,19.924.031,29.887a10.594,10.594,0,0,1-3.859,8.495,29.6,29.6,0,0,1-12.329,6.106,73.239,73.239,0,0,1-41.336-.764,26.763,26.763,0,0,1-9.844-5.312,10.814,10.814,0,0,1-3.9-8.6q.1-32.966-.01-65.933a11.2,11.2,0,0,1,4.616-9.4,33.308,33.308,0,0,1,13.179-5.918,74.036,74.036,0,0,1,38.283.712,30.959,30.959,0,0,1,10.2,4.886,11.413,11.413,0,0,1,5.017,9.9c-.174,9.807-.057,19.619-.051,29.43A2.625,2.625,0,0,0,151.28,186.811Zm-35.9-19.989a74.584,74.584,0,0,0,13.074-1.122,40.977,40.977,0,0,0,13.787-4.755,13.512,13.512,0,0,0,3.738-3.122,4.7,4.7,0,0,0-.035-6.52,14.051,14.051,0,0,0-3.85-3.167,36,36,0,0,0-9.807-3.832,72.094,72.094,0,0,0-24.661-1.531,50.318,50.318,0,0,0-15.512,3.793,18.323,18.323,0,0,0-6.827,4.606c-1.928,2.25-1.928,4.5-.037,6.78a13.1,13.1,0,0,0,2.911,2.534,26.239,26.239,0,0,0,4.839,2.5C100.24,165.853,107.824,166.717,115.382,166.823ZM83.839,162.14c0,3.257.055,6.334-.025,9.41a5,5,0,0,0,1.241,3.431,12.725,12.725,0,0,0,2.718,2.411,31.117,31.117,0,0,0,8.446,3.854A64.371,64.371,0,0,0,115.2,183.9a62.3,62.3,0,0,0,22.354-3.556,21.861,21.861,0,0,0,7.605-4.45,6.1,6.1,0,0,0,2.143-4.925c-.123-2.618-.023-5.244-.039-7.865,0-.266.18-.612-.2-.8-4.428,3.562-9.625,5.4-15.06,6.622a75.328,75.328,0,0,1-28.185.888C96.7,168.713,89.814,166.842,83.839,162.14Zm63.433,34.2a26.6,26.6,0,0,1-4.942,3.22,51.682,51.682,0,0,1-17.24,4.743,77.212,77.212,0,0,1-23.717-.694c-6.192-1.179-12.157-2.976-17.222-6.968-.065-.051-.192-.02-.311-.029,0,3.081.051,6.123-.023,9.162A4.926,4.926,0,0,0,85,209.111a12.5,12.5,0,0,0,2.8,2.495,31.324,31.324,0,0,0,8.561,3.875,64.558,64.558,0,0,0,18.773,2.6c7.834.025,15.527-.86,22.9-3.723a21.91,21.91,0,0,0,6.757-3.912c1.206-1.069,2.4-2.272,2.458-3.961C147.354,203.191,147.272,199.889,147.272,196.339Zm.006-17.1a30.063,30.063,0,0,1-10.489,5.457,74.671,74.671,0,0,1-37.16,1.453,37.649,37.649,0,0,1-14.266-5.7c-.477-.332-.938-.684-1.523-1.11,0,3.14.084,6.1-.031,9.056a5.5,5.5,0,0,0,1.763,4.262A19.47,19.47,0,0,0,92.05,196.8c7.877,3.347,16.18,4.26,24.63,4.178a60.252,60.252,0,0,0,20.882-3.539,21.6,21.6,0,0,0,7.605-4.458,5.491,5.491,0,0,0,2.094-3.787C147.313,185.967,147.278,182.735,147.278,179.241Zm-63.439,34.3c0,3.03.057,5.871-.02,8.71a6.215,6.215,0,0,0,1.922,4.7,17.7,17.7,0,0,0,5.242,3.568,49.269,49.269,0,0,0,16.323,4.231,70.3,70.3,0,0,0,27.524-2.178,26.133,26.133,0,0,0,9.881-4.976c1.2-1.036,2.385-2.235,2.463-3.84.162-3.355.049-6.724.049-10.249a28.386,28.386,0,0,1-4.442,2.931,51.262,51.262,0,0,1-17.637,4.968,77.87,77.87,0,0,1-21.021-.229C96.9,220.083,89.943,218.243,83.839,213.537Zm94.411,14.608a7.086,7.086,0,0,0,14.172-.08,7.086,7.086,0,1,0-14.172.08Zm0-78.727a7.086,7.086,0,1,0,7.12-7.034A7.112,7.112,0,0,0,178.25,149.418Zm7.023,32.284a7.083,7.083,0,1,0,7.148,7.032A7.05,7.05,0,0,0,185.273,181.7Z" transform="translate(0 0)" fill="#0f2771"/>
        </g>
      </g>
    </g>
  </g>
</svg>
