<svg xmlns="http://www.w3.org/2000/svg" xmlns:xlink="http://www.w3.org/1999/xlink" width="400" height="313" viewBox="0 0 400 313">
  <defs>
    <clipPath id="clip-path">
      <rect id="Rectángulo_303452" data-name="Rectángulo 303452" width="400" height="313" transform="translate(-3355 -10734)" fill="none" stroke="#707070" stroke-width="1"/>
    </clipPath>
  </defs>
  <g id="Grupo_215600" data-name="Grupo 215600" transform="translate(3355 10734)">
    <g id="Enmascarar_grupo_68" data-name="Enmascarar grupo 68" clip-path="url(#clip-path)">
      <g id="Grupo_213871" data-name="Grupo 213871" transform="translate(9 -44)">
        <g id="Grupo_210695" data-name="Grupo 210695" transform="translate(-3324 -10690)">
          <g id="Grupo_210649" data-name="Grupo 210649" transform="translate(3.535)">
            <path id="Trazado_222249" data-name="Trazado 222249" d="M526.418,378.948a104.857,104.857,0,1,0-195.273-54.626,104.85,104.85,0,1,0,95.448,179.661,80.929,80.929,0,1,0,99.826-125.035Z" transform="translate(-251.512 -220.984)" fill="#bddcf6" fill-rule="evenodd"/>
          </g>
          <g id="Grupo_210650" data-name="Grupo 210650" transform="translate(0 45.677)">
            <circle id="Elipse_16235" data-name="Elipse 16235" cx="20.305" cy="20.305" r="20.305" transform="translate(0 28.715) rotate(-45)" fill="#bddcf6"/>
          </g>
          <g id="Grupo_210651" data-name="Grupo 210651" transform="translate(46.04 32.532)">
            <ellipse id="Elipse_16236" data-name="Elipse 16236" cx="10.093" cy="10.034" rx="10.093" ry="10.034" transform="translate(0 19.871) rotate(-79.857)" fill="#bddcf6"/>
          </g>
        </g>
        <g id="Grupo_213870" data-name="Grupo 213870" transform="translate(-3327.504 -10699.556)">
          <line id="Línea_524" data-name="Línea 524" x1="288.667" transform="translate(15.504 295.938)" fill="none" stroke="#263238" stroke-miterlimit="10" stroke-width="1"/>
          <g id="Grupo_213836" data-name="Grupo 213836" transform="translate(27.891 88.05)">
            <path id="Trazado_225378" data-name="Trazado 225378" d="M35.874,316.769s9.115-159.4,282.8-173.886" transform="translate(-35.874 -132.132)" fill="none" stroke="#263238" stroke-linecap="round" stroke-linejoin="round" stroke-width="1" stroke-dasharray="5"/>
            <path id="Trazado_225379" data-name="Trazado 225379" d="M302.444,125.55c10.418,8.5,15.887,21.748,18.631,34.6,5.693,26.663,3.026,55.371-10.2,79.477-13.961,25.449-38.615,43.781-65.1,54.673-56.148,23.09-127.621,7.951-159.505-46.837q-.518-.894-1.024-1.8c-3.09-5.527-5.945-11.493-7.172-17.749" transform="translate(-51.899 -125.55)" fill="none" stroke="#263238" stroke-linecap="round" stroke-linejoin="round" stroke-width="1" stroke-dasharray="5"/>
          </g>
          <rect id="Rectángulo_303453" data-name="Rectángulo 303453" width="168.857" height="167.451" rx="7.487" transform="translate(24.029 37.97)" fill="#1e2b6f"/>
          <g id="Grupo_213838" data-name="Grupo 213838" transform="translate(28.098 34.072)">
            <rect id="Rectángulo_303454" data-name="Rectángulo 303454" width="168.857" height="167.451" rx="7.487" transform="translate(0 0)" fill="#83cfdf"/>
            <rect id="Rectángulo_303455" data-name="Rectángulo 303455" width="99.486" height="18.133" rx="9.066" transform="translate(34.74 99.36)" fill="#fff" stroke="#263238" stroke-miterlimit="10" stroke-width="1"/>
            <rect id="Rectángulo_303456" data-name="Rectángulo 303456" width="99.486" height="18.133" rx="9.066" transform="translate(34.74 62.92)" fill="#fff" stroke="#263238" stroke-miterlimit="10" stroke-width="1"/>
            <rect id="Rectángulo_303457" data-name="Rectángulo 303457" width="67.597" height="18.133" rx="9.066" transform="translate(50.684 128.645)" fill="#1e2b6f"/>
            <path id="Trazado_225380" data-name="Trazado 225380" d="M205.064,51.884V43.83a5.3,5.3,0,0,0-5.3-5.3H41.509a5.3,5.3,0,0,0-5.3,5.3v8.054Z" transform="translate(-36.207 -38.528)" fill="#1e2b6f"/>
            <g id="Grupo_213837" data-name="Grupo 213837" transform="translate(141.946 5.063)">
              <circle id="Elipse_16449" data-name="Elipse 16449" cx="2.449" cy="2.449" r="2.449" transform="translate(0 0)" fill="#fff" stroke="#263238" stroke-miterlimit="10" stroke-width="1"/>
              <circle id="Elipse_16450" data-name="Elipse 16450" cx="2.449" cy="2.449" r="2.449" transform="translate(8.267 0)" fill="#fff" stroke="#263238" stroke-miterlimit="10" stroke-width="1"/>
              <path id="Trazado_225381" data-name="Trazado 225381" d="M296.6,49.14a2.449,2.449,0,1,0-2.449,2.449A2.449,2.449,0,0,0,296.6,49.14Z" transform="translate(-275.171 -46.691)" fill="#fff" stroke="#263238" stroke-miterlimit="10" stroke-width="1"/>
            </g>
          </g>
          <g id="Grupo_213840" data-name="Grupo 213840" transform="translate(210.25 30.556)">
            <path id="Trazado_225382" data-name="Trazado 225382" d="M370.877,53.368a20.5,20.5,0,1,1-20.5-20.509A20.412,20.412,0,0,1,370.877,53.368Z" transform="translate(-329.869 -32.859)" fill="#1e2b6f"/>
            <g id="Grupo_213839" data-name="Grupo 213839" transform="translate(7.842 8.734)">
              <path id="Trazado_225383" data-name="Trazado 225383" d="M366.249,55.5a8.561,8.561,0,1,0-8.562,8.562A8.562,8.562,0,0,0,366.249,55.5Z" transform="translate(-345.023 -46.94)" fill="#f0c942"/>
              <path id="Trazado_225384" data-name="Trazado 225384" d="M367.836,85.668a20.476,20.476,0,0,1-25.325,0,12.964,12.964,0,0,1,25.325,0Z" transform="translate(-342.511 -57.779)" fill="#f0c942"/>
            </g>
          </g>
          <g id="Grupo_213841" data-name="Grupo 213841" transform="translate(256.889 66.79)">
            <path id="Trazado_225385" data-name="Trazado 225385" d="M405.06,91.275l24.641,5.1-6.626,7.586Z" transform="translate(-405.06 -91.275)" fill="#fff" stroke="#263238" stroke-miterlimit="10" stroke-width="1"/>
            <path id="Trazado_225386" data-name="Trazado 225386" d="M405.06,91.275l8.268,23.186,7.286-8.116Z" transform="translate(-405.06 -91.275)" fill="#fff" stroke="#263238" stroke-miterlimit="10" stroke-width="1"/>
            <path id="Trazado_225387" data-name="Trazado 225387" d="M423.076,103.965l-.561,5.836-1.9-3.457L405.06,91.275Z" transform="translate(-405.06 -91.275)" fill="#fff" stroke="#263238" stroke-miterlimit="10" stroke-width="1"/>
            <path id="Trazado_225388" data-name="Trazado 225388" d="M431.237,119.026l-3.2-1.82,1.305-1.637Z" transform="translate(-413.783 -100.5)" fill="#fff" stroke="#263238" stroke-miterlimit="10" stroke-width="1"/>
          </g>
          <g id="Grupo_213845" data-name="Grupo 213845" transform="translate(201.948 126.53)">
            <g id="Grupo_213842" data-name="Grupo 213842" transform="translate(5.394)">
              <path id="Trazado_225389" data-name="Trazado 225389" d="M336.008,284.286V224.642a26.229,26.229,0,1,1,52.458,0v59.644h10.826V224.642a37.1,37.1,0,0,0-37.055-37.055h0a37.1,37.1,0,0,0-37.055,37.055v59.644Z" transform="translate(-325.182 -187.587)" fill="#1e2b6f"/>
            </g>
            <g id="Grupo_213844" data-name="Grupo 213844" transform="translate(0 70.75)">
              <rect id="Rectángulo_303458" data-name="Rectángulo 303458" width="88.323" height="98.658" fill="#b2b2b2"/>
              <g id="Grupo_213843" data-name="Grupo 213843">
                <path id="Trazado_225390" data-name="Trazado 225390" d="M404.808,315.178,316.486,403.5v1.943h8.831l79.492-79.492Z" transform="translate(-316.486 -306.786)" fill="#fff"/>
                <path id="Trazado_225391" data-name="Trazado 225391" d="M316.486,326.218V358.46L373.3,301.648H341.055Z" transform="translate(-316.486 -301.648)" fill="#fff"/>
              </g>
              <rect id="Rectángulo_303459" data-name="Rectángulo 303459" width="88.323" height="98.658" fill="none" stroke="#263238" stroke-miterlimit="10" stroke-width="1"/>
              <rect id="Rectángulo_303460" data-name="Rectángulo 303460" width="18.589" height="98.658" transform="translate(69.733)" fill="#1e2b6f"/>
              <path id="Trazado_225392" data-name="Trazado 225392" d="M368.992,360.794a6.191,6.191,0,1,0-8.611,5.7l-1.136,13.442h7.114l-1.136-13.442A6.191,6.191,0,0,0,368.992,360.794Z" transform="translate(-331.722 -321.756)" fill="#1e2b6f"/>
            </g>
          </g>
          <g id="Grupo_213852" data-name="Grupo 213852" transform="translate(61.609 63.798)">
            <g id="Grupo_213846" data-name="Grupo 213846" transform="translate(9.596 76.142)">
              <path id="Trazado_225393" data-name="Trazado 225393" d="M107.024,213.605l-.815-.492,1.022-1.436-1.527-.582.337-.88,1.462.776-.156-1.785H108.4l-.168,1.785,1.475-.776.323.88-1.527.6,1.035,1.423-.84.492-.828-1.618Z" transform="translate(-105.704 -209.206)" fill="#1e2b6f"/>
              <path id="Trazado_225394" data-name="Trazado 225394" d="M115.326,213.605l-.816-.492,1.022-1.436-1.527-.582.336-.88,1.462.776-.155-1.785H116.7l-.169,1.785,1.475-.776.323.88-1.527.6,1.035,1.423-.841.492-.828-1.618Z" transform="translate(-108.856 -209.206)" fill="#1e2b6f"/>
              <path id="Trazado_225395" data-name="Trazado 225395" d="M123.627,213.605l-.815-.492,1.022-1.436-1.527-.582.337-.88,1.461.776-.155-1.785H125l-.168,1.785,1.474-.776.324.88-1.527.6,1.035,1.423-.84.492-.828-1.618Z" transform="translate(-112.009 -209.206)" fill="#1e2b6f"/>
              <path id="Trazado_225396" data-name="Trazado 225396" d="M131.928,213.605l-.815-.492,1.022-1.436-1.527-.582.336-.88,1.462.776-.155-1.785H133.3l-.169,1.785,1.475-.776.323.88-1.527.6,1.035,1.423-.841.492-.828-1.618Z" transform="translate(-115.161 -209.206)" fill="#1e2b6f"/>
              <path id="Trazado_225397" data-name="Trazado 225397" d="M140.23,213.605l-.815-.492,1.022-1.436-1.527-.582.336-.88,1.462.776-.155-1.785H141.6l-.168,1.785,1.475-.776.323.88-1.527.6,1.035,1.423-.841.492-.828-1.618Z" transform="translate(-118.313 -209.206)" fill="#1e2b6f"/>
              <path id="Trazado_225398" data-name="Trazado 225398" d="M148.532,213.605l-.815-.492,1.022-1.436-1.527-.582.337-.88,1.461.776-.155-1.785H149.9l-.168,1.785,1.474-.776.324.88-1.526.6,1.035,1.423-.84.492-.829-1.618Z" transform="translate(-121.466 -209.206)" fill="#1e2b6f"/>
              <path id="Trazado_225399" data-name="Trazado 225399" d="M156.833,213.605l-.815-.492,1.022-1.436-1.527-.582.336-.88,1.462.776-.156-1.785H158.2l-.168,1.785,1.475-.776.323.88-1.527.6,1.035,1.423-.841.492-.828-1.618Z" transform="translate(-124.618 -209.206)" fill="#1e2b6f"/>
              <path id="Trazado_225400" data-name="Trazado 225400" d="M165.135,213.605l-.815-.492,1.022-1.436-1.527-.582.336-.88,1.462.776-.155-1.785h1.048l-.168,1.785,1.474-.776.324.88-1.527.6,1.035,1.423-.84.492-.829-1.618Z" transform="translate(-127.77 -209.206)" fill="#1e2b6f"/>
              <path id="Trazado_225401" data-name="Trazado 225401" d="M173.436,213.605l-.815-.492,1.022-1.436-1.526-.582.336-.88,1.462.776-.156-1.785h1.048l-.168,1.785,1.475-.776.323.88-1.527.6,1.035,1.423-.841.492-.828-1.618Z" transform="translate(-130.922 -209.206)" fill="#1e2b6f"/>
              <path id="Trazado_225402" data-name="Trazado 225402" d="M181.738,213.605l-.815-.492,1.022-1.436-1.527-.582.336-.88,1.462.776-.155-1.785h1.048l-.168,1.785,1.474-.776.324.88-1.526.6,1.035,1.423-.84.492-.829-1.618Z" transform="translate(-134.075 -209.206)" fill="#1e2b6f"/>
              <path id="Trazado_225403" data-name="Trazado 225403" d="M190.04,213.605l-.815-.492,1.022-1.436-1.527-.582.336-.88,1.462.776-.155-1.785h1.048l-.168,1.785,1.474-.776.324.88-1.527.6,1.035,1.423-.841.492-.828-1.618Z" transform="translate(-137.227 -209.206)" fill="#1e2b6f"/>
              <path id="Trazado_225404" data-name="Trazado 225404" d="M198.341,213.605l-.815-.492,1.022-1.436-1.527-.582.337-.88,1.462.776-.156-1.785h1.048l-.168,1.785,1.475-.776.323.88-1.527.6,1.035,1.423-.84.492-.828-1.618Z" transform="translate(-140.379 -209.206)" fill="#1e2b6f"/>
              <path id="Trazado_225405" data-name="Trazado 225405" d="M206.643,213.605l-.816-.492,1.022-1.436-1.526-.582.336-.88,1.462.776-.155-1.785h1.048l-.169,1.785,1.475-.776.324.88-1.527.6,1.035,1.423-.841.492-.828-1.618Z" transform="translate(-143.532 -209.206)" fill="#1e2b6f"/>
              <path id="Trazado_225406" data-name="Trazado 225406" d="M214.944,213.605l-.815-.492,1.022-1.436-1.527-.582.337-.88,1.462.776-.156-1.785h1.048l-.168,1.785,1.475-.776.323.88-1.527.6,1.035,1.423-.84.492-.828-1.618Z" transform="translate(-146.684 -209.206)" fill="#1e2b6f"/>
              <path id="Trazado_225407" data-name="Trazado 225407" d="M223.246,213.605l-.816-.492,1.022-1.436-1.527-.582.336-.88,1.462.776-.155-1.785h1.048l-.169,1.785,1.475-.776.324.88-1.527.6,1.035,1.423-.841.492-.828-1.618Z" transform="translate(-149.836 -209.206)" fill="#1e2b6f"/>
              <path id="Trazado_225408" data-name="Trazado 225408" d="M231.547,213.605l-.815-.492,1.022-1.436-1.527-.582.337-.88,1.462.776-.156-1.785h1.048l-.168,1.785,1.475-.776.323.88-1.527.6,1.035,1.423-.84.492-.828-1.618Z" transform="translate(-152.988 -209.206)" fill="#1e2b6f"/>
            </g>
            <g id="Grupo_213847" data-name="Grupo 213847" transform="translate(9.596 39.702)">
              <path id="Trazado_225409" data-name="Trazado 225409" d="M107.024,154.856l-.815-.491,1.022-1.437-1.527-.582.337-.88,1.462.777-.156-1.786H108.4l-.168,1.786,1.475-.777.323.88-1.527.595,1.035,1.424-.84.491-.828-1.617Z" transform="translate(-105.704 -150.457)" fill="#1e2b6f"/>
              <path id="Trazado_225410" data-name="Trazado 225410" d="M115.326,154.856l-.816-.491,1.022-1.437-1.527-.582.336-.88,1.462.777-.155-1.786H116.7l-.169,1.786,1.475-.777.323.88-1.527.595,1.035,1.424-.841.491-.828-1.617Z" transform="translate(-108.856 -150.457)" fill="#1e2b6f"/>
              <path id="Trazado_225411" data-name="Trazado 225411" d="M123.627,154.856l-.815-.491,1.022-1.437-1.527-.582.337-.88,1.461.777-.155-1.786H125l-.168,1.786,1.474-.777.324.88-1.527.595,1.035,1.424-.84.491-.828-1.617Z" transform="translate(-112.009 -150.457)" fill="#1e2b6f"/>
              <path id="Trazado_225412" data-name="Trazado 225412" d="M131.928,154.856l-.815-.491,1.022-1.437-1.527-.582.336-.88,1.462.777-.155-1.786H133.3l-.169,1.786,1.475-.777.323.88-1.527.595,1.035,1.424-.841.491-.828-1.617Z" transform="translate(-115.161 -150.457)" fill="#1e2b6f"/>
              <path id="Trazado_225413" data-name="Trazado 225413" d="M140.23,154.856l-.815-.491,1.022-1.437-1.527-.582.336-.88,1.462.777-.155-1.786H141.6l-.168,1.786,1.475-.777.323.88-1.527.595,1.035,1.424-.841.491-.828-1.617Z" transform="translate(-118.313 -150.457)" fill="#1e2b6f"/>
              <path id="Trazado_225414" data-name="Trazado 225414" d="M148.532,154.856l-.815-.491,1.022-1.437-1.527-.582.337-.88,1.461.777-.155-1.786H149.9l-.168,1.786,1.474-.777.324.88-1.526.595,1.035,1.424-.84.491-.829-1.617Z" transform="translate(-121.466 -150.457)" fill="#1e2b6f"/>
              <path id="Trazado_225415" data-name="Trazado 225415" d="M156.833,154.856l-.815-.491,1.022-1.437-1.527-.582.336-.88,1.462.777-.156-1.786H158.2l-.168,1.786,1.475-.777.323.88-1.527.595,1.035,1.424-.841.491-.828-1.617Z" transform="translate(-124.618 -150.457)" fill="#1e2b6f"/>
              <path id="Trazado_225416" data-name="Trazado 225416" d="M165.135,154.856l-.815-.491,1.022-1.437-1.527-.582.336-.88,1.462.777-.155-1.786h1.048l-.168,1.786,1.474-.777.324.88-1.527.595,1.035,1.424-.84.491-.829-1.617Z" transform="translate(-127.77 -150.457)" fill="#1e2b6f"/>
              <path id="Trazado_225417" data-name="Trazado 225417" d="M173.436,154.856l-.815-.491,1.022-1.437-1.526-.582.336-.88,1.462.777-.156-1.786h1.048l-.168,1.786,1.475-.777.323.88-1.527.595,1.035,1.424-.841.491-.828-1.617Z" transform="translate(-130.922 -150.457)" fill="#1e2b6f"/>
              <path id="Trazado_225418" data-name="Trazado 225418" d="M181.738,154.856l-.815-.491,1.022-1.437-1.527-.582.336-.88,1.462.777-.155-1.786h1.048l-.168,1.786,1.474-.777.324.88-1.526.595,1.035,1.424-.84.491-.829-1.617Z" transform="translate(-134.075 -150.457)" fill="#1e2b6f"/>
              <path id="Trazado_225419" data-name="Trazado 225419" d="M190.04,154.856l-.815-.491,1.022-1.437-1.527-.582.336-.88,1.462.777-.155-1.786h1.048l-.168,1.786,1.474-.777.324.88-1.527.595,1.035,1.424-.841.491-.828-1.617Z" transform="translate(-137.227 -150.457)" fill="#1e2b6f"/>
              <path id="Trazado_225420" data-name="Trazado 225420" d="M198.341,154.856l-.815-.491,1.022-1.437-1.527-.582.337-.88,1.462.777-.156-1.786h1.048l-.168,1.786,1.475-.777.323.88-1.527.595,1.035,1.424-.84.491-.828-1.617Z" transform="translate(-140.379 -150.457)" fill="#1e2b6f"/>
              <path id="Trazado_225421" data-name="Trazado 225421" d="M206.643,154.856l-.816-.491,1.022-1.437-1.526-.582.336-.88,1.462.777-.155-1.786h1.048l-.169,1.786,1.475-.777.324.88-1.527.595,1.035,1.424-.841.491-.828-1.617Z" transform="translate(-143.532 -150.457)" fill="#1e2b6f"/>
              <path id="Trazado_225422" data-name="Trazado 225422" d="M214.944,154.856l-.815-.491,1.022-1.437-1.527-.582.337-.88,1.462.777-.156-1.786h1.048l-.168,1.786,1.475-.777.323.88-1.527.595,1.035,1.424-.84.491-.828-1.617Z" transform="translate(-146.684 -150.457)" fill="#1e2b6f"/>
              <path id="Trazado_225423" data-name="Trazado 225423" d="M223.246,154.856l-.816-.491,1.022-1.437-1.527-.582.336-.88,1.462.777-.155-1.786h1.048l-.169,1.786,1.475-.777.324.88-1.527.595,1.035,1.424-.841.491-.828-1.617Z" transform="translate(-149.836 -150.457)" fill="#1e2b6f"/>
              <path id="Trazado_225424" data-name="Trazado 225424" d="M231.547,154.856l-.815-.491,1.022-1.437-1.527-.582.337-.88,1.462.777-.156-1.786h1.048l-.168,1.786,1.475-.777.323.88-1.527.595,1.035,1.424-.84.491-.828-1.617Z" transform="translate(-152.988 -150.457)" fill="#1e2b6f"/>
            </g>
            <g id="Grupo_213848" data-name="Grupo 213848" transform="translate(36.675 22.85)">
              <path id="Trazado_225425" data-name="Trazado 225425" d="M149.36,128.739v-5.375h1.334a1.479,1.479,0,0,1,.774.176,1.017,1.017,0,0,1,.421.507,2.158,2.158,0,0,1,.133.8,1.694,1.694,0,0,1-.149.736,1.083,1.083,0,0,1-.442.481,1.442,1.442,0,0,1-.73.169h-.591v2.5Zm.749-3.039h.346a1.433,1.433,0,0,0,.511-.073.464.464,0,0,0,.265-.256,1.33,1.33,0,0,0,.079-.514,2.383,2.383,0,0,0-.056-.591.412.412,0,0,0-.236-.285,1.447,1.447,0,0,0-.557-.08h-.352Z" transform="translate(-149.36 -123.317)" fill="#1e2b6f"/>
              <path id="Trazado_225426" data-name="Trazado 225426" d="M153.618,128.739l1.141-5.375h.723l1.148,5.375h-.71l-.246-1.354H154.58l-.259,1.354Zm1.061-1.891h.9l-.452-2.423Z" transform="translate(-150.977 -123.317)" fill="#1e2b6f"/>
              <path id="Trazado_225427" data-name="Trazado 225427" d="M160.522,128.77a1.4,1.4,0,0,1-.773-.2,1.258,1.258,0,0,1-.468-.551,2.28,2.28,0,0,1-.185-.816l.663-.179a3,3,0,0,0,.09.55.99.99,0,0,0,.229.435.582.582,0,0,0,.445.169.57.57,0,0,0,.441-.163.667.667,0,0,0,.15-.468.955.955,0,0,0-.166-.587,3.024,3.024,0,0,0-.418-.448l-.9-.8a1.521,1.521,0,0,1-.392-.508,1.635,1.635,0,0,1-.126-.68,1.213,1.213,0,0,1,.338-.916,1.279,1.279,0,0,1,.923-.325,1.735,1.735,0,0,1,.561.083.986.986,0,0,1,.4.256,1.258,1.258,0,0,1,.259.434,2.455,2.455,0,0,1,.129.614l-.637.172a2.633,2.633,0,0,0-.079-.488A.726.726,0,0,0,160.8,124a.615.615,0,0,0-.428-.136.6.6,0,0,0-.435.149.581.581,0,0,0-.156.441.874.874,0,0,0,.082.405,1.194,1.194,0,0,0,.269.325l.909.8a2.829,2.829,0,0,1,.538.634,1.6,1.6,0,0,1,.232.872,1.356,1.356,0,0,1-.166.687,1.12,1.12,0,0,1-.455.442A1.4,1.4,0,0,1,160.522,128.77Z" transform="translate(-153.057 -123.289)" fill="#1e2b6f"/>
              <path id="Trazado_225428" data-name="Trazado 225428" d="M165.582,128.77a1.4,1.4,0,0,1-.773-.2,1.252,1.252,0,0,1-.468-.551,2.279,2.279,0,0,1-.186-.816l.664-.179a2.953,2.953,0,0,0,.089.55.99.99,0,0,0,.229.435.579.579,0,0,0,.444.169.57.57,0,0,0,.441-.163.667.667,0,0,0,.149-.468.959.959,0,0,0-.166-.587,3.059,3.059,0,0,0-.418-.448l-.9-.8a1.519,1.519,0,0,1-.391-.508,1.625,1.625,0,0,1-.126-.68,1.211,1.211,0,0,1,.338-.916,1.277,1.277,0,0,1,.922-.325,1.729,1.729,0,0,1,.561.083.988.988,0,0,1,.405.256,1.257,1.257,0,0,1,.259.434,2.48,2.48,0,0,1,.13.614l-.638.172a2.632,2.632,0,0,0-.079-.488.726.726,0,0,0-.209-.359.613.613,0,0,0-.428-.136.6.6,0,0,0-.435.149.583.583,0,0,0-.156.441.874.874,0,0,0,.083.405,1.179,1.179,0,0,0,.269.325l.909.8a2.845,2.845,0,0,1,.538.634,1.6,1.6,0,0,1,.232.872,1.357,1.357,0,0,1-.166.687,1.117,1.117,0,0,1-.455.442A1.4,1.4,0,0,1,165.582,128.77Z" transform="translate(-154.978 -123.289)" fill="#1e2b6f"/>
              <path id="Trazado_225429" data-name="Trazado 225429" d="M170.059,128.739l-.876-5.375h.624l.577,3.862.723-3.843h.531l.73,3.862.564-3.882h.61l-.863,5.375h-.544l-.75-3.982-.757,3.982Z" transform="translate(-156.887 -123.317)" fill="#1e2b6f"/>
              <path id="Trazado_225430" data-name="Trazado 225430" d="M178.5,128.77a1.57,1.57,0,0,1-.869-.212,1.164,1.164,0,0,1-.465-.607,2.777,2.777,0,0,1-.14-.925v-2.038a2.612,2.612,0,0,1,.143-.912,1.141,1.141,0,0,1,.465-.584,1.616,1.616,0,0,1,.866-.2,1.576,1.576,0,0,1,.863.206,1.165,1.165,0,0,1,.462.584,2.588,2.588,0,0,1,.142.909v2.044a2.676,2.676,0,0,1-.142.916,1.214,1.214,0,0,1-.462.607A1.517,1.517,0,0,1,178.5,128.77Zm0-.59a.709.709,0,0,0,.452-.123.61.61,0,0,0,.205-.345,2.265,2.265,0,0,0,.053-.522v-2.355a2.175,2.175,0,0,0-.053-.514.575.575,0,0,0-.205-.332.738.738,0,0,0-.452-.117.753.753,0,0,0-.455.117.57.57,0,0,0-.209.332,2.178,2.178,0,0,0-.053.514v2.355a2.267,2.267,0,0,0,.053.522.6.6,0,0,0,.209.345A.723.723,0,0,0,178.5,128.18Z" transform="translate(-159.865 -123.289)" fill="#1e2b6f"/>
              <path id="Trazado_225431" data-name="Trazado 225431" d="M182.952,128.739v-5.375h1.082a2.388,2.388,0,0,1,.889.143.994.994,0,0,1,.521.458,1.745,1.745,0,0,1,.169.826,2.27,2.27,0,0,1-.066.568,1.1,1.1,0,0,1-.213.431.825.825,0,0,1-.385.256l.763,2.694h-.723l-.7-2.521H183.7v2.521Zm.749-3.059h.286a1.407,1.407,0,0,0,.517-.08.534.534,0,0,0,.292-.272,1.262,1.262,0,0,0,.092-.538,1.069,1.069,0,0,0-.172-.68.866.866,0,0,0-.684-.21H183.7Z" transform="translate(-162.116 -123.317)" fill="#1e2b6f"/>
              <path id="Trazado_225432" data-name="Trazado 225432" d="M188.5,128.739v-5.375h1.168a2.057,2.057,0,0,1,.946.182,1.05,1.05,0,0,1,.5.548,2.406,2.406,0,0,1,.149.909v1.977a2.707,2.707,0,0,1-.149.962,1.151,1.151,0,0,1-.484.594,1.732,1.732,0,0,1-.9.2Zm.75-.538h.425a.85.85,0,0,0,.584-.159.725.725,0,0,0,.21-.464,6.381,6.381,0,0,0,.036-.737V125.1a3.5,3.5,0,0,0-.053-.677.57.57,0,0,0-.233-.378,1.039,1.039,0,0,0-.564-.119h-.405Z" transform="translate(-164.224 -123.317)" fill="#1e2b6f"/>
            </g>
            <g id="Grupo_213849" data-name="Grupo 213849">
              <path id="Trazado_225433" data-name="Trazado 225433" d="M90.233,95.227v-8.6h2.231a4.968,4.968,0,0,1,1.492.2,1.74,1.74,0,0,1,.956.7,2.458,2.458,0,0,1,.335,1.381,4.393,4.393,0,0,1-.091.94,1.813,1.813,0,0,1-.319.711,1.569,1.569,0,0,1-.643.484l1.19,4.2h-1.8l-.988-3.9h-.616v3.9Zm1.753-4.94h.51a1.37,1.37,0,0,0,.669-.138.756.756,0,0,0,.345-.42,2.085,2.085,0,0,0,.1-.7,1.587,1.587,0,0,0-.218-.908.925.925,0,0,0-.813-.313h-.595Z" transform="translate(-90.233 -86.516)" fill="#1e2b6f"/>
              <path id="Trazado_225434" data-name="Trazado 225434" d="M100.167,95.227v-8.6h3.75v1.211h-2v2.284h1.54v1.221h-1.54v2.7h2.018v1.19Z" transform="translate(-94.005 -86.516)" fill="#1e2b6f"/>
              <path id="Trazado_225435" data-name="Trazado 225435" d="M109.768,95.278a2.73,2.73,0,0,1-1.328-.292,1.852,1.852,0,0,1-.8-.881,4.078,4.078,0,0,1-.313-1.5l1.509-.254a4.406,4.406,0,0,0,.112.887,1.075,1.075,0,0,0,.276.531.648.648,0,0,0,.462.175.485.485,0,0,0,.462-.212.964.964,0,0,0,.122-.489,1.528,1.528,0,0,0-.261-.908,4.337,4.337,0,0,0-.685-.738l-.893-.775a3.6,3.6,0,0,1-.781-.914,2.419,2.419,0,0,1-.3-1.254,2.1,2.1,0,0,1,.622-1.631,2.432,2.432,0,0,1,1.705-.568,2.33,2.33,0,0,1,1.063.212,1.629,1.629,0,0,1,.643.569,2.335,2.335,0,0,1,.319.775,5.247,5.247,0,0,1,.111.834l-1.5.223a6.753,6.753,0,0,0-.069-.69.943.943,0,0,0-.191-.468.53.53,0,0,0-.43-.17.507.507,0,0,0-.457.228.906.906,0,0,0-.149.5,1.269,1.269,0,0,0,.207.749,3.673,3.673,0,0,0,.569.611l.871.765a4.955,4.955,0,0,1,.929,1.067,2.675,2.675,0,0,1,.388,1.482,2.189,2.189,0,0,1-.276,1.094,1.972,1.972,0,0,1-.77.765A2.343,2.343,0,0,1,109.768,95.278Z" transform="translate(-96.723 -86.451)" fill="#1e2b6f"/>
              <path id="Trazado_225436" data-name="Trazado 225436" d="M116.094,95.227v-8.6h3.75v1.211h-2v2.284h1.541v1.221h-1.541v2.7h2.019v1.19Z" transform="translate(-100.053 -86.516)" fill="#1e2b6f"/>
              <path id="Trazado_225437" data-name="Trazado 225437" d="M124.083,95.227v-7.3h-1.327V86.622h4.4v1.306h-1.307v7.3Z" transform="translate(-102.583 -86.516)" fill="#1e2b6f"/>
              <path id="Trazado_225438" data-name="Trazado 225438" d="M136.164,95.227v-3.41l-1.678-5.195h1.647l.924,3.028.86-3.028h1.594l-1.657,5.195v3.41Z" transform="translate(-107.037 -86.516)" fill="#1e2b6f"/>
              <path id="Trazado_225439" data-name="Trazado 225439" d="M145.869,95.278a2.847,2.847,0,0,1-1.5-.339,1.9,1.9,0,0,1-.791-.973,4.294,4.294,0,0,1-.239-1.513V89.245a4.253,4.253,0,0,1,.239-1.509,1.844,1.844,0,0,1,.791-.956,3.583,3.583,0,0,1,3.012,0,1.865,1.865,0,0,1,.8.956,4.2,4.2,0,0,1,.239,1.5v3.208a4.28,4.28,0,0,1-.239,1.513,1.886,1.886,0,0,1-.8.973A2.9,2.9,0,0,1,145.869,95.278Zm0-1.264a.7.7,0,0,0,.5-.154.773.773,0,0,0,.213-.414,2.788,2.788,0,0,0,.053-.558V88.82a2.716,2.716,0,0,0-.053-.553.77.77,0,0,0-.213-.409.7.7,0,0,0-.5-.154.663.663,0,0,0-.478.154.769.769,0,0,0-.212.409,2.713,2.713,0,0,0-.053.553v4.068a3.1,3.1,0,0,0,.048.558.744.744,0,0,0,.208.414A.677.677,0,0,0,145.869,94.014Z" transform="translate(-110.399 -86.451)" fill="#1e2b6f"/>
              <path id="Trazado_225440" data-name="Trazado 225440" d="M155.788,95.343a2.9,2.9,0,0,1-1.519-.334,1.777,1.777,0,0,1-.76-.966,4.744,4.744,0,0,1-.218-1.535V86.622h1.731v6.129a4.113,4.113,0,0,0,.048.627.979.979,0,0,0,.213.5.632.632,0,0,0,.5.192.644.644,0,0,0,.515-.192.944.944,0,0,0,.207-.5,4.551,4.551,0,0,0,.043-.627V86.622h1.731v5.885a4.745,4.745,0,0,1-.218,1.535,1.779,1.779,0,0,1-.759.966A2.9,2.9,0,0,1,155.788,95.343Z" transform="translate(-114.178 -86.516)" fill="#1e2b6f"/>
              <path id="Trazado_225441" data-name="Trazado 225441" d="M163.31,95.227v-8.6h2.231a4.968,4.968,0,0,1,1.492.2,1.743,1.743,0,0,1,.956.7,2.463,2.463,0,0,1,.334,1.381,4.436,4.436,0,0,1-.09.94,1.831,1.831,0,0,1-.319.711,1.571,1.571,0,0,1-.643.484l1.19,4.2h-1.8l-.987-3.9h-.616v3.9Zm1.753-4.94h.509a1.372,1.372,0,0,0,.67-.138.758.758,0,0,0,.345-.42,2.084,2.084,0,0,0,.1-.7,1.587,1.587,0,0,0-.218-.908.927.927,0,0,0-.813-.313h-.595Z" transform="translate(-117.982 -86.516)" fill="#1e2b6f"/>
              <path id="Trazado_225442" data-name="Trazado 225442" d="M177.524,95.227v-8.6h2.73a2.441,2.441,0,0,1,1.265.292,1.781,1.781,0,0,1,.728.844,3.364,3.364,0,0,1,.239,1.339,2.808,2.808,0,0,1-.313,1.444,1.734,1.734,0,0,1-.855.739,3.313,3.313,0,0,1-1.243.218h-.8v3.728Zm1.753-4.961h.616a1.164,1.164,0,0,0,.589-.122.624.624,0,0,0,.282-.388,2.6,2.6,0,0,0,.074-.68,3.123,3.123,0,0,0-.059-.659.678.678,0,0,0-.26-.414,1.089,1.089,0,0,0-.638-.149h-.605Z" transform="translate(-123.379 -86.516)" fill="#1e2b6f"/>
              <path id="Trazado_225443" data-name="Trazado 225443" d="M185.522,95.227l1.668-8.6h1.944l1.657,8.6h-1.625l-.308-1.891H187.5l-.329,1.891Zm2.135-2.964h1.031l-.521-3.474Z" transform="translate(-126.416 -86.516)" fill="#1e2b6f"/>
              <path id="Trazado_225444" data-name="Trazado 225444" d="M197.419,95.278a2.727,2.727,0,0,1-1.327-.292,1.852,1.852,0,0,1-.8-.881,4.065,4.065,0,0,1-.313-1.5l1.509-.254a4.365,4.365,0,0,0,.111.887,1.071,1.071,0,0,0,.277.531.647.647,0,0,0,.461.175.487.487,0,0,0,.463-.212.964.964,0,0,0,.122-.489,1.527,1.527,0,0,0-.26-.908,4.317,4.317,0,0,0-.685-.738l-.893-.775a3.6,3.6,0,0,1-.78-.914,2.42,2.42,0,0,1-.3-1.254,2.1,2.1,0,0,1,.622-1.631,2.429,2.429,0,0,1,1.705-.568,2.325,2.325,0,0,1,1.062.212,1.624,1.624,0,0,1,.643.569,2.335,2.335,0,0,1,.319.775,5.249,5.249,0,0,1,.112.834l-1.5.223a6.764,6.764,0,0,0-.069-.69.944.944,0,0,0-.192-.468.53.53,0,0,0-.43-.17.508.508,0,0,0-.457.228.905.905,0,0,0-.148.5,1.264,1.264,0,0,0,.207.749,3.641,3.641,0,0,0,.568.611l.871.765a4.958,4.958,0,0,1,.93,1.067,2.68,2.68,0,0,1,.388,1.482,2.183,2.183,0,0,1-.277,1.094,1.971,1.971,0,0,1-.77.765A2.345,2.345,0,0,1,197.419,95.278Z" transform="translate(-130.006 -86.451)" fill="#1e2b6f"/>
              <path id="Trazado_225445" data-name="Trazado 225445" d="M205.845,95.278a2.728,2.728,0,0,1-1.327-.292,1.852,1.852,0,0,1-.8-.881,4.065,4.065,0,0,1-.313-1.5l1.509-.254a4.369,4.369,0,0,0,.111.887,1.076,1.076,0,0,0,.276.531.649.649,0,0,0,.462.175.487.487,0,0,0,.463-.212.964.964,0,0,0,.122-.489,1.532,1.532,0,0,0-.26-.908,4.317,4.317,0,0,0-.685-.738l-.893-.775a3.6,3.6,0,0,1-.78-.914,2.419,2.419,0,0,1-.3-1.254,2.1,2.1,0,0,1,.622-1.631,2.429,2.429,0,0,1,1.705-.568,2.325,2.325,0,0,1,1.062.212,1.625,1.625,0,0,1,.643.569,2.335,2.335,0,0,1,.319.775,5.174,5.174,0,0,1,.111.834l-1.5.223a6.585,6.585,0,0,0-.069-.69.938.938,0,0,0-.191-.468.53.53,0,0,0-.43-.17.508.508,0,0,0-.457.228.905.905,0,0,0-.148.5,1.268,1.268,0,0,0,.207.749,3.673,3.673,0,0,0,.569.611l.871.765a4.958,4.958,0,0,1,.93,1.067,2.68,2.68,0,0,1,.388,1.482,2.183,2.183,0,0,1-.277,1.094,1.971,1.971,0,0,1-.77.765A2.345,2.345,0,0,1,205.845,95.278Z" transform="translate(-133.206 -86.451)" fill="#1e2b6f"/>
              <path id="Trazado_225446" data-name="Trazado 225446" d="M212.96,95.227l-1.115-8.6h1.487l.595,5.258.754-5.248h1.18l.786,5.237.595-5.248h1.466l-1.1,8.6h-1.487l-.839-5.449-.8,5.449Z" transform="translate(-136.412 -86.516)" fill="#1e2b6f"/>
              <path id="Trazado_225447" data-name="Trazado 225447" d="M226.721,95.278a2.847,2.847,0,0,1-1.5-.339,1.892,1.892,0,0,1-.791-.973,4.294,4.294,0,0,1-.239-1.513V89.245a4.253,4.253,0,0,1,.239-1.509,1.841,1.841,0,0,1,.791-.956,3.582,3.582,0,0,1,3.011,0,1.863,1.863,0,0,1,.8.956,4.2,4.2,0,0,1,.239,1.5v3.208a4.28,4.28,0,0,1-.239,1.513,1.884,1.884,0,0,1-.8.973A2.9,2.9,0,0,1,226.721,95.278Zm0-1.264a.7.7,0,0,0,.5-.154.778.778,0,0,0,.213-.414,2.831,2.831,0,0,0,.053-.558V88.82a2.758,2.758,0,0,0-.053-.553.774.774,0,0,0-.213-.409.7.7,0,0,0-.5-.154.662.662,0,0,0-.478.154.769.769,0,0,0-.212.409,2.67,2.67,0,0,0-.053.553v4.068a3.1,3.1,0,0,0,.048.558.747.747,0,0,0,.207.414A.68.68,0,0,0,226.721,94.014Z" transform="translate(-141.101 -86.451)" fill="#1e2b6f"/>
              <path id="Trazado_225448" data-name="Trazado 225448" d="M234.263,95.227v-8.6h2.231a4.968,4.968,0,0,1,1.492.2,1.743,1.743,0,0,1,.956.7,2.463,2.463,0,0,1,.334,1.381,4.436,4.436,0,0,1-.09.94,1.831,1.831,0,0,1-.319.711,1.573,1.573,0,0,1-.643.484l1.19,4.2h-1.8l-.987-3.9h-.616v3.9Zm1.753-4.94h.509a1.372,1.372,0,0,0,.67-.138.757.757,0,0,0,.345-.42,2.083,2.083,0,0,0,.1-.7,1.587,1.587,0,0,0-.218-.908.926.926,0,0,0-.813-.313h-.595Z" transform="translate(-144.924 -86.516)" fill="#1e2b6f"/>
              <path id="Trazado_225449" data-name="Trazado 225449" d="M244.2,95.227v-8.6h2.1A4.166,4.166,0,0,1,248,86.9a1.661,1.661,0,0,1,.866.881,3.957,3.957,0,0,1,.255,1.535v3.134a4.147,4.147,0,0,1-.255,1.572,1.706,1.706,0,0,1-.855.908,3.9,3.9,0,0,1-1.674.292ZM245.949,94h.372a1.192,1.192,0,0,0,.7-.154.691.691,0,0,0,.26-.457,4.449,4.449,0,0,0,.053-.749V89.1a3.012,3.012,0,0,0-.069-.718.626.626,0,0,0-.276-.4,1.344,1.344,0,0,0-.675-.128h-.361Z" transform="translate(-148.696 -86.516)" fill="#1e2b6f"/>
            </g>
            <g id="Grupo_213850" data-name="Grupo 213850" transform="translate(21.217 105.298)">
              <path id="Trazado_225450" data-name="Trazado 225450" d="M126.181,262.323a1.912,1.912,0,0,1-1.048-.25,1.321,1.321,0,0,1-.541-.7,3.15,3.15,0,0,1-.154-1.033V258.2a3.257,3.257,0,0,1,.154-1.063,1.284,1.284,0,0,1,.541-.687,1.953,1.953,0,0,1,1.048-.243,1.985,1.985,0,0,1,1,.214,1.17,1.17,0,0,1,.515.6,2.5,2.5,0,0,1,.151.9v.5h-1.177v-.559a3.144,3.144,0,0,0-.022-.386.537.537,0,0,0-.122-.295.435.435,0,0,0-.342-.114.466.466,0,0,0-.353.117.563.563,0,0,0-.14.306,2.651,2.651,0,0,0-.03.415v2.707a2.068,2.068,0,0,0,.041.437.506.506,0,0,0,.154.287.484.484,0,0,0,.327.1.427.427,0,0,0,.335-.114.574.574,0,0,0,.125-.305,3,3,0,0,0,.026-.4v-.581h1.177v.492a2.671,2.671,0,0,1-.147.923,1.242,1.242,0,0,1-.507.633A1.875,1.875,0,0,1,126.181,262.323Z" transform="translate(-124.438 -256.211)" fill="#e8e8e8"/>
              <path id="Trazado_225451" data-name="Trazado 225451" d="M131.161,262.287V256.33h1.213v2.449h1.052V256.33h1.213v5.957h-1.213v-2.64h-1.052v2.64Z" transform="translate(-126.991 -256.256)" fill="#e8e8e8"/>
              <path id="Trazado_225452" data-name="Trazado 225452" d="M137.777,262.287l1.155-5.957h1.345l1.148,5.957H140.3l-.213-1.309h-.941l-.228,1.309Zm1.478-2.052h.714l-.361-2.4Z" transform="translate(-129.503 -256.256)" fill="#e8e8e8"/>
              <path id="Trazado_225453" data-name="Trazado 225453" d="M144.559,262.287V256.33h.846l1.324,3.1v-3.1h1v5.957h-.809l-1.324-3.295v3.295Z" transform="translate(-132.078 -256.256)" fill="#e8e8e8"/>
              <path id="Trazado_225454" data-name="Trazado 225454" d="M152.6,262.33a1.606,1.606,0,0,1-.956-.254,1.375,1.375,0,0,1-.5-.721,3.534,3.534,0,0,1-.151-1.085v-1.993a3.5,3.5,0,0,1,.154-1.1,1.318,1.318,0,0,1,.541-.713,1.909,1.909,0,0,1,1.048-.251,2.028,2.028,0,0,1,1.011.214,1.216,1.216,0,0,1,.533.6,2.407,2.407,0,0,1,.162.927v.346H153.25v-.419a2.653,2.653,0,0,0-.029-.416.493.493,0,0,0-.136-.283.48.48,0,0,0-.342-.1.449.449,0,0,0-.353.125.609.609,0,0,0-.14.32,2.752,2.752,0,0,0-.03.416v2.64a2.054,2.054,0,0,0,.045.449.573.573,0,0,0,.165.309.5.5,0,0,0,.35.11.5.5,0,0,0,.353-.118.623.623,0,0,0,.172-.32,2.014,2.014,0,0,0,.048-.46v-.633h-.582v-.735h1.677v3.059h-.794l-.074-.537a1.1,1.1,0,0,1-.353.449A1.033,1.033,0,0,1,152.6,262.33Z" transform="translate(-134.518 -256.211)" fill="#e8e8e8"/>
              <path id="Trazado_225455" data-name="Trazado 225455" d="M157.909,262.287V256.33h2.6v.839h-1.383v1.581h1.066v.846h-1.066v1.868h1.4v.824Z" transform="translate(-137.148 -256.256)" fill="#e8e8e8"/>
              <path id="Trazado_225456" data-name="Trazado 225456" d="M166.067,262.287V256.33h1.89a1.689,1.689,0,0,1,.875.2,1.231,1.231,0,0,1,.5.585,2.338,2.338,0,0,1,.166.927,1.94,1.94,0,0,1-.217,1,1.2,1.2,0,0,1-.592.511,2.28,2.28,0,0,1-.86.151h-.551v2.582Zm1.214-3.434h.426a.82.82,0,0,0,.409-.084.434.434,0,0,0,.195-.269,1.792,1.792,0,0,0,.051-.471,2.139,2.139,0,0,0-.041-.456.465.465,0,0,0-.18-.287.749.749,0,0,0-.441-.1h-.419Z" transform="translate(-140.245 -256.256)" fill="#e8e8e8"/>
              <path id="Trazado_225457" data-name="Trazado 225457" d="M171.6,262.287l1.154-5.957h1.346l1.147,5.957h-1.125l-.213-1.309h-.942l-.228,1.309Zm1.478-2.052h.713l-.36-2.4Z" transform="translate(-142.348 -256.256)" fill="#e8e8e8"/>
              <path id="Trazado_225458" data-name="Trazado 225458" d="M179.841,262.323a1.884,1.884,0,0,1-.919-.2,1.283,1.283,0,0,1-.555-.61,2.8,2.8,0,0,1-.217-1.041l1.045-.176a3.02,3.02,0,0,0,.077.614.747.747,0,0,0,.191.368.451.451,0,0,0,.321.121.336.336,0,0,0,.319-.146.668.668,0,0,0,.084-.339,1.058,1.058,0,0,0-.18-.629,3.038,3.038,0,0,0-.475-.511l-.618-.537a2.493,2.493,0,0,1-.54-.633,1.674,1.674,0,0,1-.21-.868,1.452,1.452,0,0,1,.43-1.129,1.681,1.681,0,0,1,1.18-.394,1.618,1.618,0,0,1,.736.147,1.135,1.135,0,0,1,.445.394,1.608,1.608,0,0,1,.22.537,3.645,3.645,0,0,1,.078.577l-1.037.154a4.754,4.754,0,0,0-.048-.478.658.658,0,0,0-.133-.324.367.367,0,0,0-.3-.118.352.352,0,0,0-.316.158.631.631,0,0,0-.1.349.876.876,0,0,0,.143.519,2.566,2.566,0,0,0,.394.423l.6.53a3.432,3.432,0,0,1,.643.739,1.851,1.851,0,0,1,.269,1.026,1.518,1.518,0,0,1-.192.758,1.366,1.366,0,0,1-.533.529A1.623,1.623,0,0,1,179.841,262.323Z" transform="translate(-144.833 -256.211)" fill="#e8e8e8"/>
              <path id="Trazado_225459" data-name="Trazado 225459" d="M185.674,262.323a1.888,1.888,0,0,1-.92-.2,1.286,1.286,0,0,1-.555-.61,2.816,2.816,0,0,1-.216-1.041l1.044-.176a3.06,3.06,0,0,0,.078.614.748.748,0,0,0,.191.368.449.449,0,0,0,.32.121.337.337,0,0,0,.32-.146.668.668,0,0,0,.084-.339,1.058,1.058,0,0,0-.18-.629,2.987,2.987,0,0,0-.475-.511l-.617-.537a2.5,2.5,0,0,1-.541-.633,1.674,1.674,0,0,1-.209-.868,1.452,1.452,0,0,1,.43-1.129,1.683,1.683,0,0,1,1.18-.394,1.62,1.62,0,0,1,.736.147,1.129,1.129,0,0,1,.445.394,1.623,1.623,0,0,1,.221.537,3.643,3.643,0,0,1,.077.577l-1.037.154a4.41,4.41,0,0,0-.048-.478.652.652,0,0,0-.132-.324.369.369,0,0,0-.3-.118.352.352,0,0,0-.316.158.626.626,0,0,0-.1.349.876.876,0,0,0,.143.519,2.56,2.56,0,0,0,.393.423l.6.53a3.431,3.431,0,0,1,.643.739,1.851,1.851,0,0,1,.269,1.026,1.517,1.517,0,0,1-.191.758,1.367,1.367,0,0,1-.533.529A1.621,1.621,0,0,1,185.674,262.323Z" transform="translate(-147.049 -256.211)" fill="#e8e8e8"/>
              <path id="Trazado_225460" data-name="Trazado 225460" d="M190.6,262.287l-.772-5.957h1.03l.412,3.64.522-3.633h.816l.545,3.625.412-3.633h1.015l-.765,5.957h-1.03l-.581-3.773-.551,3.773Z" transform="translate(-149.268 -256.256)" fill="#e8e8e8"/>
              <path id="Trazado_225461" data-name="Trazado 225461" d="M200.127,262.323a1.969,1.969,0,0,1-1.037-.236,1.308,1.308,0,0,1-.548-.673,2.962,2.962,0,0,1-.166-1.048v-2.221a2.934,2.934,0,0,1,.166-1.045,1.275,1.275,0,0,1,.548-.662,2.477,2.477,0,0,1,2.085,0,1.29,1.29,0,0,1,.551.662,2.905,2.905,0,0,1,.166,1.041v2.221a2.961,2.961,0,0,1-.166,1.048,1.3,1.3,0,0,1-.551.673A2.008,2.008,0,0,1,200.127,262.323Zm0-.875a.486.486,0,0,0,.346-.107.537.537,0,0,0,.146-.287,1.9,1.9,0,0,0,.037-.386v-2.817a1.854,1.854,0,0,0-.037-.383.534.534,0,0,0-.146-.283.486.486,0,0,0-.346-.106.459.459,0,0,0-.331.106.531.531,0,0,0-.147.283,1.812,1.812,0,0,0-.037.383v2.817a2.165,2.165,0,0,0,.033.386.517.517,0,0,0,.144.287A.471.471,0,0,0,200.127,261.448Z" transform="translate(-152.514 -256.211)" fill="#e8e8e8"/>
              <path id="Trazado_225462" data-name="Trazado 225462" d="M205.348,262.287V256.33h1.545a3.459,3.459,0,0,1,1.033.136,1.213,1.213,0,0,1,.662.482,1.7,1.7,0,0,1,.231.956,3,3,0,0,1-.063.651,1.252,1.252,0,0,1-.22.492,1.093,1.093,0,0,1-.445.335l.824,2.9h-1.244l-.684-2.7h-.427v2.7Zm1.214-3.42h.353a.952.952,0,0,0,.463-.1.529.529,0,0,0,.239-.291,1.454,1.454,0,0,0,.069-.481,1.1,1.1,0,0,0-.151-.629.64.64,0,0,0-.563-.217h-.412Z" transform="translate(-155.161 -256.256)" fill="#e8e8e8"/>
              <path id="Trazado_225463" data-name="Trazado 225463" d="M212.226,262.287V256.33h1.456a2.892,2.892,0,0,1,1.18.195,1.151,1.151,0,0,1,.6.611,2.733,2.733,0,0,1,.177,1.063v2.17a2.865,2.865,0,0,1-.177,1.088,1.178,1.178,0,0,1-.592.629,2.7,2.7,0,0,1-1.158.2Zm1.213-.846h.257a.831.831,0,0,0,.482-.106.478.478,0,0,0,.18-.316,3.033,3.033,0,0,0,.037-.519v-2.456a2.052,2.052,0,0,0-.048-.5.428.428,0,0,0-.191-.276.927.927,0,0,0-.466-.088h-.251Z" transform="translate(-157.773 -256.256)" fill="#e8e8e8"/>
            </g>
            <g id="Grupo_213851" data-name="Grupo 213851" transform="translate(24.534 59.116)">
              <path id="Trazado_225464" data-name="Trazado 225464" d="M131.234,187.237a1.444,1.444,0,0,1-.886-.239,1.233,1.233,0,0,1-.438-.644,3.1,3.1,0,0,1-.123-.9v-1.9a3.274,3.274,0,0,1,.123-.948,1.145,1.145,0,0,1,.438-.627,1.521,1.521,0,0,1,.886-.223,1.488,1.488,0,0,1,.8.186,1.037,1.037,0,0,1,.424.53,2.358,2.358,0,0,1,.13.83v.424h-.71v-.378a4.136,4.136,0,0,0-.03-.528.574.574,0,0,0-.163-.355.635.635,0,0,0-.445-.127.566.566,0,0,0-.653.522,3.389,3.389,0,0,0-.043.581v2.13a2.465,2.465,0,0,0,.066.64.56.56,0,0,0,.219.335.744.744,0,0,0,.411.1.592.592,0,0,0,.438-.136.646.646,0,0,0,.166-.375,4.176,4.176,0,0,0,.033-.558v-.4h.71v.4a2.839,2.839,0,0,1-.12.866,1.107,1.107,0,0,1-.411.584A1.4,1.4,0,0,1,131.234,187.237Z" transform="translate(-129.787 -181.756)" fill="#1e2b6f"/>
              <path id="Trazado_225465" data-name="Trazado 225465" d="M136.77,187.237a1.573,1.573,0,0,1-.87-.212,1.167,1.167,0,0,1-.464-.607,2.778,2.778,0,0,1-.14-.926v-2.037a2.6,2.6,0,0,1,.143-.912,1.141,1.141,0,0,1,.465-.584,1.616,1.616,0,0,1,.866-.2,1.576,1.576,0,0,1,.863.206,1.161,1.161,0,0,1,.461.584,2.572,2.572,0,0,1,.143.909V185.5a2.66,2.66,0,0,1-.143.916,1.21,1.21,0,0,1-.461.607A1.517,1.517,0,0,1,136.77,187.237Zm0-.591a.707.707,0,0,0,.451-.123.607.607,0,0,0,.206-.345,2.269,2.269,0,0,0,.053-.522V183.3a2.176,2.176,0,0,0-.053-.514.573.573,0,0,0-.206-.332.736.736,0,0,0-.451-.117.752.752,0,0,0-.455.117.564.564,0,0,0-.209.332,2.177,2.177,0,0,0-.053.514v2.355a2.271,2.271,0,0,0,.053.522.6.6,0,0,0,.209.345A.722.722,0,0,0,136.77,186.647Z" transform="translate(-131.879 -181.756)" fill="#1e2b6f"/>
              <path id="Trazado_225466" data-name="Trazado 225466" d="M141.224,187.206v-5.375h.511l1.526,3.57v-3.57h.624v5.375h-.478l-1.546-3.67v3.67Z" transform="translate(-134.13 -181.784)" fill="#1e2b6f"/>
              <path id="Trazado_225467" data-name="Trazado 225467" d="M146.872,187.206v-5.375h2.077v.537h-1.327v1.792h1.028v.531h-1.028v2.515Z" transform="translate(-136.275 -181.784)" fill="#1e2b6f"/>
              <path id="Trazado_225468" data-name="Trazado 225468" d="M151.12,187.206v-5.375h.736v5.375Z" transform="translate(-137.888 -181.784)" fill="#1e2b6f"/>
              <path id="Trazado_225469" data-name="Trazado 225469" d="M153.708,187.206v-5.375h1.082a2.388,2.388,0,0,1,.889.143.992.992,0,0,1,.521.458,1.745,1.745,0,0,1,.169.826,2.27,2.27,0,0,1-.066.568,1.1,1.1,0,0,1-.212.431.83.83,0,0,1-.385.256l.763,2.694h-.723l-.7-2.522h-.584v2.522Zm.75-3.059h.285a1.4,1.4,0,0,0,.517-.08.532.532,0,0,0,.292-.272,1.261,1.261,0,0,0,.093-.538,1.069,1.069,0,0,0-.172-.68.866.866,0,0,0-.684-.21h-.332Z" transform="translate(-138.87 -181.784)" fill="#1e2b6f"/>
              <path id="Trazado_225470" data-name="Trazado 225470" d="M159.239,187.206l.1-5.375h.737l.949,4.36.956-4.36h.729l.1,5.375h-.6l-.06-3.9-.909,3.9h-.425l-.9-3.9-.06,3.9Z" transform="translate(-140.971 -181.784)" fill="#1e2b6f"/>
              <path id="Trazado_225471" data-name="Trazado 225471" d="M168.771,187.206v-5.375h1.334a1.476,1.476,0,0,1,.773.176,1.015,1.015,0,0,1,.421.507,2.158,2.158,0,0,1,.133.8,1.7,1.7,0,0,1-.149.736,1.082,1.082,0,0,1-.442.481,1.443,1.443,0,0,1-.73.169h-.59v2.5Zm.75-3.039h.345a1.428,1.428,0,0,0,.511-.073.465.465,0,0,0,.266-.256,1.33,1.33,0,0,0,.079-.514,2.383,2.383,0,0,0-.056-.59.412.412,0,0,0-.236-.285,1.449,1.449,0,0,0-.557-.08h-.352Z" transform="translate(-144.59 -181.784)" fill="#1e2b6f"/>
              <path id="Trazado_225472" data-name="Trazado 225472" d="M173.03,187.206l1.141-5.375h.724l1.148,5.375h-.71l-.246-1.354h-1.095l-.259,1.354Zm1.061-1.891h.9l-.452-2.423Z" transform="translate(-146.207 -181.784)" fill="#1e2b6f"/>
              <path id="Trazado_225473" data-name="Trazado 225473" d="M179.933,187.237a1.4,1.4,0,0,1-.773-.2,1.254,1.254,0,0,1-.468-.551,2.293,2.293,0,0,1-.186-.816l.664-.179a3,3,0,0,0,.09.551.99.99,0,0,0,.229.435.581.581,0,0,0,.445.169.571.571,0,0,0,.441-.163.667.667,0,0,0,.149-.468.958.958,0,0,0-.166-.588,3.087,3.087,0,0,0-.418-.448l-.9-.8a1.521,1.521,0,0,1-.392-.508,1.634,1.634,0,0,1-.126-.68,1.213,1.213,0,0,1,.338-.916,1.278,1.278,0,0,1,.923-.325,1.728,1.728,0,0,1,.56.083.983.983,0,0,1,.405.255,1.267,1.267,0,0,1,.259.435,2.455,2.455,0,0,1,.129.614l-.637.172a2.634,2.634,0,0,0-.079-.488.727.727,0,0,0-.209-.358.615.615,0,0,0-.428-.136.6.6,0,0,0-.435.149.581.581,0,0,0-.156.441.875.875,0,0,0,.083.405,1.2,1.2,0,0,0,.269.325l.909.8a2.828,2.828,0,0,1,.538.634,1.6,1.6,0,0,1,.232.872,1.356,1.356,0,0,1-.166.687,1.12,1.12,0,0,1-.455.442A1.406,1.406,0,0,1,179.933,187.237Z" transform="translate(-148.287 -181.756)" fill="#1e2b6f"/>
              <path id="Trazado_225474" data-name="Trazado 225474" d="M184.994,187.237a1.4,1.4,0,0,1-.773-.2,1.252,1.252,0,0,1-.468-.551,2.279,2.279,0,0,1-.186-.816l.664-.179a2.95,2.95,0,0,0,.089.551.984.984,0,0,0,.23.435.579.579,0,0,0,.444.169.57.57,0,0,0,.441-.163.667.667,0,0,0,.149-.468.962.962,0,0,0-.166-.588,3.124,3.124,0,0,0-.418-.448l-.9-.8a1.53,1.53,0,0,1-.392-.508,1.635,1.635,0,0,1-.126-.68,1.211,1.211,0,0,1,.339-.916,1.277,1.277,0,0,1,.922-.325,1.735,1.735,0,0,1,.561.083.987.987,0,0,1,.405.255,1.275,1.275,0,0,1,.259.435,2.48,2.48,0,0,1,.13.614l-.638.172a2.634,2.634,0,0,0-.079-.488.723.723,0,0,0-.209-.358.614.614,0,0,0-.428-.136.6.6,0,0,0-.435.149.583.583,0,0,0-.156.441.867.867,0,0,0,.083.405,1.189,1.189,0,0,0,.269.325l.909.8a2.826,2.826,0,0,1,.537.634,1.6,1.6,0,0,1,.232.872,1.356,1.356,0,0,1-.166.687,1.12,1.12,0,0,1-.455.442A1.4,1.4,0,0,1,184.994,187.237Z" transform="translate(-150.208 -181.756)" fill="#1e2b6f"/>
              <path id="Trazado_225475" data-name="Trazado 225475" d="M189.471,187.206l-.876-5.375h.624l.577,3.862.724-3.843h.53l.73,3.862.564-3.882h.61l-.863,5.375h-.544l-.75-3.982-.757,3.982Z" transform="translate(-152.118 -181.784)" fill="#1e2b6f"/>
              <path id="Trazado_225476" data-name="Trazado 225476" d="M197.909,187.237a1.571,1.571,0,0,1-.869-.212,1.165,1.165,0,0,1-.465-.607,2.778,2.778,0,0,1-.14-.926v-2.037a2.6,2.6,0,0,1,.143-.912,1.137,1.137,0,0,1,.464-.584,1.618,1.618,0,0,1,.866-.2,1.576,1.576,0,0,1,.863.206,1.159,1.159,0,0,1,.461.584,2.587,2.587,0,0,1,.143.909V185.5a2.675,2.675,0,0,1-.143.916,1.207,1.207,0,0,1-.461.607A1.517,1.517,0,0,1,197.909,187.237Zm0-.591a.709.709,0,0,0,.452-.123.607.607,0,0,0,.206-.345,2.307,2.307,0,0,0,.053-.522V183.3a2.212,2.212,0,0,0-.053-.514.573.573,0,0,0-.206-.332.738.738,0,0,0-.452-.117.751.751,0,0,0-.454.117.564.564,0,0,0-.209.332,2.175,2.175,0,0,0-.053.514v2.355a2.268,2.268,0,0,0,.053.522.6.6,0,0,0,.209.345A.721.721,0,0,0,197.909,186.647Z" transform="translate(-155.095 -181.756)" fill="#1e2b6f"/>
              <path id="Trazado_225477" data-name="Trazado 225477" d="M202.364,187.206v-5.375h1.082a2.388,2.388,0,0,1,.889.143.994.994,0,0,1,.521.458,1.745,1.745,0,0,1,.169.826,2.27,2.27,0,0,1-.066.568,1.1,1.1,0,0,1-.213.431.825.825,0,0,1-.385.256l.763,2.694H204.4l-.7-2.522h-.584v2.522Zm.749-3.059h.286a1.406,1.406,0,0,0,.517-.08.534.534,0,0,0,.292-.272,1.262,1.262,0,0,0,.092-.538,1.069,1.069,0,0,0-.172-.68.866.866,0,0,0-.684-.21h-.332Z" transform="translate(-157.346 -181.784)" fill="#1e2b6f"/>
              <path id="Trazado_225478" data-name="Trazado 225478" d="M207.916,187.206v-5.375h1.167a2.055,2.055,0,0,1,.946.182,1.045,1.045,0,0,1,.5.548,2.4,2.4,0,0,1,.15.909v1.977a2.706,2.706,0,0,1-.15.962,1.147,1.147,0,0,1-.484.594,1.732,1.732,0,0,1-.9.2Zm.749-.538h.426a.855.855,0,0,0,.584-.159.728.728,0,0,0,.209-.464,6.389,6.389,0,0,0,.036-.737v-1.745a3.5,3.5,0,0,0-.053-.677.568.568,0,0,0-.233-.378,1.039,1.039,0,0,0-.564-.119h-.405Z" transform="translate(-159.454 -181.784)" fill="#1e2b6f"/>
            </g>
          </g>
          <g id="Grupo_213869" data-name="Grupo 213869" transform="translate(46.657 185.247)">
            <g id="Grupo_213854" data-name="Grupo 213854" transform="translate(0 52.163)">
              <g id="Grupo_213853" data-name="Grupo 213853">
                <path id="Trazado_225479" data-name="Trazado 225479" d="M82.881,366.345l-4.8,25.021-7.689,22.877-1.9,3.575s-2.123,3.127-2.346,5.473a2.7,2.7,0,0,0,3.686,2.9c1.675-.782,2.569-4.021,2.9-5.473s1.005-4.021,1.229-4.915a5.566,5.566,0,0,1,.67-1.564s13.274-22.1,13.274-22.765S94.163,374.5,94.163,374.5l1.229.112,3.686,18.208L88.8,414.154s-3.239,3.8-3.016,4.245a15.131,15.131,0,0,0,2.681,2.681c.67.447,3.127,4.356,4.914,4.8s2.458.893,2.123-.559a44.245,44.245,0,0,0-1.564-4.356c-.223-.67-.666-5.341-.666-5.341l15.411-20.35-2.011-25.133Z" transform="translate(-66.129 -366.345)" fill="#fff" stroke="#263238" stroke-linecap="round" stroke-linejoin="round" stroke-width="1"/>
                <path id="Trazado_225480" data-name="Trazado 225480" d="M101.871,452.263a45.86,45.86,0,0,1-3.61-3.544c-.313.469-.509.838-.448.958a15.154,15.154,0,0,0,2.681,2.681c.67.447,3.127,4.356,4.914,4.8,1.194.3,1.887.594,2.117.326C103.9,456.536,102.834,452.985,101.871,452.263Z" transform="translate(-78.156 -397.624)" fill="#fff" stroke="#263238" stroke-linecap="round" stroke-linejoin="round" stroke-width="1"/>
                <path id="Trazado_225481" data-name="Trazado 225481" d="M71.911,456.442c-1.167,1.172-2.533,2.057-3.982,1.623-1.706-.512-1.3-3.078-.842-4.718a9.594,9.594,0,0,0-.943,2.981,2.7,2.7,0,0,0,3.686,2.9A5.121,5.121,0,0,0,71.911,456.442Z" transform="translate(-66.129 -399.382)" fill="#fff" stroke="#263238" stroke-linecap="round" stroke-linejoin="round" stroke-width="1"/>
              </g>
              <path id="Trazado_225482" data-name="Trazado 225482" d="M85.489,366.345l-4.8,25.021L73,414.243s.687,2.453,3.715,1.106a5.609,5.609,0,0,1,.529-1.106s13.274-22.1,13.274-22.765S96.771,374.5,96.771,374.5l1.229.112,3.686,18.208L91.409,414.154a3.911,3.911,0,0,0,4.513,1.419l15.37-20.3-2.011-25.133Z" transform="translate(-68.737 -366.345)" fill="#1e2b6f"/>
            </g>
            <path id="Trazado_225483" data-name="Trazado 225483" d="M114.032,310.1l-2.787.514L98.483,347.731s2.42,4.254,10.269,4.181,10.122-1.321,10.122-1.321l-.22-22.444,3.221-14.853S116.893,310.251,114.032,310.1Z" transform="translate(-78.415 -292.826)" fill="#fff" stroke="#263238" stroke-miterlimit="10" stroke-width="1"/>
            <g id="Grupo_213855" data-name="Grupo 213855" transform="translate(33.135 1.006)">
              <path id="Trazado_225484" data-name="Trazado 225484" d="M136.408,292.268a32.254,32.254,0,0,1-.176,3.879c-.176.47-1.058,1.117-1.058,1.528s1,2.057.823,2.469-1.94.881-1.94.881-1.469,2.88-2.175,3.174-3.467-1.116-3.467-1.116l-1.587,4.878s-.705,1.352-3.35.94-3.585-1.41-3.7-2.057-.411-.823-.059-1.528.881-2.233.881-2.233l3.35-7.053.529-3.232s1.175-2.293,5.525-2.763A7.125,7.125,0,0,1,136.408,292.268Z" transform="translate(-119.549 -286.191)" fill="#fff" stroke="#263238" stroke-miterlimit="10" stroke-width="1"/>
              <path id="Trazado_225485" data-name="Trazado 225485" d="M139.433,305.8a1.807,1.807,0,0,0,1.469,1.411" transform="translate(-127.099 -292.197)" fill="none" stroke="#263238" stroke-linecap="round" stroke-linejoin="round" stroke-width="1"/>
              <path id="Trazado_225486" data-name="Trazado 225486" d="M143.47,299.018a1.828,1.828,0,0,0-1.763-.646" transform="translate(-127.963 -289.356)" fill="none" stroke="#263238" stroke-linecap="round" stroke-linejoin="round" stroke-width="1"/>
              <path id="Trazado_225487" data-name="Trazado 225487" d="M142.648,301.321c-.063.3-.281.512-.488.469s-.323-.323-.261-.624.281-.512.488-.469S142.71,301.018,142.648,301.321Z" transform="translate(-128.029 -290.258)" fill="#1e2b6f"/>
              <path id="Trazado_225488" data-name="Trazado 225488" d="M132.8,310.168l-1.7-1.528,1.234,3.174Z" transform="translate(-123.933 -293.277)" fill="#1e2b6f"/>
              <path id="Trazado_225489" data-name="Trazado 225489" d="M129.117,292.77a25.163,25.163,0,0,0,3.056-1.234c.646-.411-.235-1.763.294-2.233s2.821-.705,4.055-.294,1.293,1.352,2.469,1.175,2.645-1.116,2-2.762a5.668,5.668,0,0,0-4.173-3.233c-1.587-.176-3.232.235-5.289,0s-4.173-1-5.29,1.234-2.057,4.643-1.646,5.819.587,2.644,1.058,2.88S129.117,292.77,129.117,292.77Z" transform="translate(-121.426 -283.871)" fill="#1e2b6f"/>
              <path id="Trazado_225490" data-name="Trazado 225490" d="M130.953,298.1s-.235-2.821-1.469-2.293-1.117,3.233-.353,3.762a1.067,1.067,0,0,0,1.411-.294" transform="translate(-122.969 -288.379)" fill="#fff" stroke="#263238" stroke-miterlimit="10" stroke-width="1"/>
            </g>
            <path id="Trazado_225491" data-name="Trazado 225491" d="M101.259,315.857,89.5,354s-3.056-2.41-4.761-4.055-2.116-2.116-2.116-2.116l4.232-9.345.764-3-12.4,8.228-2.116-4.173,10.521-9.4s6.465-17.926,6.876-18.161,12.166-1.822,12.166-1.822Z" transform="translate(-68.778 -292.846)" fill="#b2b2b2" stroke="#263238" stroke-miterlimit="10" stroke-width="1"/>
            <path id="Trazado_225492" data-name="Trazado 225492" d="M118.852,308.468s-1.763-.47-2.645.412-4.114,5.524-3.291,5.994,3.056-.764,3.056-.764l.353,1.058Z" transform="translate(-83.845 -292.157)" fill="#fff" stroke="#263238" stroke-miterlimit="10" stroke-width="1"/>
            <g id="Grupo_213857" data-name="Grupo 213857" transform="translate(18.845 21.866)">
              <g id="Grupo_213856" data-name="Grupo 213856" transform="translate(0 3.203)">
                <line id="Línea_525" data-name="Línea 525" x1="3.82" y2="17.573" fill="none" stroke="#263238" stroke-linecap="round" stroke-linejoin="round" stroke-width="1"/>
                <path id="Trazado_225493" data-name="Trazado 225493" d="M108.958,329.907l-5.936-.705-.353,1.94,5.995,1.058.294-1.058" transform="translate(-98.849 -325.146)" fill="none" stroke="#263238" stroke-linecap="round" stroke-linejoin="round" stroke-width="1"/>
              </g>
              <path id="Trazado_225494" data-name="Trazado 225494" d="M101.384,322.877s-.628-3.492-.769-5.377" transform="translate(-98.069 -317.5)" fill="none" stroke="#263238" stroke-linecap="round" stroke-linejoin="round" stroke-width="1"/>
              <path id="Trazado_225495" data-name="Trazado 225495" d="M100.222,325.655s-1.048-1.746-1.746-2.863" transform="translate(-97.257 -319.509)" fill="none" stroke="#263238" stroke-linecap="round" stroke-linejoin="round" stroke-width="1"/>
            </g>
            <g id="Grupo_213859" data-name="Grupo 213859" transform="translate(37.592 18.583)">
              <path id="Trazado_225496" data-name="Trazado 225496" d="M129.556,316.4s-2.89,12.149-2.821,15.851,1.048,23.326,1.048,23.326,3.771-.7,4.4-.908,3.073-.978,3.073-.978S131,339.864,131,339.375s.769-3.771.769-3.771,2.514,5.657,2.863,6.076,9.968,4.756,9.968,4.756l.856-5.1-6.076-5.587s-1.327-10.545-1.327-11.383.349-6.146.349-6.146l-7.613-6.006Z" transform="translate(-126.734 -312.208)" fill="#b2b2b2" stroke="#263238" stroke-miterlimit="10" stroke-width="1"/>
              <path id="Trazado_225497" data-name="Trazado 225497" d="M163.394,363.445s-3.047.664-3.828.742a9.008,9.008,0,0,1-2.93-.313c-.664-.234-1.953-.742-1.953-.742a2.105,2.105,0,0,1-.078-1.211c.2-.43,1.25-.391,1.25-.391l6.6.664Z" transform="translate(-137.29 -330.936)" fill="#fff" stroke="#263238" stroke-miterlimit="10" stroke-width="1"/>
              <g id="Grupo_213858" data-name="Grupo 213858" transform="translate(2.236 10.965)">
                <line id="Línea_526" data-name="Línea 526" x1="3.422" y2="12.431" transform="translate(2.793)" fill="none" stroke="#263238" stroke-linecap="round" stroke-linejoin="round" stroke-width="1"/>
                <path id="Trazado_225498" data-name="Trazado 225498" d="M134.669,334.535l-4.12-1.047-.21,1.676,3.632.978" transform="translate(-130.339 -331.253)" fill="none" stroke="#263238" stroke-linecap="round" stroke-linejoin="round" stroke-width="1"/>
                <line id="Línea_527" data-name="Línea 527" y1="3.003" x2="2.095" transform="translate(4.889 2.305)" fill="none" stroke="#263238" stroke-linecap="round" stroke-linejoin="round" stroke-width="1"/>
              </g>
            </g>
            <path id="Trazado_225499" data-name="Trazado 225499" d="M130.789,317.934l.769-.768s1.746,2.025,2.1,1.4a6.9,6.9,0,0,0,.489-4.888c-.559-2.654-1.458-2.57-1.458-2.57l-1.587,4.878Z" transform="translate(-90.682 -293.206)" fill="#fff" stroke="#263238" stroke-miterlimit="10" stroke-width="1"/>
            <g id="Grupo_213860" data-name="Grupo 213860" transform="translate(63.318 52.902)">
              <path id="Trazado_225500" data-name="Trazado 225500" d="M184.168,367.537l-3.668,24.8-8.417,24.148a16.907,16.907,0,0,0-3.707,6.613c-.8,3.507,1.5,3.707,2.706,2.806s4.108-8.617,4.208-9.018,12.625-21.743,12.826-22.044,6.212-17.835,6.212-17.835l4.409,17.234,9.118,25.05s.6,4.308,2.1,6.012,3.707,2.906,4.108,1.4.1-4.108-1-5.311a43.74,43.74,0,0,1-2.806-3.707l-3.206-25.851-1.987-24.18Z" transform="translate(-168.209 -367.537)" fill="#fff" stroke="#263238" stroke-miterlimit="10" stroke-width="1"/>
              <path id="Trazado_225501" data-name="Trazado 225501" d="M210.5,391.836l-1.987-24.18-20.9-.119-3.668,24.8-6.651,19.08,3.863,1.2c3.677-6.35,10.258-17.556,10.4-17.773.2-.3,6.212-17.835,6.212-17.835l4.409,17.234,7.229,19.861,3.694-1.245Z" transform="translate(-171.661 -367.537)" fill="#1e2b6f"/>
              <path id="Trazado_225502" data-name="Trazado 225502" d="M171.08,458.12c.624-.468,1.707-2.772,2.618-4.936l-2.117,2.431-2.505-.7.434-2.534a12.161,12.161,0,0,0-1.136,2.935C167.573,458.822,169.878,459.022,171.08,458.12Z" transform="translate(-168.209 -399.754)" fill="#1e2b6f"/>
              <path id="Trazado_225503" data-name="Trazado 225503" d="M238.533,459.426c.4-1.5.1-4.108-1-5.311-.076-.083-.155-.173-.236-.267l.537,3.373-2,.7-3.183-4.215a10.91,10.91,0,0,0,1.78,4.315C235.928,459.727,238.133,460.929,238.533,459.426Z" transform="translate(-192.677 -400.258)" fill="#1e2b6f"/>
            </g>
            <path id="Trazado_225504" data-name="Trazado 225504" d="M193.937,367.108s4.306,7.611,10.282,7.954,10.615-7.835,10.615-7.835l-20.508-.82Z" transform="translate(-114.661 -314.206)" fill="#fff" stroke="#263238" stroke-miterlimit="10" stroke-width="1"/>
            <g id="Grupo_213861" data-name="Grupo 213861" transform="translate(74.108 24.049)">
              <path id="Trazado_225505" data-name="Trazado 225505" d="M197.541,321.02s-6.708,3.265-6.768,3.681-4.563,18.384-4.563,18.384-1.607,3.59.412,4.718,5.635-2.619,5.635-2.619l-1.484,4.69a31.141,31.141,0,0,0,11.273,2.731,18.968,18.968,0,0,0,9.625-2.612l-.712-4.928s4.169,2.806,5.653,2.153,2.6-1.974,2.6-2.865-.712-1.128-1.9-2.434-3.147-7.778-3.147-7.778-1.662-8.905-2.078-9.618-5.581-3.028-5.581-3.028Z" transform="translate(-185.604 -321.02)" fill="#b2b2b2" stroke="#263238" stroke-miterlimit="10" stroke-width="1"/>
              <path id="Trazado_225506" data-name="Trazado 225506" d="M197.434,332.629,198.6,336.2l-2.272,13.391" transform="translate(-189.677 -325.428)" fill="none" stroke="#263238" stroke-miterlimit="10" stroke-width="1"/>
              <path id="Trazado_225507" data-name="Trazado 225507" d="M225.957,333.625l-.824,2.816.836,13.409" transform="translate(-200.614 -325.807)" fill="none" stroke="#263238" stroke-miterlimit="10" stroke-width="1"/>
              <path id="Trazado_225508" data-name="Trazado 225508" d="M194.788,364.635s10.1,3.091,20.127.275" transform="translate(-189.091 -337.582)" fill="none" stroke="#263238" stroke-miterlimit="10" stroke-width="1"/>
            </g>
            <path id="Trazado_225509" data-name="Trazado 225509" d="M71.741,349.482a19.334,19.334,0,0,0-2.23.591c-.394.2-.459.984-.984,1.312s-1.312.786-.853,1.115,1.417.572,1.889-.075a3.223,3.223,0,0,1,1.851-1.117" transform="translate(-66.663 -307.779)" fill="#fff" stroke="#263238" stroke-miterlimit="10" stroke-width="1"/>
            <g id="Grupo_213862" data-name="Grupo 213862" transform="translate(3.679 23.482)">
              <path id="Trazado_225510" data-name="Trazado 225510" d="M180.084,363.01a2.3,2.3,0,0,1-1.11-.37,3.645,3.645,0,0,0-1.438-.534c-.37-.082-.247-.411.287-.617a3.36,3.36,0,0,1,2.014.083,2.453,2.453,0,0,1,.74.452Z" transform="translate(-112.031 -335.775)" fill="#fff" stroke="#263238" stroke-miterlimit="10" stroke-width="1"/>
              <rect id="Rectángulo_303461" data-name="Rectángulo 303461" width="113.075" height="5.223" transform="translate(43.838 20.858)" fill="#83cfdf"/>
              <path id="Trazado_225511" data-name="Trazado 225511" d="M95.529,320.106A23.469,23.469,0,1,0,119,343.575,23.469,23.469,0,0,0,95.529,320.106Zm0,40.8a17.328,17.328,0,1,1,17.328-17.328A17.328,17.328,0,0,1,95.529,360.9Z" transform="translate(-72.06 -320.106)" fill="#83cfdf"/>
              <path id="Trazado_225512" data-name="Trazado 225512" d="M292.257,353.732v24.494h4.816c0-.045-.007-.089-.007-.135a5.687,5.687,0,1,1,11.375,0c0,.045-.006.089-.007.135h4.153V353.732Z" transform="translate(-155.674 -332.875)" fill="#83cfdf"/>
              <path id="Trazado_225513" data-name="Trazado 225513" d="M249.647,353.732v14.057h2.765c0-.026,0-.051,0-.077a3.264,3.264,0,1,1,6.528,0c0,.026,0,.051,0,.077h2.383V353.732Z" transform="translate(-139.494 -332.875)" fill="#83cfdf"/>
            </g>
            <g id="Grupo_213864" data-name="Grupo 213864" transform="translate(82.945)">
              <path id="Trazado_225514" data-name="Trazado 225514" d="M212.8,287.81s1.631-1.334.889-2.668-4-3.31-5.336-2.816-3.952,3.26-4.15,4.3,1.878,2.471,2.273,2.52S210.229,287.217,212.8,287.81Z" transform="translate(-201.498 -282.249)" fill="#1e2b6f"/>
              <path id="Trazado_225515" data-name="Trazado 225515" d="M207.94,290.357s-5.336,1.482-6.818,4.348-1.58,3.508-.741,4.891a15.062,15.062,0,0,0,4.841,4.842c1.927.988,8.053-.445,8.053-.445a5.258,5.258,0,0,0,2.471-2.322c.593-1.482,1.927-3.557,1.038-5.78s-4.842-5.287-6.077-5.632A5.926,5.926,0,0,0,207.94,290.357Z" transform="translate(-199.852 -285.24)" fill="#1e2b6f"/>
              <g id="Grupo_213863" data-name="Grupo 213863" transform="translate(3.096 8.866)">
                <path id="Trazado_225516" data-name="Trazado 225516" d="M214.181,296.542s-2.661,1.638-4.026,2.593a13.357,13.357,0,0,1-3,1.5,1.774,1.774,0,0,0-.955,1.979c.273,1.433.79,6.383.79,6.383l-.927,2.01,3.958,4.367,3.139-4.094.341-2.115s2.866-1.775,2.934-2.184.887-6.414.819-7.028S214.181,296.542,214.181,296.542Z" transform="translate(-205.305 -296.542)" fill="#fff" stroke="#263238" stroke-miterlimit="10" stroke-width="1"/>
                <path id="Trazado_225517" data-name="Trazado 225517" d="M219.447,303.322s-.148,1.334-.148,1.531,1.186,1.235.741,1.63a4.144,4.144,0,0,1-1.334.643" transform="translate(-210.107 -299.117)" fill="none" stroke="#263238" stroke-linecap="round" stroke-linejoin="round" stroke-width="1"/>
                <path id="Trazado_225518" data-name="Trazado 225518" d="M217.977,311.083s-.494.543-1.581-.593" transform="translate(-209.23 -301.838)" fill="none" stroke="#263238" stroke-linecap="round" stroke-linejoin="round" stroke-width="1"/>
                <path id="Trazado_225519" data-name="Trazado 225519" d="M216.032,315.853a4.833,4.833,0,0,1-1.571-.414c-.445-.3-1.729-1.285-1.729-1.285l2.52,4.348.439-.533Z" transform="translate(-207.838 -303.23)" fill="#1e2b6f"/>
                <path id="Trazado_225520" data-name="Trazado 225520" d="M207.217,304.182s-.939-2.816-2.026-1.235.642,3.8,1.482,3.755" transform="translate(-204.843 -298.791)" fill="#fff" stroke="#263238" stroke-miterlimit="10" stroke-width="1"/>
                <ellipse id="Elipse_16451" data-name="Elipse 16451" cx="0.42" cy="0.593" rx="0.42" ry="0.593" transform="translate(6.474 4.65)" fill="#1e2b6f"/>
                <ellipse id="Elipse_16452" data-name="Elipse 16452" cx="0.42" cy="0.593" rx="0.42" ry="0.593" transform="translate(10.18 4.65)" fill="#1e2b6f"/>
                <path id="Trazado_225521" data-name="Trazado 225521" d="M214.166,302.641a1.719,1.719,0,0,1,2.075-.2" transform="translate(-208.383 -298.683)" fill="none" stroke="#263238" stroke-linecap="round" stroke-linejoin="round" stroke-width="1"/>
                <path id="Trazado_225522" data-name="Trazado 225522" d="M220.617,302.358s1.334-.543,1.631.494" transform="translate(-210.833 -298.696)" fill="none" stroke="#263238" stroke-linecap="round" stroke-linejoin="round" stroke-width="1"/>
              </g>
              <path id="Trazado_225523" data-name="Trazado 225523" d="M205.073,317.42l3.458,4.4-2.372,2.569-2.668-4.792Z" transform="translate(-201.234 -295.604)" fill="#fff" stroke="#263238" stroke-miterlimit="10" stroke-width="1"/>
              <path id="Trazado_225524" data-name="Trazado 225524" d="M211.193,324.509l.512,1.485-1.2-.6Z" transform="translate(-203.896 -298.296)" fill="#fff" stroke="#263238" stroke-miterlimit="10" stroke-width="1"/>
              <path id="Trazado_225525" data-name="Trazado 225525" d="M213.608,321.832l1.68,3.31,2.569-4.348-1.729-1.383Z" transform="translate(-205.075 -296.36)" fill="#fff" stroke="#263238" stroke-miterlimit="10" stroke-width="1"/>
              <path id="Trazado_225526" data-name="Trazado 225526" d="M213.165,323.314l-.723,2.226,1.217-1.189Z" transform="translate(-204.633 -297.842)" fill="#fff" stroke="#263238" stroke-miterlimit="10" stroke-width="1"/>
            </g>
            <g id="Grupo_213865" data-name="Grupo 213865" transform="translate(71.369 47.833)">
              <path id="Trazado_225527" data-name="Trazado 225527" d="M181.726,359.774s-.7,1.994-.5,2.268.877.631,1.064-.024a5.107,5.107,0,0,0,.127-2.524C182.167,359.084,181.726,359.774,181.726,359.774Z" transform="translate(-181.188 -359.364)" fill="#fff" stroke="#263238" stroke-miterlimit="10" stroke-width="1"/>
              <path id="Trazado_225528" data-name="Trazado 225528" d="M183.515,360.768s-.7,1.994-.5,2.268.878.63,1.065-.024a5.108,5.108,0,0,0,.127-2.524C183.956,360.078,183.515,360.768,183.515,360.768Z" transform="translate(-181.867 -359.741)" fill="#fff" stroke="#263238" stroke-miterlimit="10" stroke-width="1"/>
              <path id="Trazado_225529" data-name="Trazado 225529" d="M185.834,360.636s-.7,1.994-.5,2.268.877.63,1.064-.024a5.108,5.108,0,0,0,.127-2.524C186.275,359.945,185.834,360.636,185.834,360.636Z" transform="translate(-182.748 -359.691)" fill="#fff" stroke="#263238" stroke-miterlimit="10" stroke-width="1"/>
              <path id="Trazado_225530" data-name="Trazado 225530" d="M187.758,361.248a6.7,6.7,0,0,0-.382,1.924c.156.244.666.535.808-.02a4.822,4.822,0,0,0,.1-2.141C188.094,360.662,187.758,361.248,187.758,361.248Z" transform="translate(-183.528 -359.947)" fill="#fff" stroke="#263238" stroke-miterlimit="10" stroke-width="1"/>
            </g>
            <g id="Grupo_213866" data-name="Grupo 213866" transform="translate(1.602 45.004)">
              <path id="Trazado_225531" data-name="Trazado 225531" d="M71.457,355.007s-2.1-.4-2.29-.08c-.2.336-.287,1.284.388,1.361s2.1-.047,2.4-.466S71.457,355.007,71.457,355.007Z" transform="translate(-68.83 -354.803)" fill="#fff" stroke="#263238" stroke-miterlimit="10" stroke-width="1"/>
              <path id="Trazado_225532" data-name="Trazado 225532" d="M71.144,357.553s-2.1-.4-2.29-.08c-.2.336-.287,1.284.388,1.361s2.1-.047,2.4-.466S71.144,357.553,71.144,357.553Z" transform="translate(-68.711 -355.77)" fill="#fff" stroke="#263238" stroke-miterlimit="10" stroke-width="1"/>
              <path id="Trazado_225533" data-name="Trazado 225533" d="M72.064,360.5s-2.1-.4-2.29-.08c-.2.336-.287,1.285.388,1.361s2.1-.047,2.4-.466S72.064,360.5,72.064,360.5Z" transform="translate(-69.06 -356.888)" fill="#fff" stroke="#263238" stroke-miterlimit="10" stroke-width="1"/>
              <path id="Trazado_225534" data-name="Trazado 225534" d="M72.39,363.064s-1.761-.26-1.927-.011-.27.989.3,1.033a3.433,3.433,0,0,0,2.031-.41C73.052,363.349,72.39,363.064,72.39,363.064Z" transform="translate(-69.325 -357.895)" fill="#fff" stroke="#263238" stroke-miterlimit="10" stroke-width="1"/>
            </g>
            <g id="Grupo_213867" data-name="Grupo 213867" transform="translate(104.055 47.833)">
              <path id="Trazado_225535" data-name="Trazado 225535" d="M240.332,359.774s.7,1.994.5,2.268-.877.631-1.064-.024a5.108,5.108,0,0,1-.127-2.524C239.89,359.084,240.332,359.774,240.332,359.774Z" transform="translate(-236.027 -359.364)" fill="#fff" stroke="#263238" stroke-miterlimit="10" stroke-width="1"/>
              <path id="Trazado_225536" data-name="Trazado 225536" d="M238.543,360.768s.7,1.994.5,2.268-.877.63-1.064-.024a5.108,5.108,0,0,1-.127-2.524C238.1,360.078,238.543,360.768,238.543,360.768Z" transform="translate(-235.348 -359.741)" fill="#fff" stroke="#263238" stroke-miterlimit="10" stroke-width="1"/>
              <path id="Trazado_225537" data-name="Trazado 225537" d="M236.224,360.636s.7,1.994.5,2.268-.877.63-1.064-.024a5.108,5.108,0,0,1-.127-2.524C235.782,359.945,236.224,360.636,236.224,360.636Z" transform="translate(-234.467 -359.691)" fill="#fff" stroke="#263238" stroke-miterlimit="10" stroke-width="1"/>
              <path id="Trazado_225538" data-name="Trazado 225538" d="M234.5,361.248a6.7,6.7,0,0,1,.382,1.924c-.156.244-.666.535-.808-.02a4.822,4.822,0,0,1-.1-2.141C234.162,360.662,234.5,361.248,234.5,361.248Z" transform="translate(-233.885 -359.947)" fill="#fff" stroke="#263238" stroke-miterlimit="10" stroke-width="1"/>
            </g>
            <line id="Línea_528" data-name="Línea 528" x1="0.703" y1="3.203" transform="translate(54.75 49.607)" fill="none" stroke="#263238" stroke-miterlimit="10" stroke-width="1"/>
            <g id="Grupo_213868" data-name="Grupo 213868" transform="translate(59.627 46.146)">
              <path id="Trazado_225539" data-name="Trazado 225539" d="M163.036,362.083l3.994-.571L168.9,359.9s.674-2.127.778-2.386a.487.487,0,0,0-.622-.623c-.519.156-.674.934-.674.934s-.415-1.453-.831-1.141a1.176,1.176,0,0,0-.466.726s-.674-.83-.986-.571a2.076,2.076,0,0,0-.415,1.038s-.778-.623-1.038-.26,0,.986,0,.986l.311,1.245-.519.1-2.179.1" transform="translate(-162.258 -356.644)" fill="#fff" stroke="#263238" stroke-miterlimit="10" stroke-width="1"/>
              <path id="Trazado_225540" data-name="Trazado 225540" d="M170,357.886s.432,1.6.492,1.783a7.469,7.469,0,0,1-.544,2.315" transform="translate(-165.18 -357.116)" fill="none" stroke="#263238" stroke-miterlimit="10" stroke-width="1"/>
              <path id="Trazado_225541" data-name="Trazado 225541" d="M172.127,358.555a5.026,5.026,0,0,1,.246,2.179" transform="translate(-166.005 -357.37)" fill="none" stroke="#263238" stroke-miterlimit="10" stroke-width="1"/>
              <path id="Trazado_225542" data-name="Trazado 225542" d="M167.778,358.639l.69,1.376a8.667,8.667,0,0,1-.27,2.193" transform="translate(-164.354 -357.402)" fill="none" stroke="#263238" stroke-miterlimit="10" stroke-width="1"/>
              <line id="Línea_529" data-name="Línea 529" x2="0.035" y2="0.667" transform="translate(2.698 3.208)" fill="none" stroke="#263238" stroke-miterlimit="10" stroke-width="1"/>
            </g>
            <path id="Trazado_225543" data-name="Trazado 225543" d="M162.413,362.31a.936.936,0,0,0-.09,1.262" transform="translate(-102.578 -312.65)" fill="none" stroke="#263238" stroke-miterlimit="10" stroke-width="1"/>
          </g>
        </g>
      </g>
    </g>
  </g>
</svg>
