<svg xmlns="http://www.w3.org/2000/svg" xmlns:xlink="http://www.w3.org/1999/xlink" width="400" height="313" viewBox="0 0 400 313">
  <defs>
    <clipPath id="clip-path">
      <rect id="Rectángulo_303462" data-name="Rectángulo 303462" width="400" height="313" transform="translate(-3355 -10079)" fill="none" stroke="#707070" stroke-width="1"/>
    </clipPath>
  </defs>
  <g id="Grupo_215601" data-name="Grupo 215601" transform="translate(3355 11395)">
    <g id="Enmascarar_grupo_69" data-name="Enmascarar grupo 69" transform="translate(0 -1316)" clip-path="url(#clip-path)">
      <g id="Grupo_210683" data-name="Grupo 210683" transform="translate(-4210 -12328.77)">
        <g id="Grupo_210682" data-name="Grupo 210682" transform="translate(895 2249.77)">
          <g id="Grupo_210653" data-name="Grupo 210653" transform="translate(0 0)">
            <g id="Grupo_210652" data-name="Grupo 210652" transform="translate(0 0)">
              <g id="Grupo_210649" data-name="Grupo 210649" transform="translate(3.535)">
                <path id="Trazado_222249" data-name="Trazado 222249" d="M526.418,378.948a104.857,104.857,0,1,0-195.273-54.626,104.85,104.85,0,1,0,95.448,179.661,80.929,80.929,0,1,0,99.826-125.035Z" transform="translate(-251.512 -220.984)" fill="#bddcf6" fill-rule="evenodd"/>
              </g>
              <g id="Grupo_210650" data-name="Grupo 210650" transform="translate(0 45.677)">
                <circle id="Elipse_16235" data-name="Elipse 16235" cx="20.305" cy="20.305" r="20.305" transform="translate(0 28.715) rotate(-45)" fill="#bddcf6"/>
              </g>
              <g id="Grupo_210651" data-name="Grupo 210651" transform="translate(46.04 32.532)">
                <ellipse id="Elipse_16236" data-name="Elipse 16236" cx="10.093" cy="10.034" rx="10.093" ry="10.034" transform="translate(0 19.871) rotate(-79.857)" fill="#bddcf6"/>
              </g>
            </g>
          </g>
          <g id="Grupo_210667" data-name="Grupo 210667" transform="translate(106.871 14.802)">
            <rect id="Rectángulo_295691" data-name="Rectángulo 295691" width="218.454" height="156.479" transform="translate(0 218.325) rotate(-88.034)" fill="#f2f1f1"/>
            <rect id="Rectángulo_295692" data-name="Rectángulo 295692" width="218.454" height="156.479" transform="translate(1.696 220.175) rotate(-88.034)" fill="#fafafa"/>
            <g id="Grupo_210666" data-name="Grupo 210666" transform="translate(15.109 23.101)">
              <path id="Trazado_222250" data-name="Trazado 222250" d="M1094.362,466.848l112.013,3.846a4.625,4.625,0,0,1,4.464,4.781l-.032.925a4.625,4.625,0,0,1-4.781,4.463l-112.013-3.846a4.625,4.625,0,0,1-4.464-4.781l.032-.925A4.625,4.625,0,0,1,1094.362,466.848Z" transform="translate(-1078.796 -466.845)" fill="#abb4ce"/>
              <g id="Grupo_210656" data-name="Grupo 210656" transform="translate(4.395 21.769)">
                <g id="Grupo_210654" data-name="Grupo 210654" transform="translate(42.601 5.634)">
                  <path id="Trazado_222251" data-name="Trazado 222251" d="M1331.5,644.6l80.89,2.777a2.081,2.081,0,0,1,2.009,2.151h0a2.081,2.081,0,0,1-2.151,2.009l-80.89-2.777a2.081,2.081,0,0,1-2.009-2.151h0A2.081,2.081,0,0,1,1331.5,644.6Z" transform="translate(-1328.624 -644.596)" fill="#dbdfea"/>
                  <path id="Trazado_222252" data-name="Trazado 222252" d="M1329.069,713.539l81.044,2.783a2,2,0,0,1,1.934,2.072h0a2,2,0,0,1-2.072,1.934l-81.044-2.783a2,2,0,0,1-1.934-2.072h0A2,2,0,0,1,1329.069,713.539Z" transform="translate(-1326.634 -702.91)" fill="#dbdfea"/>
                  <path id="Trazado_222253" data-name="Trazado 222253" d="M1326.8,781.515l51,1.751a2.081,2.081,0,0,1,2.009,2.151h0a2.081,2.081,0,0,1-2.151,2.009l-51-1.751a2.081,2.081,0,0,1-2.009-2.151h0A2.081,2.081,0,0,1,1326.8,781.515Z" transform="translate(-1324.649 -760.406)" fill="#dbdfea"/>
                </g>
                <g id="Grupo_210655" data-name="Grupo 210655">
                  <path id="Trazado_222254" data-name="Trazado 222254" d="M1085.615,654.163l-27.58-.947.968-28.2,27.579.947Zm-25.986-2.435,24.5.841.862-25.114-24.5-.841Z" transform="translate(-1056.537 -622.404)" fill="#dbdfea"/>
                  <path id="Trazado_222255" data-name="Trazado 222255" d="M1064.159,636.688a1.541,1.541,0,0,1-1.175-.543l-14.3-16.819a1.542,1.542,0,1,1,2.349-2l13.1,15.412,19.79-24.129a1.542,1.542,0,1,1,2.384,1.955l-20.96,25.556a1.542,1.542,0,0,1-1.178.564Z" transform="translate(-1048.32 -608.049)" fill="#feca2e"/>
                </g>
              </g>
              <g id="Grupo_210659" data-name="Grupo 210659" transform="translate(2.931 64.448)">
                <g id="Grupo_210657" data-name="Grupo 210657">
                  <path id="Trazado_222256" data-name="Trazado 222256" d="M1076.115,931l-27.579-.947.968-28.2,27.58.947Zm-25.986-2.435,24.5.841.862-25.114-24.5-.841Z" transform="translate(-1047.037 -899.239)" fill="#dbdfea"/>
                  <path id="Trazado_222257" data-name="Trazado 222257" d="M1054.659,913.525a1.541,1.541,0,0,1-1.175-.543l-14.3-16.82a1.542,1.542,0,1,1,2.349-2l13.1,15.413,19.788-24.129a1.542,1.542,0,0,1,2.384,1.955l-20.959,25.557a1.541,1.541,0,0,1-1.178.564Z" transform="translate(-1038.819 -884.885)" fill="#feca2e"/>
                </g>
                <g id="Grupo_210658" data-name="Grupo 210658" transform="translate(42.599 5.634)">
                  <path id="Trazado_222258" data-name="Trazado 222258" d="M1321.991,921.433l80.89,2.777a2.082,2.082,0,0,1,2.009,2.151h0a2.081,2.081,0,0,1-2.151,2.009l-80.89-2.777a2.081,2.081,0,0,1-2.009-2.151h0A2.081,2.081,0,0,1,1321.991,921.433Z" transform="translate(-1319.114 -921.432)" fill="#dbdfea"/>
                  <path id="Trazado_222259" data-name="Trazado 222259" d="M1319.569,990.375l81.044,2.783a2,2,0,0,1,1.934,2.072h0a2,2,0,0,1-2.072,1.934l-81.044-2.783a2,2,0,0,1-1.934-2.072h0A2,2,0,0,1,1319.569,990.375Z" transform="translate(-1317.133 -979.746)" fill="#dbdfea"/>
                  <path id="Trazado_222260" data-name="Trazado 222260" d="M1317.292,1058.346l51,1.751a2.081,2.081,0,0,1,2.009,2.151h0a2.081,2.081,0,0,1-2.151,2.009l-51-1.751a2.081,2.081,0,0,1-2.009-2.151h0A2.081,2.081,0,0,1,1317.292,1058.346Z" transform="translate(-1315.139 -1037.238)" fill="#dbdfea"/>
                </g>
              </g>
              <g id="Grupo_210662" data-name="Grupo 210662" transform="translate(1.465 107.126)">
                <g id="Grupo_210660" data-name="Grupo 210660" transform="translate(42.601 5.634)">
                  <path id="Trazado_222261" data-name="Trazado 222261" d="M1312.491,1198.266l80.89,2.777a2.082,2.082,0,0,1,2.009,2.151h0a2.081,2.081,0,0,1-2.151,2.009l-80.89-2.777a2.081,2.081,0,0,1-2.009-2.151h0A2.081,2.081,0,0,1,1312.491,1198.266Z" transform="translate(-1309.614 -1198.265)" fill="#dbdfea"/>
                  <path id="Trazado_222262" data-name="Trazado 222262" d="M1310.059,1267.209l81.044,2.783a2,2,0,0,1,1.934,2.072h0a2,2,0,0,1-2.072,1.934l-81.044-2.782a2,2,0,0,1-1.934-2.072h0A2,2,0,0,1,1310.059,1267.209Z" transform="translate(-1307.624 -1256.579)" fill="#dbdfea"/>
                  <path id="Trazado_222263" data-name="Trazado 222263" d="M1307.792,1335.186l51,1.751a2.081,2.081,0,0,1,2.009,2.151h0a2.081,2.081,0,0,1-2.151,2.009l-51-1.751a2.081,2.081,0,0,1-2.009-2.151h0A2.081,2.081,0,0,1,1307.792,1335.186Z" transform="translate(-1305.639 -1314.077)" fill="#dbdfea"/>
                </g>
                <g id="Grupo_210661" data-name="Grupo 210661">
                  <path id="Trazado_222264" data-name="Trazado 222264" d="M1066.615,1207.834l-27.579-.947.968-28.2,27.579.947Zm-25.986-2.435,24.5.841.863-25.114-24.5-.841Z" transform="translate(-1037.536 -1176.075)" fill="#dbdfea"/>
                  <path id="Trazado_222265" data-name="Trazado 222265" d="M1045.149,1190.359a1.541,1.541,0,0,1-1.175-.543l-14.3-16.818a1.542,1.542,0,0,1,2.349-2l13.1,15.411,19.79-24.128a1.542,1.542,0,1,1,2.384,1.955l-20.96,25.556a1.543,1.543,0,0,1-1.178.564Z" transform="translate(-1029.31 -1161.72)" fill="#feca2e"/>
                </g>
              </g>
              <g id="Grupo_210665" data-name="Grupo 210665" transform="translate(0 149.806)">
                <g id="Grupo_210663" data-name="Grupo 210663" transform="translate(42.599 5.634)">
                  <path id="Trazado_222266" data-name="Trazado 222266" d="M1302.992,1475.106l80.89,2.777a2.082,2.082,0,0,1,2.009,2.151h0a2.081,2.081,0,0,1-2.151,2.009l-80.89-2.777a2.081,2.081,0,0,1-2.009-2.151h0A2.081,2.081,0,0,1,1302.992,1475.106Z" transform="translate(-1300.113 -1475.105)" fill="#dbdfea"/>
                  <path id="Trazado_222267" data-name="Trazado 222267" d="M1300.559,1544.049l81.044,2.782a2,2,0,0,1,1.934,2.072h0a2,2,0,0,1-2.072,1.934l-81.044-2.783a2,2,0,0,1-1.934-2.072h0A2,2,0,0,1,1300.559,1544.049Z" transform="translate(-1298.123 -1533.419)" fill="#dbdfea"/>
                  <path id="Trazado_222268" data-name="Trazado 222268" d="M1298.282,1612.026l51,1.751a2.081,2.081,0,0,1,2.009,2.151h0a2.081,2.081,0,0,1-2.151,2.009l-51-1.751a2.081,2.081,0,0,1-2.008-2.151h0A2.081,2.081,0,0,1,1298.282,1612.026Z" transform="translate(-1296.129 -1590.917)" fill="#dbdfea"/>
                </g>
                <g id="Grupo_210664" data-name="Grupo 210664">
                  <path id="Trazado_222269" data-name="Trazado 222269" d="M1057.1,1484.674l-27.58-.947.968-28.2,27.58.947Zm-25.986-2.435,24.5.841.862-25.114-24.5-.841Z" transform="translate(-1028.027 -1452.915)" fill="#dbdfea"/>
                  <path id="Trazado_222270" data-name="Trazado 222270" d="M1035.649,1467.2a1.542,1.542,0,0,1-1.175-.543l-14.3-16.819a1.542,1.542,0,1,1,2.349-2l13.1,15.413,19.788-24.129a1.542,1.542,0,0,1,2.384,1.956l-20.959,25.556a1.542,1.542,0,0,1-1.178.564Z" transform="translate(-1019.81 -1438.56)" fill="#feca2e"/>
                </g>
              </g>
            </g>
          </g>
          <g id="Grupo_210680" data-name="Grupo 210680" transform="translate(31.206 44.387)">
            <rect id="Rectángulo_295693" data-name="Rectángulo 295693" width="156.479" height="218.454" transform="translate(0 40.5) rotate(-15)" fill="#f4f4f4"/>
            <rect id="Rectángulo_295694" data-name="Rectángulo 295694" width="156.479" height="218.454" transform="translate(2.621 41.733) rotate(-15)" fill="#fff"/>
            <path id="Trazado_222271" data-name="Trazado 222271" d="M602.7,710.777l108.26-29.008a4.625,4.625,0,0,1,5.664,3.27l.239.894a4.625,4.625,0,0,1-3.27,5.664l-108.26,29.008a4.625,4.625,0,0,1-5.665-3.27l-.239-.893A4.625,4.625,0,0,1,602.7,710.777Z" transform="translate(-573.331 -654.985)" fill="#abb4ce"/>
            <g id="Grupo_210670" data-name="Grupo 210670" transform="translate(27.971 50.971)">
              <g id="Grupo_210668" data-name="Grupo 210668" transform="translate(40.667)">
                <path id="Trazado_222272" data-name="Trazado 222272" d="M877.763,860.545,955.942,839.6a2.081,2.081,0,0,1,2.549,1.472h0a2.081,2.081,0,0,1-1.472,2.549L878.84,864.566a2.081,2.081,0,0,1-2.549-1.472h0A2.081,2.081,0,0,1,877.763,860.545Z" transform="translate(-876.22 -839.526)" fill="#dbdfea"/>
                <path id="Trazado_222273" data-name="Trazado 222273" d="M895.452,927.117l78.328-20.988a2,2,0,0,1,2.455,1.417h0A2,2,0,0,1,974.818,910L896.49,930.989a2,2,0,0,1-2.454-1.417h0A2,2,0,0,1,895.452,927.117Z" transform="translate(-891.231 -895.803)" fill="#dbdfea"/>
                <path id="Trazado_222274" data-name="Trazado 222274" d="M913.222,1035.352l49.29-13.207a2.081,2.081,0,0,1,2.549,1.472h0a2.081,2.081,0,0,1-1.472,2.549l-49.29,13.207a2.081,2.081,0,0,1-2.549-1.472h0A2.081,2.081,0,0,1,913.222,1035.352Z" transform="translate(-906.212 -993.931)" fill="#dbdfea"/>
              </g>
              <g id="Grupo_210669" data-name="Grupo 210669" transform="translate(0 18.095)">
                <path id="Trazado_222275" data-name="Trazado 222275" d="M620.967,1026.609l-7.3-27.251,26.656-7.142,7.3,27.251Zm-5.414-26.161,6.5,24.273,23.677-6.344-6.5-24.273Z" transform="translate(-613.475 -986.771)" fill="#dbdfea"/>
                <path id="Trazado_222276" data-name="Trazado 222276" d="M632.556,990.541a1.542,1.542,0,0,1-.832-.244l-18.583-11.915a1.542,1.542,0,1,1,1.664-2.6L631.834,986.7l11.886-28.853a1.542,1.542,0,1,1,2.851,1.174l-12.59,30.561a1.542,1.542,0,0,1-1.425.954Z" transform="translate(-612.431 -956.896)" fill="#feca2e"/>
              </g>
            </g>
            <g id="Grupo_210673" data-name="Grupo 210673" transform="translate(39.023 92.221)">
              <g id="Grupo_210671" data-name="Grupo 210671" transform="translate(40.667)">
                <path id="Trazado_222277" data-name="Trazado 222277" d="M949.456,1128.112l78.179-20.948a2.081,2.081,0,0,1,2.549,1.472h0a2.081,2.081,0,0,1-1.472,2.549l-78.179,20.948a2.081,2.081,0,0,1-2.549-1.472h0A2.081,2.081,0,0,1,949.456,1128.112Z" transform="translate(-947.912 -1107.093)" fill="#dbdfea"/>
                <path id="Trazado_222278" data-name="Trazado 222278" d="M967.145,1194.677l78.328-20.988a2,2,0,0,1,2.455,1.417h0a2,2,0,0,1-1.417,2.455l-78.328,20.988a2,2,0,0,1-2.454-1.417h0A2,2,0,0,1,967.145,1194.677Z" transform="translate(-962.924 -1163.364)" fill="#dbdfea"/>
                <path id="Trazado_222279" data-name="Trazado 222279" d="M984.914,1302.912l49.29-13.207a2.081,2.081,0,0,1,2.549,1.472h0a2.081,2.081,0,0,1-1.472,2.549l-49.29,13.207a2.081,2.081,0,0,1-2.549-1.472h0A2.081,2.081,0,0,1,984.914,1302.912Z" transform="translate(-977.904 -1261.492)" fill="#dbdfea"/>
              </g>
              <g id="Grupo_210672" data-name="Grupo 210672" transform="translate(0 18.094)">
                <path id="Trazado_222280" data-name="Trazado 222280" d="M692.66,1294.179l-7.3-27.251,26.655-7.142,7.3,27.251Zm-5.414-26.161,6.5,24.273,23.677-6.344-6.5-24.273Z" transform="translate(-685.168 -1254.34)" fill="#dbdfea"/>
                <path id="Trazado_222281" data-name="Trazado 222281" d="M704.249,1258.1a1.541,1.541,0,0,1-.832-.244l-18.583-11.916a1.542,1.542,0,0,1,1.664-2.6l17.029,10.919,11.886-28.853a1.542,1.542,0,1,1,2.851,1.174l-12.59,30.56a1.541,1.541,0,0,1-1.425.955Z" transform="translate(-684.124 -1224.457)" fill="#feca2e"/>
              </g>
            </g>
            <g id="Grupo_210676" data-name="Grupo 210676" transform="translate(50.076 133.469)">
              <g id="Grupo_210674" data-name="Grupo 210674" transform="translate(40.668)">
                <path id="Trazado_222282" data-name="Trazado 222282" d="M1021.154,1395.672l78.179-20.948a2.081,2.081,0,0,1,2.549,1.472h0a2.081,2.081,0,0,1-1.472,2.549l-78.179,20.948a2.081,2.081,0,0,1-2.549-1.472h0A2.081,2.081,0,0,1,1021.154,1395.672Z" transform="translate(-1019.61 -1374.653)" fill="#dbdfea"/>
                <path id="Trazado_222283" data-name="Trazado 222283" d="M1038.834,1462.237l78.328-20.988a2,2,0,0,1,2.455,1.417h0a2,2,0,0,1-1.417,2.455l-78.328,20.988a2,2,0,0,1-2.455-1.417h0A2,2,0,0,1,1038.834,1462.237Z" transform="translate(-1034.614 -1430.924)" fill="#dbdfea"/>
                <path id="Trazado_222284" data-name="Trazado 222284" d="M1056.6,1570.472l49.29-13.207a2.081,2.081,0,0,1,2.549,1.471h0a2.082,2.082,0,0,1-1.472,2.549l-49.29,13.207a2.081,2.081,0,0,1-2.549-1.472h0A2.081,2.081,0,0,1,1056.6,1570.472Z" transform="translate(-1049.595 -1529.052)" fill="#dbdfea"/>
              </g>
              <g id="Grupo_210675" data-name="Grupo 210675" transform="translate(0 18.094)">
                <path id="Trazado_222285" data-name="Trazado 222285" d="M764.352,1561.739l-7.3-27.251,26.655-7.143,7.3,27.251Zm-5.414-26.161,6.5,24.273,23.677-6.344-6.5-24.273Z" transform="translate(-756.86 -1521.899)" fill="#dbdfea"/>
                <path id="Trazado_222286" data-name="Trazado 222286" d="M775.942,1525.661a1.541,1.541,0,0,1-.832-.244L756.526,1513.5a1.542,1.542,0,0,1,1.664-2.6l17.029,10.919,11.886-28.853a1.542,1.542,0,0,1,2.851,1.174l-12.589,30.56a1.54,1.54,0,0,1-1.425.955Z" transform="translate(-755.816 -1492.017)" fill="#feca2e"/>
              </g>
            </g>
            <g id="Grupo_210679" data-name="Grupo 210679" transform="translate(61.128 174.718)">
              <g id="Grupo_210677" data-name="Grupo 210677" transform="translate(40.668)">
                <path id="Trazado_222287" data-name="Trazado 222287" d="M1092.844,1663.232l78.179-20.948a2.081,2.081,0,0,1,2.549,1.472h0a2.081,2.081,0,0,1-1.472,2.549l-78.179,20.948a2.081,2.081,0,0,1-2.549-1.472h0A2.081,2.081,0,0,1,1092.844,1663.232Z" transform="translate(-1091.301 -1642.213)" fill="#dbdfea"/>
                <path id="Trazado_222288" data-name="Trazado 222288" d="M1110.534,1729.807l78.328-20.988a2,2,0,0,1,2.455,1.417h0a2,2,0,0,1-1.417,2.455l-78.328,20.988a2,2,0,0,1-2.454-1.417h0A2,2,0,0,1,1110.534,1729.807Z" transform="translate(-1106.312 -1698.492)" fill="#dbdfea"/>
                <path id="Trazado_222289" data-name="Trazado 222289" d="M1128.3,1838.032l49.29-13.207a2.081,2.081,0,0,1,2.549,1.472h0a2.081,2.081,0,0,1-1.472,2.549l-49.29,13.207a2.081,2.081,0,0,1-2.549-1.472h0A2.081,2.081,0,0,1,1128.3,1838.032Z" transform="translate(-1121.294 -1796.612)" fill="#dbdfea"/>
              </g>
              <g id="Grupo_210678" data-name="Grupo 210678" transform="translate(0 18.094)">
                <path id="Trazado_222290" data-name="Trazado 222290" d="M836.046,1829.3l-7.3-27.251,26.655-7.142,7.3,27.251Zm-5.414-26.161,6.5,24.273,23.677-6.344-6.5-24.273Z" transform="translate(-828.554 -1789.459)" fill="#dbdfea"/>
                <path id="Trazado_222291" data-name="Trazado 222291" d="M847.634,1793.221a1.54,1.54,0,0,1-.832-.244l-18.583-11.914a1.542,1.542,0,1,1,1.664-2.6l17.029,10.918,11.886-28.853a1.542,1.542,0,1,1,2.851,1.174l-12.589,30.56a1.543,1.543,0,0,1-1.425.955Z" transform="translate(-827.509 -1759.576)" fill="#feca2e"/>
              </g>
            </g>
          </g>
          <g id="Grupo_210681" data-name="Grupo 210681" transform="translate(174.805 166.134)">
            <circle id="Elipse_16237" data-name="Elipse 16237" cx="47.175" cy="47.175" r="47.175" transform="translate(0 66.715) rotate(-45)" fill="#feca2e"/>
            <path id="Trazado_222292" data-name="Trazado 222292" d="M1644.582,1641.3a2.7,2.7,0,0,1-1.994-.881l-21.144-23.208a2.7,2.7,0,1,1,3.989-3.634l18.968,20.82,26.582-34.781a2.7,2.7,0,0,1,4.287,3.277l-28.544,37.348a2.7,2.7,0,0,1-2.027,1.057Z" transform="translate(-1580.922 -1552.318)" fill="#fff"/>
          </g>
        </g>
      </g>
    </g>
  </g>
</svg>
