<svg xmlns="http://www.w3.org/2000/svg" width="100" height="100" viewBox="0 0 100 100">
  <g id="Grupo_215598" data-name="Grupo 215598" transform="translate(3936 7535)">
    <circle id="Elipse_16466" data-name="Elipse 16466" cx="50" cy="50" r="50" transform="translate(-3936 -7535)" fill="#0f2771"/>
    <g id="Grupo_215220" data-name="Grupo 215220" transform="translate(-4457.439 -7560.931)">
      <path id="Trazado_227200" data-name="Trazado 227200" d="M604.73,72.469c-.171.04-.148.2-.195.316a3.306,3.306,0,0,1-3.258,2.19c-1.8.019-3.6.014-5.4,0a.877.877,0,0,0-.823.409c-.629.886-1.287,1.753-1.954,2.613a3.3,3.3,0,0,1-5.984-2.057c0-.287,0-.573,0-.908H578.37c-.13.143-.054.352-.055.542-.007,1.755-.069,3.514.015,5.265a3.942,3.942,0,0,1-1.952,3.679,14.9,14.9,0,0,1-4.493,1.945,57.047,57.047,0,0,1-16.833,1.68,53.839,53.839,0,0,1-10.5-1.251,21.612,21.612,0,0,1-5.082-1.725,8.511,8.511,0,0,1-1.768-1.173,3.528,3.528,0,0,1-1.265-2.806q.03-16.1,0-32.194a3.627,3.627,0,0,1,1.474-3.042,14.688,14.688,0,0,1,5.424-2.419,50.952,50.952,0,0,1,9.458-1.458c.156-.011.366.094.461-.14h6.4c.223.167.445.23.667,0h.8c.08.21.264.116.4.124a52.384,52.384,0,0,1,8.3,1.084,19.523,19.523,0,0,1,6.386,2.351,3.968,3.968,0,0,1,2.112,3.854c-.085,1.184-.016,2.378-.016,3.611h14.931c2.664,0,5.329-.007,7.993,0a3.232,3.232,0,0,1,3.371,2.45c.017.05.082.084.125.127Zm-15.425.283c0,1.054.007,2.049,0,3.043a1.147,1.147,0,0,0,2.151.731c.8-1.093,1.638-2.157,2.425-3.258a1.1,1.1,0,0,1,1.033-.529c2.066.03,4.132.014,6.2.012,1.047,0,1.41-.349,1.411-1.387q.008-7.4,0-14.8c0-1.067-.375-1.427-1.456-1.427q-11.764,0-23.529,0c-1.068,0-1.448.379-1.448,1.444q-.006,7.366,0,14.731c0,1.079.362,1.435,1.44,1.436q5.5,0,11,0Zm-50.552,1.006a1.166,1.166,0,0,0-.09.694c-.006,2.2.024,4.4-.018,6.6a1.712,1.712,0,0,0,.863,1.6,14.783,14.783,0,0,0,4.469,1.821,60.226,60.226,0,0,0,27.23-.119,13.767,13.767,0,0,0,4.08-1.728,1.663,1.663,0,0,0,.815-1.549c-.046-1.931-.014-3.865-.017-5.8a.948.948,0,0,0-1.309-.847,33.338,33.338,0,0,1-9.529,2.3,67.614,67.614,0,0,1-12.836.265,44.852,44.852,0,0,1-9.948-1.682A20.072,20.072,0,0,1,538.753,73.759ZM538.66,51.71c0,2.21.122,4.349-.04,6.467a2.747,2.747,0,0,0,1.939,3.06c.122.052.243.107.366.159a33.731,33.731,0,0,0,10.151,2.264,64.836,64.836,0,0,0,14.829-.261,31.305,31.305,0,0,0,7.548-1.813.606.606,0,0,0,.462-.673c-.025-1.488.007-2.978-.015-4.466a3.248,3.248,0,0,1,1.848-3.137.52.52,0,0,0,.342-.558c-.018-.321,0-.645,0-.966-.116,0-.167-.015-.2,0a26.167,26.167,0,0,1-9,2.681,63.382,63.382,0,0,1-13.959.526C548.049,54.65,543.212,54.07,538.66,51.71Zm.035,10.991c-.015.244-.034.415-.034.587,0,2.287.016,4.575-.012,6.862a1.561,1.561,0,0,0,.73,1.394,9.6,9.6,0,0,0,2.3,1.177,41.092,41.092,0,0,0,11.87,2.14,64.73,64.73,0,0,0,10.908-.266,35.837,35.837,0,0,0,8.626-1.843c.6-.224.97-.447.846-1.2a12.317,12.317,0,0,1-.023-2V63.808c-.735.232-1.4.466-2.08.653a53.088,53.088,0,0,1-12.9,1.681,61.723,61.723,0,0,1-12.6-.911A23.219,23.219,0,0,1,538.695,62.7Zm18.74-9.76a68.339,68.339,0,0,0,6.892-.35,36.169,36.169,0,0,0,8.688-1.868,9.685,9.685,0,0,0,2.252-1.128c1.09-.774,1.089-1.371-.031-2.126a8.534,8.534,0,0,0-1.336-.735,30.268,30.268,0,0,0-9.013-2.164,61.661,61.661,0,0,0-19.353.7,17.211,17.211,0,0,0-5.907,2.122c-1.277.817-1.275,1.444-.026,2.27a14.188,14.188,0,0,0,4.225,1.725A53.136,53.136,0,0,0,557.435,52.941Z" fill="#fff"/>
      <path id="Trazado_227201" data-name="Trazado 227201" d="M607.052,102.394a6.488,6.488,0,0,0-1.875.583.543.543,0,0,0-.235.792,12.339,12.339,0,0,0,.583,1.193c.234.38.13.606-.166.9q-2.52,2.476-5,5a.616.616,0,0,1-.9.128,9.239,9.239,0,0,0-1.135-.548.586.586,0,0,0-.891.366c-.015.042-.033.082-.048.124-.195.516-.251,1.2-.621,1.5-.406.331-1.108.1-1.681.1-2.132.012-4.265,0-6.427,0l-.6-1.7a.6.6,0,0,0-.938-.382c-.52.247-1.037.5-1.671.806-.574-.6-1.157-1.238-1.763-1.851-1.172-1.185-2.345-2.369-3.543-3.527-.318-.308-.422-.553-.174-.951a10.393,10.393,0,0,0,.551-1.135.579.579,0,0,0-.37-.883c-.061-.025-.12-.057-.182-.079-1.557-.569-1.557-.568-1.557-2.2V94.137c.562-.2,1.105-.382,1.646-.573.514-.182.682-.508.427-1.02s-.494-1.031-.72-1.5l5.794-5.81c.391.187.808.384,1.223.587.921.446,1.049.395,1.389-.553.163-.457.333-.912.506-1.384,2.6,0,5.178,0,7.754,0a.452.452,0,0,1,.521.375c.135.468.317.921.489,1.377a.572.572,0,0,0,.881.363c.538-.252,1.075-.506,1.566-.739l5.807,5.83c-.21.44-.467.975-.719,1.512a.593.593,0,0,0,.388.93c.565.2,1.128.4,1.691.6ZM582.395,91.542a2.165,2.165,0,0,1,.164,2.621c-.349.712-.677,1.237-1.479,1.376-.235.041-.457.1-.453.452.017,1.576.008,3.151.008,4.774a2.711,2.711,0,0,1,1.71,4.226c1.1,1.086,2.184,2.137,3.242,3.213.275.281.507.392.842.137a1.542,1.542,0,0,1,1.992-.019.451.451,0,0,0,.182.077,1.623,1.623,0,0,1,1.45,1.466c.059.381.288.47.66.463,1.333-.025,2.667-.028,4,0a.653.653,0,0,0,.753-.538c.116-.362.09-.877.5-1.032,1.119-.424,2.229-1.318,3.465-.25.022.019.082-.006.154-.012,1.02-1.022,2.041-2.075,3.1-3.088.333-.317.421-.572.145-.949a1.423,1.423,0,0,1-.039-1.813.753.753,0,0,0,.13-.3A1.65,1.65,0,0,1,604.4,100.9a.477.477,0,0,0,.459-.531c-.024-1.444-.014-2.889-.007-4.334,0-.263-.083-.426-.354-.466-.95-.139-1.308-.788-1.664-1.617a1.962,1.962,0,0,1,.064-2.132c.117-.165.239-.352,0-.583-1.138-1.117-2.257-2.252-3.43-3.43a2.233,2.233,0,0,1-2.749.2,1.866,1.866,0,0,1-1.279-1.4c-.073-.373-.268-.522-.683-.512q-2,.048-4,0c-.436-.01-.674.122-.74.538-.121.761-.62,1.063-1.292,1.388a2.2,2.2,0,0,1-2.659-.149Z" transform="translate(-2.322 -2.321)" fill="#fff"/>
      <path id="Trazado_227202" data-name="Trazado 227202" d="M561.684,41.932c-.222.23-.444.167-.667,0Z" transform="translate(-1.36)" fill="#fff"/>
      <path id="Trazado_227203" data-name="Trazado 227203" d="M566.75,95.6V97.72H546.982V95.6Z" transform="translate(-0.583 -2.969)" fill="#fff"/>
      <path id="Trazado_227204" data-name="Trazado 227204" d="M566.751,104.919v2.129H546.983v-2.129Z" transform="translate(-0.583 -3.485)" fill="#fff"/>
      <path id="Trazado_227205" data-name="Trazado 227205" d="M567.007,100.256v2.129H551.644v-2.129Z" transform="translate(-0.841 -3.227)" fill="#fff"/>
      <path id="Trazado_227206" data-name="Trazado 227206" d="M546.95,102.368v-2.092h2.18v2.092Z" transform="translate(-0.582 -3.228)" fill="#fff"/>
      <path id="Trazado_227207" data-name="Trazado 227207" d="M582.917,69.237h2.225V60.489h2.213v8.737h2.2V64.9h2.193v4.324h2.229V62.69h2.178v6.536h2.2V64.9h2.194v4.344h2.2v2.2H580.8V58.3h2.114Z" transform="translate(-2.455 -0.906)" fill="#fff"/>
      <path id="Trazado_227208" data-name="Trazado 227208" d="M548.181,81.014l-.353,2.158-2.212-.395.453-2.16Z" transform="translate(-0.508 -2.14)" fill="#fff"/>
      <path id="Trazado_227209" data-name="Trazado 227209" d="M543.733,80.04l-.568,2.078a12.345,12.345,0,0,1-2.184-.661l.729-2.035Z" transform="translate(-0.251 -2.074)" fill="#fff"/>
      <path id="Trazado_227210" data-name="Trazado 227210" d="M552.727,81.565l-.18,2.144a16.371,16.371,0,0,1-2.228-.181l.263-2.177Z" transform="translate(-0.768 -2.181)" fill="#fff"/>
      <path id="Trazado_227211" data-name="Trazado 227211" d="M547.824,59.866l-2.212-.412.458-2.153,2.109.4Z" transform="translate(-0.508 -0.85)" fill="#fff"/>
      <path id="Trazado_227212" data-name="Trazado 227212" d="M552.549,60.449l-2.229-.232.26-2.18,2.082.2A14.215,14.215,0,0,1,552.549,60.449Z" transform="translate(-0.768 -0.891)" fill="#fff"/>
      <path id="Trazado_227213" data-name="Trazado 227213" d="M540.98,58.128l.74-2.031,2.01.636-.574,2.093A14.318,14.318,0,0,1,540.98,58.128Z" transform="translate(-0.251 -0.784)" fill="#fff"/>
      <path id="Trazado_227214" data-name="Trazado 227214" d="M540.977,69.811l.738-2.061,2.007.638-.548,2.052A11.574,11.574,0,0,1,540.977,69.811Z" transform="translate(-0.251 -1.429)" fill="#fff"/>
      <path id="Trazado_227215" data-name="Trazado 227215" d="M550.58,69.7l2.087.2a12.582,12.582,0,0,1-.129,2.188,13.972,13.972,0,0,1-2.214-.266Z" transform="translate(-0.768 -1.536)" fill="#fff"/>
      <path id="Trazado_227216" data-name="Trazado 227216" d="M545.606,71.119l.464-2.145,2.1.368-.326,2.109A14.1,14.1,0,0,1,545.606,71.119Z" transform="translate(-0.507 -1.496)" fill="#fff"/>
      <path id="Trazado_227217" data-name="Trazado 227217" d="M593.045,89.739a8.81,8.81,0,1,1-8.784,8.814A8.816,8.816,0,0,1,593.045,89.739Zm6.609,8.805a6.6,6.6,0,1,0-6.6,6.589A6.609,6.609,0,0,0,599.654,98.544Z" transform="translate(-2.646 -2.645)" fill="#fff"/>
      <path id="Trazado_227218" data-name="Trazado 227218" d="M593.294,94.4a4.4,4.4,0,1,1-4.367,4.417A4.414,4.414,0,0,1,593.294,94.4Zm.012,6.583a2.172,2.172,0,0,0,2.2-2.181,2.2,2.2,0,0,0-2.18-2.216,2.24,2.24,0,0,0-2.217,2.2A2.2,2.2,0,0,0,593.307,100.985Z" transform="translate(-2.904 -2.903)" fill="#fff"/>
    </g>
  </g>
</svg>
