<svg xmlns="http://www.w3.org/2000/svg" width="100" height="100" viewBox="0 0 100 100">
  <g id="Grupo_215611" data-name="Grupo 215611" transform="translate(-750 -4165)">
    <g id="Grupo_215222" data-name="Grupo 215222" transform="translate(395 -122)">
      <circle id="Elipse_16466" data-name="Elipse 16466" cx="50" cy="50" r="50" transform="translate(355 4287)" fill="#feca2e"/>
      <g id="Grupo_215224" data-name="Grupo 215224" transform="translate(-242.195 4264.068)">
        <path id="Trazado_227219" data-name="Trazado 227219" d="M642.492,41.932h1.334a4.292,4.292,0,0,1,2.564,1.622.829.829,0,0,0,.8.395c2.789-.014,5.577-.01,8.364,0a1.072,1.072,0,0,1,.673.084v.586q0,3.059,0,6.119c0,.245-.014.462.267.606.822.419,1.63.866,2.41,1.284.07-.022.095-.022.107-.035,2.078-1.991,3.431-2.148,5.83-.656a.356.356,0,0,0,.478-.032q2.706-2.039,5.424-4.071c-.055-.156-.1-.288-.146-.416a3.94,3.94,0,0,1,2.029-5.124c.265-.126.6-.083.8-.357h1.455a6.99,6.99,0,0,1,1.857.858,5.152,5.152,0,0,1,1.539,2.416v1.576c-.156.033-.142.181-.179.285a3.94,3.94,0,0,1-5.691,2.378c-.292-.14-.434-.036-.633.114-1.742,1.31-3.481,2.626-5.239,3.914a.769.769,0,0,0-.349.9,3.983,3.983,0,0,1-4.875,4.454c-1.979-.539-3.018-1.978-3.063-4.282l-1.991-1.056v6.486l.323.049a13.006,13.006,0,0,1,10.49,7.6.594.594,0,0,0,.659.36q5.273,0,10.547.019v36.009h-2.034V69.946H656.188V67.961h3.855a6.879,6.879,0,0,0-7.566-1.425,7,7,0,0,0,1.264,13.279c2.516.612,5.406-.611,6.243-1.862h-3.8V75.995h14.048v27.983h-2.011V78c-.962-.06-.973-.065-1.178.375a12.767,12.767,0,0,1-6.411,6.4.637.637,0,0,0-.41.7q.018,5.334.006,10.669c0,1.051.033,2.1-.033,3.15a4.966,4.966,0,0,1-8.573,3.127,1.235,1.235,0,0,0-.988-.422q-16.859.016-33.719.008H616.2V83.983h32.126a13.346,13.346,0,0,1-2.052-1.632,1.26,1.26,0,0,0-1.016-.39q-14.191.017-28.382.009H616.2V63.962h11.132a4.183,4.183,0,0,1-.007-2.014H616.2V43.94h.736q11.128,0,22.257,0c.227,0,.507.113.669-.149A4.67,4.67,0,0,1,642.492,41.932ZM618.216,86V99.973h32.019V86ZM618.2,66.025v13.9c.578.1,25.45.09,26-.011a13.115,13.115,0,0,1,.04-13.958c-3.444,0-6.8,0-10.147-.007a1.072,1.072,0,0,0-.642.285,3.888,3.888,0,0,1-4.527-.019,1.333,1.333,0,0,0-.833-.265c-3.112.009-6.223,0-9.334.008A.9.9,0,0,0,618.2,66.025Zm21-20.057H618.214V59.928a2.086,2.086,0,0,0,.265.036c3.252,0,6.5,0,9.756.007a1.045,1.045,0,0,0,.659-.248,3.687,3.687,0,0,1,2.433-.745.557.557,0,0,0,.548-.256q3.881-5.184,7.774-10.359a.408.408,0,0,0,.066-.533A3.892,3.892,0,0,1,639.2,45.969ZM654.244,59.9c0-2.41,0-4.793.005-7.177a.464.464,0,0,0-.267-.478c-2.485-1.328-4.966-2.664-7.5-4.024a4.165,4.165,0,0,1-2.349,1.6,3.941,3.941,0,0,1-2.8-.38L633.492,59.9Zm10.69,8.055a10.93,10.93,0,0,0-11.918-5.778,11.01,11.01,0,0,0,.549,21.673,10.819,10.819,0,0,0,11.344-5.827c-.012-.014-.022-.042-.034-.042-.485-.007-.974.026-1.453-.025a1.171,1.171,0,0,0-1.153.559,8.669,8.669,0,0,1-6,3.4,8.995,8.995,0,0,1-9.856-10.751,8.585,8.585,0,0,1,6.219-6.787,8.271,8.271,0,0,1,8.922,2.324A3.486,3.486,0,0,0,664.935,67.954Zm-12.7,17.675c0,4.555-.042,9.036.023,13.516a2.844,2.844,0,0,0,2.591,2.814,3,3,0,0,0,3.4-3.189c.01-4.22,0-8.441,0-12.661,0-.139-.016-.278-.028-.475A13.632,13.632,0,0,1,652.237,85.63Zm-3.952-23.656H635.052a3.377,3.377,0,0,1,.018,1.916c.085.042.12.074.155.074q5.181,0,10.361.006a.434.434,0,0,0,.341-.079A19.6,19.6,0,0,1,648.285,61.974ZM654.206,50.1V45.971h-6.951c-.147.369.112.449.324.563l4.522,2.432Zm-9-4.161a1.993,1.993,0,0,0-3.987-.026,1.993,1.993,0,1,0,3.987.026Zm31.053.017a1.993,1.993,0,0,0-3.986-.059,1.993,1.993,0,1,0,3.986.059ZM631.168,60.965a2,2,0,1,0,.053,3.995,2,2,0,0,0-.053-3.995Zm33.066-6.034a1.974,1.974,0,0,0-2-1.972,2.015,2.015,0,0,0-1.99,2.007,2.045,2.045,0,0,0,2.025,1.987A2,2,0,0,0,664.235,54.931Z" fill="#0f2771"/>
        <path id="Trazado_227220" data-name="Trazado 227220" d="M685.536,108.853H683.58v-1.938h1.956Z" transform="translate(-11.291 -10.888)" fill="#0f2771"/>
        <path id="Trazado_227221" data-name="Trazado 227221" d="M683.595,111.71h1.933v1.947h-1.933Z" transform="translate(-11.293 -11.692)" fill="#0f2771"/>
        <path id="Trazado_227222" data-name="Trazado 227222" d="M661.932,77.651V75.567h1.932a13.732,13.732,0,0,1-.022,2.085l.023-.024H661.91Z" transform="translate(-7.66 -5.636)" fill="#0f2771"/>
        <path id="Trazado_227223" data-name="Trazado 227223" d="M685.526,94.423h-1.947V92.506h1.947Z" transform="translate(-11.291 -8.474)" fill="#0f2771"/>
        <path id="Trazado_227224" data-name="Trazado 227224" d="M678.764,78.049h1.95v1.936h-1.95Z" transform="translate(-10.484 -6.052)" fill="#0f2771"/>
        <path id="Trazado_227225" data-name="Trazado 227225" d="M685.528,99.23h-1.951V97.311h1.951Z" transform="translate(-11.29 -9.279)" fill="#0f2771"/>
        <path id="Trazado_227226" data-name="Trazado 227226" d="M685.531,79.983h-1.958V78.068h1.958Z" transform="translate(-11.29 -6.055)" fill="#0f2771"/>
        <path id="Trazado_227227" data-name="Trazado 227227" d="M663.865,82.449h-1.932V80.364l-.023.023h1.956l-.023-.024A13.732,13.732,0,0,1,663.865,82.449Z" transform="translate(-7.66 -6.439)" fill="#0f2771"/>
        <path id="Trazado_227228" data-name="Trazado 227228" d="M683.579,104.031V102.1h1.94v1.927Z" transform="translate(-11.291 -10.082)" fill="#0f2771"/>
        <path id="Trazado_227229" data-name="Trazado 227229" d="M669.154,78.067H671.1v1.9h-1.944Z" transform="translate(-8.874 -6.055)" fill="#0f2771"/>
        <path id="Trazado_227230" data-name="Trazado 227230" d="M685.541,82.895v1.9h-1.956v-1.9Z" transform="translate(-11.292 -6.864)" fill="#0f2771"/>
        <path id="Trazado_227231" data-name="Trazado 227231" d="M664.232,78.067h2.026v1.908h-2.026l.023.024V78.043Z" transform="translate(-8.049 -6.051)" fill="#0f2771"/>
        <path id="Trazado_227232" data-name="Trazado 227232" d="M683.565,89.605V87.7h1.954v1.9Z" transform="translate(-11.288 -7.669)" fill="#0f2771"/>
        <path id="Trazado_227233" data-name="Trazado 227233" d="M675.9,79.99h-1.954V78.075H675.9Z" transform="translate(-9.677 -6.056)" fill="#0f2771"/>
        <path id="Trazado_227234" data-name="Trazado 227234" d="M632.595,108.857H630.62v-1.923h1.975Z" transform="translate(-2.417 -10.891)" fill="#0f2771"/>
        <path id="Trazado_227235" data-name="Trazado 227235" d="M622.963,97.3v1.915h-1.955V97.3Z" transform="translate(-0.806 -9.277)" fill="#0f2771"/>
        <path id="Trazado_227236" data-name="Trazado 227236" d="M622.963,104.041h-1.957v-1.936h1.957Z" transform="translate(-0.806 -10.082)" fill="#0f2771"/>
        <path id="Trazado_227237" data-name="Trazado 227237" d="M627.78,102.109v1.931h-1.96v-1.931Z" transform="translate(-1.613 -10.083)" fill="#0f2771"/>
        <path id="Trazado_227238" data-name="Trazado 227238" d="M622.974,106.928v1.918H621.02v-1.918Z" transform="translate(-0.808 -10.89)" fill="#0f2771"/>
        <path id="Trazado_227239" data-name="Trazado 227239" d="M625.818,108.832v-1.917h1.96v1.917Z" transform="translate(-1.612 -10.888)" fill="#0f2771"/>
        <path id="Trazado_227240" data-name="Trazado 227240" d="M661.531,79.975h-2.019V78.066h2.019l-.023-.023V80Z" transform="translate(-7.258 -6.051)" fill="#0f2771"/>
      </g>
    </g>
  </g>
</svg>
