<svg xmlns="http://www.w3.org/2000/svg" xmlns:xlink="http://www.w3.org/1999/xlink" width="466.3" height="378.846" viewBox="0 0 466.3 378.846">
  <defs>
    <linearGradient id="linear-gradient" y1="0.5" x2="1" y2="0.5" gradientUnits="objectBoundingBox">
      <stop offset="0" stop-color="#dbdfea"/>
      <stop offset="1" stop-color="#abb4ce"/>
    </linearGradient>
    <radialGradient id="radial-gradient" cx="0.5" cy="0.5" r="5.801" gradientTransform="translate(0.469 -124.12) scale(0.061 0.667)" gradientUnits="objectBoundingBox">
      <stop offset="0" stop-color="#b3819d"/>
      <stop offset="1" stop-color="#785ca6"/>
    </radialGradient>
    <radialGradient id="radial-gradient-2" cx="0.5" cy="0.5" r="6.887" gradientTransform="matrix(0.051, 0, 0, -0.9, 0.474, 3587.471)" gradientUnits="objectBoundingBox">
      <stop offset="0" stop-color="#ebd7e3"/>
      <stop offset="0.983" stop-color="#bdafd2"/>
    </radialGradient>
    <radialGradient id="radial-gradient-3" cx="0.5" cy="0.5" r="0.741" gradientTransform="translate(0.228) scale(0.543 1)" gradientUnits="objectBoundingBox">
      <stop offset="0" stop-color="#8461d3"/>
      <stop offset="0.994" stop-color="#7138b6"/>
    </radialGradient>
    <linearGradient id="linear-gradient-2" x1="0.5" y1="1.193" x2="0.5" gradientUnits="objectBoundingBox">
      <stop offset="0.997" stop-color="#0f2771"/>
      <stop offset="1" stop-color="#561f7d"/>
    </linearGradient>
    <linearGradient id="linear-gradient-3" x1="0" y1="-190.869" x2="1" y2="-190.869" xlink:href="#linear-gradient"/>
    <linearGradient id="linear-gradient-4" x1="0.782" y1="1.405" x2="0.177" y2="-0.619" gradientUnits="objectBoundingBox">
      <stop offset="0.017" stop-color="#e2dceb"/>
      <stop offset="1" stop-color="#fff"/>
    </linearGradient>
    <linearGradient id="linear-gradient-5" y1="0.5" x2="1" y2="0.5" gradientUnits="objectBoundingBox">
      <stop offset="0" stop-color="#0f2771"/>
      <stop offset="1" stop-color="#091744"/>
    </linearGradient>
    <radialGradient id="radial-gradient-4" cx="0.5" cy="0.5" r="0.5" gradientTransform="translate(0)" gradientUnits="objectBoundingBox">
      <stop offset="0" stop-color="#8054b2"/>
      <stop offset="0.01" stop-color="#7e52af"/>
      <stop offset="0.272" stop-color="#513571"/>
      <stop offset="0.511" stop-color="#2e1e40"/>
      <stop offset="0.719" stop-color="#150d1d"/>
      <stop offset="0.889" stop-color="#050307"/>
      <stop offset="1"/>
    </radialGradient>
    <linearGradient id="linear-gradient-6" y1="0.5" x2="1" y2="0.5" gradientUnits="objectBoundingBox">
      <stop offset="0.017" stop-color="#cec4de"/>
      <stop offset="1" stop-color="#fff"/>
    </linearGradient>
    <radialGradient id="radial-gradient-5" cx="0.5" cy="0.5" r="0.706" gradientTransform="translate(0.211) scale(0.578 1)" gradientUnits="objectBoundingBox">
      <stop offset="0" stop-color="#c1eff5"/>
      <stop offset="0.994" stop-color="#4dd0e1"/>
    </radialGradient>
    <linearGradient id="linear-gradient-7" x1="0.5" y1="1.081" x2="0.5" gradientUnits="objectBoundingBox">
      <stop offset="0" stop-color="#abb4ce"/>
      <stop offset="1" stop-color="#718494"/>
    </linearGradient>
    <radialGradient id="radial-gradient-6" cx="0.503" cy="0.467" r="2.893" gradientTransform="translate(0.395) scale(0.21 1)" gradientUnits="objectBoundingBox">
      <stop offset="0" stop-color="#e8f3fc"/>
      <stop offset="1" stop-color="#bddcf6"/>
    </radialGradient>
    <radialGradient id="radial-gradient-7" cx="0.469" cy="-45.187" r="25.285" gradientTransform="translate(0.478) scale(0.044 1)" xlink:href="#radial-gradient-2"/>
    <radialGradient id="radial-gradient-8" cx="0.502" cy="-1.128" r="11.038" gradientTransform="translate(0.478) scale(0.044 1)" xlink:href="#radial-gradient-6"/>
    <radialGradient id="radial-gradient-9" cx="0.5" cy="0.5" r="16.864" gradientTransform="translate(0.49) scale(0.021 1)" xlink:href="#radial-gradient-5"/>
    <radialGradient id="radial-gradient-10" cx="0.5" cy="0.5" r="2.754" gradientTransform="translate(0.435) scale(0.129 1)" gradientUnits="objectBoundingBox">
      <stop offset="0" stop-color="#97b0c5"/>
      <stop offset="1" stop-color="#718494"/>
    </radialGradient>
    <linearGradient id="linear-gradient-8" x1="0" y1="0.5" x2="1" y2="0.5" xlink:href="#linear-gradient-7"/>
    <radialGradient id="radial-gradient-11" cy="0.5" r="0.5" gradientTransform="translate(0)" xlink:href="#radial-gradient-2"/>
    <radialGradient id="radial-gradient-12" cx="0.5" cy="0.5" r="0.5" gradientTransform="translate(0)" gradientUnits="objectBoundingBox">
      <stop offset="0" stop-color="#3746a3"/>
      <stop offset="0.228" stop-color="#263070"/>
      <stop offset="0.479" stop-color="#151b40"/>
      <stop offset="0.701" stop-color="#090c1d"/>
      <stop offset="0.882" stop-color="#020307"/>
      <stop offset="1"/>
    </radialGradient>
    <linearGradient id="linear-gradient-9" x1="0.633" y1="0.938" x2="0.152" y2="-0.809" xlink:href="#linear-gradient-4"/>
    <linearGradient id="linear-gradient-10" x1="0" y1="0.5" x2="1" y2="0.5" xlink:href="#linear-gradient-6"/>
    <linearGradient id="linear-gradient-11" x1="0.333" y1="-0.437" x2="0.557" y2="0.841" gradientUnits="objectBoundingBox">
      <stop offset="0" stop-color="#ffa700"/>
      <stop offset="1" stop-color="#ffe069"/>
    </linearGradient>
    <clipPath id="clip-path">
      <path id="Elipse_4711-2" data-name="Elipse 4711-2" d="M278.507,17.258A178.742,178.742,0,1,1,99.765,196v0h0A178.742,178.742,0,0,1,278.507,17.258Z" fill="none"/>
    </clipPath>
    <linearGradient id="linear-gradient-12" x1="0.495" y1="0.012" x2="0.502" y2="0.925" gradientUnits="objectBoundingBox">
      <stop offset="0" stop-color="#7c7995"/>
      <stop offset="1" stop-color="#807191"/>
    </linearGradient>
    <linearGradient id="linear-gradient-13" x1="0.422" y1="-0.341" x2="0.592" y2="1.5" gradientUnits="objectBoundingBox">
      <stop offset="0"/>
      <stop offset="1" stop-color="#5ba9b2"/>
    </linearGradient>
    <linearGradient id="linear-gradient-14" x1="0.488" y1="-0.259" x2="0.496" y2="0.17" gradientUnits="objectBoundingBox">
      <stop offset="0" stop-color="#eec195"/>
      <stop offset="1" stop-color="#e69679"/>
    </linearGradient>
    <linearGradient id="linear-gradient-15" x1="0.526" y1="0.841" x2="0.634" y2="2.492" gradientUnits="objectBoundingBox">
      <stop offset="0.004" stop-color="#2f2f46"/>
      <stop offset="1" stop-color="#6a616e"/>
    </linearGradient>
    <linearGradient id="linear-gradient-16" x1="0.462" y1="0.992" x2="0.522" y2="0.143" xlink:href="#linear-gradient-14"/>
    <linearGradient id="linear-gradient-17" x1="-0.115" y1="1.02" x2="1.761" y2="-0.45" xlink:href="#linear-gradient-15"/>
    <linearGradient id="linear-gradient-18" x1="0.613" y1="1.579" x2="0.275" y2="-0.699" gradientUnits="objectBoundingBox">
      <stop offset="0" stop-color="#ad5e5e"/>
      <stop offset="1" stop-color="#fdab84"/>
    </linearGradient>
    <linearGradient id="linear-gradient-19" x1="0.188" y1="1.06" x2="0.68" y2="-0.039" gradientUnits="objectBoundingBox">
      <stop offset="0" stop-color="#d2cff1"/>
      <stop offset="1" stop-color="#faf1cc"/>
    </linearGradient>
    <linearGradient id="linear-gradient-20" x1="0.346" y1="1.316" x2="0.775" y2="-0.95" xlink:href="#linear-gradient-15"/>
    <linearGradient id="linear-gradient-21" x1="-0.414" y1="1.005" x2="2.498" y2="-0.358" xlink:href="#linear-gradient-15"/>
    <linearGradient id="linear-gradient-22" x1="1.259" y1="-0.347" x2="-0.433" y2="1.171" xlink:href="#linear-gradient-15"/>
    <linearGradient id="linear-gradient-23" x1="0.445" y1="1.292" x2="0.526" y2="0.135" gradientUnits="objectBoundingBox">
      <stop offset="0"/>
      <stop offset="1" stop-color="#aba9b2"/>
    </linearGradient>
    <linearGradient id="linear-gradient-24" x1="0.824" y1="0.077" x2="1.139" y2="-0.326" xlink:href="#linear-gradient-15"/>
    <linearGradient id="linear-gradient-25" x1="0.446" y1="1.079" x2="0.635" y2="0.179" xlink:href="#linear-gradient-23"/>
    <linearGradient id="linear-gradient-26" x1="0.292" y1="1.154" x2="0.516" y2="0.25" xlink:href="#linear-gradient-23"/>
    <linearGradient id="linear-gradient-27" x1="0.244" y1="0.759" x2="1.48" y2="-0.115" xlink:href="#linear-gradient-15"/>
    <linearGradient id="linear-gradient-28" x1="1.146" y1="-0.316" x2="-0.737" y2="1.71" xlink:href="#linear-gradient-15"/>
    <linearGradient id="linear-gradient-29" x1="0.176" y1="1.23" x2="1.231" y2="-0.622" xlink:href="#linear-gradient-23"/>
    <linearGradient id="linear-gradient-30" x1="0.216" y1="0.812" x2="1.372" y2="-0.629" gradientUnits="objectBoundingBox">
      <stop offset="0" stop-color="#496699"/>
      <stop offset="1" stop-color="#734ab5"/>
    </linearGradient>
    <linearGradient id="linear-gradient-31" x1="0.663" y1="0.399" x2="1.099" y2="-0.193" xlink:href="#linear-gradient-15"/>
    <linearGradient id="linear-gradient-32" x1="0.872" y1="-0.039" x2="1.08" y2="-0.44" xlink:href="#linear-gradient-15"/>
    <linearGradient id="linear-gradient-33" x1="-0.028" y1="1.51" x2="1.03" y2="-0.513" xlink:href="#linear-gradient-15"/>
    <linearGradient id="linear-gradient-34" x1="0.72" y1="1.535" x2="0.551" y2="0.731" xlink:href="#linear-gradient-14"/>
    <linearGradient id="linear-gradient-35" y1="0.5" x2="1" y2="0.5" gradientUnits="objectBoundingBox">
      <stop offset="0" stop-color="#ad5e5e"/>
      <stop offset="1" stop-color="#c16c52"/>
    </linearGradient>
    <linearGradient id="linear-gradient-36" x1="0.515" y1="1.081" x2="0.485" y2="0.242" gradientUnits="objectBoundingBox">
      <stop offset="0"/>
      <stop offset="1" stop-color="#ab634a"/>
    </linearGradient>
    <linearGradient id="linear-gradient-37" x1="0.503" y1="0.22" x2="0.474" y2="0.923" xlink:href="#linear-gradient-14"/>
    <linearGradient id="linear-gradient-38" x1="0.631" y1="-0.588" x2="0.446" y2="1.62" xlink:href="#linear-gradient-14"/>
    <linearGradient id="linear-gradient-39" x1="0.602" y1="3.695" x2="0.301" y2="-5.776" xlink:href="#linear-gradient-18"/>
    <linearGradient id="linear-gradient-40" x1="0.605" y1="1.033" x2="0.056" y2="-0.029" xlink:href="#linear-gradient-18"/>
    <linearGradient id="linear-gradient-41" x1="3.357" y1="2.753" x2="1.117" y2="0.986" xlink:href="#linear-gradient-36"/>
    <linearGradient id="linear-gradient-42" x1="0.551" y1="1.005" x2="0.348" y2="-0.313" xlink:href="#linear-gradient-36"/>
    <linearGradient id="linear-gradient-43" x1="0.575" y1="1.101" x2="-0.276" y2="-0.975" xlink:href="#linear-gradient-18"/>
    <linearGradient id="linear-gradient-44" x1="0" y1="0.5" x2="1" y2="0.5" xlink:href="#linear-gradient-35"/>
    <linearGradient id="linear-gradient-45" x1="-0.278" y1="9.299" x2="1.556" y2="-11.88" gradientUnits="objectBoundingBox">
      <stop offset="0.011" stop-color="#83443e"/>
      <stop offset="1" stop-color="#a37479"/>
    </linearGradient>
    <linearGradient id="linear-gradient-46" x1="-1.097" y1="12.082" x2="2.331" y2="-12.873" xlink:href="#linear-gradient-45"/>
    <linearGradient id="linear-gradient-47" x1="0.485" y1="0.987" x2="0.503" y2="-0.034" xlink:href="#linear-gradient-45"/>
    <linearGradient id="linear-gradient-48" x1="0.144" y1="1.861" x2="0.788" y2="-0.637" xlink:href="#linear-gradient-45"/>
    <linearGradient id="linear-gradient-49" x1="0.937" y1="4.318" x2="0.441" y2="-0.074" xlink:href="#linear-gradient-19"/>
    <linearGradient id="linear-gradient-50" x1="0.292" y1="1.573" x2="0.567" y2="-0.232" xlink:href="#linear-gradient-36"/>
    <linearGradient id="linear-gradient-51" x1="2.854" y1="-4.028" x2="-1.129" y2="3.962" xlink:href="#linear-gradient-15"/>
    <linearGradient id="linear-gradient-52" x1="0.61" y1="-0.283" x2="0.435" y2="1.034" xlink:href="#linear-gradient-14"/>
    <linearGradient id="linear-gradient-53" x1="0.335" y1="1.027" x2="0.701" y2="-0.002" xlink:href="#linear-gradient-36"/>
    <linearGradient id="linear-gradient-54" x1="-0.561" y1="1.008" x2="1.199" y2="0.171" xlink:href="#linear-gradient-36"/>
    <linearGradient id="linear-gradient-55" x1="0.509" y1="1.379" x2="0.491" y2="-0.12" xlink:href="#linear-gradient-23"/>
    <linearGradient id="linear-gradient-56" x1="0.172" y1="1.123" x2="1.148" y2="-0.738" xlink:href="#linear-gradient-15"/>
    <linearGradient id="linear-gradient-57" x1="0.178" y1="3.445" x2="0.724" y2="-1.122" xlink:href="#linear-gradient-45"/>
    <linearGradient id="linear-gradient-58" x1="0.123" y1="2.341" x2="1.075" y2="-1.974" xlink:href="#linear-gradient-45"/>
    <linearGradient id="linear-gradient-59" x1="-0.164" y1="1.212" x2="1.122" y2="-0.166" xlink:href="#linear-gradient-36"/>
    <linearGradient id="linear-gradient-60" x1="0.019" y1="1.453" x2="0.992" y2="-0.475" xlink:href="#linear-gradient-36"/>
    <linearGradient id="linear-gradient-61" x1="-0.111" y1="1.455" x2="1.129" y2="-0.482" xlink:href="#linear-gradient-36"/>
  </defs>
  <g id="Grupo_215598" data-name="Grupo 215598" transform="translate(-879.841 -150.57)">
    <g id="Grupo_78300" data-name="Grupo 78300" transform="translate(638.005 209.211)">
      <path id="Trazado_113504" data-name="Trazado 113504" d="M656.038,174.764a162.122,162.122,0,0,1-150.08,123.748,10.816,10.816,0,0,0-10.273,9.938v.008a10.828,10.828,0,0,0,9.865,11.709,11.221,11.221,0,0,0,1.335.031c81.6-3.56,151.3-61.331,170.26-140.4a10.821,10.821,0,0,0-8.1-12.986h0a10.716,10.716,0,0,0-1.594-.246h0A10.807,10.807,0,0,0,656.038,174.764Z" fill="#4dd0e1"/>
    </g>
    <path id="Elipse_4711-2-2" data-name="Elipse 4711-2" d="M278.507,17.258A178.742,178.742,0,1,1,99.765,196v0h0A178.742,178.742,0,0,1,278.507,17.258Z" transform="translate(849.063 133.313)" fill="#0f2771"/>
    <g id="Grupo_213686" data-name="Grupo 213686" transform="translate(849.063 133.313)">
      <path id="Trazado_224968" data-name="Trazado 224968" d="M66.921,275.438H41.566V41.606L76.815,62.168Z" fill="#fff7e0"/>
      <path id="Trazado_224969" data-name="Trazado 224969" d="M50.842,275.438H41.566V41.606l3.71,3.556Z" fill="#ffedb6"/>
      <rect id="Rectángulo_303234" data-name="Rectángulo 303234" width="35.867" height="10.204" transform="translate(34.764 266.162)" fill="#ffedb6"/>
      <path id="Trazado_224970" data-name="Trazado 224970" d="M59.191,276.365H34.764v-10.2H50.842Z" fill="#540041" opacity="0.3" style="mix-blend-mode: multiply;isolation: isolate"/>
      <rect id="Rectángulo_303235" data-name="Rectángulo 303235" width="43.837" height="3.401" transform="translate(30.779 273.459)" fill="#ffedb6"/>
      <g id="Grupo_213685" data-name="Grupo 213685">
        <rect id="Rectángulo_303236" data-name="Rectángulo 303236" width="15.146" height="1.855" transform="translate(41.586 258.722)" fill="#cba225"/>
        <rect id="Rectángulo_303237" data-name="Rectángulo 303237" width="11.75" height="1.855" transform="translate(41.586 252.182)" fill="#cba225"/>
        <rect id="Rectángulo_303238" data-name="Rectángulo 303238" width="11.75" height="1.855" transform="translate(41.586 245.641)" fill="#cba225"/>
        <rect id="Rectángulo_303239" data-name="Rectángulo 303239" width="11.75" height="1.855" transform="translate(41.586 239.101)" fill="#cba225"/>
        <rect id="Rectángulo_303240" data-name="Rectángulo 303240" width="15.146" height="1.855" transform="translate(41.586 232.561)" fill="#cba225"/>
        <rect id="Rectángulo_303241" data-name="Rectángulo 303241" width="11.75" height="1.855" transform="translate(41.586 226.021)" fill="#cba225"/>
        <rect id="Rectángulo_303242" data-name="Rectángulo 303242" width="11.75" height="1.855" transform="translate(41.586 219.481)" fill="#cba225"/>
        <rect id="Rectángulo_303243" data-name="Rectángulo 303243" width="11.75" height="1.855" transform="translate(41.586 212.941)" fill="#cba225"/>
        <rect id="Rectángulo_303244" data-name="Rectángulo 303244" width="15.146" height="1.855" transform="translate(41.586 206.401)" fill="#cba225"/>
        <rect id="Rectángulo_303245" data-name="Rectángulo 303245" width="11.75" height="1.855" transform="translate(41.586 199.861)" fill="#cba225"/>
        <rect id="Rectángulo_303246" data-name="Rectángulo 303246" width="11.75" height="1.855" transform="translate(41.586 193.321)" fill="#cba225"/>
        <rect id="Rectángulo_303247" data-name="Rectángulo 303247" width="11.75" height="1.855" transform="translate(41.586 186.78)" fill="#cba225"/>
        <rect id="Rectángulo_303248" data-name="Rectángulo 303248" width="15.146" height="1.855" transform="translate(41.586 180.24)" fill="#cba225"/>
        <rect id="Rectángulo_303249" data-name="Rectángulo 303249" width="11.75" height="1.855" transform="translate(41.586 173.7)" fill="#cba225"/>
        <rect id="Rectángulo_303250" data-name="Rectángulo 303250" width="11.75" height="1.855" transform="translate(41.586 167.16)" fill="#cba225"/>
        <rect id="Rectángulo_303251" data-name="Rectángulo 303251" width="11.75" height="1.855" transform="translate(41.586 160.62)" fill="#cba225"/>
        <rect id="Rectángulo_303252" data-name="Rectángulo 303252" width="15.146" height="1.855" transform="translate(41.586 154.08)" fill="#cba225"/>
        <rect id="Rectángulo_303253" data-name="Rectángulo 303253" width="11.75" height="1.855" transform="translate(41.586 147.54)" fill="#cba225"/>
        <rect id="Rectángulo_303254" data-name="Rectángulo 303254" width="11.75" height="1.855" transform="translate(41.586 141)" fill="#cba225"/>
        <rect id="Rectángulo_303255" data-name="Rectángulo 303255" width="11.75" height="1.855" transform="translate(41.586 134.46)" fill="#cba225"/>
        <rect id="Rectángulo_303256" data-name="Rectángulo 303256" width="15.146" height="1.855" transform="translate(41.586 127.92)" fill="#cba225"/>
        <rect id="Rectángulo_303257" data-name="Rectángulo 303257" width="11.75" height="1.855" transform="translate(41.586 121.379)" fill="#cba225"/>
      </g>
      <path id="Trazado_224971" data-name="Trazado 224971" d="M41.566,122.825l31.57,18.643,2.816-60.7L41.566,79.64Z" fill="#feca2e" opacity="0.3" style="mix-blend-mode: multiply;isolation: isolate"/>
    </g>
    <g id="Grupo_213689" data-name="Grupo 213689" transform="translate(849.063 133.313)">
      <g id="Grupo_213687" data-name="Grupo 213687">
        <path id="Trazado_224972" data-name="Trazado 224972" d="M377.486,215.375H392.37l5.132,20.147H372.868Z" fill="url(#linear-gradient)"/>
        <rect id="Rectángulo_303258" data-name="Rectángulo 303258" width="73.871" height="4.521" transform="translate(348.044 239.087)" fill="url(#radial-gradient)"/>
        <path id="Trazado_224973" data-name="Trazado 224973" d="M406.646,243.609h-58.6v-4.521h51.112Z" fill="#540041" opacity="0.3" style="mix-blend-mode: multiply;isolation: isolate"/>
        <path id="Trazado_224974" data-name="Trazado 224974" d="M397.563,235.311H373.24l-24.977,3.776H421.7Z" fill="url(#radial-gradient-2)"/>
        <path id="Trazado_224975" data-name="Trazado 224975" d="M373.24,235.311l-24.977,3.776H398.9Z" fill="#e5f8fb" opacity="0.5" style="mix-blend-mode: screen;isolation: isolate"/>
        <path id="Trazado_224976" data-name="Trazado 224976" d="M395.458,227.5l-3.088-12.123H377.487l-1.69,7.372Z" fill="#540041" opacity="0.3" style="mix-blend-mode: multiply;isolation: isolate"/>
      </g>
      <g id="Grupo_213688" data-name="Grupo 213688">
        <path id="Trazado_224977" data-name="Trazado 224977" d="M497.071,95.06a7.045,7.045,0,0,0-7.037-7.377H279.926a7.044,7.044,0,0,0-7.037,7.377L278.247,209.5H491.98Z" fill="url(#radial-gradient-3)"/>
        <path id="Trazado_224978" data-name="Trazado 224978" d="M497.071,95.912a7.045,7.045,0,0,0-7.037-7.377H279.926a7.044,7.044,0,0,0-7.037,7.377l5.358,114.439H491.98Z" fill="url(#linear-gradient-2)"/>
        <path id="Trazado_224979" data-name="Trazado 224979" d="M491.98,210.351H278.247l0,.022c.331,3.879,4.813,6.9,10.229,6.9H481.749C487.178,217.276,491.665,214.239,491.98,210.351Z" fill="url(#linear-gradient-3)"/>
        <path id="Trazado_224980" data-name="Trazado 224980" d="M485.27,204.566,490.142,94.7H279.818l4.872,109.864Z" fill="#bddcf6" fill-rule="evenodd"/>
        <path id="Trazado_224981" data-name="Trazado 224981" d="M478.029,204.566l3.708-101.083H288.223l4.482,101.083Z" fill-rule="evenodd" fill="url(#linear-gradient-4)"/>
        <path id="Trazado_224982" data-name="Trazado 224982" d="M493.185,183.4l3.886-87.491a7.045,7.045,0,0,0-7.037-7.377H350.444L359.4,93.99H491.629l-3.764,85.547Z" fill="url(#linear-gradient-5)"/>
        <path id="Trazado_224983" data-name="Trazado 224983" d="M486.635,173.773,490.141,94.7H368.5Z" fill="#e5f8fb" opacity="0.5" style="mix-blend-mode: soft-light;isolation: isolate"/>
      </g>
      <path id="Trazado_224984" data-name="Trazado 224984" d="M386.127,213.888a1.147,1.147,0,1,1-1.147-1.147A1.148,1.148,0,0,1,386.127,213.888Z" fill="#fff200" fill-rule="evenodd"/>
      <path id="Trazado_224985" data-name="Trazado 224985" d="M390.751,209.821c4.011,6.806-3.032,13.849-9.838,9.838a4.834,4.834,0,0,1-1.7-1.7c-4.012-6.807,3.031-13.85,9.838-9.839A4.829,4.829,0,0,1,390.751,209.821Z" fill-rule="evenodd" fill="url(#radial-gradient-4)" style="mix-blend-mode: screen;isolation: isolate"/>
      <path id="Trazado_224986" data-name="Trazado 224986" d="M481.736,103.483H288.223l.422,9.511,192.786-2.636Z" fill="#3ea6b4" fill-rule="evenodd"/>
      <path id="Trazado_224987" data-name="Trazado 224987" d="M304.89,108.408a1.485,1.485,0,1,1-1.485-1.485A1.484,1.484,0,0,1,304.89,108.408Z" fill="#feca2e" fill-rule="evenodd"/>
      <path id="Trazado_224988" data-name="Trazado 224988" d="M300.242,108.408a1.485,1.485,0,1,1-1.485-1.485A1.485,1.485,0,0,1,300.242,108.408Z" fill-rule="evenodd" fill="url(#linear-gradient-6)"/>
      <path id="Trazado_224989" data-name="Trazado 224989" d="M295.593,108.408a1.485,1.485,0,1,1-1.485-1.485A1.485,1.485,0,0,1,295.593,108.408Z" fill="#c5f4ff" fill-rule="evenodd"/>
      <path id="Trazado_224990" data-name="Trazado 224990" d="M346.218,125.791l-49.7.065-.405-10.409,49.909-.065Z" fill="#e0cadd" style="mix-blend-mode: multiply;isolation: isolate"/>
      <path id="Trazado_224991" data-name="Trazado 224991" d="M348.185,200.933l-48.718,0-2.647-71.216,49.4,0Z" fill="#e0cadd" style="mix-blend-mode: multiply;isolation: isolate"/>
      <path id="Trazado_224992" data-name="Trazado 224992" d="M411.138,200.933h-57.6l-.336-28.024h58.282Z" fill="#e0cadd" style="mix-blend-mode: multiply;isolation: isolate"/>
      <path id="Trazado_224993" data-name="Trazado 224993" d="M471.469,200.931l-56.045,0,.4-28.024,56.731,0Z" fill="#e0cadd" style="mix-blend-mode: multiply;isolation: isolate"/>
      <path id="Trazado_224994" data-name="Trazado 224994" d="M474.243,122.891H388.408l.006-4.461,86.413-2.725Z" fill="#e0cadd" style="mix-blend-mode: multiply;isolation: isolate"/>
      <path id="Trazado_224995" data-name="Trazado 224995" d="M275.965,132.233H319.2a6.66,6.66,0,0,1,6.321,4.56l20.7,80.15H283.455Z" fill="#540041" opacity="0.3" style="mix-blend-mode: multiply;isolation: isolate"/>
    </g>
    <g id="Grupo_213697" data-name="Grupo 213697" transform="translate(849.063 133.313)">
      <g id="Grupo_213693" data-name="Grupo 213693">
        <g id="Grupo_213690" data-name="Grupo 213690">
          <path id="Trazado_224996" data-name="Trazado 224996" d="M264.034,162.137a6.59,6.59,0,0,0-6.582-6.9H70.907a6.59,6.59,0,0,0-6.582,6.9l4.823,108.585H259.21Z" fill="url(#radial-gradient-5)"/>
        </g>
        <g id="Grupo_213691" data-name="Grupo 213691">
          <path id="Trazado_224997" data-name="Trazado 224997" d="M264.034,163.76a6.59,6.59,0,0,0-6.582-6.9H70.907a6.589,6.589,0,0,0-6.582,6.9l4.823,108.585H259.21Z" fill="url(#linear-gradient-7)"/>
        </g>
        <path id="Trazado_224998" data-name="Trazado 224998" d="M253,265.388l4.557-102.036H70.806l4.557,102.036Z" fill="#bddcf6" fill-rule="evenodd"/>
        <g id="Grupo_213692" data-name="Grupo 213692">
          <path id="Trazado_224999" data-name="Trazado 224999" d="M277.174,315.2l-17.935-43.087H69.082L51.147,315.2a10.619,10.619,0,0,0-.287,4.452h226.6A10.636,10.636,0,0,0,277.174,315.2Z" fill="url(#radial-gradient-6)"/>
          <path id="Trazado_225000" data-name="Trazado 225000" d="M128.2,311.419l1.578-7.152a3.15,3.15,0,0,1,3.075-2.47h62.607a3.148,3.148,0,0,1,3.075,2.47l1.578,7.152a3.149,3.149,0,0,1-3.075,3.828H131.279A3.149,3.149,0,0,1,128.2,311.419Z" fill="#abb4ce"/>
          <path id="Trazado_225001" data-name="Trazado 225001" d="M131.93,303.188h62.607a3.149,3.149,0,0,1,3.075,2.471l1.578,7.151a3.1,3.1,0,0,1-.1,1.672,3.135,3.135,0,0,0,1.031-3.063l-1.578-7.152a3.148,3.148,0,0,0-3.075-2.47H132.857a3.141,3.141,0,0,0-2.978,2.159A3.139,3.139,0,0,1,131.93,303.188Z" fill="#540041" opacity="0.3" style="mix-blend-mode: multiply;isolation: isolate"/>
          <path id="Trazado_225002" data-name="Trazado 225002" d="M53.153,324.907a12.9,12.9,0,0,0,9.972,4.718H265.2a12.9,12.9,0,0,0,9.973-4.718,10.642,10.642,0,0,0,2.293-5.254H50.86a10.633,10.633,0,0,0,2.293,5.254Z" fill="url(#radial-gradient-7)"/>
          <path id="Trazado_225003" data-name="Trazado 225003" d="M53.153,324.907a12.9,12.9,0,0,0,9.972,4.718H265.2a12.9,12.9,0,0,0,9.973-4.718,10.642,10.642,0,0,0,2.293-5.254H50.86a10.633,10.633,0,0,0,2.293,5.254Z" fill="url(#radial-gradient-8)"/>
          <path id="Trazado_225004" data-name="Trazado 225004" d="M269.637,326.146H58.685a13.478,13.478,0,0,1-5.473-1.174,12.9,12.9,0,0,0,9.913,4.653H265.2a12.9,12.9,0,0,0,9.913-4.653A13.474,13.474,0,0,1,269.637,326.146Z" fill="url(#radial-gradient-9)"/>
          <path id="Trazado_225005" data-name="Trazado 225005" d="M87.985,279.331H98.062c.158,0,.3-.043.315-.1l.977-3.318c.015-.052-.1-.094-.257-.094H89.153c-.157,0-.3.042-.315.094l-1.108,3.318C87.712,279.288,87.827,279.331,87.985,279.331Zm21.853-.1.809-3.318c.013-.052-.1-.094-.261-.094h-9.945c-.156,0-.295.042-.31.094l-.941,3.318c-.015.053.1.1.261.1h10.076C109.686,279.331,109.825,279.288,109.838,279.235Zm1.078.1h10.077c.158,0,.3-.043.306-.1l.642-3.318c.009-.052-.109-.094-.266-.094H111.73c-.157,0-.293.042-.305.094l-.774,3.318C110.639,279.288,110.758,279.331,110.916,279.331Zm11.466,0h10.076c.159,0,.294-.043.3-.1l.475-3.318c.007-.052-.114-.094-.27-.094h-9.945c-.157,0-.292.042-.3.094l-.606,3.318C122.1,279.288,122.223,279.331,122.382,279.331Zm21.87-3.508h-9.944c-.157,0-.29.042-.3.094l-.439,3.318c-.007.053.117.1.275.1h10.077c.158,0,.291-.043.3-.1l.307-3.318C144.532,275.865,144.409,275.823,144.252,275.823Zm11.573,0H145.313l-.288,3.508h10.652Zm11.289,0H156.6l-.11,3.508h10.651Zm11.288,0H167.89l.066,3.508h10.652Zm11.289,0H179.179l.243,3.508h10.651Zm11.289,0H190.468l.419,3.508h10.652Zm1.373,3.508H213l-.736-3.508H201.756Zm21.2-3.508H213.045l.773,3.508h10.651Zm17.489,0H224.611l.954,3.508h16.652ZM86.564,283.6H102.9c.161,0,.3-.044.319-.1l.931-3.424c.014-.053-.1-.1-.262-.1H87.768c-.159,0-.3.043-.32.1L86.305,283.5C86.286,283.559,86.4,283.6,86.564,283.6Zm17.777,0h10.237c.161,0,.3-.044.314-.1l.758-3.424c.012-.053-.108-.1-.267-.1h-10.1c-.159,0-.3.043-.313.1l-.9,3.424C104.06,283.559,104.179,283.6,104.341,283.6Zm21.917,0c.162,0,.3-.044.309-.1l.586-3.424c.009-.053-.113-.1-.272-.1h-10.1c-.159,0-.3.043-.308.1l-.722,3.424c-.011.055.11.1.272.1Zm11.681,0c.161,0,.3-.044.3-.1l.413-3.424c.007-.053-.117-.1-.276-.1h-10.1c-.159,0-.3.043-.3.1l-.549,3.424c-.009.055.115.1.276.1Zm1.539-3.523L139.1,283.5c-.006.055.12.1.281.1H149.62c.161,0,.295-.044.3-.1l.24-3.424c0-.053-.122-.1-.281-.1h-10.1C139.618,279.984,139.484,280.027,139.478,280.08Zm11.509-.1-.215,3.619h10.82l.072-3.619Zm11.5,0-.033,3.619h10.821l-.11-3.619Zm11.5,0,.149,3.619h10.821l-.293-3.619Zm11.5,0,.332,3.619h10.821l-.475-3.619Zm11.5,0,.513,3.619h10.821l-.657-3.619ZM220,283.6l-.84-3.619H208.479l.7,3.619Zm11.681,0-1.023-3.619H219.977l.879,3.619Zm10.758-3.619H231.758l1.064,3.619h10.821ZM84.8,288.013h23.076l.937-3.736H86.047Zm23.983,0h11l.748-3.736H109.679Zm11.9,0h11l.56-3.736H121.393Zm11.9,0h11l.372-3.736H133.108Zm22.9,0,.183-3.736H144.823l-.332,3.736Zm11.9,0-.005-3.736H156.537l-.143,3.736Zm11.9,0-.193-3.736H168.252l.045,3.736Zm11.9,0-.382-3.736H179.967l.233,3.736Zm11.9,0-.57-3.736H191.681l.422,3.736Zm11.9,0-.759-3.736H203.4l.61,3.736Zm.907,0h11l-.947-3.736H215.11Zm27.959-3.736H226.825l.986,3.736h17.3Zm-160.626,8.4h29.6l.856-3.863H84.531Zm30.555,0h11.181l.661-3.863H114.611Zm12.138,0h11.181l.467-3.863H126.555Zm12.138,0h11.181l.272-3.863H138.5Zm12.138,0h11.181l.077-3.863H150.442Zm12.138,0H173.53l-.117-3.863H162.385Zm12.138,0h11.181l-.312-3.863H174.328Zm12.138,0h11.181l-.507-3.863H186.272Zm12.138,0h11.181l-.7-3.863H198.215Zm12.138,0h11.181l-.9-3.863H210.158Zm12.138,0H234.22l-1.09-3.863H222.1Zm22.345-3.863H234.356l1.136,3.863h11.181ZM96.417,293.4H83l-1.333,3.992H95.331Zm12.174,0H97.381l-1.042,3.992h11.368Zm12.174,0h-11.21l-.841,3.992h11.368Zm92.412,0H121.729l-.64,3.992H213.9Zm12.174,0H214.142l.768,3.992h11.368Zm12.175,0h-11.21l.969,3.992h11.368Zm9.387,0h-8.127l1.175,3.992h8.285Z" fill="#48555e"/>
          <path id="Trazado_225006" data-name="Trazado 225006" d="M87.985,278.867H98.062c.158,0,.3-.043.315-.1l.977-3.318c.015-.052-.1-.093-.257-.093H89.153c-.157,0-.3.041-.315.093l-1.108,3.318C87.712,278.824,87.827,278.867,87.985,278.867Zm21.853-.1.809-3.318c.013-.052-.1-.093-.261-.093h-9.945c-.156,0-.295.041-.31.093l-.941,3.318c-.015.053.1.1.261.1h10.076C109.686,278.867,109.825,278.824,109.838,278.771Zm1.078.1h10.077c.158,0,.3-.043.306-.1l.642-3.318c.009-.052-.109-.093-.266-.093H111.73c-.157,0-.293.041-.305.093l-.774,3.318C110.639,278.824,110.758,278.867,110.916,278.867Zm11.466,0h10.076c.159,0,.294-.043.3-.1l.475-3.318c.007-.052-.114-.093-.27-.093h-9.945c-.157,0-.292.041-.3.093l-.606,3.318C122.1,278.824,122.223,278.867,122.382,278.867Zm21.87-3.507h-9.944c-.157,0-.29.041-.3.093l-.439,3.318c-.007.053.117.1.275.1h10.077c.158,0,.291-.043.3-.1l.307-3.318C144.532,275.4,144.409,275.36,144.252,275.36Zm11.573,0H145.313l-.288,3.507h10.652Zm11.289,0H156.6l-.11,3.507h10.651Zm11.288,0H167.89l.066,3.507h10.652Zm11.289,0H179.179l.243,3.507h10.651Zm11.289,0H190.468l.419,3.507h10.652Zm1.373,3.507H213l-.736-3.507H201.756Zm21.2-3.507H213.045l.773,3.507h10.651Zm17.489,0H224.611l.954,3.507h16.652ZM86.564,283.139H102.9c.161,0,.3-.044.319-.1l.931-3.424c.014-.053-.1-.1-.262-.1H87.768c-.159,0-.3.043-.32.1l-1.143,3.424C86.286,283.1,86.4,283.139,86.564,283.139Zm17.777,0h10.237c.161,0,.3-.044.314-.1l.758-3.424c.012-.053-.108-.1-.267-.1h-10.1c-.159,0-.3.043-.313.1l-.9,3.424C104.06,283.1,104.179,283.139,104.341,283.139Zm21.917,0c.162,0,.3-.044.309-.1l.586-3.424c.009-.053-.113-.1-.272-.1h-10.1c-.159,0-.3.043-.308.1l-.722,3.424c-.011.055.11.1.272.1Zm11.681,0c.161,0,.3-.044.3-.1l.413-3.424c.007-.053-.117-.1-.276-.1h-10.1c-.159,0-.3.043-.3.1l-.549,3.424c-.009.055.115.1.276.1Zm1.539-3.523-.376,3.424c-.006.055.12.1.281.1H149.62c.161,0,.295-.044.3-.1l.24-3.424c0-.053-.122-.1-.281-.1h-10.1C139.618,279.52,139.484,279.563,139.478,279.616Zm11.509-.1-.215,3.619h10.82l.072-3.619Zm11.5,0-.033,3.619h10.821l-.11-3.619Zm11.5,0,.149,3.619h10.821l-.293-3.619Zm11.5,0,.332,3.619h10.821l-.475-3.619Zm11.5,0,.513,3.619h10.821l-.657-3.619ZM220,283.139l-.84-3.619H208.479l.7,3.619Zm11.681,0-1.023-3.619H219.977l.879,3.619Zm10.758-3.619H231.758l1.064,3.619h10.821ZM84.8,287.55h23.076l.937-3.737H86.047Zm23.983,0h11l.748-3.737H109.679Zm11.9,0h11l.56-3.737H121.393Zm11.9,0h11l.372-3.737H133.108Zm22.9,0,.183-3.737H144.823l-.332,3.737Zm11.9,0-.005-3.737H156.537l-.143,3.737Zm11.9,0-.193-3.737H168.252l.045,3.737Zm11.9,0-.382-3.737H179.967l.233,3.737Zm11.9,0-.57-3.737H191.681l.422,3.737Zm11.9,0-.759-3.737H203.4l.61,3.737Zm.907,0h11l-.947-3.737H215.11Zm27.959-3.737H226.825l.986,3.737h17.3Zm-160.626,8.4h29.6l.856-3.863H84.531Zm30.555,0h11.181l.661-3.863H114.611Zm12.138,0h11.181l.467-3.863H126.555Zm12.138,0h11.181l.272-3.863H138.5Zm12.138,0h11.181l.077-3.863H150.442Zm12.138,0H173.53l-.117-3.863H162.385Zm12.138,0h11.181l-.312-3.863H174.328Zm12.138,0h11.181l-.507-3.863H186.272Zm12.138,0h11.181l-.7-3.863H198.215Zm12.138,0h11.181l-.9-3.863H210.158Zm12.138,0H234.22l-1.09-3.863H222.1Zm22.345-3.863H234.356l1.136,3.863h11.181ZM96.417,292.934H83l-1.333,3.992H95.331Zm12.174,0H97.381l-1.042,3.992h11.368Zm12.174,0h-11.21l-.841,3.992h11.368Zm92.412,0H121.729l-.64,3.992H213.9Zm12.174,0H214.142l.768,3.992h11.368Zm12.175,0h-11.21l.969,3.992h11.368Zm9.387,0h-8.127l1.175,3.992h8.285Z" fill="url(#radial-gradient-10)"/>
        </g>
      </g>
      <path id="Trazado_225007" data-name="Trazado 225007" d="M260.4,245.593l3.635-81.833a6.59,6.59,0,0,0-6.582-6.9H126.887l8.374,5.1H258.944l-3.521,80.016Z" fill="url(#linear-gradient-8)"/>
      <path id="Trazado_225008" data-name="Trazado 225008" d="M254.273,236.79l3.28-73.437H143.777Z" fill="#e5f8fb" opacity="0.5" style="mix-blend-mode: soft-light;isolation: isolate"/>
      <path id="Trazado_225009" data-name="Trazado 225009" d="M164.972,268.664a1.073,1.073,0,1,1-1.072-1.072A1.073,1.073,0,0,1,164.972,268.664Z" fill-rule="evenodd" fill="url(#radial-gradient-11)"/>
      <path id="Trazado_225010" data-name="Trazado 225010" d="M169.749,265.559a6.571,6.571,0,0,1-8.836,8.837,5.684,5.684,0,0,1-2.767-2.767,6.571,6.571,0,0,1,8.836-8.837A5.688,5.688,0,0,1,169.749,265.559Z" fill-rule="evenodd" fill="url(#radial-gradient-12)" style="mix-blend-mode: screen;isolation: isolate"/>
      <g id="Grupo_213694" data-name="Grupo 213694">
        <path id="Trazado_225011" data-name="Trazado 225011" d="M244.921,265.388l4.143-92.76H79.295l4.143,92.76Z" fill-rule="evenodd" fill="url(#linear-gradient-9)"/>
        <path id="Trazado_225012" data-name="Trazado 225012" d="M79.711,181.951l169.053-2.6.3-6.721H79.295Z" fill="#3ea6b4" fill-rule="evenodd"/>
        <path id="Trazado_225013" data-name="Trazado 225013" d="M98.536,177.19a1.778,1.778,0,1,1-1.778-1.778A1.778,1.778,0,0,1,98.536,177.19Z" fill="#feca2e" fill-rule="evenodd"/>
        <path id="Trazado_225014" data-name="Trazado 225014" d="M92.971,177.19a1.778,1.778,0,1,1-1.778-1.778A1.778,1.778,0,0,1,92.971,177.19Z" fill-rule="evenodd" fill="url(#linear-gradient-10)"/>
        <path id="Trazado_225015" data-name="Trazado 225015" d="M87.4,177.19a1.778,1.778,0,1,1-1.778-1.778A1.778,1.778,0,0,1,87.4,177.19Z" fill="#c5f4ff" fill-rule="evenodd"/>
        <path id="Trazado_225016" data-name="Trazado 225016" d="M124.808,197.442H84.443l-.555-11.363h40.641Z" fill="#e0cadd" style="mix-blend-mode: multiply;isolation: isolate"/>
        <path id="Trazado_225017" data-name="Trazado 225017" d="M243.171,194.212H166.486l0-4.87,76.985-1.253Z" fill="#e0cadd" style="mix-blend-mode: multiply;isolation: isolate"/>
      </g>
      <g id="Grupo_213695" data-name="Grupo 213695">
        <path id="Trazado_225018" data-name="Trazado 225018" d="M225.686,169.481c1.118,8.508,2.609,26.088,8.852,30.881l32.516-7.079-8.2-28.627Z" fill="#540041" opacity="0.3" style="mix-blend-mode: multiply;isolation: isolate"/>
        <path id="Trazado_225019" data-name="Trazado 225019" d="M270.252,191.81c.542.725-32.885,5.179-33.89,4.336-7.229-6.067-10.676-26.665-10.676-26.665l-.524-3.985,35.868-4.712.463,3.526S263.725,183.078,270.252,191.81Z" fill="#feca2e"/>
        <path id="Trazado_225020" data-name="Trazado 225020" d="M225.686,169.481l-.524-3.985,35.868-4.712.463,3.526Z" fill="#540041" opacity="0.2" style="mix-blend-mode: multiply;isolation: isolate"/>
      </g>
      <g id="Grupo_213696" data-name="Grupo 213696">
        <path id="Trazado_225021" data-name="Trazado 225021" d="M205.287,161.189c0,8.58-.812,26.2,4.754,31.77l33.162-2.783L238.8,160.725Z" fill="#540041" opacity="0.3" style="mix-blend-mode: multiply;isolation: isolate"/>
        <path id="Trazado_225022" data-name="Trazado 225022" d="M246.565,189.133c.443.789-33.28.851-34.166-.116-6.378-6.957-7.112-27.828-7.112-27.828v-4.02h36.176v3.557S241.231,179.625,246.565,189.133Z" fill="url(#linear-gradient-11)"/>
        <path id="Trazado_225023" data-name="Trazado 225023" d="M205.287,161.189v-4.02h36.176v3.556Z" fill="#540041" opacity="0.2" style="mix-blend-mode: multiply;isolation: isolate"/>
      </g>
    </g>
    <g id="Grupo_213733" data-name="Grupo 213733" transform="translate(849.063 133.313)">
      <g id="Grupo_213732" data-name="Grupo 213732" clip-path="url(#clip-path)">
        <g id="Grupo_213731" data-name="Grupo 213731">
          <g id="Grupo_213726" data-name="Grupo 213726">
            <path id="Trazado_225066" data-name="Trazado 225066" d="M338.055,408.63c0,.779-.009,1.843-.02,3.142-.063,5.251-.227,14.418-.43,24.669v.028c-.474,23.733-1.143,53.241-1.143,53.241l-32.96-1.228-9.957-.367s-1.593-22.29-3.86-42.339c-1.656-14.648-3.668-28.1-5.683-30.788a1.166,1.166,0,0,0-.919-.548.088.088,0,0,0-.044.008h-.074a.036.036,0,0,0-.027.008.317.317,0,0,0-.129.028.422.422,0,0,0-.047.011c-.008,0-.016.008-.027.008a.276.276,0,0,0-.044.019.15.15,0,0,0-.047.017.247.247,0,0,0-.046.019c-.008.008-.028.008-.036.019a1.09,1.09,0,0,0-.175.1c-.017.009-.028.009-.036.017a.258.258,0,0,1-.074.046.085.085,0,0,1-.036.028c-.09.063-.172.145-.274.227l-.038.039c-.017.008-.028.027-.044.046s-.027.028-.038.036c-.091.082-.173.184-.266.285a.212.212,0,0,0-.036.044c-.074.082-.145.176-.219.274a.424.424,0,0,0-.047.055,1.4,1.4,0,0,0-.09.121c-.047.063-.094.129-.137.192a1.283,1.283,0,0,0-.094.128c-.027.036-.054.083-.09.129a.37.37,0,0,1-.047.072c-.055.093-.118.194-.183.285a.247.247,0,0,1-.044.074c-.055.1-.121.211-.184.31a.326.326,0,0,0-.047.082c-.1.167-.191.332-.293.512-.027.047-.055.1-.082.157-.228.414-.458.872-.688,1.346-.055.1-.1.2-.146.3s-.09.192-.137.294c-.093.181-.175.375-.257.567a2.344,2.344,0,0,0-.1.219c-.055.118-.1.231-.156.349-.028.063-.066.137-.094.211,0,.008,0,.008-.008.016-.027.074-.063.14-.09.211-.028.055-.047.121-.074.176s-.055.137-.083.2c-.019.046-.038.082-.054.129-.039.074-.066.156-.1.238-.019.036-.036.082-.055.118-.035.1-.074.2-.109.285-.028.074-.066.145-.094.219s-.063.165-.1.247-.066.167-.1.258c-.019.047-.035.09-.054.145a1.458,1.458,0,0,0-.064.148.441.441,0,0,1-.038.091.885.885,0,0,0-.046.137c-.017.038-.036.082-.055.129-.036.082-.063.156-.091.238a.038.038,0,0,0-.008.028c-.074.175-.137.356-.211.532s-.137.364-.2.548-.137.367-.211.551-.145.392-.219.6c-.028.082-.055.164-.091.247-.1.285-.2.578-.312.86-.028.1-.064.192-.1.294-.1.293-.2.587-.31.88-.066.192-.129.384-.2.576-.137.43-.282.852-.43,1.283-.027.082-.055.164-.082.246-.017.066-.044.129-.063.195-.212.631-.422,1.264-.634,1.914-.035.118-.082.246-.118.367-.035.1-.065.208-.1.31-.669,2.089-1.327,4.214-1.96,6.3-.028.109-.055.211-.091.312-.109.37-.219.738-.326,1.1q-.345,1.164-.672,2.3c-.532,1.823-1.028,3.592-1.486,5.242-.7,2.536-1.31,4.8-1.784,6.585-.669,2.547-1.064,4.113-1.064,4.113v.027l-.5,5.245-2.648,27.811-.031.307-.233-.044-2.165-.4-14.1-2.615-26.418-4.891s.411-17.606,1.017-36.4v-.011c.027-.932.063-1.878.09-2.821.094-2.6.176-5.212.277-7.786,0-.164.008-.329.017-.5V437.4c.065-1.686.12-3.353.192-4.992.23-5.853.468-11.339.723-15.9.039-.724.074-1.42.121-2.089.238-4.077.494-7.227.74-8.968,1.1-7.731,6.936-33.746,10.4-48.926.118-.529.239-1.053.356-1.566.724-3.15,1.311-5.735,1.706-7.438.337-1.428.521-2.234.521-2.234s.559.137,1.565.376c1.275.309,3.243.786,5.672,1.354,1.327.313,2.8.661,4.368,1.025.88.2,1.795.414,2.73.625,2.051.475,4.222.96,6.421,1.456a.323.323,0,0,1,.1.019c1.017.22,2.05.447,3.078.667,9.234,2.006,18.429,3.775,21.9,3.775,2.8,0,9.116-.979,16.143-2.254l1.318.1h.009l10.187.786,6.347.486,12.219.943c.387,1.806.817,3.857,1.275,6.075.3,1.492.631,3.06.962,4.68,1.245,6.111,2.61,13.009,3.811,19.539.236,1.264.458,2.52.677,3.745C336.909,397.428,338.055,405.069,338.055,408.63Z" fill="url(#linear-gradient-12)"/>
            <g id="Grupo_213725" data-name="Grupo 213725">
              <path id="Trazado_225067" data-name="Trazado 225067" d="M307.029,373.115s6.283,21.092,8.078,23.336,17.053,4.039,17.053,4.039l-9.873-7.181Z" opacity="0.22" fill="url(#linear-gradient-13)" style="mix-blend-mode: screen;isolation: isolate"/>
              <path id="Trazado_225068" data-name="Trazado 225068" d="M233.88,356.511s47.121,7.629,55.2,5.833,9.873-5.385,17.054-6.731,21.989-4.039,21.989-4.039l-91.548-4.039Z" fill="#aa74a3" opacity="0.48" style="mix-blend-mode: multiply;isolation: isolate"/>
            </g>
          </g>
          <path id="Trazado_225069" data-name="Trazado 225069" d="M340.7,403.446v7.989l-2.668.337c-.011.809-.022,1.708-.038,2.693l-32.992,4.4V386.788Z" fill="#8274a8" opacity="0.34" style="mix-blend-mode: multiply;isolation: isolate"/>
          <path id="Trazado_225070" data-name="Trazado 225070" d="M277.863,369.516,280.154,409l2.644,4.935V409l2.467-39.479Z" fill="#8274a8" opacity="0.34" style="mix-blend-mode: multiply;isolation: isolate"/>
          <path id="Trazado_225071" data-name="Trazado 225071" d="M233.449,446.007c-4.934,2.467-4.934,0-4.934,0l-4.656,39.566-3.44-.636s.743-32.013,1.721-55.791l1.44-2.879S238.384,443.539,233.449,446.007Z" fill="#8274a8" opacity="0.48" style="mix-blend-mode: multiply;isolation: isolate"/>
          <path id="Trazado_225072" data-name="Trazado 225072" d="M258.261,421.53l-16.491,8.244s0,41.219,8.247,49.466c16.488,0,16.488-32.978,16.488-57.71l-6.665-14.048h23.292l8.105,5.8v32.976c0,16.542,7.374,33.077,12.265,42.22l-9.957-.367s-4.773-66.761-9.543-73.127a1.166,1.166,0,0,0-.919-.548.088.088,0,0,0-.044.008h-.074a.036.036,0,0,0-.027.008.317.317,0,0,0-.129.028.422.422,0,0,0-.047.011c-.008,0-.016.008-.027.008a.276.276,0,0,0-.044.019.15.15,0,0,0-.047.017.247.247,0,0,0-.046.019c-.008.008-.028.008-.036.019a1.09,1.09,0,0,0-.175.1c-.017.009-.028.009-.036.017a.258.258,0,0,1-.074.046.085.085,0,0,1-.036.028c-.09.063-.172.145-.274.227l-.038.039c-.017.008-.028.027-.044.046s-.027.028-.038.036c-.091.082-.173.184-.266.285a.212.212,0,0,0-.036.044c-.074.082-.145.176-.219.274a.424.424,0,0,0-.047.055,1.4,1.4,0,0,0-.09.121c-.047.063-.094.129-.137.192a1.283,1.283,0,0,0-.094.128c-.027.036-.054.083-.09.129a.37.37,0,0,1-.047.072c-.055.093-.118.194-.183.285a.247.247,0,0,1-.044.074c-.055.1-.121.211-.184.31a.326.326,0,0,0-.047.082c-.1.167-.191.332-.293.512-.027.047-.055.1-.082.157-.228.414-.458.872-.688,1.346-.055.1-.1.2-.146.3s-.09.192-.137.294c-.093.181-.175.375-.257.567a2.344,2.344,0,0,0-.1.219c-.055.118-.1.231-.156.349-.028.063-.066.137-.094.211,0,.008,0,.008-.008.016-.027.074-.063.14-.09.211-.028.055-.047.121-.074.176s-.055.137-.083.2c-.019.046-.038.082-.054.129-.039.074-.066.156-.1.238-.019.036-.036.082-.055.118-.035.1-.074.2-.109.285-.028.074-.066.145-.094.219s-.063.165-.1.247-.066.167-.1.258c-.019.047-.035.09-.054.145a1.458,1.458,0,0,0-.064.148.441.441,0,0,1-.038.091.885.885,0,0,0-.046.137c-.017.038-.036.082-.055.129-.036.082-.063.156-.091.238a.038.038,0,0,0-.008.028c-.074.175-.137.356-.211.532s-.137.364-.2.548-.137.367-.211.551-.145.392-.219.6c-.028.082-.055.164-.091.247-.1.285-.2.578-.312.86-.028.1-.064.192-.1.294-.1.293-.2.587-.31.88-.066.192-.129.384-.2.576-.137.43-.282.852-.43,1.283-.027.082-.055.164-.082.246-.017.066-.044.129-.063.195-.212.631-.422,1.264-.634,1.914-.035.118-.082.246-.118.367-.035.1-.065.208-.1.31-.669,2.089-1.327,4.214-1.96,6.3-.028.109-.055.211-.091.312-.34,1.155-.68,2.289-1,3.4-.532,1.823-1.028,3.592-1.486,5.242-.7,2.536-1.31,4.8-1.784,6.585-.669,2.547-1.064,4.113-1.064,4.113v.027l-3.178,33.363-16.5-3.06-22.978-4.255-3.44-.636s.743-32.013,1.721-55.791c.453-10.967.954-20.181,1.456-23.693,1.385-9.7,10.224-48.219,12.461-57.93l14.856,1.146,47.644,3.663,30.08,2.317,12.066.926-33.231,26.278-49.348,7.4Z" fill="#8274a8" opacity="0.34" style="mix-blend-mode: multiply;isolation: isolate"/>
          <path id="Trazado_225073" data-name="Trazado 225073" d="M309.94,376.919H270.461l-22.207,2.467V354.712l61.686,12.337Z" fill="#8274a8" opacity="0.48" style="mix-blend-mode: multiply;isolation: isolate"/>
          <path id="Trazado_225074" data-name="Trazado 225074" d="M340.7,388.551v22.884l-2.668.337c-.011.809-.022,1.708-.038,2.693-.077,5.406-.219,13.3-.392,21.976v.028l-13.39-6.7L299.48,421.53V363.819l1.22.732,8.225,4.93,11.167,6.706,14.593,8.756Z" fill="#8274a8" opacity="0.34" style="mix-blend-mode: multiply;isolation: isolate"/>
          <g id="Grupo_213727" data-name="Grupo 213727">
            <path id="Trazado_225075" data-name="Trazado 225075" d="M223.533,437.019c-.476.128-.962.247-1.456.339l-.257.055c-.229.037-.449.073-.678.1-.036.009-.082.009-.119.018-.11.009-.22.028-.329.037-1.906.146-3.674-.339-4.535-2.638-2.565-6.715-3.1-11.469-1.5-11.7s3.682,3.023,5.762,6.275c.375.6.925,1.621,1.594,2.9s1.484,2.83,2.363,4.4h-.018C224.092,436.873,223.808,436.946,223.533,437.019Zm3.051-10.149c-1.549-2.41-1.33-5.065-3.014-10.361-.21-.659-.44-1.347-.714-2.089-.5-1.328-1.1-2.8-1.87-4.452a24.575,24.575,0,0,0-4.085-5.99,36.581,36.581,0,0,0-3.169-3.124c-1.128-1.007-2.291-1.932-3.407-2.758a57.946,57.946,0,0,0-7.97-4.972l-15.389-.231-2.217-.026a43.42,43.42,0,0,1,1.841,3.956c.714,1.678,1.585,3.921,2.565,6.769.155.478.33.973.495,1.485a29.622,29.622,0,0,1,1.19,5.112c.687,4.709.532,9.736.751,15.48.066,1.749.331,6.708.527,10.348l.231,4.177,4.274,2.675.736.46,3.579,2.239L203.233,447l1.246.78,3.931,1.1,2.867,1.337v.01l5.852,2.738.607-.578c.062-.054.126-.128.2-.19,0-.01,0-.01.009-.01.074-.074.148-.157.229-.23.8-.8,1.989-2.006,3.262-3.426v-.008a53.557,53.557,0,0,0,3.471-4.249c.561-.773,1.082-1.549,1.53-2.31.174-.3.347-.6.5-.89.009-.007.009-.017.018-.026.082.119.161.236.24.349.063.091.125.178.187.265,2.216,3.114,3.868,3.972,5.747,2.17C237.448,439.684,228.663,430.122,226.584,426.87Z" fill="url(#linear-gradient-14)"/>
          </g>
          <path id="Trazado_225076" data-name="Trazado 225076" d="M233.127,443.83c-2,1.92-3.736.831-6.177-2.783q-.235.453-.509.917l-2.908-4.941.839-.218c-1.743-3.113-3.192-6.109-3.954-7.3-2.079-3.246-4.158-6.493-5.758-6.268s-1.062,4.979,1.495,11.7c.925,2.429,2.84,2.823,4.868,2.594-1.45.9-3.428,1.631-4.865.194-2.546-2.546-4.244-10.184-6.79-14.427-1.729-2.883-12.074-9.289-18.532-13.1a30.088,30.088,0,0,0-1.182-5.112c-1.179-3.563-2.235-6.294-3.063-8.26l.374-3.926,15.388.225s8.6,4.228,14.55,10.856a24.691,24.691,0,0,1,4.083,5.992c4.637,9.963,3.515,13.659,5.593,16.906S237.45,439.687,233.127,443.83Z" fill="#d47e6c" opacity="0.62" style="mix-blend-mode: multiply;isolation: isolate"/>
          <path id="Trazado_225077" data-name="Trazado 225077" d="M292.924,145.976V160.5l-45.39-5.447a13.275,13.275,0,0,1-1.492-2.526,12.982,12.982,0,0,1-.822-2.341c-.748-3.066-.4-7.064,4.295-10.424l0,0a18.629,18.629,0,0,1,1.648-1.048,15.94,15.94,0,0,1,4.88-1.7c4.521-.868,10-.455,15.2.441q.585.1,1.164.209.563.106,1.117.218a112.008,112.008,0,0,1,12.29,3.261c1.859.6,3.088,1.059,3.4,1.176l.079.029,2.063,2.063,1.343,1.344Z" fill="url(#linear-gradient-15)"/>
          <path id="Trazado_225078" data-name="Trazado 225078" d="M307.638,158.922l-.338.489-1.9,2.76-32.234,46.741-1.837,2.664-4.654-6.345-13.055-17.8-7.632-10.408-3.887-5.3-3.988-5.438L233,159.317l-1.62-2.209,6.9-3.452,3.635-1.818.424-.212.84-.42.59-.3,1.444-.722,1.159-.58,6.79-3.395,2.876-9.2,3.912-12.517.023-.075.4-1.282,1.714-5.484.1-.307.057-.181,10.326-1.721,11.461-1.911.383,2.126.736,4.089.784,4.361,1.66,9.219,1.152,6.4.363,2.018.1.569.368,2.043.24,1.331.169.939,2.933,2.042,7.426,5.173,4.322,3.011,1.624,1.131Z" fill="url(#linear-gradient-16)"/>
          <path id="Trazado_225079" data-name="Trazado 225079" d="M243.3,146.613l-23.137,87.673-.543,2.059-6.009,22.775L208.8,277.339v5.446s-3.631,3.632-1.815,10.894c1.062,4.248,3.367,40.178,5.1,69.272,1.227,20.646,2.165,37.85,2.165,37.85l-4.08.453-28.6,3.178s-13.037-82.563-14.526-110.551a48.08,48.08,0,0,1,0-7.464c1.1-8.789,10.172-49.476,18.375-81.051,5.355-20.616,10.34-37.347,12.49-38.781,2.641-1.76,13.382-6.505,23.754-10.927C232.691,150.953,243.3,146.613,243.3,146.613Z" fill="url(#linear-gradient-17)"/>
          <path id="Trazado_225080" data-name="Trazado 225080" d="M287.634,113.532s-1.98,2.546-1.7,3.4c.6,1.8,3.96,1.7,3.96,1.7s-3.112-1.7-3.112-2.546A8.543,8.543,0,0,1,287.634,113.532Z" fill="url(#linear-gradient-18)"/>
          <path id="Trazado_225081" data-name="Trazado 225081" d="M322.241,180.577,311.558,332.138l-2.9,41.086-69.591-5.092-4.792-116.453-3.694-89.773,11.881-12.73,31.4,41.585,28.006-39.039Z" fill="url(#linear-gradient-19)"/>
          <path id="Trazado_225082" data-name="Trazado 225082" d="M311.558,332.138l-2.9,41.086-69.59-5.092-4.793-116.453,5.641-94.016,33.1,41.584,26.309-28.854-27.157,31.4-24.612-28.854L253.5,228.1s11.881,29.7,13.579,35.644,16.973,10.184,18.67,10.184,5.092-30.552,5.092-30.552l3.395-56.012Z" fill="#7c89bc" opacity="0.29" style="mix-blend-mode: multiply;isolation: isolate"/>
          <path id="Trazado_225083" data-name="Trazado 225083" d="M246.71,217.918l15.276,53.466-1.7,91.656,49.223,8.487-5.941,1.7-60.255-4.243Z" fill="#7c89bc" opacity="0.41" style="mix-blend-mode: multiply;isolation: isolate"/>
          <path id="Trazado_225084" data-name="Trazado 225084" d="M251.165,138.714l-1.247.623A1.841,1.841,0,0,1,251.165,138.714Z" fill="url(#linear-gradient-20)"/>
          <path id="Trazado_225085" data-name="Trazado 225085" d="M258.428,269.439l-1.177,95.271-.059,4.747-.58,47.049H209.406l.763-15.252,1.915-38.3,2.768-55.383v-23.6l-1.241-24.845-.509-10.165-.884-17.676-.024-.464-.973-19.475,10.441-55.682.06-.323.393-2.1.13-.065,20.563-10.281,4.658-2.329,2.452-1.227a4.425,4.425,0,0,0-.4.425l0,0c-1.035,1.243-2.322,3.949-3.136,9.844-.125.9-.238,1.869-.337,2.921q-.059.6-.107,1.239c-.205,2.546-.332,5.522-.353,9-.026,4.035.092,8.748.4,14.252.8,14.3,2.9,33.926,7.114,60.879q.294,1.884.6,3.817l.065.408Q255.786,254.729,258.428,269.439Z" fill="url(#linear-gradient-21)"/>
          <path id="Trazado_225086" data-name="Trazado 225086" d="M378.259,313.017s-5.569,7.383-13.584,8.436c-6.925.916-20.849-5.853-24.541-7.722-.586-.3-.916-.476-.916-.476l.119,1.346.651,7.466,7.758,88.5h-.054l-6.99.871-2.665.338-33.866,4.232-1.795-26.564-1.1-16.379-.027-.375v-.01l-.174-2.61-.376-5.515-.467-6.961-.348-5.158-.146-2.116-2.657-39.3L295.973,294.6l-1.613-23.9-.366-5.34-.009-.1-1.063-15.783-.027-1.612-.165-7.915-.2-10.085-.137-7.1-.073-3.737-.074-3.472-.055-2.729-.036-2.226-.028-1.045-.045-2.427-.495-24.925-.055-2.794-.009-.449-.248-12.458-.128-6.211-.256-13.035-.037-1.529-.009-.788s.522.128,1.438.394c.4.119.879.256,1.42.43.055.018.11.028.165.046.11.037.229.073.348.11s.256.073.4.119c1.218.394,2.693.879,4.314,1.475,2.135.778,4.535,1.722,7.035,2.849.88.394,1.787.824,2.7,1.282.11.055.22.11.339.165,1,.5,2.024,1.044,3.05,1.612.009.009.018.009.028.028.329.339,1.392,3.453,1.667,3.6,8,4.506,15.957,9.38,19.117,12.531,3.518,3.527,8.757,19.447,13.832,35.945.019.064.046.128.064.2,5.359,17.432,10.544,35.46,13.338,40.113,5.45,9.078,10.891,19.97,12.7,29.047.348,1.713.751,4.132,1.182,6.925C375.869,293.862,378.259,313.017,378.259,313.017Z" fill="url(#linear-gradient-22)"/>
          <path id="Trazado_225087" data-name="Trazado 225087" d="M251.165,138.714l-1.247.623A1.841,1.841,0,0,1,251.165,138.714Z" opacity="0.22" fill="url(#linear-gradient-23)" style="mix-blend-mode: screen;isolation: isolate"/>
          <path id="Trazado_225088" data-name="Trazado 225088" d="M343.652,268.388a.712.712,0,0,0-.193.449.853.853,0,0,0,.129.4c.632,1.136,3.536,2.913,5.743,4.14,1.4.788,2.519,1.347,2.611,1.392l-1.035-.384-5.753-2.135-1.749-.65-.468-.174c-.009,0-.018-.009-.027-.009l-19.9-7.393-.77-.284a50.113,50.113,0,0,1-3.719,14.3c-.815,2.061-1.694,4.048-2.555,5.89-.4.852-.8,1.667-1.191,2.445-1.328,2.657-2.538,4.837-3.335,6.239a.371.371,0,0,0-.045.082c-.587,1.026-.944,1.6-.944,1.6l3.6,2.373,25.163,16.58.119,1.346.651,7.466,7.713,88.5h-.009l-6.99.871-2.665.338-33.866,4.232-1.795-26.564-1.109-16.379-.018-.375v-.01l-.183-2.61-.367-5.515-.476-6.961-.348-5.158-.137-2.116-2.657-39.3L295.973,294.6l-1.613-23.9-.366-5.34-.009-.1-1.063-15.783v-7.713a.3.3,0,0,1,.009-.083l.751.147.12.027,7.117,1.393,3,.6.852.165,2.711.531,8.482,1.668,1.631.32,1.255.247a6.121,6.121,0,0,1,.22-3.343c.723-2.492,2.326-4.956,2.326-5.991a62.919,62.919,0,0,1,.706-7.026c.751-5.459,1.841-11.643,1.841-11.643a30.972,30.972,0,0,1,4.314,8.648,17.446,17.446,0,0,1,.779,4.928c0,5.945,7.786,24.861,10.883,30.082v.01a4.011,4.011,0,0,0,1,1.309,8.453,8.453,0,0,0,3.087.23c3.582-.138,8.794-.834,8.794-.23C352.794,264.522,344.98,266.721,343.652,268.388Z" fill="url(#linear-gradient-24)"/>
          <path id="Trazado_225089" data-name="Trazado 225089" d="M253.955,241.747c-.085-.009-.169-.019-.253-.03a150.877,150.877,0,0,1-19.987-3.753c-4.744-1.221-9.217-2.6-13.363-4.055l-.081-.029c-2.773-.972-5.4-1.974-7.865-2.979l-.212-.086a138.913,138.913,0,0,1-21.308-10.728c-4.013-2.58-5.315-8.452-5.279-15.1,4.456-17.157,8.656-31.623,11.18-36.822a5.428,5.428,0,0,1,1.31-1.959c2.629-1.752,13.293-6.466,23.625-10.873l.128-.054.395-2.107.059-.312,20.737-10.369,7.066-3.533c-.552.508-1.536.821-2.641,1.6-1.651,1.167-3.573,3.381-4.727,8.854-.007.031-.013.063-.019.094q-.206.984-.374,2.113c-.683,4.57-.9,10.99-.249,20.094,1.022,14.326,4.179,35.3,11,66.181Q253.516,239.8,253.955,241.747Z" opacity="0.22" fill="url(#linear-gradient-25)" style="mix-blend-mode: screen;isolation: isolate"/>
          <path id="Trazado_225090" data-name="Trazado 225090" d="M346.891,205.143q-.06.289-.127.577c-1.831,7.968-7.229,15.221-17.545,21.156a88.53,88.53,0,0,1-10.593,4.988q-1.308.529-2.638,1.04c-.975.376-1.955.743-2.93,1.1-10.2,3.736-19.945,6.408-19.945,6.408,2.7-11.743,3.767-25.012,3.948-37.823.137-9.6-.227-18.945-.781-27.2-.353-5.241-.783-10.041-1.211-14.187-.532-5.17-1.063-9.322-1.438-12.039-.249-1.829-.431-3.008-.494-3.411l-.024-.156s.2.052.564.157c.149.042.329.094.534.156.993.295,2.609.8,4.637,1.537a94.93,94.93,0,0,1,9.818,4.189c.113.056.227.112.34.17,1,.5,2.025,1.041,3.051,1.611.712.4,1.427,2.992,2.141,3.395,7.907,4.46,15.735,9.265,18.859,12.389C336.58,172.726,341.815,188.647,346.891,205.143Z" opacity="0.22" fill="url(#linear-gradient-26)" style="mix-blend-mode: screen;isolation: isolate"/>
          <path id="Trazado_225091" data-name="Trazado 225091" d="M313.754,157.663l5.092,47.525-11.033,6.789,8.487,35.644,4.243.849-10.184-34.8,12.73-5.092Z" fill="url(#linear-gradient-27)"/>
          <path id="Trazado_225092" data-name="Trazado 225092" d="M322.239,223.023s5.74-30.6,6.689-35.881S332.52,171.7,332.52,171.7s-2.1,5.621-5.488,15.374S322.239,223.023,322.239,223.023Z" fill="url(#linear-gradient-28)"/>
          <path id="Trazado_225093" data-name="Trazado 225093" d="M297.061,202.589a21.317,21.317,0,0,1-4.981,4.539,20.137,20.137,0,0,1-10.575,3.152,21.842,21.842,0,0,1-8.343-1.367,24.635,24.635,0,0,1-6.49-3.682c-5.516-4.288-9.789-10.838-13.055-17.8a119.858,119.858,0,0,1-8.035-24.659c-1.006-4.63-1.418-7.652-1.418-7.652l-.978-3.912-.4-1.609-.044-.178-.087-.349-.5-1.986-.537-2.15,1.19-2.04.233-.4,7.066-3.533c-.552.508-1.536.821-2.641,1.6l2.452-1.227a1.841,1.841,0,0,1,1.247-.623,15.94,15.94,0,0,1,4.88-1.7l3.912-12.517a9.111,9.111,0,0,1-1.324-2.225l-.012-.045a.832.832,0,0,1-.03-.205c0-.354,0-.985,0-1.814,0-.184,0-.378,0-.58,0-.392,0-.816-.005-1.268,0-.134,0-.269,0-.407v-.018c0-.216,0-.438-.005-.664,0-.443-.008-.9-.012-1.38h0l.879-1.506,1.323,1.424.28.3.731.788.417.449,3.132,3.372,16.182,17.427s2.289.985,5.4,2.5c.7.342,1.442.711,2.21,1.1,1.6.816,3.311,1.728,4.976,2.688.719.414,1.43.838,2.12,1.267-.716.035-1.568.052-2.505.054.163.049.332.1.507.156.993.295,2.609.8,4.637,1.537l.087.062a19.223,19.223,0,0,1,3.787,3.362,12.308,12.308,0,0,1,1.609,4.331c.119.517.233,1.069.341,1.652.29,1.564.539,3.356.725,5.316C306.536,174.138,305.353,192.345,297.061,202.589Z" fill="#aa88a3" opacity="0.72" style="mix-blend-mode: multiply;isolation: isolate"/>
          <path id="Trazado_225094" data-name="Trazado 225094" d="M340.911,261.2s17.082.222,14.428,1.7c-15.276,8.487-4.131,11.514,0,13.579a21.508,21.508,0,0,1,9.335,8.487s-2.546-10.185-5.941-11.882-10.184-2.546-10.184-2.546l10.184-1.7s2.546-9.335.849-15.276a32.162,32.162,0,0,0-5.092-10.184l-7.638-21.217-13.579,20.368Z" opacity="0.22" fill="url(#linear-gradient-29)" style="mix-blend-mode: screen;isolation: isolate"/>
          <path id="Trazado_225095" data-name="Trazado 225095" d="M347.7,216.221l-6.588,84.907-1.05,13.538-62.821-5.332L278.6,261.7l1.495-52.524,2.3.072,60.213,1.877.849,5.092Z" fill="url(#linear-gradient-30)"/>
          <path id="Trazado_225096" data-name="Trazado 225096" d="M222.1,156.814,218.7,208.583l10.184,5.94-.849,30.552s24.611,25.46,27.157,29.7,2.546,16.125,2.546,16.125-3.394-12.73-5.092-15.276-26.308-25.46-26.308-25.46l1.7-32.249-13.579-8.487Z" fill="url(#linear-gradient-31)"/>
          <path id="Trazado_225097" data-name="Trazado 225097" d="M256.932,280.534c-1.686-2.134-5.872-7.291-11.341-12.943a124.933,124.933,0,0,0-11.084-10.26c-.98-.806-1.978-1.575-2.977-2.317a52.634,52.634,0,0,0-9.435-5.7c-1.576-.715-1.136-7.163-2.473-12.971l-.687-2.94c-1.777-7.466-3.628-14.639-3.628-14.639l.568,13.5.284,6.87-3.059,9.82-8.822,28.369s2.547,3.39.843,5.936-13.575,0-13.575,0l12.732,6.788s5.936,50.922-10.186,48.375c-11.322-1.786-21.81-28.69-27.05-44.546,1.493,27.984,14.528,110.555,14.528,110.555l7.585-.843,21.013-2.336-.76,15.252h47.2l.577-46.552.009-.495.055-4.754.028-4.763.055-9.82.009-.962v-.715l.339-57.737.009-1.878.046-7.264S257.454,281.2,256.932,280.534ZM208.8,282.788v-5.451l4.809-18.219,1.236,24.851v23.6l-2.766,55.383c-1.731-29.093-4.031-65.019-5.093-69.27C205.167,286.415,208.8,282.788,208.8,282.788Z" fill="url(#linear-gradient-32)"/>
          <path id="Trazado_225098" data-name="Trazado 225098" d="M198.053,166.244s9.618,29.609,11.315,34.7,4.244,15.276,4.244,15.276-.849-5.941-2.546-16.125S198.053,166.244,198.053,166.244Z" fill="url(#linear-gradient-33)"/>
          <g id="Grupo_213728" data-name="Grupo 213728">
            <path id="Trazado_225099" data-name="Trazado 225099" d="M261.137,100.9l-3.395,8.487a10.768,10.768,0,0,1-6.789-.849c-3.4-1.7-9.335-13.578-8.487-16.973a13.628,13.628,0,0,1,.636-1.954,7.716,7.716,0,0,1,6.154-4.835,7.125,7.125,0,0,1,6.789,2.546l3.481,9.284Z" fill="url(#linear-gradient-34)"/>
            <path id="Trazado_225100" data-name="Trazado 225100" d="M246.615,91.467s7.741-.511,6.79,4.243c-.849,4.243-.849,3.713-.849,4.668s3.4,3.819,3.4,3.819-5.092-.955-5.941-2.865,2.546-3.606,2.546-6.471S246.615,91.467,246.615,91.467Z" fill="url(#linear-gradient-35)"/>
            <path id="Trazado_225101" data-name="Trazado 225101" d="M259.526,96.6l-1.878.805s-.849-5.092-7.638-7.638c-3.17-1.189-5.415-.9-6.908-.162a7.716,7.716,0,0,1,6.154-4.835,7.125,7.125,0,0,1,6.789,2.546Z" opacity="0.54" fill="url(#linear-gradient-36)" style="mix-blend-mode: color-dodge;isolation: isolate"/>
          </g>
          <path id="Trazado_225102" data-name="Trazado 225102" d="M309.511,90.618c-.167.167-.17.725-.067,1.536.419,3.316,2.613,10.845,2.613,12.891,0,2.275-3.386,7.258-4.109,10.11a3.86,3.86,0,0,0-.135.923c0,.448,0,.895,0,1.343a20.134,20.134,0,0,1-.844,6.3,6.639,6.639,0,0,1-.356.826c-.055.112-.116.228-.18.349l-.093.174h0q-.048.09-.1.18c-.034.062-.069.124-.1.186-.232.41-.5.857-.783,1.33l-.2.323-.445.724c-.11.18-.223.363-.336.546-.026.04-.05.08-.074.119-.05.079-.1.16-.148.24l-.007.013c-.231.374-.464.755-.7,1.139-.04.064-.079.128-.116.192l-.116.193c-.137.227-.273.455-.406.683q-.11.188-.218.375l-.071.124c-.032.057-.064.114-.1.171s-.073.128-.109.192-.072.128-.108.193l-.1.188c-.113.207-.224.411-.332.614-.042.081-.085.161-.126.242a20.035,20.035,0,0,0-1.012,2.225c-.02.055-.04.109-.058.163-.039.108-.076.216-.109.322v0c-.02.061-.038.12-.055.18-.024.081-.046.161-.065.239-.01.035-.018.069-.027.1-.013.053-.024.1-.036.158s-.02.094-.028.141-.012.064-.017.1-.011.064-.015.1-.01.063-.013.093l-.009.066-.005.048c0,.043-.007.085-.01.128,0,.013,0,.026,0,.039,0,.055-.005.11-.005.163v.56c0,.985-.012,1.89-.076,2.693v.017c-.138,1.725-.528,2.973-1.62,3.519a16.348,16.348,0,0,1-4.389.351c-.846,0-1.77-.005-2.732-.027-.58-.011-1.174-.028-1.774-.049-5.278-.18-11-.651-11.473-1.124-.291-.291-2.684-2.584-5.7-5.574a176.413,176.413,0,0,1-12.428-13.242,8.048,8.048,0,0,1-1.359-2.195.832.832,0,0,1-.03-.205c0-.354,0-.985,0-1.814,0-.184,0-.378,0-.58,0-.392,0-.816-.005-1.268,0-.134,0-.269,0-.407v-.018c0-.216,0-.438-.005-.664,0-.443-.008-.9-.012-1.38h0c0-.025,0-.049,0-.074,0-.146,0-.294-.005-.443l0-.248q-.006-.5-.013-1.01c0-.085,0-.171,0-.256,0-.171,0-.344-.007-.516,0-.154-.005-.308-.008-.462,0-.107,0-.213-.006-.319l-.011-.591-.012-.609-.006-.273c-.008-.384-.018-.767-.028-1.147,0-.086,0-.172-.007-.259-.005-.207-.011-.414-.018-.619,0-.137-.007-.273-.012-.409-.121-3.829-.327-7.147-.678-7.85A105.7,105.7,0,0,1,253.99,87.75c-2.372-10.187-4.45-23.885-1.434-31.927.878-2.341,3.018-4.479,6-6.315a34.8,34.8,0,0,1,5.54-2.718c15.562-6.118,41.461-6.142,47.489,7h0q.264.574.476,1.184s-.74,12.581-.146,18.392c.041.413.089.791.146,1.127.848,5.092.848,6.79,0,8.487a8.756,8.756,0,0,0-.466,1.228C310.9,86.4,310.2,89.925,309.511,90.618Z" fill="url(#linear-gradient-37)"/>
          <path id="Trazado_225103" data-name="Trazado 225103" d="M311.591,84.208c-.694,2.192-1.387,5.717-2.08,6.41,0,0-.012.655-.067,1.536-.1,1.572-.332,3.861-.876,4.4-.849.848-9.335,0-9.335,0s-2.546-.849-2.546-5.092,5.092-8.487,5.092-8.487h9.335S311.321,83.5,311.591,84.208Z" fill="#d47e6c" opacity="0.57"/>
          <g id="Grupo_213729" data-name="Grupo 213729">
            <path id="Trazado_225104" data-name="Trazado 225104" d="M296.732,95.455s.278-6,1.886-7,7.684.116,8.61.88S309.4,94.24,309.4,94.24,301.963,96.658,296.732,95.455Z" fill="#fff"/>
            <path id="Trazado_225105" data-name="Trazado 225105" d="M306.022,91.509a3.437,3.437,0,1,1-3.437-3.437A3.437,3.437,0,0,1,306.022,91.509Z" fill="#51291c"/>
            <circle id="Elipse_16426" data-name="Elipse 16426" cx="1.528" cy="1.528" r="1.528" transform="translate(301.439 90.363)"/>
            <path id="Trazado_225106" data-name="Trazado 225106" d="M302.2,89.218c0,.633-.855,1.145-1.91,1.145s-1.909-.512-1.909-1.145.855-1.146,1.909-1.146S302.2,88.585,302.2,89.218Z" fill="#fff"/>
            <path id="Trazado_225107" data-name="Trazado 225107" d="M296.687,92.315s.848-5.94,4.243-5.94a10.239,10.239,0,0,1,6.789,2.546c.849.848,1.7,5.092,1.7,5.092-5.092-9.336-11.882-5.092-12.73,0Z" fill="#ffc799"/>
          </g>
          <path id="Trazado_225108" data-name="Trazado 225108" d="M301.779,116.927c0,.364-1.4.728-3.009,1.025-2.138.395-4.63.672-4.63.672h-1.7l4.244-31.4s2.909,16.446,3.356,23.32a16.825,16.825,0,0,1,.038,2.14A17.346,17.346,0,0,1,301.779,116.927Z" fill="url(#linear-gradient-38)"/>
          <path id="Trazado_225109" data-name="Trazado 225109" d="M291.029,117.775s-1.7,0-.849-.848,4.243,0,4.243,0Z" fill="url(#linear-gradient-39)"/>
          <path id="Trazado_225110" data-name="Trazado 225110" d="M294.989,118.624s4.244,0,5.092-1.7-1.7-13.579-1.7-13.579,1.7,12.73.849,13.579S294.989,118.624,294.989,118.624Z" fill="url(#linear-gradient-40)"/>
          <path id="Trazado_225111" data-name="Trazado 225111" d="M299.209,113.355c.146,1.4-.491,2.608-1.423,2.7s-1.807-.955-1.953-2.351.491-2.608,1.424-2.705S299.063,111.959,299.209,113.355Z" opacity="0.21" fill="url(#linear-gradient-41)" style="mix-blend-mode: color-dodge;isolation: isolate"/>
          <path id="Trazado_225112" data-name="Trazado 225112" d="M294.989,109.289s-1.7-19.52,0-19.52,4.244,19.52,4.244,19.52Z" opacity="0.54" fill="url(#linear-gradient-42)" style="mix-blend-mode: color-dodge;isolation: isolate"/>
          <path id="Trazado_225113" data-name="Trazado 225113" d="M301.779,116.927c0,.364-1.4.728-3.009,1.025l-.386-.177.849-.848.848-.849-.848-5.941a11.994,11.994,0,0,1,.848,2.546A17.346,17.346,0,0,1,301.779,116.927Z" fill="url(#linear-gradient-43)"/>
          <path id="Trazado_225114" data-name="Trazado 225114" d="M283.2,128.808s2.546,3.4,10.184,2.546,5.847-4.243,5.847-4.243l-5.093,1.7-4.243-.849-6.789-2.546Z" fill="#d47e6c" opacity="0.81"/>
          <path id="Trazado_225115" data-name="Trazado 225115" d="M279.808,127.111s2.546-2.546,4.243-1.7,9.241,1.7,10.938,1.7a11.825,11.825,0,0,0,6.035-1.7s-3.395,3.395-6.789,3.395-8.487-2.546-10.184-2.546a3.717,3.717,0,0,0-2.546.849Z" fill="url(#linear-gradient-44)"/>
          <path id="Trazado_225116" data-name="Trazado 225116" d="M311.911,73.366c-5.385.744-16.058,1.618-24.56-1.419a52.785,52.785,0,0,1-19.519-12.73l-8.487,21.217-.793-30.926-.055-2.172,5.6-.546,29.2-2.849,18.289,9.848h0q.264.574.476,1.184S311.317,67.555,311.911,73.366Z" fill="#d47e6c" opacity="0.57"/>
          <path id="Trazado_225117" data-name="Trazado 225117" d="M261.043,88.072s5.94-5.941,11.881-5.941c14.527,0,19.519,5.092,19.519,6.79s-1.7,6.789-4.243,6.789-10.184,2.546-15.276,1.7-5.941-2.546-5.941-2.546,7.638,1.7,10.184,0-5.94-4.243-5.94-4.243l-3.395,1.7S261.043,91.467,261.043,88.072Z" fill="#d47e6c" opacity="0.57"/>
          <path id="Trazado_225118" data-name="Trazado 225118" d="M267.832,92.693s0-3.4,2.546-4.244,8.486-1.7,10.184-.848,3.395,6.789,3.395,6.789-6.035,1.7-10.279.849S267.832,92.693,267.832,92.693Z" fill="#fff"/>
          <path id="Trazado_225119" data-name="Trazado 225119" d="M278.864,91.042a3.819,3.819,0,1,1-3.818-3.819A3.818,3.818,0,0,1,278.864,91.042Z" fill="#51291c"/>
          <path id="Trazado_225120" data-name="Trazado 225120" d="M277.167,91.467a1.7,1.7,0,1,1-1.7-1.7A1.7,1.7,0,0,1,277.167,91.467Z"/>
          <ellipse id="Elipse_16427" data-name="Elipse 16427" cx="2.122" cy="1.273" rx="2.122" ry="1.273" transform="translate(270.378 87.223)" fill="#fff"/>
          <path id="Trazado_225121" data-name="Trazado 225121" d="M266.983,92.315s2.546-4.243,6.79-4.243c6.842,0,7.638.849,7.638.849l2.546,5.092s.848-5.092-1.7-6.79-9.335-1.7-11.881,0A9.62,9.62,0,0,0,266.983,92.315Z" fill="#ffc799"/>
          <path id="Trazado_225122" data-name="Trazado 225122" d="M291.121,85.081c-.346,1.164-.945,2.142-1.978,2.142-2.546,0-21.217-5.092-21.217-5.092l-1.692-.845-1.7-.852s6.789-.849,7.638-.849,19.425,1.7,19.425,1.7A14.807,14.807,0,0,1,291.121,85.081Z" fill="url(#linear-gradient-45)"/>
          <path id="Trazado_225123" data-name="Trazado 225123" d="M299.233,85.62l.848-5.186s10.184.094,11.882-.754,0,4.243,0,4.243Z" fill="url(#linear-gradient-46)"/>
          <path id="Trazado_225124" data-name="Trazado 225124" d="M307.948,115.155a3.86,3.86,0,0,0-.135.923c0,.448,0,.895,0,1.343a20.134,20.134,0,0,1-.844,6.3,6.639,6.639,0,0,1-.356.826l-1.436-1.675s-5.94,2.546-11.881,1.7a44.969,44.969,0,0,0-7.354-.458c-3.858.111-7.074.914-7.074,3,0,3.394,2.547,1.7,2.547,1.7s.848,5.092,2.546,5.941c1.025.512,1.74-.523,3.64-1.422a12.859,12.859,0,0,1,5.7-1.124c6.789,0,6.789,2.546,6.789,2.546l.382.994v0c-.02.061-.038.12-.055.18-.024.081-.046.161-.065.239-.01.035-.018.069-.027.1-.013.053-.024.1-.036.158s-.02.094-.028.141-.012.064-.017.1-.011.064-.015.1-.01.063-.013.093l-.009.066-.005.048c0,.043-.007.085-.01.128,0,.013,0,.026,0,.039,0,.055-.005.11-.005.163v.56c0,.985-.012,1.89-.076,2.693v.017c-.138,1.725-.528,2.973-1.62,3.519a16.348,16.348,0,0,1-4.389.351c-.846,0-1.77-.005-2.732-.027-.58-.011-1.174-.028-1.774-.049-5.278-.18-11-.651-11.473-1.124-.291-.291-2.684-2.584-5.7-5.574a176.413,176.413,0,0,1-12.428-13.242,8.048,8.048,0,0,1-1.359-2.195.832.832,0,0,1-.03-.205c0-.354,0-.985,0-1.814,0-.184,0-.378,0-.58,0-.392,0-.816-.005-1.268,0-.134,0-.269,0-.407v-.018c0-.216,0-.438-.005-.664,0-.443-.008-.9-.012-1.38h0c0-.025,0-.049,0-.074,0-.146,0-.294-.005-.443l0-.248q-.006-.5-.013-1.01c0-.085,0-.171,0-.256,0-.171,0-.344-.007-.516,0-.154-.005-.308-.008-.462,0-.107,0-.213-.006-.319l-.011-.591-.012-.609-.006-.273c-.008-.384-.018-.767-.028-1.147,0-.086,0-.172-.007-.259-.005-.207-.011-.414-.018-.619,0-.137-.007-.273-.012-.409-.121-3.829-.327-7.147-.678-7.85A105.7,105.7,0,0,1,253.99,87.75l3.658-6.467s0,22.065,4.243,27.157c2.305,2.766,6.863,5.282,10.683,7a35.137,35.137,0,0,0,6.29,2.333,40.336,40.336,0,0,0,5.554-2.118c1.607-.687,2.933-1.276,2.933-1.276l-.849,2.546,2.547,1.7h6.789l5.941-1.7s2.546,1.7,3.394,1.7C305.49,118.624,306.637,117.084,307.948,115.155Z" fill="#d47e6c" opacity="0.57"/>
          <path id="Trazado_225125" data-name="Trazado 225125" d="M306.113,120.321a79.686,79.686,0,0,0-11.881-.852c-2.885,0-6.146.129-9.078.275-4.809.247-8.738.577-8.738.577l-4.251,2.547a13.2,13.2,0,0,1-1.832-.495l.9,1.347-1.594-1.594a18.7,18.7,0,0,1-2.574-1.191l.769,1.933a28.708,28.708,0,0,0-2.509-2.153c-.514-.394-1.1-.815-1.732-1.246a4.471,4.471,0,0,1-1.493-1.814,6.128,6.128,0,0,1-.321-.76c-.1-.256-.174-.513-.247-.769-.165-.257-.33-.522-.485-.8v1.594l-.284-1.118-.5-2.034a35.461,35.461,0,0,1-1.832-5.12c0,.137,0,.275.009.412.009.2.009.412.018.614a2.636,2.636,0,0,0,.009.266c.01.375.019.76.028,1.145v.274c.009.2.009.4.018.605s0,.394.009.595v.312c.009.156.009.311.009.467.01.174.01.348.01.513v.257c.009.338.018.677.018,1.007v.247c0,.156.009.3.009.449v.074c0,.476.009.934.009,1.383,0,.22,0,.449.009.659v.431c0,.449.01.87.01,1.264v2.391a.974.974,0,0,0,.027.211c.009.009.009.027.018.045.019.064.037.119.064.193a11.93,11.93,0,0,0,1.255,2.033c2.327,3.188,7.191,8.565,11.286,12.953,3.508,3.746,6.449,6.778,6.778,7.108.477.477,6.44.962,11.808,1.136l1.026.028c.641.009,1.255.027,1.85.027.147,0,.294.009.431.009h.568c.943-.009,1.8-.018,2.51-.055a7.392,7.392,0,0,0,2.171-.3c1.163-.577,1.575-2.556,1.713-4.837v-.018c.027-.33.036-.65.055-.98v-.018c.018-.559.018-1.127.027-1.695v-.724a.054.054,0,0,1,.009-.036.561.561,0,0,1,.01-.129v-.045c0-.028.009-.046.009-.065.009-.036.009-.064.018-.1s.009-.064.009-.092.009-.064.019-.1l.027-.137c.009-.055.028-.1.037-.156.009-.036.018-.073.027-.1a2.483,2.483,0,0,1,.064-.247c.019-.055.037-.11.055-.174.037-.11.073-.22.11-.33.018-.046.037-.1.055-.155a20.119,20.119,0,0,1,1.017-2.226c.036-.083.082-.165.128-.248.1-.2.22-.4.33-.613.037-.065.064-.119.1-.184s.073-.128.11-.192l.11-.192c.036-.055.064-.119.1-.174a1.416,1.416,0,0,0,.064-.129c.074-.119.147-.247.22-.366.138-.229.275-.458.4-.687a2.008,2.008,0,0,0,.119-.192c.037-.065.074-.129.119-.193.175-.284.349-.577.523-.861.055-.092.109-.183.174-.275,0-.009,0-.009.009-.018.046-.082.091-.156.146-.238a.8.8,0,0,1,.074-.119c.11-.183.219-.367.339-.55.146-.247.293-.485.439-.724.064-.109.129-.21.2-.32.284-.467.549-.916.778-1.328.037-.064.074-.129.1-.184a1.85,1.85,0,0,0,.1-.183c.037-.064.064-.119.1-.174.064-.119.119-.238.174-.348a7.765,7.765,0,0,0,.357-.824,20.211,20.211,0,0,0,.843-6.3C307.093,119.039,306.434,120.321,306.113,120.321Zm-5.157,8.455a.009.009,0,0,1-.009.009v.009a.028.028,0,0,1-.019.01,30.168,30.168,0,0,1-1.044,5.367c-.659,2.08-1.667,3.976-3.2,3.976-3.4,0-2.546-4.25-4.241-4.25-.9,0-2.482,1.4-4.278,2.6-1.64,1.109-3.444,2.052-5.056,1.649-3.4-.852-5.945-10.186-5.945-10.186a8.731,8.731,0,0,1,5.093-4.241,27.475,27.475,0,0,1,3.517-.523c5.744-.577,15.509-.824,16.846.523l.009.009a1.608,1.608,0,0,1,.467,1.172c0,1.512-1.658,3.362-2.079,3.811a.21.21,0,0,0-.037.046C300.974,128.767,300.965,128.776,300.956,128.776Z" fill="url(#linear-gradient-47)"/>
          <path id="Trazado_225126" data-name="Trazado 225126" d="M300.146,139.554c-.011.336-.026.668-.047.994v.017c-.145,2.279-.557,4.26-1.714,4.839a7.427,7.427,0,0,1-2.174.3h0c-.716.035-1.568.052-2.505.054h-.567l-.437,0c-.593-.006-1.211-.017-1.844-.032-.341-.009-.685-.018-1.033-.029-5.368-.172-11.325-.654-11.807-1.136-.326-.326-3.27-3.354-6.772-7.1-4.1-4.389-8.965-9.768-11.287-12.958a9.111,9.111,0,0,1-1.324-2.225l-.012-.045a.832.832,0,0,1-.03-.205c0-.354,0-.985,0-1.814,0-.184,0-.378,0-.58,0-.392,0-.816-.005-1.268,0-.134,0-.269,0-.407a15.981,15.981,0,0,0,1.616,4.917c.052.078.114.167.187.269a143.843,143.843,0,0,0,13.144,14.743c2.551,2.427,4.841,4.238,6.188,4.508,1.775.354,4-.329,6.1-1.247.367-.159.731-.325,1.088-.495.643-.305,1.263-.618,1.847-.916a13.487,13.487,0,0,1,3.693-1.586c1.7,0,4.244,5.092,5.941,4.244C299.139,142.009,299.727,140.79,300.146,139.554Z" fill="#aa7497" opacity="0.3" style="mix-blend-mode: multiply;isolation: isolate"/>
          <path id="Trazado_225127" data-name="Trazado 225127" d="M300.933,128.806c0-.006.017-.018.035-.037s.032-.035.055-.058v0c.54-.57,3.129-3.467,1.6-4.993-1.7-1.7-16.973-.849-20.368,0a8.768,8.768,0,0,0-5.092,4.243c-3.355,1.678-5.052-.789-5.091-.847.06.018,3.394.847,4.243,0,.6-.6-.849-1.7,1.7-4.244s11.033-1.7,13.579-1.7a45.692,45.692,0,0,1,6.789.849s5.092,0,5.941,1.7C305.161,125.389,301.05,128.712,300.933,128.806Z" fill="#aa7497" opacity="0.32" style="mix-blend-mode: multiply;isolation: isolate"/>
          <path id="Trazado_225128" data-name="Trazado 225128" d="M321.392,60.915c0,1.7-16.973,5.94-27.157,2.546s-26.309-7.638-26.309-7.638L262,51.215l-1.714-1.333,1.97,2.462,4.82,6.025-1.056,4.008-.8,3.025-8.427,32-.274-5.537L245.861,73.645s.005-.027.015-.078l.008-.041.01-.055.006-.029c.011-.061.025-.137.042-.224l.008-.045c.009-.046.018-.095.029-.147s.023-.122.036-.189c0-.022.009-.046.013-.069s.012-.06.018-.091l.022-.119.006-.025c.008-.042.016-.084.025-.127.017-.1.037-.2.058-.3s.041-.208.062-.319l.008-.038c.02-.1.039-.2.06-.307.027-.141.057-.288.087-.44l.023-.115a.459.459,0,0,1,.01-.051c.012-.061.024-.123.037-.185l0-.022q.034-.169.069-.348c.017-.083.034-.168.051-.254,0-.018.007-.035.01-.053.015-.07.029-.14.043-.21.026-.133.054-.269.082-.407.014-.069.028-.138.042-.209q.05-.246.1-.5c.017-.084.035-.17.052-.255l.039-.19c0-.024.009-.048.015-.072.036-.175.072-.353.11-.534q.033-.159.066-.321.053-.252.107-.511c.121-.585.25-1.193.384-1.817.024-.115.049-.231.074-.348s.05-.233.075-.351c.077-.352.155-.71.233-1.07l0-.017q.173-.784.353-1.588c.143-.641.291-1.288.441-1.934q.06-.254.118-.507l.033-.14c.076-.322.153-.645.229-.966.06-.247.119-.495.178-.74q.047-.183.09-.366c.044-.181.089-.36.133-.539s.1-.387.145-.578c.158-.625.317-1.239.475-1.836l.08-.3c.195-.725.39-1.423.584-2.085l.13-.44c.093-.308.184-.607.276-.9q.059-.186.117-.366c.078-.24.155-.473.232-.7.015-.043.03-.086.044-.128q.163-.471.323-.889l.064-.165.023-.058c.046-.119.092-.233.14-.343s.1-.244.153-.358l.054-.118a5.857,5.857,0,0,1,.638-1.12c.012-.015.022-.028.034-.041a1.535,1.535,0,0,1,.192-.2l.031-.025.031-.023a.505.505,0,0,1,.049-.031.286.286,0,0,1,.052-.027.275.275,0,0,1,.051-.021,5.886,5.886,0,0,1,4.242,0l0,0a4.758,4.758,0,0,1,.136-3.081,7.49,7.49,0,0,1,1.027-1.927,13.712,13.712,0,0,1,3.932-3.474c6.789-4.243,38.19-5.092,44.979,2.546a88.516,88.516,0,0,1,7.213,9.521c.12.181.24.361.357.54s.235.36.35.538q.262.4.513.8.378.591.735,1.168l.151.245q.281.453.544.893.164.271.321.538c.062.1.123.207.183.31.046.076.09.153.135.229s.1.177.154.265c.036.062.073.125.107.187s.064.109.1.164l.112.2c.041.073.083.145.123.217q.289.51.549.988c.046.084.09.166.134.248q.131.24.252.472c.051.1.1.193.151.288.032.061.063.122.093.181.093.179.18.353.263.521.029.056.056.111.082.166s.045.091.066.135l.013.027c.071.149.139.292.2.43l.014.031c.023.049.045.1.066.145.086.191.164.37.232.536.034.083.066.163.1.239.074.192.134.362.178.511.015.049.027.1.039.141s.017.071.024.1a.591.591,0,0,1,.013.069A.945.945,0,0,1,321.392,60.915Z" fill="url(#linear-gradient-48)"/>
          <g id="Grupo_213730" data-name="Grupo 213730" opacity="0.63">
            <path id="Trazado_225129" data-name="Trazado 225129" d="M289.049,95.8s-.086.688-.258,1.68a30.55,30.55,0,0,1-1.133,4.649,6.018,6.018,0,0,1-1.156,2.158c-1.7,1.7-19.519,0-21.216-.849-1.152-.576-1.913-4.281-2.283-6.6-.175-1.1-.263-1.885-.263-1.885l.128,0Z" fill="#d3f3f4"/>
            <path id="Trazado_225130" data-name="Trazado 225130" d="M317.632,94.107s0,.386-.035.988c-.089,1.521-.4,4.425-1.513,6.006a2.978,2.978,0,0,1-.59.644c-2.139,1.7-14.971,3.395-16.041,2.546s-1.069-8.487-1.069-8.487Z" fill="#d3f3f4"/>
            <path id="Trazado_225131" data-name="Trazado 225131" d="M264.437,95.71s.849,5.941,1.7,6.789,16.973,3.395,19.519,1.7a7.382,7.382,0,0,0,2-2.064,6.018,6.018,0,0,1-1.156,2.158c-1.7,1.7-19.519,0-21.216-.849-1.152-.576-1.913-4.281-2.283-6.6l-.135-1.881,26.181.844Z" fill="#fff0fe" style="mix-blend-mode: color-dodge;isolation: isolate"/>
            <path id="Trazado_225132" data-name="Trazado 225132" d="M299.453,96.559l2.139,6.789s11.576-.749,14.492-2.247a2.978,2.978,0,0,1-.59.644c-2.139,1.7-14.971,3.395-16.041,2.546s-1.069-8.487-1.069-8.487l19.248-1.7Z" fill="#fff0fe" style="mix-blend-mode: color-dodge;isolation: isolate"/>
          </g>
          <path id="Trazado_225133" data-name="Trazado 225133" d="M261.891,95.71l28.006.849s3.395-2.64,5.941-1.7,2.546,1.7,2.546,1.7l21.088-1.147V93.363L299.233,95.71s0-1.7-3.395-2.546S289.9,95.71,289.9,95.71l-28.006-1.7Z" fill="#36445b"/>
          <path id="Trazado_225134" data-name="Trazado 225134" d="M321.392,60.915c0,1.7-16.973,5.94-27.157,2.546s-26.309-7.638-26.309-7.638L262,51.215l-1.714-1.333,1.97,2.462,4.82,6.025-1.056,4.008-.8,3.025-8.427,32-.274-5.537L245.861,73.645s.005-.027.015-.078l.008-.041.01-.055.006-.029c.011-.061.025-.137.042-.224l.008-.045c.009-.046.018-.095.029-.147s.023-.122.036-.189c0-.022.009-.046.013-.069s.012-.06.018-.091l.022-.119.006-.025c.008-.042.016-.084.025-.127.017-.1.037-.2.058-.3s.041-.208.062-.319l.008-.038c.019-.1.039-.2.06-.307.027-.141.057-.288.087-.44l.023-.115a.459.459,0,0,1,.01-.051c.012-.061.024-.123.037-.185l0-.022q.034-.169.069-.348c.016-.084.033-.169.051-.254,0-.018.007-.035.01-.053.015-.07.029-.14.043-.21.026-.133.054-.269.082-.407.014-.069.028-.138.042-.209q.05-.246.1-.5c.017-.084.035-.17.052-.255l.039-.19c0-.024.009-.048.015-.072.036-.175.072-.353.11-.534q.033-.159.066-.321c.035-.169.07-.338.107-.511.121-.585.25-1.193.384-1.817.024-.115.049-.231.074-.348s.05-.233.075-.351c.077-.352.154-.71.233-1.07l0-.017q.171-.784.353-1.588c.143-.641.29-1.287.441-1.934q.06-.254.118-.507l.033-.14c.076-.322.153-.645.229-.966.06-.247.119-.495.178-.74.031-.122.06-.244.09-.366.044-.181.089-.36.133-.539.048-.194.1-.387.145-.578.158-.625.317-1.239.475-1.836l.08-.3c.195-.725.39-1.423.584-2.085l.13-.44c.093-.308.184-.607.276-.9q.059-.186.117-.366c.078-.24.155-.473.232-.7.015-.043.03-.086.044-.128q.163-.471.323-.889l.064-.165.023-.058c.046-.119.093-.233.14-.343s.1-.244.153-.358l.054-.118a5.857,5.857,0,0,1,.638-1.12c.012-.015.022-.028.034-.041a1.535,1.535,0,0,1,.192-.2l.031-.025.031-.023a.505.505,0,0,1,.049-.031.286.286,0,0,1,.052-.027.275.275,0,0,1,.051-.021,5.886,5.886,0,0,1,4.242,0l0,0a4.758,4.758,0,0,1,.136-3.081,7.49,7.49,0,0,1,1.027-1.927,15.66,15.66,0,0,0,8.93,9.256c5.092,1.7,37.341,10.184,44.979,4.243a5.424,5.424,0,0,0,2.215-4.906c.12.181.24.361.357.54s.235.36.35.538q.261.4.513.8.378.591.735,1.168l.151.245q.281.453.544.893.164.271.321.538c.062.1.123.207.183.31.046.076.09.153.135.229s.1.177.154.265c.036.062.073.125.107.187s.064.109.1.164l.112.2c.041.073.083.145.123.217q.289.51.549.988c.046.083.091.166.134.248q.131.24.252.472c.052.1.1.193.151.288.032.061.063.122.093.181.093.179.18.353.263.521.029.056.056.111.082.166s.045.091.066.135l.013.027q.108.223.2.43l.014.031c.023.049.045.1.066.145.086.191.164.37.232.536.035.083.066.163.1.239.074.192.134.362.178.511.015.049.027.1.039.141s.017.071.024.1a.591.591,0,0,1,.013.069A.945.945,0,0,1,321.392,60.915Z" fill="#aa7497" opacity="0.3" style="mix-blend-mode: multiply;isolation: isolate"/>
          <path id="Trazado_225135" data-name="Trazado 225135" d="M266.135,60.915l-.113,1.462L256.8,97.407l-.274-5.537L245.861,73.645s1.677-8.944,3.587-16.727a11.272,11.272,0,0,0,2.259,5.694C255.951,67.7,266.135,60.915,266.135,60.915Z" fill="#aa7497" opacity="0.3" style="mix-blend-mode: multiply;isolation: isolate"/>
          <path id="Trazado_225136" data-name="Trazado 225136" d="M321.392,60.915c0,1.7-16.973,5.94-27.157,2.546s-26.309-7.638-26.309-7.638L262,51.215l-.111-.484s5.941,4.243,7.638,4.243,26.309,7.638,36.493,6.789,11.993-6.816,11.654-8.363C319.927,57.139,321.392,60.126,321.392,60.915Z" fill="#aa7497" opacity="0.3" style="mix-blend-mode: multiply;isolation: isolate"/>
          <path id="Trazado_225137" data-name="Trazado 225137" d="M346.423,215.938l-.42.471s-63.649-2.546-63.649-5.941a.422.422,0,0,1,.042-.179l60.213,1.877Z" fill="url(#linear-gradient-49)"/>
          <path id="Trazado_225138" data-name="Trazado 225138" d="M289.143,215.372l56.86,3.4-5.092,44.13L310.36,248.47s-11.033-15.276-12.731-16.125S289.143,215.372,289.143,215.372Z" opacity="0.23" fill="url(#linear-gradient-50)" style="mix-blend-mode: color-dodge;isolation: isolate"/>
          <path id="Trazado_225139" data-name="Trazado 225139" d="M341.113,301.128l-1.05,13.538-62.821-5.332L278.6,261.7l30.914,7.134Z" fill="#aa74a3" style="mix-blend-mode: multiply;isolation: isolate"/>
          <path id="Trazado_225140" data-name="Trazado 225140" d="M321.392,262.9l-13.579,27.157,34.8,24.611,2.546-42.433Z" fill="url(#linear-gradient-51)"/>
          <path id="Trazado_225141" data-name="Trazado 225141" d="M321.392,262.9l-11.881,15.276-1.7,11.881,7.638-10.184Z" fill="#1f1f30"/>
          <path id="Trazado_225142" data-name="Trazado 225142" d="M283.2,223.01s-3.394,6.789-.848,11.881a15.755,15.755,0,0,1,1.7,9.336l14.427,5.94Z" fill="#aa74a3" style="mix-blend-mode: multiply;isolation: isolate"/>
          <path id="Trazado_225143" data-name="Trazado 225143" d="M320.543,265.915l-1.059,3-4.033,11.428-16.086-9.22s-24.862-1.97-26.732-3.26-7.8-24.7-7.8-24.7-2.884-1.991-2.909-4.812a4.186,4.186,0,0,1,.169-1.218c1-3.451,16.8-6.351,16.8-6.351l.053,3.235.1,6.353,0,.183,5.32,2.289,7.19,3.581s-.58-3.16-1.159-6.321-4.031-4.159-6.48-8.61-.741-12.93,2.419-13.511,5.481,12.061,7.641,14.931,7.77,6.74,9.93,9.611,3.9,12.35,6.061,15.22S320.543,265.915,320.543,265.915Z" fill="url(#linear-gradient-52)"/>
          <path id="Trazado_225144" data-name="Trazado 225144" d="M279.05,240.368c-3.561-1.185-7.3-2.5-7.729-2.931-.582-.582,4.42-2.36,7.625-3.422Z" fill="#d47e6c" opacity="0.43" style="mix-blend-mode: multiply;isolation: isolate"/>
          <path id="Trazado_225145" data-name="Trazado 225145" d="M319.484,268.914l-4.033,11.428-16.086-9.22s-24.862-1.97-26.732-3.26-7.8-24.7-7.8-24.7-2.884-1.991-2.909-4.812a7.909,7.909,0,0,0,3.457,4.18l6.79,3.395s-5.092-.849-5.092,0,1.7,5.941,2.545,6.789,30.552,16.125,32.25,16.125,2.546-2.546,2.546-2.546,0,4.243.848,5.941,9.336,3.394,9.336,3.394Z" fill="#d47e6c" opacity="0.23" style="mix-blend-mode: multiply;isolation: isolate"/>
          <path id="Trazado_225146" data-name="Trazado 225146" d="M286.6,217.918c-2.684,0-3.395,8.487.849,12.73s5.091.849,4.243-2.546S288.294,217.918,286.6,217.918Z" opacity="0.37" fill="url(#linear-gradient-53)" style="mix-blend-mode: color-dodge;isolation: isolate"/>
          <path id="Trazado_225147" data-name="Trazado 225147" d="M294.235,237.437s-1.7,5.941.849,10.184,11.032,11.882,12.729,11.033-2.546-13.579-4.243-15.276S295.932,236.589,294.235,237.437Z" opacity="0.37" fill="url(#linear-gradient-54)" style="mix-blend-mode: color-dodge;isolation: isolate"/>
          <path id="Trazado_225148" data-name="Trazado 225148" d="M323.089,263.746s28.855,11.032,32.25,12.73,9.335,11.033,8.486,12.73-42.433-18.671-42.433-18.671Z" opacity="0.22" fill="url(#linear-gradient-55)" style="mix-blend-mode: screen;isolation: isolate"/>
          <path id="Trazado_225149" data-name="Trazado 225149" d="M378.259,313.015s-5.565,7.38-13.585,8.44-25.46-8.2-25.46-8.2l-31.4-23.2L318,282.416s12.849,10.022,25.4,19.178c10.254,7.484,20.307,14.387,22.978,14.769,5.941.849,10.184-5.092,10.184-5.092L373.993,281.8C375.866,293.867,378.259,313.015,378.259,313.015Z" fill="url(#linear-gradient-56)"/>
          <path id="Trazado_225150" data-name="Trazado 225150" d="M252.706,84.253l10.034,9.76s.849,3.395-.849,3.395S252.706,85.1,252.706,85.1Z" fill="#36445b"/>
          <path id="Trazado_225151" data-name="Trazado 225151" d="M266.7,90.4s2.049-4.1,6.146-4.1S283.1,88.353,283.1,88.353H272.85Z" fill="url(#linear-gradient-57)"/>
          <path id="Trazado_225152" data-name="Trazado 225152" d="M298.32,89.055s5.421,0,7.228.9,4.517,2.71,4.517,2.71-1.807-3.614-3.614-4.517-6.324,0-6.324,0Z" fill="url(#linear-gradient-58)"/>
          <path id="Trazado_225153" data-name="Trazado 225153" d="M274.116,432.86l.632-2.171v.257C274.538,431.578,274.327,432.21,274.116,432.86Z" fill="#8274a8" opacity="0.48" style="mix-blend-mode: multiply;isolation: isolate"/>
          <path id="Trazado_225154" data-name="Trazado 225154" d="M196.978,442.183l.381,1.146-.737-.461-.2-1.018-.671-3.356Z" fill="#d47e6c" opacity="0.62" style="mix-blend-mode: multiply;isolation: isolate"/>
          <path id="Trazado_225155" data-name="Trazado 225155" d="M203.233,447l-2.295-1.435-.476-1.43-1.315-3.944,2.863,4.771Z" fill="#d47e6c" opacity="0.62" style="mix-blend-mode: multiply;isolation: isolate"/>
          <path id="Trazado_225156" data-name="Trazado 225156" d="M224.907,444.276a53.557,53.557,0,0,1-3.471,4.249v.008c-1.273,1.42-2.465,2.629-3.262,3.426-.081.073-.155.156-.229.23-.009,0-.009,0-.009.01-.074.062-.138.136-.2.19l-.607.578-5.852-2.738v-.01l-2.867-1.337-3.931-1.1-1.246-.78-2.295-1.435-3.579-2.239-.736-.46-4.274-2.675-.231-4.177.231-.922s0,3.4,1.7,5.1a14.79,14.79,0,0,0,2.371,1.657c.179.107.366.219.559.332,1.067.631,2.291,1.311,3.484,1.955.527.285,1.048.563,1.549.827,2.177,1.15,3.936,2.028,3.936,2.028l-1.7-6.8s6.8,10.2,11.9,10.2C219.037,450.393,222.474,447.116,224.907,444.276Z" fill="#d47e6c" opacity="0.34" style="mix-blend-mode: multiply;isolation: isolate"/>
          <path id="Trazado_225157" data-name="Trazado 225157" d="M214.145,438.8c1.93,4.278,2.108,8.373.4,9.145s-4.664-2.07-6.6-6.348-2.108-8.373-.4-9.145S212.214,434.518,214.145,438.8Z" opacity="0.37" fill="url(#linear-gradient-59)" style="mix-blend-mode: color-dodge;isolation: isolate"/>
          <path id="Trazado_225158" data-name="Trazado 225158" d="M204.213,435.946c.6,2.047.4,3.908-.457,4.157s-2.026-1.208-2.626-3.254-.394-3.908.457-4.157S203.614,433.9,204.213,435.946Z" opacity="0.37" fill="url(#linear-gradient-60)" style="mix-blend-mode: color-dodge;isolation: isolate"/>
          <path id="Trazado_225159" data-name="Trazado 225159" d="M197.036,434.436c.6,2.046.635,3.837.08,4s-1.49-1.365-2.089-3.411-.635-3.838-.08-4S196.437,432.389,197.036,434.436Z" opacity="0.37" fill="url(#linear-gradient-61)" style="mix-blend-mode: color-dodge;isolation: isolate"/>
          <path id="Trazado_225160" data-name="Trazado 225160" d="M265.526,465.746l.488-.976-2.648,27.811-.264.263-2.511,2.511c0-.4.129-1.442.346-2.912C262.058,484.822,265.526,465.746,265.526,465.746Z" fill="#8274a8" opacity="0.34" style="mix-blend-mode: multiply;isolation: isolate"/>
          <path id="Trazado_225161" data-name="Trazado 225161" d="M289.685,445.776c-1.656-14.648-3.668-28.1-5.683-30.788a1.166,1.166,0,0,0-.919-.548.088.088,0,0,0-.044.008h-.074a.036.036,0,0,0-.027.008.317.317,0,0,0-.129.028.422.422,0,0,0-.047.011c-.008,0-.016.008-.027.008a.276.276,0,0,0-.044.019.15.15,0,0,0-.047.017.247.247,0,0,0-.046.019c-.008.008-.028.008-.036.019a1.09,1.09,0,0,0-.175.1c-.017.009-.028.009-.036.017a.258.258,0,0,1-.074.046.085.085,0,0,1-.036.028c-.09.063-.172.145-.274.227l-.038.039c-.017.008-.028.027-.044.046s-.027.028-.038.036c-.091.082-.173.184-.266.285a.212.212,0,0,0-.036.044c-.074.082-.145.176-.219.274a.424.424,0,0,0-.047.055,1.4,1.4,0,0,0-.09.121c-.047.063-.094.129-.137.192a1.283,1.283,0,0,0-.094.128c-.027.036-.054.083-.09.129a.37.37,0,0,1-.047.072c-.055.093-.118.194-.183.285a.247.247,0,0,1-.044.074c-.055.1-.121.211-.184.31a.326.326,0,0,0-.047.082c-.1.167-.191.332-.293.512-.027.047-.055.1-.082.157-.228.414-.458.872-.688,1.346-.055.1-.1.2-.146.3s-.09.192-.137.294c-.093.181-.175.375-.257.567a2.344,2.344,0,0,0-.1.219c-.055.118-.1.231-.156.349-.028.063-.066.137-.094.211,0,.008,0,.008-.008.016-.027.074-.063.14-.09.211-.028.055-.047.121-.074.176s-.055.137-.083.2c-.019.046-.038.082-.054.129-.039.074-.066.156-.1.238-.019.036-.036.082-.055.118-.035.1-.074.2-.109.285-.028.074-.066.145-.094.219s-.063.165-.1.247-.066.167-.1.258c-.019.047-.035.09-.054.145a1.458,1.458,0,0,0-.064.148.441.441,0,0,1-.038.091.885.885,0,0,0-.046.137c-.017.038-.036.082-.055.129-.036.082-.063.156-.091.238a.038.038,0,0,0-.008.028c-.074.175-.137.356-.211.532s-.137.364-.2.548-.137.367-.211.551-.145.392-.219.6c-.028.082-.055.164-.091.247-.1.285-.2.578-.312.86-.028.1-.064.192-.1.294-.1.293-.2.587-.31.88-.066.192-.129.384-.2.576-.137.43-.282.852-.43,1.283-.027.082-.055.164-.082.246-.017.066-.044.129-.063.195-.212.631-.422,1.264-.634,1.914-.035.118-.082.246-.118.367-.035.1-.065.208-.1.31-.669,2.089-1.327,4.214-1.96,6.3-.028.109-.055.211-.091.312-.109.37-.219.738-.326,1.1,2.846-13.782,7.062-29.795,11.279-29.795C287.157,411.463,288.95,430.3,289.685,445.776Z" fill="#8274a8" opacity="0.34" style="mix-blend-mode: multiply;isolation: isolate"/>
        </g>
      </g>
    </g>
  </g>
</svg>
