<svg xmlns="http://www.w3.org/2000/svg" xmlns:xlink="http://www.w3.org/1999/xlink" width="46.871" height="47.856" viewBox="0 0 46.871 47.856">
  <defs>
    <linearGradient id="linear-gradient" y1="0.5" x2="1" y2="0.5" gradientUnits="objectBoundingBox">
      <stop offset="0" stop-color="#ffedb6"/>
      <stop offset="1" stop-color="#feca2e"/>
    </linearGradient>
    <linearGradient id="linear-gradient-2" x1="-23.578" y1="15.8" x2="-22.581" y2="15.8" gradientUnits="objectBoundingBox">
      <stop offset="0" stop-color="#ffedb6"/>
      <stop offset="0.998" stop-color="#ffedb6"/>
    </linearGradient>
  </defs>
  <g id="Grupo_215598" data-name="Grupo 215598" transform="translate(-1180.94 -154.645)">
    <g id="Grupo_213742" data-name="Grupo 213742" transform="translate(849.063 133.313)">
      <path id="Trazado_225162" data-name="Trazado 225162" d="M360.274,22.539c-11.577-2.058-22.737,5.515-26.048,16.715s1.934,23.623,12.768,28.193c12.2,5.145,26.605-1.444,30.713-15.335S373.308,24.855,360.274,22.539Zm-11.327,38.3c-7.854-3.015-11.821-11.883-9.415-20.02s10.559-13.422,18.789-11.68c8.948,1.893,14.526,11.232,11.725,20.7S357.486,64.12,348.947,60.843Z" fill="#cba225"/>
      <path id="Trazado_225163" data-name="Trazado 225163" d="M358.909,21.67c-11.576-2.057-22.736,5.516-26.048,16.715s1.935,23.624,12.768,28.194c12.2,5.145,26.606-1.444,30.714-15.336S371.944,23.987,358.909,21.67Zm-11.327,38.3c-7.853-3.014-11.821-11.882-9.415-20.02s10.559-13.421,18.789-11.68c8.949,1.894,14.527,11.233,11.726,20.7S356.121,63.252,347.582,59.974Z" fill="url(#linear-gradient)"/>
      <path id="Trazado_225164" data-name="Trazado 225164" d="M358.345,23.578c-10.614-1.99-20.927,4.918-23.982,15.251s1.841,21.739,11.83,25.842c11.135,4.573,24.161-1.516,27.882-14.1S370.176,25.8,358.345,23.578ZM347.061,61.736C338.4,58.323,334.069,48.5,336.722,39.527s11.628-14.862,20.755-13.014c10.016,2.029,16.337,12.434,13.2,23.054S356.57,65.481,347.061,61.736Z" fill="url(#linear-gradient-2)"/>
      <g id="Grupo_213734" data-name="Grupo 213734" opacity="0.3" style="mix-blend-mode: multiply;isolation: isolate">
        <path id="Trazado_225165" data-name="Trazado 225165" d="M347.526,62.666C357.035,66.411,368,61.117,371.138,50.5a18.645,18.645,0,0,0-1.34-14.159,18.706,18.706,0,0,1,.875,13.229c-3.14,10.62-14.1,15.914-23.612,12.168a17.267,17.267,0,0,1-8.994-8.2A17.359,17.359,0,0,0,347.526,62.666Z" fill="#540041"/>
        <path id="Trazado_225166" data-name="Trazado 225166" d="M334.828,39.76c3.055-10.333,13.368-17.241,23.982-15.252A20.282,20.282,0,0,1,373,35a20.315,20.315,0,0,0-14.656-11.421c-10.614-1.989-20.927,4.918-23.982,15.251A22.035,22.035,0,0,0,336.01,55.35,22.05,22.05,0,0,1,334.828,39.76Z" fill="#540041"/>
      </g>
      <path id="Trazado_225167" data-name="Trazado 225167" d="M368.881,53.731a17.732,17.732,0,0,1-21.82,8.005C338.4,58.323,334.069,48.5,336.722,39.527s11.628-14.862,20.755-13.014c.048.01.1.023.143.033l.869-2.937c-.049-.01-.1-.022-.144-.031-10.614-1.99-20.927,4.918-23.982,15.251s1.841,21.739,11.83,25.842c9.738,4,20.938-.167,26.132-9.848Z" fill="#feca2e"/>
      <g id="Grupo_213735" data-name="Grupo 213735" opacity="0.8" style="mix-blend-mode: soft-light;isolation: isolate">
        <path id="Trazado_225168" data-name="Trazado 225168" d="M347.061,61.735a17.162,17.162,0,0,1-8.223-6.862,17.244,17.244,0,0,0,8.688,7.607,17.732,17.732,0,0,0,21.82-8.005l2.693.854c.1-.168.194-.334.286-.506l-3.444-1.092A17.731,17.731,0,0,1,347.061,61.735Z" fill="#e5f8fb"/>
        <path id="Trazado_225169" data-name="Trazado 225169" d="M334.828,39.573c3.007-10.167,13.04-17.012,23.474-15.333l.187-.631c-.049-.01-.1-.022-.144-.031-10.614-1.989-20.927,4.918-23.982,15.251A21.993,21.993,0,0,0,337,57.022,22.019,22.019,0,0,1,334.828,39.573Z" fill="#e5f8fb"/>
      </g>
    </g>
  </g>
</svg>
