<svg xmlns="http://www.w3.org/2000/svg" width="400" height="257" viewBox="0 0 400 257">
  <g id="Grupo_215604" data-name="Grupo 215604" transform="translate(-180 -2821)">
    <g id="Grupo_215545" data-name="Grupo 215545" transform="translate(0 30)">
      <rect id="Rectángulo_303862" data-name="Rectángulo 303862" width="400" height="257" transform="translate(180 2791)" fill="none"/>
      <g id="Secure_Server-pana" data-name="Secure Server-pana" transform="translate(147.608 2791)">
        <g id="freepik--background-complete--inject-115" transform="translate(63.965 0)">
          <path id="Trazado_227489" data-name="Trazado 227489" d="M542,120.91h58.441v76.212L542,198.583Z" transform="translate(-542 -120.91)" fill="#e0e0e0"/>
          <path id="Trazado_227490" data-name="Trazado 227490" d="M546.05,124.08h51.136V193.2l-51.136,1.726Z" transform="translate(-542.205 -121.372)" fill="#fafafa"/>
          <path id="Trazado_227491" data-name="Trazado 227491" d="M555.7,138.56l33.937-1.29v48.316H555.7Z" transform="translate(-542.901 -123.292)" fill="#e0e0e0"/>
          <path id="Trazado_227492" data-name="Trazado 227492" d="M589.637,185.586,555.7,160.766l33.937-23.5Z" transform="translate(-542.901 -123.292)" fill="#ebebeb"/>
        </g>
        <g id="freepik--Character--inject-115" transform="translate(87.058 61.731)">
          <path id="Trazado_227511" data-name="Trazado 227511" d="M520.026,196.6a4.272,4.272,0,0,1,4.99-2.913,7.928,7.928,0,0,0,2.341.59,6.187,6.187,0,0,0,1.991-.709,6.357,6.357,0,0,1,8.125,3.546,5.827,5.827,0,0,1,8.45,6.647,5.126,5.126,0,0,1,1.008,9.766,5.742,5.742,0,0,1-4.272,8.493,5.229,5.229,0,0,1-8.177,5.041,5.195,5.195,0,0,1-9.347,1.709c-1.769,1.8-4.981,1.538-6.835-.171a8.221,8.221,0,0,1-2.2-6.955,5.4,5.4,0,0,1-5.853-8.45,4.759,4.759,0,0,1-4.058-3.332,5.981,5.981,0,0,1,1.025-5.28,7.989,7.989,0,0,1,4.665-2.854,6.117,6.117,0,0,1,7.69-4.836" transform="translate(-483.943 -193.161)" fill="#263238"/>
          <path id="Trazado_227512" data-name="Trazado 227512" d="M526.89,338.76,529,406.292h3.213l-.624-67.352Z" transform="translate(-483.955 -214.36)" fill="#455a64"/>
          <path id="Trazado_227513" data-name="Trazado 227513" d="M566,337.81l-15.858,71.274-3.443-.162,13.1-71.112Z" transform="translate(-534.668 -214.222)" fill="#455a64"/>
          <path id="Trazado_227514" data-name="Trazado 227514" d="M486.01,338.709l18.481,70.462,4.076-.162-17.378-70.6Z" transform="translate(-425.38 -214.309)" fill="#455a64"/>
          <path id="Trazado_227515" data-name="Trazado 227515" d="M497.446,257s-17.259-.983-15.533,18.985,2.717,40.157,9.125,47.086,70.992,7.143,76.418,1.478-10.355-5.425-13.311-5.425-21.2,1.709-27.119-13.807S522.591,255.988,497.446,257Z" transform="translate(-481.792 -202.452)" fill="#455a64"/>
          <path id="Trazado_227516" data-name="Trazado 227516" d="M496.357,257s-13.192,2.7-11.962,16.507,4.682,37.961,11.107,44.13,31.527,7.5,45.112,6.656c15.781-.991,25.743-3.99,25.743-3.99s2.879,1.854,2,3.042-8.544,5.981-45.856,5.195-34.7-6.305-36.244-12.312-4.793-38.055-4.34-45.1S485.9,258.222,496.357,257Z" transform="translate(-481.805 -202.456)" fill="#455a64"/>
          <path id="Trazado_227517" data-name="Trazado 227517" d="M476.611,414.847l.043-7.878-14.713-.179-.188,11.492.914.068c4.05.273,20.651,1.111,23.376.325C489.077,417.812,476.611,414.847,476.611,414.847Z" transform="translate(-382.609 -224.265)" fill="#4dd0e1"/>
          <g id="Grupo_215541" data-name="Grupo 215541" transform="translate(79.17 189.71)" opacity="0.4">
            <path id="Trazado_227518" data-name="Trazado 227518" d="M489.806,419.481a5.127,5.127,0,0,0-1.837-3.161,4.947,4.947,0,0,0-3.418-1.111l-.051,4.11Z" transform="translate(-484.5 -415.2)"/>
          </g>
          <path id="Trazado_227519" data-name="Trazado 227519" d="M482.67,418.17s4.366,1.316,3.811,2.033-17.361.5-24.778-.239v-.333l19.6.419S481.807,418.2,482.67,418.17Z" transform="translate(-382.575 -225.922)" opacity="0.4"/>
          <path id="Trazado_227520" data-name="Trazado 227520" d="M461.77,419.87h.256l.726.051,2.666.145c2.264.111,5.383.222,8.835.273s6.57,0,8.834,0l2.674-.077H474.253c-3.452,0-6.57-.137-8.826-.214l-2.674-.094h-.726Z" transform="translate(-382.847 -226.17)" fill="#263238"/>
          <path id="Trazado_227521" data-name="Trazado 227521" d="M466.1,420.256a5.851,5.851,0,0,1,.513-1.273,6.346,6.346,0,0,1,.923-.983,2.35,2.35,0,0,0-1.435,2.281Z" transform="translate(-367.341 -225.898)" fill="#263238"/>
          <path id="Trazado_227522" data-name="Trazado 227522" d="M471.908,417.792a1.909,1.909,0,0,0,.47-.564,1.581,1.581,0,0,0,.325-.658,2.007,2.007,0,0,0-.479.564A1.564,1.564,0,0,0,471.908,417.792Z" transform="translate(-377.461 -225.689)" fill="#263238"/>
          <path id="Trazado_227523" data-name="Trazado 227523" d="M473.128,417.1a2.033,2.033,0,0,0,.53-.342c.256-.231.436-.436.4-.47s-.265.111-.521.342S473.1,417.067,473.128,417.1Z" transform="translate(-379.868 -225.648)" fill="#263238"/>
          <path id="Trazado_227524" data-name="Trazado 227524" d="M473.28,415.586a1.657,1.657,0,0,0,.769.111,1.709,1.709,0,0,0,.769-.068,1.657,1.657,0,0,0-.769-.111,1.912,1.912,0,0,0-.769.068Z" transform="translate(-380.755 -225.534)" fill="#263238"/>
          <path id="Trazado_227525" data-name="Trazado 227525" d="M473.37,414.45a1.428,1.428,0,0,0,.854.265,1.452,1.452,0,0,0,.854-.111,4.732,4.732,0,0,0-.854-.068,5.305,5.305,0,0,0-.854-.085Z" transform="translate(-381.093 -225.381)" fill="#263238"/>
          <path id="Trazado_227526" data-name="Trazado 227526" d="M468.971,416.278a2.879,2.879,0,0,0,.948,0,5.357,5.357,0,0,0,1.008-.214,2.28,2.28,0,0,0,.581-.231.521.521,0,0,0,.239-.29.376.376,0,0,0-.145-.376,1.709,1.709,0,0,0-2.145.478,1.6,1.6,0,0,0-.316.632.546.546,0,0,0,0,.248,2.707,2.707,0,0,1,.444-.795,1.708,1.708,0,0,1,.812-.521,1.478,1.478,0,0,1,1.128.094c.154.111.085.29-.077.384a2.466,2.466,0,0,1-.538.222,5.979,5.979,0,0,1-.974.239C469.33,416.252,468.971,416.252,468.971,416.278Z" transform="translate(-374.012 -225.457)" fill="#263238"/>
          <path id="Trazado_227527" data-name="Trazado 227527" d="M473.01,416.246a.974.974,0,0,0,.111-.658,1.453,1.453,0,0,0-.248-.692.957.957,0,0,0-.777-.5.376.376,0,0,0-.3.436,1.059,1.059,0,0,0,.154.427,2.717,2.717,0,0,0,.444.572,1.342,1.342,0,0,0,.53.393s-.179-.171-.436-.47a3.51,3.51,0,0,1-.393-.572c-.128-.205-.214-.564,0-.607s.479.222.615.41a1.461,1.461,0,0,1,.265.615,3.768,3.768,0,0,1,.034.641Z" transform="translate(-377.803 -225.373)" fill="#263238"/>
          <path id="Trazado_227528" data-name="Trazado 227528" d="M484.5,415.144s.427,0,1.085.051a4.8,4.8,0,0,1,2.358,1.008,4.751,4.751,0,0,1,1.461,2.119c.214.632.231,1.051.265,1.051a.852.852,0,0,0,0-.3,3.685,3.685,0,0,0-.145-.795,4.46,4.46,0,0,0-3.922-3.2,3.518,3.518,0,0,0-.854,0A1.076,1.076,0,0,0,484.5,415.144Z" transform="translate(-405.215 -225.468)" fill="#263238"/>
          <path id="Trazado_227529" data-name="Trazado 227529" d="M488.846,408a48.573,48.573,0,0,0-.154,6.041A53.4,53.4,0,0,0,488.846,408Z" transform="translate(-407.95 -224.442)" fill="#263238"/>
          <path id="Trazado_227530" data-name="Trazado 227530" d="M477.31,418.558a12.149,12.149,0,0,0,4.272.094c0-.051-.965,0-2.153,0S477.319,418.507,477.31,418.558Z" transform="translate(-390.963 -225.977)" fill="#263238"/>
          <path id="Trazado_227531" data-name="Trazado 227531" d="M485.193,418.509s.077.205.171.427.145.419.2.419.077-.239,0-.487S485.227,418.475,485.193,418.509Z" transform="translate(-401.725 -225.971)" fill="#263238"/>
          <path id="Trazado_227532" data-name="Trazado 227532" d="M486.3,416.909c-.043,0,.051.188.205.342s.3.256.333.222-.051-.188-.205-.342S486.336,416.875,486.3,416.909Z" transform="translate(-403.901 -225.738)" fill="#263238"/>
          <path id="Trazado_227533" data-name="Trazado 227533" d="M487.773,416.147c0,.051.214.051.427.137s.367.2.4.162-.077-.239-.342-.333S487.765,416.1,487.773,416.147Z" transform="translate(-406.928 -225.617)" fill="#263238"/>
          <path id="Trazado_227534" data-name="Trazado 227534" d="M489.477,415.8c0,.043.068.12.188.171s.239.051.256,0-.068-.12-.188-.171S489.477,415.752,489.477,415.8Z" transform="translate(-409.701 -225.572)" fill="#263238"/>
          <path id="Trazado_227535" data-name="Trazado 227535" d="M515.749,414.851,515.8,407l-14.721-.179-.188,11.492.914.068c4.058.273,20.651,1.111,23.376.325C528.223,417.816,515.749,414.851,515.749,414.851Z" transform="translate(-455.187 -224.27)" fill="#4dd0e1"/>
          <g id="Grupo_215542" data-name="Grupo 215542" transform="translate(45.729 189.711)" opacity="0.4">
            <path id="Trazado_227536" data-name="Trazado 227536" d="M528.944,419.481a5.126,5.126,0,0,0-1.837-3.161,4.964,4.964,0,0,0-3.418-1.111l-.06,4.11Z" transform="translate(-523.63 -415.201)"/>
          </g>
          <path id="Trazado_227537" data-name="Trazado 227537" d="M521.81,418.17s4.366,1.316,3.811,2.033-17.353.5-24.778-.239v-.333l19.591.419S520.956,418.2,521.81,418.17Z" transform="translate(-455.157 -225.922)" opacity="0.4"/>
          <path id="Trazado_227538" data-name="Trazado 227538" d="M500.92,419.87h.248l.7.111,2.674.145c2.256.111,5.383.222,8.826.273s6.579,0,8.835,0l2.674-.077h-11.44c-3.443,0-6.57-.137-8.826-.214l-2.674-.094H501.2Z" transform="translate(-455.413 -226.17)" fill="#263238"/>
          <path id="Trazado_227539" data-name="Trazado 227539" d="M505.239,420.251a6.174,6.174,0,0,1,.521-1.273,5.927,5.927,0,0,1,.923-1.008,1.965,1.965,0,0,0-1.077.914A2.033,2.033,0,0,0,505.239,420.251Z" transform="translate(-439.918 -225.893)" fill="#263238"/>
          <path id="Trazado_227540" data-name="Trazado 227540" d="M511.061,417.791a1.87,1.87,0,0,0,.478-.564c.222-.342.359-.624.316-.658s-.248.231-.47.564a1.633,1.633,0,0,0-.325.658Z" transform="translate(-450.081 -225.689)" fill="#263238"/>
          <path id="Trazado_227541" data-name="Trazado 227541" d="M512.261,417.1a2.07,2.07,0,0,0,.521-.342c.256-.231.436-.436.41-.47s-.273.111-.53.342S512.227,417.067,512.261,417.1Z" transform="translate(-452.435 -225.648)" fill="#263238"/>
          <path id="Trazado_227542" data-name="Trazado 227542" d="M512.41,415.586a1.64,1.64,0,0,0,.76.111,1.778,1.778,0,0,0,.778-.068,1.657,1.657,0,0,0-.769-.111,1.888,1.888,0,0,0-.769.068Z" transform="translate(-453.318 -225.534)" fill="#263238"/>
          <path id="Trazado_227543" data-name="Trazado 227543" d="M512.5,414.45a1.427,1.427,0,0,0,.854.265,1.47,1.47,0,0,0,.854-.111,4.844,4.844,0,0,0-.854-.068,5.375,5.375,0,0,0-.854-.085Z" transform="translate(-453.656 -225.381)" fill="#263238"/>
          <path id="Trazado_227544" data-name="Trazado 227544" d="M508.109,416.276a2.838,2.838,0,0,0,.94,0,5.3,5.3,0,0,0,1.017-.214,2.23,2.23,0,0,0,.572-.231.487.487,0,0,0,.239-.29.367.367,0,0,0-.137-.376,1.709,1.709,0,0,0-2.469,1.111.607.607,0,0,0,0,.248,2.707,2.707,0,0,1,.444-.795,1.657,1.657,0,0,1,.812-.521,1.478,1.478,0,0,1,1.128.094c.145.111.085.29-.085.384a2.4,2.4,0,0,1-.53.222,5.8,5.8,0,0,1-.983.239C508.468,416.251,508.109,416.251,508.109,416.276Z" transform="translate(-446.582 -225.455)" fill="#263238"/>
          <path id="Trazado_227545" data-name="Trazado 227545" d="M512.126,416.246a.855.855,0,0,0,.12-.658A1.547,1.547,0,0,0,512,414.9a.957.957,0,0,0-.786-.5.376.376,0,0,0-.291.436.948.948,0,0,0,.154.427,2.7,2.7,0,0,0,.436.572,1.392,1.392,0,0,0,.538.393,5.781,5.781,0,0,1-.444-.47,3.5,3.5,0,0,1-.384-.572c-.128-.205-.214-.564,0-.607s.47.222.615.41a1.556,1.556,0,0,1,.256.615,2.922,2.922,0,0,1,.034.641Z" transform="translate(-450.36 -225.373)" fill="#263238"/>
          <path id="Trazado_227546" data-name="Trazado 227546" d="M523.634,415.144s.419,0,1.085.051a4.8,4.8,0,0,1,2.358,1.008,4.723,4.723,0,0,1,1.452,2.119c.222.632.239,1.051.273,1.051a.857.857,0,0,0,0-.3,3.316,3.316,0,0,0-.154-.795,4.512,4.512,0,0,0-1.461-2.213,4.571,4.571,0,0,0-2.461-.991,3.417,3.417,0,0,0-.8,0,1.079,1.079,0,0,0-.291.068Z" transform="translate(-477.777 -225.468)" fill="#263238"/>
          <path id="Trazado_227547" data-name="Trazado 227547" d="M527.971,408a53.4,53.4,0,0,0-.154,6.041,48.549,48.549,0,0,0,.154-6.041Z" transform="translate(-480.516 -224.442)" fill="#263238"/>
          <path id="Trazado_227548" data-name="Trazado 227548" d="M516.44,418.558a12.105,12.105,0,0,0,4.272.094c0-.051-.965,0-2.153,0S516.449,418.507,516.44,418.558Z" transform="translate(-463.525 -225.977)" fill="#263238"/>
          <path id="Trazado_227549" data-name="Trazado 227549" d="M524.332,418.509s.077.205.171.427.154.419.2.419.085-.239,0-.487S524.367,418.475,524.332,418.509Z" transform="translate(-474.306 -225.971)" fill="#263238"/>
          <path id="Trazado_227550" data-name="Trazado 227550" d="M525.422,416.909a1,1,0,0,0,.205.342c.145.154.308.256.342.222s-.06-.188-.205-.342S525.482,416.875,525.422,416.909Z" transform="translate(-476.463 -225.738)" fill="#263238"/>
          <path id="Trazado_227551" data-name="Trazado 227551" d="M526.9,416.147c0,.051.205.051.419.137s.367.2.41.162-.077-.239-.35-.333S526.884,416.1,526.9,416.147Z" transform="translate(-479.489 -225.617)" fill="#263238"/>
          <path id="Trazado_227552" data-name="Trazado 227552" d="M528.657,415.8c0,.043.068.12.188.171s.231.051.248,0-.06-.12-.179-.171S528.674,415.752,528.657,415.8Z" transform="translate(-482.347 -225.572)" fill="#263238"/>
          <path id="Trazado_227553" data-name="Trazado 227553" d="M509.207,226.93c1.025,10.253,3.734,41.353-10.475,40.268-16.772-1.273-20.634-14.525-20.634-14.525l3.264-11.962s16.55,14.431,16.977,12.645c2.324-9.527,1.709-22.59,1.333-27.247" transform="translate(-420.16 -197.958)" fill="#ffbe9d"/>
          <path id="Trazado_227554" data-name="Trazado 227554" d="M494,265.365l2.871-14.388c2.11-11.782,18.626-12.594,18.626-12.594l12.961-.214a25.684,25.684,0,0,1,15.542,5.4c6.9,5.673,11.517,10.014,11.517,10.014l-10.851,12.543-6.417-4.272s2.307,4.169,1.922,7.69c-.359,3.418-3.947,6.041-3.947,6.041l-.854,22.044-38.448.419,5.152-32.681Z" transform="translate(-479.157 -199.714)" fill="#4dd0e1"/>
          <path id="Trazado_227555" data-name="Trazado 227555" d="M549.049,252.12a4.563,4.563,0,0,0-.222.914l-.5,2.563c-.427,2.239-.991,5.126-1.615,8.33s-1.145,6.22-1.487,8.365c-.171,1.077-.291,1.948-.359,2.563a4.16,4.16,0,0,0-.06.948,3.779,3.779,0,0,0,.231-.923l.5-2.521c.436-2.238,1-5.126,1.615-8.339s1.153-6.212,1.5-8.365c.162-1.077.291-1.948.359-2.563a3.73,3.73,0,0,0,.051-.974Z" transform="translate(-516.101 -201.745)" fill="#263238"/>
          <path id="Trazado_227556" data-name="Trazado 227556" d="M548.01,270.121a67.07,67.07,0,0,0,7.818.256,71.616,71.616,0,0,0,7.826-.2,67.08,67.08,0,0,0-7.818-.256A71.62,71.62,0,0,0,548.01,270.121Z" transform="translate(-533.441 -204.333)" fill="#263238"/>
          <path id="Trazado_227557" data-name="Trazado 227557" d="M494.47,268.718a77.75,77.75,0,0,0,5.383-6.237,77.149,77.149,0,0,0,5.041-6.511,151.279,151.279,0,0,0-10.424,12.748Z" transform="translate(-428.936 -202.306)" fill="#263238"/>
          <path id="Trazado_227558" data-name="Trazado 227558" d="M514.792,268.2a8.545,8.545,0,0,0-.752-1.709l-.914-1.828a3.418,3.418,0,0,1-.641-2.23c.316-1.709.615-3.332.795-4.477a8.076,8.076,0,0,0,.214-1.888,8.217,8.217,0,0,0-.521,1.828c-.256,1.145-.607,2.7-.931,4.477a2.289,2.289,0,0,0,.162,1.376,11,11,0,0,0,.555,1.1l1.008,1.794A7.858,7.858,0,0,0,514.792,268.2Z" transform="translate(-453.812 -202.32)" fill="#263238"/>
          <path id="Trazado_227559" data-name="Trazado 227559" d="M554.71,303.092l.555-8.2H518.21l-1.41,7.117Z" transform="translate(-498.386 -207.973)" opacity="0.2"/>
          <path id="Trazado_227560" data-name="Trazado 227560" d="M524.319,253.64q-.256,7.527-.5,15.046a9.4,9.4,0,0,0,.658,4.75c1.29,2.452,4.34,3.255,7.049,3.811l16.516,3.418-30.6-1.5Z" transform="translate(-491.722 -201.967)" opacity="0.2"/>
          <path id="Trazado_227561" data-name="Trazado 227561" d="M487.612,281.562c.854-6.912,1.76-11.372,1.76-11.372l15.055.231s-1.35,7.6-.94,9.638c.367,1.769,29.408,2.939,36.97,3.059.453-.333,1.111.231,1.709-.273a6.058,6.058,0,0,0,1.281-1.589,9.4,9.4,0,0,0,1.042-2.35.769.769,0,0,1,1.435-.325c.3.649-.043,2.8-1.478,4.887s2.333,1,3.708.632,5.707-1.307,6.152-.957c.658.5.248,1.316-1.145,1.658s-5.477,1.64-5.255,2.375,7.228-1.247,7.228-1.247,1.427-.675,1.709.171c.513,1.521-7.074,3.067-7.809,3.2-.5.085-.282.9.248.777s6.946-2.145,7.485-.6c.419,1.188-6.237,1.324-7.339,2.5s5.032-.641,5.391.513c.128.427-2.427.624-6.092,1.145a94.977,94.977,0,0,1-11.338.4c-8.544.461-38.576,1.085-44.993.632C484.9,294.139,487.321,283.937,487.612,281.562Z" transform="translate(-474.538 -204.376)" fill="#ffbe9d"/>
          <path id="Trazado_227562" data-name="Trazado 227562" d="M552.887,260.89h-.222a3.117,3.117,0,0,0-.658.145,10.254,10.254,0,0,0-2.35,1.094,20.812,20.812,0,0,0-3.23,2.512c-.581.547-1.179,1.153-1.777,1.837a15.48,15.48,0,0,0-1.709,2.307,3.988,3.988,0,0,0-.342.718c-.06.248-.12.5-.188.76-.12.513-.265,1.025-.376,1.564-.205,1.077-.419,2.2-.555,3.375a45.794,45.794,0,0,0-.3,7.527,78.285,78.285,0,0,0,2.879,16.986,67.967,67.967,0,0,0,2.708,8.544,30.529,30.529,0,0,0,4.152,7.237,18.788,18.788,0,0,0,2.683,2.828,16.024,16.024,0,0,0,3.153,1.914,39.562,39.562,0,0,0,6.229,2.093c3.887.991,7.066,1.606,9.253,2.076l2.563.53.658.128h.231l-.222-.077-.641-.171c-.572-.145-1.418-.359-2.512-.615-2.17-.521-5.349-1.179-9.21-2.2a41,41,0,0,1-6.152-2.127,16.379,16.379,0,0,1-3.059-1.88,18.963,18.963,0,0,1-2.614-2.785,30.541,30.541,0,0,1-4.067-7.143,67.166,67.166,0,0,1-2.674-8.467,78.9,78.9,0,0,1-2.9-16.891,46.134,46.134,0,0,1,.256-7.467c.128-1.162.325-2.281.53-3.349.1-.53.239-1.042.359-1.555l.179-.752a2.952,2.952,0,0,1,.3-.649,16.118,16.118,0,0,1,1.709-2.273c.581-.684,1.171-1.3,1.709-1.846a22.209,22.209,0,0,1,3.153-2.563,10.879,10.879,0,0,1,2.281-1.153A7.218,7.218,0,0,0,552.887,260.89Z" transform="translate(-539.608 -203.022)" fill="#263238"/>
          <path id="Trazado_227563" data-name="Trazado 227563" d="M483.667,225.4s-.231-1.1-.615-4.272l-3.529-6.9s.786-1.444,2.563,1.615a1.712,1.712,0,1,0,3.136-1.376,2.8,2.8,0,0,0-5.041-1.025s-1.128.111-1.256-.76,2.418-3.059,4.58-2.426a6.613,6.613,0,0,1,2.392,1.359s-.47-7.254.12-7.322,1.41.384,1.854,8.33c0,0,.248-6.271.367-7.074s1.2-1.341,1.341.666c0,.231.41,6.391.41,6.391s.7-4.075.778-4.4c.205-.854,1.051-.769,1.128.367.068.854.342,4.554.342,4.554l.53,11.364h.068" transform="translate(-403.59 -194.782)" fill="#ffbe9d"/>
          <path id="Trazado_227564" data-name="Trazado 227564" d="M530.742,236.251c.085-3.708.231-7.587.231-7.587s5.468-.684,5.707-6.271-.325-18.446-.325-18.446l-10.065-4.836L517.5,209.132l-.128,26.931a6.69,6.69,0,0,0,6.69,6.724h0a6.682,6.682,0,0,0,6.681-6.538Z" transform="translate(-480.348 -194.027)" fill="#ffbe9d"/>
          <path id="Trazado_227565" data-name="Trazado 227565" d="M520.871,215.651a.7.7,0,1,1-.709-.7.709.709,0,0,1,.709.7Z" transform="translate(-466.273 -196.333)" fill="#263238"/>
          <path id="Trazado_227566" data-name="Trazado 227566" d="M520.882,214.706c-.085.094-.607-.35-1.359-.376s-1.307.35-1.384.248.051-.214.291-.393a1.812,1.812,0,0,1,1.111-.325,1.786,1.786,0,0,1,1.085.427C520.848,214.483,520.924,214.663,520.882,214.706Z" transform="translate(-465.139 -196.174)" fill="#263238"/>
          <path id="Trazado_227567" data-name="Trazado 227567" d="M530.4,215.651a.7.7,0,1,1-.709-.7.709.709,0,0,1,.709.7Z" transform="translate(-483.946 -196.333)" fill="#263238"/>
          <path id="Trazado_227568" data-name="Trazado 227568" d="M530.6,214.856c-.085.085-.607-.35-1.359-.376s-1.307.35-1.384.248.051-.214.291-.393a1.811,1.811,0,0,1,1.111-.325,1.837,1.837,0,0,1,1.085.419C530.568,214.651,530.644,214.856,530.6,214.856Z" transform="translate(-483.164 -196.196)" fill="#263238"/>
          <path id="Trazado_227569" data-name="Trazado 227569" d="M522.546,221.417a4.828,4.828,0,0,1,1.222-.188c.188,0,.367-.043.41-.188a1.181,1.181,0,0,0-.12-.607c-.18-.5-.359-1.034-.547-1.589a28.2,28.2,0,0,1-1.2-4.135,29.049,29.049,0,0,1,1.512,4.033c.179.555.35,1.085.521,1.589a1.282,1.282,0,0,1,.085.854.478.478,0,0,1-.325.282,1.173,1.173,0,0,1-.325.043A4.827,4.827,0,0,1,522.546,221.417Z" transform="translate(-472.288 -196.298)" fill="#263238"/>
          <path id="Trazado_227570" data-name="Trazado 227570" d="M531.365,233.3a13.286,13.286,0,0,1-7.245-2.367s1.709,4.067,7.151,3.742Z" transform="translate(-480.74 -198.66)" fill="#eb996e"/>
          <path id="Trazado_227571" data-name="Trazado 227571" d="M527.114,224.66a1.47,1.47,0,0,0-.854-1.068,1.171,1.171,0,0,0-.974,0,.855.855,0,0,0-.444.854.948.948,0,0,0,.778.718,2.563,2.563,0,0,0,1.111-.068.855.855,0,0,0,.291-.111.256.256,0,0,0,.12-.265" transform="translate(-477.13 -197.576)" fill="#eb996e"/>
          <path id="Trazado_227572" data-name="Trazado 227572" d="M524.372,222.52c-.06,0-.154.205-.128.572a1.982,1.982,0,0,0,1.922,1.811c.367,0,.572-.1.564-.154a3.338,3.338,0,0,1-1.564-.709A3.4,3.4,0,0,1,524.372,222.52Z" transform="translate(-476.208 -197.436)" fill="#263238"/>
          <path id="Trazado_227573" data-name="Trazado 227573" d="M510.065,252.714a6.892,6.892,0,0,0-.718-2.3,6.715,6.715,0,0,0-1.128-2.136,6.733,6.733,0,0,0,.718,2.307A6.356,6.356,0,0,0,510.065,252.714Z" transform="translate(-445.856 -201.186)" fill="#263238"/>
          <path id="Trazado_227574" data-name="Trazado 227574" d="M518.034,255.119A9.21,9.21,0,0,0,522.443,252q-2.266,1.495-4.443,3.119Z" transform="translate(-466.589 -201.728)" fill="#263238"/>
          <path id="Trazado_227575" data-name="Trazado 227575" d="M516.8,242.74a9.4,9.4,0,0,0,3.845,1.324,4.853,4.853,0,0,0-1.854-.854A4.75,4.75,0,0,0,516.8,242.74Z" transform="translate(-463.766 -200.38)" fill="#263238"/>
          <path id="Trazado_227576" data-name="Trazado 227576" d="M523.717,268.173a19.537,19.537,0,0,0-3.418-4.853,20.26,20.26,0,0,0,3.418,4.853Z" transform="translate(-469.829 -203.376)" fill="#263238"/>
          <path id="Trazado_227577" data-name="Trazado 227577" d="M515.79,279.07a10.62,10.62,0,0,0,2.435-1.828,10.947,10.947,0,0,0,2.145-2.162,20.975,20.975,0,0,0-4.58,3.99Z" transform="translate(-462.628 -205.088)" fill="#263238"/>
          <path id="Trazado_227578" data-name="Trazado 227578" d="M526.823,277.792a21.377,21.377,0,0,0,.777-2.785,22.593,22.593,0,0,0,.854-2.777,6.178,6.178,0,0,0-1.256,2.657A6.435,6.435,0,0,0,526.823,277.792Z" transform="translate(-480.111 -204.673)" fill="#263238"/>
          <path id="Trazado_227579" data-name="Trazado 227579" d="M536.7,278.92a15.7,15.7,0,0,0,5.007,1.546A15.15,15.15,0,0,0,536.7,278.92Z" transform="translate(-501.83 -205.647)" fill="#263238"/>
          <path id="Trazado_227580" data-name="Trazado 227580" d="M537.03,267.86a20.669,20.669,0,0,0,5.289,2.862A20,20,0,0,0,537.03,267.86Z" transform="translate(-502.724 -204.037)" fill="#263238"/>
          <path id="Trazado_227581" data-name="Trazado 227581" d="M532.26,262.733a16.848,16.848,0,0,0,3.127-4.443,16.85,16.85,0,0,0-3.127,4.443Z" transform="translate(-491.717 -202.644)" fill="#263238"/>
          <path id="Trazado_227582" data-name="Trazado 227582" d="M539.734,251.749a.482.482,0,0,0,.248-.094l-.145-.06a12.4,12.4,0,0,0,.342,2.623,7.692,7.692,0,0,0,.965,2.734,12.989,12.989,0,0,0-.53-2.828c-.256-1.145-.461-2.127-.607-2.563l-.051-.171-.094.12C539.759,251.646,539.716,251.732,539.734,251.749Z" transform="translate(-503.856 -201.639)" fill="#263238"/>
          <path id="Trazado_227583" data-name="Trazado 227583" d="M546.26,243.793a21.454,21.454,0,0,0,5.981-1.213,10.656,10.656,0,0,0-3.033.385A11.055,11.055,0,0,0,546.26,243.793Z" transform="translate(-520.532 -200.356)" fill="#263238"/>
          <path id="Trazado_227584" data-name="Trazado 227584" d="M550.97,254.551a6.049,6.049,0,0,0-.06-2.315,6.3,6.3,0,0,0-.5-2.256,6.049,6.049,0,0,0,.06,2.315A6.3,6.3,0,0,0,550.97,254.551Z" transform="translate(-522.816 -201.434)" fill="#263238"/>
          <path id="Trazado_227585" data-name="Trazado 227585" d="M558.3,258a5.127,5.127,0,0,0-.581-2.016,5.261,5.261,0,0,0-.991-1.846A9.893,9.893,0,0,0,558.3,258Z" transform="translate(-535.539 -202.039)" fill="#263238"/>
          <path id="Trazado_227586" data-name="Trazado 227586" d="M550.76,264.362a11.423,11.423,0,0,0,2.7-1.709,11.108,11.108,0,0,0,2.443-2.033,11.385,11.385,0,0,0-2.7,1.709A11.554,11.554,0,0,0,550.76,264.362Z" transform="translate(-528.04 -202.983)" fill="#263238"/>
          <path id="Trazado_227587" data-name="Trazado 227587" d="M521.8,304.737a6.633,6.633,0,0,0,2.119-1.171,6.714,6.714,0,0,0,1.88-1.546,7.073,7.073,0,0,0-2.127,1.179,6.835,6.835,0,0,0-1.871,1.538Z" transform="translate(-473.192 -209.011)" fill="#263238"/>
          <path id="Trazado_227588" data-name="Trazado 227588" d="M533.32,301.18a11.042,11.042,0,0,0,1.786,2.563,10.8,10.8,0,0,0,2.127,2.264,11.039,11.039,0,0,0-1.786-2.563,10.8,10.8,0,0,0-2.127-2.264Z" transform="translate(-494.469 -208.888)" fill="#263238"/>
          <path id="Trazado_227589" data-name="Trazado 227589" d="M551.857,306a5.809,5.809,0,0,0-.854-2.1,5.929,5.929,0,0,0-1.273-1.888,11.6,11.6,0,0,0,2.153,3.99Z" transform="translate(-523.139 -209.009)" fill="#263238"/>
          <path id="Trazado_227590" data-name="Trazado 227590" d="M543.88,306.652a6.11,6.11,0,0,0,1.35-1.88,6.383,6.383,0,0,0,.965-2.1,5.931,5.931,0,0,0-1.35,1.88,6.049,6.049,0,0,0-.965,2.1Z" transform="translate(-512.453 -209.105)" fill="#263238"/>
          <path id="Trazado_227591" data-name="Trazado 227591" d="M540.875,202.4a3.571,3.571,0,1,1-5.186,4.144,3.007,3.007,0,0,1-.7,3.563,3.571,3.571,0,0,1-3.674.53,4.4,4.4,0,0,1-2.452-2.888,4.016,4.016,0,0,1-5.169,3.785,3.862,3.862,0,0,1-.709,6.886,3.529,3.529,0,0,1-2.956,6.348c-1.709-.53-2.725-2.221-3.418-3.87a18.378,18.378,0,0,1,.051-14,15.764,15.764,0,0,1,10.56-8.971,13.773,13.773,0,0,1,13.106,3.845" transform="translate(-484.475 -193.802)" fill="#263238"/>
          <path id="Trazado_227592" data-name="Trazado 227592" d="M528.982,203.627a.683.683,0,0,1-.043.188,2.283,2.283,0,0,0,0,.547,3.417,3.417,0,0,0,.854,1.846,3.144,3.144,0,0,0,2.956.991,3.52,3.52,0,0,0,2.734-2.879h-.41a4.025,4.025,0,0,0,1.871,2.785,3.725,3.725,0,0,0,3.6.248,4.084,4.084,0,0,0,2.247-2.614,2.162,2.162,0,0,0-.154-1.709,1.308,1.308,0,0,0-.718-.547,1.017,1.017,0,0,0-.906.154,1.316,1.316,0,0,0-.325,1.564,2.709,2.709,0,0,0,.974,1.094,3.922,3.922,0,0,0,2.452.666,3.58,3.58,0,0,0,1.957-.726,3.63,3.63,0,0,0,1.025-1.179,3.1,3.1,0,0,0,.359-.923.982.982,0,0,0,0-.333,7.5,7.5,0,0,1-.538,1.171,3.563,3.563,0,0,1-2.854,1.709,3.623,3.623,0,0,1-2.221-.658,2.375,2.375,0,0,1-.854-.94.914.914,0,0,1,.214-1.085.743.743,0,0,1,1.017.3,1.76,1.76,0,0,1,.085,1.376,3.614,3.614,0,0,1-2.008,2.315,3.3,3.3,0,0,1-3.178-.205,3.674,3.674,0,0,1-1.709-2.478l-.214-1.444-.188,1.452a3.178,3.178,0,0,1-2.4,2.563,2.9,2.9,0,0,1-2.7-.854,3.417,3.417,0,0,1-.931-1.709A4.233,4.233,0,0,0,528.982,203.627Z" transform="translate(-500.948 -194.511)" fill="#455a64"/>
          <path id="Trazado_227593" data-name="Trazado 227593" d="M540.213,210.554a1.376,1.376,0,0,0,.06.718,3.658,3.658,0,0,0,1.017,1.709,3.529,3.529,0,0,0,2.751,1,3.9,3.9,0,0,0,3.025-1.9,2.811,2.811,0,0,0,.2-.393h-.419a2.563,2.563,0,0,0,1.247,1.384,3.247,3.247,0,0,0,1.658.393,3.751,3.751,0,0,0,2.563-1.179,5.126,5.126,0,0,0,1.051-1.538,1.708,1.708,0,0,0,.214-.641,10.844,10.844,0,0,1-1.478,1.957,3.5,3.5,0,0,1-2.333,1,2.606,2.606,0,0,1-2.486-1.529l-.171-.478-.239.47c-.06.111-.1.231-.171.342a3.589,3.589,0,0,1-2.674,1.709,3.323,3.323,0,0,1-2.5-.854,3.836,3.836,0,0,1-1.068-1.512A6.84,6.84,0,0,0,540.213,210.554Z" transform="translate(-516.681 -195.629)" fill="#455a64"/>
          <path id="Trazado_227594" data-name="Trazado 227594" d="M539.234,222.119a2.119,2.119,0,0,0,1.709.325,2.905,2.905,0,0,0,1.709-.854,3.136,3.136,0,0,0,.854-2.2l-.333.2.128.06a3.179,3.179,0,0,0,2.418.205,3.007,3.007,0,0,0,1.581-1.188,2.128,2.128,0,0,0,.453-1.709,4.827,4.827,0,0,1-.709,1.521,2.837,2.837,0,0,1-1.444.983,2.913,2.913,0,0,1-2.093-.205l-.111-.051-.333-.188v.376a2.837,2.837,0,0,1-2.221,2.777A5.125,5.125,0,0,1,539.234,222.119Z" transform="translate(-510.072 -196.625)" fill="#455a64"/>
          <path id="Trazado_227595" data-name="Trazado 227595" d="M524,206.033a5.87,5.87,0,0,1-2.179,1.247,4.033,4.033,0,0,1-2.64-.179,4.221,4.221,0,0,1-2.213-2.307,4.725,4.725,0,0,1-.205-.735l-.137-.666-.282.615a1.059,1.059,0,0,1-1.162.5,2.435,2.435,0,0,1-1.188-.692,4.484,4.484,0,0,1-1.188-2.119,6.506,6.506,0,0,1-.06-2.273,1.494,1.494,0,0,0-.222.6,4.271,4.271,0,0,0,0,1.709,4.6,4.6,0,0,0,1.2,2.332,2.76,2.76,0,0,0,1.393.854,1.487,1.487,0,0,0,1.64-.735l-.419-.06a4.209,4.209,0,0,0,.231.854,4.554,4.554,0,0,0,2.461,2.563,4.272,4.272,0,0,0,2.888.094,4.16,4.16,0,0,0,1.666-.983,1.59,1.59,0,0,0,.419-.615Z" transform="translate(-463.397 -194.072)" fill="#455a64"/>
          <path id="Trazado_227596" data-name="Trazado 227596" d="M509.509,215.291c-.051,0-.051.41.359.854a2.256,2.256,0,0,0,2.162.555,4.152,4.152,0,0,0,1.905-1.111c.4-.384.607-.658.573-.7s-.333.145-.769.461a5.357,5.357,0,0,1-1.811.914,2.144,2.144,0,0,1-1.845-.359C509.688,215.607,509.577,215.273,509.509,215.291Z" transform="translate(-451.382 -196.324)" fill="#455a64"/>
          <path id="Trazado_227597" data-name="Trazado 227597" d="M515.368,216.083a2.5,2.5,0,0,1,.188-.795,3.348,3.348,0,0,1,1.23-1.709,3.17,3.17,0,1,1,3.016,5.5,3.255,3.255,0,0,1-3.016-.419,3.418,3.418,0,0,1-1.23-1.709c-.145-.5-.145-.8-.188-.8a1.8,1.8,0,0,0,0,.854,3.324,3.324,0,0,0,1.213,1.914,3.539,3.539,0,1,0,0-5.588,3.324,3.324,0,0,0-1.2,1.957A1.768,1.768,0,0,0,515.368,216.083Z" transform="translate(-464.145 -195.989)" fill="#455a64"/>
          <path id="Trazado_227598" data-name="Trazado 227598" d="M526.5,216.089a2.5,2.5,0,0,1,.188-.795,3.3,3.3,0,0,1,1.23-1.709,3.17,3.17,0,1,1,3.008,5.5,3.238,3.238,0,0,1-3.008-.419,3.366,3.366,0,0,1-1.23-1.709c-.145-.5-.154-.8-.188-.8a1.589,1.589,0,0,0,0,.854,3.349,3.349,0,0,0,1.213,1.948,3.494,3.494,0,0,0,3.332.555,3.546,3.546,0,0,0,0-6.69,3.494,3.494,0,0,0-3.332.547,3.34,3.34,0,0,0-1.213,1.957A1.561,1.561,0,0,0,526.5,216.089Z" transform="translate(-484.765 -195.995)" fill="#455a64"/>
          <path id="Trazado_227599" data-name="Trazado 227599" d="M523.35,216.452c0,.128.675.222,1.512.222s1.5-.094,1.5-.222-.675-.222-1.5-.222S523.35,216.333,523.35,216.452Z" transform="translate(-475.083 -196.52)" fill="#455a64"/>
          <path id="Trazado_227600" data-name="Trazado 227600" d="M508.878,307.1a224.461,224.461,0,0,0-38.978-.487l16.507,23.65,14.867.06,3.161,67.95h19.651l-1.88-76.315a15.328,15.328,0,0,0-13.312-14.832Z" transform="translate(-427.136 -209.589)" fill="#263238"/>
          <path id="Trazado_227601" data-name="Trazado 227601" d="M533.334,332.03s-29.451,2-28.716-24.453c0,0,47.18-7.972,50.247,5.742.991,4.409-1.709,85.372-1.709,85.372H532.531" transform="translate(-487.784 -209.485)" fill="#263238"/>
          <path id="Trazado_227602" data-name="Trazado 227602" d="M529.946,329.73a25.287,25.287,0,0,0,.385,6.75A26.315,26.315,0,0,0,529.946,329.73Z" transform="translate(-484.686 -213.045)" fill="#455a64"/>
          <path id="Trazado_227603" data-name="Trazado 227603" d="M503.646,305.119a2.189,2.189,0,0,0,.41.179c.265.1.666.239,1.2.393a39.778,39.778,0,0,0,4.554.94,41.2,41.2,0,0,1,6.681,1.435,15.226,15.226,0,0,1,3.588,1.709,10.253,10.253,0,0,1,2.939,3.059,14.089,14.089,0,0,1,2.11,7.895c-.137,2.563-.256,4.879-.359,6.835s-.162,3.477-.214,4.639v1.256a1.413,1.413,0,0,0,0,.444,2.731,2.731,0,0,0,.068-.444c0-.333.068-.752.12-1.247.085-1.162.214-2.726.359-4.622s.316-4.272.453-6.835a14.26,14.26,0,0,0-2.153-8.142,10.466,10.466,0,0,0-3.059-3.178,15.457,15.457,0,0,0-3.708-1.769,39.565,39.565,0,0,0-6.767-1.358c-1.931-.265-3.495-.538-4.554-.795S503.663,305.085,503.646,305.119Z" transform="translate(-457.447 -209.461)" fill="#455a64"/>
        </g>
        <g id="freepik--Desk--inject-115" transform="translate(41.392 107.372)">
          <path id="Trazado_227604" data-name="Trazado 227604" d="M529.1,250.207l-11.184,34.911-61.833,1.128.41-1.863,22.582-.692,10.4-33.5Z" transform="translate(-374.673 -247.106)" fill="#455a64"/>
          <path id="Trazado_227605" data-name="Trazado 227605" d="M480.582,270.26c-.367,1.478.265,2.931,1.41,3.238s2.384-.641,2.751-2.119a2.56,2.56,0,0,0-1.418-3.23C482.171,267.843,480.984,268.791,480.582,270.26Z" transform="translate(-351.269 -249.712)" fill="#fff"/>
          <path id="Trazado_227606" data-name="Trazado 227606" d="M592.264,279.015a5.126,5.126,0,0,1,3.469-1V276.93h18.9s.6,12.483-8.963,12.927c-4.272.2-6.724-1.709-8.125-4.135a9.338,9.338,0,0,1-2.145.265,4.99,4.99,0,0,1-2.982-.854,3.751,3.751,0,0,1-1.418-3.2,3.64,3.64,0,0,1,1.264-2.922Zm1.3,4.631a4.512,4.512,0,0,0,3.2.342,16.147,16.147,0,0,1-.923-4.1,3.606,3.606,0,0,0-2.367.547,1.837,1.837,0,0,0-.581,1.512A1.957,1.957,0,0,0,593.563,283.646Z" transform="translate(-575.484 -250.999)" fill="#4dd0e1"/>
          <path id="Trazado_227607" data-name="Trazado 227607" d="M597.866,268.487a1.991,1.991,0,0,0,.359-.419,3.913,3.913,0,0,0,.624-1.478,4.273,4.273,0,0,0-.222-2.563,8.229,8.229,0,0,0-2.127-2.563,6.305,6.305,0,0,1-1.914-3.418,5.981,5.981,0,0,1,2.5-6.092,8.971,8.971,0,0,1,2.341-1.051,7.1,7.1,0,0,0,2.469-1.247,3.663,3.663,0,0,0,.854-1.153,2.341,2.341,0,0,0,.18-1.487.72.72,0,0,0-.06-.205l-.222.222a2.333,2.333,0,0,1,1.376,2.025,4.682,4.682,0,0,1-.555,2.5c-.376.795-.854,1.529-1.179,2.333a4.957,4.957,0,0,0-.478,2.512,3.537,3.537,0,0,0,1.128,2.162,7.142,7.142,0,0,0,1.9,1.265,35.609,35.609,0,0,1,3.674,1.581,5.127,5.127,0,0,1,2.145,2.367,5.735,5.735,0,0,1,.513,2.392,6.734,6.734,0,0,1-.393,2.068.854.854,0,0,0,.068-.12c0-.085.1-.205.162-.384a5.122,5.122,0,0,0,.3-1.564,5.724,5.724,0,0,0-.47-2.469,5.323,5.323,0,0,0-2.187-2.5,37.336,37.336,0,0,0-3.682-1.64,6.629,6.629,0,0,1-1.811-1.222,3.239,3.239,0,0,1-1.017-1.965,4.656,4.656,0,0,1,.461-2.341c.333-.769.795-1.5,1.179-2.315a5,5,0,0,0,.607-2.7,3.348,3.348,0,0,0-.47-1.367,2.221,2.221,0,0,0-1.153-.948l-.316-.12.094.342.043.171a2.478,2.478,0,0,1-.94,2.3,6.733,6.733,0,0,1-2.358,1.179,9.245,9.245,0,0,0-2.418,1.1,6.289,6.289,0,0,0-1.769,1.854,6.16,6.16,0,0,0-.854,4.58,6.528,6.528,0,0,0,2.034,3.52,8.34,8.34,0,0,1,2.119,2.495,4.2,4.2,0,0,1,.265,2.418A4.648,4.648,0,0,1,597.866,268.487Z" transform="translate(-574.823 -246.58)" fill="#263238"/>
          <path id="Trazado_227608" data-name="Trazado 227608" d="M409.86,291.26H603.775V297.2H593.4l5.519,104.946-2.965-.009L590.438,297.2l-169.966-.931-3.913,105.561-3.272.179L417.473,297.2H409.86Z" transform="translate(-409.86 -253.085)" fill="#263238"/>
        </g>
        <g id="freepik--Server--inject-115" transform="translate(275.668 3.939)">
          <rect id="Rectángulo_303771" data-name="Rectángulo 303771" width="82.544" height="252.86" transform="translate(65.122)" fill="#ebebeb"/>
          <rect id="Rectángulo_303772" data-name="Rectángulo 303772" width="65.242" height="252.048" transform="translate(0 0.82)" fill="#e0e0e0"/>
          <rect id="Rectángulo_303773" data-name="Rectángulo 303773" width="70.018" height="19.711" transform="translate(73.077 40.473)" fill="#263238"/>
          <rect id="Rectángulo_303774" data-name="Rectángulo 303774" width="3.922" height="15.089" transform="translate(137.225 42.951)" fill="#4dd0e1"/>
          <path id="Trazado_227609" data-name="Trazado 227609" d="M204.5,179.289a1.247,1.247,0,1,0,1.247-1.239,1.247,1.247,0,0,0-1.247,1.239Z" transform="translate(-71.897 -133.168)" fill="#fff"/>
          <path id="Trazado_227610" data-name="Trazado 227610" d="M204.5,185.527a1.247,1.247,0,1,0,1.247-1.247,1.247,1.247,0,0,0-1.247,1.247Z" transform="translate(-71.897 -134.075)" fill="#fff"/>
          <rect id="Rectángulo_303775" data-name="Rectángulo 303775" width="3.853" height="11.586" transform="translate(123.768 44.882)" fill="#455a64"/>
          <rect id="Rectángulo_303776" data-name="Rectángulo 303776" width="3.853" height="11.586" transform="translate(118.206 44.882)" fill="#455a64"/>
          <rect id="Rectángulo_303777" data-name="Rectángulo 303777" width="3.853" height="11.586" transform="translate(112.636 44.882)" fill="#455a64"/>
          <rect id="Rectángulo_303778" data-name="Rectángulo 303778" width="3.853" height="11.586" transform="translate(107.073 44.882)" fill="#455a64"/>
          <rect id="Rectángulo_303779" data-name="Rectángulo 303779" width="3.853" height="11.586" transform="translate(101.511 44.882)" fill="#455a64"/>
          <rect id="Rectángulo_303780" data-name="Rectángulo 303780" width="3.853" height="11.586" transform="translate(95.941 44.882)" fill="#455a64"/>
          <rect id="Rectángulo_303781" data-name="Rectángulo 303781" width="3.853" height="11.586" transform="translate(90.378 44.882)" fill="#455a64"/>
          <rect id="Rectángulo_303782" data-name="Rectángulo 303782" width="3.853" height="11.586" transform="translate(84.808 44.882)" fill="#455a64"/>
          <rect id="Rectángulo_303783" data-name="Rectángulo 303783" width="3.853" height="11.586" transform="translate(79.246 44.882)" fill="#455a64"/>
          <rect id="Rectángulo_303784" data-name="Rectángulo 303784" width="3.853" height="11.586" transform="translate(73.683 44.882)" fill="#455a64"/>
          <rect id="Rectángulo_303785" data-name="Rectángulo 303785" width="70.018" height="19.711" transform="translate(73.077 68.788)" fill="#263238"/>
          <rect id="Rectángulo_303786" data-name="Rectángulo 303786" width="3.922" height="15.089" transform="translate(137.225 71.274)" fill="#4dd0e1"/>
          <path id="Trazado_227611" data-name="Trazado 227611" d="M204.5,212.437a1.247,1.247,0,1,0,1.247-1.247,1.247,1.247,0,0,0-1.247,1.247Z" transform="translate(-71.897 -137.994)" fill="#fff"/>
          <path id="Trazado_227612" data-name="Trazado 227612" d="M204.5,218.677a1.247,1.247,0,1,0,1.247-1.247,1.247,1.247,0,0,0-1.247,1.247Z" transform="translate(-71.897 -138.902)" fill="#fff"/>
          <rect id="Rectángulo_303787" data-name="Rectángulo 303787" width="3.853" height="11.586" transform="translate(123.768 73.196)" fill="#455a64"/>
          <rect id="Rectángulo_303788" data-name="Rectángulo 303788" width="3.853" height="11.586" transform="translate(118.206 73.196)" fill="#455a64"/>
          <rect id="Rectángulo_303789" data-name="Rectángulo 303789" width="3.853" height="11.586" transform="translate(112.636 73.196)" fill="#455a64"/>
          <rect id="Rectángulo_303790" data-name="Rectángulo 303790" width="3.853" height="11.586" transform="translate(107.073 73.196)" fill="#455a64"/>
          <rect id="Rectángulo_303791" data-name="Rectángulo 303791" width="3.853" height="11.586" transform="translate(101.511 73.196)" fill="#455a64"/>
          <rect id="Rectángulo_303792" data-name="Rectángulo 303792" width="3.853" height="11.586" transform="translate(95.941 73.196)" fill="#455a64"/>
          <rect id="Rectángulo_303793" data-name="Rectángulo 303793" width="3.853" height="11.586" transform="translate(90.378 73.196)" fill="#455a64"/>
          <rect id="Rectángulo_303794" data-name="Rectángulo 303794" width="3.853" height="11.586" transform="translate(84.808 73.196)" fill="#455a64"/>
          <rect id="Rectángulo_303795" data-name="Rectángulo 303795" width="3.853" height="11.586" transform="translate(79.246 73.196)" fill="#455a64"/>
          <rect id="Rectángulo_303796" data-name="Rectángulo 303796" width="3.853" height="11.586" transform="translate(73.683 73.196)" fill="#455a64"/>
          <rect id="Rectángulo_303797" data-name="Rectángulo 303797" width="70.018" height="19.711" transform="translate(73.077 97.342)" fill="#263238"/>
          <rect id="Rectángulo_303798" data-name="Rectángulo 303798" width="3.922" height="15.089" transform="translate(137.225 99.819)" fill="#4dd0e1"/>
          <path id="Trazado_227613" data-name="Trazado 227613" d="M204.5,245.847a1.247,1.247,0,1,0,1.213-1.247,1.247,1.247,0,0,0-1.213,1.247Z" transform="translate(-71.897 -142.858)" fill="#fff"/>
          <path id="Trazado_227614" data-name="Trazado 227614" d="M204.5,252.087a1.247,1.247,0,1,0,1.247-1.247,1.247,1.247,0,0,0-1.247,1.247Z" transform="translate(-71.897 -143.767)" fill="#fff"/>
          <rect id="Rectángulo_303799" data-name="Rectángulo 303799" width="3.853" height="11.586" transform="translate(123.768 101.742)" fill="#455a64"/>
          <rect id="Rectángulo_303800" data-name="Rectángulo 303800" width="3.853" height="11.586" transform="translate(118.206 101.742)" fill="#455a64"/>
          <rect id="Rectángulo_303801" data-name="Rectángulo 303801" width="3.853" height="11.586" transform="translate(112.636 101.742)" fill="#455a64"/>
          <rect id="Rectángulo_303802" data-name="Rectángulo 303802" width="3.853" height="11.586" transform="translate(107.073 101.742)" fill="#455a64"/>
          <rect id="Rectángulo_303803" data-name="Rectángulo 303803" width="3.853" height="11.586" transform="translate(101.511 101.742)" fill="#455a64"/>
          <rect id="Rectángulo_303804" data-name="Rectángulo 303804" width="3.853" height="11.586" transform="translate(95.941 101.742)" fill="#455a64"/>
          <rect id="Rectángulo_303805" data-name="Rectángulo 303805" width="3.853" height="11.586" transform="translate(90.378 101.742)" fill="#455a64"/>
          <rect id="Rectángulo_303806" data-name="Rectángulo 303806" width="3.853" height="11.586" transform="translate(84.808 101.742)" fill="#455a64"/>
          <rect id="Rectángulo_303807" data-name="Rectángulo 303807" width="3.853" height="11.586" transform="translate(79.246 101.742)" fill="#455a64"/>
          <rect id="Rectángulo_303808" data-name="Rectángulo 303808" width="3.853" height="11.586" transform="translate(73.683 101.742)" fill="#455a64"/>
          <rect id="Rectángulo_303809" data-name="Rectángulo 303809" width="70.018" height="19.711" transform="translate(73.077 126.28)" fill="#263238"/>
          <rect id="Rectángulo_303810" data-name="Rectángulo 303810" width="3.922" height="15.089" transform="translate(137.225 128.758)" fill="#4dd0e1"/>
          <path id="Trazado_227615" data-name="Trazado 227615" d="M204.5,279.717a1.247,1.247,0,1,0,1.247-1.247,1.247,1.247,0,0,0-1.247,1.247Z" transform="translate(-71.897 -147.79)" fill="#fff"/>
          <path id="Trazado_227616" data-name="Trazado 227616" d="M204.5,285.957a1.247,1.247,0,1,0,1.247-1.247,1.247,1.247,0,0,0-1.247,1.247Z" transform="translate(-71.897 -148.698)" fill="#fff"/>
          <rect id="Rectángulo_303811" data-name="Rectángulo 303811" width="3.853" height="11.586" transform="translate(123.768 130.68)" fill="#455a64"/>
          <rect id="Rectángulo_303812" data-name="Rectángulo 303812" width="3.853" height="11.586" transform="translate(118.206 130.68)" fill="#455a64"/>
          <rect id="Rectángulo_303813" data-name="Rectángulo 303813" width="3.853" height="11.586" transform="translate(112.636 130.68)" fill="#455a64"/>
          <rect id="Rectángulo_303814" data-name="Rectángulo 303814" width="3.853" height="11.586" transform="translate(107.073 130.68)" fill="#455a64"/>
          <rect id="Rectángulo_303815" data-name="Rectángulo 303815" width="3.853" height="11.586" transform="translate(101.511 130.68)" fill="#455a64"/>
          <rect id="Rectángulo_303816" data-name="Rectángulo 303816" width="3.853" height="11.586" transform="translate(95.941 130.68)" fill="#455a64"/>
          <rect id="Rectángulo_303817" data-name="Rectángulo 303817" width="3.853" height="11.586" transform="translate(90.378 130.68)" fill="#455a64"/>
          <rect id="Rectángulo_303818" data-name="Rectángulo 303818" width="3.853" height="11.586" transform="translate(84.808 130.68)" fill="#455a64"/>
          <rect id="Rectángulo_303819" data-name="Rectángulo 303819" width="3.853" height="11.586" transform="translate(79.246 130.68)" fill="#455a64"/>
          <rect id="Rectángulo_303820" data-name="Rectángulo 303820" width="3.853" height="11.586" transform="translate(73.683 130.68)" fill="#455a64"/>
          <rect id="Rectángulo_303821" data-name="Rectángulo 303821" width="70.018" height="19.711" transform="translate(73.077 159.32)" fill="#263238"/>
          <rect id="Rectángulo_303822" data-name="Rectángulo 303822" width="3.922" height="15.089" transform="translate(137.225 161.798)" fill="#4dd0e1"/>
          <path id="Trazado_227617" data-name="Trazado 227617" d="M204.5,318.387a1.247,1.247,0,1,0,1.247-1.247,1.247,1.247,0,0,0-1.247,1.247Z" transform="translate(-71.897 -153.42)" fill="#fff"/>
          <path id="Trazado_227618" data-name="Trazado 227618" d="M204.5,324.627a1.247,1.247,0,1,0,1.247-1.247,1.247,1.247,0,0,0-1.247,1.247Z" transform="translate(-71.897 -154.329)" fill="#fff"/>
          <rect id="Rectángulo_303823" data-name="Rectángulo 303823" width="3.853" height="11.586" transform="translate(123.768 163.72)" fill="#455a64"/>
          <rect id="Rectángulo_303824" data-name="Rectángulo 303824" width="3.853" height="11.586" transform="translate(118.206 163.72)" fill="#455a64"/>
          <rect id="Rectángulo_303825" data-name="Rectángulo 303825" width="3.853" height="11.586" transform="translate(112.636 163.72)" fill="#455a64"/>
          <rect id="Rectángulo_303826" data-name="Rectángulo 303826" width="3.853" height="11.586" transform="translate(107.073 163.72)" fill="#455a64"/>
          <rect id="Rectángulo_303827" data-name="Rectángulo 303827" width="3.853" height="11.586" transform="translate(101.511 163.72)" fill="#455a64"/>
          <rect id="Rectángulo_303828" data-name="Rectángulo 303828" width="3.853" height="11.586" transform="translate(95.941 163.72)" fill="#455a64"/>
          <rect id="Rectángulo_303829" data-name="Rectángulo 303829" width="3.853" height="11.586" transform="translate(90.378 163.72)" fill="#455a64"/>
          <rect id="Rectángulo_303830" data-name="Rectángulo 303830" width="3.853" height="11.586" transform="translate(84.808 163.72)" fill="#455a64"/>
          <rect id="Rectángulo_303831" data-name="Rectángulo 303831" width="3.853" height="11.586" transform="translate(79.246 163.72)" fill="#455a64"/>
          <rect id="Rectángulo_303832" data-name="Rectángulo 303832" width="3.853" height="11.586" transform="translate(73.683 163.72)" fill="#455a64"/>
          <rect id="Rectángulo_303833" data-name="Rectángulo 303833" width="70.018" height="19.711" transform="translate(73.077 221.298)" fill="#263238"/>
          <rect id="Rectángulo_303834" data-name="Rectángulo 303834" width="3.922" height="15.089" transform="translate(137.225 223.776)" fill="#4dd0e1"/>
          <path id="Trazado_227619" data-name="Trazado 227619" d="M204.5,390.929a1.247,1.247,0,1,0,1.247-1.239A1.247,1.247,0,0,0,204.5,390.929Z" transform="translate(-71.897 -163.983)" fill="#fff"/>
          <path id="Trazado_227620" data-name="Trazado 227620" d="M204.5,397.167a1.247,1.247,0,1,0,1.247-1.247,1.247,1.247,0,0,0-1.247,1.247Z" transform="translate(-71.897 -164.89)" fill="#fff"/>
          <rect id="Rectángulo_303835" data-name="Rectángulo 303835" width="3.853" height="11.586" transform="translate(123.768 225.707)" fill="#455a64"/>
          <rect id="Rectángulo_303836" data-name="Rectángulo 303836" width="3.853" height="11.586" transform="translate(118.206 225.707)" fill="#455a64"/>
          <rect id="Rectángulo_303837" data-name="Rectángulo 303837" width="3.853" height="11.586" transform="translate(112.636 225.707)" fill="#455a64"/>
          <rect id="Rectángulo_303838" data-name="Rectángulo 303838" width="3.853" height="11.586" transform="translate(107.073 225.707)" fill="#455a64"/>
          <rect id="Rectángulo_303839" data-name="Rectángulo 303839" width="3.853" height="11.586" transform="translate(101.511 225.707)" fill="#455a64"/>
          <rect id="Rectángulo_303840" data-name="Rectángulo 303840" width="3.853" height="11.586" transform="translate(95.941 225.707)" fill="#455a64"/>
          <rect id="Rectángulo_303841" data-name="Rectángulo 303841" width="3.853" height="11.586" transform="translate(90.378 225.707)" fill="#455a64"/>
          <rect id="Rectángulo_303842" data-name="Rectángulo 303842" width="3.853" height="11.586" transform="translate(84.808 225.707)" fill="#455a64"/>
          <rect id="Rectángulo_303843" data-name="Rectángulo 303843" width="3.853" height="11.586" transform="translate(79.246 225.707)" fill="#455a64"/>
          <rect id="Rectángulo_303844" data-name="Rectángulo 303844" width="3.853" height="11.586" transform="translate(73.683 225.707)" fill="#455a64"/>
          <rect id="Rectángulo_303845" data-name="Rectángulo 303845" width="70.018" height="19.711" transform="translate(73.077 190.335)" fill="#263238"/>
          <rect id="Rectángulo_303846" data-name="Rectángulo 303846" width="3.922" height="15.089" transform="translate(137.225 192.812)" fill="#4dd0e1"/>
          <path id="Trazado_227621" data-name="Trazado 227621" d="M204.5,354.689a1.247,1.247,0,1,0,1.247-1.239,1.248,1.248,0,0,0-1.247,1.239Z" transform="translate(-71.897 -158.707)" fill="#fff"/>
          <path id="Trazado_227622" data-name="Trazado 227622" d="M204.5,360.929a1.247,1.247,0,1,0,1.247-1.239,1.247,1.247,0,0,0-1.247,1.239Z" transform="translate(-71.897 -159.615)" fill="#fff"/>
          <rect id="Rectángulo_303847" data-name="Rectángulo 303847" width="3.853" height="11.586" transform="translate(123.768 194.743)" fill="#455a64"/>
          <rect id="Rectángulo_303848" data-name="Rectángulo 303848" width="3.853" height="11.586" transform="translate(118.206 194.743)" fill="#455a64"/>
          <rect id="Rectángulo_303849" data-name="Rectángulo 303849" width="3.853" height="11.586" transform="translate(112.636 194.743)" fill="#455a64"/>
          <rect id="Rectángulo_303850" data-name="Rectángulo 303850" width="3.853" height="11.586" transform="translate(107.073 194.743)" fill="#455a64"/>
          <rect id="Rectángulo_303851" data-name="Rectángulo 303851" width="3.853" height="11.586" transform="translate(101.511 194.743)" fill="#455a64"/>
          <rect id="Rectángulo_303852" data-name="Rectángulo 303852" width="3.853" height="11.586" transform="translate(95.941 194.743)" fill="#455a64"/>
          <rect id="Rectángulo_303853" data-name="Rectángulo 303853" width="3.853" height="11.586" transform="translate(90.378 194.743)" fill="#455a64"/>
          <rect id="Rectángulo_303854" data-name="Rectángulo 303854" width="3.853" height="11.586" transform="translate(84.808 194.743)" fill="#455a64"/>
          <rect id="Rectángulo_303855" data-name="Rectángulo 303855" width="3.853" height="11.586" transform="translate(79.246 194.743)" fill="#455a64"/>
          <rect id="Rectángulo_303856" data-name="Rectángulo 303856" width="3.853" height="11.586" transform="translate(73.683 194.743)" fill="#455a64"/>
          <path id="Trazado_227623" data-name="Trazado 227623" d="M189.821,169.663a2.564,2.564,0,0,0,.068-.607c0-.4.051-.991.077-1.752s0-1.709.077-2.768a18.155,18.155,0,0,1,.478-3.6,13.055,13.055,0,0,1,1.871-3.947,8.732,8.732,0,0,1,3.845-3.084,18.608,18.608,0,0,1,5.443-1.1l6.024-.53c8.271-.709,15.764-1.171,21.2-1.273,2.717-.051,4.913,0,6.434,0h1.752a2.734,2.734,0,0,0,.607,0,4.189,4.189,0,0,0-.607-.06l-1.752-.111c-1.512-.06-3.717-.12-6.442-.1-5.443,0-12.953.427-21.223,1.145l-6.032.53a18.736,18.736,0,0,0-5.562,1.119,9.031,9.031,0,0,0-3.982,3.247,13.14,13.14,0,0,0-1.871,4.075,17.087,17.087,0,0,0-.427,3.674v4.486A3.419,3.419,0,0,0,189.821,169.663Z" transform="translate(-90.027 -129.19)" fill="#263238"/>
          <path id="Trazado_227624" data-name="Trazado 227624" d="M189.593,170.681a2.3,2.3,0,0,0,.043-.572v-1.649c0-.718,0-1.589.085-2.563a8,8,0,0,1,.854-3.247,6.2,6.2,0,0,1,3.17-2.435,8.655,8.655,0,0,1,4.614-.47,7.86,7.86,0,0,1,2.384.8,4.554,4.554,0,0,1,1.846,1.709,2.486,2.486,0,0,1,0,2.478,3.307,3.307,0,0,1-2.093,1.581,2.691,2.691,0,0,1-2.461-.709,3.614,3.614,0,0,1-1.1-2.341,3.5,3.5,0,0,1,.735-2.392,5.126,5.126,0,0,1,1.854-1.64,6.835,6.835,0,0,1,2.315-.6c.786-.111,1.555-.222,2.3-.3,1.487-.171,2.888-.265,4.161-.316,2.563-.1,4.622-.06,6.049-.06h1.649a2.7,2.7,0,0,0,.572,0,2.761,2.761,0,0,0-.572-.06l-1.649-.077c-1.427-.06-3.494-.145-6.058-.085A41.863,41.863,0,0,0,204.1,158c-.752.077-1.529.171-2.324.282-.4.06-.795.111-1.213.188a4.887,4.887,0,0,0-1.23.427,5.605,5.605,0,0,0-2.016,1.76,3.956,3.956,0,0,0,.41,5.3,3.136,3.136,0,0,0,2.862.854,3.751,3.751,0,0,0,2.392-1.8,2.965,2.965,0,0,0,0-2.9,4.922,4.922,0,0,0-2.034-1.914,8.082,8.082,0,0,0-2.512-.854,8.954,8.954,0,0,0-4.819.538,6.468,6.468,0,0,0-3.307,2.623,7.979,7.979,0,0,0-.854,3.418c-.06,1.025,0,1.9,0,2.614s.051,1.222.068,1.649a2.988,2.988,0,0,0,.068.5Z" transform="translate(-68.593 -130.208)" fill="#263238"/>
          <path id="Trazado_227625" data-name="Trazado 227625" d="M189.79,169.338a3.246,3.246,0,0,0,.145-.649c.077-.436.2-1.068.367-1.88a36.318,36.318,0,0,1,2.059-6.673,19.54,19.54,0,0,1,6.092-8.185,11.568,11.568,0,0,1,5.588-2.127,60.285,60.285,0,0,1,6.57-.35c9.048-.171,17.25-.137,23.18-.367,2.965-.1,5.366-.239,7.023-.359l1.905-.154a3.63,3.63,0,0,0,.658-.085,3.612,3.612,0,0,0-.666,0l-1.905.077c-1.658.068-4.058.154-7.023.214-5.93.154-14.123.068-23.18.239a57.649,57.649,0,0,0-6.622.367,11.962,11.962,0,0,0-5.776,2.23,17.567,17.567,0,0,0-3.845,4.075,23.857,23.857,0,0,0-2.29,4.272,33.416,33.416,0,0,0-1.94,6.767c-.145.812-.239,1.452-.29,1.888A4.274,4.274,0,0,0,189.79,169.338Z" transform="translate(-95.712 -128.865)" fill="#263238"/>
          <rect id="Rectángulo_303857" data-name="Rectángulo 303857" width="68.096" height="9.885" transform="translate(74.042 3.144)" fill="#263238"/>
          <rect id="Rectángulo_303858" data-name="Rectángulo 303858" width="37.072" height="4.938" transform="translate(90.088 8.091)" fill="#455a64"/>
          <path id="Trazado_227626" data-name="Trazado 227626" d="M275.79,369.156a19.291,19.291,0,0,1,2.059.5,17.857,17.857,0,0,1,5.126,2.52,14.329,14.329,0,0,1,2.888,2.691,9.749,9.749,0,0,1,1.188,1.828,12.275,12.275,0,0,1,.743,2.2c.778,3.118.547,6.7.384,10.424s.094,7.425,1.564,10.407a11.552,11.552,0,0,0,2.777,3.717,13.49,13.49,0,0,0,6.6,3.119,11.967,11.967,0,0,0,2.512.111,8.664,8.664,0,0,0,1.564-.248,2.238,2.238,0,0,0,.521-.162c0-.051-.743.179-2.093.231a11.431,11.431,0,0,1-2.461-.179,13.346,13.346,0,0,1-3.1-.991,13.132,13.132,0,0,1-3.3-2.153,11.3,11.3,0,0,1-2.657-3.623c-1.4-2.888-1.641-6.511-1.478-10.253s.384-7.339-.436-10.543a12.229,12.229,0,0,0-.795-2.264,9.983,9.983,0,0,0-1.247-1.9,14.584,14.584,0,0,0-3-2.709,16.934,16.934,0,0,0-5.272-2.427,12.338,12.338,0,0,0-1.555-.3A2.1,2.1,0,0,0,275.79,369.156Z" transform="translate(-229.533 -160.99)" fill="#263238"/>
          <rect id="Rectángulo_303859" data-name="Rectángulo 303859" width="5.588" height="6.801" transform="translate(72.06 242.205)" fill="#263238"/>
          <rect id="Rectángulo_303860" data-name="Rectángulo 303860" width="31.348" height="34.347" transform="translate(14.909 190.992)" fill="#455a64"/>
          <circle id="Elipse_16479" data-name="Elipse 16479" cx="10.321" cy="10.321" r="10.321" transform="translate(30.587 222.895) rotate(-135)" fill="#263238"/>
          <path id="Trazado_227627" data-name="Trazado 227627" d="M320.86,368.436a5.126,5.126,0,1,0,5.126-5.126A5.126,5.126,0,0,0,320.86,368.436Z" transform="translate(-295.433 -160.142)" fill="#455a64"/>
          <ellipse id="Elipse_16480" data-name="Elipse 16480" cx="0.957" cy="0.957" rx="0.957" ry="0.957" transform="translate(41.062 195.367)" fill="#263238"/>
          <ellipse id="Elipse_16481" data-name="Elipse 16481" cx="0.957" cy="0.957" rx="0.957" ry="0.957" transform="translate(18.746 195.367)" fill="#263238"/>
          <ellipse id="Elipse_16482" data-name="Elipse 16482" cx="0.957" cy="0.957" rx="0.957" ry="0.957" transform="translate(18.549 220.726)" fill="#263238"/>
          <ellipse id="Elipse_16483" data-name="Elipse 16483" cx="0.957" cy="0.957" rx="0.957" ry="0.957" transform="translate(41.062 221.119)" fill="#263238"/>
          <rect id="Rectángulo_303861" data-name="Rectángulo 303861" width="2.529" height="34.347" transform="translate(12.38 190.992)" fill="#263238"/>
        </g>
        <g id="freepik--Shield--inject-115" transform="translate(179.522 4.178)">
          <path id="Trazado_227628" data-name="Trazado 227628" d="M329.37,197.752c0,.12,8.98.222,20.061.222s20.061-.1,20.061-.222-8.98-.222-20.061-.222S329.37,197.633,329.37,197.752Z" transform="translate(-244.938 -136.244)" fill="#263238"/>
          <path id="Trazado_227629" data-name="Trazado 227629" d="M377.245,195.046a3.265,3.265,0,0,0,.385,0H383.4l17.191.068,59.338.12h.162l.043-.154a14.738,14.738,0,0,0-14.525-18.874l.222.282a12.669,12.669,0,0,0,.461-3.981,13.141,13.141,0,0,0-6.835-11.107,13.431,13.431,0,0,0-12.568.068l.3.111a19.531,19.531,0,0,0-11.509-10.723,18.378,18.378,0,0,0-14.6.684,19.959,19.959,0,0,0-9.04,9.877,18.874,18.874,0,0,0-1.111,11.833l.162-.188a14.175,14.175,0,0,0-6.835.991,14.422,14.422,0,0,0-5.126,3.486,9.2,9.2,0,0,0-1.606,2.307,12.456,12.456,0,0,0-.854,2.444,21.468,21.468,0,0,0-.581,4.46,25.29,25.29,0,0,0,.53,6.177,15.3,15.3,0,0,0,.427,1.555c.12.342.188.5.188.5s-.051-.188-.154-.53-.231-.854-.376-1.546a26.379,26.379,0,0,1-.453-6.152,21.71,21.71,0,0,1,.615-4.417,9.885,9.885,0,0,1,2.435-4.631,14.321,14.321,0,0,1,5.024-3.418,13.961,13.961,0,0,1,6.733-.931h.214l-.043-.214a18.5,18.5,0,0,1,1.136-11.628,19.565,19.565,0,0,1,8.886-9.672,18,18,0,0,1,14.286-.641,19.181,19.181,0,0,1,11.253,10.5l.094.222.214-.111a13,13,0,0,1,12.158-.06,12.705,12.705,0,0,1,6.562,10.7,12.058,12.058,0,0,1-.41,3.981l-.086.29h.308a14.311,14.311,0,0,1,14.123,18.31l.205-.154-59.227.094-17.233.06h-5.818Z" transform="translate(-376.065 -129.275)" fill="#263238"/>
          <path id="Trazado_227630" data-name="Trazado 227630" d="M427,253.284a2.338,2.338,0,0,0,.538,0l1.572.043,5.836.1,20.232.077h.273V242.322c0-10.808-.051-20.582-.068-27.708,0-3.52-.051-6.374-.068-8.4,0-.957,0-1.709-.043-2.281v-.6a.1.1,0,1,0-.051,0v.6c0,.555,0,1.324-.043,2.281,0,2.025-.043,4.879-.068,8.4,0,7.126,0,16.9-.068,27.708v10.97l.214-.214-20.232.077-5.861.068H427.59a3.209,3.209,0,0,0-.59.06Z" transform="translate(-414.312 -137.06)" fill="#263238"/>
          <path id="Trazado_227631" data-name="Trazado 227631" d="M405.73,132.655l19.07-6.835,18.891,6.758c2.409,1.136,4.528,1.82,4.528,4.067v11.184A42.259,42.259,0,0,1,442,170.086a38.73,38.73,0,0,1-17.378,15.379c-7.69-2.512-13.491-9.193-17.011-14.909a42.31,42.31,0,0,1-6.22-22.266v-10.1C401.39,134.988,403.082,133.424,405.73,132.655Z" transform="translate(-385.199 -125.803)" fill="#4dd0e1"/>
          <g id="Grupo_215543" data-name="Grupo 215543" transform="translate(39.423)" opacity="0.3">
            <path id="Trazado_227632" data-name="Trazado 227632" d="M401.4,178.944A30.759,30.759,0,0,0,415.145,166.7a33.416,33.416,0,0,0,4.913-17.66V141.2a4.962,4.962,0,0,0-3.2-4.434L401.569,131.1v-5.3l18.891,6.758c1.982.854,4.528,1.82,4.528,4.067v11.184a42.259,42.259,0,0,1-6.22,22.257,38.73,38.73,0,0,1-17.378,15.379Z" transform="translate(-401.39 -125.8)"/>
          </g>
          <g id="Grupo_215544" data-name="Grupo 215544" transform="translate(16.184 0.017)" opacity="0.4">
            <path id="Trazado_227633" data-name="Trazado 227633" d="M452.017,185.423a23.486,23.486,0,0,1-3.751-1.606,33.519,33.519,0,0,1-7.929-6.237,42.817,42.817,0,0,1-5.519-7.416,40.661,40.661,0,0,1-6.032-22.471v-9.236c0-4.6,2.375-4.938,4.357-5.8l19.07-6.835v5.28l-15.473,5.81a4.959,4.959,0,0,0-3.2,4.443V149.2a33.415,33.415,0,0,0,4.921,17.609,30.049,30.049,0,0,0,13.551,12.141Z" transform="translate(-428.77 -125.82)"/>
          </g>
          <path id="Trazado_227634" data-name="Trazado 227634" d="M422.862,151.348v-1.512a4.956,4.956,0,1,1,9.911,0v1.529a2.777,2.777,0,0,1,2.367,2.743v8.9a2.768,2.768,0,0,1-2.777,2.768h-9.236a2.768,2.768,0,0,1-2.777-2.768v-8.9a2.777,2.777,0,0,1,2.512-2.76Zm3.614,9.45h2.418l-.384-1.709a1.461,1.461,0,0,0,.7-1.247,1.478,1.478,0,1,0-2.3,1.222C426.741,159.7,426.476,160.8,426.476,160.8Zm-2.563-9.458h7.766v-1.5a3.888,3.888,0,1,0-7.775,0Z" transform="translate(-388.318 -128.578)" fill="#fff" opacity="0.5"/>
          <path id="Trazado_227635" data-name="Trazado 227635" d="M411.639,150.6a5.791,5.791,0,0,0,.29-1.546,27.246,27.246,0,0,0,.154-3.794,19.575,19.575,0,0,0-.137-2.093,4.64,4.64,0,0,0-.427-1.709,1.99,1.99,0,0,0-.854-.854c-.256-.12-.419-.111-.419-.094a2.145,2.145,0,0,1,1.042,1.042,4.631,4.631,0,0,1,.333,1.606c.051.641.085,1.341.111,2.076,0,1.47,0,2.8-.06,3.768a9.049,9.049,0,0,0-.034,1.6Z" transform="translate(-356.641 -127.94)" fill="#fff"/>
          <path id="Trazado_227636" data-name="Trazado 227636" d="M411.037,157.649c.094,0,.179-.453.188-1.025s-.051-1.034-.145-1.034-.171.461-.188,1.025S410.951,157.649,411.037,157.649Z" transform="translate(-356.32 -130.137)" fill="#fff"/>
        </g>
      </g>
    </g>
  </g>
</svg>
