<svg xmlns="http://www.w3.org/2000/svg" width="298.792" height="168.015" viewBox="0 0 298.792 168.015">
  <g id="Grupo_215608" data-name="Grupo 215608" transform="translate(-381 -4189)">
    <rect id="Imagen_5" data-name="Imagen 5" width="298.792" height="168.015" rx="19" transform="translate(381 4189)" fill="#feca2e"/>
    <g id="_2d3245ff" data-name="#2d3245ff" transform="translate(406.523 4136.278)">
      <path id="Trazado_221700" data-name="Trazado 221700" d="M209.5,94.24a49.7,49.7,0,0,1,24.326-6.648,49.169,49.169,0,0,1,21.095,4.44,49.676,49.676,0,0,1,22.1,19.861,49.935,49.935,0,0,1,5.73,35.936c2.087,1.209,4.183,2.4,6.264,3.622a1.371,1.371,0,0,1-.094,2.394q-11.782,6.81-23.57,13.6a1.356,1.356,0,0,1-2.025-1.092q-.019-13.679-.006-27.357a1.368,1.368,0,0,1,2-1.232c1.96,1.117,3.9,2.265,5.863,3.375a36.967,36.967,0,0,0-5.27-23.382,37.34,37.34,0,0,0-12.342-12.286,37.014,37.014,0,0,0-34.257-2.181C216.065,100.254,212.742,97.289,209.5,94.24Z" transform="translate(-111.587 0)" fill="#12263f"/>
      <path id="Trazado_221701" data-name="Trazado 221701" d="M91.914,181.161a7,7,0,0,1,1.315-.678,1.4,1.4,0,0,1,1.618,1.53c0,9.055.017,18.108-.01,27.163a1.353,1.353,0,0,1-1.97,1.165c-2.3-1.286-4.557-2.663-6.869-3.928a37.031,37.031,0,0,0,46.7,39.86c3.463,3.154,6.874,6.366,10.37,9.485a38.9,38.9,0,0,1-6.412,2.415,49.552,49.552,0,0,1-62.2-58.412c-1.457-.935-2.993-1.741-4.479-2.626-.5-.315-1.169-.53-1.39-1.138a1.351,1.351,0,0,1,.578-1.695Q80.532,187.719,91.914,181.161Z" transform="translate(0 -73.484)" fill="#12263f"/>
      <path id="Trazado_221702" data-name="Trazado 221702" d="M262.583,245.635a16.609,16.609,0,0,1,13.378,29.4,16.625,16.625,0,0,1-25.91-7.663,16.609,16.609,0,0,1,12.532-21.742Z" transform="translate(-142.959 -124.825)" fill="#12263f"/>
    </g>
  </g>
</svg>
