<svg xmlns="http://www.w3.org/2000/svg" xmlns:xlink="http://www.w3.org/1999/xlink" width="77.568" height="77.568" viewBox="0 0 77.568 77.568">
  <defs>
    <clipPath id="clip-path">
      <path id="path9156" d="M0-682.665H77.568V-605.1H0Z" transform="translate(0 682.665)"/>
    </clipPath>
  </defs>
  <g id="Grupo_215601" data-name="Grupo 215601" transform="translate(-327.432 -1676)">
    <g id="g9150" transform="translate(327.432 2358.665)">
      <g id="g9152" transform="translate(0 -682.665)">
        <g id="g9154" clip-path="url(#clip-path)">
          <g id="g9160" transform="translate(64.314 20.686)">
            <path id="path9162" d="M-3.6,0h-.01l-.45.265v7.8H2.78l.374-.318v-1A6.769,6.769,0,0,0-3.6,0" transform="translate(4.056)" fill="#feca2e"/>
          </g>
          <g id="g9164" transform="translate(20.33 1.136)">
            <path id="path9166" d="M-281.713-8.473l-.483-1.086h-33.127a2.5,2.5,0,0,0-2.5,2.5v4.321l1.041.853h27.772l9.118,8.863V18.267h6.489l.722-.527V-.047l-1.126-.5Z" transform="translate(317.826 9.559)" fill="#a6f4fe"/>
          </g>
          <g id="g9168" transform="translate(19.622 1.136)">
            <path id="path9170" d="M-60.558-19.525a2.5,2.5,0,0,1,2.5-2.5h-7.763a2.5,2.5,0,0,0-2.5,2.5V-15.2l1.041.853h7.763l-1.041-.853Z" transform="translate(68.321 22.028)" fill="#4dd0e1"/>
          </g>
          <g id="g9172" transform="translate(6.045 20.686)">
            <path id="path9174" d="M-52.733,0h-.138a6.641,6.641,0,0,0-6.621,6.621V7.749l.654.181h6.616V.426Z" transform="translate(59.493)" fill="#feca2e"/>
          </g>
          <g id="g9176" transform="translate(55.252 1.136)">
            <path id="path9178" d="M0,0V7.009a2.5,2.5,0,0,0,2.5,2.5H9.512Z" fill="#a6f4fe"/>
          </g>
          <g id="g9180" transform="translate(12.805 7.96)">
            <path id="path9182" d="M-282.5-11.182l-.583-1.433h-33.127a2.5,2.5,0,0,0-2.5,2.5V7.86l.982.982h41.465l2.7-.982V-3.1l-1.4-.655Z" transform="translate(318.709 12.616)" fill="#dee4f0"/>
          </g>
          <g id="g9184" transform="translate(12.805 7.96)">
            <path id="path9186" d="M-60.558-19.525a2.5,2.5,0,0,1,2.5-2.5h-7.763a2.5,2.5,0,0,0-2.5,2.5V-1.552l.982.981h7.763l-.982-.981Z" transform="translate(68.321 22.028)" fill="#d2e1f1"/>
          </g>
          <g id="g9188" transform="translate(48.435 7.96)">
            <path id="path9190" d="M0,0V7.009a2.5,2.5,0,0,0,2.5,2.5H9.512Z" fill="#b5dcff"/>
          </g>
          <g id="g9192" transform="translate(55.252 1.136)">
            <path id="path9194" d="M-31.909-54.679V-57.6L-36-61.688v7.009a2.5,2.5,0,0,0,2.5,2.5h4.091a2.5,2.5,0,0,1-2.5-2.5" transform="translate(36 61.688)" fill="#4dd0e1"/>
          </g>
          <g id="g9196" transform="translate(48.435 7.96)">
            <path id="path9198" d="M-31.909-54.679V-57.6L-36-61.688v7.009a2.5,2.5,0,0,0,2.5,2.5h4.091a2.5,2.5,0,0,1-2.5-2.5" transform="translate(36 61.688)" fill="#dee4f0"/>
          </g>
          <g id="g9200" transform="translate(6.045 28.435)">
            <path id="path9202" d="M-510.789,0h-65.479V45.984A2.012,2.012,0,0,0-574.256,48H-512.8a2.012,2.012,0,0,0,2.012-2.012Z" transform="translate(576.268)" fill="#fed96b"/>
          </g>
          <g id="g9204" transform="translate(6.045 28.435)">
            <path id="path9206" d="M-75.283-358.717V-404.7h-9.651v45.984a2.012,2.012,0,0,0,2.012,2.012h9.651a2.012,2.012,0,0,1-2.012-2.012" transform="translate(84.933 404.702)" fill="#feca2e"/>
          </g>
          <g id="g9208" transform="translate(38.785 48.487)">
            <path id="path9210" d="M-198.146,0h-24.113a1.288,1.288,0,0,0-1.288,1.288v18.98a1.288,1.288,0,0,0,1.288,1.288h24.113a1.288,1.288,0,0,0,1.288-1.288V1.288A1.288,1.288,0,0,0-198.146,0" transform="translate(223.546)" fill="#dbedff"/>
          </g>
          <g id="g9212" transform="translate(38.785 48.487)">
            <path id="path9214" d="M-47.2-158.106v-18.98a1.288,1.288,0,0,1,1.288-1.288h-6.051a1.288,1.288,0,0,0-1.288,1.288v18.98a1.288,1.288,0,0,0,1.288,1.288h6.051a1.288,1.288,0,0,1-1.288-1.288" transform="translate(53.253 178.374)" fill="#b5dcff"/>
          </g>
          <g id="g9216" transform="translate(4.908 19.55)">
            <path id="path9218" d="M-61.735-10h.138a1.136,1.136,0,0,1,1.136,1.136v7.749A1.136,1.136,0,0,1-61.6.021h-6.76a1.136,1.136,0,0,1-1.136-1.136V-2.242A7.767,7.767,0,0,1-61.735-10Zm-1,7.749V-7.637a5.494,5.494,0,0,0-4.487,5.385Z" transform="translate(69.493 10)"/>
          </g>
          <g id="g9220" transform="translate(63.627 19.55)">
            <path id="path9222" d="M-8.954-10h.01A7.9,7.9,0,0,1-1.058-2.114v1A1.136,1.136,0,0,1-2.195.021h-6.76a1.136,1.136,0,0,1-1.136-1.136V-8.864A1.136,1.136,0,0,1-8.954-10Zm5.622,7.749A5.623,5.623,0,0,0-7.818-7.614v5.363Z" transform="translate(10.091 10)"/>
          </g>
          <g id="g9224" transform="translate(18.485 0)">
            <path id="path9226" d="M-28.389-10H4.738a1.136,1.136,0,0,1,.8.333L15.054-.155a1.136,1.136,0,0,1,.333.8V18.435a1.136,1.136,0,0,1-1.136,1.136H7.434A1.136,1.136,0,0,1,6.3,18.435V7.943L-2.549-.9H-30.892A1.136,1.136,0,0,1-32.028-2.04V-6.361A3.643,3.643,0,0,1-28.389-10ZM4.268-7.727H-28.389a1.368,1.368,0,0,0-1.367,1.367v3.184H-2.078a1.136,1.136,0,0,1,.8.333L8.237,6.669a1.136,1.136,0,0,1,.333.8V17.3h4.544V1.119Z" transform="translate(32.028 10)"/>
          </g>
          <g id="g9228" transform="translate(11.668 6.823)">
            <path id="path9230" d="M-319.935-10h33.127a1.136,1.136,0,0,1,.8.333l9.512,9.512a1.136,1.136,0,0,1,.333.8V11.612a1.136,1.136,0,0,1-1.136,1.136h-45.142a1.136,1.136,0,0,1-1.136-1.136V-6.361A3.643,3.643,0,0,1-319.935-10Zm32.657,2.273h-32.657A1.368,1.368,0,0,0-321.3-6.361V10.476h42.87V1.119Z" transform="translate(323.574 10)"/>
          </g>
          <g id="g9232" transform="translate(47.298 6.823)">
            <path id="path9234" d="M-8.864-10a1.136,1.136,0,0,1,.8.333L1.452-.155a1.136,1.136,0,0,1-.8,1.94H-6.361A3.643,3.643,0,0,1-10-1.855V-8.864a1.136,1.136,0,0,1,.7-1.05A1.135,1.135,0,0,1-8.864-10ZM-2.095-.488-7.727-6.121v4.266A1.368,1.368,0,0,0-6.361-.488Z" transform="translate(10 10)"/>
          </g>
          <g id="g9236" transform="translate(54.115 0)">
            <path id="path9238" d="M-8.864-10a1.136,1.136,0,0,1,.8.333L1.452-.155a1.136,1.136,0,0,1-.8,1.94H-6.361A3.643,3.643,0,0,1-10-1.855V-8.864a1.136,1.136,0,0,1,.7-1.05A1.135,1.135,0,0,1-8.864-10ZM-2.095-.488-7.727-6.121v4.266A1.368,1.368,0,0,0-6.361-.488Z" transform="translate(10 10)"/>
          </g>
          <g id="g9240" transform="translate(42.962 64.407)">
            <path id="path9242" d="M7.2-7.727H-8.864A1.136,1.136,0,0,1-10-8.864,1.136,1.136,0,0,1-8.864-10H7.2A1.136,1.136,0,0,1,8.332-8.864,1.136,1.136,0,0,1,7.2-7.727Z" transform="translate(10 10)"/>
          </g>
          <g id="g9244" transform="translate(42.962 60.221)">
            <path id="path9246" d="M7.2-7.727H-8.864A1.136,1.136,0,0,1-10-8.864,1.136,1.136,0,0,1-8.864-10H7.2A1.136,1.136,0,0,1,8.332-8.864,1.136,1.136,0,0,1,7.2-7.727Z" transform="translate(10 10)"/>
          </g>
          <g id="g9248" transform="translate(42.962 56.036)">
            <path id="path9250" d="M7.2-7.727H-8.864A1.136,1.136,0,0,1-10-8.864,1.136,1.136,0,0,1-8.864-10H7.2A1.136,1.136,0,0,1,8.332-8.864,1.136,1.136,0,0,1,7.2-7.727Z" transform="translate(10 10)"/>
          </g>
          <g id="g9252" transform="translate(42.962 51.85)">
            <path id="path9254" d="M7.2-7.727H-8.864A1.136,1.136,0,0,1-10-8.864,1.136,1.136,0,0,1-8.864-10H7.2A1.136,1.136,0,0,1,8.332-8.864,1.136,1.136,0,0,1,7.2-7.727Z" transform="translate(10 10)"/>
          </g>
          <g id="g9256" transform="translate(17.966 22.667)">
            <path id="path9258" d="M22.394-7.727H-8.864A1.136,1.136,0,0,1-10-8.864,1.136,1.136,0,0,1-8.864-10H22.394A1.136,1.136,0,0,1,23.53-8.864,1.136,1.136,0,0,1,22.394-7.727Z" transform="translate(10 10)"/>
          </g>
          <g id="g9260" transform="translate(17.966 18.482)">
            <path id="path9262" d="M17.444-7.727H-8.864A1.136,1.136,0,0,1-10-8.864,1.136,1.136,0,0,1-8.864-10H17.444a1.136,1.136,0,0,1,1.136,1.136A1.136,1.136,0,0,1,17.444-7.727Z" transform="translate(10 10)"/>
          </g>
          <g id="g9264" transform="translate(37.648 47.35)">
            <path id="path9266" d="M-77.57,13.828h-24.113a2.427,2.427,0,0,1-2.424-2.424V-7.576A2.427,2.427,0,0,1-101.682-10h9.405a1.136,1.136,0,0,1,1.136,1.136,1.136,1.136,0,0,1-1.136,1.136h-9.405a.152.152,0,0,0-.152.152V11.4a.152.152,0,0,0,.152.151H-77.57a.152.152,0,0,0,.151-.151V-7.576a.152.152,0,0,0-.151-.152h-9.405a1.136,1.136,0,0,1-1.136-1.136A1.136,1.136,0,0,1-86.975-10h9.405a2.427,2.427,0,0,1,2.424,2.424V11.4A2.427,2.427,0,0,1-77.57,13.828Z" transform="translate(104.106 10)"/>
          </g>
          <g id="g9268" transform="translate(4.908 27.299)">
            <path id="path9270" d="M-521.665-136.766h-61.454a3.152,3.152,0,0,1-3.148-3.148V-185.9a1.136,1.136,0,0,1,1.136-1.136h65.479a1.136,1.136,0,0,1,1.136,1.136v20.116a1.136,1.136,0,0,1-1.136,1.136,1.136,1.136,0,0,1-1.136-1.136v-18.979H-584v44.848a.877.877,0,0,0,.876.876h61.454a.877.877,0,0,0,.876-.876v-20.566a1.136,1.136,0,0,1,1.136-1.136,1.136,1.136,0,0,1,1.136,1.136v20.566A3.152,3.152,0,0,1-521.665-136.766Z" transform="translate(586.268 187.035)"/>
          </g>
        </g>
      </g>
    </g>
  </g>
</svg>
