<svg xmlns="http://www.w3.org/2000/svg" width="307.121" height="172.698" viewBox="0 0 307.121 172.698">
  <g id="Grupo_215607" data-name="Grupo 215607" transform="translate(-927 -3918)">
    <rect id="Imagen_6" data-name="Imagen 6" width="307.121" height="172.698" rx="19" transform="translate(927 3918)" fill="#feca2e"/>
    <g id="Grupo_210471" data-name="Grupo 210471" transform="translate(373.278 23)">
      <g id="Grupo_210470" data-name="Grupo 210470" transform="translate(651.722 3926)">
        <path id="Trazado_221703" data-name="Trazado 221703" d="M230.033,228.438a8.343,8.343,0,1,1,.925-7.5A8.342,8.342,0,0,1,230.033,228.438Z" transform="translate(-167.183 -167.818)" fill="#4dd0e1"/>
        <path id="Trazado_221704" data-name="Trazado 221704" d="M20.074,100.322a6.824,6.824,0,0,1-7.285,2.815,6.736,6.736,0,0,1-2.194-.971,6.826,6.826,0,1,1,9.479-1.844Z" transform="translate(-6.024 -69.974)" fill="#fff"/>
        <path id="Trazado_221705" data-name="Trazado 221705" d="M450.646,363.529a6.832,6.832,0,1,1,.969-5.442A6.822,6.822,0,0,1,450.646,363.529Z" transform="translate(-341.18 -274.993)" fill="#bddcf6"/>
        <path id="Trazado_221706" data-name="Trazado 221706" d="M249.377,247.783a8.342,8.342,0,0,1-9.749,3.183A8.339,8.339,0,0,1,250.3,240.283,8.318,8.318,0,0,1,249.377,247.783Z" transform="translate(-186.343 -186.978)" fill="#4dd0e1"/>
        <path id="Trazado_221707" data-name="Trazado 221707" d="M39.418,119.667a6.824,6.824,0,0,1-7.285,2.815,6.826,6.826,0,0,1,8.254-8.258A6.8,6.8,0,0,1,39.418,119.667Z" transform="translate(-25.368 -89.034)" fill="#fff"/>
        <path id="Trazado_221708" data-name="Trazado 221708" d="M469.987,382.873a6.822,6.822,0,0,1-7.285,2.815,6.826,6.826,0,0,1,8.254-8.258A6.794,6.794,0,0,1,469.987,382.873Z" transform="translate(-360.52 -294.264)" fill="#bddcf6"/>
        <path id="Trazado_221709" data-name="Trazado 221709" d="M207.245,217.779a9.89,9.89,0,1,0,19.639-1.649,1.549,1.549,0,0,0-3.054.519,6.791,6.791,0,1,1-2.531-4.227,1.549,1.549,0,1,0,1.9-2.451A9.9,9.9,0,0,0,207.245,217.779Z" transform="translate(-161.201 -161.828)"/>
        <path id="Trazado_221710" data-name="Trazado 221710" d="M106.888,76.856a18.756,18.756,0,0,0-9.334-18.105l-3.911-2.239,3.911-2.238A18.716,18.716,0,0,0,88.2,19.309c-6.839,0-10.68,3.55-13.542,4.915-.08-4.087.233-5.97-.449-9.015a1.65,1.65,0,1,0-3.221.721c.589,2.634.286,4.107.369,10.183L55.937,34.938h0L40.512,26.112V19.28a15.412,15.412,0,0,1,28.094-8.77,1.65,1.65,0,1,0,2.709-1.886,18.712,18.712,0,0,0-34.1,10.656v4.944L32.92,21.768A18.717,18.717,0,0,0,15.406,21.2C9.229,14.715-1.506,20.407.177,29.058a8.889,8.889,0,0,0,4.9,6.342,18.758,18.758,0,0,0,9.242,18.875l3.911,2.239L14.32,58.752a18.72,18.72,0,0,0,7.7,34.893c.049,0,.1.006.147.006a1.65,1.65,0,0,0,.142-3.295,15.419,15.419,0,0,1-6.351-28.74l5.6-3.2,15.656,8.96h0V85c-5.242,2.906-6.441,3.938-9.011,4.734a1.65,1.65,0,1,0,.976,3.153c2.977-.922,4.446-2.123,8.034-4.084v4.945a18.726,18.726,0,0,0,37.451,0V88.8c4.677,2.677,7.806,4.925,13.559,4.925a18.87,18.87,0,0,0,8.9-2.236,8.9,8.9,0,0,0,7.843,2.282C113.451,92.121,114.86,80.375,106.888,76.856ZM3.416,28.427A5.624,5.624,0,1,1,13.6,30.5,5.632,5.632,0,0,1,3.416,28.427ZM37.211,63.57h0L24.877,56.513l12.333-7.057Zm0-17.917L21.554,54.612h0l-5.6-3.2a15.314,15.314,0,0,1-7.2-9.343A15.5,15.5,0,0,1,8.3,36.258,8.933,8.933,0,0,0,17.208,24a15.415,15.415,0,0,1,14.072.634l5.931,3.393V45.653Zm3.3-15.739,12.1,6.925-12.1,6.926V29.914Zm0,39.349,12.1,6.924-12.1,6.924Zm30.85,24.484a15.425,15.425,0,0,1-30.85,0V86.914l15.424-8.826,15.426,8.827Zm0-10.634-12.1-6.925,12.1-6.926Zm0-17.654L55.935,74.286,40.511,65.46V47.568l15.426-8.827,15.424,8.825V65.459Zm0-21.7L59.26,36.84l12.1-6.924V43.764Zm3.3-15.736c4.527-2.255,7.561-5.417,13.542-5.417a15.421,15.421,0,0,1,7.71,28.8l-5.6,3.2-15.656-8.96V28.027Zm0,21.429L87,56.513,74.662,63.57ZM95.175,88.783a15.421,15.421,0,0,1-14.582-.39L74.662,85V67.373l15.657-8.958h0l5.6,3.2a15.314,15.314,0,0,1,7.2,9.343,15.5,15.5,0,0,1,.517,5.14A8.919,8.919,0,0,0,95.175,88.783Zm9.16,1.749A5.624,5.624,0,1,1,106.4,80.349,5.629,5.629,0,0,1,104.335,90.532Z" transform="translate(0 -0.554)"/>
      </g>
    </g>
  </g>
</svg>
