<svg xmlns="http://www.w3.org/2000/svg" xmlns:xlink="http://www.w3.org/1999/xlink" width="400" height="241" viewBox="0 0 400 241">
  <defs>
    <clipPath id="clip-path">
      <rect id="Rectángulo_303888" data-name="Rectángulo 303888" width="400" height="241" transform="translate(1020 5112)" fill="#fff" stroke="#707070" stroke-width="1"/>
    </clipPath>
  </defs>
  <g id="Grupo_215611" data-name="Grupo 215611" transform="translate(-1020 -5142)">
    <g id="Enmascarar_grupo_78" data-name="Enmascarar grupo 78" transform="translate(0 30)" clip-path="url(#clip-path)">
      <g id="Programming-pana" transform="translate(957.5 5138)">
        <g id="freepik--Floor--inject-33" transform="translate(0 343.827)">
          <path id="Trazado_227664" data-name="Trazado 227664" d="M27.14,445.117c0,.155,110.2.287,246.127.287s246.149-.133,246.149-.287-110.18-.287-246.149-.287S27.14,444.951,27.14,445.117Z" transform="translate(-27.14 -444.83)" fill="#263238"/>
        </g>
        <g id="freepik--Screens--inject-33" transform="translate(81.918 -20)">
          <rect id="Rectángulo_303871" data-name="Rectángulo 303871" width="154.767" height="126.084" transform="translate(26.286 0)" fill="#e0e0e0"/>
          <rect id="Rectángulo_303872" data-name="Rectángulo 303872" width="154.767" height="126.084" transform="translate(15.286 8.007)" fill="#ebebeb"/>
          <rect id="Rectángulo_303873" data-name="Rectángulo 303873" width="158.897" height="129.453" transform="translate(0.121 16.788)" fill="#fff"/>
          <path id="Trazado_227665" data-name="Trazado 227665" d="M430.249,280.1v-9.3c0-6.052,0-14.921-.055-26.231,0-22.6-.077-54.924-.133-93.878l.243.243H271.429l.287-.287V280.1l-.265-.265,114.863.133,32.493.066h.1l-32.438.066-114.984.133h-.254V150.24H430.657v.243c-.055,39.053-.1,71.436-.121,94.077,0,11.276-.055,20.134-.066,26.175v6.859A12.185,12.185,0,0,1,430.249,280.1Z" transform="translate(-271.23 -133.861)" fill="#263238"/>
          <path id="Trazado_227672" data-name="Trazado 227672" d="M287.8,256.491l-1.734.63,1.712.618v.641l-2.441-.928v-.674l2.441-.928Z" transform="translate(-269.756 -122.83)" fill="#4dd0e1"/>
          <path id="Trazado_227673" data-name="Trazado 227673" d="M289.38,254.71h.718l-1.69,4.826h-.718Z" transform="translate(-269.511 -122.949)" fill="#4dd0e1"/>
          <path id="Trazado_227674" data-name="Trazado 227674" d="M293.308,255.37v3.589h-.839v-1.469h-1.59v1.469h-.828V255.37h.828v1.414H292.5V255.37Z" transform="translate(-269.264 -122.88)" fill="#4dd0e1"/>
          <path id="Trazado_227675" data-name="Trazado 227675" d="M294.564,256.064h-1.1v-.674h3.115v.674h-1.1v2.916h-.839Z" transform="translate(-268.908 -122.878)" fill="#4dd0e1"/>
          <path id="Trazado_227676" data-name="Trazado 227676" d="M299.922,258.959v-2.154l-1.1,1.778h-.375l-1.049-1.734v2.109h-.773V255.37h.685l1.336,2.209,1.325-2.209h.685v3.589Z" transform="translate(-268.578 -122.88)" fill="#4dd0e1"/>
          <path id="Trazado_227677" data-name="Trazado 227677" d="M301.08,255.37h.828v2.9h1.8v.674H301.08Z" transform="translate(-268.112 -122.88)" fill="#4dd0e1"/>
          <path id="Trazado_227678" data-name="Trazado 227678" d="M306.231,256.778v.674l-2.441.928v-.641l1.712-.618-1.712-.63v-.641Z" transform="translate(-267.829 -122.83)" fill="#4dd0e1"/>
          <path id="Trazado_227679" data-name="Trazado 227679" d="M299.287,176.481l-1.822.7,1.822.707v.42l-2.3-.906v-.442l2.3-.906Z" transform="translate(-268.539 -131.165)"/>
          <path id="Trazado_227680" data-name="Trazado 227680" d="M302.941,175.45v3.589h-.508v-1.6h-2.054v1.6h-.519V175.45h.519V177h2.054V175.45Z" transform="translate(-268.24 -131.228)"/>
          <path id="Trazado_227681" data-name="Trazado 227681" d="M306.247,178.587v.453H303.64V175.45h2.54v.442h-2.021V177h1.8v.431h-1.8v1.1Z" transform="translate(-267.845 -131.228)"/>
          <path id="Trazado_227682" data-name="Trazado 227682" d="M309.067,178.134h-1.911l-.387.906h-.53l1.624-3.589h.508L310,179.039h-.541Zm-.177-.409-.773-1.756-.784,1.756Z" transform="translate(-267.573 -131.228)"/>
          <path id="Trazado_227683" data-name="Trazado 227683" d="M310.12,175.451h1.513a1.8,1.8,0,1,1,0,3.589H310.12Zm1.48,3.137a1.347,1.347,0,1,0,0-2.695h-.972v2.695Z" transform="translate(-267.168 -131.228)"/>
          <path id="Trazado_227684" data-name="Trazado 227684" d="M316.067,176.956v.442l-2.3.906v-.42l1.822-.707-1.822-.7v-.431Z" transform="translate(-266.787 -131.165)"/>
          <path id="Trazado_227685" data-name="Trazado 227685" d="M299.287,187.6l-1.822.7,1.822.707v.42l-2.3-.906v-.431l2.3-.906Z" transform="translate(-268.539 -130.003)"/>
          <path id="Trazado_227686" data-name="Trazado 227686" d="M300.627,187.042H299.39V186.6h2.971v.442h-1.193v3.148h-.508Z" transform="translate(-268.289 -130.063)"/>
          <path id="Trazado_227687" data-name="Trazado 227687" d="M302.58,186.57h.519v3.589h-.519Z" transform="translate(-267.956 -130.066)"/>
          <path id="Trazado_227688" data-name="Trazado 227688" d="M304.776,187.042H303.55V186.6h2.96v.442h-1.226v3.148h-.508Z" transform="translate(-267.854 -130.063)"/>
          <path id="Trazado_227689" data-name="Trazado 227689" d="M306.74,186.57h.508v3.137h1.988v.453h-2.452Z" transform="translate(-267.521 -130.066)"/>
          <path id="Trazado_227690" data-name="Trazado 227690" d="M312.1,189.707v.453H309.49V186.57h2.529v.442h-1.966v1.1h1.8v.442h-1.8v1.1Z" transform="translate(-267.234 -130.066)"/>
          <path id="Trazado_227691" data-name="Trazado 227691" d="M314.717,188.086v.442l-2.3.906v-.42l1.822-.707-1.822-.7v-.431Z" transform="translate(-266.928 -130.003)"/>
          <path id="Trazado_227692" data-name="Trazado 227692" d="M316.54,186.57h.508v3.137h1.944v.453H316.54Z" transform="translate(-266.497 -130.066)"/>
          <path id="Trazado_227693" data-name="Trazado 227693" d="M319,188.726a1.414,1.414,0,1,1,1.414,1.392A1.347,1.347,0,0,1,319,188.726Zm2.319,0a.917.917,0,1,0-.424.877A.917.917,0,0,0,321.319,188.726Z" transform="translate(-266.241 -129.991)"/>
          <path id="Trazado_227694" data-name="Trazado 227694" d="M323.6,187.341v.475h-.11a.817.817,0,0,0-.861.917v1.358h-.486v-2.717h.464v.453a1.038,1.038,0,0,1,.994-.486Z" transform="translate(-265.913 -129.986)"/>
          <path id="Trazado_227695" data-name="Trazado 227695" d="M326.446,188.886h-2.209a.917.917,0,0,0,.983.8,1,1,0,0,0,.784-.331l.265.32a1.48,1.48,0,0,1-2.529-.95,1.336,1.336,0,0,1,1.37-1.381,1.3,1.3,0,0,1,1.336,1.392A.724.724,0,0,1,326.446,188.886Zm-2.209-.353h1.745a.873.873,0,0,0-1.745,0Z" transform="translate(-265.745 -129.986)"/>
          <path id="Trazado_227696" data-name="Trazado 227696" d="M331.326,188.511v1.568h-.5v-1.513c0-.53-.254-.784-.7-.784a.784.784,0,0,0-.817.895v1.4h-.5v-1.513c0-.53-.254-.784-.7-.784a.784.784,0,0,0-.817.895v1.4h-.486v-2.717h.464v.409a1.1,1.1,0,0,1,.939-.431,1,1,0,0,1,.95.5,1.193,1.193,0,0,1,1.038-.5,1.038,1.038,0,0,1,1.115,1.171Z" transform="translate(-265.424 -129.986)"/>
          <path id="Trazado_227697" data-name="Trazado 227697" d="M332.88,186.63a.32.32,0,0,1,.331-.32.309.309,0,0,1,.331.309.331.331,0,1,1-.663.011Zm.088.839h.5v2.717h-.453Z" transform="translate(-264.791 -130.094)"/>
          <path id="Trazado_227698" data-name="Trazado 227698" d="M337.066,188.721a1.325,1.325,0,0,1-1.369,1.392,1.171,1.171,0,0,1-.95-.442v1.4h-.5v-3.711h.475v.431a1.171,1.171,0,0,1,.972-.453,1.314,1.314,0,0,1,1.369,1.381Zm-.5,0a.917.917,0,1,0-.917.917A.917.917,0,0,0,336.569,188.721Z" transform="translate(-264.648 -129.986)"/>
          <path id="Trazado_227699" data-name="Trazado 227699" d="M337.1,189.792l.21-.387a1.823,1.823,0,0,0,.95.276c.453,0,.652-.133.652-.364,0-.618-1.723-.088-1.723-1.171,0-.486.442-.806,1.1-.806a1.933,1.933,0,0,1,.983.243l-.21.387a1.447,1.447,0,0,0-.784-.21c-.431,0-.641.155-.641.376,0,.63,1.723.11,1.723,1.171,0,.486-.453.806-1.171.806a2.01,2.01,0,0,1-1.093-.32Z" transform="translate(-264.35 -129.986)"/>
          <path id="Trazado_227700" data-name="Trazado 227700" d="M342.243,187.36v2.717h-.464v-.409a1.161,1.161,0,0,1-2.1-.751V187.36h.5v1.5c0,.541.265.806.729.806a.8.8,0,0,0,.839-.906v-1.4Z" transform="translate(-264.081 -129.984)"/>
          <path id="Trazado_227701" data-name="Trazado 227701" d="M347.426,188.511v1.568h-.486v-1.513c0-.53-.254-.784-.707-.784a.784.784,0,0,0-.806.895v1.4h-.5v-1.513c0-.53-.254-.784-.7-.784a.784.784,0,0,0-.817.895v1.4h-.5v-2.717h.475v.409a1.1,1.1,0,0,1,.939-.431.994.994,0,0,1,.939.5,1.226,1.226,0,0,1,1.049-.5,1.027,1.027,0,0,1,1.1,1.171Z" transform="translate(-263.742 -129.986)"/>
          <path id="Trazado_227702" data-name="Trazado 227702" d="M351.216,187.6l-1.811.7,1.811.707v.42l-2.286-.906v-.431l2.286-.906Z" transform="translate(-263.114 -130.003)"/>
          <path id="Trazado_227703" data-name="Trazado 227703" d="M352.85,185.91h.453l-1.69,4.826h-.453Z" transform="translate(-262.881 -130.135)"/>
          <path id="Trazado_227704" data-name="Trazado 227704" d="M354.306,187.042H353.08V186.6h2.971v.442h-1.237v3.148h-.508Z" transform="translate(-262.681 -130.063)"/>
          <path id="Trazado_227705" data-name="Trazado 227705" d="M356.27,186.57h.508v3.589h-.508Z" transform="translate(-262.348 -130.066)"/>
          <path id="Trazado_227706" data-name="Trazado 227706" d="M358.466,187.042H357.24V186.6h2.96v.442h-1.226v3.148h-.508Z" transform="translate(-262.246 -130.063)"/>
          <path id="Trazado_227707" data-name="Trazado 227707" d="M360.43,186.57h.508v3.137h1.944v.453H360.43Z" transform="translate(-261.913 -130.066)"/>
          <path id="Trazado_227708" data-name="Trazado 227708" d="M365.787,189.707v.453H363.18V186.57h2.529v.442h-2.021v1.1h1.8v.442h-1.8v1.1Z" transform="translate(-261.626 -130.066)"/>
          <path id="Trazado_227709" data-name="Trazado 227709" d="M368.407,188.086v.442l-2.3.906v-.42l1.822-.707-1.822-.7v-.431Z" transform="translate(-261.32 -130.003)"/>
          <path id="Trazado_227710" data-name="Trazado 227710" d="M299.287,198.721l-1.822.707,1.822.7v.431l-2.3-.917v-.431l2.3-.917Z" transform="translate(-268.539 -128.842)"/>
          <path id="Trazado_227711" data-name="Trazado 227711" d="M300.941,197h.442l-1.69,4.826h-.453Z" transform="translate(-268.304 -128.977)"/>
          <path id="Trazado_227712" data-name="Trazado 227712" d="M304.567,197.69v3.589h-.508v-1.6h-2.01v1.6h-.519V197.69h.519v1.546H304.1V197.69Z" transform="translate(-268.065 -128.905)"/>
          <path id="Trazado_227713" data-name="Trazado 227713" d="M307.855,200.827v.453h-2.6V197.69h2.529v.453h-2.021v1.1h1.8v.442h-1.8v1.1Z" transform="translate(-267.676 -128.905)"/>
          <path id="Trazado_227714" data-name="Trazado 227714" d="M310.7,200.385h-1.911l-.387.895h-.53l1.624-3.589H310l1.624,3.589h-.53Zm-.177-.409-.773-1.767-.773,1.767Z" transform="translate(-267.403 -128.905)"/>
          <path id="Trazado_227715" data-name="Trazado 227715" d="M311.75,197.691h1.513a1.8,1.8,0,1,1,0,3.589H311.75Zm1.48,3.137a1.347,1.347,0,1,0,0-2.684h-.961v2.684Z" transform="translate(-266.998 -128.905)"/>
          <path id="Trazado_227716" data-name="Trazado 227716" d="M317.7,199.2v.431l-2.3.917v-.376l1.822-.7-1.822-.707v-.431Z" transform="translate(-266.617 -128.837)"/>
          <path id="Trazado_227717" data-name="Trazado 227717" d="M290.667,208.369l-1.811.707,1.811.7v.442l-2.3-.906v-.442l2.3-.906Z" transform="translate(-269.44 -127.832)"/>
          <path id="Trazado_227718" data-name="Trazado 227718" d="M294.291,209.958c0,.618-.464.972-1.37.972H291.21V207.34h1.6c.828,0,1.292.353,1.292.928a.917.917,0,0,0,.188,1.69Zm-2.573-2.209v1.1h1.1c.53,0,.817-.2.817-.574s-.287-.574-.817-.574Zm2.054,2.209c0-.42-.309-.607-.873-.607h-1.182v1.193H292.9c.607-.033.917-.21.917-.619Z" transform="translate(-269.143 -127.897)"/>
          <path id="Trazado_227719" data-name="Trazado 227719" d="M294.49,209.188a1.911,1.911,0,1,1,1.911,1.833,1.822,1.822,0,0,1-1.911-1.833Zm3.313,0a1.4,1.4,0,1,0-1.392,1.37,1.347,1.347,0,0,0,1.381-1.37Z" transform="translate(-268.801 -127.911)"/>
          <path id="Trazado_227720" data-name="Trazado 227720" d="M298.652,207.341h1.491a1.8,1.8,0,1,1,0,3.589H298.63Zm1.48,3.148a1.347,1.347,0,0,0,0-2.695h-.972v2.695Z" transform="translate(-268.368 -127.897)"/>
          <path id="Trazado_227721" data-name="Trazado 227721" d="M303.763,209.692v1.237h-.508v-1.248l-1.425-2.341h.552l1.1,1.9,1.1-1.9h.508Z" transform="translate(-268.034 -127.897)"/>
          <path id="Trazado_227722" data-name="Trazado 227722" d="M307.457,208.85v.442l-2.3.906v-.431l1.822-.7-1.822-.707V208Z" transform="translate(-267.686 -127.828)"/>
          <path id="Trazado_227723" data-name="Trazado 227723" d="M290.667,219.49l-1.811.707,1.811.7v.431l-2.3-.906v-.442l2.3-.906Z" transform="translate(-269.44 -126.672)"/>
          <path id="Trazado_227724" data-name="Trazado 227724" d="M294.291,218.47v3.578h-.508v-1.59h-2.065v1.59h-.508V218.47h.508v1.535h2.065V218.47Z" transform="translate(-269.143 -126.734)"/>
          <path id="Trazado_227725" data-name="Trazado 227725" d="M295.874,218.47v3.578h-.508v-3.137h-.806v-.442Z" transform="translate(-268.793 -126.734)"/>
          <path id="Trazado_227726" data-name="Trazado 227726" d="M298.847,219.976v.442l-2.3.906v-.431l1.822-.7-1.822-.707v-.42Z" transform="translate(-268.585 -126.672)"/>
          <path id="Trazado_227727" data-name="Trazado 227727" d="M300.71,218.47h.376v3.258h2.01v.32H300.71Z" transform="translate(-268.151 -126.734)"/>
          <path id="Trazado_227728" data-name="Trazado 227728" d="M303.09,220.618A1.37,1.37,0,1,1,304.46,222a1.325,1.325,0,0,1-1.369-1.381Zm2.364,0a1.005,1.005,0,1,0-.994,1.049.983.983,0,0,0,.994-1.049Z" transform="translate(-267.902 -126.652)"/>
          <path id="Trazado_227729" data-name="Trazado 227729" d="M307.6,219.25v.353h-.088a.873.873,0,0,0-.906.994v1.37h-.364v-2.695h.342v.53A1.1,1.1,0,0,1,307.6,219.25Z" transform="translate(-267.573 -126.653)"/>
          <path id="Trazado_227730" data-name="Trazado 227730" d="M310.4,220.73H308.19a1,1,0,0,0,1.1.939,1.1,1.1,0,0,0,.828-.353l.2.243a1.314,1.314,0,0,1-1.038.442,1.336,1.336,0,0,1-1.414-1.381,1.3,1.3,0,0,1,1.314-1.37,1.281,1.281,0,0,1,1.3,1.37Zm-2.209-.265H310.1a.961.961,0,0,0-1.911,0Z" transform="translate(-267.403 -126.653)"/>
          <path id="Trazado_227731" data-name="Trazado 227731" d="M315.281,220.41v1.557h-.364v-1.524c0-.563-.287-.861-.773-.861a.861.861,0,0,0-.895.972v1.414h-.364v-1.524c0-.563-.287-.861-.784-.861a.873.873,0,0,0-.906.972v1.414h-.364v-2.695h.353v.5a1.1,1.1,0,0,1,.994-.519.972.972,0,0,1,.95.574,1.182,1.182,0,0,1,1.1-.574,1.027,1.027,0,0,1,1.049,1.16Z" transform="translate(-267.094 -126.653)"/>
          <path id="Trazado_227732" data-name="Trazado 227732" d="M316.89,218.524a.265.265,0,0,1,.265-.254.254.254,0,0,1,.265.254.265.265,0,1,1-.53,0Zm.077.85h.364v2.695h-.32Z" transform="translate(-266.461 -126.755)"/>
          <path id="Trazado_227733" data-name="Trazado 227733" d="M320.938,220.62A1.314,1.314,0,0,1,319.6,222a1.171,1.171,0,0,1-1.027-.541v1.5h-.364v-3.689h.353v.53a1.182,1.182,0,0,1,1.038-.552,1.3,1.3,0,0,1,1.336,1.37Zm-.353,0a1.005,1.005,0,1,0-1.005,1.005A1.005,1.005,0,0,0,320.585,220.62Z" transform="translate(-266.323 -126.653)"/>
          <path id="Trazado_227734" data-name="Trazado 227734" d="M321,221.658l.166-.287a1.612,1.612,0,0,0,.961.309c.508,0,.718-.177.718-.442,0-.707-1.745-.155-1.745-1.215,0-.442.387-.773,1.1-.773a1.812,1.812,0,0,1,.95.254l-.155.3a1.391,1.391,0,0,0-.8-.232c-.486,0-.707.188-.707.442,0,.729,1.745.177,1.745,1.215,0,.464-.409.773-1.1.773a1.756,1.756,0,0,1-1.138-.342Z" transform="translate(-266.031 -126.653)"/>
          <path id="Trazado_227735" data-name="Trazado 227735" d="M326.049,219.27v2.695H325.7v-.486a1.1,1.1,0,0,1-.961.519,1.038,1.038,0,0,1-1.1-1.16V219.27H324v1.524c0,.574.287.872.806.872a.873.873,0,0,0,.917-.983V219.27Z" transform="translate(-265.757 -126.651)"/>
          <path id="Trazado_227736" data-name="Trazado 227736" d="M331.18,220.41v1.557h-.353v-1.524c0-.563-.287-.861-.784-.861a.861.861,0,0,0-.895.972v1.414h-.364v-1.524c0-.563-.287-.861-.784-.861a.873.873,0,0,0-.895.972v1.414h-.364v-2.695h.342v.5a1.1,1.1,0,0,1,.994-.519.983.983,0,0,1,.961.574,1.1,1.1,0,0,1,1.1-.574,1.027,1.027,0,0,1,1.038,1.16Z" transform="translate(-265.432 -126.654)"/>
          <path id="Trazado_227737" data-name="Trazado 227737" d="M335.339,218.27v3.8H335v-.53a1.171,1.171,0,0,1-1.038.563,1.381,1.381,0,0,1,0-2.75,1.182,1.182,0,0,1,1.027.541V218.27Zm-.353,2.452a1.005,1.005,0,1,0-.994,1.049.983.983,0,0,0,.994-1.049Z" transform="translate(-264.809 -126.755)"/>
          <path id="Trazado_227738" data-name="Trazado 227738" d="M335.76,220.621A1.381,1.381,0,1,1,337.141,222a1.336,1.336,0,0,1-1.381-1.381Zm2.375,0a1.005,1.005,0,1,0-.994,1.049.983.983,0,0,0,.994-1.049Z" transform="translate(-264.49 -126.654)"/>
          <path id="Trazado_227739" data-name="Trazado 227739" d="M338.92,218.27h.353v3.8h-.353Z" transform="translate(-264.16 -126.755)"/>
          <path id="Trazado_227740" data-name="Trazado 227740" d="M339.92,220.618A1.37,1.37,0,1,1,341.29,222a1.325,1.325,0,0,1-1.369-1.381Zm2.364,0a1.005,1.005,0,1,0-.994,1.049.983.983,0,0,0,.994-1.049Z" transform="translate(-264.055 -126.652)"/>
          <path id="Trazado_227741" data-name="Trazado 227741" d="M344.429,219.25v.353h-.088a.872.872,0,0,0-.906.994v1.37h-.365v-2.695h.342v.53A1.1,1.1,0,0,1,344.429,219.25Z" transform="translate(-263.726 -126.653)"/>
          <path id="Trazado_227742" data-name="Trazado 227742" d="M345.8,221.658l.166-.287a1.558,1.558,0,0,0,.961.309c.508,0,.718-.177.718-.442,0-.707-1.745-.155-1.745-1.215,0-.442.375-.773,1.1-.773a1.855,1.855,0,0,1,.961.254l-.166.3a1.37,1.37,0,0,0-.8-.232c-.486,0-.7.188-.7.442,0,.729,1.745.177,1.745,1.215,0,.464-.409.773-1.1.773a1.745,1.745,0,0,1-1.149-.342Z" transform="translate(-263.441 -126.653)"/>
          <path id="Trazado_227743" data-name="Trazado 227743" d="M348.33,218.524a.265.265,0,0,1,.265-.254.254.254,0,0,1,.265.254.265.265,0,1,1-.53,0Zm.088.85h.353v2.695h-.353Z" transform="translate(-263.177 -126.755)"/>
          <path id="Trazado_227744" data-name="Trazado 227744" d="M351.114,221.855a.861.861,0,0,1-.574.2.707.707,0,0,1-.784-.784v-1.635h-.486v-.309h.486v-.585h.32v.585h.817v.309h-.817v1.6a.431.431,0,0,0,.464.486.618.618,0,0,0,.4-.133Z" transform="translate(-263.079 -126.706)"/>
          <path id="Trazado_227745" data-name="Trazado 227745" d="M354.8,220.3v1.668h-.353v-.42a.994.994,0,0,1-.928.453c-.607,0-.983-.32-.983-.784s.265-.773,1.038-.773h.861v-.155a.663.663,0,0,0-.762-.718,1.336,1.336,0,0,0-.895.32l-.166-.276a1.69,1.69,0,0,1,1.1-.364A.961.961,0,0,1,354.8,220.3Zm-.364.861v-.442h-.85c-.519,0-.685.21-.685.486s.254.508.674.508a.861.861,0,0,0,.862-.53Z" transform="translate(-262.737 -126.654)"/>
          <path id="Trazado_227746" data-name="Trazado 227746" d="M359.931,220.41v1.557h-.364v-1.524c0-.563-.287-.861-.773-.861a.873.873,0,0,0-.906.972v1.414h-.364v-1.524c0-.563-.287-.861-.773-.861a.873.873,0,0,0-.906.972v1.414h-.364v-2.695h.353v.5a1.1,1.1,0,0,1,.983-.519.972.972,0,0,1,.961.574,1.16,1.16,0,0,1,1.1-.574,1.027,1.027,0,0,1,1.049,1.16Z" transform="translate(-262.43 -126.653)"/>
          <path id="Trazado_227747" data-name="Trazado 227747" d="M362.769,220.725H360.56a1.005,1.005,0,0,0,1.1.939,1.1,1.1,0,0,0,.828-.353l.2.243a1.314,1.314,0,0,1-1.038.442,1.336,1.336,0,0,1-1.414-1.381,1.314,1.314,0,1,1,2.629,0S362.769,220.692,362.769,220.725Zm-2.209-.265h1.911a.961.961,0,0,0-1.911,0Z" transform="translate(-261.933 -126.648)"/>
          <path id="Trazado_227748" data-name="Trazado 227748" d="M364.663,221.855a.839.839,0,0,1-.563.2.718.718,0,0,1-.8-.784v-1.635h-.475v-.309h.475v-.585h.364v.585h.817v.309h-.817v1.6a.431.431,0,0,0,.464.486.6.6,0,0,0,.4-.133Z" transform="translate(-261.662 -126.706)"/>
          <path id="Trazado_227749" data-name="Trazado 227749" d="M365.472,221.506a.784.784,0,0,1-.077.3l-.21.707h-.254l.177-.74a.265.265,0,0,1-.188-.265.276.276,0,0,1,.276-.276.265.265,0,0,1,.276.276Z" transform="translate(-261.444 -126.446)"/>
          <path id="Trazado_227750" data-name="Trazado 227750" d="M367.08,220.62a1.325,1.325,0,0,1,1.392-1.37,1.2,1.2,0,0,1,1.1.541l-.276.177a.917.917,0,0,0-.784-.4,1.1,1.1,0,0,0,0,2.1.906.906,0,0,0,.784-.387l.276.177a1.2,1.2,0,0,1-1.1.541,1.336,1.336,0,0,1-1.392-1.381Z" transform="translate(-261.219 -126.653)"/>
          <path id="Trazado_227751" data-name="Trazado 227751" d="M369.65,220.618A1.37,1.37,0,1,1,371.031,222a1.336,1.336,0,0,1-1.381-1.381Zm2.375,0a.983.983,0,0,0-.994-1.1,1.1,1.1,0,0,0,0,2.1.983.983,0,0,0,.994-.994Z" transform="translate(-260.95 -126.652)"/>
          <path id="Trazado_227752" data-name="Trazado 227752" d="M375.285,220.41v1.557h-.364v-1.524a.751.751,0,0,0-.806-.861.884.884,0,0,0-.95.972v1.414H372.8v-2.695h.353v.5a1.1,1.1,0,0,1,1.027-.519,1.038,1.038,0,0,1,1.1,1.16Z" transform="translate(-260.621 -126.653)"/>
          <path id="Trazado_227753" data-name="Trazado 227753" d="M375.6,221.658l.166-.287a1.558,1.558,0,0,0,.961.309c.508,0,.718-.177.718-.442,0-.707-1.745-.155-1.745-1.215,0-.442.376-.773,1.1-.773a1.855,1.855,0,0,1,.961.254l-.166.3a1.369,1.369,0,0,0-.8-.232c-.486,0-.7.188-.7.442,0,.729,1.745.177,1.745,1.215,0,.464-.409.773-1.1.773a1.745,1.745,0,0,1-1.149-.342Z" transform="translate(-260.329 -126.653)"/>
          <path id="Trazado_227754" data-name="Trazado 227754" d="M380.569,220.73H378.36a1,1,0,0,0,1.1.939,1.1,1.1,0,0,0,.828-.353l.2.243a1.314,1.314,0,0,1-1.038.442,1.336,1.336,0,0,1-1.414-1.381,1.3,1.3,0,0,1,1.314-1.37,1.281,1.281,0,0,1,1.3,1.37Zm-2.209-.265H380.2a.961.961,0,0,0-1.911,0Z" transform="translate(-260.074 -126.653)"/>
          <path id="Trazado_227755" data-name="Trazado 227755" d="M380.76,220.62a1.325,1.325,0,0,1,1.392-1.37,1.171,1.171,0,0,1,1.1.541l-.265.177a.939.939,0,0,0-.784-.4,1.1,1.1,0,0,0,0,2.1.928.928,0,0,0,.784-.387l.265.177a1.171,1.171,0,0,1-1.1.541,1.336,1.336,0,0,1-1.392-1.381Z" transform="translate(-259.79 -126.653)"/>
          <path id="Trazado_227756" data-name="Trazado 227756" d="M385.1,221.855a.861.861,0,0,1-.574.2.707.707,0,0,1-.784-.784v-1.635h-.486v-.309h.486v-.585h.331v.585h.817v.309h-.817v1.6a.431.431,0,0,0,.464.486.618.618,0,0,0,.4-.133Z" transform="translate(-259.528 -126.706)"/>
          <path id="Trazado_227757" data-name="Trazado 227757" d="M387.8,220.725H385.59a1.005,1.005,0,0,0,1.1.939,1.1,1.1,0,0,0,.828-.353l.2.243a1.314,1.314,0,0,1-1.038.442,1.336,1.336,0,0,1-1.414-1.381,1.314,1.314,0,0,1,2.629,0S387.8,220.692,387.8,220.725Zm-2.209-.265H387.5a.961.961,0,0,0-1.911,0Z" transform="translate(-259.319 -126.648)"/>
          <path id="Trazado_227758" data-name="Trazado 227758" d="M389.694,221.855a.861.861,0,0,1-.574.2.718.718,0,0,1-.784-.784v-1.635h-.486v-.309h.486v-.585h.364v.585h.817v.309H388.7v1.6a.431.431,0,0,0,.464.486.6.6,0,0,0,.4-.133Z" transform="translate(-259.049 -126.706)"/>
          <path id="Trazado_227759" data-name="Trazado 227759" d="M392.539,219.27v2.695H392.2v-.486a1.123,1.123,0,0,1-2.076-.641V219.27h.364v1.524c0,.574.3.872.806.872a.872.872,0,0,0,.917-.983V219.27Z" transform="translate(-258.812 -126.651)"/>
          <path id="Trazado_227760" data-name="Trazado 227760" d="M395.6,220.73h-2.209a.994.994,0,0,0,1.1.939,1.027,1.027,0,0,0,.817-.353l.21.243a1.425,1.425,0,0,1-2.452-.939,1.311,1.311,0,1,1,2.618,0Zm-2.209-.265H395.3a.961.961,0,0,0-1.911,0Z" transform="translate(-258.504 -126.653)"/>
          <path id="Trazado_227761" data-name="Trazado 227761" d="M397.392,219.251v.353H397.3a.873.873,0,0,0-.906.994v1.369H396v-2.695h.353v.53A1.016,1.016,0,0,1,397.392,219.251Z" transform="translate(-258.198 -126.654)"/>
          <path id="Trazado_227762" data-name="Trazado 227762" d="M290.573,225.861v1.668h-.342v-.42a1.027,1.027,0,0,1-.928.453c-.607,0-.983-.32-.983-.784s.265-.762,1.038-.762h.817v-.166c0-.464-.254-.718-.762-.718a1.358,1.358,0,0,0-.895.32l-.166-.276a1.723,1.723,0,0,1,1.1-.364.95.95,0,0,1,1.115,1.049Zm-.364.861v-.442h-.839c-.519,0-.7.21-.7.486s.254.508.685.508a.861.861,0,0,0,.817-.552Z" transform="translate(-269.445 -126.074)"/>
          <path id="Trazado_227763" data-name="Trazado 227763" d="M293.741,223.83v3.8H293.4v-.53a1.182,1.182,0,0,1-1.049.563,1.381,1.381,0,0,1,0-2.75,1.171,1.171,0,0,1,1.027.541V223.83Zm-.353,2.452a1.005,1.005,0,1,0-1.005,1.049.983.983,0,0,0,1.005-1.049Z" transform="translate(-269.155 -126.174)"/>
          <path id="Trazado_227764" data-name="Trazado 227764" d="M294.33,224.084a.271.271,0,0,1,.541,0,.276.276,0,0,1-.541,0Zm.088.85h.364v2.695h-.364Z" transform="translate(-268.817 -126.174)"/>
          <path id="Trazado_227765" data-name="Trazado 227765" d="M298.389,226.18a1.314,1.314,0,0,1-1.347,1.381,1.182,1.182,0,0,1-1.027-.541v1.5h-.364v-3.689h.387v.541a1.171,1.171,0,0,1,1.038-.563,1.314,1.314,0,0,1,1.314,1.369Zm-.364,0a1.005,1.005,0,1,0-1.005,1.005A1.005,1.005,0,0,0,298.025,226.18Z" transform="translate(-268.679 -126.072)"/>
          <path id="Trazado_227766" data-name="Trazado 227766" d="M298.72,224.084a.265.265,0,0,1,.265-.254.254.254,0,0,1,.265.254.265.265,0,1,1-.53,0Zm.088.85h.364v2.695h-.364Z" transform="translate(-268.359 -126.174)"/>
          <path id="Trazado_227767" data-name="Trazado 227767" d="M299.7,227.228l.166-.287a1.612,1.612,0,0,0,.961.309c.508,0,.718-.177.718-.442,0-.707-1.745-.155-1.745-1.215,0-.442.376-.773,1.1-.773a1.844,1.844,0,0,1,.95.254l-.155.3a1.392,1.392,0,0,0-.8-.232c-.486,0-.707.188-.707.442,0,.729,1.745.177,1.745,1.215,0,.464-.409.773-1.1.773A1.756,1.756,0,0,1,299.7,227.228Z" transform="translate(-268.256 -126.071)"/>
          <path id="Trazado_227768" data-name="Trazado 227768" d="M302.06,226.18a1.325,1.325,0,0,1,1.392-1.369,1.2,1.2,0,0,1,1.1.541l-.276.177a.939.939,0,0,0-.784-.4,1.1,1.1,0,0,0,0,2.1.928.928,0,0,0,.784-.387l.276.177a1.2,1.2,0,0,1-1.1.541,1.336,1.336,0,0,1-1.392-1.381Z" transform="translate(-268.01 -126.072)"/>
          <path id="Trazado_227769" data-name="Trazado 227769" d="M304.84,224.084a.265.265,0,0,1,.265-.254.254.254,0,0,1,.265.254.265.265,0,1,1-.53,0Zm.088.85h.364v2.695h-.364Z" transform="translate(-267.72 -126.174)"/>
          <path id="Trazado_227770" data-name="Trazado 227770" d="M308.645,225.97v1.557h-.364V226a.751.751,0,0,0-.806-.861.884.884,0,0,0-.95.972v1.414h-.364v-2.695h.353v.5a1.1,1.1,0,0,1,1.027-.519,1.038,1.038,0,0,1,1.1,1.16Z" transform="translate(-267.582 -126.072)"/>
          <path id="Trazado_227771" data-name="Trazado 227771" d="M311.835,224.831v2.4a1.182,1.182,0,0,1-1.347,1.347,1.9,1.9,0,0,1-1.259-.42l.188-.276a1.579,1.579,0,0,0,1.1.364c.685,0,.994-.309.994-.972v-.342a1.215,1.215,0,0,1-1.049.519,1.314,1.314,0,1,1,0-2.618,1.2,1.2,0,0,1,1.1.541v-.519Zm-.353,1.281a1.027,1.027,0,1,0-1.027.994.961.961,0,0,0,1.027-.983Z" transform="translate(-267.282 -126.071)"/>
          <path id="Trazado_227772" data-name="Trazado 227772" d="M316.069,226.3h-2.209a.983.983,0,0,0,1.1.928,1.027,1.027,0,0,0,.817-.353l.21.243a1.425,1.425,0,0,1-2.452-.939,1.311,1.311,0,1,1,2.618,0Zm-2.209-.276h1.911a.961.961,0,0,0-1.911,0Z" transform="translate(-266.811 -126.072)"/>
          <path id="Trazado_227773" data-name="Trazado 227773" d="M316.5,223.83h.364v3.8H316.5Z" transform="translate(-266.502 -126.174)"/>
          <path id="Trazado_227774" data-name="Trazado 227774" d="M317.67,224.084a.271.271,0,0,1,.541,0,.276.276,0,0,1-.541,0Zm.088.85h.364v2.695h-.364Z" transform="translate(-266.379 -126.174)"/>
          <path id="Trazado_227775" data-name="Trazado 227775" d="M320.454,227.415a.839.839,0,0,1-.563.2.718.718,0,0,1-.8-.784v-1.635h-.486v-.309h.486V224.3h.364v.585h.817v.309h-.817v1.613a.431.431,0,0,0,.464.486.6.6,0,0,0,.4-.133Z" transform="translate(-266.281 -126.125)"/>
          <path id="Trazado_227776" data-name="Trazado 227776" d="M321.251,227.026a.729.729,0,0,1-.066.3l-.221.707h-.243l.177-.74a.265.265,0,0,1-.188-.265.276.276,0,0,1,.276-.276.265.265,0,0,1,.265.276Z" transform="translate(-266.062 -125.869)"/>
          <path id="Trazado_227777" data-name="Trazado 227777" d="M322.78,227.228l.166-.287a1.557,1.557,0,0,0,.961.309c.508,0,.718-.177.718-.442,0-.707-1.745-.155-1.745-1.215,0-.442.376-.773,1.1-.773a1.856,1.856,0,0,1,.961.254l-.166.3a1.369,1.369,0,0,0-.8-.232c-.486,0-.7.188-.7.442,0,.729,1.745.177,1.745,1.215,0,.464-.409.773-1.1.773A1.745,1.745,0,0,1,322.78,227.228Z" transform="translate(-265.846 -126.071)"/>
          <path id="Trazado_227778" data-name="Trazado 227778" d="M327.749,226.3h-2.209a1.005,1.005,0,0,0,1.1.928,1.1,1.1,0,0,0,.828-.353l.2.243a1.425,1.425,0,0,1-2.452-.939,1.311,1.311,0,1,1,2.618,0Zm-2.209-.276h1.911a.961.961,0,0,0-1.911,0Z" transform="translate(-265.591 -126.072)"/>
          <path id="Trazado_227779" data-name="Trazado 227779" d="M330.66,223.83v3.8h-.353v-.53a1.1,1.1,0,0,1-1.038.563,1.381,1.381,0,0,1,0-2.75,1.171,1.171,0,0,1,1.027.541V223.83Zm-.353,2.452a1.005,1.005,0,1,0-1.005,1.049.983.983,0,0,0,1.005-1.049Z" transform="translate(-265.299 -126.174)"/>
          <path id="Trazado_227780" data-name="Trazado 227780" d="M335.021,223.83v3.8h-.353v-.53a1.171,1.171,0,0,1-1.038.563,1.381,1.381,0,0,1,0-2.75,1.182,1.182,0,0,1,1.027.541V223.83Zm-.364,2.452a1.005,1.005,0,1,0-.994,1.049.983.983,0,0,0,.994-1.049Z" transform="translate(-264.844 -126.174)"/>
          <path id="Trazado_227781" data-name="Trazado 227781" d="M335.61,224.085a.265.265,0,1,1,.265.265.254.254,0,0,1-.265-.265Zm.077.85h.353v2.695h-.364Z" transform="translate(-264.506 -126.175)"/>
          <path id="Trazado_227782" data-name="Trazado 227782" d="M338.984,225.86v1.668h-.353v-.42a.994.994,0,0,1-.928.453c-.607,0-.983-.32-.983-.784s.265-.762,1.038-.762h.861v-.166a.663.663,0,0,0-.762-.718,1.336,1.336,0,0,0-.895.32l-.166-.276a1.69,1.69,0,0,1,1.1-.364.961.961,0,0,1,1.082,1.049Zm-.364.861v-.442h-.85c-.519,0-.685.21-.685.486s.254.508.674.508a.862.862,0,0,0,.862-.552Z" transform="translate(-264.39 -126.073)"/>
          <path id="Trazado_227783" data-name="Trazado 227783" d="M344.111,225.97v1.557h-.364V226c0-.563-.287-.861-.773-.861a.873.873,0,0,0-.906.972v1.414H341.7V226c0-.563-.287-.861-.773-.861a.873.873,0,0,0-.906.972v1.414h-.364v-2.695h.375v.5a1.1,1.1,0,0,1,.983-.519.972.972,0,0,1,.961.574,1.16,1.16,0,0,1,1.1-.574,1.027,1.027,0,0,1,1.027,1.16Z" transform="translate(-264.083 -126.073)"/>
          <path id="Trazado_227784" data-name="Trazado 227784" d="M346.727,225.04l-1.822.707,1.822.7v.431l-2.3-.906v-.442l2.3-.906Z" transform="translate(-263.584 -126.092)"/>
          <path id="Trazado_227785" data-name="Trazado 227785" d="M348.38,223.37h.442l-1.69,4.826h-.442Z" transform="translate(-263.348 -126.223)"/>
          <path id="Trazado_227786" data-name="Trazado 227786" d="M352.023,224v3.578H351.5v-1.59h-2.054v1.59h-.519V224h.519v1.535H351.5V224Z" transform="translate(-263.114 -126.157)"/>
          <path id="Trazado_227787" data-name="Trazado 227787" d="M353.562,224v3.578h-.486v-3.137h-.806V224Z" transform="translate(-262.765 -126.157)"/>
          <path id="Trazado_227788" data-name="Trazado 227788" d="M356.527,225.536v.442l-2.3.906v-.431l1.833-.7-1.833-.707v-.42Z" transform="translate(-262.561 -126.091)"/>
          <path id="Trazado_227789" data-name="Trazado 227789" d="M290.667,236.181l-1.811.7,1.811.707V238l-2.3-.906v-.442l2.3-.906Z" transform="translate(-269.44 -124.929)"/>
          <path id="Trazado_227790" data-name="Trazado 227790" d="M294.144,236.4c0,.773-.563,1.248-1.5,1.248h-.884v1.1h-.508V235.17h1.392C293.58,235.148,294.144,235.612,294.144,236.4Zm-.519,0c0-.508-.342-.806-.994-.806h-.873v1.6h.873C293.282,237.191,293.625,236.9,293.625,236.4Z" transform="translate(-269.139 -124.99)"/>
          <path id="Trazado_227791" data-name="Trazado 227791" d="M296.706,236.656v.442L294.42,238v-.42l1.822-.707-1.822-.7v-.431Z" transform="translate(-268.808 -124.929)"/>
          <path id="Trazado_227792" data-name="Trazado 227792" d="M300.657,236.181l-1.822.7,1.822.707V238l-2.3-.906v-.442l2.3-.906Z" transform="translate(-268.396 -124.929)"/>
          <path id="Trazado_227793" data-name="Trazado 227793" d="M301.23,235.15h.519v3.578h-.519Z" transform="translate(-268.097 -124.992)"/>
          <path id="Trazado_227794" data-name="Trazado 227794" d="M305.994,238.733v-2.64l-1.3,2.209h-.232l-1.3-2.209v2.6h-.486V235.11h.42l1.491,2.518,1.48-2.518h.42v3.578Z" transform="translate(-267.946 -124.996)"/>
          <path id="Trazado_227795" data-name="Trazado 227795" d="M309.587,236.923h.5V238.3a2.12,2.12,0,0,1-1.358.453,1.833,1.833,0,1,1,1.392-3.115l-.32.32a1.414,1.414,0,0,0-1.038-.42,1.381,1.381,0,1,0,0,2.761,1.48,1.48,0,0,0,.839-.232Z" transform="translate(-267.497 -124.998)"/>
          <path id="Trazado_227796" data-name="Trazado 227796" d="M311.62,238.3l.188-.4a1.844,1.844,0,0,0,1.182.42c.63,0,.895-.243.895-.552,0-.884-2.209-.331-2.209-1.657,0-.552.431-1.027,1.37-1.027a2.1,2.1,0,0,1,1.16.32l-.177.409a1.856,1.856,0,0,0-.983-.3c-.607,0-.872.265-.872.574,0,.872,2.209.331,2.209,1.646,0,.541-.442,1.016-1.392,1.016A2.143,2.143,0,0,1,311.62,238.3Z" transform="translate(-267.011 -124.998)"/>
          <path id="Trazado_227797" data-name="Trazado 227797" d="M317.226,238.728l-.773-1.1h-1.1v1.1h-.508V235.15h1.392c.939,0,1.5.464,1.5,1.248a1.1,1.1,0,0,1-.8,1.1l.85,1.2Zm0-2.33c0-.508-.342-.806-.994-.806h-.873v1.6h.873C316.828,237.193,317.226,236.906,317.226,236.4Z" transform="translate(-266.675 -124.992)"/>
          <path id="Trazado_227798" data-name="Trazado 227798" d="M317.9,236.944a1.811,1.811,0,0,1,1.9-1.833,1.778,1.778,0,0,1,1.37.563l-.342.32a1.3,1.3,0,0,0-1.005-.431,1.381,1.381,0,0,0,0,2.761,1.336,1.336,0,0,0,1.005-.431l.342.32a1.778,1.778,0,0,1-1.37.563,1.811,1.811,0,0,1-1.9-1.833Z" transform="translate(-266.355 -124.996)"/>
          <path id="Trazado_227799" data-name="Trazado 227799" d="M321.34,236h2.3v.4h-2.3Zm0,1.215h2.3v.4h-2.3Z" transform="translate(-265.996 -124.903)"/>
          <path id="Trazado_227800" data-name="Trazado 227800" d="M325.26,235.15h.431v1.381h-.364Zm.928,0h.431v1.381h-.364Z" transform="translate(-265.587 -124.992)"/>
          <path id="Trazado_227801" data-name="Trazado 227801" d="M327.27,235.15h.508V238.3h1.944v.442H327.27Z" transform="translate(-265.377 -124.992)"/>
          <path id="Trazado_227802" data-name="Trazado 227802" d="M329.7,237.3a1.414,1.414,0,1,1,1.414,1.392A1.347,1.347,0,0,1,329.7,237.3Zm2.319,0a.917.917,0,1,0-.424.877A.917.917,0,0,0,332.02,237.3Z" transform="translate(-265.123 -124.918)"/>
          <path id="Trazado_227803" data-name="Trazado 227803" d="M334.328,235.91v.475h-.11a.817.817,0,0,0-.861.917v1.347h-.486v-2.706h.464v.453A1.1,1.1,0,0,1,334.328,235.91Z" transform="translate(-264.792 -124.913)"/>
          <path id="Trazado_227804" data-name="Trazado 227804" d="M337.186,237.456h-2.209a.917.917,0,0,0,.983.8,1,1,0,0,0,.784-.32l.276.309a1.491,1.491,0,0,1-2.54-.95,1.336,1.336,0,0,1,1.369-1.381,1.3,1.3,0,0,1,1.336,1.4Zm-2.209-.353h1.745a.884.884,0,0,0-1.745,0Z" transform="translate(-264.624 -124.913)"/>
          <path id="Trazado_227805" data-name="Trazado 227805" d="M342.056,237.117v1.557h-.486v-1.557c0-.53-.265-.8-.707-.8a.815.815,0,0,0-.817.906v1.392h-.486v-1.5c0-.53-.254-.8-.707-.8a.8.8,0,0,0-.817.906v1.392h-.486v-2.706h.5v.4a1.1,1.1,0,0,1,.928-.431,1,1,0,0,1,.95.508,1.215,1.215,0,0,1,1.038-.508,1.1,1.1,0,0,1,1.093,1.237Z" transform="translate(-264.303 -124.916)"/>
          <path id="Trazado_227806" data-name="Trazado 227806" d="M343.61,235.211a.331.331,0,0,1,.342-.331.321.321,0,1,1-.342.331Zm.088.839h.5v2.706h-.5Z" transform="translate(-263.67 -125.02)"/>
          <path id="Trazado_227807" data-name="Trazado 227807" d="M347.794,237.291a1.314,1.314,0,0,1-1.37,1.392,1.1,1.1,0,0,1-.95-.442v1.4H345v-3.7h.464v.431a1.1,1.1,0,0,1,.972-.464,1.314,1.314,0,0,1,1.358,1.381Zm-.5,0a.917.917,0,1,0-.917.961.895.895,0,0,0,.917-.961Z" transform="translate(-263.525 -124.913)"/>
          <path id="Trazado_227808" data-name="Trazado 227808" d="M347.84,238.357l.2-.387a1.723,1.723,0,0,0,.95.287c.464,0,.652-.144.652-.376,0-.607-1.723-.077-1.723-1.1,0-.486.442-.817,1.1-.817a1.933,1.933,0,0,1,.983.254l-.2.387a1.391,1.391,0,0,0-.784-.221c-.431,0-.641.166-.641.376,0,.641,1.712.121,1.712,1.171,0,.5-.442.806-1.171.806a1.855,1.855,0,0,1-1.082-.375Z" transform="translate(-263.228 -124.907)"/>
          <path id="Trazado_227809" data-name="Trazado 227809" d="M353,235.942v2.706h-.464v-.431a1.161,1.161,0,0,1-2.1-.74V235.92h.5v1.5c0,.53.265.8.729.8a.784.784,0,0,0,.839-.895v-1.4Z" transform="translate(-262.957 -124.912)"/>
          <path id="Trazado_227810" data-name="Trazado 227810" d="M358.116,237.117v1.557h-.5v-1.557c0-.53-.254-.8-.7-.8a.815.815,0,0,0-.817.906v1.392h-.5v-1.5c0-.53-.254-.8-.7-.8a.815.815,0,0,0-.817.906v1.392h-.486v-2.706h.431v.4a1.1,1.1,0,0,1,.939-.431.994.994,0,0,1,.939.508,1.237,1.237,0,0,1,1.049-.508,1.1,1.1,0,0,1,1.149,1.237Z" transform="translate(-262.625 -124.916)"/>
          <path id="Trazado_227811" data-name="Trazado 227811" d="M358.37,235.15h.431v1.381h-.364Zm.928,0h.431v1.381h-.364Z" transform="translate(-262.128 -124.992)"/>
          <path id="Trazado_227812" data-name="Trazado 227812" d="M362.5,236.656v.442l-2.3.906v-.42l1.822-.707-1.822-.7v-.431Z" transform="translate(-261.937 -124.929)"/>
          <path id="Trazado_227813" data-name="Trazado 227813" d="M365.219,236.178l-1.822.7,1.822.707V238l-2.319-.873v-.442l2.3-.906Z" transform="translate(-261.655 -124.926)"/>
          <path id="Trazado_227814" data-name="Trazado 227814" d="M366.85,234.49h.442l-1.69,4.826h-.442Z" transform="translate(-261.419 -125.061)"/>
          <path id="Trazado_227815" data-name="Trazado 227815" d="M370.275,236.4c0,.773-.563,1.248-1.5,1.248h-.884v1.1h-.519V235.17h1.4C369.745,235.148,370.275,235.612,370.275,236.4Zm-.519,0c0-.508-.342-.806-.994-.806h-.873v1.6h.873c.685,0,1.027-.287,1.027-.8Z" transform="translate(-261.188 -124.99)"/>
          <path id="Trazado_227816" data-name="Trazado 227816" d="M372.867,236.656v.442l-2.3.906v-.42l1.833-.707-1.833-.7v-.431Z" transform="translate(-260.854 -124.929)"/>
          <path id="Trazado_227817" data-name="Trazado 227817" d="M290.667,247.3l-1.811.7,1.811.707v.42l-2.3-.906v-.442l2.3-.906Z" transform="translate(-269.44 -123.768)"/>
          <path id="Trazado_227818" data-name="Trazado 227818" d="M292.323,245.61h.453l-1.734,4.849H290.6Z" transform="translate(-269.207 -123.9)"/>
          <path id="Trazado_227819" data-name="Trazado 227819" d="M295.961,248.888c0,.618-.464.972-1.37.972H292.88V246.27h1.6c.828,0,1.292.342,1.292.928a.839.839,0,0,1-.486.8A.873.873,0,0,1,295.961,248.888Zm-2.573-2.209v1.1h1.1c.53,0,.828-.188.828-.574s-.3-.574-.828-.574Zm2.054,2.209c0-.409-.309-.6-.873-.6h-1.182v1.193h1.182c.563-.044.873-.2.873-.641Z" transform="translate(-268.969 -123.831)"/>
          <path id="Trazado_227820" data-name="Trazado 227820" d="M296.12,248.078a1.911,1.911,0,1,1,1.911,1.833,1.822,1.822,0,0,1-1.911-1.833Zm3.313,0a1.392,1.392,0,1,0-1.392,1.381,1.347,1.347,0,0,0,1.381-1.381Z" transform="translate(-268.63 -123.849)"/>
          <path id="Trazado_227821" data-name="Trazado 227821" d="M300.28,246.27h1.513a1.8,1.8,0,1,1,0,3.589H300.28Zm1.48,3.137a1.347,1.347,0,1,0,0-2.695h-.972v2.695Z" transform="translate(-268.196 -123.831)"/>
          <path id="Trazado_227822" data-name="Trazado 227822" d="M305.393,248.611v1.248h-.508V248.6l-1.425-2.33h.552l1.1,1.889,1.1-1.889h.508Z" transform="translate(-267.864 -123.831)"/>
          <path id="Trazado_227823" data-name="Trazado 227823" d="M309.087,247.776v.442l-2.3.906v-.42l1.822-.707-1.822-.7v-.431Z" transform="translate(-267.516 -123.768)"/>
          <path id="Trazado_227824" data-name="Trazado 227824" d="M430.183,160.387c0,.166-35.442.287-79.156.287s-79.167-.121-79.167-.287,35.431-.287,79.167-.287S430.183,160.233,430.183,160.387Z" transform="translate(-271.164 -132.831)" fill="#263238"/>
          <path id="Trazado_227825" data-name="Trazado 227825" d="M276.342,155.336a1.016,1.016,0,1,1-1.016-1.016A1.027,1.027,0,0,1,276.342,155.336Z" transform="translate(-270.908 -133.435)" fill="#263238"/>
          <circle id="Elipse_16487" data-name="Elipse 16487" cx="1.016" cy="1.016" r="1.016" transform="translate(7.311 20.885)" fill="#263238"/>
          <path id="Trazado_227826" data-name="Trazado 227826" d="M283.434,155.336a1.027,1.027,0,1,1-1.016-1.016A1.027,1.027,0,0,1,283.434,155.336Z" transform="translate(-270.17 -133.435)" fill="#263238"/>
          <path id="Trazado_227827" data-name="Trazado 227827" d="M281.027,280.131c-.155,0-.287-26.871-.287-60s.133-60.016.287-60.016.287,26.86.287,60.016S281.138,280.131,281.027,280.131Z" transform="translate(-270.237 -132.83)" fill="#e0e0e0"/>
          <rect id="Rectángulo_303876" data-name="Rectángulo 303876" width="43.615" height="31.09" transform="translate(19.405 0)" fill="#4dd0e1"/>
          <path id="Trazado_227842" data-name="Trazado 227842" d="M95.728,219.943c0,.077-9.841.144-21.979.144s-21.99-.066-21.99-.144,9.841-.133,21.99-.133S95.728,219.865,95.728,219.943Z" transform="translate(-32.377 -215.337)" fill="#fff"/>
          <path id="Trazado_227843" data-name="Trazado 227843" d="M55.111,217.929a.552.552,0,0,1-.585.508.541.541,0,0,1-.585-.508.587.587,0,0,1,1.171,0Z" transform="translate(-32.149 -215.588)" fill="#fff"/>
          <path id="Trazado_227844" data-name="Trazado 227844" d="M57.052,217.929a.6.6,0,1,1-.591-.515A.6.6,0,0,1,57.052,217.929Z" transform="translate(-31.947 -215.587)" fill="#fff"/>
          <path id="Trazado_227845" data-name="Trazado 227845" d="M58.992,217.929a.6.6,0,1,1-.6-.519A.563.563,0,0,1,58.992,217.929Z" transform="translate(-31.745 -215.588)" fill="#fff"/>
        </g>
        <g id="freepik--Character--inject-33" transform="translate(129.842 7.681)">
          <path id="Trazado_227854" data-name="Trazado 227854" d="M313.935,273.567,285.087,370.9a10.194,10.194,0,0,1-9.763,7.3l-117.072.32a10.835,10.835,0,0,1-10.846-11.4h0a10.835,10.835,0,0,1,10.813-10.249h44.763L238.832,257h62.755a12.878,12.878,0,0,1,12.348,16.567Z" transform="translate(-84.852 -128.302)" fill="#455a64"/>
          <path id="Trazado_227855" data-name="Trazado 227855" d="M189.29,354.709c0,.232,11.939.409,26.661.409s26.65-.177,26.65-.409-11.928-.409-26.65-.409S189.29,354.477,189.29,354.709Z" transform="translate(-59.255 -118.139)" fill="#263238"/>
          <path id="Trazado_227856" data-name="Trazado 227856" d="M190.5,259.78c-.21-.066-8.184,23.249-17.8,52.086s-17.229,52.274-17.02,52.34,8.184-23.193,17.8-52.086S190.724,259.857,190.5,259.78Z" transform="translate(29.965 -128.011)" fill="#263238"/>
          <path id="Trazado_227857" data-name="Trazado 227857" d="M226.69,453.274l7.135-.166V366.74H226.69Z" transform="translate(-91.784 -116.84)" fill="#455a64"/>
          <path id="Trazado_227858" data-name="Trazado 227858" d="M266.271,445.719H199.86l30.085-10.459h7.135Z" transform="translate(-94.597 -109.683)" fill="#455a64"/>
          <path id="Trazado_227859" data-name="Trazado 227859" d="M296.763,239.971l-10.989,54.9,1.966,41.141-73.866-12.281,2.894-36.005.088-29.82-18.113,35.1L184.65,265.76l25.811-46.773h0a43.593,43.593,0,0,1,16.887-10.934,34.647,34.647,0,0,1,10.592-2.032h0a42.356,42.356,0,0,0,25.568,0c1.038.133,2.474.276,4.3.486h.331a32.659,32.659,0,0,1,28.506,30.7Z" transform="translate(-108.291 -133.627)" fill="#4dd0e1"/>
          <path id="Trazado_227860" data-name="Trazado 227860" d="M179.55,206.47s30.35.232,34.105,32.283l.508,23.525-26.131-.221Z" transform="translate(-20.059 -133.58)" fill="#4dd0e1"/>
          <path id="Trazado_227861" data-name="Trazado 227861" d="M180,243.839c0,.232,23.878.42,53.334.42s53.29-.2,53.29-.42-23.867-.409-53.334-.409S180,243.618,180,243.839Z" transform="translate(-93.016 -129.719)" fill="#fafafa"/>
          <path id="Trazado_227862" data-name="Trazado 227862" d="M179.96,248.45c0,.221,23.878.409,53.334.409s53.334-.188,53.334-.409-23.867-.42-53.334-.42S179.96,248.218,179.96,248.45Z" transform="translate(-92.976 -129.239)" fill="#fafafa"/>
          <path id="Trazado_227863" data-name="Trazado 227863" d="M180,240.039c0,.232,23.492.42,52.472.42s52.45-.2,52.45-.42-23.492-.409-52.484-.409S180,239.807,180,240.039Z" transform="translate(-91.315 -130.116)" fill="#fafafa"/>
          <path id="Trazado_227864" data-name="Trazado 227864" d="M257.947,290.257c.232,0,.133-13-.221-29.014s-.828-29-1.049-29-.133,13,.221,29.014S257.726,290.257,257.947,290.257Z" transform="translate(-149.018 -130.888)" fill="#263238"/>
          <path id="Trazado_227865" data-name="Trazado 227865" d="M269.306,265.69s-14.358,1.027-16.942,4.826-6.527,14.612-5.036,14.689a4.065,4.065,0,0,0,2.584-.806l3.932-6.98s-.63,6.737,1.723,6.87,14.038,2.474,14.038,2.474Z" transform="translate(-149.994 -127.394)" fill="#ffbe9d"/>
          <path id="Trazado_227866" data-name="Trazado 227866" d="M254.37,251.432l.055,37.01a14.06,14.06,0,0,1-17.031,12.977L179.51,289.491l.121-23.735,49.954,9.62.663-25.126Z" transform="translate(-60.276 -129.007)" fill="#4dd0e1"/>
          <path id="Trazado_227867" data-name="Trazado 227867" d="M243.866,299.549a4.982,4.982,0,0,0-.762-.21l-2.209-.508-8.5-1.8-30.163-6.2.3.353V266.813l-.486.409,10.183,1.955,39.76,7.565.431.088v-.353c-.375-11.045-.7-20.189-.917-26.683-.133-3.159-.232-5.666-.309-7.455,0-.806-.077-1.458-.11-1.955a2.98,2.98,0,0,0-.077-.674,5.308,5.308,0,0,0,0,.674v1.966c0,1.789.066,4.3.11,7.455.155,6.505.364,15.672.618,26.683l.42-.342-39.76-7.731-10.183-1.944-.486-.1v25.181l.3.055,30.207,5.854,8.548,1.6,2.264.4A3.833,3.833,0,0,0,243.866,299.549Z" transform="translate(-82.795 -130.108)" fill="#263238"/>
          <path id="Trazado_227868" data-name="Trazado 227868" d="M213.708,206.536a2.77,2.77,0,0,0-.232.541,11.21,11.21,0,0,0-.453,1.635,13.353,13.353,0,0,0,.276,6.229,16.368,16.368,0,0,0,5.014,7.731,15.617,15.617,0,0,0,10.536,3.987,14.358,14.358,0,0,0,10.415-4.23,14.634,14.634,0,0,0,3.877-8.383,13.1,13.1,0,0,0-.729-6.2,8.55,8.55,0,0,0-.74-1.524c-.2-.331-.309-.5-.342-.486s.353.74.784,2.121a13.97,13.97,0,0,1,.453,6.008,14.358,14.358,0,0,1-3.843,7.93,13.718,13.718,0,0,1-9.874,3.932,15.043,15.043,0,0,1-10.028-3.722,16.158,16.158,0,0,1-4.97-7.356,13.993,13.993,0,0,1-.508-6.008C213.532,207.331,213.8,206.558,213.708,206.536Z" transform="translate(-85.838 -133.645)" fill="#263238"/>
          <path id="Trazado_227869" data-name="Trazado 227869" d="M242.97,289.911a17.4,17.4,0,0,0,0-3.656c-.088-2.209-.2-5.346-.221-8.769s0-6.527.121-8.78a17.949,17.949,0,0,0,0-3.656,14.579,14.579,0,0,0-.552,3.623c-.21,2.209-.375,5.368-.353,8.836s.221,6.56.453,8.836A14.965,14.965,0,0,0,242.97,289.911Z" transform="translate(-117.893 -127.461)" fill="#fafafa"/>
          <path id="Trazado_227870" data-name="Trazado 227870" d="M240.026,290.449a18.091,18.091,0,0,0,.1-3.634c0-2.551-.055-5.522-.088-8.714v-8.758a17.067,17.067,0,0,0-.133-3.623,14.721,14.721,0,0,0-.453,3.6c-.144,2.209-.265,5.334-.243,8.747s.155,6.505.331,8.747A15,15,0,0,0,240.026,290.449Z" transform="translate(-111.956 -127.391)" fill="#fafafa"/>
          <path id="Trazado_227871" data-name="Trazado 227871" d="M298.1,421.25l-10.934,30.129-15.529,21.327a3.313,3.313,0,0,0,.917,4.716h0a3.313,3.313,0,0,0,2.993.254c6.262-2.6,29.235-12.27,29.92-14.512.784-2.607,15.617-35.011,15.617-35.011Z" transform="translate(-228 -111.146)" fill="#4dd0e1"/>
          <g id="Grupo_215552" data-name="Grupo 215552" transform="translate(44.507 349.997)" opacity="0.6">
            <path id="Trazado_227872" data-name="Trazado 227872" d="M284.49,473.65l33.7-16.28-.5,1.27a5.015,5.015,0,0,1-2.209,2.562c-2.761,1.491-10.492,5.434-27.865,12.734a3.313,3.313,0,0,1-3.081-.287Z" transform="translate(-284.49 -457.37)" fill="#fff"/>
          </g>
          <g id="Grupo_215553" data-name="Grupo 215553" transform="translate(74.393 337.943)" opacity="0.6">
            <path id="Trazado_227873" data-name="Trazado 227873" d="M285.983,446.493a1.977,1.977,0,0,0-1.447,2.209,1.911,1.911,0,0,0,2.209,1.458,2.087,2.087,0,0,0,1.524-2.364,1.988,1.988,0,0,0-2.441-1.259" transform="translate(-284.514 -446.456)" fill="#fff"/>
          </g>
          <path id="Trazado_227874" data-name="Trazado 227874" d="M308.96,463.215a9.84,9.84,0,0,0-1.723-3.313c-1.4-1.568-3.214-1.8-3.181-2s.475-.166,1.215,0a5.257,5.257,0,0,1,3.788,4.131C309.159,462.763,309.038,463.215,308.96,463.215Z" transform="translate(-252.503 -107.332)" fill="#263238"/>
          <path id="Trazado_227875" data-name="Trazado 227875" d="M312.393,465.942c-.188.077-.773-1.27-2.143-2.319a24.629,24.629,0,0,0-2.772-1.5c0-.188,1.657-.265,3.2.95S312.581,465.919,312.393,465.942Z" transform="translate(-259.625 -106.889)" fill="#263238"/>
          <path id="Trazado_227876" data-name="Trazado 227876" d="M305.869,460.073c-.2.088-1.1-1.977-3.07-3.788s-4.1-2.562-4.031-2.761,2.4.265,4.506,2.209S306.045,460.051,305.869,460.073Z" transform="translate(-243.459 -107.78)" fill="#263238"/>
          <path id="Trazado_227877" data-name="Trazado 227877" d="M302.739,451.742c-.144.155-1.524-1.182-3.645-2.1s-4.02-1.1-4.009-1.27,2.032-.375,4.3.63A6.74,6.74,0,0,1,302.739,451.742Z" transform="translate(-236.242 -108.328)" fill="#263238"/>
          <path id="Trazado_227878" data-name="Trazado 227878" d="M300.067,443.8c-.155.133-1.425-1.5-3.733-2.286s-4.307-.342-4.352-.541.453-.331,1.292-.464a7.179,7.179,0,0,1,6.074,2.121C299.945,443.267,300.166,443.742,300.067,443.8Z" transform="translate(-230.157 -109.141)" fill="#263238"/>
          <path id="Trazado_227879" data-name="Trazado 227879" d="M292.73,440.512a2.937,2.937,0,0,1,.409-1.1,8.406,8.406,0,0,1,2.043-2.607,3.711,3.711,0,0,1,2.143-1.1,1.325,1.325,0,0,1,1.281.817,2.132,2.132,0,0,1,0,1.524,4.639,4.639,0,0,1-5.4,2.562,5.368,5.368,0,0,1-3.91-4.539,1.878,1.878,0,0,1,.475-1.48,1.314,1.314,0,0,1,1.513-.155,4.6,4.6,0,0,1,1.568,1.789,9.6,9.6,0,0,1,1.1,3.115,2.717,2.717,0,0,1,0,1.215,14.611,14.611,0,0,0-1.612-4.064,4.329,4.329,0,0,0-1.4-1.524.685.685,0,0,0-.828.077,1.281,1.281,0,0,0-.265.983,4.815,4.815,0,0,0,3.435,3.9,4.009,4.009,0,0,0,4.572-2.076,1.535,1.535,0,0,0,.088-1.1.718.718,0,0,0-.707-.453,3.369,3.369,0,0,0-1.822.884A12.292,12.292,0,0,0,292.73,440.512Z" transform="translate(-225.836 -109.788)" fill="#263238"/>
          <path id="Trazado_227880" data-name="Trazado 227880" d="M336.039,414.121l.939,24.486s-24.563,9.189-24.828,13.728l47.491-.133.133-38.2Z" transform="translate(-312.12 -111.903)" fill="#4dd0e1"/>
          <g id="Grupo_215554" data-name="Grupo 215554" transform="translate(37.246 324.564)" opacity="0.6">
            <path id="Trazado_227881" data-name="Trazado 227881" d="M320.544,434.384a1.944,1.944,0,0,1,1.347,2.209,1.866,1.866,0,0,1-2.209,1.358,2.054,2.054,0,0,1-1.414-2.352,1.955,1.955,0,0,1,2.43-1.16" transform="translate(-318.231 -434.343)" fill="#fff"/>
          </g>
          <g id="Grupo_215555" data-name="Grupo 215555" transform="translate(0 336.489)" opacity="0.6">
            <path id="Trazado_227882" data-name="Trazado 227882" d="M359.8,448.95v-3.81l-45.68,1.524s-2.11.928-1.867,2.419Z" transform="translate(-312.23 -445.14)" fill="#fff"/>
          </g>
          <path id="Trazado_227883" data-name="Trazado 227883" d="M329.56,436.079c0,.232,1.16.342,2.308,1.1s1.756,1.723,1.966,1.624-.133-1.436-1.535-2.308S329.505,435.869,329.56,436.079Z" transform="translate(-305.464 -109.618)" fill="#263238"/>
          <path id="Trazado_227884" data-name="Trazado 227884" d="M335.14,437.949c-.055.232.95.618,1.745,1.6s1.016,2.021,1.248,2.01.376-1.325-.63-2.529S335.14,437.728,335.14,437.949Z" transform="translate(-316.036 -109.412)" fill="#263238"/>
          <path id="Trazado_227885" data-name="Trazado 227885" d="M342.157,443.728c.21,0,.53-1.1-.077-2.375s-1.679-1.778-1.778-1.579.574.873,1.1,1.922S341.925,443.706,342.157,443.728Z" transform="translate(-325.858 -109.216)" fill="#263238"/>
          <path id="Trazado_227886" data-name="Trazado 227886" d="M328.649,431.077c.1.21,1.16-.11,2.474,0s2.341.5,2.463.3-.873-1.027-2.419-1.1S328.538,430.889,328.649,431.077Z" transform="translate(-304.155 -110.205)" fill="#263238"/>
          <g id="Grupo_215556" data-name="Grupo 215556" transform="translate(24.108 307.067)" opacity="0.3">
            <path id="Trazado_227887" data-name="Trazado 227887" d="M312.15,418.5l.166,4.363,23.359-.276.022-3.932Z" transform="translate(-312.15 -418.5)"/>
          </g>
          <path id="Trazado_227888" data-name="Trazado 227888" d="M326.671,426.882a4.628,4.628,0,0,0,2.386,0,11.236,11.236,0,0,0,2.485-.773,11.053,11.053,0,0,0,1.369-.729,3.312,3.312,0,0,0,.718-.563,1.016,1.016,0,0,0,.1-1.237,1.281,1.281,0,0,0-1.016-.53,3,3,0,0,0-.895.133,9.311,9.311,0,0,0-1.48.508,8.349,8.349,0,0,0-2.209,1.447c-1.1,1.027-1.48,1.889-1.4,1.944s.641-.652,1.767-1.5a9.247,9.247,0,0,1,2.121-1.2,8.14,8.14,0,0,1,1.359-.42c.508-.144.939-.144,1.1.077s.055.122,0,.265a2.464,2.464,0,0,1-.53.42,12.14,12.14,0,0,1-1.259.718,13.378,13.378,0,0,1-2.3.884,15.178,15.178,0,0,0-2.319.563Z" transform="translate(-302.276 -110.958)" fill="#263238"/>
          <path id="Trazado_227889" data-name="Trazado 227889" d="M335.508,427.532a3.965,3.965,0,0,0,.618-2.308,7.953,7.953,0,0,0-.331-2.607,8.841,8.841,0,0,0-.607-1.436A1.988,1.988,0,0,0,333.664,420a1.1,1.1,0,0,0-.994.663,3.444,3.444,0,0,0-.243.884,5.19,5.19,0,0,0,0,1.6,5.521,5.521,0,0,0,1.027,2.452c.928,1.226,1.9,1.5,1.922,1.425a9.692,9.692,0,0,1-1.447-1.745,5.323,5.323,0,0,1-.762-2.209,4.859,4.859,0,0,1,0-1.381c.066-.5.254-.906.442-.861a1.7,1.7,0,0,1,.839.784,8.324,8.324,0,0,1,.6,1.281,8.548,8.548,0,0,1,.464,2.375C335.618,426.627,335.375,427.488,335.508,427.532Z" transform="translate(-310.804 -111.277)" fill="#263238"/>
          <path id="Trazado_227890" data-name="Trazado 227890" d="M283.216,307.854c28.086,2.9,65.317,6.726,65.317,6.726l-5.08,45.713s-54.692-14.457-54.306-13.253-2.54,97.258-2.54,97.258H253.672l-.618-108.821a27.357,27.357,0,0,1,30.163-27.622Z" transform="translate(-235.605 -123.005)" fill="#263238"/>
          <path id="Trazado_227891" data-name="Trazado 227891" d="M316.582,327.037v14.17c0,9.653-10.989,19.88-20.631,19.88h-7.466c-5.876,0-15.087-4.285-19.88-7.731l-2.849-2.087-34.3,106.259s-39.241-7.035-39.241-8.272,26.573-87.031,38.844-126.846c5.014-16.258,22.431-25.712,38.523-20.2.541.188,1.1.4,1.646.618C288.85,309.874,316.582,327.037,316.582,327.037Z" transform="translate(-136.46 -123.745)" fill="#263238"/>
          <path id="Trazado_227892" data-name="Trazado 227892" d="M253.079,449.048a1.979,1.979,0,0,0,.166-.376c.121-.3.265-.674.442-1.1.376-1.005.917-2.485,1.557-4.418,1.314-3.832,3.115-9.432,5.3-16.357,4.418-13.839,10.249-33.023,16.633-54.228,3.181-10.614,6.2-20.719,8.957-29.931,1.37-4.595,2.662-8.968,3.877-13.066q.928-3.07,1.767-5.909a51.991,51.991,0,0,1,1.789-5.379,22.089,22.089,0,0,1,5.522-7.853,47.377,47.377,0,0,1,5.809-4.517c1.679-1.1,3.015-1.955,3.932-2.507l1.027-.652a1.379,1.379,0,0,0,.342-.243,1.412,1.412,0,0,0-.375.177l-1.1.574c-.939.508-2.308,1.292-4.02,2.386a43.932,43.932,0,0,0-5.942,4.418,22.243,22.243,0,0,0-5.765,7.952,52.015,52.015,0,0,0-1.855,5.423c-.585,1.889-1.182,3.866-1.811,5.909l-3.954,13.033c-2.772,9.2-5.82,19.306-9.023,29.908-6.384,21.172-12.149,40.345-16.39,54.306L254.9,443.018l-1.414,4.418c-.144.475-.254.85-.353,1.16S253.057,449.048,253.079,449.048Z" transform="translate(-197.285 -123.548)" fill="#455a64"/>
          <path id="Trazado_227893" data-name="Trazado 227893" d="M307.042,330.88c-.2.133,1.668,2.938,3.225,6.748s2.264,7.1,2.507,7.057-.11-3.468-1.745-7.378S307.208,330.748,307.042,330.88Z" transform="translate(-259.531 -120.586)" fill="#455a64"/>
          <path id="Trazado_227894" data-name="Trazado 227894" d="M308.268,334.882c-.088.221,2.739,1.469,5.688,3.8s4.849,4.771,5.047,4.628-1.458-2.872-4.539-5.268S308.345,334.684,308.268,334.882Z" transform="translate(-267.074 -120.17)" fill="#455a64"/>
          <path id="Trazado_227895" data-name="Trazado 227895" d="M232.84,454.716c.21.066,9.476-28.362,20.7-63.506s20.123-63.694,19.88-63.76-9.476,28.362-20.7,63.517S232.619,454.649,232.84,454.716Z" transform="translate(-138.169 -120.943)" fill="#455a64"/>
          <path id="Trazado_227896" data-name="Trazado 227896" d="M364.678,298.084,252.41,299.166,231.47,239.99l81.663.552,18.952,53.212,32.592.5Z" transform="translate(-227.916 -130.078)" fill="#455a64"/>
          <path id="Trazado_227897" data-name="Trazado 227897" d="M310.172,272.257a4.55,4.55,0,1,0-5.136-3.866A4.55,4.55,0,0,0,310.172,272.257Z" transform="translate(-258.531 -127.654)" fill="#fff"/>
          <path id="Trazado_227898" data-name="Trazado 227898" d="M253.177,148.311c-1.1-3.943-4.031-5.876-7.886-7.19a12.679,12.679,0,0,0-11.6,1.878c-2.209,1.657-3.866,4.053-6.45,4.948-4.241,1.469-9.211-1.7-13.253.2a5.787,5.787,0,0,0,2.739,11.044c-2.761,1.016-3.623,4.959-2.01,7.422s4.937,3.391,7.842,2.849a16.258,16.258,0,0,0,7.61-4.263c2.209-1.966,4.153-4.2,6.494-5.986a12.6,12.6,0,0,1,8.129-2.982c3.987.21,7.4,3.214,9.178,6.792s2.209,7.643,2.408,11.63.287,8.029,1.469,11.84a1.559,1.559,0,0,0,.8,1.1c.652.2,1.2-.486,1.524-1.1a58.535,58.535,0,0,0,6.682-21.769c.453-4.418.342-8.593-2.087-12.315s-8.559-6.45-11.564-4.1" transform="translate(-107.248 -140.473)" fill="#263238"/>
          <path id="Trazado_227899" data-name="Trazado 227899" d="M253.264,166.279l2.043,44.686c.342,7.6-.707,18.842-12.745,18.842h0c-10.448-.8-13.53-10.559-13.85-17.671-.144-3.313-.276-6.163-.32-6.505,0,0-11.42-.552-12.756-11.773-.641-5.423-1.1-16.71-1.325-26.915a21.062,21.062,0,0,1,18.776-21.459l1.1-.11C245.974,144.831,253.032,154.506,253.264,166.279Z" transform="translate(-99.637 -139.963)" fill="#ffbe9d"/>
          <path id="Trazado_227900" data-name="Trazado 227900" d="M225.89,200.341a26.242,26.242,0,0,0,14.2-5.721s-2.6,8.449-13.916,8.637Z" transform="translate(-97.169 -134.817)" fill="#eb996e"/>
          <path id="Trazado_227901" data-name="Trazado 227901" d="M244.87,171.574a1.612,1.612,0,0,0,1.723,1.458,1.535,1.535,0,0,0,1.491-1.624,1.613,1.613,0,0,0-1.712-1.458,1.535,1.535,0,0,0-1.5,1.624Z" transform="translate(-126.122 -137.394)" fill="#263238"/>
          <path id="Trazado_227902" data-name="Trazado 227902" d="M243.027,169.874c.221.188,1.336-.839,3.07-1.016s3.081.552,3.247.32-.166-.464-.762-.806a4.473,4.473,0,0,0-2.629-.519,4.219,4.219,0,0,0-2.408,1.1C243.06,169.4,242.916,169.8,243.027,169.874Z" transform="translate(-125.35 -137.616)" fill="#263238"/>
          <path id="Trazado_227903" data-name="Trazado 227903" d="M229.471,170.474a1.612,1.612,0,0,0,1.723,1.458,1.557,1.557,0,0,0,1.5-1.624,1.635,1.635,0,0,0-1.723-1.458,1.546,1.546,0,0,0-1.5,1.624Z" transform="translate(-93.725 -137.509)" fill="#263238"/>
          <path id="Trazado_227904" data-name="Trazado 227904" d="M227.627,168.534c.221.188,1.336-.839,3.07-1.027s3.081.552,3.247.32-.166-.453-.762-.8a4.418,4.418,0,0,0-2.629-.519,4.3,4.3,0,0,0-2.408,1.1C227.66,168.048,227.516,168.445,227.627,168.534Z" transform="translate(-92.941 -137.756)" fill="#263238"/>
          <path id="Trazado_227905" data-name="Trazado 227905" d="M242.3,181.909a11.3,11.3,0,0,0-2.861-.21c-.453,0-.872,0-.983-.331a2.374,2.374,0,0,1,.155-1.347c.309-1.1.618-2.275.95-3.49,1.3-4.97,2.209-9.045,2-9.1s-1.425,3.943-2.728,8.913c-.309,1.226-.607,2.4-.884,3.512a2.507,2.507,0,0,0,0,1.756,1.1,1.1,0,0,0,.784.574,3.027,3.027,0,0,0,.762,0,11.785,11.785,0,0,0,2.805-.276Z" transform="translate(-112.519 -137.657)" fill="#263238"/>
          <path id="Trazado_227906" data-name="Trazado 227906" d="M237.734,181.13c-.276,0-.088,1.889-1.546,3.391s-3.479,1.5-3.468,1.767.486.32,1.336.254a4.727,4.727,0,0,0,2.9-1.381,4.075,4.075,0,0,0,1.171-2.827C238.121,181.55,237.823,181.108,237.734,181.13Z" transform="translate(-102.751 -136.226)" fill="#263238"/>
          <path id="Trazado_227907" data-name="Trazado 227907" d="M227.214,162.4c.221.453,1.922,0,3.976.077s3.744.409,3.976,0c.088-.21-.243-.618-.95-1.005a6.836,6.836,0,0,0-6.052,0C227.457,161.786,227.115,162.195,227.214,162.4Z" transform="translate(-93.7 -138.353)" fill="#263238"/>
          <path id="Trazado_227908" data-name="Trazado 227908" d="M243.429,165.3c.342.353,1.491-.177,2.916-.353s2.673,0,2.9-.453c.11-.21-.121-.585-.7-.906a4.12,4.12,0,0,0-2.441-.387,4.054,4.054,0,0,0-2.209,1.038C243.4,164.7,243.274,165.126,243.429,165.3Z" transform="translate(-125.652 -138.103)" fill="#263238"/>
          <path id="Trazado_227909" data-name="Trazado 227909" d="M208.913,171.982c.188-.1,7.477-3.1,8.051,4.606s-7.289,6.693-7.311,6.472S208.913,171.982,208.913,171.982Z" transform="translate(-55.319 -137.251)" fill="#ffbe9d"/>
          <path id="Trazado_227910" data-name="Trazado 227910" d="M210.71,179.737a2.447,2.447,0,0,0,.376.177,1.4,1.4,0,0,0,1.005-.055,3.369,3.369,0,0,0,1.325-3.1,4.473,4.473,0,0,0-.519-1.889,1.568,1.568,0,0,0-1.1-.961.7.7,0,0,0-.762.431c-.088.221,0,.375-.066.387s-.177-.11-.144-.442a.817.817,0,0,1,.276-.5.994.994,0,0,1,.729-.254,1.911,1.911,0,0,1,1.491,1.1,4.627,4.627,0,0,1,.618,2.109c.066,1.557-.618,3.07-1.712,3.479a1.436,1.436,0,0,1-1.237-.122C210.744,179.925,210.688,179.748,210.71,179.737Z" transform="translate(-54.245 -137.02)" fill="#eb996e"/>
          <path id="Trazado_227911" data-name="Trazado 227911" d="M214.949,165a16.357,16.357,0,0,0,14.071-4.782c2.485-2.607,4.241-6.163,7.554-7.588a9.211,9.211,0,0,1,7.079.21,17.671,17.671,0,0,1,5.809,4.307c-1.557,5.942.574,12.149,2.684,17.925a3.081,3.081,0,0,0,1.1,1.679c.983.607,2.286-.088,2.993-1.005a9.531,9.531,0,0,0,1.546-5.224,31.687,31.687,0,0,0-1.392-12.458,21.736,21.736,0,0,0-7.069-10.227,20.476,20.476,0,0,0-14.9-3.821,25.126,25.126,0,0,0-13.96,6.726,14.722,14.722,0,0,0-4.142,5.942" transform="translate(-102.905 -140.122)" fill="#263238"/>
        </g>
        <g id="freepik--Plant--inject-33" transform="translate(437.22 217.007)">
          <path id="Trazado_227912" data-name="Trazado 227912" d="M74.678,378.267a20.885,20.885,0,0,0-12.9-1.579c-2.341.387-4.793,1.1-6.395,2.861s-1.9,4.871-.066,6.384a6.141,6.141,0,0,0,4.031,1.016c3.424,0,7.223-.641,9.94,1.425,1.568,1.171,2.607,3.126,4.418,3.7a4.418,4.418,0,0,0,4.849-2.154A7.577,7.577,0,0,0,79.1,384.4a8.482,8.482,0,0,0-4.418-6.13Z" transform="translate(-54.058 -325.168)" fill="#4dd0e1"/>
          <path id="Trazado_227913" data-name="Trazado 227913" d="M64.173,365.684c-2.408,3.435-7.091,2.3-9.255.2s-3.092-5.136-3.921-8.04c-1.911-6.627-3.832-13.585-2.419-20.333a11.3,11.3,0,0,1,2.607-5.522,5.9,5.9,0,0,1,5.589-1.867c2.352.63,3.821,2.938,4.882,5.136a48.452,48.452,0,0,1,4.793,20.8c0,3.313-.387,6.87-2.275,9.631" transform="translate(-34.53 -330.003)" fill="#4dd0e1"/>
          <path id="Trazado_227914" data-name="Trazado 227914" d="M21.67,369.581a12.524,12.524,0,0,1-1.955-11.519,22.232,22.232,0,0,1,6.826-9.94,36.613,36.613,0,0,1,12.149-7.212,13.1,13.1,0,0,1,5.522-.928,5.765,5.765,0,0,1,4.606,2.783c1.281,2.452.055,5.423-1.281,7.853a93.071,93.071,0,0,1-8.018,12.27c-2.408,3.092-5.158,6.152-8.836,7.554s-7.466,1.237-9.41-1.3" transform="translate(14.589 -328.962)" fill="#4dd0e1"/>
          <path id="Trazado_227915" data-name="Trazado 227915" d="M67.952,412.262a7.2,7.2,0,0,1-.221-1.557c-.11-1.1-.254-2.562-.42-4.263a61.7,61.7,0,0,0-.95-6.251,48.992,48.992,0,0,0-2.275-7.389,27.313,27.313,0,0,0-3.777-6.627,14.049,14.049,0,0,0-4.76-4.031A12.834,12.834,0,0,0,51.54,380.9a7.734,7.734,0,0,1-1.557-.232,7.879,7.879,0,0,1,1.579,0,11.94,11.94,0,0,1,4.186,1.1,13.894,13.894,0,0,1,5.025,3.987,26.771,26.771,0,0,1,3.866,6.8,45.083,45.083,0,0,1,2.209,7.51,52.893,52.893,0,0,1,.839,6.329c.133,1.811.177,3.313.21,4.3A7.246,7.246,0,0,1,67.952,412.262Z" transform="translate(-38.143 -324.715)" fill="#263238"/>
          <path id="Trazado_227916" data-name="Trazado 227916" d="M57.952,412.965a3.313,3.313,0,0,1,0-.718v-2.076c0-1.8,0-4.418-.1-7.621-.155-6.428-.707-13.353-1.778-23.105-1.016-9.178-2.375-19.88-3.81-26.794-.3-1.579-.607-3-.906-4.241s-.519-2.319-.74-3.192-.364-1.491-.486-2.021A2.894,2.894,0,0,1,50,342.49a2.617,2.617,0,0,1,.254.674c.166.519.364,1.182.607,1.988s.541,1.933.85,3.17.663,2.662,1.005,4.23a238.031,238.031,0,0,1,4,24.861A251.389,251.389,0,0,1,58.25,402.55c0,3.214,0,5.831-.11,7.632,0,.839-.1,1.524-.133,2.065a2.717,2.717,0,0,1-.055.718Z" transform="translate(-28.442 -328.698)" fill="#263238"/>
          <path id="Trazado_227917" data-name="Trazado 227917" d="M29.523,395.306a14.092,14.092,0,0,1,0-2.209,58.026,58.026,0,0,1,.663-5.876,77.839,77.839,0,0,1,1.889-8.5A70.323,70.323,0,0,1,35.653,368.6a54.041,54.041,0,0,1,10.5-16.346,28.263,28.263,0,0,1,2.485-2.3,12.881,12.881,0,0,1,1.1-.883l.961-.663a13.648,13.648,0,0,1,1.822-1.171,64.272,64.272,0,0,0-5.975,5.334,56.626,56.626,0,0,0-10.238,16.291,80.031,80.031,0,0,0-3.6,10.017c-.939,3.148-1.557,6.03-2.032,8.46s-.707,4.418-.861,5.82a12.934,12.934,0,0,1-.3,2.143Z" transform="translate(-0.057 -328.202)" fill="#263238"/>
          <path id="Trazado_227918" data-name="Trazado 227918" d="M69,418.18l-1.723,23.569H36.992L35.28,418.18Z" transform="translate(-22.933 -320.793)" fill="#263238"/>
          <rect id="Rectángulo_303877" data-name="Rectángulo 303877" width="40.257" height="9.288" transform="translate(8.736 88.099)" fill="#263238"/>
          <path id="Trazado_227919" data-name="Trazado 227919" d="M72.225,438.71v2.573H32.63V438.71Z" transform="translate(-23.232 -318.648)" fill="#455a64"/>
          <path id="Trazado_227920" data-name="Trazado 227920" d="M68.755,445.568l1.855-4.528H34.34l2.165,4.528Z" transform="translate(-23.506 -318.405)" fill="#455a64"/>
          <path id="Trazado_227921" data-name="Trazado 227921" d="M35.74,425.465a2.283,2.283,0,0,0,.144.21l.453.607,1.767,2.209.077.1.077-.1,4.329-6h-.243l4.263,6.108.133.188.155-.177c1.568-1.878,3.313-3.91,5.058-6.019h-.287c.077.11.177.221.276.342L56.46,428.6l.155.188.144-.2,4.263-6.041h-.243l5.257,6.052.088.1.077-.121c.685-1.16,1.237-2.087,1.646-2.761l.42-.74.133-.254a1.01,1.01,0,0,0-.177.232l-.475.707-1.723,2.717h.166l-5.18-6.052-.121-.155-.121.166-4.307,6.008h.287l-4.517-5.677-.276-.353-.144-.177-.144.177-5.047,6.03h.287l-4.318-6.008-.121-.177-.121.177L38.1,428.491h.188l-1.844-2.209-.486-.574C35.817,425.52,35.751,425.454,35.74,425.465Z" transform="translate(-22.841 -320.369)" fill="#e0e0e0"/>
          <path id="Trazado_227922" data-name="Trazado 227922" d="M35.51,418.018c0,.11,7.588.188,16.953.188s16.942-.077,16.942-.188-7.588-.188-16.942-.188S35.51,418.018,35.51,418.018Z" transform="translate(-23.593 -320.829)" fill="#455a64"/>
          <path id="Trazado_227923" data-name="Trazado 227923" d="M34.23,441.288c0,.1,8.25.188,18.411.188s18.422-.088,18.422-.188-8.25-.188-18.422-.188S34.23,441.188,34.23,441.288Z" transform="translate(-23.838 -318.399)" fill="#263238"/>
        </g>
        <g id="freepik--Devices--inject-33" transform="translate(6.957 68.522)">
          <path id="Trazado_227924" data-name="Trazado 227924" d="M378.226,195.56l21.04,87.991H393.38L372.66,195.56Z" transform="translate(-295.558 -195.56)" fill="#263238"/>
          <path id="Trazado_227925" data-name="Trazado 227925" d="M391.461,248c.375,1.613-9.531,49.579-9.531,49.579H386.7l7.477-38.015Z" transform="translate(-300.708 -190.083)" fill="#263238"/>
          <rect id="Rectángulo_303878" data-name="Rectángulo 303878" width="98.55" height="104.47" transform="translate(20.687 170.935)" fill="#4dd0e1"/>
          <rect id="Rectángulo_303879" data-name="Rectángulo 303879" width="4.837" height="4.837" transform="translate(15.861 186.199)" fill="#263238"/>
          <rect id="Rectángulo_303880" data-name="Rectángulo 303880" width="4.837" height="4.837" transform="translate(15.861 201.562)" fill="#263238"/>
          <rect id="Rectángulo_303881" data-name="Rectángulo 303881" width="4.837" height="4.837" transform="translate(15.861 216.925)" fill="#263238"/>
          <rect id="Rectángulo_303882" data-name="Rectángulo 303882" width="4.837" height="4.837" transform="translate(15.861 232.288)" fill="#263238"/>
          <path id="Trazado_227926" data-name="Trazado 227926" d="M467.058,393.318a7.738,7.738,0,0,0-1.48-.32,23.549,23.549,0,0,0-4.153-.4,11.143,11.143,0,0,0-5.986,1.579,6.914,6.914,0,0,0-3.313,6.627,8.338,8.338,0,0,0,1.259,3.788,9.94,9.94,0,0,0,2.54,2.695,12.978,12.978,0,0,0,5.765,2.275,18.7,18.7,0,0,0,4.164.143,6.623,6.623,0,0,0,1.513-.21,9.423,9.423,0,0,0-1.513,0,22.017,22.017,0,0,1-4.1-.32,12.934,12.934,0,0,1-5.522-2.3,8.494,8.494,0,0,1-3.545-6.108,6.406,6.406,0,0,1,3.037-6.141,10.966,10.966,0,0,1,5.71-1.613,28.722,28.722,0,0,1,4.109.21,7.4,7.4,0,0,0,1.513.088Z" transform="translate(-451.385 -174.98)" fill="#263238"/>
          <path id="Trazado_227927" data-name="Trazado 227927" d="M463.893,379.552a2.035,2.035,0,0,0-.453-.276A10.009,10.009,0,0,0,462,378.7a11.3,11.3,0,0,0-5.666-.32,5.168,5.168,0,0,0-1.8.718,3.125,3.125,0,0,0-1.27,1.723,5.246,5.246,0,0,0,3.148,5.909,3.214,3.214,0,0,0,2.662-.144,2.728,2.728,0,0,0,1.535-2.319,2.783,2.783,0,0,0-1.568-2.4,4.241,4.241,0,0,0-2.816-.3,5.985,5.985,0,0,0-2.463,1.171,6.626,6.626,0,0,0-2.452,4.418,6.163,6.163,0,0,0,1.259,4.418,8.922,8.922,0,0,0,3.026,2.551,14.357,14.357,0,0,0,5.522,1.436c.663.055,1.182.077,1.535.077a1.724,1.724,0,0,0,.541,0s-.74-.1-2.054-.265a15.32,15.32,0,0,1-5.323-1.568,8.669,8.669,0,0,1-2.839-2.485,5.754,5.754,0,0,1-1.1-4.031,6.107,6.107,0,0,1,2.275-4.009,5.29,5.29,0,0,1,2.209-1.049,3.766,3.766,0,0,1,2.441.243,2.007,2.007,0,0,1,.033,3.711,2.617,2.617,0,0,1-2.209.121,4.307,4.307,0,0,1-1.822-1.325,4.484,4.484,0,0,1-1.1-3.932,3.313,3.313,0,0,1,2.706-2.209,11.663,11.663,0,0,1,5.522.133C463.219,379.253,463.871,379.607,463.893,379.552Z" transform="translate(-447.016 -176.488)" fill="#263238"/>
          <path id="Trazado_227928" data-name="Trazado 227928" d="M460.979,365.871a2.618,2.618,0,0,0-1.1-.2,7.731,7.731,0,0,0-2.96.364,8.349,8.349,0,0,0-3.678,2.485,8.118,8.118,0,0,0-1.911,5.08,8.228,8.228,0,0,0,1.59,5.191,8.328,8.328,0,0,0,3.556,2.706,7.731,7.731,0,0,0,2.927.6,2.55,2.55,0,0,0,1.1-.133,10.913,10.913,0,0,1-3.844-.828,8.272,8.272,0,0,1-3.258-2.651,8.051,8.051,0,0,1,.287-9.609,8.427,8.427,0,0,1,3.413-2.441,10.88,10.88,0,0,1,3.877-.563Z" transform="translate(-444.147 -177.794)" fill="#263238"/>
          <path id="Trazado_227929" data-name="Trazado 227929" d="M475.07,300.07a9.508,9.508,0,0,0-.828,1.955,37.274,37.274,0,0,0-1.314,5.931c-.409,2.607-.751,5.82-1.1,9.542s-.652,7.985-1.248,12.657c-.155,1.16-.342,2.352-.585,3.556a15.663,15.663,0,0,1-1.1,3.556,12.979,12.979,0,0,1-2.419,2.982,18.886,18.886,0,0,1-11.144,5.169,15.684,15.684,0,0,1-8.7-1.5A10.547,10.547,0,0,1,441,336.848a8.117,8.117,0,0,1,.331-4.694,8.294,8.294,0,0,1,3.059-3.7,9.189,9.189,0,0,1,4.661-1.546,7.367,7.367,0,0,1,4.716,1.381,5.169,5.169,0,0,1,1.6,1.889,3.854,3.854,0,0,1,.309,2.408,5.82,5.82,0,0,1-3.059,3.888,14.081,14.081,0,0,1-5.036,1.392,46.5,46.5,0,0,1-5.235.365,83.278,83.278,0,0,1-10.293-.574c-6.715-.751-13.253-1.833-19.471-1.9s-12.3.8-17.351,3.313a20.434,20.434,0,0,0-6.45,4.826,14.788,14.788,0,0,0-3.313,6.627,17.848,17.848,0,0,0,1.933,12.425,20.908,20.908,0,0,0,6.549,6.991,24.674,24.674,0,0,0,5.412,2.761,16.725,16.725,0,0,0,2.032.607l-.508-.188c-.342-.1-.839-.287-1.48-.53a25.5,25.5,0,0,1-5.334-2.838,20.917,20.917,0,0,1-6.395-6.958,17.671,17.671,0,0,1-1.8-12.149,14.612,14.612,0,0,1,3.313-6.428,19.99,19.99,0,0,1,6.328-4.683c4.97-2.408,10.945-3.313,17.13-3.17s12.679,1.16,19.427,1.922a79.86,79.86,0,0,0,10.36.6,47.676,47.676,0,0,0,5.3-.364,14.568,14.568,0,0,0,5.235-1.458,6.417,6.417,0,0,0,3.313-4.285,4.473,4.473,0,0,0-.353-2.761,5.755,5.755,0,0,0-1.778-2.1,7.952,7.952,0,0,0-5.08-1.5,9.84,9.84,0,0,0-4.959,1.657,8.836,8.836,0,0,0-3.258,3.954,8.7,8.7,0,0,0-.353,5.025,11.044,11.044,0,0,0,5.92,7.411,16.1,16.1,0,0,0,9,1.535,19.51,19.51,0,0,0,11.409-5.335,13.255,13.255,0,0,0,2.5-3.115,15.994,15.994,0,0,0,1.1-3.678q.353-1.822.563-3.578c.574-4.694.85-8.946,1.171-12.679s.63-6.936.994-9.542a40.021,40.021,0,0,1,1.2-5.931,14.292,14.292,0,0,1,.519-1.491,5.031,5.031,0,0,0,.188-.574Z" transform="translate(-385.09 -184.644)" fill="#263238"/>
          <path id="Trazado_227930" data-name="Trazado 227930" d="M362.126,450.106v-6.969c0-4.539,0-11.166.066-19.571,0-16.821.077-40.787.133-69.459l-.254.254h89.074l-.287-.287v96l.243-.243-64.544.121-18.1.066h-4.837l4.86.088,18.036.066,64.71.121h.254V353.82H361.85v.2c.055,28.716.1,52.76.133,69.58,0,8.394,0,15,.066,19.516v6.439A2.019,2.019,0,0,0,362.126,450.106Z" transform="translate(-335.828 -179.03)" fill="#263238"/>
          <path id="Trazado_227931" data-name="Trazado 227931" d="M419.106,364.773a.453.453,0,0,0,.453.464.464.464,0,1,0,0-.917.453.453,0,0,0-.453.453Z" transform="translate(-367.682 -177.934)" fill="#263238"/>
          <path id="Trazado_227932" data-name="Trazado 227932" d="M421.416,364.773a.453.453,0,0,0,.453.464.464.464,0,1,0,0-.917.453.453,0,0,0-.453.453Z" transform="translate(-372.543 -177.934)" fill="#263238"/>
          <path id="Trazado_227933" data-name="Trazado 227933" d="M423.7,364.773a.453.453,0,0,0,.453.464.464.464,0,1,0,0-.917A.453.453,0,0,0,423.7,364.773Z" transform="translate(-377.341 -177.934)" fill="#263238"/>
          <path id="Trazado_227934" data-name="Trazado 227934" d="M426.03,364.773a.464.464,0,1,0,.464-.453A.464.464,0,0,0,426.03,364.773Z" transform="translate(-382.194 -177.933)" fill="#263238"/>
          <path id="Trazado_227935" data-name="Trazado 227935" d="M428.375,364.773a.429.429,0,1,0,.464-.453A.464.464,0,0,0,428.375,364.773Z" transform="translate(-387.056 -177.933)" fill="#263238"/>
          <path id="Trazado_227936" data-name="Trazado 227936" d="M430.655,364.773a.429.429,0,1,0,.464-.453.464.464,0,0,0-.464.453Z" transform="translate(-391.855 -177.933)" fill="#263238"/>
          <path id="Trazado_227937" data-name="Trazado 227937" d="M432.935,364.773a.429.429,0,1,0,.464-.453.464.464,0,0,0-.464.453Z" transform="translate(-396.653 -177.933)" fill="#263238"/>
          <ellipse id="Elipse_16489" data-name="Elipse 16489" cx="0.453" cy="0.453" rx="0.453" ry="0.453" transform="translate(37.453 188.088)" fill="#263238"/>
          <ellipse id="Elipse_16490" data-name="Elipse 16490" cx="0.453" cy="0.453" rx="0.453" ry="0.453" transform="translate(40.026 188.088)" fill="#263238"/>
          <path id="Trazado_227938" data-name="Trazado 227938" d="M427.17,366.314a.458.458,0,0,0,.917,0,.464.464,0,0,0-.464-.464.453.453,0,0,0-.453.464Z" transform="translate(-384.582 -177.773)" fill="#263238"/>
          <ellipse id="Elipse_16491" data-name="Elipse 16491" cx="0.453" cy="0.453" rx="0.453" ry="0.453" transform="translate(45.173 188.088)" fill="#263238"/>
          <ellipse id="Elipse_16492" data-name="Elipse 16492" cx="0.453" cy="0.453" rx="0.453" ry="0.453" transform="translate(47.757 188.088)" fill="#263238"/>
          <path id="Trazado_227939" data-name="Trazado 227939" d="M420.17,366.314a.461.461,0,1,0,.464-.464.464.464,0,0,0-.464.464Z" transform="translate(-369.85 -177.773)" fill="#263238"/>
          <path id="Trazado_227940" data-name="Trazado 227940" d="M419.17,368.044a.458.458,0,0,0,.917,0,.464.464,0,0,0-.464-.464.453.453,0,0,0-.453.464Z" transform="translate(-367.746 -177.593)" fill="#263238"/>
          <path id="Trazado_227941" data-name="Trazado 227941" d="M421.48,368.044a.458.458,0,0,0,.917,0,.464.464,0,0,0-.464-.464.453.453,0,0,0-.453.464Z" transform="translate(-372.607 -177.593)" fill="#263238"/>
          <path id="Trazado_227942" data-name="Trazado 227942" d="M423.76,368.044a.458.458,0,0,0,.917,0,.464.464,0,0,0-.464-.464.453.453,0,0,0-.453.464Z" transform="translate(-377.406 -177.593)" fill="#263238"/>
          <path id="Trazado_227943" data-name="Trazado 227943" d="M426.041,368.051a.464.464,0,1,0,.206-.461.464.464,0,0,0-.206.461Z" transform="translate(-382.204 -177.6)" fill="#263238"/>
          <path id="Trazado_227944" data-name="Trazado 227944" d="M428.32,368.044a.461.461,0,1,0,.464-.464.464.464,0,0,0-.464.464Z" transform="translate(-387.002 -177.593)" fill="#263238"/>
          <path id="Trazado_227945" data-name="Trazado 227945" d="M430.6,368.044a.461.461,0,1,0,.464-.464A.464.464,0,0,0,430.6,368.044Z" transform="translate(-391.8 -177.593)" fill="#263238"/>
          <path id="Trazado_227946" data-name="Trazado 227946" d="M432.88,368.044a.461.461,0,1,0,.464-.464.464.464,0,0,0-.464.464Z" transform="translate(-396.598 -177.593)" fill="#263238"/>
          <path id="Trazado_227947" data-name="Trazado 227947" d="M431.83,369.573a.464.464,0,0,0,.464.464.461.461,0,1,0-.464-.464Z" transform="translate(-394.388 -177.432)" fill="#263238"/>
          <path id="Trazado_227948" data-name="Trazado 227948" d="M429.49,369.573a.453.453,0,0,0,.453.464.464.464,0,0,0,.464-.464.458.458,0,0,0-.917,0Z" transform="translate(-389.464 -177.432)" fill="#263238"/>
          <path id="Trazado_227949" data-name="Trazado 227949" d="M427.17,369.573a.453.453,0,0,0,.453.464.464.464,0,0,0,.464-.464.458.458,0,0,0-.917,0Z" transform="translate(-384.582 -177.432)" fill="#263238"/>
          <path id="Trazado_227950" data-name="Trazado 227950" d="M424.83,369.573a.453.453,0,0,0,.453.464.464.464,0,0,0,.464-.464.458.458,0,0,0-.917,0Z" transform="translate(-379.657 -177.432)" fill="#263238"/>
          <path id="Trazado_227951" data-name="Trazado 227951" d="M422.5,369.567a.464.464,0,1,0,.458-.392.464.464,0,0,0-.458.392Z" transform="translate(-374.754 -177.426)" fill="#263238"/>
          <path id="Trazado_227952" data-name="Trazado 227952" d="M420.17,369.573a.464.464,0,0,0,.464.464.461.461,0,1,0-.464-.464Z" transform="translate(-369.85 -177.432)" fill="#263238"/>
          <path id="Trazado_227953" data-name="Trazado 227953" d="M419.17,371.3a.453.453,0,0,0,.453.464.464.464,0,0,0,.464-.464.458.458,0,0,0-.917,0Z" transform="translate(-367.746 -177.251)" fill="#263238"/>
          <path id="Trazado_227954" data-name="Trazado 227954" d="M421.48,371.3a.453.453,0,0,0,.453.464.464.464,0,0,0,.464-.464.458.458,0,0,0-.917,0Z" transform="translate(-372.607 -177.251)" fill="#263238"/>
          <path id="Trazado_227955" data-name="Trazado 227955" d="M423.76,371.3a.453.453,0,0,0,.453.464.464.464,0,0,0,.464-.464.458.458,0,0,0-.917,0Z" transform="translate(-377.406 -177.251)" fill="#263238"/>
          <path id="Trazado_227956" data-name="Trazado 227956" d="M426.041,371.3a.464.464,0,1,0,.458-.392.464.464,0,0,0-.458.392Z" transform="translate(-382.204 -177.246)" fill="#263238"/>
          <path id="Trazado_227957" data-name="Trazado 227957" d="M428.32,371.3a.464.464,0,0,0,.464.464.461.461,0,1,0-.464-.464Z" transform="translate(-387.002 -177.251)" fill="#263238"/>
          <path id="Trazado_227958" data-name="Trazado 227958" d="M430.6,371.3a.464.464,0,0,0,.464.464.461.461,0,1,0-.464-.464Z" transform="translate(-391.8 -177.251)" fill="#263238"/>
          <path id="Trazado_227959" data-name="Trazado 227959" d="M432.88,371.3a.464.464,0,0,0,.464.464.461.461,0,1,0-.464-.464Z" transform="translate(-396.598 -177.251)" fill="#263238"/>
          <ellipse id="Elipse_16493" data-name="Elipse 16493" cx="0.453" cy="0.453" rx="0.453" ry="0.453" transform="translate(37.453 195.3)" fill="#263238"/>
          <ellipse id="Elipse_16494" data-name="Elipse 16494" cx="0.453" cy="0.453" rx="0.453" ry="0.453" transform="translate(40.026 195.3)" fill="#263238"/>
          <path id="Trazado_227960" data-name="Trazado 227960" d="M427.106,372.844a.453.453,0,0,0,.453.453.464.464,0,1,0,0-.917.453.453,0,0,0-.453.464Z" transform="translate(-384.517 -177.092)" fill="#263238"/>
          <ellipse id="Elipse_16495" data-name="Elipse 16495" cx="0.453" cy="0.453" rx="0.453" ry="0.453" transform="translate(45.173 195.3)" fill="#263238"/>
          <ellipse id="Elipse_16496" data-name="Elipse 16496" cx="0.453" cy="0.453" rx="0.453" ry="0.453" transform="translate(47.757 195.3)" fill="#263238"/>
          <path id="Trazado_227961" data-name="Trazado 227961" d="M420.225,372.844a.429.429,0,1,0,.464-.464.464.464,0,0,0-.464.464Z" transform="translate(-369.905 -177.091)" fill="#263238"/>
          <path id="Trazado_227962" data-name="Trazado 227962" d="M366.812,271.29a5.774,5.774,0,0,0-1.789.32,10.039,10.039,0,0,0-4.352,2.838,18.941,18.941,0,0,0-3.855,7.289,72.274,72.274,0,0,0-2.419,10.68,134.745,134.745,0,0,0-.707,28.44,16.688,16.688,0,0,0,2.474,7.886,10.15,10.15,0,0,0,3.115,3.015,6.98,6.98,0,0,0,4.307,1.027,6.693,6.693,0,0,0,4.1-1.911,5,5,0,0,0,1.2-2,4.24,4.24,0,0,0,0-2.375,5.092,5.092,0,0,0-3.081-3.479,3.634,3.634,0,0,0-2.441,0,4.351,4.351,0,0,0-1.944,1.469,6.03,6.03,0,0,0-1.1,4.572,12.437,12.437,0,0,0,1.6,4.352,16.821,16.821,0,0,0,22.641,6.56,19.218,19.218,0,0,0,5.964-5.136A25.157,25.157,0,0,0,394.2,328.4a42.522,42.522,0,0,0,2.419-13.032c.21-4.053,0-7.731.387-10.912a18.652,18.652,0,0,1,1.027-4.307,12.292,12.292,0,0,1,1.844-3.225,9.288,9.288,0,0,1,4.109-3.037,13.247,13.247,0,0,1,1.756-.42,5.864,5.864,0,0,0-1.8.32,9.035,9.035,0,0,0-4.23,2.993,12.237,12.237,0,0,0-1.933,3.313,18.643,18.643,0,0,0-1.1,4.418c-.431,3.214-.232,6.892-.475,10.923a42.477,42.477,0,0,1-2.463,12.889,24.8,24.8,0,0,1-3.567,6.34,18.776,18.776,0,0,1-5.82,4.981,16.291,16.291,0,0,1-21.89-6.384,11.862,11.862,0,0,1-1.524-4.142,5.434,5.434,0,0,1,.961-4.153,3.932,3.932,0,0,1,1.69-1.281,3.048,3.048,0,0,1,2.054,0,4.528,4.528,0,0,1,2.717,3.081,3.965,3.965,0,0,1-1.1,3.832,6.108,6.108,0,0,1-3.744,1.745,6.406,6.406,0,0,1-3.965-.939,9.553,9.553,0,0,1-2.949-2.849,16.18,16.18,0,0,1-2.4-7.632,136.751,136.751,0,0,1,.574-28.329,74,74,0,0,1,2.33-10.636,18.886,18.886,0,0,1,3.711-7.234,10.073,10.073,0,0,1,4.219-2.883A13.435,13.435,0,0,1,366.812,271.29Z" transform="translate(-280.598 -187.65)" fill="#e0e0e0"/>
          <rect id="Rectángulo_303883" data-name="Rectángulo 303883" width="36.69" height="6.991" transform="translate(94.884 99.621)" fill="#e0e0e0"/>
          <rect id="Rectángulo_303884" data-name="Rectángulo 303884" width="47.856" height="103.012" transform="translate(359.732 171.896)" fill="#263238"/>
          <path id="Trazado_227963" data-name="Trazado 227963" d="M101.033,443.072v-6.66c0-4.307,0-10.548.077-18.4,0-15.705.077-37.816.133-63.539l-.276.265H141l-.287-.287c0,34.415,0,65.671.077,88.6l.21-.21-29.235.11-8,.055h7.864l29.367.11h.2v-.21c0-22.928,0-54.184.088-88.6v-.287H100.68v.276c0,25.8.1,47.977.133,63.727,0,7.819,0,14.049.077,18.334v6.119A1.588,1.588,0,0,0,101.033,443.072Z" transform="translate(262.807 -179.009)" fill="#455a64"/>
          <path id="Trazado_227964" data-name="Trazado 227964" d="M103.292,361.65v-1.1c0-.718,0-1.723.066-2.982l-.121.121c6.2.1,19.471.166,34.812.166h0l-.287-.287h0v4.053l.276-.287c-9.73,0-18.389.066-24.651.121l-7.411.077h-2.021a3.648,3.648,0,0,0-.729,0,4.5,4.5,0,0,0,.652,0h1.966l7.334.077c6.251.066,15.009.121,24.861.121h.287v-4.34h0l-.3-.287h0c-15.341,0-28.616.066-34.812.166h-.044v.121c0,1.292,0,2.308.066,3.059A9.42,9.42,0,0,0,103.292,361.65Z" transform="translate(263.023 -178.687)" fill="#455a64"/>
          <path id="Trazado_227965" data-name="Trazado 227965" d="M103.63,363.887c0,.155.718.287,1.6.287s1.612-.133,1.612-.287-.718-.287-1.612-.287S103.63,363.721,103.63,363.887Z" transform="translate(293.995 -178.008)" fill="#455a64"/>
          <path id="Trazado_227966" data-name="Trazado 227966" d="M104.05,368.7c0,.155,7.411.287,16.567.287s16.567-.133,16.567-.287-7.4-.287-16.567-.287S104.05,368.543,104.05,368.7Z" transform="translate(263.192 -177.506)" fill="#455a64"/>
          <path id="Trazado_227967" data-name="Trazado 227967" d="M104.72,374.507c0,.166,7.289.287,16.269.287s16.269-.121,16.269-.287-7.278-.287-16.269-.287S104.72,374.353,104.72,374.507Z" transform="translate(262.378 -176.899)" fill="#455a64"/>
          <ellipse id="Elipse_16497" data-name="Elipse 16497" cx="2.629" cy="2.629" rx="2.629" ry="2.629" transform="translate(381.169 209.989)" fill="#4dd0e1"/>
          <path id="Trazado_227968" data-name="Trazado 227968" d="M106,388.031a11.2,11.2,0,0,0,3.523.287,11.1,11.1,0,0,0,3.479-.287,10.736,10.736,0,0,0-3.512-.287A10.835,10.835,0,0,0,106,388.031Z" transform="translate(285.219 -175.491)" fill="#455a64"/>
          <path id="Trazado_227969" data-name="Trazado 227969" d="M125.7,387.37a9.84,9.84,0,0,0,3.313.287,9.805,9.805,0,0,0,3.313-.287,10.14,10.14,0,0,0-3.313-.287A10.184,10.184,0,0,0,125.7,387.37Z" transform="translate(244.137 -175.559)" fill="#455a64"/>
          <path id="Trazado_227970" data-name="Trazado 227970" d="M109.587,408.119a10.215,10.215,0,0,0,1.789-.331,15.672,15.672,0,0,0,4.738-2.209,20.3,20.3,0,0,0,5.71-5.953,34.415,34.415,0,0,0,4.164-10.117,41.305,41.305,0,0,0,1.27-13.176,27.059,27.059,0,0,0-5.025-14.292,22.553,22.553,0,0,0-6-5.7,20.876,20.876,0,0,0-3.855-1.911,21.421,21.421,0,0,0-4.263-1.016c-2.916-.409-5.9-.353-8.836-.53a22,22,0,0,1-8.736-2.01,9.808,9.808,0,0,1-5.434-6.627,9.31,9.31,0,0,1,9.3-11.376,6.627,6.627,0,0,1,3.689,1.37,4,4,0,0,1,1.546,3.313,5.357,5.357,0,0,1-4.926,4.76,8.118,8.118,0,0,1-6.317-2.838,15.2,15.2,0,0,1-3.115-6.019,51.912,51.912,0,0,1-1.27-6.2,102.137,102.137,0,0,1-.585-19.118c.11-2.209.2-3.987.265-5.2a10.838,10.838,0,0,1,.066-1.358,2.441,2.441,0,0,0,0-.464,2.53,2.53,0,0,0-.066.464c0,.331-.066.773-.121,1.347-.088,1.193-.232,2.938-.364,5.2a97.411,97.411,0,0,0,.409,19.184,51.42,51.42,0,0,0,1.248,6.262,15.672,15.672,0,0,0,3.126,6.2,8.57,8.57,0,0,0,6.7,3.015,5.854,5.854,0,0,0,5.423-5.235,4.561,4.561,0,0,0-1.734-3.777,7.046,7.046,0,0,0-3.987-1.491,9.94,9.94,0,0,0-7.831,16.191,11.375,11.375,0,0,0,3.7,2.883,22.543,22.543,0,0,0,8.968,2.076c3.015.177,5.986.121,8.836.508a21.459,21.459,0,0,1,4.153.983,19.7,19.7,0,0,1,3.744,1.855,22.221,22.221,0,0,1,5.876,5.522,26.684,26.684,0,0,1,4.97,14,41.318,41.318,0,0,1-1.237,13.066,34.779,34.779,0,0,1-4.042,10.039,20.255,20.255,0,0,1-5.522,5.942,16.325,16.325,0,0,1-4.65,2.275c-.563.166-1.005.265-1.3.331A2.009,2.009,0,0,0,109.587,408.119Z" transform="translate(296.366 -184.534)" fill="#263238"/>
          <rect id="Rectángulo_303885" data-name="Rectángulo 303885" width="113.317" height="77.819" transform="translate(308.927 12.094)" fill="#263238"/>
          <rect id="Rectángulo_303886" data-name="Rectángulo 303886" width="15.429" height="29.356" transform="translate(358.914 79.299)" fill="#263238"/>
        </g>
        <g id="freepik--Desk--inject-33" transform="translate(66.93 172.152)">
          <path id="Trazado_227971" data-name="Trazado 227971" d="M445.455,293.007v10.559h-58.47V460.9h-5.379V303.565l-244.183,1.2V460.9h-5.279V304.482l-37.684.3V292.09Z" transform="translate(-94.46 -289.108)" fill="#263238"/>
          <path id="Trazado_227972" data-name="Trazado 227972" d="M149.4,300.62l-23.05,16.6,2,1.922L151.6,301.636Z" transform="translate(164.176 -288.217)" fill="#263238"/>
          <path id="Trazado_227973" data-name="Trazado 227973" d="M375.788,302.02l26.75,19.052-2.01,1.922L373.59,303.036Z" transform="translate(-359.829 -288.071)" fill="#263238"/>
          <rect id="Rectángulo_303887" data-name="Rectángulo 303887" width="60.436" height="4.451" transform="translate(205.538)" fill="#263238"/>
        </g>
      </g>
    </g>
  </g>
</svg>
