<svg xmlns="http://www.w3.org/2000/svg" width="100" height="100" viewBox="0 0 100 100">
  <g id="Grupo_215600" data-name="Grupo 215600" transform="translate(3096 7535)">
    <circle id="Elipse_16466" data-name="Elipse 16466" cx="50" cy="50" r="50" transform="translate(-3096 -7535)" fill="#0f2771"/>
    <g id="Grupo_215225" data-name="Grupo 215225" transform="translate(-3532.456 -7558.932)">
      <path id="Trazado_227241" data-name="Trazado 227241" d="M475.775,41.932c.014.224.041.448.041.672q0,6.534,0,13.067v.72a30.411,30.411,0,0,1,4.055-.184V79.586H503.2a23.779,23.779,0,0,1-4.1,14.736c1.08,1.078,2.175,2.157,3.254,3.252a3.216,3.216,0,0,1,.8,3.662,3.126,3.126,0,0,1-4.892,1.165c-1.013-.863-1.917-1.856-2.859-2.8a4.365,4.365,0,0,1-.426-.6c-6.292,5.159-13.288,7.137-21.107,5.516A23.7,23.7,0,0,1,458.412,93.9a24.456,24.456,0,0,1,10.877-35.771c-.635-.606-1.245-1.174-1.836-1.762-.21-.209-.449-.164-.688-.164q-5.791,0-11.583,0h-.727V41.932Zm25.459,39.7H477.858V58.252l-2.054.2v6.279c-1.595-1.6-3.093-3.08-4.566-4.588a.717.717,0,0,0-.944-.2,22.269,22.269,0,0,0-11.462,10.758A22.358,22.358,0,0,0,488.2,100.962a21.419,21.419,0,0,0,5.216-3.372c-.552-.542-1.089-1.049-1.6-1.582a.7.7,0,0,0-.7-.222,6.064,6.064,0,0,1-6.926-4.44,6.092,6.092,0,1,1,11.877-.454c-.025.162-.087.306.058.453.489.492.968.994,1.478,1.52A22.227,22.227,0,0,0,501.234,81.628Zm-44.7-27.484h.692c3.449,0,6.9.006,10.346-.008a1.148,1.148,0,0,1,.91.375q2.42,2.458,4.875,4.882c.118.118.195.318.407.3V44h-17.23Zm33.532,39.7a4.066,4.066,0,1,0-4.053-4.088A4.077,4.077,0,0,0,490.061,93.845Zm3.447.986c1.822,1.824,3.575,3.585,5.333,5.34a7.372,7.372,0,0,0,.822.738.992.992,0,0,0,1.156.023,1.086,1.086,0,0,0,.562-.965,1.486,1.486,0,0,0-.567-1.053q-1.988-1.977-3.964-3.964c-.563-.563-1.122-1.129-1.725-1.735A7.74,7.74,0,0,1,493.508,94.831Z" fill="#fff"/>
      <path id="Trazado_227242" data-name="Trazado 227242" d="M527.552,71.524h-8.1V49.158c1.1,0,2.206-.011,3.306,0,1.6.021,3.2-.066,4.792.047Zm-6.079-20.315V69.485h4.007V51.208Z" transform="translate(-10.002 -1.11)" fill="#fff"/>
      <path id="Trazado_227243" data-name="Trazado 227243" d="M504.22,60.123v-6.1h8.106v18.2c-.2.148-.466-.008-.726.118a25.2,25.2,0,0,1,.756,7.035H486.979V53.988a25.977,25.977,0,0,1,4.194.2,24.221,24.221,0,0,1,9.631,3.472,1.767,1.767,0,0,0,1.306.385C502.291,58.682,502.56,58.949,504.22,60.123Zm5.235,12.128h-5.231V71.6q0-4.007,0-8.014c0-.2.08-.438-.073-.6a13.482,13.482,0,0,0-1.962-1.775V72.244h-8.072v-14.2h2.852A20.07,20.07,0,0,0,489,56.051V77.336h21.3A21.312,21.312,0,0,0,509.455,72.252Zm.855-2.012v-14.2h-4v14.2Zm-10.2,0V60.119h-3.978V70.24Z" transform="translate(-5.005 -1.854)" fill="#fff"/>
      <path id="Trazado_227244" data-name="Trazado 227244" d="M467.772,78.669a3.04,3.04,0,1,1-3.07-3.049A3.079,3.079,0,0,1,467.772,78.669Zm-3.014,1.008a1,1,0,0,0-.033-1.994,1,1,0,1,0,.033,1.994Z" transform="translate(-1.114 -5.184)" fill="#fff"/>
      <path id="Trazado_227245" data-name="Trazado 227245" d="M477.39,88.306a3.037,3.037,0,1,1-3.054-3.06A3.068,3.068,0,0,1,477.39,88.306Zm-3.014-1a1.031,1.031,0,0,0-1.039.99,1.011,1.011,0,1,0,1.039-.99Z" transform="translate(-2.594 -6.665)" fill="#fff"/>
      <path id="Trazado_227246" data-name="Trazado 227246" d="M472.6,78.5l1.218,1.273-8.581,8.584-1.174-1.313Z" transform="translate(-1.478 -5.628)" fill="#fff"/>
      <path id="Trazado_227247" data-name="Trazado 227247" d="M479.736,99.294v-1.97h1.991v1.97Z" transform="translate(-3.89 -8.524)" fill="#fff"/>
      <path id="Trazado_227248" data-name="Trazado 227248" d="M486.526,99.286h-1.987V97.338h1.987Z" transform="translate(-4.629 -8.526)" fill="#fff"/>
      <path id="Trazado_227249" data-name="Trazado 227249" d="M474.938,97.31h1.974v1.976h-1.974Z" transform="translate(-3.152 -8.522)" fill="#fff"/>
      <path id="Trazado_227250" data-name="Trazado 227250" d="M472.465,46.786v1.98H459.31v-1.98Z" transform="translate(-0.747 -0.747)" fill="#fff"/>
      <path id="Trazado_227251" data-name="Trazado 227251" d="M459.282,53.583V51.6h13.177v1.988Z" transform="translate(-0.743 -1.487)" fill="#fff"/>
      <path id="Trazado_227252" data-name="Trazado 227252" d="M495.416,97.317h1.931v1.967h-1.931Z" transform="translate(-6.303 -8.523)" fill="#fff"/>
    </g>
  </g>
</svg>
