<svg xmlns="http://www.w3.org/2000/svg" xmlns:xlink="http://www.w3.org/1999/xlink" width="400" height="313" viewBox="0 0 400 313">
  <defs>
    <clipPath id="clip-path">
      <rect id="Rectángulo_303465" data-name="Rectángulo 303465" width="400" height="313" transform="translate(-3355 -8110)" fill="none" stroke="#707070" stroke-width="1"/>
    </clipPath>
  </defs>
  <g id="Grupo_215604" data-name="Grupo 215604" transform="translate(3355 13410)">
    <g id="Enmascarar_grupo_70" data-name="Enmascarar grupo 70" transform="translate(0 -5300)" clip-path="url(#clip-path)">
      <g id="Grupo_213872" data-name="Grupo 213872">
        <g id="Grupo_210697" data-name="Grupo 210697" transform="translate(-3315 -8111)">
          <g id="Grupo_210649" data-name="Grupo 210649" transform="translate(3.535)">
            <path id="Trazado_222249" data-name="Trazado 222249" d="M526.418,378.948a104.857,104.857,0,1,0-195.273-54.626,104.85,104.85,0,1,0,95.448,179.661,80.929,80.929,0,1,0,99.826-125.035Z" transform="translate(-251.512 -220.984)" fill="#bddcf6" fill-rule="evenodd"/>
          </g>
          <g id="Grupo_210650" data-name="Grupo 210650" transform="translate(0 45.677)">
            <circle id="Elipse_16235" data-name="Elipse 16235" cx="20.305" cy="20.305" r="20.305" transform="translate(0 28.715) rotate(-45)" fill="#bddcf6"/>
          </g>
          <g id="Grupo_210651" data-name="Grupo 210651" transform="translate(46.04 32.532)">
            <ellipse id="Elipse_16236" data-name="Elipse 16236" cx="10.093" cy="10.034" rx="10.093" ry="10.034" transform="translate(0 19.871) rotate(-79.857)" fill="#bddcf6"/>
          </g>
        </g>
        <g id="_3d4b4eff" data-name="#3d4b4eff" transform="translate(-3455.92 -8167.203)">
          <path id="Trazado_222293" data-name="Trazado 222293" d="M343.8,86.538a94.963,94.963,0,0,1,99.378,1.453c-4.343,5.527-8.558,11.152-12.836,16.73a81.2,81.2,0,0,0-13.935-6.442A73.378,73.378,0,1,0,464.855,179.6a79.643,79.643,0,0,0,.423-21.078c5.459-6.878,10.665-13.956,16.076-20.868.137-.128.415-.376.556-.5a95.8,95.8,0,0,1,4.009,44.472A94.682,94.682,0,0,1,423.538,257a95.287,95.287,0,0,1-56.479,1.838A94.6,94.6,0,0,1,343.8,86.538Z" transform="translate(-91.55 0)" fill="#12263f"/>
          <path id="Trazado_222294" data-name="Trazado 222294" d="M518.642,91.744a16.25,16.25,0,0,1,13.392-4.86,16.373,16.373,0,0,1,11.413,26.181q-41.593,54.365-83.225,108.705a16.167,16.167,0,0,1-10.9,6.472,16.4,16.4,0,0,1-15.021-5.848q-18.562-22.884-37.137-45.759a16.465,16.465,0,0,1-2.86-15.465,16.452,16.452,0,0,1,28.481-5.031q11.932,14.689,23.852,29.392,34.4-44.927,68.811-89.837A48.761,48.761,0,0,1,518.642,91.744Z" transform="translate(-146.334 -7.779)" fill="#12263f"/>
          <path id="Trazado_222295" data-name="Trazado 222295" d="M167.115,586.85a16.842,16.842,0,0,1,1.586,3.163c2.33,5.2,4.787,10.344,7.049,15.576,6.9.9,13.845,1.59,20.757,2.479q-7.643,7.008-15.286,14c1.188,6.873,2.847,13.666,4.069,20.535-6.006-3.526-12.1-6.9-18.15-10.344q-8.983,5.181-18.034,10.237c1.27-6.784,2.736-13.529,4.091-20.3-5.027-4.766-10.2-9.37-15.277-14.085,6.685-.953,13.418-1.6,20.124-2.355.633,0,.744-.752,1.009-1.171Q163.054,595.709,167.115,586.85Z" transform="translate(0 -294.088)" fill="#12263f"/>
          <path id="Trazado_222296" data-name="Trazado 222296" d="M323.4,586.79a32.273,32.273,0,0,1,2.056,4.279q3.161,6.854,6.245,13.747c.175.453.487.949,1.047.949,6.677.586,13.324,1.492,19.979,2.283q-7.284,6.732-14.632,13.4c-.158.2-.474.594-.633.791,1.282,6.745,2.86,13.439,4.039,20.2q-9.06-5.033-18.047-10.22c-6.057,3.42-12.076,6.912-18.175,10.255,1.056-4.86,1.936-9.759,3.031-14.615.389-1.953.859-3.894,1.09-5.873-5.151-4.569-10.152-9.314-15.264-13.926,6.822-.889,13.666-1.607,20.5-2.351C317.782,599.524,320.433,593.069,323.4,586.79Z" transform="translate(-89.444 -294.054)" fill="#12263f"/>
          <path id="Trazado_222297" data-name="Trazado 222297" d="M479.813,587.16c.077.017.235.047.316.06,2.89,6.16,5.565,12.422,8.515,18.551a16.047,16.047,0,0,0,3.3.432c5.771.693,11.567,1.244,17.325,2.069-5.078,4.621-10.118,9.284-15.2,13.9,1.013,6.882,2.834,13.636,3.945,20.5-6.01-3.432-12.063-6.792-18.056-10.255q-9.034,5.174-18.115,10.259c1.334-6.762,2.689-13.525,4.185-20.253-3.608-3.518-7.438-6.8-11.105-10.267a44.76,44.76,0,0,1-4.112-3.937c6.3-.765,12.606-1.517,18.923-2.154.671-.1,1.663.021,1.864-.833C474.4,599.244,477.051,593.174,479.813,587.16Z" transform="translate(-179.145 -294.266)" fill="#12263f"/>
          <path id="Trazado_222298" data-name="Trazado 222298" d="M635.865,586.8A26.6,26.6,0,0,1,638,591.126c2.278,4.852,4.373,9.789,6.711,14.61,6.882.62,13.764,1.4,20.607,2.338-5.168,4.569-10.156,9.348-15.32,13.922,1.235,6.856,2.774,13.661,4.1,20.5-6.031-3.394-12.063-6.784-18.043-10.263-6.087,3.33-12.08,6.839-18.141,10.22,1.154-6.826,2.723-13.58,4.069-20.372-5.142-4.676-10.233-9.4-15.405-14.046q10.137-1.3,20.312-2.321c.573-.081.658-.757.932-1.158C630.462,598.623,633.219,592.737,635.865,586.8Z" transform="translate(-268.331 -294.06)" fill="#12263f"/>
          <path id="Trazado_222299" data-name="Trazado 222299" d="M792.174,587.209c.539-.021.551.727.816,1.069,2.5,5.6,5.078,11.174,7.6,16.769A1.205,1.205,0,0,0,801.7,606c6.664.68,13.336,1.389,19.975,2.325q-7.771,6.938-15.367,14.072c1.111,5.343,2.236,10.682,3.279,16.042a19.515,19.515,0,0,1,.705,4.257c-5.959-3.454-11.99-6.779-17.953-10.233-6.044,3.407-12.054,6.882-18.12,10.25,1.21-6.839,2.89-13.593,4.052-20.441q-7.636-7.008-15.3-13.982c6.9-.979,13.867-1.556,20.774-2.484C786.488,599.576,789.365,593.407,792.174,587.209Z" transform="translate(-357.872 -294.294)" fill="#12263f"/>
        </g>
      </g>
    </g>
  </g>
</svg>
