<svg xmlns="http://www.w3.org/2000/svg" xmlns:xlink="http://www.w3.org/1999/xlink" width="257" height="101.723" viewBox="0 0 257 101.723">
  <defs>
    <clipPath id="clip-path">
      <path id="Trazado_222922" data-name="Trazado 222922" d="M1000.8,459.753l-3.159,3.172a4.153,4.153,0,0,1-1.273.871,6.238,6.238,0,0,0-1.908,1.308l3.159-3.171a6.231,6.231,0,0,1,1.908-1.308A4.153,4.153,0,0,0,1000.8,459.753Z" transform="translate(-994.457 -459.753)" fill="none"/>
    </clipPath>
    <clipPath id="clip-path-2">
      <path id="Trazado_222924" data-name="Trazado 222924" d="M1002.224,592.376l-3.159,3.172a4.17,4.17,0,0,1-2.965,1.229l3.159-3.171A4.17,4.17,0,0,0,1002.224,592.376Z" transform="translate(-996.099 -592.376)" fill="none"/>
    </clipPath>
    <clipPath id="clip-path-3">
      <path id="Trazado_222927" data-name="Trazado 222927" d="M280.729,369.3l3.159-3.172a4.17,4.17,0,0,0-1.218,2.986l-3.159,3.171A4.169,4.169,0,0,1,280.729,369.3Z" transform="translate(-279.512 -366.124)" fill="none"/>
    </clipPath>
    <clipPath id="clip-path-4">
      <path id="Trazado_222930" data-name="Trazado 222930" d="M287.8,465.048l-3.159,3.171a6.219,6.219,0,0,0,1.816-4.454A6.348,6.348,0,0,0,282.641,458a4.251,4.251,0,0,1-2.549-3.859l3.159-3.171a4.252,4.252,0,0,0,2.549,3.859,6.348,6.348,0,0,1,3.812,5.762A6.22,6.22,0,0,1,287.8,465.048Z" transform="translate(-280.092 -450.973)" fill="none"/>
    </clipPath>
    <clipPath id="clip-path-5">
      <path id="Trazado_222932" data-name="Trazado 222932" d="M281.741,501.918l3.159-3.172a4.184,4.184,0,0,0-1.217,2.988l-3.159,3.172A4.183,4.183,0,0,1,281.741,501.918Z" transform="translate(-280.524 -498.746)" fill="none"/>
    </clipPath>
    <clipPath id="clip-path-6">
      <path id="Trazado_222937" data-name="Trazado 222937" d="M288.511,587.814l-3.159,3.171a4.254,4.254,0,0,1-4.248-4.215l3.159-3.171A4.254,4.254,0,0,0,288.511,587.814Z" transform="translate(-281.104 -583.599)" fill="none"/>
    </clipPath>
    <clipPath id="clip-path-7">
      <path id="Trazado_222940" data-name="Trazado 222940" d="M975.04,633.473l-3.159,3.172a1.668,1.668,0,0,1-1.186.491l3.159-3.171A1.667,1.667,0,0,0,975.04,633.473Z" transform="translate(-970.695 -633.473)" fill="none"/>
    </clipPath>
    <clipPath id="clip-path-8">
      <path id="Trazado_222942" data-name="Trazado 222942" d="M594.809,616.669l3.159-3.171a3.378,3.378,0,0,1,2.4-1,3.447,3.447,0,0,1,3.441,3.415l-3.159,3.172a3.447,3.447,0,0,0-3.441-3.415A3.378,3.378,0,0,0,594.809,616.669Z" transform="translate(-594.809 -612.502)" fill="none"/>
    </clipPath>
    <clipPath id="clip-path-9">
      <path id="Trazado_222946" data-name="Trazado 222946" d="M467.617,615.919l-3.159,3.172a3.447,3.447,0,0,0-3.374-3.415l3.159-3.172A3.447,3.447,0,0,1,467.617,615.919Z" transform="translate(-461.084 -612.504)" fill="none"/>
    </clipPath>
    <clipPath id="clip-path-10">
      <path id="Trazado_222948" data-name="Trazado 222948" d="M453.9,616.688l3.159-3.171A3.43,3.43,0,0,1,459.5,612.5l-3.159,3.172A3.43,3.43,0,0,0,453.9,616.688Z" transform="translate(-453.897 -612.504)" fill="none"/>
    </clipPath>
    <clipPath id="clip-path-11">
      <path id="Trazado_222955" data-name="Trazado 222955" d="M319.45,631.647l-3.159,3.171a1.7,1.7,0,0,1-1.7-1.687l3.159-3.172A1.7,1.7,0,0,0,319.45,631.647Z" transform="translate(-314.591 -629.96)" fill="none"/>
    </clipPath>
    <clipPath id="clip-path-12">
      <path id="Trazado_222957" data-name="Trazado 222957" d="M451.321,520.282l-3.159,3.172a4.169,4.169,0,0,1-2.966,1.229l3.159-3.171A4.169,4.169,0,0,0,451.321,520.282Z" transform="translate(-445.196 -520.282)" fill="none"/>
    </clipPath>
    <clipPath id="clip-path-13">
      <path id="Trazado_222959" data-name="Trazado 222959" d="M355.846,428.406l3.159-3.172a4.17,4.17,0,0,0-1.217,2.987l-3.159,3.171A4.169,4.169,0,0,1,355.846,428.406Z" transform="translate(-354.629 -425.234)" fill="none"/>
    </clipPath>
    <clipPath id="clip-path-14">
      <path id="Trazado_222963" data-name="Trazado 222963" d="M362.626,515.72l-3.159,3.171a4.254,4.254,0,0,1-4.247-4.215l3.159-3.171A4.254,4.254,0,0,0,362.626,515.72Z" transform="translate(-355.219 -511.505)" fill="none"/>
    </clipPath>
    <clipPath id="clip-path-15">
      <path id="Trazado_222966" data-name="Trazado 222966" d="M615.72,520.282l-3.159,3.172a4.17,4.17,0,0,1-2.965,1.229l3.159-3.171A4.171,4.171,0,0,0,615.72,520.282Z" transform="translate(-609.595 -520.282)" fill="none"/>
    </clipPath>
    <clipPath id="clip-path-16">
      <path id="Trazado_222968" data-name="Trazado 222968" d="M520.244,428.407l3.159-3.172a4.171,4.171,0,0,0-1.218,2.987l-3.159,3.171A4.17,4.17,0,0,1,520.244,428.407Z" transform="translate(-519.027 -425.235)" fill="none"/>
    </clipPath>
    <clipPath id="clip-path-17">
      <path id="Trazado_222972" data-name="Trazado 222972" d="M527.026,515.72l-3.159,3.171a4.255,4.255,0,0,1-4.248-4.215l3.159-3.171A4.255,4.255,0,0,0,527.026,515.72Z" transform="translate(-519.618 -511.505)" fill="none"/>
    </clipPath>
    <clipPath id="clip-path-18">
      <path id="Trazado_222975" data-name="Trazado 222975" d="M780.119,520.281l-3.159,3.172a4.171,4.171,0,0,1-2.966,1.229l3.159-3.171A4.17,4.17,0,0,0,780.119,520.281Z" transform="translate(-773.993 -520.281)" fill="none"/>
    </clipPath>
    <clipPath id="clip-path-19">
      <path id="Trazado_222977" data-name="Trazado 222977" d="M684.643,428.407l3.159-3.172a4.171,4.171,0,0,0-1.218,2.987l-3.159,3.171A4.17,4.17,0,0,1,684.643,428.407Z" transform="translate(-683.426 -425.235)" fill="none"/>
    </clipPath>
    <clipPath id="clip-path-20">
      <path id="Trazado_222981" data-name="Trazado 222981" d="M691.424,515.72l-3.159,3.171a4.254,4.254,0,0,1-4.248-4.215l3.159-3.171A4.254,4.254,0,0,0,691.424,515.72Z" transform="translate(-684.017 -511.505)" fill="none"/>
    </clipPath>
    <clipPath id="clip-path-21">
      <path id="Trazado_222984" data-name="Trazado 222984" d="M944.518,520.281l-3.159,3.172a4.172,4.172,0,0,1-2.966,1.229l3.159-3.171A4.17,4.17,0,0,0,944.518,520.281Z" transform="translate(-938.392 -520.281)" fill="none"/>
    </clipPath>
    <clipPath id="clip-path-22">
      <path id="Trazado_222986" data-name="Trazado 222986" d="M849.041,428.407l3.159-3.172a4.171,4.171,0,0,0-1.218,2.987l-3.159,3.171A4.17,4.17,0,0,1,849.041,428.407Z" transform="translate(-847.824 -425.235)" fill="none"/>
    </clipPath>
    <clipPath id="clip-path-23">
      <path id="Trazado_222990" data-name="Trazado 222990" d="M855.823,515.72l-3.159,3.171a4.255,4.255,0,0,1-4.248-4.215l3.159-3.171A4.255,4.255,0,0,0,855.823,515.72Z" transform="translate(-848.415 -511.505)" fill="none"/>
    </clipPath>
  </defs>
  <g id="Grupo_215620" data-name="Grupo 215620" transform="translate(-676.001 -6560.491)">
    <g id="Grupo_211042" data-name="Grupo 211042" transform="translate(413.681 6197.979)">
      <g id="Grupo_210938" data-name="Grupo 210938" transform="translate(262.32 371.199)">
        <g id="Grupo_210936" data-name="Grupo 210936">
          <g id="Grupo_210935" data-name="Grupo 210935">
            <path id="Trazado_222919" data-name="Trazado 222919" d="M262.32,437.57v25.981a4.232,4.232,0,0,0,4.232,4.232H506.484a4.232,4.232,0,0,0,4.232-4.232V437.57a4.227,4.227,0,0,0-2.529-3.873,6.314,6.314,0,0,1,0-11.568,4.227,4.227,0,0,0,2.529-3.874V392.274a4.232,4.232,0,0,0-4.232-4.232H266.552a4.232,4.232,0,0,0-4.232,4.232v25.981a4.227,4.227,0,0,0,2.529,3.874,6.314,6.314,0,0,1,0,11.568A4.227,4.227,0,0,0,262.32,437.57Z" transform="translate(-262.32 -388.043)" fill="#abb3cd"/>
            <path id="Trazado_222920" data-name="Trazado 222920" d="M295.581,622.411v11.6a1.693,1.693,0,0,0,1.693,1.693h44.89v-4.16a3.481,3.481,0,0,1,3.495-3.495,3.428,3.428,0,0,1,3.361,3.427v4.227h41.3v-4.227a3.428,3.428,0,0,1,3.428-3.428h0a3.427,3.427,0,0,1,3.428,3.428v4.227H519.651a1.693,1.693,0,0,0,1.693-1.693v-11.6Z" transform="translate(-284.264 -542.671)" fill="#abb3cd"/>
          </g>
        </g>
        <g id="Grupo_210937" data-name="Grupo 210937" transform="translate(25.422 20.222)">
          <rect id="Rectángulo_295965" data-name="Rectángulo 295965" width="34.929" height="34.929" rx="17.465" fill="#a075ba"/>
          <rect id="Rectángulo_295966" data-name="Rectángulo 295966" width="34.929" height="34.929" rx="17.465" transform="translate(56.148)" fill="#a075ba"/>
          <rect id="Rectángulo_295967" data-name="Rectángulo 295967" width="34.929" height="34.929" rx="17.465" transform="translate(112.296)" fill="#a075ba"/>
          <rect id="Rectángulo_295968" data-name="Rectángulo 295968" width="34.929" height="34.929" rx="17.465" transform="translate(168.444)" fill="#a075ba"/>
        </g>
      </g>
      <g id="Grupo_211041" data-name="Grupo 211041" transform="translate(268.169 362.512)">
        <g id="Grupo_210987" data-name="Grupo 210987" transform="translate(0)">
          <g id="Grupo_210963" data-name="Grupo 210963" style="isolation: isolate">
            <g id="Grupo_210941" data-name="Grupo 210941" transform="translate(243.25 33.085)" style="isolation: isolate">
              <g id="Grupo_210940" data-name="Grupo 210940" clip-path="url(#clip-path)">
                <g id="Grupo_210939" data-name="Grupo 210939" style="isolation: isolate">
                  <path id="Trazado_222921" data-name="Trazado 222921" d="M1000.8,459.753l-3.159,3.172a4.153,4.153,0,0,1-1.273.871,6.238,6.238,0,0,0-1.908,1.308l3.159-3.171a6.231,6.231,0,0,1,1.908-1.308,4.153,4.153,0,0,0,1.273-.872" transform="translate(-994.457 -459.753)" fill="#3a895c"/>
                </g>
              </g>
            </g>
            <g id="Grupo_210944" data-name="Grupo 210944" transform="translate(243.809 78.208)" style="isolation: isolate">
              <g id="Grupo_210943" data-name="Grupo 210943" clip-path="url(#clip-path-2)">
                <g id="Grupo_210942" data-name="Grupo 210942" style="isolation: isolate">
                  <path id="Trazado_222923" data-name="Trazado 222923" d="M1002.224,592.376l-3.159,3.172a4.17,4.17,0,0,1-2.965,1.229l3.159-3.171a4.17,4.17,0,0,0,2.966-1.229" transform="translate(-996.099 -592.376)" fill="#3a895c"/>
                </g>
              </g>
            </g>
            <g id="Grupo_210945" data-name="Grupo 210945" transform="translate(236.75 79.437)">
              <path id="Trazado_222925" data-name="Trazado 222925" d="M985.571,595.988l-3.159,3.172h-7.058l3.159-3.172Z" transform="translate(-975.354 -595.988)" fill="#39875a"/>
            </g>
            <g id="Grupo_210948" data-name="Grupo 210948" transform="translate(0 1.229)" style="isolation: isolate">
              <g id="Grupo_210947" data-name="Grupo 210947" clip-path="url(#clip-path-3)">
                <g id="Grupo_210946" data-name="Grupo 210946" style="isolation: isolate">
                  <path id="Trazado_222926" data-name="Trazado 222926" d="M282.671,369.11l-3.159,3.171a4.169,4.169,0,0,1,1.218-2.986l3.159-3.172a4.17,4.17,0,0,0-1.218,2.986" transform="translate(-279.512 -366.124)" fill="#3a895c"/>
                </g>
              </g>
            </g>
            <g id="Grupo_210949" data-name="Grupo 210949" transform="translate(0 4.215)">
              <path id="Trazado_222928" data-name="Trazado 222928" d="M282.869,400.783l-3.159,3.172-.2-25.882,3.159-3.172Z" transform="translate(-279.512 -374.901)" fill="#39875a"/>
            </g>
            <g id="Grupo_210952" data-name="Grupo 210952" transform="translate(0.197 30.098)" style="isolation: isolate">
              <g id="Grupo_210951" data-name="Grupo 210951" clip-path="url(#clip-path-4)">
                <g id="Grupo_210950" data-name="Grupo 210950" style="isolation: isolate">
                  <path id="Trazado_222929" data-name="Trazado 222929" d="M287.8,465.048l-3.159,3.171a6.219,6.219,0,0,0,1.816-4.454A6.348,6.348,0,0,0,282.641,458a4.251,4.251,0,0,1-2.549-3.859l3.159-3.171a4.252,4.252,0,0,0,2.549,3.859,6.348,6.348,0,0,1,3.812,5.762,6.22,6.22,0,0,1-1.816,4.454" transform="translate(-280.092 -450.973)" fill="#3a895c"/>
                </g>
              </g>
            </g>
            <g id="Grupo_210955" data-name="Grupo 210955" transform="translate(0.344 46.352)" style="isolation: isolate">
              <g id="Grupo_210954" data-name="Grupo 210954" clip-path="url(#clip-path-5)">
                <g id="Grupo_210953" data-name="Grupo 210953" style="isolation: isolate">
                  <path id="Trazado_222931" data-name="Trazado 222931" d="M283.683,501.734l-3.159,3.172a4.183,4.183,0,0,1,1.217-2.988l3.159-3.172a4.184,4.184,0,0,0-1.217,2.988" transform="translate(-280.524 -498.746)" fill="#3a895c"/>
                </g>
              </g>
            </g>
            <g id="Grupo_210956" data-name="Grupo 210956" transform="translate(11.847 79.437)">
              <path id="Trazado_222933" data-name="Trazado 222933" d="M542.395,595.988l-3.159,3.172h-224.9l3.159-3.172Z" transform="translate(-314.332 -595.988)" fill="#39875a"/>
            </g>
            <g id="Grupo_210957" data-name="Grupo 210957" transform="translate(4.79 79.437)">
              <path id="Trazado_222934" data-name="Trazado 222934" d="M303.806,595.988l-3.159,3.172h-7.058l3.159-3.172Z" transform="translate(-293.589 -595.988)" fill="#39875a"/>
            </g>
            <g id="Grupo_210958" data-name="Grupo 210958" transform="translate(0.344 49.339)">
              <path id="Trazado_222935" data-name="Trazado 222935" d="M283.88,533.409l-3.159,3.172-.2-25.882,3.159-3.172Z" transform="translate(-280.524 -507.527)" fill="#39875a"/>
            </g>
            <g id="Grupo_210961" data-name="Grupo 210961" transform="translate(0.542 75.222)" style="isolation: isolate">
              <g id="Grupo_210960" data-name="Grupo 210960" clip-path="url(#clip-path-6)">
                <g id="Grupo_210959" data-name="Grupo 210959" style="isolation: isolate">
                  <path id="Trazado_222936" data-name="Trazado 222936" d="M288.511,587.814l-3.159,3.171a4.254,4.254,0,0,1-4.248-4.215l3.159-3.171a4.254,4.254,0,0,0,4.248,4.215" transform="translate(-281.104 -583.599)" fill="#3a895c"/>
                </g>
              </g>
            </g>
            <g id="Grupo_210962" data-name="Grupo 210962" transform="translate(3.159)">
              <path id="Trazado_222938" data-name="Trazado 222938" d="M532,362.512a4.254,4.254,0,0,1,4.247,4.215l.2,25.882a4.172,4.172,0,0,1-2.49,3.859,6.23,6.23,0,0,0-3.724,5.762,6.347,6.347,0,0,0,3.811,5.762,4.25,4.25,0,0,1,2.549,3.859l.2,25.882a4.176,4.176,0,0,1-4.183,4.215H293.587a4.254,4.254,0,0,1-4.248-4.215l-.2-25.882a4.173,4.173,0,0,1,2.49-3.859,6.229,6.229,0,0,0,3.724-5.762,6.348,6.348,0,0,0-3.812-5.762A4.252,4.252,0,0,1,289,392.61l-.2-25.882a4.177,4.177,0,0,1,4.184-4.215Z" transform="translate(-288.798 -362.512)" fill="#4db679"/>
            </g>
          </g>
          <g id="Grupo_210986" data-name="Grupo 210986" transform="translate(11.847 79.437)" style="isolation: isolate">
            <g id="Grupo_210966" data-name="Grupo 210966" transform="translate(223.318 12.754)" style="isolation: isolate">
              <g id="Grupo_210965" data-name="Grupo 210965" clip-path="url(#clip-path-7)">
                <g id="Grupo_210964" data-name="Grupo 210964" style="isolation: isolate">
                  <path id="Trazado_222939" data-name="Trazado 222939" d="M975.04,633.473l-3.159,3.172a1.668,1.668,0,0,1-1.186.491l3.159-3.171a1.667,1.667,0,0,0,1.186-.492" transform="translate(-970.695 -633.473)" fill="#b3a86c"/>
                </g>
              </g>
            </g>
            <g id="Grupo_210969" data-name="Grupo 210969" transform="translate(95.428 5.619)" style="isolation: isolate">
              <g id="Grupo_210968" data-name="Grupo 210968" clip-path="url(#clip-path-8)">
                <g id="Grupo_210967" data-name="Grupo 210967" style="isolation: isolate">
                  <path id="Trazado_222941" data-name="Trazado 222941" d="M603.811,615.917l-3.159,3.172a3.447,3.447,0,0,0-3.441-3.415,3.378,3.378,0,0,0-2.4,1l3.159-3.171a3.378,3.378,0,0,1,2.4-1,3.447,3.447,0,0,1,3.441,3.415" transform="translate(-594.809 -612.502)" fill="#b3a86c"/>
                </g>
              </g>
            </g>
            <g id="Grupo_210970" data-name="Grupo 210970" transform="translate(101.271 9.034)">
              <path id="Trazado_222943" data-name="Trazado 222943" d="M615.173,626.751l-3.159,3.172-.032-4.211,3.159-3.172Z" transform="translate(-611.982 -622.54)" fill="#b0a56a"/>
            </g>
            <g id="Grupo_210971" data-name="Grupo 210971" transform="translate(101.303 13.245)">
              <path id="Trazado_222944" data-name="Trazado 222944" d="M737.25,634.918l-3.159,3.172H612.076l3.159-3.172Z" transform="translate(-612.076 -634.918)" fill="#b0a56a"/>
            </g>
            <g id="Grupo_210974" data-name="Grupo 210974" transform="translate(49.93 5.619)" style="isolation: isolate">
              <g id="Grupo_210973" data-name="Grupo 210973" clip-path="url(#clip-path-9)">
                <g id="Grupo_210972" data-name="Grupo 210972" style="isolation: isolate">
                  <path id="Trazado_222945" data-name="Trazado 222945" d="M467.617,615.919l-3.159,3.172a3.447,3.447,0,0,0-3.374-3.415l3.159-3.172a3.447,3.447,0,0,1,3.374,3.415" transform="translate(-461.084 -612.504)" fill="#b3a86c"/>
                </g>
              </g>
            </g>
            <g id="Grupo_210977" data-name="Grupo 210977" transform="translate(47.485 5.619)" style="isolation: isolate">
              <g id="Grupo_210976" data-name="Grupo 210976" clip-path="url(#clip-path-10)">
                <g id="Grupo_210975" data-name="Grupo 210975" style="isolation: isolate">
                  <path id="Trazado_222947" data-name="Trazado 222947" d="M459.5,612.5l-3.159,3.172a3.43,3.43,0,0,0-2.445,1.012l3.159-3.171A3.43,3.43,0,0,1,459.5,612.5" transform="translate(-453.897 -612.504)" fill="#b3a86c"/>
                </g>
              </g>
            </g>
            <g id="Grupo_210978" data-name="Grupo 210978" transform="translate(53.337 13.245)">
              <path id="Trazado_222949" data-name="Trazado 222949" d="M515.392,634.918l-3.159,3.172H471.1l3.159-3.172Z" transform="translate(-471.096 -634.918)" fill="#b0a56a"/>
            </g>
            <g id="Grupo_210979" data-name="Grupo 210979" transform="translate(53.304 9.034)">
              <path id="Trazado_222950" data-name="Trazado 222950" d="M474.193,626.751l-3.159,3.172L471,625.712l3.159-3.172Z" transform="translate(-471.001 -622.54)" fill="#b0a56a"/>
            </g>
            <g id="Grupo_210980" data-name="Grupo 210980" transform="translate(1.788 13.245)">
              <path id="Trazado_222951" data-name="Trazado 222951" d="M367.465,634.918l-3.159,3.172H319.587l3.159-3.172Z" transform="translate(-319.587 -634.918)" fill="#b0a56a"/>
            </g>
            <g id="Grupo_210981" data-name="Grupo 210981">
              <path id="Trazado_222952" data-name="Trazado 222952" d="M317.58,607.547l-3.159,3.172-.088-11.559,3.159-3.172Z" transform="translate(-314.332 -595.988)" fill="#b0a56a"/>
            </g>
            <g id="Grupo_210982" data-name="Grupo 210982" transform="translate(3.159)">
              <path id="Trazado_222953" data-name="Trazado 222953" d="M548.521,595.988l.088,11.559a1.671,1.671,0,0,1-1.673,1.687H424.921l-.032-4.211a3.447,3.447,0,0,0-3.441-3.415,3.384,3.384,0,0,0-3.388,3.415l.032,4.211H376.955l-.032-4.211a3.415,3.415,0,1,0-6.829.067l.032,4.144H325.406a1.7,1.7,0,0,1-1.7-1.687l-.088-11.559Z" transform="translate(-323.618 -595.988)" fill="#edde8f"/>
            </g>
            <g id="Grupo_210985" data-name="Grupo 210985" transform="translate(0.088 11.559)" style="isolation: isolate">
              <g id="Grupo_210984" data-name="Grupo 210984" clip-path="url(#clip-path-11)">
                <g id="Grupo_210983" data-name="Grupo 210983" style="isolation: isolate">
                  <path id="Trazado_222954" data-name="Trazado 222954" d="M319.45,631.647l-3.159,3.171a1.7,1.7,0,0,1-1.7-1.687l3.159-3.172a1.7,1.7,0,0,0,1.7,1.687" transform="translate(-314.591 -629.96)" fill="#b3a86c"/>
                </g>
              </g>
            </g>
          </g>
        </g>
        <g id="Grupo_211040" data-name="Grupo 211040" transform="translate(25.557 20.112)">
          <g id="Grupo_211000" data-name="Grupo 211000" style="isolation: isolate">
            <g id="Grupo_210990" data-name="Grupo 210990" transform="translate(30.814 33.567)" style="isolation: isolate">
              <g id="Grupo_210989" data-name="Grupo 210989" clip-path="url(#clip-path-12)">
                <g id="Grupo_210988" data-name="Grupo 210988" style="isolation: isolate">
                  <path id="Trazado_222956" data-name="Trazado 222956" d="M451.321,520.282l-3.159,3.172a4.169,4.169,0,0,1-2.966,1.229l3.159-3.171a4.169,4.169,0,0,0,2.966-1.229" transform="translate(-445.196 -520.282)" fill="#494947"/>
                </g>
              </g>
            </g>
            <g id="Grupo_210993" data-name="Grupo 210993" transform="translate(0 1.229)" style="isolation: isolate">
              <g id="Grupo_210992" data-name="Grupo 210992" clip-path="url(#clip-path-13)">
                <g id="Grupo_210991" data-name="Grupo 210991" style="isolation: isolate">
                  <path id="Trazado_222958" data-name="Trazado 222958" d="M357.788,428.221l-3.159,3.171a4.169,4.169,0,0,1,1.217-2.987l3.159-3.172a4.17,4.17,0,0,0-1.217,2.987" transform="translate(-354.629 -425.234)" fill="#494947"/>
                </g>
              </g>
            </g>
            <g id="Grupo_210994" data-name="Grupo 210994" transform="translate(4.448 34.796)">
              <path id="Trazado_222960" data-name="Trazado 222960" d="M397.228,523.894l-3.159,3.172H367.7l3.159-3.172Z" transform="translate(-367.703 -523.894)" fill="#484846"/>
            </g>
            <g id="Grupo_210995" data-name="Grupo 210995" transform="translate(0 4.216)">
              <path id="Trazado_222961" data-name="Trazado 222961" d="M357.989,460.379l-3.159,3.172-.2-26.365,3.159-3.171Z" transform="translate(-354.629 -434.014)" fill="#484846"/>
            </g>
            <g id="Grupo_210998" data-name="Grupo 210998" transform="translate(0.201 30.581)" style="isolation: isolate">
              <g id="Grupo_210997" data-name="Grupo 210997" clip-path="url(#clip-path-14)">
                <g id="Grupo_210996" data-name="Grupo 210996" style="isolation: isolate">
                  <path id="Trazado_222962" data-name="Trazado 222962" d="M362.626,515.72l-3.159,3.171a4.254,4.254,0,0,1-4.247-4.215l3.159-3.171a4.254,4.254,0,0,0,4.247,4.215" transform="translate(-355.219 -511.505)" fill="#494947"/>
                </g>
              </g>
            </g>
            <g id="Grupo_210999" data-name="Grupo 210999" transform="translate(3.159)">
              <path id="Trazado_222964" data-name="Trazado 222964" d="M394.464,421.623a4.254,4.254,0,0,1,4.247,4.216l.2,26.365a4.176,4.176,0,0,1-4.183,4.215H368.363a4.254,4.254,0,0,1-4.247-4.215l-.2-26.365a4.176,4.176,0,0,1,4.183-4.216Z" transform="translate(-363.915 -421.623)" fill="#61615e"/>
            </g>
          </g>
          <g id="Grupo_211013" data-name="Grupo 211013" transform="translate(55.934)" style="isolation: isolate">
            <g id="Grupo_211003" data-name="Grupo 211003" transform="translate(30.815 33.567)" style="isolation: isolate">
              <g id="Grupo_211002" data-name="Grupo 211002" clip-path="url(#clip-path-15)">
                <g id="Grupo_211001" data-name="Grupo 211001" style="isolation: isolate">
                  <path id="Trazado_222965" data-name="Trazado 222965" d="M615.72,520.282l-3.159,3.172a4.17,4.17,0,0,1-2.965,1.229l3.159-3.171a4.171,4.171,0,0,0,2.966-1.229" transform="translate(-609.595 -520.282)" fill="#494947"/>
                </g>
              </g>
            </g>
            <g id="Grupo_211006" data-name="Grupo 211006" transform="translate(0 1.229)" style="isolation: isolate">
              <g id="Grupo_211005" data-name="Grupo 211005" clip-path="url(#clip-path-16)">
                <g id="Grupo_211004" data-name="Grupo 211004" style="isolation: isolate">
                  <path id="Trazado_222967" data-name="Trazado 222967" d="M522.186,428.222l-3.159,3.171a4.17,4.17,0,0,1,1.218-2.987l3.159-3.172a4.171,4.171,0,0,0-1.218,2.987" transform="translate(-519.027 -425.235)" fill="#494947"/>
                </g>
              </g>
            </g>
            <g id="Grupo_211007" data-name="Grupo 211007" transform="translate(4.449 34.796)">
              <path id="Trazado_222969" data-name="Trazado 222969" d="M561.628,523.894l-3.159,3.172H532.1l3.159-3.172Z" transform="translate(-532.104 -523.894)" fill="#484846"/>
            </g>
            <g id="Grupo_211008" data-name="Grupo 211008" transform="translate(0 4.216)">
              <path id="Trazado_222970" data-name="Trazado 222970" d="M522.388,460.379l-3.159,3.172-.2-26.365,3.159-3.171Z" transform="translate(-519.027 -434.014)" fill="#484846"/>
            </g>
            <g id="Grupo_211011" data-name="Grupo 211011" transform="translate(0.201 30.581)" style="isolation: isolate">
              <g id="Grupo_211010" data-name="Grupo 211010" clip-path="url(#clip-path-17)">
                <g id="Grupo_211009" data-name="Grupo 211009" style="isolation: isolate">
                  <path id="Trazado_222971" data-name="Trazado 222971" d="M527.026,515.72l-3.159,3.171a4.255,4.255,0,0,1-4.248-4.215l3.159-3.171a4.255,4.255,0,0,0,4.248,4.215" transform="translate(-519.618 -511.505)" fill="#494947"/>
                </g>
              </g>
            </g>
            <g id="Grupo_211012" data-name="Grupo 211012" transform="translate(3.159)">
              <path id="Trazado_222973" data-name="Trazado 222973" d="M558.862,421.623a4.254,4.254,0,0,1,4.247,4.216l.2,26.365a4.176,4.176,0,0,1-4.183,4.215H532.762a4.255,4.255,0,0,1-4.248-4.215l-.2-26.365a4.177,4.177,0,0,1,4.184-4.216Z" transform="translate(-528.313 -421.623)" fill="#61615e"/>
            </g>
          </g>
          <g id="Grupo_211026" data-name="Grupo 211026" transform="translate(111.869)" style="isolation: isolate">
            <g id="Grupo_211016" data-name="Grupo 211016" transform="translate(30.814 33.567)" style="isolation: isolate">
              <g id="Grupo_211015" data-name="Grupo 211015" clip-path="url(#clip-path-18)">
                <g id="Grupo_211014" data-name="Grupo 211014" style="isolation: isolate">
                  <path id="Trazado_222974" data-name="Trazado 222974" d="M780.119,520.281l-3.159,3.172a4.171,4.171,0,0,1-2.966,1.229l3.159-3.171a4.17,4.17,0,0,0,2.966-1.229" transform="translate(-773.993 -520.281)" fill="#494947"/>
                </g>
              </g>
            </g>
            <g id="Grupo_211019" data-name="Grupo 211019" transform="translate(0 1.229)" style="isolation: isolate">
              <g id="Grupo_211018" data-name="Grupo 211018" clip-path="url(#clip-path-19)">
                <g id="Grupo_211017" data-name="Grupo 211017" style="isolation: isolate">
                  <path id="Trazado_222976" data-name="Trazado 222976" d="M686.585,428.222l-3.159,3.171a4.17,4.17,0,0,1,1.218-2.987l3.159-3.172a4.171,4.171,0,0,0-1.218,2.987" transform="translate(-683.426 -425.235)" fill="#494947"/>
                </g>
              </g>
            </g>
            <g id="Grupo_211020" data-name="Grupo 211020" transform="translate(4.449 34.796)">
              <path id="Trazado_222978" data-name="Trazado 222978" d="M726.027,523.894l-3.159,3.172H696.5l3.159-3.172Z" transform="translate(-696.502 -523.894)" fill="#484846"/>
            </g>
            <g id="Grupo_211021" data-name="Grupo 211021" transform="translate(0 4.216)">
              <path id="Trazado_222979" data-name="Trazado 222979" d="M686.786,460.379l-3.159,3.172-.2-26.365,3.159-3.171Z" transform="translate(-683.426 -434.014)" fill="#484846"/>
            </g>
            <g id="Grupo_211024" data-name="Grupo 211024" transform="translate(0.201 30.581)" style="isolation: isolate">
              <g id="Grupo_211023" data-name="Grupo 211023" clip-path="url(#clip-path-20)">
                <g id="Grupo_211022" data-name="Grupo 211022" style="isolation: isolate">
                  <path id="Trazado_222980" data-name="Trazado 222980" d="M691.424,515.72l-3.159,3.171a4.254,4.254,0,0,1-4.248-4.215l3.159-3.171a4.254,4.254,0,0,0,4.248,4.215" transform="translate(-684.017 -511.505)" fill="#494947"/>
                </g>
              </g>
            </g>
            <g id="Grupo_211025" data-name="Grupo 211025" transform="translate(3.159)">
              <path id="Trazado_222982" data-name="Trazado 222982" d="M723.26,421.623a4.255,4.255,0,0,1,4.248,4.216l.2,26.365a4.177,4.177,0,0,1-4.184,4.215H697.161a4.254,4.254,0,0,1-4.248-4.215l-.2-26.365a4.177,4.177,0,0,1,4.184-4.216Z" transform="translate(-692.712 -421.623)" fill="#61615e"/>
            </g>
          </g>
          <g id="Grupo_211039" data-name="Grupo 211039" transform="translate(167.803)" style="isolation: isolate">
            <g id="Grupo_211029" data-name="Grupo 211029" transform="translate(30.815 33.567)" style="isolation: isolate">
              <g id="Grupo_211028" data-name="Grupo 211028" clip-path="url(#clip-path-21)">
                <g id="Grupo_211027" data-name="Grupo 211027" style="isolation: isolate">
                  <path id="Trazado_222983" data-name="Trazado 222983" d="M944.518,520.281l-3.159,3.172a4.172,4.172,0,0,1-2.966,1.229l3.159-3.171a4.17,4.17,0,0,0,2.966-1.229" transform="translate(-938.392 -520.281)" fill="#494947"/>
                </g>
              </g>
            </g>
            <g id="Grupo_211032" data-name="Grupo 211032" transform="translate(0 1.229)" style="isolation: isolate">
              <g id="Grupo_211031" data-name="Grupo 211031" clip-path="url(#clip-path-22)">
                <g id="Grupo_211030" data-name="Grupo 211030" style="isolation: isolate">
                  <path id="Trazado_222985" data-name="Trazado 222985" d="M850.983,428.222l-3.159,3.171a4.17,4.17,0,0,1,1.218-2.987l3.159-3.172a4.171,4.171,0,0,0-1.218,2.987" transform="translate(-847.824 -425.235)" fill="#494947"/>
                </g>
              </g>
            </g>
            <g id="Grupo_211033" data-name="Grupo 211033" transform="translate(4.449 34.796)">
              <path id="Trazado_222987" data-name="Trazado 222987" d="M890.425,523.894l-3.159,3.172H860.9l3.159-3.172Z" transform="translate(-860.901 -523.894)" fill="#484846"/>
            </g>
            <g id="Grupo_211034" data-name="Grupo 211034" transform="translate(0 4.216)">
              <path id="Trazado_222988" data-name="Trazado 222988" d="M851.185,460.379l-3.159,3.172-.2-26.365,3.159-3.171Z" transform="translate(-847.824 -434.014)" fill="#484846"/>
            </g>
            <g id="Grupo_211037" data-name="Grupo 211037" transform="translate(0.201 30.581)" style="isolation: isolate">
              <g id="Grupo_211036" data-name="Grupo 211036" clip-path="url(#clip-path-23)">
                <g id="Grupo_211035" data-name="Grupo 211035" style="isolation: isolate">
                  <path id="Trazado_222989" data-name="Trazado 222989" d="M855.823,515.72l-3.159,3.171a4.255,4.255,0,0,1-4.248-4.215l3.159-3.171a4.255,4.255,0,0,0,4.248,4.215" transform="translate(-848.415 -511.505)" fill="#494947"/>
                </g>
              </g>
            </g>
            <g id="Grupo_211038" data-name="Grupo 211038" transform="translate(3.159)">
              <path id="Trazado_222991" data-name="Trazado 222991" d="M887.659,421.623a4.255,4.255,0,0,1,4.248,4.216l.2,26.365a4.176,4.176,0,0,1-4.183,4.215H861.559a4.255,4.255,0,0,1-4.248-4.215l-.2-26.365a4.177,4.177,0,0,1,4.184-4.216Z" transform="translate(-857.109 -421.623)" fill="#61615e"/>
            </g>
          </g>
        </g>
      </g>
    </g>
  </g>
</svg>
