<svg xmlns="http://www.w3.org/2000/svg" xmlns:xlink="http://www.w3.org/1999/xlink" width="302.026" height="181.238" viewBox="0 0 302.026 181.238">
  <defs>
    <clipPath id="clip-path">
      <path id="Trazado_223485" data-name="Trazado 223485" d="M497.258,560.041l0,.633c-.039,13.841-9.116,27.66-27.248,38.2-36.5,21.21-96.079,21.212-132.817,0-18.487-10.674-27.721-24.716-27.681-38.737l0-.634c-.04,14.021,9.194,28.063,27.681,38.737,36.739,21.211,96.319,21.21,132.817,0C488.143,587.7,497.219,573.882,497.258,560.041Z" transform="translate(-309.511 -559.502)" fill="none"/>
    </clipPath>
    <clipPath id="clip-path-2">
      <path id="Trazado_223497" data-name="Trazado 223497" d="M575.805,553.175l-.009,2.866c-.007,2.463-1.659,4.9-4.973,6.749-6.812,3.8-18.065,3.709-25.136-.215-3.629-2.014-5.45-4.645-5.443-7.243l.009-2.866c-.008,2.6,1.814,5.23,5.443,7.243,7.071,3.924,18.324,4.02,25.136.215C574.146,558.072,575.8,555.638,575.805,553.175Z" transform="translate(-540.245 -552.465)" fill="none"/>
    </clipPath>
  </defs>
  <g id="Grupo_215622" data-name="Grupo 215622" transform="translate(4057 5192.368)">
    <g id="Grupo_211166" data-name="Grupo 211166" transform="translate(-505.217 651.219)">
      <g id="Grupo_211165" data-name="Grupo 211165" transform="translate(-3551.784 -5843.587)">
        <g id="Grupo_211149" data-name="Grupo 211149" transform="translate(0.018 0)">
          <path id="Trazado_223479" data-name="Trazado 223479" d="M261.617,293.308l-146,84.849-12.147-6.775,146.21-84.968Z" transform="translate(-103.465 -286.413)" fill="#333"/>
        </g>
        <g id="Grupo_211150" data-name="Grupo 211150" transform="translate(12.147 6.895)">
          <path id="Trazado_223480" data-name="Trazado 223480" d="M286.241,307.3l-.018,6.334-146,84.849.018-6.334Z" transform="translate(-140.218 -307.305)" fill="#262626"/>
        </g>
        <g id="Grupo_211151" data-name="Grupo 211151" transform="translate(0 84.968)">
          <path id="Trazado_223481" data-name="Trazado 223481" d="M115.576,550.653l-.018,6.334-12.147-6.775.018-6.334Z" transform="translate(-103.41 -543.878)" fill="#262626"/>
        </g>
        <g id="Grupo_211152" data-name="Grupo 211152" transform="translate(156.185 90.161)">
          <path id="Trazado_223482" data-name="Trazado 223482" d="M722.514,559.614l-.018,6.334L576.673,650.69l.018-6.334Z" transform="translate(-576.673 -559.614)" fill="#262626" opacity="0.702"/>
        </g>
        <g id="Grupo_211153" data-name="Grupo 211153" transform="translate(12.147 91.743)">
          <path id="Trazado_223483" data-name="Trazado 223483" d="M284.274,647.569l-.018,6.334-144.038-83.16.018-6.334Z" transform="translate(-140.218 -564.408)" fill="#1a1a1a" opacity="0.702"/>
        </g>
        <g id="Grupo_211158" data-name="Grupo 211158" transform="translate(68.017 36.02)">
          <g id="Grupo_211155" data-name="Grupo 211155" transform="translate(0 54.104)" style="isolation: isolate">
            <g id="Grupo_211154" data-name="Grupo 211154" clip-path="url(#clip-path)">
              <path id="Trazado_223484" data-name="Trazado 223484" d="M472.975,596.436q-1.439.916-2.964,1.8c-32.368,18.81-82.889,20.94-119.533,6.387a101.467,101.467,0,0,1-13.285-6.387c-18.487-10.673-27.721-24.716-27.681-38.737l0,.634c-.04,14.02,9.194,28.063,27.681,38.737a101.528,101.528,0,0,0,13.284,6.386c36.645,14.553,87.166,12.423,119.533-6.387q1.524-.886,2.964-1.8c16.157-10.284,24.247-23.33,24.284-36.4l0-.633C497.221,573.106,489.132,586.152,472.975,596.436Z" transform="translate(-309.511 -559.502)" fill="#6d6d6d"/>
            </g>
          </g>
          <path id="Trazado_223486" data-name="Trazado 223486" d="M471.445,413.755c-36.218-20.911-94.749-20.91-130.731,0s-35.792,54.814.426,75.725,94.747,20.911,130.731,0S507.663,434.665,471.445,413.755ZM432.418,466.7c-14.336,8.331-37.651,8.331-52.08,0s-14.505-21.836-.17-30.167,37.65-8.33,52.079,0S446.752,458.37,432.418,466.7Z" transform="translate(-312.419 -397.242)" fill="#f2f2f2"/>
          <g id="Grupo_211156" data-name="Grupo 211156" transform="translate(74.749 43.298)">
            <path id="Trazado_223487" data-name="Trazado 223487" d="M629.292,533.943q-.336-.194-.685-.376c-.077-.04-.155-.078-.233-.117-.157-.08-.314-.159-.475-.236-.094-.045-.19-.087-.285-.131-.148-.067-.3-.135-.446-.2-.1-.045-.207-.087-.311-.13l-.28-.113,0,.629c.094.037.185.078.279.116s.21.086.313.131c.149.064.3.131.443.2.1.044.193.087.288.132.159.076.315.154.472.234.079.04.158.078.236.119.232.121.46.246.684.376,3.77,2.177,5.653,5.034,5.645,7.888l0-.633C634.945,538.978,633.063,536.12,629.292,533.943Z" transform="translate(-596.688 -530.7)" fill="#a3a3a3"/>
            <path id="Trazado_223488" data-name="Trazado 223488" d="M575.789,528.633c-.1-.04-.208-.079-.312-.118q-.226-.084-.455-.164l-.32-.11c-.156-.052-.313-.1-.471-.152l-.317-.1c-.168-.05-.337-.1-.507-.145-.1-.027-.2-.055-.293-.081-.2-.053-.4-.1-.6-.151-.071-.017-.141-.036-.212-.052q-.409-.1-.825-.18l-.189-.036c-.215-.042-.43-.083-.646-.121l-.3-.05c-.18-.029-.36-.058-.542-.085l-.339-.046c-.172-.023-.344-.045-.516-.065l-.355-.039q-.255-.027-.511-.05l-.357-.03c-.174-.014-.348-.025-.522-.036l-.347-.021c-.186-.01-.372-.017-.558-.023-.1,0-.207-.009-.311-.011q-.345-.008-.689-.009l-.181,0q-.435,0-.869.012c-.08,0-.158.006-.238.009-.21.007-.42.015-.63.026-.108.006-.216.014-.324.02-.181.012-.362.023-.542.038l-.349.031q-.258.023-.515.05l-.356.04c-.169.02-.338.042-.506.064l-.351.049c-.172.025-.342.052-.512.08-.112.018-.223.036-.334.055-.184.032-.366.067-.547.1-.1.018-.192.036-.288.055q-.357.073-.709.155l-.115.025q-.407.1-.808.2c-.083.022-.163.046-.245.069-.185.051-.369.1-.551.158-.1.03-.2.063-.3.094-.162.051-.324.1-.484.156-.1.035-.209.072-.312.109q-.23.081-.456.165l-.311.12q-.223.088-.443.179c-.1.042-.2.084-.3.127-.149.065-.3.131-.442.2-.093.043-.187.085-.279.129-.159.076-.315.155-.47.235-.076.039-.153.076-.227.115-.228.12-.454.244-.674.372s-.41.245-.606.371l0,.631q.294-.187.606-.369.331-.192.674-.372c.075-.04.152-.077.228-.115.155-.08.311-.158.47-.235.092-.044.185-.086.279-.129.146-.068.293-.134.442-.2.1-.043.2-.085.3-.127.147-.061.294-.121.443-.179l.311-.119c.151-.057.3-.112.456-.166.1-.037.208-.073.313-.109q.24-.081.483-.156c.1-.031.2-.064.3-.094.182-.055.367-.107.551-.158.082-.023.163-.047.245-.069q.4-.107.809-.2l.115-.025q.352-.081.709-.155c.1-.019.192-.037.287-.055.182-.035.364-.07.548-.1.11-.019.222-.037.333-.055.17-.028.341-.055.512-.08l.352-.049q.252-.034.506-.064l.356-.04c.171-.018.343-.035.514-.05l.349-.03c.18-.015.361-.026.542-.038.108-.007.216-.015.324-.02.21-.011.42-.019.63-.026l.238-.009q.434-.011.868-.012l.189,0c.227,0,.453,0,.68.009.1,0,.209.008.314.011.185.007.37.014.555.023.116.006.231.013.347.021.174.011.348.022.522.036l.357.03q.256.023.511.05l.355.039c.172.02.344.042.515.065l.342.047c.18.026.36.055.54.084.1.017.2.032.306.05.215.037.428.078.641.12l.2.037q.415.084.824.18l.213.053c.2.049.4.1.6.151.1.026.2.055.3.082.169.047.337.094.5.144.107.032.213.065.318.1q.237.074.47.151l.32.11q.228.08.453.164l.314.119.162.061,0-.629Z" transform="translate(-546.062 -526.757)" fill="#a6a6a6"/>
            <path id="Trazado_223489" data-name="Trazado 223489" d="M540.931,537.731c-.083.053-.161.108-.242.162-.126.083-.252.167-.372.252-.083.059-.162.119-.243.179-.111.082-.223.164-.33.247-.08.063-.157.127-.235.19-.1.082-.2.164-.3.248-.076.066-.149.133-.222.2-.091.083-.182.166-.269.25-.071.069-.139.138-.207.207s-.165.168-.243.253-.128.142-.19.213-.148.171-.219.257-.116.144-.173.217-.132.174-.2.261-.1.147-.155.221-.117.177-.173.266-.093.148-.136.223c-.053.09-.1.18-.15.271-.04.075-.08.149-.117.224-.046.092-.087.185-.129.277-.033.074-.067.148-.1.223-.039.094-.073.189-.107.284-.027.074-.055.147-.079.221-.032.1-.058.2-.085.293-.02.072-.042.144-.059.215-.025.1-.044.2-.064.307-.013.068-.029.136-.04.2-.019.114-.031.228-.043.343-.006.057-.016.113-.02.17-.014.171-.022.342-.023.513l0,.634q0-.257.022-.514c0-.057.014-.113.02-.17.013-.114.025-.228.043-.342.011-.068.027-.136.04-.2.02-.1.039-.2.064-.307.018-.072.04-.144.059-.216.027-.1.054-.2.086-.293.024-.074.052-.147.079-.221.034-.095.069-.189.107-.284.03-.075.065-.149.1-.223.042-.092.083-.185.129-.277.037-.075.077-.15.117-.224.049-.09.1-.18.151-.27s.09-.149.136-.223.113-.177.173-.265.1-.147.155-.221.128-.174.2-.261.114-.145.173-.217.144-.172.219-.257.125-.142.19-.212.161-.169.244-.253.136-.138.207-.207c.087-.084.178-.167.268-.25.074-.067.147-.134.223-.2.1-.083.2-.165.3-.247.078-.064.155-.128.235-.191.107-.083.218-.165.329-.247.081-.06.16-.12.244-.179.12-.085.247-.169.373-.252.08-.054.158-.108.241-.161l.033-.022,0-.631Z" transform="translate(-536.01 -534.096)" fill="#a3a3a3"/>
          </g>
          <g id="Grupo_211157" data-name="Grupo 211157" transform="translate(57.047 33.044)">
            <path id="Trazado_223490" data-name="Trazado 223490" d="M570.585,532.347c-.206-.119-.417-.234-.63-.346-.07-.036-.142-.071-.212-.107-.146-.074-.292-.148-.441-.219-.086-.041-.174-.079-.26-.119-.136-.062-.273-.125-.412-.184-.094-.041-.19-.08-.285-.119s-.169-.072-.255-.106c-.051-.02-.1-.039-.154-.059-.095-.037-.191-.073-.287-.109q-.209-.078-.421-.152l-.293-.1c-.145-.048-.291-.095-.438-.141-.1-.03-.192-.06-.289-.089-.156-.047-.313-.091-.471-.134-.089-.025-.178-.051-.268-.075-.19-.051-.382-.1-.574-.144l-.176-.044q-.378-.088-.762-.166l-.189-.036c-.194-.038-.388-.075-.583-.109l-.284-.046c-.166-.027-.331-.053-.5-.077l-.315-.043c-.158-.021-.317-.041-.476-.06l-.328-.036q-.236-.025-.472-.046l-.329-.028c-.161-.013-.322-.023-.484-.033-.106-.007-.213-.014-.319-.019-.173-.009-.346-.016-.519-.022l-.283-.01c-.215-.006-.431-.008-.646-.009l-.158,0q-.4,0-.8.011l-.226.009c-.192.007-.384.014-.576.024l-.3.019c-.167.01-.334.021-.5.035l-.322.028q-.239.022-.476.047l-.328.037q-.235.028-.468.059l-.324.045q-.238.035-.475.074c-.1.017-.2.033-.306.051-.17.03-.339.062-.508.1-.087.017-.176.033-.263.05q-.338.069-.671.147l-.089.019q-.377.089-.747.188c-.077.02-.152.043-.228.064-.17.047-.339.094-.507.145-.093.028-.185.058-.278.087-.15.047-.3.094-.445.144-.1.033-.193.067-.289.1-.141.05-.281.1-.419.152l-.288.11q-.205.081-.408.165c-.093.039-.186.077-.278.117-.137.059-.272.121-.407.183-.086.04-.173.079-.258.12-.147.07-.29.143-.434.216-.069.036-.14.07-.209.106-.211.111-.418.225-.621.343s-.377.224-.557.339l-.031.021c-.076.049-.148.1-.222.148-.116.077-.232.154-.343.232-.078.055-.151.111-.226.166-.1.075-.2.15-.3.226-.075.058-.146.118-.218.177-.092.075-.184.151-.272.227-.07.061-.137.123-.205.185-.084.077-.167.153-.247.23s-.128.127-.191.191-.152.155-.224.233-.118.131-.176.2-.136.157-.2.237-.108.134-.16.2-.122.16-.18.24-.1.136-.143.2-.108.163-.159.246-.085.137-.125.205-.094.166-.139.25-.074.138-.108.207c-.042.084-.08.17-.119.255-.031.069-.062.138-.09.207-.036.087-.067.174-.1.261-.025.068-.051.136-.073.2-.029.09-.054.18-.079.27-.018.067-.039.133-.055.2-.023.095-.041.19-.059.285-.012.062-.026.124-.037.187-.017.106-.028.212-.04.318-.006.052-.014.1-.018.155q-.019.237-.021.475l0,.633c0-.158.008-.317.021-.475,0-.052.013-.1.018-.155.011-.106.022-.213.04-.318.01-.062.024-.125.037-.187.018-.095.036-.19.059-.285.016-.067.036-.133.055-.2.025-.09.05-.18.079-.27.022-.068.048-.136.073-.2.032-.087.063-.175.1-.261.028-.069.06-.138.09-.207.038-.085.077-.171.119-.255.034-.069.071-.138.108-.207s.09-.167.139-.25.083-.137.125-.206.1-.164.159-.245.094-.136.143-.2.118-.161.18-.24.1-.134.16-.2.133-.158.2-.237.115-.131.176-.2.147-.155.223-.233.126-.128.191-.192.163-.154.247-.23c.068-.062.135-.123.205-.185.088-.076.18-.152.273-.227.072-.059.144-.119.218-.177.1-.076.2-.151.3-.226.075-.055.149-.111.226-.166.111-.078.227-.155.343-.232.075-.049.146-.1.223-.148q.285-.183.588-.36t.622-.343c.068-.036.139-.07.209-.106.144-.073.288-.146.434-.216.085-.041.172-.08.258-.119.135-.062.27-.123.407-.183l.278-.117q.2-.084.408-.165l.287-.11c.14-.052.28-.1.422-.153.1-.033.191-.067.287-.1.148-.05.3-.1.448-.145.091-.029.182-.058.275-.086.168-.051.338-.1.509-.146.076-.021.15-.044.227-.064q.37-.1.747-.188l.089-.02q.333-.077.671-.146c.087-.018.176-.034.264-.051.168-.033.337-.065.507-.095l.3-.05q.238-.039.477-.074l.322-.045q.234-.032.468-.059l.328-.037c.159-.017.318-.032.477-.047l.32-.028c.168-.013.336-.024.5-.035l.3-.019c.193-.01.386-.017.579-.024l.221-.008q.4-.01.8-.011l.159,0c.215,0,.429,0,.644.009.095,0,.19.007.285.01.173.006.346.012.519.021.106.005.211.013.317.019q.243.015.485.033l.327.028q.238.021.474.046l.327.036c.159.018.317.039.475.06l.316.043c.166.024.332.051.5.078.095.015.19.03.284.046.194.034.387.07.579.108l.194.037q.383.078.761.166l.184.045c.189.046.378.092.565.142.092.024.182.051.273.076.156.043.312.087.466.133.1.029.2.06.292.09.146.046.291.092.435.14l.295.1q.211.074.42.151c.1.036.192.072.288.109.138.053.274.109.409.164.1.04.192.079.286.119.138.059.274.121.41.183.088.04.176.079.263.121.148.07.293.143.437.217.072.036.144.071.215.108q.32.168.63.346a11.041,11.041,0,0,1,4.475,4.347,6.79,6.79,0,0,1,.547,1.454q.06.245.1.491a6.024,6.024,0,0,1,.079.987l0-.633C575.794,536.992,574.059,534.353,570.585,532.347Z" transform="translate(-521.318 -518.245)" fill="none"/>
            <path id="Trazado_223491" data-name="Trazado 223491" d="M545.153,501.933q-1.346-.777-2.791-1.457c-14.5-6.841-35.846-6.354-49.289,1.457-7.117,4.136-10.682,9.547-10.7,14.968l0,.633c.02-5.42,3.585-10.831,10.7-14.967,13.442-7.812,34.785-8.3,49.289-1.457q1.443.68,2.79,1.457c7.266,4.195,10.892,9.7,10.872,15.2l0-.633C556.045,511.635,552.418,506.128,545.153,501.933Z" transform="translate(-482.37 -495.686)" fill="none"/>
          </g>
          <path id="Trazado_223492" data-name="Trazado 223492" d="M568.616,530c-7.492-4.326-19.6-4.325-27.045,0s-7.406,11.34.086,15.666,19.6,4.326,27.047,0S576.108,534.325,568.616,530Zm-.959,15.062c-6.859,3.986-18.056,3.986-24.96,0s-6.94-10.472-.081-14.458,18.057-3.986,24.96,0S574.516,541.075,567.657,545.061Z" transform="translate(-461.263 -483.458)" fill="#4d4d4d"/>
          <path id="Trazado_223493" data-name="Trazado 223493" d="M487.86,585.787c.148-.16.3-.32.443-.481.2-.224.4-.449.593-.674.133-.153.269-.3.4-.458.208-.245.409-.493.611-.74.11-.135.223-.269.331-.4.258-.323.508-.648.754-.974.045-.06.093-.119.138-.179q.433-.579.842-1.162c.083-.118.16-.238.242-.356.186-.271.372-.543.551-.816.1-.152.193-.306.29-.458.153-.24.306-.481.453-.722.1-.166.2-.333.295-.5.134-.229.27-.458.4-.687.1-.175.191-.35.286-.525.121-.223.243-.447.358-.671.092-.179.181-.358.27-.537.111-.222.22-.444.326-.666.086-.182.168-.363.251-.546.1-.221.2-.442.3-.664q.118-.276.231-.553c.09-.22.179-.441.265-.662.072-.186.142-.372.211-.558q.122-.332.237-.664.1-.28.188-.56c.073-.222.142-.444.21-.667.056-.187.113-.373.166-.56.064-.224.124-.449.183-.674.049-.186.1-.371.143-.557.055-.227.106-.454.156-.681.041-.184.083-.369.12-.553.047-.231.088-.462.13-.693.033-.181.067-.362.1-.543.039-.237.071-.475.1-.712.024-.176.051-.351.073-.526.03-.248.054-.5.079-.746.016-.164.035-.329.049-.493.023-.276.038-.551.053-.827.008-.138.02-.276.025-.415q.026-.62.029-1.241l0-.633q0,.621-.029,1.241c-.006.138-.017.276-.025.414-.016.276-.03.551-.053.827-.014.165-.033.329-.049.493-.024.249-.048.5-.079.746-.021.176-.048.351-.073.526-.033.238-.066.475-.1.712-.029.181-.064.362-.1.543-.042.231-.083.462-.13.693-.037.185-.079.369-.12.553-.05.227-.1.454-.156.681-.045.186-.094.372-.143.557-.059.225-.119.449-.183.674-.053.187-.109.374-.166.56q-.1.334-.209.667-.092.281-.188.561-.115.332-.237.663-.1.279-.211.558-.128.331-.265.662c-.076.184-.152.369-.231.553-.1.222-.195.443-.295.664-.083.182-.165.364-.251.545-.105.223-.216.444-.326.666-.089.179-.177.358-.27.537-.116.224-.238.448-.359.672-.095.175-.188.35-.285.524-.129.23-.265.459-.4.688-.1.167-.193.334-.294.5-.146.242-.3.482-.453.722-.1.153-.191.306-.29.458-.178.272-.363.542-.548.813-.082.119-.16.24-.244.359q-.408.583-.842,1.162c-.045.06-.093.12-.139.18-.246.325-.495.649-.752.972-.109.136-.224.272-.335.408-.2.246-.4.491-.608.736-.13.154-.267.307-.4.46-.2.225-.39.449-.591.673-.145.161-.3.321-.444.481-.2.214-.394.427-.6.64-.157.165-.319.328-.48.492-.2.206-.4.412-.611.617-.167.166-.339.33-.51.5-.209.2-.418.4-.631.6-.177.166-.356.33-.536.495q-.324.3-.654.591-.278.246-.561.491-.337.292-.68.582-.29.244-.584.486-.35.288-.707.573-.3.241-.6.48-.365.285-.738.568c-.207.157-.414.315-.625.471-.253.188-.511.375-.769.561-.213.154-.425.308-.642.461-.265.188-.536.374-.806.559-.217.15-.433.3-.653.447-.28.188-.566.375-.851.561-.219.143-.436.287-.658.429-.336.215-.677.427-1.02.639-.167.1-.332.209-.5.312q-.775.472-1.573.937t-1.613.914c-.178.1-.359.195-.538.292-.367.2-.735.4-1.106.6-.214.113-.431.224-.647.335q-.512.265-1.029.527c-.23.115-.461.229-.692.344q-.505.249-1.015.493-.355.17-.712.338-.515.242-1.035.478c-.235.107-.47.214-.707.32q-.544.242-1.092.479c-.223.1-.446.194-.67.29-.411.175-.826.345-1.241.516-.181.074-.361.15-.543.224q-.9.362-1.8.711l-.251.094q-.785.3-1.577.588c-.213.078-.428.152-.642.229-.4.144-.806.287-1.212.427-.245.084-.492.167-.738.25q-.567.192-1.139.38-.388.126-.778.25-.561.18-1.127.354-.394.121-.788.241-.573.173-1.149.34c-.258.075-.517.151-.776.224q-.6.172-1.211.337c-.242.067-.484.134-.727.2q-.7.188-1.412.368c-.179.046-.357.094-.537.139q-.979.246-1.965.479l-.419.1q-.779.181-1.563.355c-.238.052-.477.1-.716.153-.428.092-.855.183-1.285.271-.265.054-.532.107-.8.159q-.608.121-1.218.237-.416.079-.834.155-.6.11-1.205.216-.418.073-.837.145-.614.1-1.23.2c-.272.044-.544.088-.816.13q-.652.1-1.308.195c-.247.036-.494.073-.742.108q-.792.111-1.588.213l-.469.062q-1.031.13-2.065.247c-.179.02-.359.038-.538.057q-.766.084-1.534.161c-.258.025-.516.048-.774.073-.436.041-.873.082-1.31.119-.28.024-.561.046-.842.069q-.627.05-1.255.1l-.863.059q-.622.042-1.245.078l-.864.049q-.635.034-1.27.061c-.278.013-.555.026-.833.037-.455.018-.911.033-1.367.047-.244.008-.488.017-.732.023q-.873.023-1.747.036l-.354.007q-1.049.014-2.1.015c-.207,0-.413,0-.619,0-.494,0-.988,0-1.483-.01-.266,0-.531-.009-.8-.014-.436-.008-.872-.016-1.308-.027-.284-.007-.569-.016-.853-.025q-.629-.019-1.258-.043l-.868-.036q-.626-.028-1.252-.061-.429-.022-.858-.047c-.428-.024-.854-.052-1.281-.08-.273-.018-.545-.035-.817-.055-.465-.033-.93-.07-1.395-.107-.231-.018-.463-.035-.694-.055q-.987-.083-1.972-.179l-.111-.01q-1.039-.1-2.074-.218c-.222-.025-.444-.052-.666-.078q-.7-.081-1.4-.168c-.266-.033-.531-.069-.8-.1q-.635-.083-1.269-.17c-.281-.039-.56-.08-.84-.12q-.613-.089-1.225-.182-.423-.064-.845-.132-.611-.1-1.22-.2l-.83-.141q-.63-.109-1.256-.225c-.258-.047-.517-.093-.775-.142-.464-.087-.926-.178-1.388-.27-.21-.042-.42-.081-.629-.124q-1-.2-2-.421l-.2-.046q-.894-.2-1.783-.4c-.225-.052-.448-.108-.672-.161q-.653-.156-1.3-.317c-.257-.064-.513-.131-.77-.2q-.6-.153-1.194-.31-.4-.106-.8-.215-.579-.158-1.155-.32-.4-.113-.8-.228-.577-.167-1.15-.339c-.259-.078-.518-.155-.777-.234q-.6-.183-1.188-.372c-.238-.076-.477-.15-.714-.227-.451-.146-.9-.3-1.346-.447-.178-.06-.356-.118-.533-.178q-.935-.32-1.859-.653l-.346-.128q-.748-.273-1.491-.554c-.215-.081-.428-.166-.643-.249-.391-.151-.782-.3-1.171-.459-.251-.1-.5-.2-.749-.3q-.534-.218-1.065-.44c-.255-.108-.509-.216-.762-.326q-.516-.222-1.03-.449-.381-.169-.76-.34-.509-.23-1.013-.465-.374-.174-.746-.35c-.338-.16-.674-.324-1.009-.487-.241-.117-.481-.235-.72-.354-.347-.173-.69-.349-1.033-.526-.221-.114-.444-.226-.664-.342-.377-.2-.75-.4-1.122-.6-.182-.1-.366-.2-.547-.3q-.827-.455-1.64-.923c-18.226-10.523-27.328-24.335-27.289-38.126l0,.633c-.039,13.792,9.064,27.6,27.29,38.126q.812.469,1.639.923c.182.1.367.2.549.3.372.2.744.4,1.119.6.221.116.445.229.667.343.343.176.685.352,1.031.525.239.119.48.236.72.354.335.164.671.327,1.008.487q.373.177.748.351.5.234,1.01.464.38.172.762.341.512.227,1.029.448c.254.109.508.218.764.326q.527.222,1.06.439c.251.1.5.206.754.307.088.035.175.072.264.107.3.118.6.233.9.349.216.083.431.169.649.251q.735.28,1.478.549c.12.044.238.089.358.132q.923.333,1.856.652c.18.062.362.121.543.182.444.149.889.3,1.337.443.239.078.48.152.72.229.393.125.787.249,1.183.37.259.08.519.157.779.235q.573.171,1.148.338.4.116.8.229.574.162,1.15.319c.268.073.535.146.8.217q.594.158,1.191.31c.257.066.513.132.771.2.432.108.867.212,1.3.316.225.053.448.109.673.161q.9.209,1.8.407l.186.042q1,.218,2,.421c.213.043.426.083.639.126.458.091.917.181,1.378.268.26.049.521.1.781.143q.624.114,1.25.223c.277.048.555.095.833.141q.608.1,1.218.2.423.068.848.132.611.094,1.224.182c.28.04.559.081.839.12q.635.088,1.272.17c.265.034.529.07.794.1.47.059.941.114,1.411.169l.657.077q1.036.115,2.076.217l.11.01q.985.1,1.972.179c.231.019.463.036.694.055q.7.056,1.395.107c.273.019.545.037.818.054.427.028.853.055,1.281.08l.86.047q.625.033,1.25.061l.869.036q.629.024,1.259.044l.85.025c.437.011.874.02,1.311.027.265,0,.53.01.8.014.494.006.988.009,1.483.01.206,0,.413,0,.619,0q1.05,0,2.1-.015l.337-.007q.882-.014,1.763-.036c.244-.007.487-.016.73-.023.457-.014.914-.029,1.371-.047l.826-.037q.639-.029,1.277-.062l.86-.049q.624-.037,1.247-.078l.863-.059q.629-.046,1.256-.1c.279-.022.559-.045.838-.068q.66-.056,1.318-.119c.255-.024.511-.047.765-.072.513-.051,1.026-.106,1.538-.161.179-.019.357-.037.535-.057q1.035-.116,2.065-.247c.158-.02.315-.042.473-.063q.792-.1,1.582-.212c.249-.035.5-.072.745-.108.437-.064.873-.128,1.308-.2.271-.042.541-.085.811-.129q.618-.1,1.234-.2l.837-.144q.6-.106,1.2-.216l.834-.155q.609-.116,1.216-.237c.267-.053.535-.106.8-.16.428-.087.854-.179,1.28-.27.24-.051.48-.1.719-.154q.779-.172,1.553-.352l.43-.1q.986-.232,1.964-.478c.178-.045.356-.092.534-.138.474-.121.947-.243,1.417-.369.242-.065.481-.132.721-.2q.609-.167,1.215-.338c.26-.074.518-.149.777-.225q.576-.168,1.148-.34.395-.119.787-.24.566-.175,1.129-.355.389-.124.777-.25.572-.187,1.14-.38c.246-.083.492-.165.737-.249.407-.141.811-.284,1.215-.429.213-.076.426-.15.638-.227q.794-.289,1.58-.589l.249-.093q.908-.348,1.8-.711c.182-.073.361-.149.543-.224.415-.17.829-.341,1.241-.516.225-.1.448-.193.672-.29q.547-.237,1.089-.477c.237-.106.473-.214.709-.321q.519-.236,1.034-.477.357-.167.712-.337.51-.244,1.014-.493c.232-.114.464-.228.694-.344q.516-.26,1.027-.525c.216-.112.433-.223.648-.337.371-.2.739-.4,1.106-.6.179-.1.36-.194.538-.292q.814-.45,1.613-.914t1.573-.937c.169-.1.334-.208.5-.312.286-.177.576-.354.857-.533l.162-.106c.222-.142.439-.286.658-.429.285-.186.571-.373.85-.561.22-.148.436-.3.652-.446.271-.187.542-.373.808-.561.216-.153.428-.306.64-.459.259-.187.516-.374.77-.562.21-.156.417-.314.624-.471q.373-.283.739-.569.3-.238.6-.478.358-.286.709-.575.294-.242.582-.485.345-.291.681-.583.283-.245.561-.491.332-.3.655-.592c.179-.164.358-.328.534-.493.215-.2.424-.4.634-.6.17-.164.341-.328.508-.493.208-.206.41-.412.612-.619.16-.163.321-.326.478-.49C487.465,586.216,487.662,586,487.86,585.787Z" transform="translate(-312.417 -505.41)" fill="#ababab"/>
          <path id="Trazado_223494" data-name="Trazado 223494" d="M469.578,411.466c-36.737-21.21-96.321-21.211-132.819,0s-36.3,55.724.435,76.934,96.32,21.21,132.817,0S506.317,432.677,469.578,411.466Zm-.614,76.328c-35.984,20.912-94.513,20.911-130.731,0s-36.41-54.812-.426-75.724,94.513-20.911,130.731,0S504.947,466.884,468.964,487.794Z" transform="translate(-309.512 -395.558)" fill="#9b9b9b"/>
          <path id="Trazado_223495" data-name="Trazado 223495" d="M545.155,501.933c-14.429-8.33-37.746-8.329-52.08,0s-14.259,21.836.17,30.166,37.744,8.33,52.079,0S559.583,510.264,545.155,501.933ZM532.767,524.85c-7.444,4.326-19.554,4.326-27.047,0s-7.53-11.34-.086-15.666,19.553-4.327,27.045,0S540.211,520.524,532.767,524.85Z" transform="translate(-425.325 -462.642)" fill="#e8e8e8"/>
        </g>
        <g id="Grupo_211163" data-name="Grupo 211163" transform="translate(144.163 78.261)">
          <g id="Grupo_211162" data-name="Grupo 211162" style="isolation: isolate">
            <g id="Grupo_211160" data-name="Grupo 211160" transform="translate(0 9.541)" style="isolation: isolate">
              <g id="Grupo_211159" data-name="Grupo 211159" clip-path="url(#clip-path-2)">
                <path id="Trazado_223496" data-name="Trazado 223496" d="M575.319,555.453a7.457,7.457,0,0,1-1.245,1.935,10.662,10.662,0,0,1-1.707,1.552,14.415,14.415,0,0,1-1.536.984q-.426.238-.875.456a21.711,21.711,0,0,1-4.325,1.527,29.65,29.65,0,0,1-6.777.809,31.73,31.73,0,0,1-5.377-.419,27.96,27.96,0,0,1-3.486-.8,23.081,23.081,0,0,1-2.965-1.112q-.686-.315-1.331-.672a16.231,16.231,0,0,1-1.505-.942c-2.627-1.857-3.944-4.091-3.937-6.3l-.009,2.866c-.006,2.21,1.311,4.444,3.938,6.3a16.317,16.317,0,0,0,1.5.941q.644.357,1.331.672a23.116,23.116,0,0,0,2.965,1.111,27.95,27.95,0,0,0,3.486.8,31.725,31.725,0,0,0,5.378.419,29.649,29.649,0,0,0,6.776-.808,21.7,21.7,0,0,0,4.325-1.527q.449-.217.875-.455a14.461,14.461,0,0,0,1.535-.984,10.631,10.631,0,0,0,1.707-1.552,7.457,7.457,0,0,0,1.245-1.935,5.746,5.746,0,0,0,.486-2.278l.009-2.866A5.755,5.755,0,0,1,575.319,555.453Z" transform="translate(-540.245 -552.465)" fill="#262626"/>
              </g>
            </g>
            <g id="Grupo_211161" data-name="Grupo 211161" transform="translate(0.009)">
              <path id="Trazado_223498" data-name="Trazado 223498" d="M570.379,526.562c7.071,3.924,7.28,10.189.471,13.992s-18.065,3.709-25.136-.215-7.28-10.189-.468-13.994S563.31,522.639,570.379,526.562Z" transform="translate(-540.271 -523.555)" fill="#333"/>
            </g>
          </g>
        </g>
        <g id="Grupo_211164" data-name="Grupo 211164" transform="translate(12.165 6.999)" opacity="0.702">
          <path id="Trazado_223499" data-name="Trazado 223499" d="M430.133,390.783,284.311,475.525l-144.038-83.16L286.092,307.62Z" transform="translate(-140.273 -307.62)" fill="#e6e6e6" opacity="0.702"/>
        </g>
      </g>
    </g>
  </g>
</svg>
