<svg xmlns="http://www.w3.org/2000/svg" xmlns:xlink="http://www.w3.org/1999/xlink" width="505" height="430" viewBox="0 0 505 430">
  <defs>
    <clipPath id="clip-path">
      <rect id="Rectángulo_303615" data-name="Rectángulo 303615" width="505" height="430" transform="translate(810 4896)" fill="none" stroke="#707070" stroke-width="1"/>
    </clipPath>
  </defs>
  <g id="Grupo_215614" data-name="Grupo 215614" transform="translate(-810 -5030.501)">
    <g id="Enmascarar_grupo_75" data-name="Enmascarar grupo 75" transform="translate(0 134.501)" clip-path="url(#clip-path)">
      <g id="Grupo_210885" data-name="Grupo 210885" transform="translate(916 1693.03)">
        <g id="Grupo_210884" data-name="Grupo 210884" transform="translate(-106 3260)">
          <g id="Grupo_210764" data-name="Grupo 210764" transform="translate(99.085 83.664)">
            <path id="Trazado_222674" data-name="Trazado 222674" d="M727.461,552.4H664.127a.785.785,0,1,1,0-1.569h62.55V531.26a.785.785,0,1,1,1.569,0v20.359A.785.785,0,0,1,727.461,552.4Z" transform="translate(-663.342 -530.475)" fill="#c5ced6"/>
          </g>
          <g id="Grupo_210766" data-name="Grupo 210766" transform="translate(37.765 166.293)">
            <path id="Trazado_222675" data-name="Trazado 222675" d="M536.678,882.1,490.6,846.451l-53.91,22.077-7.836,57.726L474.932,961.9l53.91-22.077Z" transform="translate(-428.858 -846.451)" fill="#d8e8ef"/>
            <g id="Grupo_210765" data-name="Grupo 210765" transform="translate(35.909 15.606)">
              <path id="Trazado_222676" data-name="Trazado 222676" d="M625.254,980.91l-41.282-3.281-17.8-37.392,23.483-34.111,41.282,3.281,17.8,37.392ZM585,976.136l39.476,3.138,22.455-32.618L629.91,910.9l-39.476-3.138L567.979,940.38Z" transform="translate(-566.173 -906.126)" fill="#fff"/>
            </g>
          </g>
          <g id="Grupo_210767" data-name="Grupo 210767" transform="translate(176.086 11.167)">
            <path id="Trazado_222677" data-name="Trazado 222677" d="M1009.628,353.5l-46.22-20.2-5.615-50.128,40.6-29.926,46.22,20.2.051.45,5.564,49.678-.364.269Zm-44.761-21.276,44.559,19.476,39.147-28.852-5.413-48.328L998.6,255.048,959.454,283.9Z" transform="translate(-957.794 -253.248)" fill="#d8e8ef"/>
          </g>
          <path id="Trazado_222678" data-name="Trazado 222678" d="M1990.8,944.053s-10.731,4.662-14.6,26.8a91.91,91.91,0,0,0-1.2,10.82,35.981,35.981,0,0,1-1.084,6.942,48.571,48.571,0,0,1-3.693,9.739,79.636,79.636,0,0,1-11.267,16.384,111.056,111.056,0,0,1-13.7,13.19c-8.09,6.476-37.288-12.781-32.444-22.264,0,0,3.485-13.2,19.1-22.508a45.623,45.623,0,0,0,12.047-10.365l.005-.005c6.077-7.335,9.318-15.19,15.513-21.082C1968.776,942.846,1990.8,944.053,1990.8,944.053Z" transform="translate(-1486.58 -752.195)" fill="#49bf3c"/>
          <path id="Trazado_222679" data-name="Trazado 222679" d="M2030.514,1079.637a79.626,79.626,0,0,1-11.267,16.384c-10.531-4.339-13.867-1.269-18.65-11.57-4.866-10.483-7.863-11.138-6.24-17.847a15.906,15.906,0,0,1,2.758-5.535,46.239,46.239,0,0,0,7.13-7l.005-.006h16.655a9.5,9.5,0,0,1,9.5,9.406C2030.447,1068.248,2030.494,1074.178,2030.514,1079.637Z" transform="translate(-1546.874 -833.481)" fill="#2c9923"/>
          <g id="Grupo_210768" data-name="Grupo 210768" transform="translate(318.498 68.116)">
            <path id="Trazado_222680" data-name="Trazado 222680" d="M1564.648,472.592H1503.16a.785.785,0,1,1,0-1.569h61.488a.785.785,0,0,1,0,1.569Z" transform="translate(-1502.375 -471.023)" fill="#c5ced6"/>
          </g>
          <g id="Grupo_210769" data-name="Grupo 210769" transform="translate(231.335 143.172)">
            <path id="Trazado_222681" data-name="Trazado 222681" d="M1218.094,816.374h-48.246a.785.785,0,1,1,0-1.569h47.461V758.818a.784.784,0,1,1,1.569,0V815.59A.784.784,0,0,1,1218.094,816.374Z" transform="translate(-1169.064 -758.034)" fill="#c5ced6"/>
          </g>
          <g id="Grupo_210770" data-name="Grupo 210770" transform="translate(424.914 191.009)">
            <path id="Trazado_222682" data-name="Trazado 222682" d="M1938.621,1027.778a21.665,21.665,0,0,1-6.837-1.348,47.9,47.9,0,0,1-13.841-7.918c-6.99-5.7-10-11.438-8.059-15.375.348-1.241,4.191-13.811,19.432-22.9,9.523-5.679,14.09-12.782,18.506-19.651,2.733-4.251,5.314-8.265,8.919-11.7,9.445-8.986,31-7.913,31.911-7.863a.785.785,0,0,1,.27,1.5c-.031.014-3.437,1.566-7.008,6.847-3.315,4.9-7.45,14.1-8.321,30.092-1.235,22.679-25.238,42.985-30.037,46.826A7.741,7.741,0,0,1,1938.621,1027.778Zm47.4-85.233c-6.007,0-21.083.715-28.2,7.482-3.468,3.3-6,7.238-8.681,11.407-4.515,7.021-9.183,14.282-19.023,20.15-15.163,9.043-18.707,21.907-18.741,22.035a.767.767,0,0,1-.06.157c-1.626,3.183,1.292,8.364,7.616,13.52,7.979,6.506,19.382,11.183,23.641,7.775,4.707-3.767,28.252-23.674,29.451-45.686.9-16.451,5.214-25.949,8.678-31.02A25.546,25.546,0,0,1,1986.019,942.545Zm-75.4,60.874h0Z" transform="translate(-1909.308 -940.964)" fill="#38464f"/>
          </g>
          <g id="Grupo_210771" data-name="Grupo 210771" transform="translate(78.163 192.492)">
            <path id="Trazado_222683" data-name="Trazado 222683" d="M716.94,1064.351h-130.6l32.589-111.924a4.1,4.1,0,0,1,4.007-2.794H744.966c2.717,0,4.7,2.327,4.007,4.7Z" transform="translate(-585.555 -948.849)" fill="#26313a"/>
            <path id="Trazado_222684" data-name="Trazado 222684" d="M714.724,1062.92h-130.6a.785.785,0,0,1-.753-1L615.96,949.992a4.885,4.885,0,0,1,4.76-3.359H742.75a5.065,5.065,0,0,1,4.057,1.959,4.229,4.229,0,0,1,.7,3.749l-32.033,110.014A.785.785,0,0,1,714.724,1062.92Zm-129.555-1.569H714.136L746,951.9a2.64,2.64,0,0,0-.451-2.368,3.491,3.491,0,0,0-2.8-1.332H620.72a3.313,3.313,0,0,0-3.254,2.229Z" transform="translate(-583.339 -946.633)" fill="#38464f"/>
          </g>
          <g id="Grupo_210772" data-name="Grupo 210772" transform="translate(384.442 190.781)">
            <path id="Trazado_222685" data-name="Trazado 222685" d="M1797.73,992.515h-42.4a.784.784,0,0,1-.724-1.086l21.2-50.856a.784.784,0,0,1,.724-.482h42.4a.784.784,0,0,1,.724,1.086l-21.2,50.856A.784.784,0,0,1,1797.73,992.515Zm-41.226-1.569h40.7l20.548-49.287h-40.7Z" transform="translate(-1754.543 -940.09)" fill="#97b2c4"/>
          </g>
          <g id="Grupo_210773" data-name="Grupo 210773" transform="translate(330.865 131.131)">
            <path id="Trazado_222686" data-name="Trazado 222686" d="M1638.131,817.492h-85.464l42.732-102.5h85.464Z" transform="translate(-1551.882 -714.206)" fill="#d8e8ef"/>
            <path id="Trazado_222687" data-name="Trazado 222687" d="M1635.915,816.061h-85.464a.785.785,0,0,1-.724-1.086l42.732-102.5a.784.784,0,0,1,.724-.483h85.464a.784.784,0,0,1,.724,1.087l-42.732,102.5A.784.784,0,0,1,1635.915,816.061Zm-84.287-1.569h83.764l42.078-100.933h-83.765Z" transform="translate(-1549.667 -711.99)" fill="#38464f"/>
          </g>
          <g id="Grupo_210774" data-name="Grupo 210774" transform="translate(327.798 190.781)">
            <path id="Trazado_222688" data-name="Trazado 222688" d="M1581.125,992.515h-42.4a.784.784,0,0,1-.724-1.086l21.2-50.856a.784.784,0,0,1,.724-.482h42.4a.784.784,0,0,1,.724,1.086l-21.2,50.856A.784.784,0,0,1,1581.125,992.515Zm-41.226-1.569h40.7l20.547-49.287h-40.7Z" transform="translate(-1537.937 -940.09)" fill="#38464f"/>
          </g>
          <g id="Grupo_210775" data-name="Grupo 210775" transform="translate(330.865 143.603)">
            <path id="Trazado_222689" data-name="Trazado 222689" d="M1675.552,762.681l-37.42,90.03h-85.464l6.42-15.4,5.535-13.283,0,0,25.575-61.347Z" transform="translate(-1551.883 -761.897)" fill="#fff"/>
            <path id="Trazado_222690" data-name="Trazado 222690" d="M1635.917,851.28h-85.464a.785.785,0,0,1-.724-1.086l11.954-28.681.02-.044,25.558-61.305a.784.784,0,0,1,.724-.483h85.352a.785.785,0,0,1,.725,1.086l-37.42,90.03A.785.785,0,0,1,1635.917,851.28Zm-84.287-1.569h83.763l36.768-88.461h-83.653l-25.374,60.864c-.006.015-.013.03-.02.044Z" transform="translate(-1549.668 -759.681)" fill="#38464f"/>
          </g>
          <g id="Grupo_210776" data-name="Grupo 210776" transform="translate(330.865 143.603)">
            <path id="Trazado_222691" data-name="Trazado 222691" d="M1635.917,851.28h-85.464a.785.785,0,0,1-.724-1.086l11.954-28.681.02-.044,25.558-61.305a.784.784,0,0,1,.724-.483h85.352a.785.785,0,0,1,.725,1.086l-37.42,90.03A.785.785,0,0,1,1635.917,851.28Zm-84.287-1.569h83.763l36.768-88.461h-83.653l-25.374,60.864c-.006.015-.013.03-.02.044Z" transform="translate(-1549.668 -759.681)" fill="#38464f"/>
          </g>
          <rect id="Rectángulo_295924" data-name="Rectángulo 295924" width="199.387" height="88.741" rx="28.995" transform="translate(278.175 226.414)" fill="#c5ced6"/>
          <g id="Grupo_210777" data-name="Grupo 210777" transform="translate(277.39 225.63)">
            <path id="Trazado_222692" data-name="Trazado 222692" d="M1537.77,1163.661H1353.547a8.376,8.376,0,0,1-8.367-8.367v-73.577a8.376,8.376,0,0,1,8.367-8.367H1537.77a8.376,8.376,0,0,1,8.367,8.367v73.577A8.376,8.376,0,0,1,1537.77,1163.661Zm-184.223-88.741a6.805,6.805,0,0,0-6.8,6.8v73.577a6.805,6.805,0,0,0,6.8,6.8H1537.77a6.805,6.805,0,0,0,6.8-6.8v-73.577a6.805,6.805,0,0,0-6.8-6.8Z" transform="translate(-1345.18 -1073.351)" fill="#38464f"/>
          </g>
          <g id="Grupo_210778" data-name="Grupo 210778" transform="translate(295.271 225.63)">
            <path id="Trazado_222693" data-name="Trazado 222693" d="M1595.846,1090.927H1414.339a.784.784,0,0,1-.785-.785v-8.424a8.376,8.376,0,0,1,8.367-8.367h166.343a8.376,8.376,0,0,1,8.367,8.367v8.424A.784.784,0,0,1,1595.846,1090.927Zm-180.723-1.569h179.938v-7.64a6.805,6.805,0,0,0-6.8-6.8H1421.921a6.806,6.806,0,0,0-6.8,6.8Z" transform="translate(-1413.554 -1073.351)" fill="#38464f"/>
          </g>
          <rect id="Rectángulo_295925" data-name="Rectángulo 295925" width="199.387" height="88.741" rx="28.995" transform="translate(243.914 226.414)" fill="#d8e8ef"/>
          <g id="Grupo_210780" data-name="Grupo 210780" transform="translate(277.39 253.712)">
            <path id="Trazado_222694" data-name="Trazado 222694" d="M1479.045,1197.359V1244.4H1348.18v-47.039a13.619,13.619,0,0,1,13.62-13.62h103.625a13.611,13.611,0,0,1,13.62,13.62Z" transform="translate(-1347.395 -1182.954)" fill="#d8e8ef"/>
            <g id="Grupo_210779" data-name="Grupo 210779">
              <path id="Trazado_222695" data-name="Trazado 222695" d="M1476.83,1242.966H1345.965a.784.784,0,0,1-.785-.785v-47.039a14.421,14.421,0,0,1,14.4-14.4H1463.21a14.4,14.4,0,0,1,14.4,14.4v47.039A.784.784,0,0,1,1476.83,1242.966Zm-130.081-1.569h129.3v-46.254a12.827,12.827,0,0,0-12.836-12.835H1359.585a12.85,12.85,0,0,0-12.836,12.835Z" transform="translate(-1345.18 -1180.738)" fill="#38464f"/>
            </g>
          </g>
          <g id="Grupo_210781" data-name="Grupo 210781" transform="translate(243.129 225.63)">
            <path id="Trazado_222696" data-name="Trazado 222696" d="M1406.756,1163.661H1222.534a8.376,8.376,0,0,1-8.367-8.367v-73.577a8.376,8.376,0,0,1,8.367-8.367h184.223a8.376,8.376,0,0,1,8.367,8.367v73.577A8.376,8.376,0,0,1,1406.756,1163.661Zm-184.223-88.741a6.806,6.806,0,0,0-6.8,6.8v73.577a6.805,6.805,0,0,0,6.8,6.8h184.223a6.805,6.805,0,0,0,6.8-6.8v-73.577a6.805,6.805,0,0,0-6.8-6.8Z" transform="translate(-1214.167 -1073.351)" fill="#38464f"/>
          </g>
          <g id="Grupo_210783" data-name="Grupo 210783" transform="translate(285.377 261.994)">
            <path id="Trazado_222697" data-name="Trazado 222697" d="M1501.6,1220.746v47.039H1378.721v-45.893a6.485,6.485,0,0,1,6.484-6.485h110.761C1503.191,1215.407,1501.6,1219.193,1501.6,1220.746Z" transform="translate(-1377.936 -1214.622)" fill="#b4cbd8"/>
            <g id="Grupo_210782" data-name="Grupo 210782">
              <path id="Trazado_222698" data-name="Trazado 222698" d="M1501.6,1220.746v47.039H1378.721v-45.893a6.485,6.485,0,0,1,6.484-6.485h110.761a13.614,13.614,0,0,1,3.536.464,2.46,2.46,0,0,1,1.753,1.818A13.627,13.627,0,0,1,1501.6,1220.746Z" transform="translate(-1377.936 -1214.622)" fill="#b4cbd8"/>
              <path id="Trazado_222699" data-name="Trazado 222699" d="M1499.384,1266.353H1376.505a.784.784,0,0,1-.785-.784v-45.892a7.277,7.277,0,0,1,7.269-7.269h110.761a14.421,14.421,0,0,1,3.74.49,3.228,3.228,0,0,1,2.314,2.4,14.431,14.431,0,0,1,.364,3.232v47.039A.784.784,0,0,1,1499.384,1266.353Zm-122.094-1.569H1498.6V1218.53a12.842,12.842,0,0,0-.325-2.88,1.684,1.684,0,0,0-1.191-1.237,12.857,12.857,0,0,0-3.333-.437H1382.99a5.707,5.707,0,0,0-5.7,5.7Z" transform="translate(-1375.721 -1212.407)" fill="#38464f"/>
            </g>
          </g>
          <rect id="Rectángulo_295926" data-name="Rectángulo 295926" width="107.838" height="6.428" rx="3.214" transform="translate(289.689 266.323)" fill="#97b2c4"/>
          <g id="Grupo_210785" data-name="Grupo 210785" transform="translate(294.427 280.262)">
            <rect id="Rectángulo_295927" data-name="Rectángulo 295927" width="106.902" height="4.68" rx="2.34" transform="translate(0.785 0.784)" fill="#c5ced6"/>
            <g id="Grupo_210784" data-name="Grupo 210784">
              <path id="Trazado_222700" data-name="Trazado 222700" d="M1515.835,1288.512H1413.292a2.967,2.967,0,0,1-2.964-2.964v-.322a2.967,2.967,0,0,1,2.964-2.964h102.543a2.967,2.967,0,0,1,2.964,2.964v.322A2.967,2.967,0,0,1,1515.835,1288.512Zm-102.543-4.68a1.4,1.4,0,0,0-1.395,1.395v.322a1.4,1.4,0,0,0,1.395,1.395h102.543a1.4,1.4,0,0,0,1.395-1.395v-.322a1.4,1.4,0,0,0-1.395-1.395Z" transform="translate(-1410.328 -1282.263)" fill="#38464f"/>
            </g>
          </g>
          <g id="Grupo_210786" data-name="Grupo 210786" transform="translate(381.671 276.459)">
            <path id="Rectángulo_295928" data-name="Rectángulo 295928" d="M26.333,0h.252a0,0,0,0,1,0,0V37.912a0,0,0,0,1,0,0H0a0,0,0,0,1,0,0V26.333A26.333,26.333,0,0,1,26.333,0Z" transform="translate(0.784 0.784)" fill="#d8e8ef"/>
            <path id="Trazado_222701" data-name="Trazado 222701" d="M1771.316,1307.2h-26.585a.784.784,0,0,1-.785-.784v-31.025a7.68,7.68,0,0,1,7.671-7.671h19.7a.784.784,0,0,1,.785.785v37.912A.784.784,0,0,1,1771.316,1307.2Zm-25.8-1.569h25.016v-36.343h-18.914a6.109,6.109,0,0,0-6.1,6.1Z" transform="translate(-1743.947 -1267.723)" fill="#38464f"/>
          </g>
          <g id="Grupo_210787" data-name="Grupo 210787" transform="translate(448.438 285.539)">
            <rect id="Rectángulo_295929" data-name="Rectángulo 295929" width="10.623" height="19.752" rx="5.312" transform="translate(0.784 0.785)" fill="#d8e8ef"/>
            <path id="Trazado_222702" data-name="Trazado 222702" d="M2006.5,1323.766h-2.277a4.963,4.963,0,0,1-4.957-4.958V1307.4a4.963,4.963,0,0,1,4.957-4.958h2.277a4.963,4.963,0,0,1,4.957,4.958v11.406A4.963,4.963,0,0,1,2006.5,1323.766Zm-2.277-19.752a3.392,3.392,0,0,0-3.388,3.388v11.406a3.392,3.392,0,0,0,3.388,3.389h2.277a3.392,3.392,0,0,0,3.388-3.389V1307.4a3.392,3.392,0,0,0-3.388-3.388Z" transform="translate(-1999.265 -1302.445)" fill="#38464f"/>
          </g>
          <g id="Grupo_210788" data-name="Grupo 210788" transform="translate(43.991 143.603)">
            <path id="Trazado_222703" data-name="Trazado 222703" d="M510.689,844.3H453.449a.785.785,0,0,1-.785-.785V760.466a.785.785,0,1,1,1.569,0V842.73h56.455a.785.785,0,0,1,0,1.569Z" transform="translate(-452.665 -759.681)" fill="#c5ced6"/>
          </g>
          <g id="Grupo_210793" data-name="Grupo 210793" transform="translate(39.2 201.211)">
            <g id="Grupo_210791" data-name="Grupo 210791">
              <path id="Trazado_222704" data-name="Trazado 222704" d="M530.8,1044.581s19.168,18.714,33.372,35.413,29.847,27.259,31.559,34.024.911-1.813.911-1.813l-1.018-6.339-2.589-5.992s-3.133-8.985-5.33-10.567-5.574-8.179-14.827-15.458-30.717-24.994-32.148-25.714S530.8,1044.581,530.8,1044.581Z" transform="translate(-505.579 -1027.686)" fill="#2c9923"/>
              <g id="Grupo_210789" data-name="Grupo 210789" transform="translate(24.44 16.11)">
                <path id="Trazado_222705" data-name="Trazado 222705" d="M594.4,1115.191c-.758,0-1.072-.94-1.643-3.2-.892-3.526-6.163-8.482-12.836-14.757a234.884,234.884,0,0,1-18.561-18.952c-14.017-16.478-33.131-35.173-33.323-35.359a.785.785,0,0,1,.8-1.306c.349.117,8.568,2.861,10.033,3.6.868.436,6.921,5.33,16.725,13.279,5.758,4.668,11.712,9.5,15.556,12.519a68.384,68.384,0,0,1,12.1,12.379,18.983,18.983,0,0,0,2.7,3.059c2.31,1.663,5.231,9.854,5.6,10.919l2.578,5.967a.778.778,0,0,1,.054.187l1.018,6.339c0,.017.005.034.007.052,0,.045.1,1.116.158,2.216.09,1.841.1,2.891-.783,3.042A1.08,1.08,0,0,1,594.4,1115.191Zm-62.842-70.99c5.62,5.593,19.9,20.019,31,33.069A233.6,233.6,0,0,0,581,1096.095c6.129,5.764,10.8,10.152,12.621,13.792l-.966-6.016-2.55-5.9c-.008-.017-.015-.035-.021-.053-1.18-3.384-3.595-9.143-5.048-10.189a18.869,18.869,0,0,1-3.014-3.361,66.984,66.984,0,0,0-11.84-12.117c-3.854-3.031-9.812-7.862-15.575-12.534-7.322-5.937-15.621-12.665-16.442-13.1C537.4,1046.234,534.245,1045.122,531.559,1044.2Z" transform="translate(-527.803 -1041.581)" fill="#38464f"/>
              </g>
              <path id="Trazado_222706" data-name="Trazado 222706" d="M527.073,1082.343s-2.362-13.858-1.88-16.245,3.45-5.439-2.083-10.131-.458-10.51-9.333-15.686-12.224-2.794-17.563-8.823-10.76-19.033-21.165-24.021-13.938-5.568-18.991-11.214-9.534-10.528-18.713-7.01c0,0,12.512-9.286,20.721-5.163s16.86-2.294,22.864,5.743,5.821,11.554,13.838,15.582,10.544,14.156,17.5,24.584S532.933,1065.444,527.073,1082.343Z" transform="translate(-436.561 -982.205)" fill="#49bf3c"/>
              <g id="Grupo_210790" data-name="Grupo 210790">
                <path id="Trazado_222707" data-name="Trazado 222707" d="M524.858,1080.9l-.065,0a.785.785,0,0,1-.709-.65c-.244-1.433-2.372-14.073-1.876-16.532a10.235,10.235,0,0,1,.525-1.616c.824-2.139,1.676-4.351-2.346-7.761-2.619-2.222-3.059-4.686-3.484-7.07-.531-2.979-1.032-5.792-5.737-8.536a35.687,35.687,0,0,0-8.824-3.685c-3.209-.948-5.743-1.7-8.93-5.3a65.972,65.972,0,0,1-5.118-7.132c-4.109-6.248-8.765-13.33-15.8-16.7-2.392-1.147-4.41-2.055-6.19-2.857-6.025-2.712-9.048-4.074-13.047-8.541-4.877-5.45-9.089-10.157-17.847-6.8a.785.785,0,0,1-.748-1.363c.527-.391,13-9.525,21.541-5.233,3.292,1.654,6.722,1.516,10.039,1.383,4.616-.185,9.39-.376,13.1,4.591,1.823,2.44,3.065,4.442,4.162,6.208,2.486,4.006,3.987,6.424,9.4,9.143,5.61,2.818,8.6,8.441,12.072,14.952a112.62,112.62,0,0,0,5.727,9.9c3.658,5.485,21.57,33.822,14.894,53.076A.785.785,0,0,1,524.858,1080.9Zm-.4-18.919c-.085.238-.173.465-.256.681a9.17,9.17,0,0,0-.451,1.363c-.265,1.311.491,7.157,1.285,12.269A38.717,38.717,0,0,0,524.454,1061.979ZM440.918,985c5.931,0,9.638,4.143,13.51,8.47,3.776,4.22,6.7,5.535,12.521,8.157,1.789.805,3.816,1.718,6.225,2.873,7.426,3.56,12.419,11.153,16.43,17.254a64.982,64.982,0,0,0,4.982,6.953c2.889,3.262,5.117,3.921,8.2,4.832a37.509,37.509,0,0,1,9.17,3.833c5.332,3.11,5.948,6.567,6.492,9.617.411,2.3.765,4.292,2.954,6.149q.46.391.85.771a112.81,112.81,0,0,0-12.853-25.744,113.953,113.953,0,0,1-5.807-10.03c-3.342-6.275-6.228-11.693-11.392-14.287-5.809-2.918-7.488-5.623-10.03-9.718-1.08-1.739-2.3-3.711-4.085-6.1-3.217-4.306-7.186-4.147-11.781-3.962-3.517.141-7.152.287-10.807-1.549-4.876-2.45-11.536.229-15.779,2.533Q440.334,985,440.918,985Z" transform="translate(-434.346 -979.976)" fill="#38464f"/>
              </g>
            </g>
            <g id="Grupo_210792" data-name="Grupo 210792" transform="translate(21.201 7.184)">
              <path id="Trazado_222708" data-name="Trazado 222708" d="M551.567,1036.262a.784.784,0,0,1-.676-.384,76.191,76.191,0,0,0-9.747-12.414c-5.589-5.783-14.471-12.985-25.05-14.454a.785.785,0,0,1,.216-1.554c11.035,1.532,20.223,8.972,25.988,14.944a77.84,77.84,0,0,1,9.943,12.678.784.784,0,0,1-.674,1.185Z" transform="translate(-515.417 -1007.448)" fill="#6fd154"/>
            </g>
          </g>
          <g id="Grupo_210794" data-name="Grupo 210794" transform="translate(322.792 155.719)">
            <path id="Trazado_222709" data-name="Trazado 222709" d="M1523.817,816.057a5.021,5.021,0,1,1,5.021-5.021A5.027,5.027,0,0,1,1523.817,816.057Zm0-8.474a3.452,3.452,0,1,0,3.452,3.452A3.456,3.456,0,0,0,1523.817,807.583Z" transform="translate(-1518.796 -806.014)" fill="#49bf3c"/>
          </g>
          <g id="Grupo_210795" data-name="Grupo 210795" transform="translate(28.528 254.621)">
            <path id="Trazado_222710" data-name="Trazado 222710" d="M398.557,1194.255a5.021,5.021,0,1,1,5.021-5.021A5.027,5.027,0,0,1,398.557,1194.255Zm0-8.474a3.452,3.452,0,1,0,3.452,3.452A3.456,3.456,0,0,0,398.557,1185.781Z" transform="translate(-393.536 -1184.212)" fill="#49bf3c"/>
          </g>
          <g id="Grupo_210796" data-name="Grupo 210796" transform="translate(474.581 170.971)">
            <path id="Trazado_222711" data-name="Trazado 222711" d="M2104.258,874.379a5.021,5.021,0,1,1,5.021-5.021A5.027,5.027,0,0,1,2104.258,874.379Zm0-8.473a3.452,3.452,0,1,0,3.452,3.452A3.456,3.456,0,0,0,2104.258,865.906Z" transform="translate(-2099.236 -864.337)" fill="#49bf3c"/>
          </g>
          <g id="Grupo_210797" data-name="Grupo 210797" transform="translate(4.426 314.371)">
            <path id="Trazado_222712" data-name="Trazado 222712" d="M793.564,1414.265H302.154a.784.784,0,1,1,0-1.569H793.564a.784.784,0,1,1,0,1.569Z" transform="translate(-301.369 -1412.696)" fill="#38464f"/>
          </g>
          <g id="Grupo_210798" data-name="Grupo 210798" transform="translate(370.344 299.674)">
            <path id="Trazado_222713" data-name="Trazado 222713" d="M1703.634,1359.5l29.581,14.7h-8.8l-20.781-10.952Z" transform="translate(-1702.849 -1358.712)" fill="#b4cbd8"/>
            <path id="Trazado_222714" data-name="Trazado 222714" d="M1731,1372.762h-8.8a.786.786,0,0,1-.366-.09l-20.781-10.952a.785.785,0,0,1-.419-.694v-3.744a.785.785,0,0,1,1.134-.7l29.58,14.7a.785.785,0,0,1-.349,1.487Zm-8.605-1.569h5.263l-25.454-12.646v2Z" transform="translate(-1700.634 -1356.496)" fill="#38464f"/>
          </g>
          <g id="Grupo_210799" data-name="Grupo 210799" transform="translate(243.129 225.63)">
            <path id="Trazado_222715" data-name="Trazado 222715" d="M1414.339,1090.927H1214.952a.784.784,0,0,1-.785-.785v-8.424a8.376,8.376,0,0,1,8.367-8.367h184.223a8.376,8.376,0,0,1,8.367,8.367v8.424A.784.784,0,0,1,1414.339,1090.927Zm-198.6-1.569h197.818v-7.64a6.805,6.805,0,0,0-6.8-6.8H1222.534a6.806,6.806,0,0,0-6.8,6.8Z" transform="translate(-1214.167 -1073.351)" fill="#38464f"/>
          </g>
          <g id="Grupo_210800" data-name="Grupo 210800" transform="translate(254.362 303.138)">
            <path id="Trazado_222716" data-name="Trazado 222716" d="M1399.131,1383.974l-23.028-11.233H1260.122l23.028,11.233Z" transform="translate(-1259.337 -1371.957)" fill="#b4cbd8"/>
            <path id="Trazado_222717" data-name="Trazado 222717" d="M1396.915,1382.543H1280.934a.784.784,0,0,1-.344-.079l-23.028-11.233a.785.785,0,0,1,.344-1.49h115.982a.781.781,0,0,1,.344.08l23.028,11.233a.784.784,0,0,1-.344,1.489Zm-115.8-1.569h112.4l-19.811-9.664H1261.3Z" transform="translate(-1257.121 -1369.741)" fill="#38464f"/>
          </g>
          <g id="Grupo_210801" data-name="Grupo 210801" transform="translate(231.334 288.816)">
            <path id="Trazado_222718" data-name="Trazado 222718" d="M1311.822,1329.207l-23.028-11.233H1172.063l23.028,11.233Z" transform="translate(-1171.279 -1317.189)" fill="#fff"/>
            <path id="Trazado_222719" data-name="Trazado 222719" d="M1309.606,1327.776H1192.875a.784.784,0,0,1-.344-.079l-23.028-11.233a.784.784,0,0,1,.344-1.49h116.731a.782.782,0,0,1,.344.079l23.028,11.233a.785.785,0,0,1-.344,1.49Zm-116.549-1.569h113.152l-19.811-9.664H1173.245Z" transform="translate(-1169.063 -1314.974)" fill="#38464f"/>
          </g>
          <g id="Grupo_210802" data-name="Grupo 210802" transform="translate(254.362 299.674)">
            <rect id="Rectángulo_295930" data-name="Rectángulo 295930" width="115.982" height="3.464" transform="translate(0.785 0.784)" fill="#b4cbd8"/>
            <path id="Trazado_222720" data-name="Trazado 222720" d="M1373.887,1361.53H1257.906a.784.784,0,0,1-.784-.785v-3.464a.784.784,0,0,1,.784-.784h115.982a.784.784,0,0,1,.785.784v3.464A.785.785,0,0,1,1373.887,1361.53Zm-115.2-1.569H1373.1v-1.894H1258.69Z" transform="translate(-1257.121 -1356.497)" fill="#38464f"/>
          </g>
          <g id="Grupo_210803" data-name="Grupo 210803" transform="translate(255.532 229.686)">
            <rect id="Rectángulo_295931" data-name="Rectángulo 295931" width="7.894" height="7.894" rx="3.947" transform="translate(0.785 0.785)" fill="#73e0e0"/>
            <path id="Trazado_222721" data-name="Trazado 222721" d="M1268.335,1098.325h-4.015a2.727,2.727,0,0,1-2.724-2.724v-4.016a2.727,2.727,0,0,1,2.724-2.724h4.015a2.727,2.727,0,0,1,2.724,2.724v4.016A2.727,2.727,0,0,1,1268.335,1098.325Zm-4.015-7.894a1.156,1.156,0,0,0-1.155,1.155v4.016a1.156,1.156,0,0,0,1.155,1.155h4.015a1.156,1.156,0,0,0,1.155-1.155v-4.016a1.156,1.156,0,0,0-1.155-1.155Z" transform="translate(-1261.596 -1088.862)" fill="#38464f"/>
          </g>
          <g id="Grupo_210805" data-name="Grupo 210805" transform="translate(270.182 229.686)">
            <rect id="Rectángulo_295932" data-name="Rectángulo 295932" width="7.894" height="7.894" rx="3.947" transform="translate(0.784 0.785)" fill="#feca2e"/>
            <g id="Grupo_210804" data-name="Grupo 210804">
              <path id="Trazado_222722" data-name="Trazado 222722" d="M1324.356,1098.325h-4.016a2.727,2.727,0,0,1-2.724-2.724v-4.016a2.727,2.727,0,0,1,2.724-2.724h4.016a2.727,2.727,0,0,1,2.724,2.724v4.016A2.727,2.727,0,0,1,1324.356,1098.325Zm-4.016-7.894a1.157,1.157,0,0,0-1.155,1.155v4.016a1.157,1.157,0,0,0,1.155,1.155h4.016a1.156,1.156,0,0,0,1.155-1.155v-4.016a1.156,1.156,0,0,0-1.155-1.155Z" transform="translate(-1317.617 -1088.862)" fill="#38464f"/>
            </g>
          </g>
          <g id="Grupo_210806" data-name="Grupo 210806" transform="translate(396.742 229.686)">
            <rect id="Rectángulo_295933" data-name="Rectángulo 295933" width="19.502" height="7.894" rx="3.947" transform="translate(0.785 0.785)" fill="#49bf3c"/>
            <path id="Trazado_222723" data-name="Trazado 222723" d="M1819.925,1098.325H1804.3a2.727,2.727,0,0,1-2.724-2.724v-4.016a2.727,2.727,0,0,1,2.724-2.724h15.623a2.727,2.727,0,0,1,2.724,2.724v4.016A2.727,2.727,0,0,1,1819.925,1098.325Zm-15.623-7.894a1.156,1.156,0,0,0-1.155,1.155v4.016a1.156,1.156,0,0,0,1.155,1.155h15.623a1.156,1.156,0,0,0,1.155-1.155v-4.016a1.156,1.156,0,0,0-1.155-1.155Z" transform="translate(-1801.578 -1088.862)" fill="#38464f"/>
          </g>
          <path id="Rectángulo_295934" data-name="Rectángulo 295934" d="M7.4,0H159.042a7.4,7.4,0,0,1,7.4,7.4v0a0,0,0,0,1,0,0H0a0,0,0,0,1,0,0v0A7.4,7.4,0,0,1,7.4,0Z" transform="translate(267.638 219.019)" fill="#c5ced6"/>
          <g id="Grupo_210807" data-name="Grupo 210807" transform="translate(73.51 192.492)">
            <path id="Trazado_222724" data-name="Trazado 222724" d="M699.144,1064.351h-130.6l32.589-111.924a4.1,4.1,0,0,1,4.007-2.794H727.17c2.717,0,4.7,2.327,4.007,4.7Z" transform="translate(-567.759 -948.849)" fill="#536066"/>
            <path id="Trazado_222725" data-name="Trazado 222725" d="M696.929,1062.92h-130.6a.785.785,0,0,1-.753-1l32.589-111.924a4.885,4.885,0,0,1,4.76-3.359H724.954a5.066,5.066,0,0,1,4.057,1.959,4.231,4.231,0,0,1,.7,3.749l-32.033,110.014A.784.784,0,0,1,696.929,1062.92Zm-129.555-1.569H696.34L728.208,951.9a2.639,2.639,0,0,0-.451-2.368,3.49,3.49,0,0,0-2.8-1.332H602.924a3.313,3.313,0,0,0-3.254,2.229Z" transform="translate(-565.543 -946.633)" fill="#38464f"/>
          </g>
          <g id="Grupo_210808" data-name="Grupo 210808" transform="translate(89.58 305.946)">
            <path id="Trazado_222726" data-name="Trazado 222726" d="M659.092,1384.576H631.632a4.641,4.641,0,0,1-4.614-3.947l-.023-.151h36.734l-.023.15a4.668,4.668,0,0,1-4.614,3.947ZM627.3,1380.74a4.381,4.381,0,0,0,4.33,3.575h27.459a4.408,4.408,0,0,0,4.33-3.575Z" transform="translate(-626.995 -1380.478)"/>
          </g>
          <g id="Grupo_210809" data-name="Grupo 210809" transform="translate(85.293 199.943)">
            <path id="Trazado_222727" data-name="Trazado 222727" d="M724.453,1076.024H616.363a2.753,2.753,0,0,1-2.641-3.531l27.208-92.39a2.754,2.754,0,0,1,2.641-1.976h108.09a2.753,2.753,0,0,1,2.641,3.531l-27.208,92.39A2.754,2.754,0,0,1,724.453,1076.024Z" transform="translate(-612.822 -977.342)" fill="#fff"/>
            <path id="Trazado_222728" data-name="Trazado 222728" d="M722.235,1074.593H614.145a3.538,3.538,0,0,1-3.394-4.537l27.208-92.39a3.558,3.558,0,0,1,3.394-2.538h108.09a3.538,3.538,0,0,1,3.394,4.537l-27.208,92.39A3.558,3.558,0,0,1,722.235,1074.593Zm-80.882-97.9a1.98,1.98,0,0,0-1.889,1.413l-27.208,92.39a1.969,1.969,0,0,0,1.889,2.525h108.09a1.98,1.98,0,0,0,1.889-1.413l27.208-92.39a1.969,1.969,0,0,0-1.889-2.525Z" transform="translate(-610.604 -975.127)" fill="#38464f"/>
          </g>
          <g id="Grupo_210810" data-name="Grupo 210810" transform="translate(138.126 234.051)">
            <path id="Trazado_222729" data-name="Trazado 222729" d="M852.822,1108.554H830.055l-14.418,48.551h30.712l11.557-38.916Z" transform="translate(-814.852 -1107.77)" fill="#4dd0e1"/>
            <path id="Trazado_222730" data-name="Trazado 222730" d="M844.133,1155.675H813.421a.784.784,0,0,1-.752-1.008l14.418-48.551a.785.785,0,0,1,.752-.561h22.767a.785.785,0,0,1,.694.418l5.083,9.635a.785.785,0,0,1,.058.59l-11.557,38.916A.784.784,0,0,1,844.133,1155.675Zm-29.661-1.569h29.075l11.3-38.048-4.713-8.933H828.425Z" transform="translate(-812.637 -1105.555)" fill="#38464f"/>
          </g>
          <g id="Grupo_210811" data-name="Grupo 210811" transform="translate(119.633 112.953)">
            <path id="Trazado_222731" data-name="Trazado 222731" d="M838.322,669.648a15.719,15.719,0,0,0-2.542-.207c-.094,0-.187.005-.281.007a35.018,35.018,0,0,0-62.615-8,24,24,0,0,0-27.945,20.5,2.751,2.751,0,0,0,2.727,3.1H848.344a2.741,2.741,0,0,0,2.695-3.293A15.624,15.624,0,0,0,838.322,669.648Z" transform="translate(-744.132 -644.692)" fill="#d8e8ef"/>
            <path id="Trazado_222732" data-name="Trazado 222732" d="M846.13,683.619H745.453a3.536,3.536,0,0,1-3.505-3.99,24.792,24.792,0,0,1,24.542-21.544,25.076,25.076,0,0,1,3.807.29,35.8,35.8,0,0,1,63.549,8.07,16.581,16.581,0,0,1,2.39.215h0a16.486,16.486,0,0,1,13.356,12.718,3.473,3.473,0,0,1-.7,2.924A3.534,3.534,0,0,1,846.13,683.619Zm-79.64-23.966A23.219,23.219,0,0,0,743.5,679.83a1.967,1.967,0,0,0,1.949,2.22H846.13a1.972,1.972,0,0,0,1.54-.736,1.911,1.911,0,0,0,.388-1.608,14.906,14.906,0,0,0-12.076-11.5h0a15,15,0,0,0-2.416-.2c-.046,0-.092,0-.138,0l-.129,0a.774.774,0,0,1-.758-.537,34.233,34.233,0,0,0-61.212-7.823.783.783,0,0,1-.794.346A23.437,23.437,0,0,0,766.489,659.653Z" transform="translate(-741.918 -642.476)" fill="#38464f"/>
          </g>
          <g id="Grupo_210812" data-name="Grupo 210812" transform="translate(128.835 161.978)">
            <circle id="Elipse_16358" data-name="Elipse 16358" cx="2.34" cy="2.34" r="2.34" transform="translate(0 3.31) rotate(-45)" fill="#fff"/>
            <path id="Trazado_222733" data-name="Trazado 222733" d="M780.938,836.9a3.125,3.125,0,1,1,3.125-3.125A3.128,3.128,0,0,1,780.938,836.9Zm0-4.68a1.556,1.556,0,1,0,1.556,1.556A1.557,1.557,0,0,0,780.938,832.223Z" transform="translate(-777.628 -830.469)" fill="#38464f"/>
          </g>
          <g id="Grupo_210814" data-name="Grupo 210814" transform="translate(129.02 178.725)">
            <circle id="Elipse_16359" data-name="Elipse 16359" cx="2.34" cy="2.34" r="2.34" transform="translate(0.785 0.785)" fill="#feca2e"/>
            <g id="Grupo_210813" data-name="Grupo 210813">
              <path id="Trazado_222734" data-name="Trazado 222734" d="M780.938,900.24a3.125,3.125,0,1,1,3.125-3.125A3.128,3.128,0,0,1,780.938,900.24Zm0-4.681a1.556,1.556,0,1,0,1.556,1.556A1.558,1.558,0,0,0,780.938,895.559Z" transform="translate(-777.813 -893.99)" fill="#38464f"/>
            </g>
          </g>
          <g id="Grupo_210816" data-name="Grupo 210816" transform="translate(170.254 161.978)">
            <circle id="Elipse_16360" data-name="Elipse 16360" cx="2.34" cy="2.34" r="2.34" transform="translate(0 3.31) rotate(-45)" fill="#feca2e"/>
            <g id="Grupo_210815" data-name="Grupo 210815" transform="translate(0.185 0.185)">
              <path id="Trazado_222735" data-name="Trazado 222735" d="M939.326,836.9a3.125,3.125,0,1,1,3.125-3.125A3.128,3.128,0,0,1,939.326,836.9Zm0-4.68a1.556,1.556,0,1,0,1.556,1.556A1.557,1.557,0,0,0,939.326,832.223Z" transform="translate(-936.201 -830.654)" fill="#38464f"/>
            </g>
          </g>
          <g id="Grupo_210817" data-name="Grupo 210817" transform="translate(170.439 178.725)">
            <circle id="Elipse_16361" data-name="Elipse 16361" cx="2.34" cy="2.34" r="2.34" transform="translate(0.784 0.785)" fill="#fff"/>
            <path id="Trazado_222736" data-name="Trazado 222736" d="M939.326,900.24a3.125,3.125,0,1,1,3.125-3.125A3.128,3.128,0,0,1,939.326,900.24Zm0-4.681a1.556,1.556,0,1,0,1.556,1.556A1.558,1.558,0,0,0,939.326,895.559Z" transform="translate(-936.201 -893.99)" fill="#38464f"/>
          </g>
          <g id="Grupo_210818" data-name="Grupo 210818" transform="translate(211.859 162.163)">
            <circle id="Elipse_16362" data-name="Elipse 16362" cx="2.34" cy="2.34" r="2.34" transform="matrix(0.23, -0.973, 0.973, 0.23, 0.31, 4.865)" fill="#fff"/>
            <path id="Trazado_222737" data-name="Trazado 222737" d="M1097.713,836.9a3.125,3.125,0,1,1,3.125-3.125A3.128,3.128,0,0,1,1097.713,836.9Zm0-4.68a1.556,1.556,0,1,0,1.556,1.556A1.557,1.557,0,0,0,1097.713,832.223Z" transform="translate(-1094.588 -830.654)" fill="#38464f"/>
          </g>
          <g id="Grupo_210820" data-name="Grupo 210820" transform="translate(211.859 178.725)">
            <circle id="Elipse_16363" data-name="Elipse 16363" cx="2.34" cy="2.34" r="2.34" transform="translate(0.785 0.785)" fill="#feca2e"/>
            <g id="Grupo_210819" data-name="Grupo 210819">
              <path id="Trazado_222738" data-name="Trazado 222738" d="M1097.713,900.24a3.125,3.125,0,1,1,3.125-3.125A3.128,3.128,0,0,1,1097.713,900.24Zm0-4.681a1.556,1.556,0,1,0,1.556,1.556A1.558,1.558,0,0,0,1097.713,895.559Z" transform="translate(-1094.588 -893.99)" fill="#38464f"/>
            </g>
          </g>
          <g id="Grupo_210821" data-name="Grupo 210821" transform="translate(288.904 265.538)">
            <path id="Trazado_222739" data-name="Trazado 222739" d="M1494.838,1233.958H1392.986a3.782,3.782,0,0,1-3.777-3.777v-.442a3.781,3.781,0,0,1,3.777-3.777h101.852a3.781,3.781,0,0,1,3.777,3.777v.442A3.781,3.781,0,0,1,1494.838,1233.958Zm-101.852-6.428a2.211,2.211,0,0,0-2.208,2.208v.442a2.21,2.21,0,0,0,2.208,2.208h101.852a2.211,2.211,0,0,0,2.208-2.208v-.442a2.211,2.211,0,0,0-2.208-2.208Z" transform="translate(-1389.209 -1225.961)" fill="#38464f"/>
          </g>
          <g id="Grupo_210822" data-name="Grupo 210822" transform="translate(266.853 218.234)">
            <path id="Trazado_222740" data-name="Trazado 222740" d="M1472.108,1054.036H1305.672a.784.784,0,0,1-.785-.785v-.509a7.68,7.68,0,0,1,7.671-7.671h152.664a7.679,7.679,0,0,1,7.671,7.671v.509A.784.784,0,0,1,1472.108,1054.036Zm-165.646-1.569h164.855a6.109,6.109,0,0,0-6.1-5.826H1312.558A6.109,6.109,0,0,0,1306.462,1052.467Z" transform="translate(-1304.887 -1045.072)" fill="#38464f"/>
          </g>
          <path id="Rectángulo_295935" data-name="Rectángulo 295935" d="M7.4,0H159.042a7.4,7.4,0,0,1,7.4,7.4v0a0,0,0,0,1,0,0H0a0,0,0,0,1,0,0v0A7.4,7.4,0,0,1,7.4,0Z" transform="translate(260.389 219.019)" fill="#d8e8ef"/>
          <g id="Grupo_210823" data-name="Grupo 210823" transform="translate(259.604 218.234)">
            <path id="Trazado_222741" data-name="Trazado 222741" d="M1444.389,1054.036H1277.952a.784.784,0,0,1-.785-.785v-.509a7.68,7.68,0,0,1,7.671-7.671H1437.5a7.68,7.68,0,0,1,7.671,7.671v.509A.784.784,0,0,1,1444.389,1054.036Zm-165.646-1.569H1443.6a6.11,6.11,0,0,0-6.1-5.826H1284.838A6.11,6.11,0,0,0,1278.742,1052.467Z" transform="translate(-1277.167 -1045.072)" fill="#38464f"/>
          </g>
          <g id="Grupo_210824" data-name="Grupo 210824" transform="translate(59.749 305.292)">
            <path id="Trazado_222742" data-name="Trazado 222742" d="M670.721,1385.516a4.477,4.477,0,0,1-1.354,3.21,4.632,4.632,0,0,1-3.265,1.331H520.541a4.58,4.58,0,0,1-4.618-4.541,4.479,4.479,0,0,1,1.354-3.21,4.642,4.642,0,0,1,3.264-1.328H666.1A4.578,4.578,0,0,1,670.721,1385.516Z" transform="translate(-515.138 -1380.193)" fill="#26313a"/>
            <path id="Trazado_222743" data-name="Trazado 222743" d="M663.888,1388.626H518.326a5.371,5.371,0,0,1-5.4-5.325,5.241,5.241,0,0,1,1.589-3.77,5.406,5.406,0,0,1,3.814-1.553H663.888a5.369,5.369,0,0,1,5.4,5.323,5.24,5.24,0,0,1-1.589,3.77A5.393,5.393,0,0,1,663.888,1388.626Zm-145.562-9.079a3.846,3.846,0,0,0-2.714,1.1,3.685,3.685,0,0,0-1.12,2.651,3.8,3.8,0,0,0,3.834,3.756H663.888a3.837,3.837,0,0,0,2.713-1.1,3.685,3.685,0,0,0,1.12-2.651,3.8,3.8,0,0,0-3.833-3.754Z" transform="translate(-512.923 -1377.978)" fill="#38464f"/>
          </g>
          <g id="Grupo_210825" data-name="Grupo 210825" transform="translate(31.105 305.291)">
            <rect id="Rectángulo_295936" data-name="Rectángulo 295936" width="164.846" height="9.08" rx="4.54" transform="translate(0.784 0.784)" fill="#536066"/>
            <path id="Trazado_222744" data-name="Trazado 222744" d="M564.79,1388.624H408.4a5.018,5.018,0,0,1-5.012-5.012v-.625a5.018,5.018,0,0,1,5.012-5.012H564.79a5.018,5.018,0,0,1,5.012,5.012v.625A5.018,5.018,0,0,1,564.79,1388.624Zm-156.39-9.08a3.447,3.447,0,0,0-3.443,3.443v.625a3.447,3.447,0,0,0,3.443,3.443H564.79a3.447,3.447,0,0,0,3.443-3.443v-.625a3.447,3.447,0,0,0-3.443-3.443Z" transform="translate(-403.388 -1377.975)" fill="#38464f"/>
          </g>
          <g id="Grupo_210827" data-name="Grupo 210827" transform="translate(125.376 215.182)">
            <path id="Trazado_222745" data-name="Trazado 222745" d="M810.78,1036.4H783.9l-17.021,57.316h36.257l13.643-45.941Z" transform="translate(-766.097 -1035.615)" fill="#feca2e"/>
            <g id="Grupo_210826" data-name="Grupo 210826">
              <path id="Trazado_222746" data-name="Trazado 222746" d="M800.923,1092.284H764.666a.784.784,0,0,1-.752-1.008l17.021-57.316a.785.785,0,0,1,.752-.561h26.877a.785.785,0,0,1,.694.418l6,11.374a.785.785,0,0,1,.058.59l-13.643,45.941A.784.784,0,0,1,800.923,1092.284Zm-35.205-1.569h34.62l13.386-45.073-5.631-10.673H782.273Z" transform="translate(-763.882 -1033.399)" fill="#38464f"/>
            </g>
          </g>
          <g id="Grupo_210828" data-name="Grupo 210828" transform="translate(90.858 305.197)">
            <path id="Rectángulo_295937" data-name="Rectángulo 295937" d="M0,0H21.967a0,0,0,0,1,0,0V0a4.634,4.634,0,0,1-4.634,4.634H4.634A4.634,4.634,0,0,1,0,0V0A0,0,0,0,1,0,0Z" transform="translate(0.785 0.785)" fill="#26313a"/>
            <path id="Trazado_222747" data-name="Trazado 222747" d="M650.888,1383.819h-14.47a4.538,4.538,0,0,1-4.533-4.533v-.886a.785.785,0,0,1,.784-.785h21.967a.785.785,0,0,1,.785.785v.886A4.538,4.538,0,0,1,650.888,1383.819Zm-17.434-4.634v.1a2.967,2.967,0,0,0,2.964,2.964h14.47a2.967,2.967,0,0,0,2.964-2.964v-.1Z" transform="translate(-631.885 -1377.616)" fill="#38464f"/>
          </g>
          <g id="Grupo_210829" data-name="Grupo 210829" transform="translate(110.846 207.928)">
            <path id="Trazado_222748" data-name="Trazado 222748" d="M711.319,1008.66h0Z" transform="translate(-710.534 -1007.875)" fill="#fff"/>
            <path id="Trazado_222749" data-name="Trazado 222749" d="M822.585,1007.228H709.1a.785.785,0,1,1,0-1.569H822.585a.785.785,0,0,1,0,1.569Z" transform="translate(-708.319 -1005.659)" fill="#38464f"/>
          </g>
          <g id="Grupo_210836" data-name="Grupo 210836" transform="translate(0 62.043)">
            <path id="Trazado_222750" data-name="Trazado 222750" d="M628.952,602.369l8.261-46.123a2.647,2.647,0,0,0-2.605-3.113h-18.7Z" transform="translate(-529.228 -525.587)" fill="#3da6b4"/>
            <rect id="Rectángulo_295938" data-name="Rectángulo 295938" width="34.445" height="22.781" rx="11.39" transform="translate(0.785 0.784)" fill="#3da6b4"/>
            <g id="Grupo_210830" data-name="Grupo 210830">
              <path id="Trazado_222751" data-name="Trazado 222751" d="M315.12,472.148H289.782a5.344,5.344,0,0,1-5.338-5.338V453.135a5.344,5.344,0,0,1,5.338-5.337H315.12a5.344,5.344,0,0,1,5.338,5.337V466.81A5.344,5.344,0,0,1,315.12,472.148Zm-25.339-22.781a3.773,3.773,0,0,0-3.769,3.768V466.81a3.773,3.773,0,0,0,3.769,3.769H315.12a3.773,3.773,0,0,0,3.769-3.769V453.135a3.773,3.773,0,0,0-3.769-3.768Z" transform="translate(-284.444 -447.798)" fill="#38464f"/>
            </g>
            <g id="Grupo_210831" data-name="Grupo 210831" transform="translate(85.896 26.761)">
              <path id="Trazado_222752" data-name="Trazado 222752" d="M626.737,600.938a.785.785,0,0,1-.758-.584l-13.044-49.236a.784.784,0,0,1,.758-.985h18.7a3.432,3.432,0,0,1,3.378,4.036l-8.261,46.123a.785.785,0,0,1-.74.646ZM614.713,551.7l11.876,44.829,7.637-42.638a1.862,1.862,0,0,0-1.833-2.191Z" transform="translate(-612.909 -550.133)" fill="#38464f"/>
            </g>
            <rect id="Rectángulo_295939" data-name="Rectángulo 295939" width="99.085" height="70.547" rx="21.667" transform="translate(0.785 12.665)" fill="#4dd0e1"/>
            <g id="Grupo_210832" data-name="Grupo 210832" transform="translate(37.41 7.013)">
              <path id="Trazado_222753" data-name="Trazado 222753" d="M453.117,518.295H429.07a1.569,1.569,0,0,1-1.569-1.569V487.381a12.78,12.78,0,0,1,12.765-12.765h1.654a12.78,12.78,0,0,1,12.765,12.765v29.344A1.569,1.569,0,0,1,453.117,518.295Zm-22.478-3.138h20.909V487.381a9.638,9.638,0,0,0-9.627-9.627h-1.654a9.638,9.638,0,0,0-9.627,9.627Z" transform="translate(-427.501 -474.616)" fill="#38464f"/>
            </g>
            <rect id="Rectángulo_295940" data-name="Rectángulo 295940" width="34.906" height="38.152" rx="9.333" transform="translate(33.55 28.648)" fill="#feca2e"/>
            <path id="Trazado_222754" data-name="Trazado 222754" d="M469.669,608.979V597.716a2.47,2.47,0,0,0-2.47-2.47h0a2.47,2.47,0,0,0-2.47,2.47v11.263a4.348,4.348,0,1,0,4.94,0Z" transform="translate(-416.196 -556.687)" fill="#fff"/>
            <g id="Grupo_210833" data-name="Grupo 210833" transform="translate(0 11.88)">
              <path id="Trazado_222755" data-name="Trazado 222755" d="M378.647,565.344H290.895a6.458,6.458,0,0,1-6.451-6.451V499.679a6.458,6.458,0,0,1,6.451-6.451h87.753a6.458,6.458,0,0,1,6.45,6.451v59.215A6.458,6.458,0,0,1,378.647,565.344ZM290.895,494.8a4.887,4.887,0,0,0-4.882,4.882v59.215a4.887,4.887,0,0,0,4.882,4.882h87.753a4.887,4.887,0,0,0,4.881-4.882V499.679a4.887,4.887,0,0,0-4.881-4.882Z" transform="translate(-284.444 -493.228)" fill="#38464f"/>
            </g>
            <g id="Grupo_210834" data-name="Grupo 210834" transform="translate(32.765 27.864)">
              <path id="Trazado_222756" data-name="Trazado 222756" d="M442.987,594.069H412.962a3.229,3.229,0,0,1-3.225-3.225v-33.27a3.229,3.229,0,0,1,3.225-3.225h30.025a3.229,3.229,0,0,1,3.225,3.225v33.27A3.229,3.229,0,0,1,442.987,594.069Zm-30.025-38.152a1.658,1.658,0,0,0-1.656,1.656v33.27a1.658,1.658,0,0,0,1.656,1.656h30.025a1.658,1.658,0,0,0,1.656-1.656v-33.27a1.658,1.658,0,0,0-1.656-1.656Z" transform="translate(-409.737 -554.348)" fill="#38464f"/>
            </g>
            <g id="Grupo_210835" data-name="Grupo 210835" transform="translate(45.87 37.774)">
              <path id="Trazado_222757" data-name="Trazado 222757" d="M464.984,615.473a5.132,5.132,0,0,1-3.254-9.1V595.5a3.254,3.254,0,1,1,6.509,0v10.872a5.132,5.132,0,0,1-3.254,9.1Zm0-21.658A1.687,1.687,0,0,0,463.3,595.5v11.263a.784.784,0,0,1-.338.645,3.563,3.563,0,1,0,4.047,0,.784.784,0,0,1-.338-.645V595.5A1.687,1.687,0,0,0,464.984,593.815Z" transform="translate(-459.852 -592.246)" fill="#38464f"/>
            </g>
          </g>
          <g id="Grupo_210853" data-name="Grupo 210853" transform="translate(237.655 20.396)">
            <g id="Grupo_210837" data-name="Grupo 210837" transform="translate(21.775)">
              <path id="Trazado_222758" data-name="Trazado 222758" d="M1314.579,299.434h-37.292a.784.784,0,0,1-.785-.785v-3.544a6.572,6.572,0,0,1,6.565-6.565H1308.8a6.572,6.572,0,0,1,6.565,6.565v3.544A.784.784,0,0,1,1314.579,299.434Zm-36.507-1.569h35.723v-2.759a5,5,0,0,0-5-5h-25.731a5,5,0,0,0-5,5Z" transform="translate(-1276.503 -288.541)" fill="#38464f"/>
            </g>
            <g id="Grupo_210838" data-name="Grupo 210838" transform="translate(0 13.667)">
              <rect id="Rectángulo_295941" data-name="Rectángulo 295941" width="80.843" height="109.108" rx="18.437" transform="translate(0.785 0.784)" fill="#fff"/>
              <path id="Trazado_222759" data-name="Trazado 222759" d="M1270.04,451.483h-71.2a5.612,5.612,0,0,1-5.606-5.606V346.411a5.612,5.612,0,0,1,5.606-5.606h71.2a5.612,5.612,0,0,1,5.606,5.606v99.466A5.612,5.612,0,0,1,1270.04,451.483Zm-71.2-109.108a4.041,4.041,0,0,0-4.037,4.037v99.466a4.041,4.041,0,0,0,4.037,4.037h71.2a4.041,4.041,0,0,0,4.037-4.037V346.411a4.042,4.042,0,0,0-4.037-4.037Z" transform="translate(-1193.234 -340.805)" fill="#38464f"/>
            </g>
            <g id="Grupo_210840" data-name="Grupo 210840" transform="translate(17.374 7.587)">
              <path id="Trazado_222760" data-name="Trazado 222760" d="M1297.871,332.54h-24.3a10.9,10.9,0,0,1-10.9-10.9v-1.092h46.1v1.092A10.9,10.9,0,0,1,1297.871,332.54Z" transform="translate(-1261.887 -319.767)" fill="#feca2e"/>
              <g id="Grupo_210839" data-name="Grupo 210839">
                <path id="Trazado_222761" data-name="Trazado 222761" d="M1295.655,331.109h-24.3a11.694,11.694,0,0,1-11.681-11.681v-1.092a.784.784,0,0,1,.785-.785h46.095a.785.785,0,0,1,.785.785v1.092A11.694,11.694,0,0,1,1295.655,331.109Zm-34.414-11.988v.307a10.123,10.123,0,0,0,10.112,10.112h24.3a10.123,10.123,0,0,0,10.112-10.112v-.307Z" transform="translate(-1259.672 -317.552)" fill="#38464f"/>
              </g>
            </g>
            <g id="Grupo_210841" data-name="Grupo 210841" transform="translate(12.737 36.601)">
              <path id="Rectángulo_295942" data-name="Rectángulo 295942" d="M5.56,0h44.25a5.56,5.56,0,0,1,5.56,5.56v0a5.56,5.56,0,0,1-5.56,5.56H5.56A5.56,5.56,0,0,1,0,5.56v0A5.56,5.56,0,0,1,5.56,0Z" transform="translate(0.784 0.785)" fill="#4dd0e1"/>
              <path id="Trazado_222762" data-name="Trazado 222762" d="M1292.916,441.191H1247.9a5.969,5.969,0,0,1-5.962-5.962v-.765a5.969,5.969,0,0,1,5.962-5.962h45.015a5.969,5.969,0,0,1,5.962,5.962v.765A5.969,5.969,0,0,1,1292.916,441.191Zm-45.015-11.12a4.4,4.4,0,0,0-4.393,4.393v.765a4.4,4.4,0,0,0,4.393,4.393h45.015a4.4,4.4,0,0,0,4.393-4.393v-.765a4.4,4.4,0,0,0-4.393-4.393Z" transform="translate(-1241.94 -428.502)" fill="#38464f"/>
            </g>
            <g id="Grupo_210842" data-name="Grupo 210842" transform="translate(12.737 57.971)">
              <circle id="Elipse_16364" data-name="Elipse 16364" cx="5.386" cy="5.386" r="5.386" transform="translate(0.784 0.784)" fill="#fff"/>
              <path id="Trazado_222763" data-name="Trazado 222763" d="M1248.11,522.562a6.17,6.17,0,1,1,6.17-6.171A6.177,6.177,0,0,1,1248.11,522.562Zm0-10.772a4.6,4.6,0,1,0,4.6,4.6A4.606,4.606,0,0,0,1248.11,511.79Z" transform="translate(-1241.94 -510.221)" fill="#38464f"/>
            </g>
            <g id="Grupo_210843" data-name="Grupo 210843" transform="translate(12.737 78.24)">
              <circle id="Elipse_16365" data-name="Elipse 16365" cx="5.386" cy="5.386" r="5.386" transform="translate(0.784 0.785)" fill="#4dd0e1"/>
              <path id="Trazado_222764" data-name="Trazado 222764" d="M1248.11,600.072a6.171,6.171,0,1,1,6.17-6.17A6.177,6.177,0,0,1,1248.11,600.072Zm0-10.772a4.6,4.6,0,1,0,4.6,4.6A4.607,4.607,0,0,0,1248.11,589.3Z" transform="translate(-1241.94 -587.731)" fill="#38464f"/>
            </g>
            <g id="Grupo_210845" data-name="Grupo 210845" transform="translate(11.29 97.064)">
              <circle id="Elipse_16366" data-name="Elipse 16366" cx="5.386" cy="5.386" r="5.386" transform="translate(0 7.617) rotate(-45)" fill="#feca2e"/>
              <g id="Grupo_210844" data-name="Grupo 210844" transform="translate(1.446 1.446)">
                <path id="Trazado_222765" data-name="Trazado 222765" d="M1248.11,677.583a6.171,6.171,0,1,1,6.17-6.171A6.177,6.177,0,0,1,1248.11,677.583Zm0-10.772a4.6,4.6,0,1,0,4.6,4.6A4.607,4.607,0,0,0,1248.11,666.811Z" transform="translate(-1241.94 -665.242)" fill="#38464f"/>
              </g>
            </g>
            <g id="Grupo_210846" data-name="Grupo 210846" transform="translate(32.543 60.461)">
              <path id="Trazado_222766" data-name="Trazado 222766" d="M1320.679,522.744h0Z" transform="translate(-1319.894 -521.96)" fill="#4dd0e1"/>
              <path id="Trazado_222767" data-name="Trazado 222767" d="M1349.389,521.313h-30.926a.785.785,0,1,1,0-1.569h30.926a.785.785,0,0,1,0,1.569Z" transform="translate(-1317.679 -519.744)" fill="#38464f"/>
            </g>
            <g id="Grupo_210847" data-name="Grupo 210847" transform="translate(32.543 65.442)">
              <path id="Trazado_222768" data-name="Trazado 222768" d="M1320.679,541.789h0Z" transform="translate(-1319.894 -541.005)" fill="#4dd0e1"/>
              <path id="Trazado_222769" data-name="Trazado 222769" d="M1331.9,540.358h-13.436a.785.785,0,1,1,0-1.569H1331.9a.785.785,0,0,1,0,1.569Z" transform="translate(-1317.679 -538.789)" fill="#38464f"/>
            </g>
            <g id="Grupo_210848" data-name="Grupo 210848" transform="translate(32.543 101.406)">
              <path id="Trazado_222770" data-name="Trazado 222770" d="M1320.679,679.315h0Z" transform="translate(-1319.894 -678.531)" fill="#4dd0e1"/>
              <path id="Trazado_222771" data-name="Trazado 222771" d="M1337.227,677.884h-18.764a.785.785,0,1,1,0-1.569h18.764a.785.785,0,1,1,0,1.569Z" transform="translate(-1317.679 -676.315)" fill="#38464f"/>
            </g>
            <g id="Grupo_210849" data-name="Grupo 210849" transform="translate(32.543 106.386)">
              <path id="Trazado_222772" data-name="Trazado 222772" d="M1320.679,698.361h0Z" transform="translate(-1319.894 -697.576)" fill="#4dd0e1"/>
              <path id="Trazado_222773" data-name="Trazado 222773" d="M1347.767,696.929h-29.3a.785.785,0,1,1,0-1.569h29.3a.785.785,0,1,1,0,1.569Z" transform="translate(-1317.679 -695.36)" fill="#38464f"/>
            </g>
            <g id="Grupo_210850" data-name="Grupo 210850" transform="translate(32.543 80.267)">
              <path id="Trazado_222774" data-name="Trazado 222774" d="M1320.679,598.483h0Z" transform="translate(-1319.894 -597.698)" fill="#4dd0e1"/>
              <path id="Trazado_222775" data-name="Trazado 222775" d="M1334.795,597.051h-16.331a.785.785,0,0,1,0-1.569h16.331a.785.785,0,1,1,0,1.569Z" transform="translate(-1317.679 -595.482)" fill="#38464f"/>
            </g>
            <g id="Grupo_210851" data-name="Grupo 210851" transform="translate(54.145 80.267)">
              <path id="Trazado_222776" data-name="Trazado 222776" d="M1412.607,598.483h0Z" transform="translate(-1402.498 -597.698)" fill="#4dd0e1"/>
              <path id="Trazado_222777" data-name="Trazado 222777" d="M1410.392,597.051h-9.324a.785.785,0,1,1,0-1.569h9.324a.785.785,0,0,1,0,1.569Z" transform="translate(-1400.283 -595.482)" fill="#38464f"/>
            </g>
            <g id="Grupo_210852" data-name="Grupo 210852" transform="translate(32.543 85.248)">
              <path id="Trazado_222778" data-name="Trazado 222778" d="M1320.679,617.528h0Z" transform="translate(-1319.894 -616.744)" fill="#4dd0e1"/>
              <path id="Trazado_222779" data-name="Trazado 222779" d="M1343.366,616.1h-24.9a.785.785,0,1,1,0-1.569h24.9a.785.785,0,0,1,0,1.569Z" transform="translate(-1317.679 -614.528)" fill="#38464f"/>
            </g>
          </g>
          <g id="Grupo_210854" data-name="Grupo 210854" transform="translate(367.255 91.956)">
            <path id="Trazado_222780" data-name="Trazado 222780" d="M1691.821,565.184h0Z" transform="translate(-1691.036 -564.4)" fill="#d8e8ef"/>
            <path id="Trazado_222781" data-name="Trazado 222781" d="M1779.19,563.753h-89.584a.785.785,0,0,1,0-1.569h89.584a.785.785,0,1,1,0,1.569Z" transform="translate(-1688.821 -562.184)" fill="#38464f"/>
          </g>
          <g id="Grupo_210858" data-name="Grupo 210858" transform="translate(379.986 34.063)">
            <g id="Grupo_210855" data-name="Grupo 210855">
              <rect id="Rectángulo_295943" data-name="Rectángulo 295943" width="16.85" height="57.892" rx="8.425" transform="translate(0.784 0.784)" fill="#d8e8ef"/>
              <path id="Trazado_222782" data-name="Trazado 222782" d="M1751.588,400.266h-9.75a4.339,4.339,0,0,1-4.334-4.335V345.139a4.339,4.339,0,0,1,4.334-4.334h9.75a4.339,4.339,0,0,1,4.335,4.334v50.793A4.339,4.339,0,0,1,1751.588,400.266Zm-9.75-57.892a2.768,2.768,0,0,0-2.765,2.765v50.793a2.768,2.768,0,0,0,2.765,2.765h9.75a2.769,2.769,0,0,0,2.766-2.765V345.139a2.769,2.769,0,0,0-2.766-2.765Z" transform="translate(-1737.504 -340.805)" fill="#38464f"/>
            </g>
            <g id="Grupo_210856" data-name="Grupo 210856" transform="translate(4.528 5.69)">
              <rect id="Rectángulo_295944" data-name="Rectángulo 295944" width="7.794" height="27.459" rx="3.897" transform="translate(0.785 0.784)" fill="#fff"/>
              <path id="Trazado_222783" data-name="Trazado 222783" d="M1759.768,391.59h-.536a4.418,4.418,0,0,1-4.413-4.413v-20.2a4.418,4.418,0,0,1,4.413-4.413h.536a4.419,4.419,0,0,1,4.413,4.413v20.2A4.419,4.419,0,0,1,1759.768,391.59Zm-.536-27.459a2.847,2.847,0,0,0-2.844,2.844v20.2a2.848,2.848,0,0,0,2.844,2.844h.536a2.848,2.848,0,0,0,2.844-2.844v-20.2a2.847,2.847,0,0,0-2.844-2.844Z" transform="translate(-1754.818 -362.562)" fill="#38464f"/>
            </g>
            <g id="Grupo_210857" data-name="Grupo 210857" transform="translate(4.528 43.727)">
              <rect id="Rectángulo_295945" data-name="Rectángulo 295945" width="7.794" height="7.794" rx="3.897" transform="translate(0.785 0.785)" fill="#4dd0e1"/>
              <path id="Trazado_222784" data-name="Trazado 222784" d="M1759.768,517.38h-.536a4.418,4.418,0,0,1-4.413-4.413v-.536a4.418,4.418,0,0,1,4.413-4.413h.536a4.419,4.419,0,0,1,4.413,4.413v.536A4.419,4.419,0,0,1,1759.768,517.38Zm-.536-7.794a2.847,2.847,0,0,0-2.844,2.844v.536a2.847,2.847,0,0,0,2.844,2.844h.536a2.848,2.848,0,0,0,2.844-2.844v-.536a2.847,2.847,0,0,0-2.844-2.844Z" transform="translate(-1754.818 -508.017)" fill="#38464f"/>
            </g>
          </g>
          <g id="Grupo_210862" data-name="Grupo 210862" transform="translate(431.034 34.063)">
            <g id="Grupo_210859" data-name="Grupo 210859" transform="translate(0)">
              <rect id="Rectángulo_295946" data-name="Rectángulo 295946" width="16.85" height="57.892" rx="8.425" transform="translate(0.784 0.784)" fill="#4dd0e1"/>
              <path id="Trazado_222785" data-name="Trazado 222785" d="M1946.8,400.266h-9.75a4.34,4.34,0,0,1-4.334-4.335V345.139a4.339,4.339,0,0,1,4.334-4.334h9.75a4.339,4.339,0,0,1,4.334,4.334v50.793A4.339,4.339,0,0,1,1946.8,400.266Zm-9.75-57.892a2.768,2.768,0,0,0-2.765,2.765v50.793a2.768,2.768,0,0,0,2.765,2.765h9.75a2.769,2.769,0,0,0,2.766-2.765V345.139a2.768,2.768,0,0,0-2.766-2.765Z" transform="translate(-1932.711 -340.805)" fill="#38464f"/>
            </g>
            <g id="Grupo_210860" data-name="Grupo 210860" transform="translate(4.528 5.69)">
              <rect id="Rectángulo_295947" data-name="Rectángulo 295947" width="7.794" height="27.459" rx="3.897" transform="translate(0.785 0.784)" fill="#fff"/>
              <path id="Trazado_222786" data-name="Trazado 222786" d="M1954.975,391.59h-.536a4.419,4.419,0,0,1-4.413-4.413v-20.2a4.419,4.419,0,0,1,4.413-4.413h.536a4.418,4.418,0,0,1,4.413,4.413v20.2A4.418,4.418,0,0,1,1954.975,391.59Zm-.536-27.459a2.847,2.847,0,0,0-2.844,2.844v20.2a2.848,2.848,0,0,0,2.844,2.844h.536a2.848,2.848,0,0,0,2.844-2.844v-20.2a2.848,2.848,0,0,0-2.844-2.844Z" transform="translate(-1950.025 -362.562)" fill="#38464f"/>
            </g>
            <g id="Grupo_210861" data-name="Grupo 210861" transform="translate(4.528 43.727)">
              <rect id="Rectángulo_295948" data-name="Rectángulo 295948" width="7.794" height="7.794" rx="3.897" transform="translate(0.785 0.785)" fill="#49bf3c"/>
              <path id="Trazado_222787" data-name="Trazado 222787" d="M1954.975,517.38h-.536a4.419,4.419,0,0,1-4.413-4.413v-.536a4.419,4.419,0,0,1,4.413-4.413h.536a4.418,4.418,0,0,1,4.413,4.413v.536A4.418,4.418,0,0,1,1954.975,517.38Zm-.536-7.794a2.847,2.847,0,0,0-2.844,2.844v.536a2.848,2.848,0,0,0,2.844,2.844h.536a2.848,2.848,0,0,0,2.844-2.844v-.536a2.848,2.848,0,0,0-2.844-2.844Z" transform="translate(-1950.025 -508.017)" fill="#38464f"/>
            </g>
          </g>
          <g id="Grupo_210867" data-name="Grupo 210867" transform="translate(397.983 33.226)">
            <g id="Grupo_210864" data-name="Grupo 210864">
              <path id="Trazado_222788" data-name="Trazado 222788" d="M1821.072,398.876l-9.284-2.979a3.55,3.55,0,0,1-2.3-4.465l15.519-48.364a3.55,3.55,0,0,1,4.465-2.3l9.283,2.979a3.55,3.55,0,0,1,2.3,4.465l-15.519,48.364A3.55,3.55,0,0,1,1821.072,398.876Z" transform="translate(-1808.538 -339.818)" fill="#feca2e"/>
              <g id="Grupo_210863" data-name="Grupo 210863">
                <path id="Trazado_222789" data-name="Trazado 222789" d="M1819.947,397.618a4.342,4.342,0,0,1-1.329-.209l-9.284-2.979a4.34,4.34,0,0,1-2.8-5.451l15.519-48.364a4.339,4.339,0,0,1,5.451-2.8l9.284,2.979a4.334,4.334,0,0,1,2.8,5.451l-15.519,48.364a4.342,4.342,0,0,1-4.122,3.012Zm6.233-58.445a2.77,2.77,0,0,0-2.635,1.921l-15.519,48.364a2.769,2.769,0,0,0,1.788,3.478l9.284,2.979h0a2.766,2.766,0,0,0,3.478-1.788l15.519-48.364a2.765,2.765,0,0,0-1.788-3.478l-9.284-2.979A2.759,2.759,0,0,0,1826.18,339.173Z" transform="translate(-1806.324 -337.604)" fill="#38464f"/>
              </g>
            </g>
            <g id="Grupo_210865" data-name="Grupo 210865" transform="translate(11.742 6.671)">
              <rect id="Rectángulo_295949" data-name="Rectángulo 295949" width="7.794" height="27.459" rx="3.897" transform="matrix(0.952, 0.306, -0.306, 0.952, 8.39, 0)" fill="#fff"/>
              <path id="Trazado_222790" data-name="Trazado 222790" d="M1856.721,391.916a4.4,4.4,0,0,1-1.346-.212h0l-.51-.164a4.418,4.418,0,0,1-2.854-5.551l6.172-19.235a4.418,4.418,0,0,1,5.551-2.854l.511.164a4.414,4.414,0,0,1,2.853,5.551l-6.172,19.235A4.422,4.422,0,0,1,1856.721,391.916Zm-.866-1.706a2.848,2.848,0,0,0,3.577-1.839l6.172-19.235a2.845,2.845,0,0,0-1.839-3.577l-.51-.164a2.848,2.848,0,0,0-3.578,1.839l-6.172,19.235a2.844,2.844,0,0,0,1.839,3.577Z" transform="translate(-1851.649 -363.539)" fill="#38464f"/>
            </g>
            <g id="Grupo_210866" data-name="Grupo 210866" transform="translate(6.128 42.89)">
              <path id="Rectángulo_295950" data-name="Rectángulo 295950" d="M3.9,0h0a3.9,3.9,0,0,1,3.9,3.9v0a3.9,3.9,0,0,1-3.9,3.9h0A3.9,3.9,0,0,1,0,3.9v0A3.9,3.9,0,0,1,3.9,0Z" transform="translate(2.381 0) rotate(17.792)" fill="#536066"/>
              <path id="Trazado_222791" data-name="Trazado 222791" d="M1835.262,511.687a4.417,4.417,0,0,1-1.353-.213l-.511-.164a4.418,4.418,0,0,1-2.854-5.551l.164-.51a4.413,4.413,0,0,1,5.551-2.854l.51.164a4.413,4.413,0,0,1,2.854,5.551l-.164.511a4.421,4.421,0,0,1-4.2,3.067Zm-.355-7.936a2.85,2.85,0,0,0-2.705,1.977l-.164.51a2.848,2.848,0,0,0,1.839,3.578l.51.164h0a2.844,2.844,0,0,0,3.577-1.839l.164-.511a2.844,2.844,0,0,0-1.84-3.577l-.511-.164A2.851,2.851,0,0,0,1834.907,503.751Z" transform="translate(-1830.183 -502.033)" fill="#38464f"/>
            </g>
          </g>
          <g id="Grupo_210868" data-name="Grupo 210868" transform="translate(76.055 130.286)">
            <path id="Trazado_222792" data-name="Trazado 222792" d="M585.255,746.081l-7.133-34.476,29.753,19.463-9.372,2.047,7.5,9.212-6.453,5.748L590.989,737.9Z" transform="translate(-577.378 -710.861)" fill="#fff"/>
            <path id="Trazado_222793" data-name="Trazado 222793" d="M597.45,746.717l-.053,0a.744.744,0,0,1-.516-.263l-7.94-9.435-5.179,7.39a.744.744,0,0,1-1.339-.276l-7.133-34.476a.745.745,0,0,1,1.137-.774l29.753,19.463a.745.745,0,0,1-.249,1.35l-8.189,1.788,6.738,8.273a.744.744,0,0,1-.082,1.026l-6.453,5.748A.744.744,0,0,1,597.45,746.717Zm-8.564-11.665a.745.745,0,0,1,.57.265l8.071,9.591,5.35-4.765-7.053-8.659a.744.744,0,0,1,.418-1.2l7.638-1.668-26.768-17.511,6.42,31.033,4.745-6.771a.743.743,0,0,1,.577-.316Z" transform="translate(-575.275 -708.759)" fill="#38464f"/>
          </g>
          <g id="Grupo_210869" data-name="Grupo 210869" transform="translate(155.33 30.009)">
            <path id="Trazado_222794" data-name="Trazado 222794" d="M909.511,328.3H881.422v53.654h39.972V340.514Z" transform="translate(-880.638 -327.516)" fill="#c5ced6"/>
            <path id="Trazado_222795" data-name="Trazado 222795" d="M919.179,380.525H879.207a.785.785,0,0,1-.785-.785V326.086a.784.784,0,0,1,.785-.785h28.088a.785.785,0,1,1,0,1.569h-27.3v52.085h38.4V338.3a.785.785,0,1,1,1.569,0V379.74A.785.785,0,0,1,919.179,380.525Z" transform="translate(-878.422 -325.301)" fill="#38464f"/>
          </g>
          <path id="Trazado_222796" data-name="Trazado 222796" d="M903.088,456.65l-21.666,7.863V451.068a43.022,43.022,0,0,1,8.221.781A41.746,41.746,0,0,1,903.088,456.65Z" transform="translate(-725.308 -388.167)" fill="#a3b1c1"/>
          <g id="Grupo_210870" data-name="Grupo 210870" transform="translate(155.33 30.009)">
            <path id="Trazado_222797" data-name="Trazado 222797" d="M919.179,380.525H879.207a.785.785,0,0,1-.785-.785V326.086a.784.784,0,0,1,.785-.785h28.088a.785.785,0,1,1,0,1.569h-27.3v52.085h38.4V338.3a.785.785,0,1,1,1.569,0V379.74A.785.785,0,0,1,919.179,380.525Z" transform="translate(-878.422 -325.301)" fill="#38464f"/>
          </g>
          <g id="Grupo_210871" data-name="Grupo 210871" transform="translate(123.22 0)">
            <path id="Trazado_222798" data-name="Trazado 222798" d="M812.41,225.909v55.337H758.634v-67.7h41.892Z" transform="translate(-757.849 -212.763)" fill="#97b0c4"/>
            <path id="Trazado_222799" data-name="Trazado 222799" d="M810.194,279.815H756.419a.784.784,0,0,1-.785-.785v-67.7a.785.785,0,0,1,.785-.785h41.892a.785.785,0,0,1,.565.241L810.76,223.15a.785.785,0,0,1,.219.544V279.03A.784.784,0,0,1,810.194,279.815ZM757.2,278.246H809.41V224.009l-11.433-11.893H757.2Z" transform="translate(-755.634 -210.547)" fill="#38464f"/>
          </g>
          <g id="Grupo_210872" data-name="Grupo 210872" transform="translate(165.802 0.694)">
            <rect id="Rectángulo_295951" data-name="Rectángulo 295951" width="0.262" height="17.147" transform="translate(0 0.181) rotate(-43.87)"/>
          </g>
          <g id="Grupo_210873" data-name="Grupo 210873" transform="translate(165.112 0)">
            <path id="Trazado_222800" data-name="Trazado 222800" d="M918.83,213.547v12.362h11.884Z" transform="translate(-918.045 -212.763)" fill="#2c9923"/>
            <path id="Trazado_222801" data-name="Trazado 222801" d="M928.5,224.478H916.615a.784.784,0,0,1-.784-.785V211.332a.784.784,0,0,1,1.35-.544l11.884,12.362a.784.784,0,0,1-.566,1.328Zm-11.1-1.569h9.256L917.4,213.28Z" transform="translate(-915.83 -210.547)" fill="#38464f"/>
          </g>
          <g id="Grupo_210874" data-name="Grupo 210874" transform="translate(183.418 30.008)">
            <path id="Trazado_222802" data-name="Trazado 222802" d="M1000.716,340.511,988.832,328.3v12.214Z" transform="translate(-988.048 -327.513)" fill="#a3b1c1"/>
            <path id="Trazado_222803" data-name="Trazado 222803" d="M998.5,339.08H986.617a.784.784,0,0,1-.785-.785V326.082a.785.785,0,0,1,1.347-.547l11.884,12.214a.784.784,0,0,1-.562,1.332Zm-11.1-1.569h9.241l-9.241-9.5Z" transform="translate(-985.832 -325.297)" fill="#38464f"/>
          </g>
          <rect id="Rectángulo_295952" data-name="Rectángulo 295952" width="31.51" height="5.942" rx="2.971" transform="translate(130.276 11.617)" fill="#fff"/>
          <g id="Grupo_210875" data-name="Grupo 210875" transform="translate(129.492 24.156)">
            <path id="Trazado_222804" data-name="Trazado 222804" d="M817.765,304.489H780.4a.785.785,0,0,1,0-1.569h37.361a.785.785,0,1,1,0,1.569Z" transform="translate(-779.619 -302.92)" fill="#fff"/>
          </g>
          <g id="Grupo_210876" data-name="Grupo 210876" transform="translate(129.492 35.095)">
            <path id="Trazado_222805" data-name="Trazado 222805" d="M817.765,346.317H780.4a.785.785,0,0,1,0-1.569h37.361a.785.785,0,1,1,0,1.569Z" transform="translate(-779.619 -344.748)" fill="#fff"/>
          </g>
          <g id="Grupo_210877" data-name="Grupo 210877" transform="translate(129.492 46.033)">
            <path id="Trazado_222806" data-name="Trazado 222806" d="M817.765,388.145H780.4a.785.785,0,0,1,0-1.569h37.361a.785.785,0,1,1,0,1.569Z" transform="translate(-779.619 -386.576)" fill="#fff"/>
          </g>
          <g id="Grupo_210880" data-name="Grupo 210880" transform="translate(129.492 40.564)">
            <g id="Grupo_210878" data-name="Grupo 210878">
              <path id="Trazado_222807" data-name="Trazado 222807" d="M792.557,367.231H780.4a.785.785,0,0,1,0-1.569h12.154a.785.785,0,0,1,0,1.569Z" transform="translate(-779.619 -365.662)" fill="#c5ced6"/>
            </g>
            <g id="Grupo_210879" data-name="Grupo 210879" transform="translate(19.896)">
              <path id="Trazado_222808" data-name="Trazado 222808" d="M869.517,367.231H856.486a.785.785,0,0,1,0-1.569h13.031a.785.785,0,1,1,0,1.569Z" transform="translate(-855.701 -365.662)" fill="#c5ced6"/>
            </g>
          </g>
          <g id="Grupo_210883" data-name="Grupo 210883" transform="translate(129.492 29.625)">
            <g id="Grupo_210881" data-name="Grupo 210881">
              <path id="Trazado_222809" data-name="Trazado 222809" d="M797.419,325.4H780.4a.785.785,0,0,1,0-1.569h17.015a.785.785,0,1,1,0,1.569Z" transform="translate(-779.619 -323.834)" fill="#38464f"/>
            </g>
            <g id="Grupo_210882" data-name="Grupo 210882" transform="translate(25.838)">
              <path id="Trazado_222810" data-name="Trazado 222810" d="M893.386,325.4H879.207a.785.785,0,1,1,0-1.569h14.179a.785.785,0,1,1,0,1.569Z" transform="translate(-878.422 -323.834)" fill="#38464f"/>
            </g>
          </g>
        </g>
      </g>
    </g>
  </g>
</svg>
