<svg xmlns="http://www.w3.org/2000/svg" width="190" height="101.491" viewBox="0 0 190 101.491">
  <g id="Grupo_215613" data-name="Grupo 215613" transform="translate(-180 -4695.501)">
    <rect id="Rect치ngulo_41430" data-name="Rect치ngulo 41430" width="85" height="28" rx="14" transform="translate(285 4695.501)" fill="#feca2e" opacity="0.2"/>
    <rect id="Rect치ngulo_41431" data-name="Rect치ngulo 41431" width="85" height="28" rx="14" transform="translate(180 4768.501)" fill="#4dd0e1" opacity="0.2"/>
    <g id="Grupo_213799" data-name="Grupo 213799" transform="translate(0 2681.501)">
      <path id="Trazado_225289" data-name="Trazado 225289" d="M-73.155,118.812a2.468,2.468,0,0,1-2.379,1.088q-21.129-.038-42.259-.018c-2.234,0-2.552-.319-2.6-2.6,0-.168-.024-.335-.045-.606-2.114.593-4.174,1.169-6.278,1.574a103.713,103.713,0,0,1-24.091,1.513,78.18,78.18,0,0,1-17.1-2.412,25.809,25.809,0,0,1-8.646-3.722,7.832,7.832,0,0,1-3.494-6.806q.084-37.563,0-75.126a7.459,7.459,0,0,1,3.131-6.343,27.539,27.539,0,0,1,9.917-4.408,82.863,82.863,0,0,1,21.364-2.538,80.708,80.708,0,0,1,23.283,2.953,24.88,24.88,0,0,1,8.673,4.157,7.336,7.336,0,0,1,2.933,6.131c-.057,10.712-.024,21.425-.024,32.137v1.37a17.9,17.9,0,0,1,6.055-5.183,17.3,17.3,0,0,1,25.23,15.27c.031,1.487,0,2.976,0,4.567,1.314,0,2.559.055,3.8-.017a2.721,2.721,0,0,1,2.521,1.036Zm-43.837-2.329h40.435V83.2h-40.435Zm-59.673-60.63c0,3.978.164,7.811-.054,11.622a5.57,5.57,0,0,0,3.4,5.74c.644.337,1.293.672,1.966.944,5.535,2.245,11.376,3.034,17.266,3.524a108.564,108.564,0,0,0,17.393.007,66.906,66.906,0,0,0,14.536-2.527,18.477,18.477,0,0,0,6.332-3.057,4.267,4.267,0,0,0,1.742-3.591c-.054-3.893-.014-7.787-.026-11.68,0-.284.155-.621-.179-.885a24.393,24.393,0,0,1-3.553,1.924,53.807,53.807,0,0,1-15.041,3.535,107.886,107.886,0,0,1-26.52-.2C-165.4,60.394-171.318,59.281-176.666,55.853ZM-114.1,36.535a23.979,23.979,0,0,1-6.789,3.2,81.649,81.649,0,0,1-20.731,3.225,90.369,90.369,0,0,1-26.643-2.746,26.986,26.986,0,0,1-8.4-3.653c0,4.141.106,8.138-.041,12.127a5.025,5.025,0,0,0,2.636,4.81,24.784,24.784,0,0,0,7.2,2.9,86.41,86.41,0,0,0,21.8,2.348A83.62,83.62,0,0,0-123.183,56.2a20.688,20.688,0,0,0,7.088-3.143,4.177,4.177,0,0,0,2-3.461C-114.117,45.317-114.1,41.041-114.1,36.535ZM-176.666,75.1c0,4.431.019,8.7-.012,12.969a3.774,3.774,0,0,0,1.228,2.871,12.257,12.257,0,0,0,3.87,2.4,51.352,51.352,0,0,0,14.66,3.349,106.553,106.553,0,0,0,20.929.2,66.709,66.709,0,0,0,14.613-2.705,1.2,1.2,0,0,0,1.016-1.368c-.056-3.511-.025-7.024-.023-10.536,0-2.01.452-2.467,2.432-2.468,1.269,0,2.538,0,3.787,0V75.186c-.944.522-1.795,1.045-2.689,1.479a43,43,0,0,1-12.573,3.53,106.387,106.387,0,0,1-31.888,0C-166.643,79.382-171.887,78.222-176.666,75.1Zm56.138,22.373a4.608,4.608,0,0,0-.571.113A54.78,54.78,0,0,1-131.47,99.77a105.6,105.6,0,0,1-32.79-.83,33.529,33.529,0,0,1-11.7-4.139c-.208-.13-.361-.44-.706-.288,0,4.247.026,8.488-.016,12.728a3.94,3.94,0,0,0,1.393,3.114,12.453,12.453,0,0,0,3.532,2.167c5.135,2.207,10.587,3.027,16.089,3.555a107.233,107.233,0,0,0,20.405.006,64.178,64.178,0,0,0,13.878-2.642c.743-.242,1.028-.534,1.02-1.352-.045-4.553-.019-9.107-.026-13.661A1.452,1.452,0,0,0-120.528,97.469ZM-145.591,39.53c6.717-.1,13.171-.412,19.5-1.917a27.149,27.149,0,0,0,9.957-4.046c2.692-1.957,2.651-3.792-.051-5.76a22.934,22.934,0,0,0-6.769-3.125,68.147,68.147,0,0,0-17.326-2.808,87.256,87.256,0,0,0-23.729,1.775,29.827,29.827,0,0,0-10.325,3.977c-3.091,2.091-3.07,4.079.015,6.18A25.346,25.346,0,0,0-167.014,37C-159.936,39.059-152.652,39.387-145.591,39.53Zm62.775,40.238c0-1.561.035-3.082-.006-4.6a14.014,14.014,0,0,0-9.471-13.048,13.992,13.992,0,0,0-15.322,4.431c-3.242,3.906-3.342,8.5-3.033,13.218Z" transform="translate(401.598 1995.591)" fill="#0f2771"/>
      <path id="Trazado_225290" data-name="Trazado 225290" d="M101.113,289.3c0-.348-.027-.7,0-1.043.155-1.665-.023-2.9-1.872-3.856-2.392-1.237-3.148-4.412-2.2-6.965a6.116,6.116,0,0,1,11.762,1.149,6,6,0,0,1-3.414,6.424,1.367,1.367,0,0,0-.954,1.54c.059,1.841.026,3.686.016,5.529-.006,1.291-.65,2.09-1.665,2.1-1.036.013-1.663-.755-1.673-2.064C101.107,291.173,101.113,290.234,101.113,289.3Zm4.406-9.721a2.744,2.744,0,1,0-2.831,2.724A2.767,2.767,0,0,0,105.519,279.575Z" transform="translate(202.051 1811.646)" fill="#0f2771"/>
    </g>
  </g>
</svg>
