<svg xmlns="http://www.w3.org/2000/svg" width="180.837" height="180.843" viewBox="0 0 180.837 180.843">
  <g id="Grupo_215619" data-name="Grupo 215619" transform="translate(-359 -6521.492)">
    <g id="Grupo_210928" data-name="Grupo 210928" transform="translate(-1.068 6289.433)">
      <path id="Trazado_222905" data-name="Trazado 222905" d="M577.917,355.05v-18.4H464.641v16.234h24.748a6.524,6.524,0,1,1,0,1.619H464.641v10.467h19.306v1.617H464.641v22.335h47.213c.067.013,4.672.063,7.716-2.917a10.121,10.121,0,0,0,2.751-7.546v-9.634a6.525,6.525,0,1,1,1.614,0v9.634c0,3.68-1.093,6.612-3.241,8.712a13.3,13.3,0,0,1-8.754,3.369h-47.3v14.127h56.143a6.527,6.527,0,1,1,0,1.619H464.641v9.474h38.837c.117,0,8.783.412,8.783,10.7v23.464h25.2V432.587h1.62v17.345h8.8V428.053a6.522,6.522,0,1,1,1.62,0v21.879h8.072V436.983h1.617v12.948h18.729V373.52H553.175a6.524,6.524,0,1,1,0-1.619h24.742V356.668H559.782V355.05Z" transform="translate(-70.796 -70.811)" fill="#718493"/>
      <path id="Trazado_222906" data-name="Trazado 222906" d="M483.947,603.863a6.5,6.5,0,0,1-6.447-5.715H464.641v20.986h46V595.671c0-8.747-6.9-9.077-7.192-9.085H464.641v9.944H477.5a6.509,6.509,0,1,1,6.447,7.333Z" transform="translate(-70.796 -240.014)" fill="#718493"/>
      <path id="Trazado_222907" data-name="Trazado 222907" d="M540.9,278.788v-4.854H521.687V261.917a10.639,10.639,0,0,0-10.638-10.64H499.031V232.059h-4.856v19.218H483.654V232.059H478.8v19.218H468.285V232.059h-4.854v19.218H452.911V232.059h-4.854v19.218H437.536V232.059h-4.854v19.218H422.167V232.059h-4.854v19.218H406.792V232.059h-4.854v19.218H389.924a10.639,10.639,0,0,0-10.638,10.64v12.017H360.068v4.854h19.218v10.518H360.068v4.857h19.218v10.516H360.068v4.856h19.218v10.519H360.068v4.854h19.218v10.521H360.068v4.854h19.218V350.8H360.068v4.856h19.218v10.516H360.068v4.857h19.218v12.017a10.637,10.637,0,0,0,10.638,10.637h12.014V412.9h4.854V393.684h10.521V412.9h4.854V393.684h10.515V412.9h4.854V393.684h10.521V412.9h4.854V393.684h10.521V412.9h4.854V393.684H478.8V412.9h4.852V393.684h10.521V412.9h4.856V393.684h12.018a10.637,10.637,0,0,0,10.638-10.637V371.029H540.9v-4.857H521.687V355.657H540.9V350.8H521.687V340.282H540.9v-4.854H521.687V324.907H540.9v-4.854H521.687V309.535H540.9v-4.856H521.687V294.163H540.9v-4.857H521.687V278.788ZM510.359,382.356H390.608V262.6H510.359Z" fill="#718493"/>
      <path id="Trazado_222908" data-name="Trazado 222908" d="M705.109,428.085a6.524,6.524,0,1,0,6.445,7.334H736.3V433.8H711.554A6.5,6.5,0,0,0,705.109,428.085Z" transform="translate(-229.175 -132.709)" fill="#fff"/>
      <path id="Trazado_222909" data-name="Trazado 222909" d="M477.5,605.394H464.641v1.619H477.5a6.524,6.524,0,1,0,0-1.619Z" transform="translate(-70.796 -248.878)" fill="#fff"/>
      <path id="Trazado_222910" data-name="Trazado 222910" d="M519.57,426.265c-3.044,2.98-7.649,2.929-7.716,2.917H464.641V430.8h47.3a13.3,13.3,0,0,0,8.754-3.369c2.148-2.1,3.241-5.032,3.241-8.712v-9.634a6.527,6.527,0,1,0-1.614,0v9.634A10.121,10.121,0,0,1,519.57,426.265Z" transform="translate(-70.796 -111.068)" fill="#fff"/>
      <path id="Trazado_222911" data-name="Trazado 222911" d="M464.641,547.232v1.619h56.143a6.845,6.845,0,0,1-.082-.808,6.92,6.92,0,0,1,.082-.81Z" transform="translate(-70.796 -213.372)" fill="#fff"/>
      <path id="Trazado_222912" data-name="Trazado 222912" d="M512.261,615.742V592.278c0-10.292-8.666-10.7-8.783-10.7H464.641v1.619h38.811c.3.008,7.192.338,7.192,9.085v23.464Z" transform="translate(-70.796 -236.621)" fill="#fff"/>
      <path id="Trazado_222913" data-name="Trazado 222913" d="M722.344,641.5h1.62V619.621a4.039,4.039,0,0,1-1.62,0Z" transform="translate(-245.26 -262.379)" fill="#fff"/>
      <rect id="Rectángulo_295960" data-name="Rectángulo 295960" width="1.62" height="17.344" transform="translate(466.665 361.776)" fill="#fff"/>
      <rect id="Rectángulo_295961" data-name="Rectángulo 295961" width="1.617" height="12.948" transform="translate(486.776 366.173)" fill="#fff"/>
      <rect id="Rectángulo_295962" data-name="Rectángulo 295962" width="18.135" height="1.619" transform="translate(488.987 284.239)" fill="#fff"/>
      <path id="Trazado_222914" data-name="Trazado 222914" d="M464.641,386.913v1.619h24.748a6.139,6.139,0,0,1-.082-.811,6.064,6.064,0,0,1,.082-.808Z" transform="translate(-70.796 -104.836)" fill="#fff"/>
      <rect id="Rectángulo_295963" data-name="Rectángulo 295963" width="19.306" height="1.617" transform="translate(393.845 294.163)" fill="#fff"/>
      <path id="Trazado_222915" data-name="Trazado 222915" d="M574.37,446.379V326.628H454.619V446.379ZM457.856,422.158V329.866H571.132V443.144H457.856Z" transform="translate(-64.011 -64.023)" fill="#4dd0e1"/>
      <path id="Trazado_222916" data-name="Trazado 222916" d="M541.088,374.929a6.074,6.074,0,0,0-.082.808,6.15,6.15,0,0,0,.082.811,6.527,6.527,0,1,0,0-1.619Z" transform="translate(-122.495 -92.852)" fill="#c1eff5"/>
      <path id="Trazado_222917" data-name="Trazado 222917" d="M638.284,535.252a6.96,6.96,0,0,0-.082.81,6.888,6.888,0,0,0,.082.808,6.525,6.525,0,1,0,0-1.619Z" transform="translate(-188.296 -201.391)" fill="#c1eff5"/>
      <path id="Trazado_222918" data-name="Trazado 222918" d="M704.642,586a6.525,6.525,0,1,0,6.525-6.527A6.5,6.5,0,0,0,704.642,586Z" transform="translate(-233.276 -235.198)" fill="#4dd0e1"/>
    </g>
  </g>
</svg>
