<svg xmlns="http://www.w3.org/2000/svg" width="233.352" height="180.843" viewBox="0 0 233.352 180.843">
  <g id="Grupo_215624" data-name="Grupo 215624" transform="translate(3311.919 5192.614)">
    <g id="Grupo_215470" data-name="Grupo 215470" transform="translate(152.081 -244.614)">
      <g id="Grupo_211194" data-name="Grupo 211194" transform="translate(-3464 -4948)">
        <g id="Grupo_211172" data-name="Grupo 211172" transform="translate(6.954 7.074)">
          <path id="Trazado_223500" data-name="Trazado 223500" d="M102.9,182.17,165.972,213a7.351,7.351,0,0,0,3.363.817,4.865,4.865,0,0,0,2.147-.519h0l.01-.007a4.135,4.135,0,0,0,.962-.691c9.19-6.744,79.769-59.952,84.835-63.614,6.661-4.814,6.983-4.935,6.949-6.717L264.1,135a6.221,6.221,0,0,0-.055-.684c0-.017-.007-.035-.008-.051-.031-.219-.073-.439-.126-.66l0-.01c0-.008-.005-.017-.007-.025-.046-.185-.1-.37-.156-.555l0-.014q-.092-.287-.206-.573v0l0-.007a11.777,11.777,0,0,0-3.082-4.292l-.009-.008h0c-.155-.138-.314-.269-.475-.4l-.043-.035q-.252-.2-.512-.381l-.015-.012a10.574,10.574,0,0,0-1.113-.68l0,0h0c-.1-.052-.2-.108-.295-.157l-61.14-27.631c-2.2-.972-3.359-1.124-4.668-.225-2.14,1.47-69.518,47.208-88.875,60.136l-.138.092-.751.5-.225.15-.551.366-.324.215-.292.194-.482.319-.209.138-.451.3-.136.09-.421.276-.078.05-.366.238-.042.026c-.113.073-.217.14-.3.194l0,0a4.344,4.344,0,0,0-1.9,3.847l.152,7.9C96.847,176.775,99.535,180.531,102.9,182.17Z" transform="translate(-74.158 -97.999)" fill="#f5fafe"/>
          <path id="Trazado_223501" data-name="Trazado 223501" d="M271.382,220.189c-8.122-5.451-29.492-7.54-42.372.741C216.9,228.721,145.6,281.376,117.7,302.672c-16.923,12.92-27.58,15.455-43.857,10.435-6.536-2.016-10.911-5.089-12.651-8.887-1.318-2.877-1.082-6.079.7-9.517,3.317-6.395,17.229-16.072,24.2-20.481l4.81,2.128,9.051-6.239,7.768-1.888,10.63-7.622-.1-5.3-1.87-2.5-10.677-5.252-12.491,8.234-1.835,4.193-.676.466h0l-.855.588h0l-1.263.871h0l-.853.589h0l-1.119.772h0l-.855.588h0l-1.048.723h0l-.718.5-1.665,1.148.1,5.068c-6.295,4.047-20.861,13.974-24.793,21.553-2.359,4.547-2.634,9.073-.794,13.09,2.28,4.977,7.637,8.889,15.49,11.312a51.8,51.8,0,0,0,16.342,2.645c10.326-.2,19.83-4.548,32.028-13.861,27.844-21.258,98.957-73.779,111-81.522,11.868-7.632,30.9-4.81,36.892-.787,12.1,8.123,8.39,14.655,6.964,16.463-3.189,4.044-14.16,12.575-22.547,18.839a4.189,4.189,0,0,0-4.528.117l-.537.387h0l-1.746,1.259h0l-.764.551h0l-1.833,1.323h0l-.461.331h0l-1.211.875-1.314-.643c-2.708,1.716-7.878,1.815-7.878,1.815L214.977,278.3l.083,4.3c-1.358,1-7.745,5.822-8.116,5.944a.432.432,0,0,0-.226.379l.071,3.643a.432.432,0,0,0,.248.375l11.074,5.429a.511.511,0,0,0,.23.05.493.493,0,0,0,.24-.065c.5-.195,8.159-5.9,8.345-6.109a.431.431,0,0,0,.226-.38l0-.249,2.688,1.491L247.9,278.963s.018-.1.041-.286.055-.443.075-.755c.047-.6.068-1.388.058-2.183a4.971,4.971,0,0,1,1.063-1.785l-.067-3.477,2.8-2.016,1.117-.8h0l1.691-1.219a3.288,3.288,0,0,0,.362-.292c.012-.01.021-.021.031-.031a3.113,3.113,0,0,0,.281-.307h0a3.544,3.544,0,0,0,.45-3.272c8.6-6.424,20.062-15.343,23.58-19.805C284.839,235.8,281.775,227.164,271.382,220.189Zm-23.59,58.131c.014.1.028.183.039.26C247.818,278.493,247.8,278.406,247.793,278.321Z" transform="translate(-55.644 -151.025)" fill="#f5fafe"/>
        </g>
        <g id="Grupo_211193" data-name="Grupo 211193" transform="translate(0 0)">
          <g id="Grupo_211176" data-name="Grupo 211176" transform="translate(23.991)">
            <g id="Grupo_211173" data-name="Grupo 211173" transform="translate(1.97)">
              <path id="Trazado_223502" data-name="Trazado 223502" d="M90.307,152.2c6.5-4.269,92.181-64.762,94.612-66.5,1.323-.945,2.476-.756,4.651.341l60.447,31.164c3.328,1.843,5.936,5.961,5.936,9.373v7.866c0,1.927-.323,2.052-7.06,7.12-5.439,4.092-85.567,67.028-86.818,67.774S90.307,152.2,90.307,152.2Z" transform="translate(-90.307 -85.098)" fill="#e0e0e0"/>
              <path id="Trazado_223503" data-name="Trazado 223503" d="M183.168,88.467c-12.566,8.887-86.826,61.3-92.861,65.259,0,0,33.893,27.821,55.1,44.641l13.08-9.909Z" transform="translate(-90.307 -86.62)" fill="#efefef"/>
              <path id="Trazado_223504" data-name="Trazado 223504" d="M208.956,227.566l100.071-75.8a12.8,12.8,0,0,0-3-4.724L211.08,218.96Z" transform="translate(-143.897 -113.076)" fill="#bdbdbd"/>
              <path id="Trazado_223505" data-name="Trazado 223505" d="M212.83,217.579l94.944-71.918a11.244,11.244,0,0,0-2.127-1.677l-91.819,69.549Z" transform="translate(-145.647 -111.695)" fill="#efefef"/>
              <path id="Trazado_223506" data-name="Trazado 223506" d="M207.045,236.75c4.563,3.52,7.511,5.659,7.757,5.513,1.25-.746,81.379-63.681,86.818-67.774,6.737-5.068,7.06-5.193,7.06-7.12V159.5a7.779,7.779,0,0,0-.164-1.523L207.625,234.4Z" transform="translate(-143.034 -118.016)" fill="#e0e0e0"/>
              <path id="Trazado_223507" data-name="Trazado 223507" d="M208.571,231.457l-.468,1.893,100.89-76.42a9.9,9.9,0,0,0-.351-1.274Z" transform="translate(-143.512 -116.967)" fill="#efefef"/>
            </g>
            <path id="Trazado_223508" data-name="Trazado 223508" d="M158.3,264.523a6.9,6.9,0,0,1-3.339-.955L92.65,228.906c-3.327-1.844-5.936-5.963-5.936-9.374v-8.544c0-2.868,1.854-4.871,4.509-4.871a6.9,6.9,0,0,1,3.339.955l62.309,34.662c3.327,1.843,5.935,5.963,5.935,9.374v8.545C162.806,262.52,160.952,264.523,158.3,264.523Z" transform="translate(-86.714 -139.759)" fill="#fff"/>
            <g id="Grupo_211175" data-name="Grupo 211175" transform="translate(1.97 68.328)">
              <path id="Trazado_223509" data-name="Trazado 223509" d="M162.46,261.275c0,2.719-2.2,3.7-4.923,2.194L95.23,228.807c-2.719-1.506-4.923-4.933-4.923-7.652v-8.544c0-2.72,2.2-3.7,4.923-2.194l62.307,34.661c2.72,1.506,4.923,4.932,4.923,7.652Z" transform="translate(-90.307 -209.709)" fill="#424242"/>
              <g id="Grupo_211174" data-name="Grupo 211174" transform="translate(2.142 13.153)">
                <path id="Trazado_223510" data-name="Trazado 223510" d="M193.22,281.765c0,.543-.44.74-.984.439l-11.152-6.182a1.981,1.981,0,0,1-.985-1.53v-.541c0-.544.44-.74.985-.439l11.152,6.182a1.98,1.98,0,0,1,.984,1.53Z" transform="translate(-133.005 -251.616)" fill="#222221"/>
                <path id="Trazado_223511" data-name="Trazado 223511" d="M94.213,233.7v2.1a2.232,2.232,0,0,0,.985,1.672l9.137,5.317c.544.3.7.007,1.045-.411.274-.326.861-.515,2.231.2,1.041.541,39.225,22.078,39.607,22.288a1.128,1.128,0,0,1,.649,1.258,1.983,1.983,0,0,0,.985,1.53L160,273.829c.544.3.985.1.985-.439v-1.563Z" transform="translate(-94.213 -233.697)" fill="#222221"/>
                <path id="Trazado_223512" data-name="Trazado 223512" d="M193.22,282.689c0,.543-.44.74-.984.439l-11.152-6.182a1.981,1.981,0,0,1-.985-1.53Z" transform="translate(-133.005 -252.54)" fill="#498ead"/>
                <path id="Trazado_223513" data-name="Trazado 223513" d="M120.147,238.24c-.131.2-.478.2-.773,0s-.429-.517-.3-.714.478-.2.773,0S120.278,238.043,120.147,238.24Z" transform="translate(-105.42 -235.36)" fill="#222221"/>
              </g>
            </g>
          </g>
          <g id="Grupo_211192" data-name="Grupo 211192" transform="translate(0 71.195)">
            <g id="Grupo_211180" data-name="Grupo 211180" transform="translate(27.283 31.76)">
              <g id="Grupo_211177" data-name="Grupo 211177" transform="translate(9.147)">
                <path id="Trazado_223514" data-name="Trazado 223514" d="M109.4,286l1.91-4.5,12.617-8.646,10.547,5.9,1.817,2.742v5.737l-10.749,8.024-7.783,1.88Z" transform="translate(-109.399 -272.858)" fill="#616161"/>
                <path id="Trazado_223515" data-name="Trazado 223515" d="M117.451,299.009l3.943,5.257,7.783-1.88,10.749-8.024v-5.737l-11.405,7.951Z" transform="translate(-113.036 -279.98)" fill="#424242"/>
                <path id="Trazado_223516" data-name="Trazado 223516" d="M135.679,283.625c-.8.709-1.614,1.388-2.426,2.077s-1.635,1.362-2.455,2.038q-2.474,2.013-4.989,3.973l-.067.053-.09.024-3.957,1.071c-1.324.342-2.644.7-3.97,1.026l-.169.042-.143-.075-2.551-1.342-2.537-1.37L112.07,291l.1-.245c.3-.736.6-1.474.924-2.2s.627-1.465.969-2.188c-.191.776-.416,1.54-.63,2.309s-.447,1.529-.676,2.292l-.153-.383,2.609,1.227,2.595,1.256-.311-.033c1.315-.372,2.637-.72,3.955-1.082l3.967-1.035-.158.077c1.709-1.265,3.423-2.522,5.155-3.755.87-.612,1.734-1.231,2.616-1.828S134.785,284.206,135.679,283.625Z" transform="translate(-110.605 -277.721)" fill="#767676"/>
              </g>
              <g id="Grupo_211179" data-name="Grupo 211179" transform="translate(0 13.142)">
                <path id="Trazado_223517" data-name="Trazado 223517" d="M110.222,307.971v-6.923l-8.358-4.221-9.147,6.561v6.923l8.358,4.221Z" transform="translate(-92.717 -296.826)" fill="#222221"/>
                <path id="Trazado_223518" data-name="Trazado 223518" d="M101.075,319.935l-8.358-4.221v-6.923l8.358,4.222Z" transform="translate(-92.717 -302.23)" fill="#424242" opacity="0.5"/>
                <path id="Trazado_223519" data-name="Trazado 223519" d="M110.222,301.047l-8.358-4.221-9.147,6.561,8.358,4.222Z" transform="translate(-92.717 -296.826)" fill="#424242" opacity="0.5"/>
                <g id="Grupo_211178" data-name="Grupo 211178" transform="translate(1.544 0.49)">
                  <path id="Trazado_223520" data-name="Trazado 223520" d="M103.873,313.346a.471.471,0,1,0,.941,0v-3.167a.472.472,0,0,0-.259-.42L96.4,305.641l-.863.62,8.34,4.208Z" transform="translate(-95.533 -301.298)" fill="#424242"/>
                  <path id="Trazado_223521" data-name="Trazado 223521" d="M107.354,310.82a.471.471,0,1,0,.941,0v-3.167a.473.473,0,0,0-.258-.421l-8.135-4.1-.864.619,8.315,4.2Z" transform="translate(-97.117 -300.162)" fill="#424242"/>
                  <path id="Trazado_223522" data-name="Trazado 223522" d="M110.992,308.215a.471.471,0,0,0,.943,0v-3.168a.473.473,0,0,0-.259-.421l-8.138-4.106-.863.619,8.318,4.2Z" transform="translate(-98.758 -298.985)" fill="#424242"/>
                  <path id="Trazado_223523" data-name="Trazado 223523" d="M114.937,305.438a.471.471,0,0,0,.942,0v-3.167a.472.472,0,0,0-.259-.422l-8.181-4.129-.864.619,8.361,4.22Z" transform="translate(-100.521 -297.72)" fill="#424242"/>
                </g>
              </g>
            </g>
            <g id="Grupo_211181" data-name="Grupo 211181">
              <path id="Trazado_223524" data-name="Trazado 223524" d="M75.538,324.585a48.062,48.062,0,0,1-16.248-3.2c-7.785-2.784-13.053-7.127-15.232-12.558-1.757-4.383-1.4-9.273,1.043-14.143,5.122-10.221,27.135-24.117,28.07-24.7,1.1-.689,3.6,3.3,2.5,3.989-6.057,3.8-22.6,15.318-26.363,22.825-1.845,3.682-2.142,7.14-.883,10.28,1.663,4.144,5.966,7.559,12.446,9.877,16.137,5.768,26.814,3.249,43.941-10.373,28.229-22.455,100.355-77.923,112.585-86.1,13-8.69,34.277-5.984,42.273.082,10.232,7.762,13.12,17.168,7.538,24.548-5.864,7.752-33.032,27.9-34.186,28.756a2.355,2.355,0,1,1-2.8-3.785c.277-.2,27.772-20.6,33.232-27.814,1.457-1.926,5.286-8.914-6.629-17.954-5.9-4.475-24.826-7.926-36.81.082-12.157,8.124-84.092,63.452-112.271,85.865C95.4,320.08,85.84,324.584,75.538,324.585Z" transform="translate(-42.962 -214.938)" fill="#424242"/>
            </g>
            <g id="Grupo_211184" data-name="Grupo 211184" transform="translate(178.687 46.529)">
              <g id="Grupo_211182" data-name="Grupo 211182">
                <path id="Trazado_223525" data-name="Trazado 223525" d="M375.3,318.691a5.023,5.023,0,0,1-4.453-8.83l12.433-9.33c4.9-3.284,9.877,5.3,6.028,8.032l-12.433,9.33A5.013,5.013,0,0,1,375.3,318.691Z" transform="translate(-368.836 -299.793)" fill="#222221"/>
              </g>
              <g id="Grupo_211183" data-name="Grupo 211183" transform="translate(4.608 1.127)">
                <path id="Trazado_223526" data-name="Trazado 223526" d="M393.81,302.595a5.428,5.428,0,0,1,3.284,2.423.338.338,0,0,0,.379.137.36.36,0,0,0,.09-.043.341.341,0,0,0,.094-.47,6.094,6.094,0,0,0-3.715-2.711,4.265,4.265,0,0,0-1.217-.063l-1.766,1.325A3.793,3.793,0,0,1,393.81,302.595Z" transform="translate(-383.437 -301.849)" fill="#424242"/>
                <path id="Trazado_223527" data-name="Trazado 223527" d="M404.779,305.056a.339.339,0,1,0-.565.375c1.342,2.012,1.731,4.883-.187,6.247a.347.347,0,0,0-.1.114l1.227-.92a3.085,3.085,0,0,0,.685-.667A6.512,6.512,0,0,0,404.779,305.056Z" transform="translate(-389.294 -303.229)" fill="#424242"/>
                <path id="Trazado_223528" data-name="Trazado 223528" d="M389.142,306.061a5.428,5.428,0,0,1,3.283,2.423.338.338,0,1,0,.563-.376,6.1,6.1,0,0,0-3.715-2.712,4.24,4.24,0,0,0-1.247-.059l-1.854,1.392c.007,0,.013,0,.02-.009A3.83,3.83,0,0,1,389.142,306.061Z" transform="translate(-381.274 -303.415)" fill="#424242"/>
                <path id="Trazado_223529" data-name="Trazado 223529" d="M400.545,308.328a.338.338,0,1,0-.564.375c1.34,2.012,1.731,4.887-.188,6.248a.228.228,0,0,0-.033.035l1.8-1.35A6.426,6.426,0,0,0,400.545,308.328Z" transform="translate(-387.412 -304.707)" fill="#424242"/>
                <path id="Trazado_223530" data-name="Trazado 223530" d="M384.912,309.236a5.412,5.412,0,0,1,3.283,2.423.339.339,0,0,0,.379.136.279.279,0,0,0,.09-.042.34.34,0,0,0,.1-.47,6.087,6.087,0,0,0-3.716-2.712,4.328,4.328,0,0,0-1.261-.06l-1.866,1.4a.208.208,0,0,0,.044-.019A3.819,3.819,0,0,1,384.912,309.236Z" transform="translate(-379.353 -304.849)" fill="#424242"/>
                <path id="Trazado_223531" data-name="Trazado 223531" d="M396.049,311.695a.338.338,0,0,0-.469-.094.342.342,0,0,0-.094.471c1.341,2.011,1.731,4.883-.187,6.246a.325.325,0,0,0-.037.041l1.8-1.354A6.424,6.424,0,0,0,396.049,311.695Z" transform="translate(-385.38 -306.228)" fill="#424242"/>
                <path id="Trazado_223532" data-name="Trazado 223532" d="M380.295,312.7a5.431,5.431,0,0,1,3.283,2.424.333.333,0,0,0,.378.136.236.236,0,0,0,.091-.042.337.337,0,0,0,.094-.469,6.087,6.087,0,0,0-3.714-2.713,4.223,4.223,0,0,0-1.291-.057l-1.9,1.423a.353.353,0,0,0,.1-.041A3.833,3.833,0,0,1,380.295,312.7Z" transform="translate(-377.24 -306.413)" fill="#424242"/>
                <path id="Trazado_223533" data-name="Trazado 223533" d="M391.9,314.967a.338.338,0,1,0-.562.377c1.271,1.91,1.683,4.591.084,6.026l1.511-1.136A6.459,6.459,0,0,0,391.9,314.967Z" transform="translate(-383.582 -307.707)" fill="#424242"/>
              </g>
            </g>
            <g id="Grupo_211186" data-name="Grupo 211186" transform="translate(159.338 51.517)">
              <path id="Trazado_223534" data-name="Trazado 223534" d="M367.7,313.5l-8.284-4.611c-2.735,1.8-7.893,1.8-7.893,1.8L333.55,324.676l5.108,3.213-5.108,3.976,14.535,9.143,18.286-14.927a6.239,6.239,0,0,1,1.329-5.392Z" transform="translate(-333.55 -308.89)" fill="#424242"/>
              <path id="Trazado_223535" data-name="Trazado 223535" d="M333.55,324.676l17.973-13.988s5.158,0,7.893-1.8L367.7,313.5a6.239,6.239,0,0,0-1.329,5.392l-18.286,14.926Z" transform="translate(-333.55 -308.89)" fill="#616161"/>
              <path id="Trazado_223536" data-name="Trazado 223536" d="M348.084,354.011l-14.534-9.143v-7.189l14.534,9.142Z" transform="translate(-333.55 -321.893)" fill="#222221"/>
              <path id="Trazado_223537" data-name="Trazado 223537" d="M393.212,327.132s.02.113.045.309.063.477.089.814c.06.673.1,1.573.1,2.471s-.04,1.8-.1,2.471c-.026.338-.069.618-.088.815s-.047.308-.047.308-.021-.111-.046-.308-.063-.477-.089-.815c-.06-.674-.1-1.573-.1-2.471s.041-1.8.1-2.471c.026-.337.069-.618.089-.814S393.212,327.132,393.212,327.132Z" transform="translate(-360.391 -317.129)" fill="#616161"/>
              <path id="Trazado_223538" data-name="Trazado 223538" d="M366.37,327.132l-18.286,14.925-14.534-9.142Z" transform="translate(-333.55 -317.129)" fill="#767676"/>
              <g id="Grupo_211185" data-name="Grupo 211185" transform="translate(4.061 6.497)">
                <path id="Trazado_223539" data-name="Trazado 223539" d="M351.767,337.175a.458.458,0,0,1-.25-.075l-10.354-6.766a.454.454,0,0,1-.024-.746l11.792-8.761a.453.453,0,0,1,.5-.029l10.356,5.925a.461.461,0,0,1,.227.358.454.454,0,0,1-.167.39l-11.79,9.6A.456.456,0,0,1,351.767,337.175Zm-9.56-7.245,9.529,6.226,11.018-8.971-9.519-5.447Z" transform="translate(-340.956 -320.739)" fill="#424242"/>
              </g>
            </g>
            <g id="Grupo_211191" data-name="Grupo 211191" transform="translate(150.897 71.721)">
              <path id="Trazado_223540" data-name="Trazado 223540" d="M338.428,351.9l-10.94-6.1a.471.471,0,0,0-.468,0c-.515.365-8.039,6.3-8.442,6.435,0,0,10.91,11.056,11.417,10.856s8.251-6.212,8.441-6.434a.47.47,0,0,0,.232-.406v-3.941A.472.472,0,0,0,338.428,351.9Z" transform="translate(-318.347 -345.737)" fill="#e0e0e0"/>
              <path id="Trazado_223541" data-name="Trazado 223541" d="M345.414,357.206a.472.472,0,0,0-.241-.412l-.394-.219-11.267,8.645c.4.382.784.742,1.136,1.068l10.766-8.259Z" transform="translate(-325.091 -350.632)" fill="#bdbdbd"/>
              <path id="Trazado_223542" data-name="Trazado 223542" d="M334.941,366.165l10.962-8.41V357.5a.467.467,0,0,0-.09-.271l-11.219,8.606Z" transform="translate(-325.58 -350.929)" fill="#efefef"/>
              <path id="Trazado_223543" data-name="Trazado 223543" d="M329.565,368.458a.477.477,0,0,1-.229-.059l-10.94-6.1a.471.471,0,0,1-.241-.411v-3.942a.47.47,0,0,1,.233-.405.465.465,0,0,1,.239-.065.477.477,0,0,1,.229.059l10.94,6.1a.47.47,0,0,1,.241.41v3.941a.471.471,0,0,1-.232.407A.465.465,0,0,1,329.565,368.458Z" transform="translate(-318.155 -351.037)" fill="#fff"/>
              <g id="Grupo_211187" data-name="Grupo 211187" transform="translate(0.471 6.905)">
                <path id="Trazado_223544" data-name="Trazado 223544" d="M329.953,364.431l-10.939-6.1V360.5l10.939,5.99Z" transform="translate(-319.015 -358.329)" fill="#498ead"/>
                <path id="Trazado_223545" data-name="Trazado 223545" d="M319.015,362.291v1.77l10.939,6.1v-1.881Z" transform="translate(-319.015 -360.119)" fill="#222221"/>
              </g>
              <g id="Grupo_211190" data-name="Grupo 211190" transform="translate(6.433 3.107)">
                <g id="Grupo_211188" data-name="Grupo 211188">
                  <path id="Trazado_223546" data-name="Trazado 223546" d="M331.84,353.7a.053.053,0,0,1-.031-.009l-1.9-1.181a.048.048,0,0,1-.024-.042.05.05,0,0,1,.021-.044l1.409-1.012a.057.057,0,0,1,.06,0l1.9,1.085a.049.049,0,0,1,.027.041.051.051,0,0,1-.02.045l-1.408,1.109A.07.07,0,0,1,331.84,353.7Z" transform="translate(-329.887 -351.402)" fill="#c8c8c8"/>
                </g>
                <path id="Trazado_223547" data-name="Trazado 223547" d="M334.162,352.495l-1.9-1.085a.057.057,0,0,0-.06,0l-.352.253,1.518.868a.053.053,0,0,1,.028.042.055.055,0,0,1-.02.045l-1.062.834.381.237a.053.053,0,0,0,.031.009.07.07,0,0,0,.035-.012l1.408-1.109a.051.051,0,0,0,.02-.045A.049.049,0,0,0,334.162,352.495Z" transform="translate(-330.775 -351.402)" fill="#fff"/>
                <g id="Grupo_211189" data-name="Grupo 211189" transform="translate(5.449 3.043)">
                  <path id="Trazado_223548" data-name="Trazado 223548" d="M341.777,359.25a.062.062,0,0,1-.03-.009l-1.9-1.182a.052.052,0,0,1-.025-.043.057.057,0,0,1,.022-.044l1.41-1.011a.055.055,0,0,1,.059,0l1.9,1.085a.054.054,0,0,1,.027.042.057.057,0,0,1-.02.046l-1.41,1.108A.052.052,0,0,1,341.777,359.25Z" transform="translate(-339.824 -356.952)" fill="#c8c8c8"/>
                </g>
                <path id="Trazado_223549" data-name="Trazado 223549" d="M344.1,358.043l-1.9-1.085a.055.055,0,0,0-.059,0l-.354.254,1.518.866a.049.049,0,0,1,.026.041.046.046,0,0,1-.019.045l-1.061.836.38.237a.062.062,0,0,0,.03.009.052.052,0,0,0,.033-.013l1.41-1.108a.057.057,0,0,0,.02-.046A.054.054,0,0,0,344.1,358.043Z" transform="translate(-335.263 -353.909)" fill="#fff"/>
              </g>
            </g>
          </g>
        </g>
      </g>
    </g>
  </g>
</svg>
