<svg xmlns="http://www.w3.org/2000/svg" xmlns:xlink="http://www.w3.org/1999/xlink" width="400" height="313" viewBox="0 0 400 313">
  <defs>
    <clipPath id="clip-path">
      <rect id="Rectángulo_303451" data-name="Rectángulo 303451" width="400" height="313" transform="translate(915 966)" fill="none" stroke="#707070" stroke-width="1"/>
    </clipPath>
  </defs>
  <g id="Grupo_215599" data-name="Grupo 215599" transform="translate(-915 -922)">
    <g id="Enmascarar_grupo_67" data-name="Enmascarar grupo 67" transform="translate(0 -44)" clip-path="url(#clip-path)">
      <g id="Grupo_210637" data-name="Grupo 210637" transform="translate(297 -13)">
        <g id="Grupo_210695" data-name="Grupo 210695" transform="translate(649 982)">
          <g id="Grupo_210649" data-name="Grupo 210649" transform="translate(3.535)">
            <path id="Trazado_222249" data-name="Trazado 222249" d="M526.418,378.948a104.857,104.857,0,1,0-195.273-54.626,104.85,104.85,0,1,0,95.448,179.661,80.929,80.929,0,1,0,99.826-125.035Z" transform="translate(-251.512 -220.984)" fill="#bddcf6" fill-rule="evenodd"/>
          </g>
          <g id="Grupo_210650" data-name="Grupo 210650" transform="translate(0 45.677)">
            <circle id="Elipse_16235" data-name="Elipse 16235" cx="20.305" cy="20.305" r="20.305" transform="translate(0 28.715) rotate(-45)" fill="#bddcf6"/>
          </g>
          <g id="Grupo_210651" data-name="Grupo 210651" transform="translate(46.04 32.532)">
            <ellipse id="Elipse_16236" data-name="Elipse 16236" cx="10.093" cy="10.034" rx="10.093" ry="10.034" transform="translate(0 19.871) rotate(-79.857)" fill="#bddcf6"/>
          </g>
        </g>
        <g id="Grupo_210636" data-name="Grupo 210636" transform="translate(677 979)">
          <g id="Shadow" transform="translate(47.415 152.869)">
            <ellipse id="Shadow-2" data-name="Shadow" cx="48.719" cy="28.128" rx="48.719" ry="28.128" transform="translate(0 78.874)" fill="#727997" opacity="0.55"/>
            <ellipse id="Shadow-3" data-name="Shadow" cx="69.502" cy="34.585" rx="69.502" ry="34.585" transform="translate(67.312 65.98) rotate(-28.337)" fill="#727997" opacity="0.55"/>
          </g>
          <g id="Plants" transform="translate(49.217 177.026)">
            <g id="Plants-2" data-name="Plants" transform="translate(187.569)">
              <g id="Grupo_210616" data-name="Grupo 210616" transform="translate(0.001)">
                <path id="Trazado_222196" data-name="Trazado 222196" d="M369.3,318.077c6.757-8.054,17.339-13.3,29.239-16.4,11.748-3.057,13.854-10.285,6.067-12.632-8.829-2.659-19.844,2.228-26.947,9.023-12.379,11.844-13.93,20.909-13.93,20.909Z" transform="translate(-363.729 -288.311)" fill="#83cfdf"/>
                <path id="Trazado_222197" data-name="Trazado 222197" d="M369.3,318.077c6.757-8.054,17.339-13.3,29.239-16.4,11.748-3.057,13.854-10.285,6.067-12.632-8.829-2.659-19.844,2.228-26.947,9.023-12.379,11.844-13.93,20.909-13.93,20.909Z" transform="translate(-363.729 -288.311)" opacity="0.15"/>
                <g id="Grupo_210615" data-name="Grupo 210615" transform="translate(1.748 3.53)">
                  <path id="Trazado_222198" data-name="Trazado 222198" d="M366.622,319.225a.344.344,0,0,1-.309-.493c10.027-20.573,32.216-25.635,37.61-25.254a.343.343,0,0,1,.317.368.35.35,0,0,1-.368.317c-5.266-.4-27.07,4.613-36.943,24.869A.343.343,0,0,1,366.622,319.225Z" transform="translate(-366.278 -293.458)" fill="#fff"/>
                </g>
              </g>
              <g id="Grupo_210618" data-name="Grupo 210618" transform="translate(0 18.416)">
                <path id="Trazado_222199" data-name="Trazado 222199" d="M363.727,328.654a1.874,1.874,0,0,0,2.833,1.6c6.281-3.658,15.446-5.678,30.276-1.459,7.884,2.243,11.765.743,13.429-2.468,1.847-3.566-2.066-7.013-6.519-8.639-15.177-5.546-28.875-1.759-40.019,9.3Z" transform="translate(-363.727 -315.163)" fill="#83cfdf"/>
                <g id="Grupo_210617" data-name="Grupo 210617" transform="translate(0.521 4.61)">
                  <path id="Trazado_222200" data-name="Trazado 222200" d="M364.829,331.06a.343.343,0,0,1-.228-.6c13.1-11.712,33.405-9.432,41.089-4.864a.343.343,0,1,1-.351.589c-7.527-4.475-27.427-6.7-40.281,4.786A.341.341,0,0,1,364.829,331.06Z" transform="translate(-364.486 -321.885)" fill="#fff"/>
                </g>
              </g>
            </g>
            <g id="Plants-3" data-name="Plants" transform="translate(0 25.97)">
              <g id="Grupo_210620" data-name="Grupo 210620" transform="translate(4.159)">
                <path id="Trazado_222201" data-name="Trazado 222201" d="M133.072,359.425c-5.76-8.794-15.649-15.255-27.1-19.733-11.306-4.422-12.544-11.848-4.534-13.259,9.08-1.6,19.443,4.554,25.694,12.14,10.9,13.221,11.366,22.406,11.366,22.406Z" transform="translate(-96.298 -326.179)" fill="#83cfdf"/>
                <path id="Trazado_222202" data-name="Trazado 222202" d="M133.072,359.425c-5.76-8.794-15.649-15.255-27.1-19.733-11.306-4.422-12.544-11.848-4.534-13.259,9.08-1.6,19.443,4.554,25.694,12.14,10.9,13.221,11.366,22.406,11.366,22.406Z" transform="translate(-96.298 -326.179)" opacity="0.15"/>
                <g id="Grupo_210619" data-name="Grupo 210619" transform="translate(5.922 3.222)">
                  <path id="Trazado_222203" data-name="Trazado 222203" d="M139.294,360.844a.348.348,0,0,0,.154-.016.342.342,0,0,0,.211-.436c-7.53-21.613-28.966-29.257-34.368-29.515a.344.344,0,0,0-.358.328.35.35,0,0,0,.328.358c5.277.22,26.337,7.775,33.751,29.054A.34.34,0,0,0,139.294,360.844Z" transform="translate(-104.933 -330.876)" fill="#fff"/>
                </g>
              </g>
              <g id="Grupo_210622" data-name="Grupo 210622" transform="translate(0 19.263)">
                <path id="Trazado_222204" data-name="Trazado 222204" d="M136.643,369.386a2.853,2.853,0,0,1-4.426,2.032c-5.813-3.895-14.476-6.421-28.665-4.147-8.094,1.3-11.771-.65-13.044-4.036-1.413-3.759,2.879-6.72,7.493-7.81,15.725-3.716,28.88,1.66,38.641,13.961Z" transform="translate(-90.235 -354.266)" fill="#83cfdf"/>
                <g id="Grupo_210621" data-name="Grupo 210621" transform="translate(5.186 4.678)">
                  <path id="Trazado_222205" data-name="Trazado 222205" d="M137.931,373.365a.343.343,0,0,0,.3-.568C126.6,359.621,106.17,359.49,98,363.12a.343.343,0,1,0,.279.626c8-3.556,28.026-3.421,39.435,9.5A.337.337,0,0,0,137.931,373.365Z" transform="translate(-97.797 -361.087)" fill="#fff"/>
                </g>
              </g>
            </g>
          </g>
          <g id="Check_mark" data-name="Check mark" transform="translate(115.985 44.543)">
            <g id="Check_Mark-2" data-name="Check Mark" transform="translate(0 0)">
              <g id="Circle" transform="translate(0 16.323)">
                <path id="Trazado_222206" data-name="Trazado 222206" d="M320.114,137.616l0-.006-.108-.055-.012-.006L293.853,122.5l-.025-.013-.153-.078,0,.006c-12.213-6.161-28.509-4.313-46.036,7.02-35.213,22.77-62.045,75.179-59.931,117.059,1.053,20.875,9.1,35.189,21.268,41.481l0,0,.108.055.014.007L235.241,303.1l.011.005.128.066,0-.005c12.216,6.18,28.526,4.338,46.068-7.006,35.212-22.77,62.045-75.178,59.932-117.059C340.329,158.222,332.28,143.908,320.114,137.616Z" transform="translate(-187.589 -118.941)" fill="#bfa035"/>
                <path id="Trazado_222207" data-name="Trazado 222207" d="M234.351,333.962,209.1,319.383h-.019l-.118-.071c-12.16-6.308-20.2-20.623-21.256-41.469-.943-18.677,3.883-39.438,12.615-58.719l.176-.422,25.977,15.471c-8.753,19.281-13.56,40.041-12.617,58.719C214.89,313.32,222.62,327.46,234.351,333.962Z" transform="translate(-187.589 -150.283)" fill="#8f7829"/>
                <path id="Trazado_222208" data-name="Trazado 222208" d="M293.435,303.052c35.212-22.77,62.044-75.178,59.931-117.059s-32.371-57.372-67.584-34.6-62.045,75.178-59.932,117.059S258.222,325.822,293.435,303.052Z" transform="translate(-199.573 -125.837)" fill="#f0c942"/>
              </g>
              <path id="Shadow-4" data-name="Shadow" d="M330.961,141.434l-44.132,90.9-9.5-10.295a15.613,15.613,0,0,0-22.94,21.186l25.023,27.107a15.529,15.529,0,0,0,10.625,5q.432.023.866.023a16.025,16.025,0,0,0,2.262-.163,15.593,15.593,0,0,0,11.761-8.626L355.541,162.31C350.373,150.75,341.727,143.562,330.961,141.434Z" transform="translate(-207.278 -109.684)" fill="#37474f"/>
              <g id="Grupo_210623" data-name="Grupo 210623" transform="translate(47.745)">
                <path id="Trazado_222209" data-name="Trazado 222209" d="M368.983,96.945q-.413-.238-.848-.449a13.579,13.579,0,0,0-18.12,6.269L293.856,218.438l-3.19-3.457a13.31,13.31,0,0,0-3.184-2.542c-1.676-.96-8.794-5.083-9.945-5.748a13.559,13.559,0,0,0-16.747,20.936l25.023,27.107a13.447,13.447,0,0,0,3.23,2.569c1.634.93,8.727,5.042,9.888,5.716a13.512,13.512,0,0,0,6.066,1.8,13.826,13.826,0,0,0,2.714-.12,13.543,13.543,0,0,0,10.213-7.489l66.438-136.844a13.58,13.58,0,0,0-5.41-17.666C378.674,102.541,370.757,97.966,368.983,96.945Z" transform="translate(-257.205 -95.139)" fill="#83cfdf"/>
                <path id="Trazado_222210" data-name="Trazado 222210" d="M368.983,96.945q-.413-.238-.848-.449a13.579,13.579,0,0,0-18.12,6.269L293.856,218.438l-3.19-3.457a13.31,13.31,0,0,0-3.184-2.542c-1.676-.96-8.794-5.083-9.945-5.748a13.559,13.559,0,0,0-16.747,20.936l25.023,27.107a13.447,13.447,0,0,0,3.23,2.569c1.634.93,8.727,5.042,9.888,5.716a13.512,13.512,0,0,0,6.066,1.8,13.826,13.826,0,0,0,2.714-.12,13.543,13.543,0,0,0,10.213-7.489l66.438-136.844a13.58,13.58,0,0,0-5.41-17.666C378.674,102.541,370.757,97.966,368.983,96.945Z" transform="translate(-257.205 -95.139)" opacity="0.15"/>
                <path id="Trazado_222211" data-name="Trazado 222211" d="M299.386,321.822c-1.156-.671-8.252-4.784-9.887-5.716a13.543,13.543,0,0,1-3.232-2.567l-25.023-27.106a13.582,13.582,0,0,1-2.587-4.119l9.951,5.742a13.341,13.341,0,0,0,2.6,4.126l25.024,27.105A13.621,13.621,0,0,0,299.386,321.822Z" transform="translate(-257.661 -153.944)" opacity="0.15"/>
                <path id="Trazado_222212" data-name="Trazado 222212" d="M379.907,105.928a13.43,13.43,0,0,0-3.142,4.171L319,229.077l-8.354-9.056,56.158-115.67a13.274,13.274,0,0,1,3.149-4.171Z" transform="translate(-273.995 -96.723)" opacity="0.15"/>
                <path id="Check" d="M382.657,104.881a13.579,13.579,0,0,0-18.12,6.269L306.774,230.127l-11.546-12.512a13.556,13.556,0,0,0-19.915,18.4l25.023,27.107a13.481,13.481,0,0,0,9.224,4.336,13.826,13.826,0,0,0,2.714-.12,13.543,13.543,0,0,0,10.213-7.489L388.925,123A13.575,13.575,0,0,0,382.657,104.881Z" transform="translate(-261.767 -97.774)" fill="#83cfdf"/>
              </g>
            </g>
          </g>
          <g id="Character" transform="translate(42.185 21.484)">
            <g id="Character-2" data-name="Character">
              <g id="Grupo_210624" data-name="Grupo 210624" transform="translate(0 25.273)">
                <path id="Trazado_222213" data-name="Trazado 222213" d="M132.959,116.623c-5.231,0-8.814,1.362-12.529,6.655-3.408,4.854-12.784,21.039-12.784,21.039s-6.837-14.069-7.548-16.876-.647-4.053.028-5.271a11.011,11.011,0,0,0,1.732-4.825c.265-3.37,1.092-6.258.335-6.354-2.095-.119-2.173,2.566-3.273,4.155a1.311,1.311,0,0,1-2.108-.231c-.462-.94-.213-2.481-.438-3.592a15.555,15.555,0,0,1,.3-1.835,8.169,8.169,0,0,0,2.4.067c.9,1.42,1.525,2.018,2.787,1.442.166-.266-.542-2.088-1.362-3.4a.978.978,0,0,0-.563-.431,10.683,10.683,0,0,0-4.651-.128.869.869,0,0,0-.6.332,11.4,11.4,0,0,0-1.339,2.721c-.093.291-.363.285-.431.031a58.572,58.572,0,0,1-.678-10.22c0-1.732-2.536-2-2.624.477a80.355,80.355,0,0,0,.171,9.995c.039.3-.3.443-.422.115a41.422,41.422,0,0,1-1.969-10.837c-.121-1.643-2.782-1.915-2.763.4a58.583,58.583,0,0,0,1.523,12.18c.077.29-.185.545-.386.215a39.689,39.689,0,0,1-2.981-7.515c-.564-1.984-3.217-1.481-2.754.994.833,4.438,2.149,10.054,4.112,14.062,2.1,4.288,3.915,6.432,4.954,9.8s5.358,22.442,9.972,29.877c3.615,5.824,7.752,5.289,12.2,2.216s20.354-25.234,20.354-25.234Z" transform="translate(-79.981 -98.366)" fill="#9e6767"/>
                <path id="Trazado_222214" data-name="Trazado 222214" d="M120.319,164.581a21.5,21.5,0,0,1,2.57,6.8,11.878,11.878,0,0,0-1.572-8.519Z" transform="translate(-92.654 -118.631)" fill="#874c4c"/>
                <path id="Trazado_222215" data-name="Trazado 222215" d="M147.666,124.949A14.12,14.12,0,0,0,138,126.905c-3.7,2.323-4.978,5.566-6.766,8.4s-7.979,12.868-7.979,12.868,2.27,9.527,11.3,11.49l13.517-18.342Z" transform="translate(-93.577 -106.674)" fill="#69a4b2"/>
              </g>
              <g id="Grupo_210628" data-name="Grupo 210628" transform="translate(33.362 105.691)">
                <g id="Grupo_210625" data-name="Grupo 210625" transform="translate(4.416 98.278)">
                  <path id="Trazado_222216" data-name="Trazado 222216" d="M163.533,369.226c.659-.084,1.594,2.252,1.607,3.014a9.73,9.73,0,0,1-1.763,3.936,27.689,27.689,0,0,0-3.324,5.916,20.034,20.034,0,0,1-3.647,6.264c-2.4,3.082-8.038,8.235-16.6,5.991a7.894,7.894,0,0,1-3.892-1.967,2.543,2.543,0,0,1-.6-2.619Z" transform="translate(-135.099 -362.159)" fill="#263238"/>
                  <path id="Trazado_222217" data-name="Trazado 222217" d="M146.683,363.318c-.007.024-.013.049-.019.073a5.5,5.5,0,0,0,.057,1.928,13.469,13.469,0,0,1-3.246,10.557,20.229,20.229,0,0,1-4,3.234c-4.338,2.769-4.8,4.619-4.192,7.415,1.45,3.258,11.283,5.24,16.934.388a16.6,16.6,0,0,0,5.38-7.315,52.688,52.688,0,0,1,2.851-6.035c1.1-2.055,3.168-4.376,3.229-6.5.033-1.165-1.121-3.331-2.241-5.116-1.028-1.638-2.088-3.2-3.012-3.013l.254.926c-.77.8-1.889,1.1-2.565,2.04-.833,1.159-.8,2.718-1.322,4.048a.466.466,0,0,1-.252.308.33.33,0,0,1-.361-.184.973.973,0,0,1-.08-.428q-.03-1-.06-2a1.667,1.667,0,0,0-.289-1.082c-.535-.6-1.854-.534-2.586-.563a28.094,28.094,0,0,0-2.955.178,1.443,1.443,0,0,0-.962.254A1.738,1.738,0,0,0,146.683,363.318Z" transform="translate(-135.065 -358.923)" fill="#37474f"/>
                </g>
                <g id="Grupo_210626" data-name="Grupo 210626">
                  <path id="Trazado_222218" data-name="Trazado 222218" d="M130.443,278.425c2.285,7.508,12.961,33.505,13.6,35.07s2.124,5.16,2.124,5.16a8,8,0,0,0,4.337.18c.224,2.491.6,6.395.748,8.364a33.535,33.535,0,0,1-.243,7.362c-.419,1.923-.9,3.937-1.265,5.865-.16.853-.321,1.706-.449,2.565a4.293,4.293,0,0,0,.215,2.694,3.379,3.379,0,0,0,.847.962,7.554,7.554,0,0,0,5.38,1.579,5.659,5.659,0,0,0,2.851-.944c1.659-1.189,2.244-3.254,3.088-5.009.916-1.9.619-2.112.7-4.151.055-1.427.45-5.049,1.021-8.833s3.026-17.09,4.2-30.349a108.7,108.7,0,0,0,0-17.693c9.369-25.453,13.54-40.585,14.765-49.039,1.245-8.587.648-11.642.49-16.585l-45.558,1.1C133.635,240.268,127.378,268.354,130.443,278.425ZM152.7,238.041Z" transform="translate(-128.94 -215.624)" fill="#9e6767"/>
                  <path id="Trazado_222219" data-name="Trazado 222219" d="M129.419,260.582c.939-8.655,7.412-41.925,7.412-41.925h45.9s.29,6.386.207,9.319-1.024,8.3-2.668,15.076-7.712,25.983-8.886,28.818-3.445,11.023-3.445,11.023c1.125,15.393-1.8,29.2-4,47.562,0,0-.635,2.479-7.14,1.988-6.321-.477-7.6-2.807-7.6-2.807l-.423-15.84s-3.457,1.06-5.486.575c0,0-13.586-33.538-14.243-35.559S128.48,269.237,129.419,260.582Z" transform="translate(-128.627 -216.577)" fill="#83cfdf"/>
                  <path id="Trazado_222220" data-name="Trazado 222220" d="M129.419,260.582c.939-8.655,7.412-41.925,7.412-41.925h45.9s.29,6.386.207,9.319-1.024,8.3-2.668,15.076-7.712,25.983-8.886,28.818-3.445,11.023-3.445,11.023c1.125,15.393-1.8,29.2-4,47.562,0,0-.635,2.479-7.14,1.988-6.321-.477-7.6-2.807-7.6-2.807l-.423-15.84s-3.457,1.06-5.486.575c0,0-13.586-33.538-14.243-35.559S128.48,269.237,129.419,260.582Z" transform="translate(-128.627 -216.577)" fill="#69a4b2"/>
                  <path id="Trazado_222221" data-name="Trazado 222221" d="M154.527,245.46c-6.5-5.86-7.944-10.523-7.944-10.523a43.328,43.328,0,0,0,11.444,9.172S151.856,276.7,152.3,283.4s2.119,35.509,2.119,35.509c.012.276-4.376-30.468-4.5-32.925C149.6,279.514,154.527,245.46,154.527,245.46Z" transform="translate(-134.268 -221.692)" opacity="0.2"/>
                </g>
                <g id="Grupo_210627" data-name="Grupo 210627" transform="translate(3.392 120.09)">
                  <path id="Trazado_222222" data-name="Trazado 222222" d="M165.033,405.464c.641.182.56,2.092.272,2.8a8.692,8.692,0,0,1-2.966,3.075,14.35,14.35,0,0,0-4.352,4.688,21.967,21.967,0,0,1-6.825,6.661,16.493,16.493,0,0,1-12,1.669c-4.306-1.223-4.707-2.278-4.666-3.9Z" transform="translate(-133.861 -395.356)" fill="#263238"/>
                  <path id="Trazado_222223" data-name="Trazado 222223" d="M151.423,390.861c-1.129,5.513-3.1,9.514-7.663,12.907-3.629,2.7-6.268,4.068-9.163,6.48-1.234,1.027-1.337,3.217-.392,5.576,1.957,1.572,4.742,2.472,8.482,2.466,4.179-.006,5.788-.743,8.187-2.386a21.578,21.578,0,0,0,3.276-2.752c2.008-2.015,3.408-4.5,4.858-6.1s4.585-3.229,5.476-5.157c.49-1.059.282-3.508-.046-5.593-.3-1.913.285-5.273-.638-5.469.02,0-.126,1.369-.126,1.369-.076.311-.269.468-.916.691a4.654,4.654,0,0,1-1.765.052,1.043,1.043,0,0,0-1.18.334c-.619.73-.784,1.756-1.577,2.359a.49.49,0,0,1-.184.1.2.2,0,0,1-.191-.055.3.3,0,0,1-.034-.224q.114-1.026.229-2.051a2.516,2.516,0,0,0,.017-.621,1.346,1.346,0,0,0-.663-.9,7.462,7.462,0,0,0-1.842-.765,11.4,11.4,0,0,0-2.044-.348A6.4,6.4,0,0,0,151.423,390.861Z" transform="translate(-133.572 -390.726)" fill="#455a64"/>
                </g>
              </g>
              <path id="Trazado_222224" data-name="Trazado 222224" d="M182.188,126.969a27.092,27.092,0,0,1,3.4,7.94,130.026,130.026,0,0,1,2.882,26.692c0,12.114-1.635,31.751-1.635,31.751-14.063,7.05-36.751,2.881-46.735-3.994.4-2.183.747-13.648,1.531-21.213.532-12.978.97-19.778,1.062-25.551.183-11.536,5.925-17.494,10.262-17.583l11.014.172Z" transform="translate(-98.87 -81.465)" fill="#83cfdf"/>
              <g id="Grupo_210629" data-name="Grupo 210629" transform="translate(77.712 45.451)">
                <path id="Trazado_222225" data-name="Trazado 222225" d="M202.369,219.466c-2.09,1.721-6.2,5.029-6.948,6.694-.86,1.909-1.394,4.78-1.954,5.889s.3,1.627,1.5,1.24,1.931-1.417,2.861-3.912a11.817,11.817,0,0,1,3.524-4.449Z" transform="translate(-193.292 -156.591)" fill="#874c4c"/>
                <path id="Trazado_222226" data-name="Trazado 222226" d="M195.372,213.14c.5.965,1.669.969,2.752,1.057a8.8,8.8,0,0,0,3.888-.442,7.075,7.075,0,0,0,3.738-2.6c1.058-1.516,1.326-3.426,1.929-5.173,1.267-3.672,5.026-6.316,5.638-10.205.253-1.608.255-3.5.711-4.5.268-.586,6.447-11.226,8.65-15.834,2.118-4.429,3.7-6.513,1.782-11.838s-8.46-24.053-13.085-30.56c-2.625-3.692-6.788-4.743-11.837-5.181-3.84,10.006.63,20.338.63,20.338l10.158,19.6s-3.949,13.5-6.418,21c-.686,2.085-2.072,3.372-3.629,5.683-.676,1-2.232,2.761-2.785,3.837-.711,1.387-.693,2.274-1.027,4.215C195.935,205.635,195.134,212.679,195.372,213.14Z" transform="translate(-193.932 -127.812)" fill="#9e6767"/>
                <path id="Trazado_222227" data-name="Trazado 222227" d="M199.93,127.788c2.653.106,6.467.555,8.748,1.706s3.858,2.575,6.482,7.826,6.448,15.459,6.448,15.459-1.27,7.7-13.446,9.7L199.93,147.3A30.358,30.358,0,0,1,199.93,127.788Z" transform="translate(-194.866 -127.788)" fill="#69a4b2"/>
              </g>
              <g id="Grupo_210634" data-name="Grupo 210634" transform="translate(44.314)">
                <g id="Grupo_210631" data-name="Grupo 210631">
                  <g id="Grupo_210630" data-name="Grupo 210630">
                    <path id="Trazado_222228" data-name="Trazado 222228" d="M151.419,82.455a16.584,16.584,0,0,1,.931,2,11.7,11.7,0,0,0,1.538,2.549,26.059,26.059,0,0,0,5.816,4.437,6.229,6.229,0,0,0,4.122,1.3,20.987,20.987,0,0,1,4.711.25l5.4.484-.3,5.675s.669-1.5,1.584-3.3c.785-1.542,4.063-9.373,4.075-9.4,1.623-3.88,3.554-9.049,1.61-13.125a5.412,5.412,0,0,0-2.11-2.42,4.767,4.767,0,0,0,.178-1.931,6.218,6.218,0,0,0-2.865-4.543,13.636,13.636,0,0,0-5.09-2.1,32.341,32.341,0,0,0-7.365-.82,44.057,44.057,0,0,0-7.227.831,26.031,26.031,0,0,1-4.027.42,7.618,7.618,0,0,1-1.744-.084,19.542,19.542,0,0,1-2.1-.759.492.492,0,0,0-.376-.03.47.47,0,0,0-.2.323,6.11,6.11,0,0,0,1.121,4.948,3.323,3.323,0,0,1-.892-.259,6.462,6.462,0,0,1-.926-.521,5.3,5.3,0,0,1-1.3-1.241.394.394,0,0,0-.214-.16c-.136-.024-.252.095-.333.206a4.837,4.837,0,0,0-.713,3.791,8.285,8.285,0,0,0,1.785,3.5,4.809,4.809,0,0,0-.243,4.6,6.193,6.193,0,0,0,1.212,1.743c.615.631,1.345,1.147,1.992,1.734A11.983,11.983,0,0,1,151.419,82.455Z" transform="translate(-144.595 -61.517)" fill="#37474f"/>
                    <path id="Trazado_222229" data-name="Trazado 222229" d="M169.355,78.207a10.659,10.659,0,0,0,.388,3.033,5.965,5.965,0,0,0,1.531,2.256,17.729,17.729,0,0,1,2.124,2.147,9.033,9.033,0,0,1,1.194,3.95,2.788,2.788,0,0,0,1.043,2.129c1.467.907,2.346-.852,3.129-1.716,1.01-.933,4-2.071,5.387,1.11,1.435,3.295-1.208,7.657-3.618,8.328-4.151,1.156-5.052-1.668-5.052-1.668l-.795,14.813c-2.345,4.439-7.844,5.848-11.458,5.142-3.12-.61-4.834-2.8-1.9-5.968l.158-4.511a25.908,25.908,0,0,1-5.55.1c-3.007-.565-4.5-3.121-5.308-6.421-1.3-5.3-1.9-10.875-.287-22.813.739-.407,3.706,1.9,8.2,2.215A20.858,20.858,0,0,0,169.355,78.207Z" transform="translate(-146.094 -66.718)" fill="#9e6767"/>
                  </g>
                  <path id="Trazado_222230" data-name="Trazado 222230" d="M167.01,118.127s6.79-1.14,9.19-2.317a7.781,7.781,0,0,0,3.365-3.12,10.642,10.642,0,0,1-1.976,3.745c-1.8,2.149-10.638,3.487-10.638,3.487Z" transform="translate(-151.619 -77.594)" fill="#874c4c"/>
                </g>
                <g id="Grupo_210633" data-name="Grupo 210633" transform="translate(0.106 15.488)">
                  <path id="Trazado_222231" data-name="Trazado 222231" d="M172.15,85.4l3.161.968a1.735,1.735,0,0,0-1.134-2.116A1.613,1.613,0,0,0,172.15,85.4Z" transform="translate(-153.357 -84.125)" fill="#263238"/>
                  <path id="Trazado_222232" data-name="Trazado 222232" d="M168.416,107.839l-4.653,1.576a2.413,2.413,0,0,0,3.073,1.625A2.572,2.572,0,0,0,168.416,107.839Z" transform="translate(-150.722 -91.558)" fill="#874c4c"/>
                  <path id="Trazado_222233" data-name="Trazado 222233" d="M168.784,109.5a2.738,2.738,0,0,0-2.653,2.081,2.344,2.344,0,0,0,1.449-.02,2.522,2.522,0,0,0,1.655-2.016A2.712,2.712,0,0,0,168.784,109.5Z" transform="translate(-151.466 -92.079)" fill="#f28f8f"/>
                  <path id="Trazado_222234" data-name="Trazado 222234" d="M151.57,85.906l3.21-.423A1.563,1.563,0,0,0,153,84.113,1.648,1.648,0,0,0,151.57,85.906Z" transform="translate(-146.889 -84.099)" fill="#263238"/>
                  <path id="Trazado_222235" data-name="Trazado 222235" d="M180.4,88.732l10.606,3.635a3.862,3.862,0,0,0-3.056,1.551l-7.513-2.853Z" transform="translate(-155.95 -85.555)" fill="#263238"/>
                  <path id="Trazado_222236" data-name="Trazado 222236" d="M153.876,94.179a1.269,1.269,0,1,0,1.311-1.279A1.289,1.289,0,0,0,153.876,94.179Z" transform="translate(-147.616 -86.864)" fill="#263238"/>
                  <path id="Trazado_222237" data-name="Trazado 222237" d="M171.55,94.188a1.269,1.269,0,1,0,1.311-1.279A1.289,1.289,0,0,0,171.55,94.188Z" transform="translate(-153.169 -86.867)" fill="#263238"/>
                  <g id="Grupo_210632" data-name="Grupo 210632" transform="translate(0 2.474)">
                    <path id="Trazado_222238" data-name="Trazado 222238" d="M144.752,89.179a2.89,2.89,0,0,0,.669,1.5,1.281,1.281,0,0,1,.269.533,26.729,26.729,0,0,0,.942,4.038,4.463,4.463,0,0,0,4.347,2.87,6.3,6.3,0,0,0,1.479-.125c.038-.007.075-.016.112-.024a4.247,4.247,0,0,0,1.2-.473l.071-.045c.036-.021.069-.042.1-.065s.06-.04.13-.089c.04-.029.08-.059.119-.09s.087-.07.13-.107.084-.071.125-.11c.082-.075.158-.154.232-.236a5.6,5.6,0,0,0,.966-1.535c.627-1.411.464-3.387,1.5-3.615a.969.969,0,0,1,.123-.019,1.2,1.2,0,0,1,.134-.005c1.4.021,1.246,2.172,2.031,3.708a5.242,5.242,0,0,0,5.122,3.081c.136,0,.267,0,.394,0,.108-.005.213-.011.313-.021a5.456,5.456,0,0,0,.732-.1c.079-.017.156-.034.23-.053s.149-.043.219-.063c.047-.012.093-.028.139-.044a4.144,4.144,0,0,0,.824-.387c.1-.06.186-.121.276-.186a3.794,3.794,0,0,0,.477-.418,4.856,4.856,0,0,0,.921-1.427,25.219,25.219,0,0,0,.831-4,1.742,1.742,0,0,1,.233-.582,2.743,2.743,0,0,0,.685-1.443,1.251,1.251,0,0,0-.847-1.268c-.239-.034-.488-.068-.746-.1a22.8,22.8,0,0,0-7.4.088c-2.348.643-3.162,1.394-4.471,1.376-1.224-.029-2.018-.809-4.243-1.536a20.106,20.106,0,0,0-6.934-.355q-.359.033-.693.073C145.112,87.955,144.706,88.535,144.752,89.179ZM160.2,90.648a2,2,0,0,1,.668-.546c.038-.024.078-.046.121-.067.022-.012.044-.023.067-.034.1-.054.214-.108.331-.156.1-.043.2-.085.306-.126a8.819,8.819,0,0,1,1-.315c.131-.033.264-.065.4-.093a9.324,9.324,0,0,1,1.031-.163c.083-.009.165-.017.241-.019,2.26-.184,3.671.349,4.184.813.532.481.291,2.568.076,3.629l-.016.079c-.005.025-.011.053-.016.082-.026.128-.057.274-.1.429-.023.085-.047.175-.073.265a.065.065,0,0,1,0,.011q-.062.215-.151.443h0c-.019.049-.04.1-.062.152-.012.029-.025.06-.04.091s-.029.067-.047.1-.041.085-.062.127-.049.094-.076.141-.057.1-.09.15-.063.1-.1.15a3.554,3.554,0,0,1-3.16,1.49,4.358,4.358,0,0,1-3.337-1.272h0a4.728,4.728,0,0,1-1.094-2.142C159.916,92.676,159.755,91.293,160.2,90.648Zm-13.3-1.106a1.948,1.948,0,0,1,.553-.35.3.3,0,0,1,.043-.019c.075-.034.156-.066.244-.1.047-.016.1-.034.15-.047s.083-.025.124-.035.057-.015.083-.022a.166.166,0,0,1,.032-.008l.123-.029a5.268,5.268,0,0,1,.52-.086c.091-.012.185-.022.283-.027.055-.005.112-.008.17-.012s.087,0,.131-.006c.116,0,.237,0,.36,0l.133,0,.123,0a10,10,0,0,1,1.042.1c1.612.233,3.3.98,3.734,1.643s.34,2.039.13,3.219a5.454,5.454,0,0,1-.2.79c-.005.019-.014.04-.021.062s-.019.053-.029.08-.012.036-.02.053-.025.064-.04.1c-.027.067-.056.13-.087.2s-.054.111-.084.166c-.011.021-.022.04-.033.059-.02.036-.043.075-.066.112s-.038.063-.061.1a.1.1,0,0,1-.009.016,3.54,3.54,0,0,1-3.356,1.533,3.966,3.966,0,0,1-1.691-.406,4.792,4.792,0,0,1-2.2-3.449C146.736,92.1,146.422,90,146.9,89.542Z" transform="translate(-144.749 -87.707)" fill="#263238"/>
                  </g>
                  <path id="Trazado_222239" data-name="Trazado 222239" d="M161.4,93.424l-.24,8.816-4.92-1.42,4.586-7.469A1.273,1.273,0,0,1,161.4,93.424Z" transform="translate(-148.359 -87.004)" fill="#874c4c"/>
                </g>
              </g>
            </g>
          </g>
          <g id="Speech_bubble" data-name="Speech bubble" transform="translate(140.695 0)">
            <g id="Speech_Bubble-2" data-name="Speech Bubble" transform="translate(0)">
              <g id="Speech_Bubble-3" data-name="Speech Bubble">
                <ellipse id="Elipse_16226" data-name="Elipse 16226" cx="25.41" cy="22.257" rx="25.41" ry="22.257" transform="translate(2.298)" fill="#1e2b6f"/>
                <path id="Trazado_222240" data-name="Trazado 222240" d="M231.043,81.406c-.139,2.986-2.663,8.321-7.228,10.261a.314.314,0,0,0,.052.6,13.7,13.7,0,0,0,14.06-5.325Z" transform="translate(-223.618 -46.281)" fill="#1e2b6f"/>
              </g>
              <g id="Grupo_210635" data-name="Grupo 210635" transform="translate(10.427 13.238)">
                <path id="Trazado_222241" data-name="Trazado 222241" d="M238.876,56.746a8.107,8.107,0,0,1,.656-2.824,6.749,6.749,0,0,1,1.632-2.3,7.853,7.853,0,0,1,2.568-1.552,10.843,10.843,0,0,1,6.971,0,7.841,7.841,0,0,1,2.582,1.552,6.778,6.778,0,0,1,1.632,2.3,8.14,8.14,0,0,1,.656,2.824q.052,1.15.053,2.407t-.053,2.355a8.132,8.132,0,0,1-.656,2.823,6.919,6.919,0,0,1-1.632,2.315A7.542,7.542,0,0,1,250.7,68.2a11.094,11.094,0,0,1-6.971,0,7.551,7.551,0,0,1-2.568-1.553,6.89,6.89,0,0,1-1.632-2.315,8.1,8.1,0,0,1-.656-2.823q-.055-1.1-.054-2.355T238.876,56.746Zm11.747,4.629q.026-.482.053-1.071t.027-1.2c0-.41-.01-.807-.027-1.191s-.036-.727-.053-1.031a4.188,4.188,0,0,0-.281-1.23,2.94,2.94,0,0,0-.643-.977,2.971,2.971,0,0,0-1.031-.655,4.443,4.443,0,0,0-2.889,0,2.978,2.978,0,0,0-1.031.655,2.905,2.905,0,0,0-.641.977,4.1,4.1,0,0,0-.281,1.23c-.036.3-.058.647-.067,1.031s-.014.78-.014,1.191,0,.812.014,1.2.031.75.067,1.071a3.584,3.584,0,0,0,.922,2.221,3.213,3.213,0,0,0,2.476.883,3.17,3.17,0,0,0,2.462-.883A3.763,3.763,0,0,0,250.622,61.375Z" transform="translate(-238.822 -49.494)" fill="#fafafa"/>
                <path id="Trazado_222242" data-name="Trazado 222242" d="M283.679,67.732a.48.48,0,0,1,.08.294.594.594,0,0,1-.588.588h-4.256a1.088,1.088,0,0,1-.615-.16,2.257,2.257,0,0,1-.481-.455l-5.057-6.369v6.262a.732.732,0,0,1-.723.722h-3.505a.73.73,0,0,1-.722-.722V50.607a.731.731,0,0,1,.722-.723h3.505a.733.733,0,0,1,.723.723v5.646l4.71-5.78q.134-.16.348-.374a1,1,0,0,1,.723-.215h4.173a.594.594,0,0,1,.589.588.481.481,0,0,1-.08.295l-6.609,8.08Z" transform="translate(-247.93 -49.617)" fill="#fafafa"/>
              </g>
            </g>
          </g>
          <g id="Icons" transform="translate(22.846 25.795)">
            <g id="Like_icon" data-name="Like icon" transform="translate(204.496)">
              <path id="Trazado_222243" data-name="Trazado 222243" d="M356.582,89.073l-3.843,1.157-2.782-9.276,3.838-1.157Z" transform="translate(-349.957 -71.571)" fill="#0f2771"/>
              <path id="Trazado_222244" data-name="Trazado 222244" d="M370.964,77.066a1.782,1.782,0,0,1-1.09,1.8,2.671,2.671,0,0,1,.539.981c.221.718-.366,1.684-1.521,2.028l-8.8,2.648L357.5,75.9H357.5s1.494-3.811,1.566-4.385a14.123,14.123,0,0,0-.926-3.087c-.1-.325,1.3-.916,2.429-.462a1.961,1.961,0,0,1,.718.5,6.1,6.1,0,0,1,1.009,1.446,5.237,5.237,0,0,1,.536,2.433l5.317-1.6a1.65,1.65,0,0,1,1.138.036,1.549,1.549,0,0,1,.877.931,1.58,1.58,0,0,1-.452,1.606,1.416,1.416,0,0,1,1.454.976,1.574,1.574,0,0,1-.877,1.782A1.667,1.667,0,0,1,370.964,77.066Z" transform="translate(-352.326 -67.803)" fill="#0f2771"/>
            </g>
            <g id="Like_icon-2" data-name="Like icon" transform="translate(261.323 94.598)">
              <path id="Trazado_222245" data-name="Trazado 222245" d="M437.746,227.622l-4.931-1.185,2.874-11.893,4.924,1.182Z" transform="translate(-432.815 -208.503)" fill="#0f2771"/>
              <path id="Trazado_222246" data-name="Trazado 222246" d="M459.162,223.517a2.251,2.251,0,0,1-2.333,1.265,3.368,3.368,0,0,1-.037,1.416c-.216.924-1.472,1.6-2.952,1.243s-11.288-2.716-11.288-2.716l2.663-11.051-.006,0s4.057-3.208,4.5-3.786c.455-.56.833-3.446.957-3.959.1-.417,2-.17,2.945,1.043a2.483,2.483,0,0,1,.467,1,7.714,7.714,0,0,1,.18,2.22,6.612,6.612,0,0,1-.964,3l6.819,1.641a2.093,2.093,0,0,1,1.219.764,1.958,1.958,0,0,1,.364,1.575,2,2,0,0,1-1.516,1.464,1.789,1.789,0,0,1,.965,1.992A1.988,1.988,0,0,1,459.053,222,2.106,2.106,0,0,1,459.162,223.517Z" transform="translate(-435.874 -205.736)" fill="#0f2771"/>
            </g>
            <g id="Like_icon-3" data-name="Like icon" transform="translate(0 82.092)">
              <path id="Trazado_222247" data-name="Trazado 222247" d="M76.823,217.286l5.382,1.62,3.9-12.99-5.374-1.62Z" transform="translate(-59.65 -192.777)" fill="#0f2771"/>
              <path id="Trazado_222248" data-name="Trazado 222248" d="M52.133,200.471a2.5,2.5,0,0,0,1.527,2.514,3.732,3.732,0,0,0-.755,1.375c-.309,1.005.512,2.359,2.13,2.84s12.322,3.708,12.322,3.708l3.626-12.065h.008S68.9,193.5,68.8,192.7c-.121-.791,1.129-3.764,1.3-4.323.137-.455-1.824-1.283-3.4-.647a2.747,2.747,0,0,0-1.005.695,8.541,8.541,0,0,0-1.412,2.025,7.343,7.343,0,0,0-.751,3.407l-7.444-2.24a2.32,2.32,0,0,0-1.594.05,2.175,2.175,0,0,0-1.228,1.3,2.21,2.21,0,0,0,.634,2.249,1.983,1.983,0,0,0-2.037,1.368,2.2,2.2,0,0,0,1.229,2.5A2.336,2.336,0,0,0,52.133,200.471Z" transform="translate(-51.783 -187.5)" fill="#0f2771"/>
            </g>
          </g>
        </g>
      </g>
    </g>
  </g>
</svg>
