<svg xmlns="http://www.w3.org/2000/svg" width="190" height="176" viewBox="0 0 190 176">
  <g id="Grupo_215630" data-name="Grupo 215630" transform="translate(-285 -2596)">
    <g id="Grupo_215568" data-name="Grupo 215568">
      <rect id="Rect치ngulo_41430" data-name="Rect치ngulo 41430" width="105" height="35" rx="17.5" transform="translate(370 2596)" fill="#feca2e" opacity="0.2"/>
      <rect id="Rect치ngulo_303911" data-name="Rect치ngulo 303911" width="105" height="35" rx="17.5" transform="translate(285 2737)" fill="#4dd0e1" opacity="0.2"/>
      <g id="Page-1" transform="translate(305.5 2609.568)">
        <g id="_068---Coding-Software" data-name="068---Coding-Software" transform="translate(0 0)">
          <g id="Icons_copy" transform="translate(2.483 2.483)">
            <path id="Shape" d="M84.533,58.967a4.982,4.982,0,0,1-4.967,4.967h-59.6a4.967,4.967,0,1,1,0-9.933h59.6A5,5,0,0,1,84.533,58.967Z" transform="translate(22.25 80.1)" fill="#9e9e9e"/>
            <path id="Shape-2" data-name="Shape" d="M48.952,55.465A4.855,4.855,0,0,0,45.45,54H38a4.967,4.967,0,0,1,0,9.933h7.45a4.982,4.982,0,0,0,4.967-4.967A4.855,4.855,0,0,0,48.952,55.465Z" transform="translate(56.367 80.1)" fill="#707070"/>
            <path id="Shape-3" data-name="Shape" d="M144.033,11.967V96.4H0V11.967A4.982,4.982,0,0,1,4.967,7h134.1A4.982,4.982,0,0,1,144.033,11.967Z" transform="translate(0 10.383)" fill="#bddcf6"/>
            <path id="Shape-4" data-name="Shape" d="M60.45,7H53a4.982,4.982,0,0,1,4.967,4.967V96.4h7.45V11.967A4.982,4.982,0,0,0,60.45,7Z" transform="translate(78.617 10.383)" fill="#a3bdd4"/>
            <path id="Shape-5" data-name="Shape" d="M144.033,43v7.45a4.982,4.982,0,0,1-4.967,4.967H4.967A4.982,4.982,0,0,1,0,50.45V43Z" transform="translate(0 63.783)" fill="#9e9e9e"/>
            <path id="Shape-6" data-name="Shape" d="M57.967,43v7.45A4.982,4.982,0,0,1,53,55.417h7.45a4.982,4.982,0,0,0,4.967-4.967V43Z" transform="translate(78.617 63.783)" fill="#707070"/>
            <path id="Shape-7" data-name="Shape" d="M72.633,62.9H18C25.45,57.933,25.45,48,25.45,48H65.183S65.183,57.933,72.633,62.9Z" transform="translate(26.7 71.2)" fill="#707070"/>
            <path id="Shape-8" data-name="Shape" d="M96.858,38.832a39.42,39.42,0,0,0-3.526-8.505,2.483,2.483,0,0,1,.119-2.667l4.381-6.131a2.483,2.483,0,0,0-.266-3.2l-3.78-3.78-3.78-3.78a2.483,2.483,0,0,0-3.2-.266l-6.131,4.381A2.483,2.483,0,0,1,78.007,15,39.42,39.42,0,0,0,69.5,11.475,2.483,2.483,0,0,1,67.7,9.5L66.459,2.076A2.483,2.483,0,0,0,64.013,0H53.32a2.483,2.483,0,0,0-2.449,2.076L49.63,9.5a2.483,2.483,0,0,1-1.8,1.972A39.42,39.42,0,0,0,39.324,15a2.483,2.483,0,0,1-2.667-.119L30.528,10.5a2.483,2.483,0,0,0-3.2.266l-3.78,3.78-3.78,3.78a2.483,2.483,0,0,0-.266,3.2l4.381,6.131A2.483,2.483,0,0,1,24,30.326a39.42,39.42,0,0,0-3.526,8.505,2.483,2.483,0,0,1-1.972,1.8l-7.428,1.242A2.483,2.483,0,0,0,9,44.323V55.016a2.483,2.483,0,0,0,2.076,2.449L18.5,58.706a2.483,2.483,0,0,1,1.972,1.8A39.42,39.42,0,0,0,24,69.012a2.483,2.483,0,0,1-.119,2.667L19.5,77.81a2.483,2.483,0,0,0,.266,3.2l3.78,3.78,3.78,3.78a2.483,2.483,0,0,0,3.2.266l6.131-4.381a2.483,2.483,0,0,1,2.667-.119,39.42,39.42,0,0,0,8.505,3.526,2.483,2.483,0,0,1,1.8,1.972l1.242,7.428a2.483,2.483,0,0,0,2.449,2.076H64.016a2.483,2.483,0,0,0,2.449-2.076l1.242-7.428a2.483,2.483,0,0,1,1.8-1.972,39.42,39.42,0,0,0,8.505-3.526,2.483,2.483,0,0,1,2.667.119l6.131,4.381a2.483,2.483,0,0,0,3.2-.266l3.78-3.78,3.78-3.78a2.483,2.483,0,0,0,.266-3.2l-4.381-6.131a2.483,2.483,0,0,1-.119-2.667,39.42,39.42,0,0,0,3.526-8.505,2.483,2.483,0,0,1,1.972-1.8l7.428-1.242a2.483,2.483,0,0,0,2.071-2.451V44.32a2.483,2.483,0,0,0-2.076-2.449L98.83,40.63A2.483,2.483,0,0,1,96.858,38.832Z" transform="translate(13.35 0)" fill="#7f8e94"/>
            <g id="Grupo_172766" data-name="Grupo 172766" transform="translate(69.911 0)">
              <path id="Shape-9" data-name="Shape" d="M30.6,2.076,31.843,9.5a2.483,2.483,0,0,0,1.8,1.969A39.554,39.554,0,0,1,42.149,15a2.483,2.483,0,0,0,2.667-.119l1.835-1.311a39.19,39.19,0,0,0-5.558-2.1,2.483,2.483,0,0,1-1.8-1.969L38.052,2.076A2.483,2.483,0,0,0,35.6,0h-7.45A2.483,2.483,0,0,1,30.6,2.076Z" transform="translate(-28.151 0)" fill="#545c60"/>
              <path id="Shape-10" data-name="Shape" d="M44.815,34.276a2.483,2.483,0,0,0-2.667-.119,39.42,39.42,0,0,1-8.505,3.526,2.483,2.483,0,0,0-1.8,1.972L30.6,47.083a2.483,2.483,0,0,1-2.449,2.076H35.6a2.483,2.483,0,0,0,2.449-2.076l1.242-7.428a2.483,2.483,0,0,1,1.8-1.972,38.878,38.878,0,0,0,5.558-2.1Z" transform="translate(-28.152 50.174)" fill="#545c60"/>
              <path id="Shape-11" data-name="Shape" d="M61.355,35.875l-7.428-1.242a2.483,2.483,0,0,1-1.969-1.8,39.554,39.554,0,0,0-3.529-8.505,2.483,2.483,0,0,1,.119-2.667l4.381-6.131a2.483,2.483,0,0,0-.266-3.2l-3.78-3.777L45.1,4.771a2.483,2.483,0,0,0-3.2-.266L39.271,6.388l2.163,2.163,3.78,3.78a2.483,2.483,0,0,1,.266,3.2L41.1,21.663a2.483,2.483,0,0,0-.119,2.667,39.555,39.555,0,0,1,3.529,8.505,2.483,2.483,0,0,0,1.969,1.8l7.428,1.242a2.483,2.483,0,0,1,2.076,2.449V49.019a2.483,2.483,0,0,1-2.076,2.449l-7.428,1.242a2.483,2.483,0,0,0-1.969,1.8,39.554,39.554,0,0,1-3.529,8.505,2.483,2.483,0,0,0,.119,2.667l4.381,6.131a2.483,2.483,0,0,1-.266,3.2l-3.78,3.78-2.163,2.163L41.9,82.84a2.483,2.483,0,0,0,3.2-.266l3.78-3.78,3.78-3.78a2.483,2.483,0,0,0,.266-3.2l-4.381-6.131a2.483,2.483,0,0,1-.119-2.667,39.555,39.555,0,0,0,3.529-8.505,2.483,2.483,0,0,1,1.969-1.8l7.428-1.242a2.483,2.483,0,0,0,2.076-2.451V38.324A2.483,2.483,0,0,0,61.355,35.875Z" transform="translate(-11.659 5.997)" fill="#545c60"/>
            </g>
            <circle id="Oval" cx="30" cy="30" r="30" transform="translate(42.017 19.949)" fill="#fedc77"/>
            <path id="Shape-12" data-name="Shape" d="M31.225,8a29.721,29.721,0,0,0-3.725.248,29.773,29.773,0,0,1,0,59.083A29.8,29.8,0,1,0,31.225,8Z" transform="translate(40.792 11.866)" fill="#feca2e"/>
          </g>
          <g id="Icons">
            <path id="Shape-13" data-name="Shape" d="M141.55,17.383H113.488L107.6,11.5a4.967,4.967,0,0,0-6.4-.531l-6.144,4.353a41.05,41.05,0,0,0-9.069-3.725L84.741,4.16A4.967,4.967,0,0,0,79.847,0H69.153a4.967,4.967,0,0,0-4.9,4.152l-1.267,7.415a41.06,41.06,0,0,0-9.052,3.78L47.8,10.961a4.967,4.967,0,0,0-6.4.534l-5.893,5.888H7.45A7.45,7.45,0,0,0,0,24.833v91.883a7.45,7.45,0,0,0,7.45,7.45H52.118a16.02,16.02,0,0,1-5.679,10.164H44.7a7.219,7.219,0,0,0,0,14.438h59.6a7.219,7.219,0,1,0,0-14.438h-1.738a16.02,16.02,0,0,1-5.679-10.164H141.55a7.45,7.45,0,0,0,7.45-7.45V24.833A7.45,7.45,0,0,0,141.55,17.383ZM44.919,15l6.134,4.386a4.927,4.927,0,0,0,5.319.263,37.024,37.024,0,0,1,7.964-3.305,5,5,0,0,0,3.581-3.953l1.237-7.428H79.847l1.242,7.43a4.991,4.991,0,0,0,3.576,3.949,37.139,37.139,0,0,1,7.964,3.305,4.934,4.934,0,0,0,5.324-.263l6.134-4.381,6.583,6.583.055.055.924.924L107.263,28.7A4.932,4.932,0,0,0,107,34.022a37.094,37.094,0,0,1,3.308,7.969,4.994,4.994,0,0,0,3.951,3.576l7.428,1.242V57.5l-7.43,1.242a4.991,4.991,0,0,0-3.949,3.576A37.138,37.138,0,0,1,107,70.278a4.929,4.929,0,0,0,.263,5.324l4.381,6.134L104.081,89.3l-6.134-4.386a4.929,4.929,0,0,0-5.319-.263,37.025,37.025,0,0,1-7.964,3.305,5,5,0,0,0-3.581,3.953l-1.237,7.425H69.153L67.912,91.9a4.991,4.991,0,0,0-3.576-3.948,37.138,37.138,0,0,1-7.964-3.305,5.036,5.036,0,0,0-2.483-.656,4.9,4.9,0,0,0-2.853.919L44.9,89.293l-7.562-7.562L41.725,75.6a4.932,4.932,0,0,0,.263-5.319,37.025,37.025,0,0,1-3.305-7.964,5,5,0,0,0-3.953-3.581L27.317,57.5V46.8l7.43-1.242A4.991,4.991,0,0,0,38.7,41.986,37.138,37.138,0,0,1,42,34.022a4.929,4.929,0,0,0-.263-5.324l-4.381-6.134.921-.921.055-.055Zm62.1,126.546a2.717,2.717,0,0,1-2.714,2.714H44.7a2.714,2.714,0,1,1,0-5.429h59.6A2.717,2.717,0,0,1,107.014,141.55Zm-10.721-7.219H52.706a22.685,22.685,0,0,0,3.963-10.164H92.33A22.685,22.685,0,0,0,96.294,134.331ZM141.55,119.2H7.45a2.483,2.483,0,0,1-2.483-2.483V111.75H14.9a2.483,2.483,0,1,0,0-4.967H4.967V24.833A2.483,2.483,0,0,1,7.45,22.35H32.4a4.944,4.944,0,0,0,.911,3.1L37.667,31.6a41.05,41.05,0,0,0-3.725,9.069L26.51,41.909A4.967,4.967,0,0,0,22.35,46.8V57.5A4.967,4.967,0,0,0,26.5,62.4l7.415,1.266a41.06,41.06,0,0,0,3.78,9.052l-4.386,6.131a4.967,4.967,0,0,0,.534,6.4L41.4,92.8a4.967,4.967,0,0,0,6.4.531l6.144-4.353a41.05,41.05,0,0,0,9.069,3.737l1.242,7.433a4.967,4.967,0,0,0,4.895,4.147H79.847a4.967,4.967,0,0,0,4.9-4.152l1.266-7.415a41.06,41.06,0,0,0,9.052-3.78l6.131,4.386a4.967,4.967,0,0,0,6.4-.534l7.559-7.559a4.967,4.967,0,0,0,.531-6.4L111.333,72.7a41.05,41.05,0,0,0,3.737-9.069l7.433-1.242A4.967,4.967,0,0,0,126.65,57.5V46.8a4.967,4.967,0,0,0-4.152-4.9l-7.4-1.222a.162.162,0,0,1-.017-.04,41.06,41.06,0,0,0-3.78-9.052l4.386-6.131a4.967,4.967,0,0,0,.906-3.109H141.55a2.483,2.483,0,0,1,2.483,2.483v81.95H24.833a2.483,2.483,0,1,0,0,4.967h119.2v4.967A2.483,2.483,0,0,1,141.55,119.2Z" transform="translate(0 0)"/>
            <path id="Shape-14" data-name="Shape" d="M49.283,72.567A32.283,32.283,0,1,0,17,40.283,32.283,32.283,0,0,0,49.283,72.567Zm0-59.6A27.317,27.317,0,1,1,21.967,40.283,27.317,27.317,0,0,1,49.283,12.967Z" transform="translate(25.217 11.867)"/>
            <path id="Shape-15" data-name="Shape" d="M21.727,30.154l9.933,9.933a2.483,2.483,0,0,0,3.511-3.511L26.994,28.4l8.178-8.178a2.483,2.483,0,0,0-3.511-3.511l-9.933,9.933a2.483,2.483,0,0,0,0,3.511Z" transform="translate(31.15 23.752)"/>
            <path id="Shape-16" data-name="Shape" d="M33.727,40.087a2.483,2.483,0,0,0,3.511,0l9.933-9.933a2.483,2.483,0,0,0,0-3.511l-9.933-9.933a2.483,2.483,0,0,0-3.511,3.511L41.9,28.4l-8.178,8.178A2.483,2.483,0,0,0,33.727,40.087Z" transform="translate(48.95 23.752)"/>
            <path id="Shape-17" data-name="Shape" d="M29.883,40.726a2.525,2.525,0,0,0,.6.075,2.483,2.483,0,0,0,2.406-1.882l4.967-19.867a2.483,2.483,0,0,0-4.818-1.2L28.073,37.716a2.483,2.483,0,0,0,1.81,3.01Z" transform="translate(41.532 23.766)"/>
          </g>
        </g>
      </g>
    </g>
  </g>
</svg>
