<svg xmlns="http://www.w3.org/2000/svg" width="136" height="136" viewBox="0 0 136 136">
  <g id="Grupo_215636" data-name="Grupo 215636" transform="translate(764.743 7860.01)">
    <circle id="Elipse_16396" data-name="Elipse 16396" cx="68" cy="68" r="68" transform="translate(-764.743 -7860.01)" fill="#feca2e"/>
    <g id="Grupo_211510" data-name="Grupo 211510" transform="translate(-2294.743 -11036.01)">
      <g id="Grupo_211509" data-name="Grupo 211509" transform="translate(1555 3200)">
        <g id="Grupo_211505" data-name="Grupo 211505" transform="translate(0 42.663)">
          <path id="Trazado_224159" data-name="Trazado 224159" d="M708.9,728.151c-1.7-.2-2.639-1.091-2.63-2.466s.984-2.3,2.6-2.426v-.821a2.443,2.443,0,0,0-.676-.032,1.5,1.5,0,0,1-1.465-1.366,7.292,7.292,0,0,1,0-1.226,1.365,1.365,0,0,1,.962-1.241.421.421,0,0,0,.328-.506,9.949,9.949,0,0,1,.8-4.49,9.34,9.34,0,0,1,4.714-4.8.748.748,0,0,0,.458-.515,2.364,2.364,0,0,1,2.281-1.664q2.062-.014,4.125,0a2.38,2.38,0,0,1,2.312,1.745.529.529,0,0,0,.31.374,9.39,9.39,0,0,1,5.632,8.951,1.73,1.73,0,0,1,0,.219.586.586,0,0,0,.442.744,1.267,1.267,0,0,1,.841,1.136,7.322,7.322,0,0,1,.028,1.1,1.525,1.525,0,0,1-1.615,1.54c-.174,0-.348,0-.547,0v.832c1.788.316,2.652,1.158,2.6,2.536-.052,1.36-.948,2.183-2.615,2.376a12.926,12.926,0,0,1-.124,2.254,4.948,4.948,0,0,1-3.33,3.752c-.342.125-.7.212-1.046.319-.372.115-.487.42-.231.715a3.8,3.8,0,0,0,1.621,1.272,15.11,15.11,0,0,1,3.639,1.587c.238.161.471.331.712.5.109-.125.061-.26.061-.381,0-1.273.008-2.546,0-3.82a1.147,1.147,0,0,1,2.054-.851q6.419,6.43,12.849,12.851a1.207,1.207,0,0,1,.38,1.344,1.155,1.155,0,0,1-1.238.709H706.223a1.552,1.552,0,0,1-1.715-1.709,12.06,12.06,0,0,1,.443-4.207,8.532,8.532,0,0,1,5.16-5.323,15.43,15.43,0,0,1,1.6-.6,3.525,3.525,0,0,0,1.832-1.268c.343-.416.274-.7-.236-.85a7.5,7.5,0,0,1-1.993-.767,4.982,4.982,0,0,1-2.412-4.363C708.892,728.934,708.9,728.554,708.9,728.151Zm12.337,8.747a15.292,15.292,0,0,0-1.821,1.123l1.355,1.3c.124-.8.409-1.592.458-2.435l.054-.008-.014-.033Zm.042-1.809a9.9,9.9,0,0,1-5.885,0,.155.155,0,0,0-.2.012l.144.055c.942.625,1.885,1.248,2.824,1.877a.272.272,0,0,0,.351,0c.939-.63,1.882-1.252,2.823-1.877l.145-.055A.156.156,0,0,0,721.277,735.088Zm-11.037-9.747c0,1.515-.071,2.952.019,4.379a3.386,3.386,0,0,0,2.417,3.134c1.153.408,2.338.73,3.514,1.069a7.652,7.652,0,0,0,4.282,0c1.066-.3,2.127-.621,3.187-.944a3.684,3.684,0,0,0,2.791-3.734c.01-1.185,0-2.371,0-3.556,0-.093.042-.2-.075-.3a1.28,1.28,0,0,0-.13.09,1.162,1.162,0,0,1-1.362.286,1.213,1.213,0,0,1-.629-1.289c.013-.682,0-1.364,0-2.051H712.407c0,.8.007,1.572,0,2.347a1.04,1.04,0,0,1-.612.987,1.071,1.071,0,0,1-1.191-.141Zm-.886-6.889c.563,0,1.1,0,1.641,0,.506,0,.811.257.807.664s-.308.651-.818.653c-.848,0-1.7.01-2.546,0-.3-.005-.438.1-.417.4a1.766,1.766,0,0,1,0,.351c-.057.431.1.578.556.577q9.766-.022,19.531-.01h.263c.091,0,.2-.015.222-.106a1.816,1.816,0,0,0,0-1.077c-.09-.258-.39-.127-.593-.127q-7.242-.01-14.483-.006c-.543,0-.839-.248-.826-.68.012-.412.3-.626.825-.639a5.184,5.184,0,0,0,1.036-.035l-.62-8.324C711.088,711.1,709.189,714.57,709.353,718.452Zm11.439-.01c.233-3.111.47-6.186.69-9.263a1.1,1.1,0,0,0-1.218-1.264c-1.229,0-2.457,0-3.686,0-1.072,0-1.466.452-1.38,1.529.15,1.881.281,3.763.423,5.644.084,1.117.173,2.233.26,3.354Zm21.845,28.628-12.213-12.22v2.085c.741.108.991.288.989.7s-.25.59-.991.707v1.067a.673.673,0,0,1,.711.633c.038.5-.362.638-.734.77a4.982,4.982,0,0,0,.058,1.051c.663.044.933.227.954.635s-.219.6-.982.757v1.05c.383.05.665.224.7.614.048.5-.332.657-.7.772v1.377Zm-33.741.011c0-.615,0-1.17,0-1.726a1.784,1.784,0,0,1,.03-.392.6.6,0,0,1,.665-.508.618.618,0,0,1,.617.666c.015.64,0,1.281,0,1.938h4.808c-.108-.085-.16-.127-.212-.167-.849-.645-1.7-1.285-2.546-1.937a1.1,1.1,0,0,1-.22-1.684c.117-.158.24-.313.378-.493-.374-.188-.7-.342-1.02-.515a1.063,1.063,0,0,1-.548-1.4c.222-.632.478-1.253.7-1.885a5.3,5.3,0,0,0,.36-1.086,18.233,18.233,0,0,0-2.334.966,7.019,7.019,0,0,0-1.119.765c-2.267,1.886-2.807,4.4-2.628,7.184.013.2.117.279.314.278C707.048,747.079,707.952,747.081,708.9,747.081Zm15.814-9.192c.379,1.009.736,1.944,1.081,2.885a1.118,1.118,0,0,1-.6,1.536,5.71,5.71,0,0,0-.926.494c.063.087.112.159.166.227.725.937.666,1.4-.272,2.114l-2.524,1.916h4.814c0-.632,0-1.245,0-1.857a.671.671,0,0,1,.543-.743c.415-.093.761.228.772.727.014.622,0,1.246,0,1.87h1.314c0-2.058-.008-4.091.008-6.125a1.1,1.1,0,0,0-.351-.846A9.491,9.491,0,0,0,724.711,737.889Zm2.6-19.45c.2-3.791-1.869-7.571-4.578-8.335l-.619,8.335Zm-2.785,22.722c-.509-1.354-1.007-2.687-1.516-4.017a.514.514,0,0,0-.363-.345l-1.984,9.343,2.84-2.159c-.157-.2-.293-.374-.424-.549a1.1,1.1,0,0,1,.4-1.754C723.817,741.507,724.157,741.345,724.528,741.161ZM716,746.139l-1.984-9.336-.143-.035c-.724,1.395-1.122,2.924-1.745,4.386.4.2.773.373,1.128.569a1.083,1.083,0,0,1,.382,1.641c-.145.209-.308.406-.477.625Zm3.054.931c.823-1.866.075-3.681-.052-5.51H717.66c-.129,1.852-.865,3.669-.052,5.51Zm-10.174-22.459a1.1,1.1,0,0,0-1.172.592,1.087,1.087,0,0,0,1.172,1.563Zm18.907.021v2.134a1.086,1.086,0,1,0,0-2.134Zm-12.426,12.151.537,2.523,1.373-1.276Zm-5.108-14.362c-.151,1.111-.04,1.361.806,1.81v-1.81Zm15.343,1.817c.853-.446.968-.7.815-1.81H725.6Zm-7.876,15.96h1.221c.2-.608.16-.691-.649-1.295C718.043,739.3,717.357,739.481,717.723,740.2Z" transform="translate(-704.503 -706.592)" fill="#0f2771"/>
          <path id="Trazado_224160" data-name="Trazado 224160" d="M883.813,847.917l-2.779,2.779,7.716,7.717,2.779-2.779-.308-.308q-1.817-1.816-3.632-3.634c-.356-.357-.391-.758-.1-1.043s.678-.244,1.038.116c1.885,1.882,3.775,3.76,5.649,5.653a3.287,3.287,0,1,1-4.63,4.668q-4.923-4.889-9.818-9.805a1.242,1.242,0,0,1-.33-.605c-.328-1.318-.663-2.634-.986-3.953a1.1,1.1,0,0,1,1.407-1.425c1.334.324,2.663.668,4,1a1.144,1.144,0,0,1,.561.315c.793.8,1.594,1.594,2.388,2.393.36.362.389.746.089,1.034s-.67.243-1.038-.122C885.149,849.257,884.49,848.594,883.813,847.917Zm5.9,11.476c.309.31.577.62.887.879a1.972,1.972,0,0,0,2.893-2.62,5.981,5.981,0,0,0-1.008-1.031Zm-9.281-10.016,2.05-2.05a6.654,6.654,0,0,1-.909-.243,1.078,1.078,0,0,0-1.45.374c-.074.1-.137.164-.1.3C880.163,848.274,880.288,848.793,880.435,849.377Z" transform="translate(-850.6 -823.11)" fill="#0f2771"/>
          <path id="Trazado_224161" data-name="Trazado 224161" d="M875.741,916.8c0-.6,0-1.2,0-1.8a1.121,1.121,0,0,1,1.928-.814q1.833,1.822,3.656,3.656a1.123,1.123,0,0,1-.78,1.949c-1.212.01-2.424.019-3.636,0a1.113,1.113,0,0,1-1.167-1.239C875.737,917.969,875.74,917.384,875.741,916.8Zm1.342-1.19v2.844h2.845Z" transform="translate(-848.397 -880.742)" fill="#0f2771"/>
        </g>
        <g id="Grupo_211506" data-name="Grupo 211506" transform="translate(46.006 42.663)">
          <path id="Trazado_224162" data-name="Trazado 224162" d="M997.019,728.151c-1.7-.2-2.639-1.091-2.63-2.466s.984-2.3,2.6-2.426v-.821a2.445,2.445,0,0,0-.676-.032,1.5,1.5,0,0,1-1.464-1.366,7.279,7.279,0,0,1,0-1.226,1.365,1.365,0,0,1,.962-1.241.421.421,0,0,0,.328-.506,9.949,9.949,0,0,1,.8-4.49,9.34,9.34,0,0,1,4.714-4.8.748.748,0,0,0,.458-.515,2.364,2.364,0,0,1,2.281-1.664q2.063-.014,4.125,0a2.38,2.38,0,0,1,2.312,1.745.529.529,0,0,0,.31.374,9.39,9.39,0,0,1,5.632,8.951,1.707,1.707,0,0,1,0,.219.586.586,0,0,0,.442.744,1.267,1.267,0,0,1,.841,1.136,7.29,7.29,0,0,1,.028,1.1,1.525,1.525,0,0,1-1.615,1.54c-.174,0-.348,0-.547,0v.832c1.788.316,2.652,1.158,2.6,2.536-.052,1.36-.948,2.183-2.615,2.376a12.914,12.914,0,0,1-.124,2.254,4.948,4.948,0,0,1-3.33,3.752c-.342.125-.7.212-1.046.319-.372.115-.487.42-.231.715a3.805,3.805,0,0,0,1.621,1.272,15.109,15.109,0,0,1,3.639,1.587c.239.161.471.331.712.5.11-.125.061-.26.061-.381,0-1.273.008-2.546,0-3.82a1.147,1.147,0,0,1,2.054-.851q6.419,6.43,12.849,12.851a1.207,1.207,0,0,1,.38,1.344,1.155,1.155,0,0,1-1.238.709H994.345a1.552,1.552,0,0,1-1.715-1.709,12.06,12.06,0,0,1,.443-4.207,8.532,8.532,0,0,1,5.16-5.323,15.411,15.411,0,0,1,1.6-.6,3.526,3.526,0,0,0,1.832-1.268c.343-.416.274-.7-.237-.85a7.5,7.5,0,0,1-1.993-.767,4.982,4.982,0,0,1-2.412-4.363C997.014,728.934,997.019,728.554,997.019,728.151Zm12.337,8.747a15.312,15.312,0,0,0-1.821,1.123l1.355,1.3c.124-.8.409-1.592.458-2.435l.054-.008-.015-.033Zm.043-1.809a9.9,9.9,0,0,1-5.885,0,.155.155,0,0,0-.2.012l.144.055c.942.625,1.885,1.248,2.824,1.877a.272.272,0,0,0,.351,0c.939-.63,1.882-1.252,2.823-1.877l.145-.055A.156.156,0,0,0,1009.4,735.088Zm-11.037-9.747c0,1.515-.071,2.952.019,4.379a3.386,3.386,0,0,0,2.417,3.134c1.153.408,2.338.73,3.514,1.069a7.652,7.652,0,0,0,4.282,0c1.066-.3,2.127-.621,3.187-.944a3.684,3.684,0,0,0,2.792-3.734c.01-1.185,0-2.371,0-3.556,0-.093.042-.2-.074-.3a1.28,1.28,0,0,0-.13.09,1.162,1.162,0,0,1-1.362.286,1.214,1.214,0,0,1-.629-1.289c.013-.682,0-1.364,0-2.051h-11.851c0,.8.007,1.572,0,2.347a1.041,1.041,0,0,1-.612.987,1.071,1.071,0,0,1-1.191-.141Zm-.887-6.889c.563,0,1.1,0,1.641,0,.507,0,.811.257.807.664s-.308.651-.819.653c-.849,0-1.7.01-2.545,0-.3-.005-.439.1-.417.4a1.757,1.757,0,0,1,0,.351c-.057.431.1.578.556.577q9.765-.022,19.531-.01h.263c.091,0,.2-.015.222-.106a1.818,1.818,0,0,0,0-1.077c-.09-.258-.39-.127-.593-.127q-7.242-.01-14.484-.006c-.543,0-.838-.248-.826-.68.012-.412.3-.626.825-.639a5.183,5.183,0,0,0,1.036-.035l-.62-8.324C999.21,711.1,997.311,714.57,997.475,718.452Zm11.439-.01c.233-3.111.47-6.186.69-9.263a1.1,1.1,0,0,0-1.218-1.264c-1.229,0-2.457,0-3.686,0-1.072,0-1.466.452-1.38,1.529.15,1.881.281,3.763.423,5.644q.126,1.675.26,3.354Zm21.846,28.628-12.213-12.22v2.085c.741.108.992.288.989.7s-.25.59-.991.707v1.067a.673.673,0,0,1,.711.633c.038.5-.362.638-.734.77a4.982,4.982,0,0,0,.058,1.051c.663.044.933.227.954.635s-.219.6-.982.757v1.05c.383.05.665.224.7.614.048.5-.332.657-.7.772v1.377Zm-33.741.011c0-.615,0-1.17,0-1.726a1.792,1.792,0,0,1,.029-.392.6.6,0,0,1,.665-.508.619.619,0,0,1,.617.666c.015.64,0,1.281,0,1.938h4.808c-.108-.085-.16-.127-.212-.167-.849-.645-1.7-1.285-2.546-1.937a1.1,1.1,0,0,1-.22-1.684c.117-.158.24-.313.377-.493-.374-.188-.7-.342-1.02-.515a1.063,1.063,0,0,1-.548-1.4c.222-.632.478-1.253.7-1.885a5.3,5.3,0,0,0,.36-1.086,18.234,18.234,0,0,0-2.335.966,7.012,7.012,0,0,0-1.119.765c-2.267,1.886-2.807,4.4-2.628,7.184.013.2.117.279.314.278C995.17,747.079,996.075,747.081,997.018,747.081Zm15.815-9.192c.379,1.009.736,1.944,1.081,2.885a1.118,1.118,0,0,1-.6,1.536,5.711,5.711,0,0,0-.927.494c.063.087.113.159.166.227.725.937.666,1.4-.272,2.114l-2.524,1.916h4.814c0-.632,0-1.245,0-1.857a.672.672,0,0,1,.543-.743c.415-.093.761.228.772.727.014.622,0,1.246,0,1.87h1.314c0-2.058-.008-4.091.008-6.125a1.1,1.1,0,0,0-.351-.846A9.49,9.49,0,0,0,1012.833,737.889Zm2.6-19.45c.2-3.791-1.869-7.571-4.578-8.335-.206,2.777-.412,5.548-.619,8.335Zm-2.785,22.722c-.509-1.354-1.007-2.687-1.516-4.017a.514.514,0,0,0-.364-.345l-1.984,9.343,2.84-2.159c-.157-.2-.294-.374-.424-.549a1.1,1.1,0,0,1,.4-1.754C1011.939,741.507,1012.279,741.345,1012.651,741.161Zm-8.526,4.978-1.984-9.336-.143-.035c-.724,1.395-1.122,2.924-1.745,4.386.4.2.773.373,1.128.569a1.083,1.083,0,0,1,.382,1.641c-.145.209-.308.406-.477.625Zm3.054.931c.823-1.866.075-3.681-.052-5.51h-1.344c-.129,1.852-.865,3.669-.052,5.51Zm-10.174-22.459a1.1,1.1,0,0,0-1.172.592,1.087,1.087,0,0,0,1.172,1.563Zm18.907.021v2.134a1.086,1.086,0,1,0,0-2.134Zm-12.425,12.151.537,2.523,1.373-1.276Zm-5.109-14.362c-.151,1.111-.04,1.361.805,1.81v-1.81Zm15.343,1.817c.853-.446.968-.7.815-1.81h-.815Zm-7.876,15.96h1.221c.2-.608.16-.691-.649-1.295C1006.165,739.3,1005.479,739.481,1005.845,740.2Z" transform="translate(-992.625 -706.592)" fill="#0f2771"/>
          <path id="Trazado_224163" data-name="Trazado 224163" d="M1171.936,847.917l-2.779,2.779,7.717,7.717,2.779-2.779-.308-.308q-1.816-1.816-3.632-3.634c-.356-.357-.391-.758-.1-1.043s.678-.244,1.038.116c1.885,1.882,3.775,3.76,5.649,5.653a3.287,3.287,0,1,1-4.63,4.668q-4.923-4.889-9.818-9.805a1.243,1.243,0,0,1-.329-.605c-.328-1.318-.663-2.634-.986-3.953a1.1,1.1,0,0,1,1.407-1.425c1.334.324,2.663.668,4,1a1.146,1.146,0,0,1,.561.315c.793.8,1.594,1.594,2.388,2.393.36.362.389.746.089,1.034s-.67.243-1.038-.122C1173.272,849.257,1172.614,848.594,1171.936,847.917Zm5.9,11.476c.309.31.577.62.887.879a1.972,1.972,0,0,0,2.894-2.62,6,6,0,0,0-1.009-1.031Zm-9.281-10.016,2.05-2.05a6.649,6.649,0,0,1-.909-.243,1.078,1.078,0,0,0-1.451.374c-.074.1-.137.164-.1.3C1168.286,848.274,1168.411,848.793,1168.558,849.377Z" transform="translate(-1138.723 -823.11)" fill="#0f2771"/>
          <path id="Trazado_224164" data-name="Trazado 224164" d="M1163.864,916.8c0-.6,0-1.2,0-1.8a1.12,1.12,0,0,1,1.928-.814q1.833,1.822,3.656,3.656a1.123,1.123,0,0,1-.78,1.949c-1.212.01-2.424.019-3.636,0a1.113,1.113,0,0,1-1.167-1.239C1163.86,917.969,1163.864,917.384,1163.864,916.8Zm1.342-1.19v2.844h2.846Z" transform="translate(-1136.52 -880.742)" fill="#0f2771"/>
        </g>
        <g id="Grupo_211507" data-name="Grupo 211507" transform="translate(16.615 0)">
          <path id="Trazado_224165" data-name="Trazado 224165" d="M850.026,447.368c-.026.027-.065.048-.077.08a2.572,2.572,0,0,1-2.768,1.942c-11.932,0-23.863-.016-35.794.015a2.68,2.68,0,0,1-2.77-3.223c.373-1.751.582-3.536.907-5.3a4.657,4.657,0,0,1,3.176-3.714q5.267-1.926,10.55-3.805c.278-.1.338-.234.365-.515a1.974,1.974,0,0,0-.723-1.81,8.813,8.813,0,0,1-2.431-4.958,21.9,21.9,0,0,1-.221-2.941,3.058,3.058,0,0,0-.634-1.717,4.559,4.559,0,0,1-.974-3.011c.028-1.349-.051-2.7.044-4.048a6.942,6.942,0,0,1,5.922-6.2,10.472,10.472,0,0,1,1.251-.07q4.474,0,8.949,0a2.655,2.655,0,0,1,2.535,1.725,1.392,1.392,0,0,1,.089.635c-.065.369.086.519.4.7a4.143,4.143,0,0,1,2.159,3.689c.025,1.511,0,3.023.006,4.535a2.99,2.99,0,0,1-.4,1.587,10.793,10.793,0,0,0-1.386,4.307,10.105,10.105,0,0,1-2.078,5.223,5.4,5.4,0,0,1-.915.913.509.509,0,0,0-.224.477,8.143,8.143,0,0,1,0,1.012c-.022.271.1.37.333.454,3.366,1.209,6.714,2.472,10.1,3.626a5.256,5.256,0,0,1,3.814,4.712c.183,1.47.474,2.926.716,4.388.01.063-.005.138.086.156Zm-13.119-25.647c0-1.119,0-2.036,0-2.954a1.582,1.582,0,0,0-.044-.438,2.936,2.936,0,0,0-1.928-2.06q-1.565-.572-3.14-1.113a2.3,2.3,0,0,0-1.575.028,14.868,14.868,0,0,1-2.508.836,16.5,16.5,0,0,1-3.311.065,2.941,2.941,0,0,0-2.718,2.73c-.005,1.673.007,3.347-.008,5.02a10.087,10.087,0,0,0,.255,2.366,7.286,7.286,0,0,0,2.1,4.011c.622.551,1.33,1.007,2.006,1.5.283.2.582.388.879.572a4.4,4.4,0,0,0,5.259-.308c.591-.423,1.123-.929,1.72-1.341a5.663,5.663,0,0,0,1.539-1.584,9.743,9.743,0,0,0,1.31-3.492A23.219,23.219,0,0,0,836.907,421.721ZM831.078,448h16.169c.067,0,.135,0,.2,0a1.16,1.16,0,0,0,1.139-1.43q-.422-2.613-.854-5.224a3.467,3.467,0,0,0-2.438-2.893c-1.32-.461-2.628-.955-3.942-1.432-.954-.346-1.91-.687-2.881-1.035a.572.572,0,0,0,.119.368c.417.844.839,1.685,1.254,2.53.342.7.054,1.165-.728,1.181-.507.011-1.014,0-1.574,0,.14.276.246.49.355.7.282.549.251.756-.2,1.168q-1.3,1.192-2.6,2.378Zm-10.031-7.936c-.576,0-1.088.01-1.6,0-.756-.018-1.045-.49-.715-1.163.426-.869.864-1.732,1.29-2.6.041-.083.148-.163.058-.31-2.435.888-4.885,1.738-7.3,2.682a3.017,3.017,0,0,0-1.867,2.384c-.325,1.775-.568,3.565-.91,5.336a1.287,1.287,0,0,0,1.4,1.622c5.22-.025,10.44-.011,15.66-.015.111,0,.238.053.379-.082-.107-.089-.212-.169-.309-.258q-3.134-2.868-6.266-5.738a.76.76,0,0,1-.194-1.137Zm17.277-19.917a1.207,1.207,0,0,0,.26-.88c0-1.5,0-3,0-4.494a2.1,2.1,0,0,0-.112-.673,2.879,2.879,0,0,0-1.994-2c-.564-.167-.739-.477-.563-1,.339-1-.126-1.577-1.175-1.594-3.1-.049-6.208-.068-9.31,0a5.457,5.457,0,0,0-5.382,5.58c-.006,1.174,0,2.348,0,3.522a2.038,2.038,0,0,0,.2,1.047v-.621a4.37,4.37,0,0,1,3.225-4.272,8.243,8.243,0,0,1,2.535-.095,6.587,6.587,0,0,0,3.014-.568c.268-.121.55-.212.828-.307a3.179,3.179,0,0,1,1.9-.116c1.279.348,2.516.824,3.754,1.289a4.172,4.172,0,0,1,2.8,3.362A10.717,10.717,0,0,1,838.323,420.142Zm-5.46,20.573,3.1-5.642c-.489-.176-.945-.332-1.4-.5a.4.4,0,0,0-.4.1q-1.1.74-2.21,1.477c-.543.364-1.084.729-1.64,1.1Zm-10.24-5.639,3.105,5.641,2.535-3.483c-1.325-.885-2.62-1.75-3.912-2.617a.34.34,0,0,0-.337-.046C823.563,434.739,823.108,434.9,822.623,435.076Zm15.569,3.62-1.246-2.493-4.828,8.784.091.071,4.3-3.934c-.244-.466-.476-.892-.69-1.326a.7.7,0,0,1,.671-1.1C837.025,438.688,837.561,438.7,838.191,438.7Zm-11.781,6.388.089-.047L821.64,436.2l-1.24,2.5c.619,0,1.153-.007,1.687,0,.69.012.98.5.668,1.126-.215.43-.442.855-.674,1.3Zm2.884,2.118c.3-.542.55-1.015.818-1.479a.655.655,0,0,0,.05-.467c-.176-1.09-.333-2.184-.537-3.269a2.422,2.422,0,0,1,.454-2.509c.017-.016.016-.049.03-.094l-.8-1.093-.832,1.116a6.006,6.006,0,0,0,.377.538,1.271,1.271,0,0,1,.27,1.129c-.241,1.421-.463,2.844-.692,4.267a.493.493,0,0,0,.032.351C828.732,446.169,828.992,446.652,829.294,447.2Zm4.259-14.467c-2.828,2.281-5.672,2.264-8.582-.058.083.347-.089.586.2.774,1.38.907,2.75,1.831,4.127,2.752,1.312-.874,2.6-1.755,3.913-2.593A.693.693,0,0,0,833.553,432.735ZM827.3,443.562c.151-.956.281-1.788.414-2.619a.238.238,0,0,0-.151-.3c-.318.431-.632.863-.954,1.29a.269.269,0,0,0-.034.331C826.795,442.656,827.013,443.054,827.3,443.562Zm4.075-.133c.206-.376.408-.753.618-1.127.054-.1.121-.191.044-.3-.333-.458-.67-.912-1.006-1.367l-.129.047A16.757,16.757,0,0,0,831.37,443.428Z" transform="translate(-808.559 -408.091)" fill="#0f2771"/>
        </g>
        <g id="Grupo_211508" data-name="Grupo 211508" transform="translate(30.033 42.982)">
          <line id="Línea_498" data-name="Línea 498" y2="10.347" transform="translate(7.316)" fill="none" stroke="#0f2771" stroke-linecap="round" stroke-linejoin="round" stroke-width="1"/>
          <line id="Línea_499" data-name="Línea 499" x1="7.316" y2="7.316" transform="translate(0 10.347)" fill="none" stroke="#0f2771" stroke-linecap="round" stroke-linejoin="round" stroke-width="1"/>
          <line id="Línea_500" data-name="Línea 500" x2="7.316" y2="7.316" transform="translate(7.319 10.347)" fill="none" stroke="#0f2771" stroke-linecap="round" stroke-linejoin="round" stroke-width="1"/>
        </g>
      </g>
    </g>
  </g>
</svg>
