<svg xmlns="http://www.w3.org/2000/svg" width="136" height="136" viewBox="0 0 136 136">
  <g id="Grupo_215635" data-name="Grupo 215635" transform="translate(-1118 -4019)">
    <circle id="Elipse_16395" data-name="Elipse 16395" cx="68" cy="68" r="68" transform="translate(1118 4019)" fill="#feca2e"/>
    <g id="Grupo_211502" data-name="Grupo 211502" transform="translate(802.909 4898.666)">
      <path id="Trazado_224147" data-name="Trazado 224147" d="M631.051-708.333a1.349,1.349,0,0,0-1.349,1.349,1.349,1.349,0,0,0,1.349,1.349h2.7a1.349,1.349,0,0,0,1.349-1.349,1.349,1.349,0,0,0-1.349-1.349Z" transform="translate(-232.789 -119.72)" fill="#0f2771"/>
      <path id="Trazado_224148" data-name="Trazado 224148" d="M585.749-708.333h-2.7a1.349,1.349,0,0,0-1.349,1.349,1.349,1.349,0,0,0,1.349,1.349h2.7a1.349,1.349,0,0,0,1.349-1.349A1.349,1.349,0,0,0,585.749-708.333Z" transform="translate(-192.882 -119.72)" fill="#0f2771"/>
      <path id="Trazado_224149" data-name="Trazado 224149" d="M537.749-708.333h-2.7a1.349,1.349,0,0,0-1.349,1.349,1.349,1.349,0,0,0,1.349,1.349h2.7a1.349,1.349,0,0,0,1.349-1.349A1.349,1.349,0,0,0,537.749-708.333Z" transform="translate(-152.975 -119.72)" fill="#0f2771"/>
      <path id="Trazado_224150" data-name="Trazado 224150" d="M489.749-708.333h-2.7a1.349,1.349,0,0,0-1.349,1.349,1.349,1.349,0,0,0,1.349,1.349h2.7a1.349,1.349,0,0,0,1.349-1.349A1.349,1.349,0,0,0,489.749-708.333Z" transform="translate(-113.069 -119.72)" fill="#0f2771"/>
      <path id="Trazado_224151" data-name="Trazado 224151" d="M349.7-771.4h67.445v-80.934H349.7Zm2.7-78.236h62.049V-774.1H352.4Z" fill="#0f2771"/>
      <path id="Trazado_224152" data-name="Trazado 224152" d="M472.867-801.542h-5.4a9.453,9.453,0,0,1-9.442-9.442,1.349,1.349,0,0,0-1.349-1.349H431.051a1.349,1.349,0,0,0-1.349,1.349v63.4a1.349,1.349,0,0,0,1.349,1.349H435.1a1.348,1.348,0,0,0,1.309-1.022l3.791-15.165h.178L439.149-747.7a1.348,1.348,0,0,0,.352,1.026,1.35,1.35,0,0,0,.992.435h26.978a1.349,1.349,0,0,0,1.342-1.211l5.4-52.607a1.35,1.35,0,0,0-.341-1.041A1.35,1.35,0,0,0,472.867-801.542Zm-6.613,52.607H441.959l1.227-14.726a1.347,1.347,0,0,0-.352-1.025,1.349,1.349,0,0,0-.993-.435h-2.7a1.348,1.348,0,0,0-1.309,1.021l-3.791,15.165H432.4v-60.7h23.006a12.158,12.158,0,0,0,12.066,10.791h3.9Z" transform="translate(-66.511 -33.256)" fill="#0f2771"/>
      <path id="Trazado_224153" data-name="Trazado 224153" d="M463.051-780.333a1.349,1.349,0,0,0-1.349,1.349v2.7a1.349,1.349,0,0,0,1.349,1.349,1.349,1.349,0,0,0,1.349-1.349v-2.7A1.349,1.349,0,0,0,463.051-780.333Z" transform="translate(-93.115 -59.86)" fill="#0f2771"/>
      <path id="Trazado_224154" data-name="Trazado 224154" d="M463.051-732.333a1.349,1.349,0,0,0-1.349,1.349v2.7a1.349,1.349,0,0,0,1.349,1.349,1.349,1.349,0,0,0,1.349-1.349v-2.7A1.349,1.349,0,0,0,463.051-732.333Z" transform="translate(-93.115 -99.766)" fill="#0f2771"/>
      <path id="Trazado_224155" data-name="Trazado 224155" d="M463.051-684.333a1.349,1.349,0,0,0-1.349,1.349v2.7a1.349,1.349,0,0,0,1.349,1.349,1.349,1.349,0,0,0,1.349-1.349v-2.7A1.349,1.349,0,0,0,463.051-684.333Z" transform="translate(-93.115 -139.673)" fill="#0f2771"/>
      <path id="Trazado_224156" data-name="Trazado 224156" d="M463.051-636.333a1.349,1.349,0,0,0-1.349,1.349v2.7a1.349,1.349,0,0,0,1.349,1.349,1.349,1.349,0,0,0,1.349-1.349v-2.7A1.349,1.349,0,0,0,463.051-636.333Z" transform="translate(-93.115 -179.58)" fill="#0f2771"/>
      <path id="Trazado_224157" data-name="Trazado 224157" d="M463.051-588.333a1.349,1.349,0,0,0-1.349,1.349v2.7a1.349,1.349,0,0,0,1.349,1.349,1.349,1.349,0,0,0,1.349-1.349v-2.7A1.349,1.349,0,0,0,463.051-588.333Z" transform="translate(-93.115 -219.486)" fill="#0f2771"/>
      <path id="Trazado_224158" data-name="Trazado 224158" d="M552.4-537.448v-3.9a12.229,12.229,0,0,1,12.14-12.29,1.349,1.349,0,0,0,1.349-1.349,1.349,1.349,0,0,0-1.349-1.349A14.93,14.93,0,0,0,549.7-541.345v3.9a1.349,1.349,0,0,0,1.349,1.349A1.349,1.349,0,0,0,552.4-537.448Z" transform="translate(-166.277 -246.091)" fill="#0f2771"/>
    </g>
  </g>
</svg>
