<svg xmlns="http://www.w3.org/2000/svg" xmlns:xlink="http://www.w3.org/1999/xlink" width="504.125" height="333.168" viewBox="0 0 504.125 333.168">
  <defs>
    <linearGradient id="linear-gradient" x1="462.243" y1="0.5" x2="463.243" y2="0.5" gradientUnits="objectBoundingBox">
      <stop offset="0" stop-color="#ff928e"/>
      <stop offset="1" stop-color="#feb3b1"/>
    </linearGradient>
    <linearGradient id="linear-gradient-2" x1="376.311" y1="0.5" x2="377.311" y2="0.5" xlink:href="#linear-gradient"/>
    <linearGradient id="linear-gradient-3" x1="257.627" y1="0.1" x2="255.238" y2="1.142" xlink:href="#linear-gradient"/>
    <linearGradient id="linear-gradient-4" x1="142.899" y1="0.5" x2="143.899" y2="0.5" xlink:href="#linear-gradient"/>
    <linearGradient id="linear-gradient-5" x1="0.23" y1="-0.241" x2="0.898" y2="1.483" gradientUnits="objectBoundingBox">
      <stop offset="0" stop-color="#ff928e"/>
      <stop offset="0.105" stop-color="#ff9592"/>
      <stop offset="1" stop-color="#feb3b1"/>
    </linearGradient>
    <linearGradient id="linear-gradient-6" x1="31.019" y1="0.5" x2="32.019" y2="0.5" gradientUnits="objectBoundingBox">
      <stop offset="0" stop-color="#b37cff"/>
      <stop offset="1" stop-color="#f895e7"/>
    </linearGradient>
    <linearGradient id="linear-gradient-7" x1="184.084" y1="-1.222" x2="182.391" y2="3.818" xlink:href="#linear-gradient"/>
    <linearGradient id="linear-gradient-8" x1="402.242" y1="0.5" x2="403.242" y2="0.5" xlink:href="#linear-gradient"/>
    <linearGradient id="linear-gradient-9" x1="83.247" y1="74.372" x2="84.032" y2="73.078" xlink:href="#linear-gradient"/>
    <linearGradient id="linear-gradient-10" x1="336.448" y1="240.944" x2="339.659" y2="236.723" xlink:href="#linear-gradient"/>
    <linearGradient id="linear-gradient-11" x1="-0.183" y1="-0.178" x2="1.099" y2="0.971" xlink:href="#linear-gradient"/>
    <linearGradient id="linear-gradient-12" x1="47.577" y1="5.607" x2="48.341" y2="4.248" xlink:href="#linear-gradient"/>
    <linearGradient id="linear-gradient-13" x1="81.845" y1="5.836" x2="83.163" y2="4.383" xlink:href="#linear-gradient"/>
    <linearGradient id="linear-gradient-14" x1="140.883" y1="0.5" x2="141.883" y2="0.5" gradientUnits="objectBoundingBox">
      <stop offset="0" stop-color="#f9b776"/>
      <stop offset="1" stop-color="#f47960"/>
    </linearGradient>
    <linearGradient id="linear-gradient-15" x1="77.258" y1="0.479" x2="81.239" y2="0.754" xlink:href="#linear-gradient"/>
    <linearGradient id="linear-gradient-16" x1="39.501" y1="-6.768" x2="40.229" y2="-5.719" xlink:href="#linear-gradient"/>
  </defs>
  <g id="Grupo_215601" data-name="Grupo 215601" transform="translate(-915.875 -5889)">
    <g id="Grupo_212805" data-name="Grupo 212805" transform="translate(724.341 5755)">
      <path id="Trazado_224366" data-name="Trazado 224366" d="M320.587,449.212s-44.751-5.955-66-1.3-73.886-20.576-56.441-60.17,37.2-64.13,14.376-85.78-30-62.883-6.468-86.055,30.613.67,49.36-7.864-5.058-53.048,47.9-65.628S395.82,161.358,419.9,157.065s62.707-24.128,88.692-23.02,22.762,39.851,57.243,37.592,61.548-6.16,83.886,26.821,16.965,74.812-4.331,91.342-17.141,38.762,22.125,40.036,34.843,47.384,2.8,81.424-59.529,34.417-91.534,36.647S320.587,449.212,320.587,449.212Z" transform="translate(0)" fill="#4cd0e1"/>
      <g id="Grupo_212770" data-name="Grupo 212770" transform="translate(206.535 269.086)">
        <path id="Trazado_224367" data-name="Trazado 224367" d="M373.484,889.215H261.8a6.448,6.448,0,0,1-6.448-6.448V715.495a6.448,6.448,0,0,1,6.431-6.448l112.574-.3a6.448,6.448,0,0,1,6.465,6.483L379.933,882.8A6.448,6.448,0,0,1,373.484,889.215Z" transform="translate(-255.355 -708.744)" fill="#bddcf6"/>
        <path id="Trazado_224368" data-name="Trazado 224368" d="M388.494,743.861l-99.861.615a6.543,6.543,0,0,0-6.5,6.573l.7,150.133a6.543,6.543,0,0,0,6.424,6.512l97.027,1.77a6.543,6.543,0,0,0,6.662-6.45l2.137-152.518A6.543,6.543,0,0,0,388.494,743.861Z" transform="translate(-275.837 -735.607)" fill="#e8f3fc"/>
        <rect id="Rectángulo_303189" data-name="Rectángulo 303189" width="80.857" height="4.603" rx="2.302" transform="translate(27.739 14.708)" fill="#4cd0e1"/>
        <path id="Trazado_224369" data-name="Trazado 224369" d="M449.133,809.775h0a1.957,1.957,0,0,1-1.919,1.851l-67.29,1.226a1.957,1.957,0,0,1-1.993-1.957v-.16a1.957,1.957,0,0,1,1.926-1.957l67.29-1.067A1.957,1.957,0,0,1,449.133,809.775Z" transform="translate(-349.121 -784.451)" fill="#4cd0e1"/>
        <path id="Trazado_224370" data-name="Trazado 224370" d="M395.657,984.923l-91.013-1.092a5.577,5.577,0,0,1-5.509-5.682l2.342-123.466a5.577,5.577,0,0,1,5.684-5.471l90.855,1.769a5.585,5.585,0,0,1,5.468,5.675h0L401.3,979.445a5.591,5.591,0,0,1-5.576,5.478ZM304.473,852.106a3.7,3.7,0,0,0-1.14,2.611l-2.342,123.466a3.72,3.72,0,0,0,3.675,3.792l91.013,1.092a3.716,3.716,0,0,0,3.765-3.655l2.184-122.79h0a3.726,3.726,0,0,0-3.648-3.786l-90.855-1.769h-.074A3.7,3.7,0,0,0,304.473,852.106Z" transform="translate(-288.845 -816.196)" fill="#4cd0e1"/>
        <path id="Trazado_224371" data-name="Trazado 224371" d="M309.4,903.63H408.52a.928.928,0,1,0,0-1.856H309.4a.928.928,0,0,0,0,1.856Z" transform="translate(-295.988 -856.405)" fill="#4cd0e1"/>
      </g>
      <g id="Grupo_212771" data-name="Grupo 212771" transform="translate(234.227 159.44)">
        <path id="Trazado_224372" data-name="Trazado 224372" d="M384.036,243.491C377.2,263.96,342.265,384.7,449.681,437.834c0,0,43.46-73.57-62.54-194.971A1.826,1.826,0,0,0,384.036,243.491Z" transform="translate(-373.177 -242.24)" fill="#bdd0fb"/>
        <path id="Trazado_224373" data-name="Trazado 224373" d="M447.712,333.879c.537,6.88,1.214,13.739,1.952,20.6s1.56,13.7,2.459,20.538c1.8,13.673,3.9,27.309,6.427,40.873s5.464,27.06,9.128,40.379q2.717,10,6.17,19.789a174.38,174.38,0,0,0,7.977,19.178.928.928,0,1,0,1.662-.824l0-.005,0,0a172.671,172.671,0,0,1-8.014-18.925q-3.495-9.687-6.261-19.635c-3.734-13.237-6.744-26.682-9.36-40.2s-4.8-27.123-6.68-40.767q-1.414-10.234-2.589-20.5c-.781-6.842-1.5-13.7-2.082-20.554v0a.393.393,0,0,0-.783.064Z" transform="translate(-430.193 -312.017)" fill="#4cd0e1"/>
      </g>
      <g id="Grupo_212772" data-name="Grupo 212772" transform="translate(601.672 164.873)">
        <path id="Trazado_224374" data-name="Trazado 224374" d="M2009.966,266.6a1.756,1.756,0,0,0-3.4.158c-3.421,17.318-13.813,62.447-33.3,87.494-31.725,40.782-49.968,104.388-25.212,134.642C1948.053,488.9,2067.006,457.193,2009.966,266.6Z" transform="translate(-1936.528 -265.352)" fill="#bdd0fb"/>
        <path id="Trazado_224375" data-name="Trazado 224375" d="M2066.3,374.054c0,.532-.05,1-.079,1.494l-.117,1.46-.266,2.915c-.189,1.942-.4,3.882-.613,5.821q-.66,5.816-1.453,11.616c-1.06,7.732-2.321,15.436-3.7,23.118s-2.947,15.332-4.678,22.945l-.644,2.856-.681,2.847c-.462,1.9-.89,3.8-1.384,5.689l-1.444,5.675-1.529,5.653a379.887,379.887,0,0,1-15.087,44.336c-.361.907-.752,1.8-1.149,2.695l-1.179,2.682-1.179,2.682c-.4.889-.832,1.767-1.247,2.652-.845,1.761-1.65,3.541-2.529,5.285l-2.666,5.218a206.668,206.668,0,0,1-12.115,20.043.2.2,0,0,1-.329-.221v0a222.142,222.142,0,0,0,11.714-20.2l2.6-5.227c.857-1.747,1.641-3.53,2.464-5.293.4-.885.821-1.765,1.215-2.655l1.147-2.685,1.147-2.685c.386-.893.766-1.789,1.117-2.7l2.167-5.422c.711-1.812,1.372-3.643,2.061-5.464.338-.913.688-1.821,1.017-2.737l.964-2.757.964-2.756c.325-.918.643-1.837.939-2.765,2.489-7.38,4.683-14.855,6.805-22.348,4.186-15.007,7.6-30.223,10.536-45.528q2.182-11.483,3.92-23.047.877-5.779,1.636-11.576c.245-1.933.485-3.867.7-5.8l.312-2.905.14-1.453c.038-.48.088-.982.1-1.424v-.044a.2.2,0,0,1,.394.008Z" transform="translate(-1994.412 -348.353)" fill="#4cd0e1"/>
      </g>
      <g id="Grupo_212773" data-name="Grupo 212773" transform="translate(223.48 280.725)">
        <path id="Trazado_224376" data-name="Trazado 224376" d="M459.187,920.62s-1.231-26.036-28.156-51.715c-24.981-23.825-86.294-78.85-100.906-109.826a1.4,1.4,0,0,0-2.673.609c.262,16.273,4.122,56.978,33.3,96.776C398.382,907.786,459.187,920.62,459.187,920.62Z" transform="translate(-327.452 -758.263)" fill="#bdd0fb"/>
        <path id="Trazado_224377" data-name="Trazado 224377" d="M382.463,884.488a59.955,59.955,0,0,0,2.734,10.436c.146.426.283.856.436,1.279l.483,1.262.967,2.525,1.072,2.482c.365.824.7,1.665,1.111,2.465a127.544,127.544,0,0,0,10.9,18.671c.981,1.518,2.116,2.922,3.2,4.368,1.1,1.427,2.143,2.907,3.333,4.265l3.476,4.15c.565.706,1.2,1.347,1.811,2.011l1.844,1.981,1.845,1.981.925.988.97.944,3.878,3.775c.651.624,1.283,1.271,1.949,1.875l2,1.815,3.992,3.631,4.032,3.585c1.348,1.191,2.684,2.395,4.049,3.566q4.07,3.542,8.195,7.019c2.739,2.331,5.514,4.618,8.277,6.918l8.359,6.812c5.576,4.533,11.157,9.056,16.577,13.752,1.372,1.156,2.683,2.376,4.015,3.575.674.592,1.3,1.226,1.951,1.846s1.3,1.236,1.921,1.876c1.221,1.3,2.494,2.569,3.621,3.957l.872,1.019c.143.172.3.336.431.514l.4.537,1.6,2.152.006.008a.2.2,0,0,0,.335-.235,63.641,63.641,0,0,0-6.747-8.454c-.614-.66-1.26-1.289-1.889-1.935s-1.257-1.294-1.919-1.9c-1.31-1.236-2.6-2.5-3.949-3.688-5.342-4.832-10.894-9.406-16.4-14.026S452.1,973.07,446.64,968.406s-10.854-9.4-16.2-14.186l-3.98-3.625-1.99-1.813c-.664-.6-1.294-1.236-1.943-1.853l-3.866-3.723-.966-.931-.922-.974-1.839-1.954A158.3,158.3,0,0,1,401.2,922.87,126.535,126.535,0,0,1,390,904.582c-.43-.786-.773-1.614-1.167-2.418l-1.148-2.429-1.045-2.475-.522-1.238c-.166-.416-.317-.838-.475-1.257-.308-.841-.642-1.674-.929-2.523l-.84-2.555a52.92,52.92,0,0,1-1.356-5.206.025.025,0,0,0-.028-.022A.026.026,0,0,0,382.463,884.488Z" transform="translate(-369.533 -854.798)" fill="#4cd0e1"/>
      </g>
      <g id="Grupo_212775" data-name="Grupo 212775" transform="translate(276.277 184.378)">
        <path id="Trazado_224378" data-name="Trazado 224378" d="M1229.062,1189.612l-6.75,60.54h78.316l-10.2-60.54Z" transform="translate(-1064.783 -991.882)" fill="#0f2771"/>
        <path id="Trazado_224379" data-name="Trazado 224379" d="M552.083,366.911V533.453A25.264,25.264,0,0,0,576.7,558.71c60.829,1.568,273.58,5.372,331.486,4.518a18.59,18.59,0,0,0,18.3-18.06c1.117-38.69,2.93-131.726-3.781-174.919a19.13,19.13,0,0,0-18.292-16.192c-50.967-1.63-276.5-6.808-334.375-5.508A18.363,18.363,0,0,0,552.083,366.911Z" transform="translate(-552.083 -348.341)" fill="#0f2771"/>
        <path id="Trazado_224380" data-name="Trazado 224380" d="M596.544,387.159V545.385a14.638,14.638,0,0,0,14.419,14.636l322.9,3.989a14.246,14.246,0,0,0,14.459-14.191l.54-156.812A10.419,10.419,0,0,0,938.7,382.553l-330.589-6.679A11.289,11.289,0,0,0,596.544,387.159Z" transform="translate(-586.094 -369.4)" fill="#0f2771"/>
        <path id="Trazado_224381" data-name="Trazado 224381" d="M635.515,410.78V559.289a13.836,13.836,0,0,0,13.729,13.737L956.7,576.77a13.473,13.473,0,0,0,13.767-13.32l.515-147.182a9.846,9.846,0,0,0-9.679-9.813l-314.774-6.268A10.677,10.677,0,0,0,635.515,410.78Z" transform="translate(-615.905 -387.999)" fill="#fff" opacity="0.16"/>
        <path id="Trazado_224382" data-name="Trazado 224382" d="M949.14,1181.264h-.008l-354.208-6.035a.5.5,0,0,1,.016-.99l354.208,6.035a.5.5,0,0,1-.008.99Z" transform="translate(-584.482 -980.122)" fill="#bddcf6"/>
        <g id="Grupo_212774" data-name="Grupo 212774" transform="translate(186.868 200.153)">
          <path id="Trazado_224383" data-name="Trazado 224383" d="M1351.32,1208.281a4.181,4.181,0,1,1,4.181-4.181A4.186,4.186,0,0,1,1351.32,1208.281Zm0-7.371a3.19,3.19,0,1,0,3.19,3.19A3.194,3.194,0,0,0,1351.32,1200.91Z" transform="translate(-1347.139 -1199.92)" fill="#bddcf6"/>
        </g>
        <path id="Trazado_224384" data-name="Trazado 224384" d="M1238.147,1444.656H1123.526c-3.114,0-5.452-2.217-4.85-4.6l1.471-5.817c.442-1.749,2.367-3.033,4.653-3.1l110.5-3.448c2.388-.075,4.5,1.193,5.023,3.011l2.651,9.265C1243.661,1442.371,1241.311,1444.656,1238.147,1444.656Z" transform="translate(-985.433 -1174)" fill="#0f2771"/>
        <path id="Trazado_224385" data-name="Trazado 224385" d="M1400.532,1446.142a.5.5,0,0,1-.007-.99l4.735-.069a.511.511,0,0,1,.5.488.5.5,0,0,1-.488.5l-4.735.069Z" transform="translate(-1200.736 -1187.308)" fill="#bddcf6"/>
        <path id="Trazado_224386" data-name="Trazado 224386" d="M1135.427,1455.445a.5.5,0,0,1-.078-.006.5.5,0,0,1-.411-.567l.676-4.23a4.84,4.84,0,0,1,4.717-4.084l50.222-.734a.491.491,0,0,1,.5.488.5.5,0,0,1-.488.5l-50.222.734a3.852,3.852,0,0,0-3.754,3.25l-.676,4.23A.5.5,0,0,1,1135.427,1455.445Z" transform="translate(-997.941 -1187.874)" fill="#bddcf6"/>
      </g>
      <g id="Grupo_212776" data-name="Grupo 212776" transform="translate(299.351 230.902)">
        <path id="Trazado_224387" data-name="Trazado 224387" d="M776.194,928.794l-118.021,1.4c-4.545.054-8.128,3-7.906,6.493l1.965,30.907c.21,3.3,3.743,5.888,8.03,5.888H776.318c4.44,0,8.04-2.772,8.04-6.191V934.984C784.358,931.528,780.682,928.74,776.194,928.794Z" transform="translate(-650.257 -838.889)" fill="#e8f3fc"/>
        <path id="Trazado_224388" data-name="Trazado 224388" d="M1396.18,892.214l-118.021,1.717a7.782,7.782,0,0,0-7.906,7.945l1.965,37.818a7.846,7.846,0,0,0,8.03,7.2H1396.3a7.818,7.818,0,0,0,8.04-7.575V899.789A7.827,7.827,0,0,0,1396.18,892.214Z" transform="translate(-1124.524 -810.906)" fill="#e8f3fc"/>
        <path id="Trazado_224389" data-name="Trazado 224389" d="M847.37,546.282H665.125A4.978,4.978,0,0,0,660,551.1v46.822a4.978,4.978,0,0,0,5.125,4.817H847.37a4.978,4.978,0,0,0,5.125-4.817V551.1A4.978,4.978,0,0,0,847.37,546.282Z" transform="translate(-657.71 -546.282)" fill="#e8f3fc"/>
        <path id="Trazado_224390" data-name="Trazado 224390" d="M1761.879,557.041h-72.9a2.5,2.5,0,0,0-.635.061c-6.094,1.6-8.146-3.512-10.515,4.248-.1.311.123.64.123.966V608.68c0,2.66,4.8,4.817,10.71,4.817h73.221c5.915,0,10.711-2.156,10.711-4.817V561.858C1772.59,559.2,1767.794,557.041,1761.879,557.041Z" transform="translate(-1436.289 -554.408)" fill="#e8f3fc"/>
      </g>
      <g id="Grupo_212777" data-name="Grupo 212777" transform="translate(245.669 359.322)">
        <path id="Trazado_224391" data-name="Trazado 224391" d="M429.2,1182.079H540.88c3.561,0,6.448-2.133,6.448-4.764v-79.665c0-2.626-2.876-4.757-6.431-4.764l-112.574-.223c-3.581-.007-6.485,2.143-6.465,4.789l.893,79.888C422.77,1179.962,425.651,1182.079,429.2,1182.079Z" transform="translate(-421.858 -1092.664)" fill="#bddcf6"/>
        <path id="Trazado_224392" data-name="Trazado 224392" d="M454.951,1118.607l99.861.454c3.61.016,6.519,2.189,6.5,4.856l-.7,67c-.017,2.627-2.869,4.763-6.424,4.811l-97.027,1.308c-3.624.049-6.611-2.088-6.662-4.765l-2.137-68.765C448.316,1120.8,451.285,1118.59,454.951,1118.607Z" transform="translate(-442.136 -1112.509)" fill="#e8f3fc"/>
        <path id="Trazado_224393" data-name="Trazado 224393" d="M493.652,1140.338v.509c0,.8.876,1.446,1.957,1.446h76.942c1.081,0,1.957-.647,1.957-1.446v-.509c0-.8-.876-1.446-1.957-1.446H495.609C494.528,1138.892,493.652,1139.54,493.652,1140.338Z" transform="translate(-476.778 -1128.027)" fill="#4cd0e1"/>
        <path id="Trazado_224394" data-name="Trazado 224394" d="M530.167,1167.3h0a1.788,1.788,0,0,0,1.919,1.367l67.29.906c1.095.015,1.993-.637,1.993-1.446v-.118c0-.79-.858-1.433-1.926-1.446l-67.29-.788C531.018,1165.765,530.106,1166.466,530.167,1167.3Z" transform="translate(-504.708 -1148.594)" fill="#4cd0e1"/>
        <path id="Trazado_224395" data-name="Trazado 224395" d="M470.125,1247.981l-2.184-46.8c0-.007,0-.014,0-.021a3.791,3.791,0,0,1,1.116-2.715,6.159,6.159,0,0,1,4.356-1.731l90.854-1.306h.1c3.023,0,5.514,1.9,5.574,4.252l2.343,47.324a3.789,3.789,0,0,1-1.122,2.727,6.165,6.165,0,0,1-4.39,1.725l-91.013.807H475.7C472.624,1252.24,470.182,1250.37,470.125,1247.981Zm94.169-50.719-90.854,1.306a4.365,4.365,0,0,0-3.046,1.162,1.96,1.96,0,0,0-.6,1.374l2.184,46.812c.033,1.345,1.732,2.468,3.721,2.468h.047l91.013-.807a4.373,4.373,0,0,0,3.072-1.158,1.949,1.949,0,0,0,.6-1.368l-2.343-47.324c-.034-1.348-1.73-2.465-3.721-2.465Zm-95.43,3.873h0Z" transform="translate(-457.109 -1171.258)" fill="#4cd0e1"/>
        <path id="Trazado_224396" data-name="Trazado 224396" d="M473.887,1236.095h99.12a.928.928,0,1,0,0-1.856h-99.12a.928.928,0,1,0,0,1.856Z" transform="translate(-460.948 -1200.964)" fill="#4cd0e1"/>
      </g>
      <g id="Grupo_212778" data-name="Grupo 212778" transform="translate(315.131 414.799)">
        <path id="Trazado_224397" data-name="Trazado 224397" d="M834.581,1333.191l-.869,31.026c-.067,2.41-3.346,4.343-7.367,4.343H724.761c-4.069,0-7.368-1.978-7.368-4.417V1335.1c0-2.384,3.155-4.338,7.129-4.415l102.454-1.988C831.185,1328.62,834.652,1330.667,834.581,1333.191Z" transform="translate(-717.393 -1328.7)" fill="#bddcf6"/>
        <path id="Trazado_224398" data-name="Trazado 224398" d="M849.976,1353.767l-2.2,28.531c-.085,1.1-1.608,1.953-3.437,1.933l-92.5-.977c-1.844-.02-3.322-.921-3.322-2.027v-24.744c0-1.08,1.414-1.971,3.214-2.025l94.706-2.811C848.423,1351.589,850.068,1352.572,849.976,1353.767Z" transform="translate(-741.196 -1346.253)" fill="#bdd0fb"/>
        <path id="Trazado_224399" data-name="Trazado 224399" d="M875.075,1367.833v2.055c0,.724-.99,1.308-2.2,1.3l-79.784-.781c-1.181-.011-2.128-.589-2.128-1.3h0c0-.7.934-1.278,2.106-1.3l79.784-1.275C874.071,1366.517,875.075,1367.1,875.075,1367.833Z" transform="translate(-773.672 -1357.643)" fill="#4cd0e1"/>
        <path id="Trazado_224400" data-name="Trazado 224400" d="M882.356,1399.922v1.885c0,.734-1.015,1.322-2.239,1.3l-75.99-1.587c-1.165-.024-2.088-.6-2.088-1.3v-.588c0-.72.977-1.3,2.177-1.3l75.99.289C881.4,1398.63,882.356,1399.209,882.356,1399.922Z" transform="translate(-782.144 -1381.969)" fill="#4cd0e1"/>
      </g>
      <g id="Grupo_212781" data-name="Grupo 212781" transform="translate(525.069 254.68)">
        <path id="Trazado_224401" data-name="Trazado 224401" d="M1624.771,746.864l108.447.9a11.235,11.235,0,0,1,11.132,10.756l6.707,157.293a8.285,8.285,0,0,1-8.2,8.638l-124.312,1.233a7.864,7.864,0,0,1-7.942-7.929l1.307-158.24A12.753,12.753,0,0,1,1624.771,746.864Z" transform="translate(-1610.607 -723.497)" fill="#feca2f"/>
        <path id="Trazado_224402" data-name="Trazado 224402" d="M1649.1,1398.508h0l-13.906-.295a8.635,8.635,0,0,1-8.419-8.671l.173-21a.354.354,0,0,1,.357-.351.359.359,0,0,1,.351.357l-.173,21a7.923,7.923,0,0,0,7.726,7.957l13.906.295a.354.354,0,0,1-.014.708Z" transform="translate(-1622.972 -1198.792)" fill="#fff" opacity="0.7"/>
        <path id="Trazado_224403" data-name="Trazado 224403" d="M1628.088,1330.161a.354.354,0,0,1-.348-.357l.028-3.4a.355.355,0,0,1,.357-.351h0a.354.354,0,0,1,.349.357l-.028,3.4a.354.354,0,0,1-.357.351Z" transform="translate(-1623.713 -1166.555)" fill="#fff" opacity="0.7"/>
        <g id="Grupo_212779" data-name="Grupo 212779" transform="translate(9.883 22.056)">
          <path id="Trazado_224404" data-name="Trazado 224404" d="M1657.281,741.33c14.793,2.13,65.667,8.762,107.8,5.878a3.425,3.425,0,0,1,3.662,3.261l7.089,158a3.942,3.942,0,0,1-3.737,4.115c-17.717.9-90.679,4.351-116.669,1.411a3.123,3.123,0,0,1-2.769-3.114l.394-165.889A3.7,3.7,0,0,1,1657.281,741.33Z" transform="translate(-1652.655 -741.291)" fill="#bddcf6"/>
          <path id="Trazado_224405" data-name="Trazado 224405" d="M1664.452,758.819c14.236,2.051,63.194,8.433,103.739,5.657a3.3,3.3,0,0,1,3.524,3.138l6.822,152.048a3.793,3.793,0,0,1-3.6,3.96c-17.05.868-87.265,4.187-112.276,1.358a3.006,3.006,0,0,1-2.665-3l.379-159.642A3.565,3.565,0,0,1,1664.452,758.819Z" transform="translate(-1658.274 -754.671)" fill="#bdd0fb"/>
          <path id="Trazado_224406" data-name="Trazado 224406" d="M1812.952,827.793a.871.871,0,0,0,.886-.931l-.018-.31a1.031,1.031,0,0,0-.994-.954l-92.285-1.49c-.517-.009-.679.318-.361.725l1.149,1.467a2.213,2.213,0,0,0,1.52.748Z" transform="translate(-1704.184 -804.643)" fill="#4cd0e1"/>
          <path id="Trazado_224407" data-name="Trazado 224407" d="M1720.327,849.952c-.517-.008-.679.318-.361.725l1.149,1.467a2.214,2.214,0,0,0,1.52.748l90.1.744a.871.871,0,0,0,.886-.931l-.018-.31a1.031,1.031,0,0,0-.994-.954Z" transform="translate(-1704.021 -824.412)" fill="#4cd0e1"/>
          <path id="Trazado_224408" data-name="Trazado 224408" d="M1732.734,1030.868h-.033l-12.2.177a3.309,3.309,0,0,1-3.444-2.734l-1.32-10.212a2.254,2.254,0,0,1,.492-1.708,2.708,2.708,0,0,1,1.865-.977h0c1.028-.095,2.442-.25,4-.42,3.389-.371,7.23-.792,9.491-.875l.05,0a3.433,3.433,0,0,1,3.454,2.33c.694,2.339.745,6.791.738,11.535A3.046,3.046,0,0,1,1732.734,1030.868Zm-14.553-14.461a1.708,1.708,0,0,0-1.179.607,1.265,1.265,0,0,0-.281.958l1.32,10.212a2.318,2.318,0,0,0,2.442,1.866l12.2-.177h.024a2.051,2.051,0,0,0,2.114-1.891c.007-4.667-.042-9.04-.7-11.251a2.465,2.465,0,0,0-2.512-1.616c-2.225.081-6.214.519-9.419.869-1.563.172-2.983.327-4.015.423Z" transform="translate(-1700.893 -949.993)" fill="#fff"/>
          <path id="Trazado_224409" data-name="Trazado 224409" d="M1726.891,1024.726c2.559-.237,8.117-.937,10.758-1.034a2.363,2.363,0,0,1,2.4,1.576c.555,1.873.578,5.633.573,9.1a2.03,2.03,0,0,1-2.1,1.909l-9.753.142a2.254,2.254,0,0,1-2.352-1.839l-1.054-8.161A1.584,1.584,0,0,1,1726.891,1024.726Z" transform="translate(-1708.267 -957.316)" fill="#4cd0e1"/>
          <path id="Trazado_224410" data-name="Trazado 224410" d="M1830.023,1039.023a.67.67,0,0,0-.679.9l1.232,4.252a1.29,1.29,0,0,0,1.2.88l61.561-1.485a.918.918,0,0,0,.9-.962l-.123-2.671a1,1,0,0,0-.983-.939Z" transform="translate(-1787.788 -969.03)" fill="#4cd0e1"/>
          <path id="Trazado_224411" data-name="Trazado 224411" d="M1731.252,1005.522h0a1.873,1.873,0,0,1,2.6.641l2.511,4.256a.6.6,0,0,0,1.073-.072l5.649-13.433a.667.667,0,0,1,1.281.257,26.242,26.242,0,0,1-7.194,18.444s-3.613-1.3-6.648-7.565A1.965,1.965,0,0,1,1731.252,1005.522Z" transform="translate(-1712.07 -936.52)" fill="#feca2f"/>
          <path id="Trazado_224412" data-name="Trazado 224412" d="M1734.749,914.256h-.034l-12.2.177a3.309,3.309,0,0,1-3.444-2.734l-1.32-10.212a2.253,2.253,0,0,1,.492-1.708,2.707,2.707,0,0,1,1.865-.977h0c1.028-.095,2.442-.25,4-.42,3.389-.371,7.231-.792,9.491-.875l.05,0a3.433,3.433,0,0,1,3.454,2.33c.693,2.339.745,6.791.738,11.535A3.046,3.046,0,0,1,1734.749,914.256ZM1720.2,899.8a1.706,1.706,0,0,0-1.179.607,1.265,1.265,0,0,0-.281.958l1.32,10.212a2.318,2.318,0,0,0,2.442,1.866l12.2-.177h.024a2.05,2.05,0,0,0,2.115-1.891c.006-4.667-.042-9.04-.7-11.251a2.465,2.465,0,0,0-2.512-1.616c-2.225.081-6.214.519-9.419.869-1.563.172-2.983.327-4.015.423Z" transform="translate(-1702.434 -860.789)" fill="#fff"/>
          <path id="Trazado_224413" data-name="Trazado 224413" d="M1728.9,908.114c2.559-.237,8.116-.937,10.758-1.034a2.363,2.363,0,0,1,2.4,1.576c.555,1.873.578,5.633.574,9.1a2.03,2.03,0,0,1-2.1,1.909l-9.753.142a2.254,2.254,0,0,1-2.352-1.838l-1.055-8.16A1.584,1.584,0,0,1,1728.9,908.114Z" transform="translate(-1709.807 -868.112)" fill="#4cd0e1"/>
          <path id="Trazado_224414" data-name="Trazado 224414" d="M1832.037,922.41a.67.67,0,0,0-.679.9l1.232,4.252a1.29,1.29,0,0,0,1.2.88l61.561-1.485a.918.918,0,0,0,.9-.962l-.123-2.671a1,1,0,0,0-.983-.939Z" transform="translate(-1789.329 -879.825)" fill="#4cd0e1"/>
          <path id="Trazado_224415" data-name="Trazado 224415" d="M1733.266,888.91h0a1.873,1.873,0,0,1,2.6.641l2.511,4.256a.6.6,0,0,0,1.073-.072L1745.1,880.3a.667.667,0,0,1,1.281.257A26.243,26.243,0,0,1,1739.185,899s-3.613-1.3-6.648-7.565A1.965,1.965,0,0,1,1733.266,888.91Z" transform="translate(-1713.61 -847.315)" fill="#feca2f"/>
          <path id="Trazado_224416" data-name="Trazado 224416" d="M1735.419,1142.132h-.034l-12.2.177a3.309,3.309,0,0,1-3.444-2.734l-1.32-10.212a2.255,2.255,0,0,1,.491-1.708,2.707,2.707,0,0,1,1.865-.977h0c1.028-.095,2.442-.25,4-.42,3.389-.371,7.23-.792,9.491-.875h.05a3.432,3.432,0,0,1,3.454,2.331c.693,2.339.745,6.791.738,11.534A3.046,3.046,0,0,1,1735.419,1142.132Zm-14.554-14.461a1.707,1.707,0,0,0-1.179.607,1.265,1.265,0,0,0-.281.958l1.32,10.212a2.318,2.318,0,0,0,2.442,1.866l12.2-.177h.024a2.05,2.05,0,0,0,2.114-1.891c.007-4.667-.042-9.04-.7-11.251a2.48,2.48,0,0,0-2.512-1.617c-2.224.082-6.214.519-9.419.869-1.563.172-2.983.327-4.015.423Z" transform="translate(-1702.946 -1035.105)" fill="#fff"/>
          <path id="Trazado_224417" data-name="Trazado 224417" d="M1729.574,1135.99c2.559-.237,8.117-.937,10.758-1.034a2.363,2.363,0,0,1,2.4,1.576c.556,1.873.578,5.634.574,9.1a2.031,2.031,0,0,1-2.1,1.909l-9.753.142a2.254,2.254,0,0,1-2.352-1.838l-1.055-8.16A1.584,1.584,0,0,1,1729.574,1135.99Z" transform="translate(-1710.32 -1042.429)" fill="#4cd0e1"/>
          <path id="Trazado_224418" data-name="Trazado 224418" d="M1832.707,1150.287a.67.67,0,0,0-.678.9l1.232,4.253a1.29,1.29,0,0,0,1.2.88l61.561-1.485a.918.918,0,0,0,.9-.962l-.123-2.671a1,1,0,0,0-.983-.939Z" transform="translate(-1789.842 -1054.142)" fill="#4cd0e1"/>
          <path id="Trazado_224419" data-name="Trazado 224419" d="M1733.935,1116.786h0a1.873,1.873,0,0,1,2.6.64l2.51,4.256a.6.6,0,0,0,1.073-.072l5.649-13.433a.667.667,0,0,1,1.281.257,26.245,26.245,0,0,1-7.194,18.444s-3.613-1.3-6.648-7.565A1.964,1.964,0,0,1,1733.935,1116.786Z" transform="translate(-1714.122 -1021.632)" fill="#feca2f"/>
          <path id="Trazado_224420" data-name="Trazado 224420" d="M1733.137,1249.094h-.032l-12.2.177a3.308,3.308,0,0,1-3.444-2.734l-1.32-10.211a2.256,2.256,0,0,1,.491-1.708,2.71,2.71,0,0,1,1.865-.977h0c1.027-.095,2.44-.25,4-.42,3.223-.353,7.234-.792,9.5-.875a3.482,3.482,0,0,1,3.5,2.328c.694,2.339.745,6.791.738,11.535A3.048,3.048,0,0,1,1733.137,1249.094Zm-14.552-14.462a1.709,1.709,0,0,0-1.179.608,1.268,1.268,0,0,0-.281.958l1.32,10.212a2.317,2.317,0,0,0,2.442,1.866l12.2-.176a2.1,2.1,0,0,0,2.138-1.892c.007-4.667-.042-9.039-.7-11.25a2.494,2.494,0,0,0-2.512-1.616c-2.225.081-6.216.518-9.423.869-1.561.171-2.98.327-4.011.422Z" transform="translate(-1701.202 -1116.928)" fill="#fff"/>
          <path id="Trazado_224421" data-name="Trazado 224421" d="M1727.293,1242.948c2.559-.237,8.117-.937,10.758-1.033a2.363,2.363,0,0,1,2.4,1.576c.555,1.873.578,5.633.574,9.1a2.031,2.031,0,0,1-2.1,1.909l-9.753.142a2.254,2.254,0,0,1-2.352-1.838l-1.054-8.16A1.584,1.584,0,0,1,1727.293,1242.948Z" transform="translate(-1708.575 -1124.248)" fill="#4cd0e1"/>
          <path id="Trazado_224422" data-name="Trazado 224422" d="M1830.426,1257.245a.67.67,0,0,0-.679.9l1.232,4.252a1.29,1.29,0,0,0,1.2.88l61.561-1.485a.918.918,0,0,0,.9-.962l-.123-2.671a1,1,0,0,0-.983-.939Z" transform="translate(-1788.097 -1135.961)" fill="#4cd0e1"/>
          <path id="Trazado_224423" data-name="Trazado 224423" d="M1731.655,1223.744h0a1.873,1.873,0,0,1,2.6.64l2.511,4.256a.6.6,0,0,0,1.072-.072l5.649-13.433a.667.667,0,0,1,1.281.257,26.245,26.245,0,0,1-7.194,18.444s-3.613-1.3-6.648-7.565A1.965,1.965,0,0,1,1731.655,1223.744Z" transform="translate(-1712.378 -1103.451)" fill="#feca2f"/>
          <path id="Trazado_224424" data-name="Trazado 224424" d="M1729.9,1359.42h-.033l-12.2.177a3.309,3.309,0,0,1-3.444-2.735l-1.32-10.212a2.254,2.254,0,0,1,.492-1.708,2.709,2.709,0,0,1,1.865-.977h0c1.028-.094,2.442-.25,4-.42,3.389-.371,7.23-.792,9.491-.875a3.472,3.472,0,0,1,3.5,2.328c.694,2.339.745,6.792.738,11.535A3.046,3.046,0,0,1,1729.9,1359.42Zm-14.553-14.461a1.705,1.705,0,0,0-1.179.607,1.265,1.265,0,0,0-.281.958l1.32,10.212a2.318,2.318,0,0,0,2.442,1.866l12.2-.177h.024a2.05,2.05,0,0,0,2.114-1.89c.007-4.667-.042-9.04-.7-11.251a2.51,2.51,0,0,0-2.512-1.616c-2.225.081-6.214.519-9.42.869-1.563.172-2.983.327-4.015.423Z" transform="translate(-1698.723 -1201.324)" fill="#fff"/>
          <path id="Trazado_224425" data-name="Trazado 224425" d="M1724.054,1353.269c2.559-.237,8.116-.937,10.758-1.033a2.363,2.363,0,0,1,2.4,1.576c.555,1.873.579,5.633.574,9.1a2.031,2.031,0,0,1-2.1,1.909l-9.753.141a2.254,2.254,0,0,1-2.352-1.838l-1.054-8.161A1.585,1.585,0,0,1,1724.054,1353.269Z" transform="translate(-1706.097 -1208.639)" fill="#4cd0e1"/>
          <path id="Trazado_224426" data-name="Trazado 224426" d="M1827.187,1367.565a.67.67,0,0,0-.678.9l1.232,4.252a1.29,1.29,0,0,0,1.2.88l61.561-1.485a.918.918,0,0,0,.9-.962l-.123-2.671a1,1,0,0,0-.983-.939Z" transform="translate(-1785.619 -1220.352)" fill="#4cd0e1"/>
          <path id="Trazado_224427" data-name="Trazado 224427" d="M1728.416,1334.064h0a1.873,1.873,0,0,1,2.6.641l2.511,4.256a.6.6,0,0,0,1.073-.073l5.649-13.433a.667.667,0,0,1,1.281.257,26.244,26.244,0,0,1-7.194,18.444s-3.613-1.305-6.648-7.565A1.965,1.965,0,0,1,1728.416,1334.064Z" transform="translate(-1709.901 -1187.842)" fill="#feca2f"/>
        </g>
        <path id="Trazado_224428" data-name="Trazado 224428" d="M1888.112,649.882c-3.895-2.757-7.3-2.732-9.7-2.044a4.783,4.783,0,0,0-3.438,5l.941,11.295,12.3,1.194S1895.75,655.29,1888.112,649.882Zm-5.486,9.061a3.068,3.068,0,1,1,3.094-3.043A3.069,3.069,0,0,1,1882.626,658.943Z" transform="translate(-1812.821 -647.45)" fill="#0f2771"/>
        <g id="Grupo_212780" data-name="Grupo 212780" transform="translate(63.328 1.349)">
          <path id="Trazado_224429" data-name="Trazado 224429" d="M1880.863,664.062a.609.609,0,0,1-.393-.52l-.15-1.8a.609.609,0,0,1,1.215-.1l.15,1.8a.61.61,0,0,1-.821.621Zm-.294-3.525a.609.609,0,0,1-.393-.52l-.114-1.366a4.878,4.878,0,0,1,3.5-5.089,9.513,9.513,0,0,1,4.65-.153.61.61,0,0,1-.255,1.192,8.3,8.3,0,0,0-4.06.132,3.656,3.656,0,0,0-2.622,3.817l.114,1.366a.61.61,0,0,1-.822.621Z" transform="translate(-1880.045 -653.191)" fill="#bdd0fb"/>
        </g>
        <path id="Trazado_224430" data-name="Trazado 224430" d="M1807.319,719.23l.047-5.674a3.463,3.463,0,0,1,3.61-3.431l39.112,1.664a3.368,3.368,0,0,1,3.22,3.191l.282,5.455Z" transform="translate(-1761.084 -695.391)" fill="#0f2771"/>
        <path id="Trazado_224431" data-name="Trazado 224431" d="M1861.326,717.5a.354.354,0,0,1,.009-.708l1.683.014a.35.35,0,0,1,.351.357.354.354,0,0,1-.357.351l-1.682-.014Z" transform="translate(-1802.132 -700.492)" fill="#bdd0fb"/>
        <path id="Trazado_224432" data-name="Trazado 224432" d="M1814.2,721.8a.609.609,0,0,1-.395-.576l.019-2.3a3.53,3.53,0,0,1,3.558-3.5l6.186.052a.61.61,0,0,1-.01,1.219l-6.186-.052a2.313,2.313,0,0,0-2.329,2.291l-.019,2.3a.609.609,0,0,1-.824.565Z" transform="translate(-1766.05 -699.448)" fill="#bdd0fb"/>
        <path id="Trazado_224433" data-name="Trazado 224433" d="M1742.566,739.609l68.414.563a5.057,5.057,0,0,1,4.948,4.235l.055.335a4.343,4.343,0,0,1-4.321,5.048l-70.189-.58a2.824,2.824,0,0,1-2.8-2.982l.177-3.14A3.687,3.687,0,0,1,1742.566,739.609Z" transform="translate(-1708.573 -717.948)" fill="#0f2771"/>
      </g>
      <path id="Trazado_224434" data-name="Trazado 224434" d="M1286.779,643.5a203.264,203.264,0,0,1,22.854,26.676,530.333,530.333,0,0,1,31.573-61.787l27.745-9.248c-19.113,24.922-39.489,62.061-56.908,99.31-12.595-17.75-25.179-35.464-34.256-41.75Z" transform="translate(-830.943 -355.819)" fill="#feca2f"/>
      <g id="Grupo_212792" data-name="Grupo 212792" transform="translate(278.068 316.356)">
        <g id="Grupo_212791" data-name="Grupo 212791" transform="translate(0)">
          <g id="Grupo_212790" data-name="Grupo 212790">
            <g id="Grupo_212787" data-name="Grupo 212787" transform="translate(77.718 22.799)">
              <g id="Grupo_212782" data-name="Grupo 212782" transform="translate(31.757 115.35)">
                <path id="Trazado_224435" data-name="Trazado 224435" d="M1025.923,1536.989c2.674.231,7.317.607,10.976.768a10.567,10.567,0,0,0,4.2-.411c0,.082,0,.16-.007.232a.757.757,0,0,1-.719.715,128.575,128.575,0,0,1-14.372.014.539.539,0,0,1-.439-.81A4.412,4.412,0,0,1,1025.923,1536.989Z" transform="translate(-1025.482 -1527.74)" fill="#0f2771"/>
                <path id="Trazado_224436" data-name="Trazado 224436" d="M1038.334,1520.18c-3.659-.161-8.3-.537-10.976-.768,2.63-3.226,10.976-5.4,10.976-5.4h2.357a9.886,9.886,0,0,1,1.838,5.758A10.57,10.57,0,0,1,1038.334,1520.18Z" transform="translate(-1026.917 -1510.162)" fill="#0f2771"/>
                <path id="Trazado_224437" data-name="Trazado 224437" d="M1071.463,1497.637l-.221,4.365a1,1,0,0,1-.851.938,3.872,3.872,0,0,1-1.771-.147,1.179,1.179,0,0,1-.793-.906l-.762-4.25Z" transform="translate(-1057.291 -1497.637)" fill="url(#linear-gradient)"/>
              </g>
              <g id="Grupo_212784" data-name="Grupo 212784" transform="translate(68.631 111.27)">
                <g id="Grupo_212783" data-name="Grupo 212783" transform="translate(1.039 4.051)">
                  <path id="Trazado_224438" data-name="Trazado 224438" d="M1202.914,1535.532a2.117,2.117,0,0,0,1.9-1.408l0,.017a1.507,1.507,0,0,1-1.016,1.719,6.644,6.644,0,0,1-2.813.44,2.8,2.8,0,0,1-2.109-.973l-.007-.009C1199.753,1535.751,1200.979,1535.8,1202.914,1535.532Z" transform="translate(-1196.037 -1525.52)" fill="#0f2771"/>
                  <path id="Trazado_224439" data-name="Trazado 224439" d="M1188.194,1497.517h1.944c2.961-.061,4.821,6.185,5.429,8.6a2.117,2.117,0,0,1-1.9,1.408c-1.934.27-3.161.219-4.035-.214a18.572,18.572,0,0,1-2.774-6.988A2.453,2.453,0,0,1,1188.194,1497.517Z" transform="translate(-1186.786 -1497.516)" fill="#0f2771"/>
                </g>
                <path id="Trazado_224440" data-name="Trazado 224440" d="M1186.508,1480.279l1.079,4.294a1.165,1.165,0,0,1-.606,1.321,4.139,4.139,0,0,1-2.235.541.974.974,0,0,1-.794-.649l-1.585-4.517Z" transform="translate(-1182.367 -1480.279)" fill="url(#linear-gradient-2)"/>
              </g>
              <path id="Trazado_224441" data-name="Trazado 224441" d="M1070.4,1286.878c-1.343,1.191-5.712,1.349-5.712,1.349-15.736-37.768-22.173-43.133-22.173-43.133,2.272,14.255.366,45.815.366,45.815-2.6,1.146-5.945,0-5.945,0a243.25,243.25,0,0,0-8.036-59.736c10.635-.239,16.291-3.879,18.138-5.339C1055.908,1240.125,1070.4,1286.878,1070.4,1286.878Z" transform="translate(-996.342 -1174.366)" fill="#0f2771"/>
              <path id="Trazado_224442" data-name="Trazado 224442" d="M997.9,1040.2c2.013,10.041,1.292,28.013.818,36.211-.133,2.3,1.475,5.5,2.775,7.677a.683.683,0,0,1-.276.961,47.406,47.406,0,0,1-18.1,5.017,1.219,1.219,0,0,1-1.226-.911c-6.339-23.67-13.7-38.8-13.7-38.8C976.316,1037.377,997.9,1040.2,997.9,1040.2Z" transform="translate(-949.896 -1032.165)" fill="#feca2f"/>
              <path id="Trazado_224443" data-name="Trazado 224443" d="M1061,1283.692a.5.5,0,0,0,.43-.766,15.811,15.811,0,0,0-6.239-5.417.5.5,0,1,0-.438.907,15.074,15.074,0,0,1,5.816,5.033A.5.5,0,0,0,1061,1283.692Z" transform="translate(-1015.895 -1213.859)" fill="#0f2771"/>
              <g id="Grupo_212785" data-name="Grupo 212785" transform="translate(45.751 8.033)">
                <path id="Trazado_224444" data-name="Trazado 224444" d="M1122.818,1161.38a34.542,34.542,0,0,1-6.379,15.2l-1.453-1.184a44.857,44.857,0,0,0,.724-14.527A17.387,17.387,0,0,1,1122.818,1161.38Z" transform="translate(-1107.942 -1132.561)" fill="url(#linear-gradient-3)"/>
                <path id="Trazado_224445" data-name="Trazado 224445" d="M1085.018,1053.43l2.248-12.39s15.023,11.484,12.627,28.818a17.387,17.387,0,0,0-7.108-.511C1092.1,1063.784,1090.047,1057.745,1085.018,1053.43Z" transform="translate(-1085.018 -1041.04)" fill="#feca2f"/>
              </g>
              <g id="Grupo_212786" data-name="Grupo 212786" transform="translate(0 18.194)">
                <path id="Trazado_224446" data-name="Trazado 224446" d="M950.274,1084.27l5.8,12.489c-.938,7.54-4.988,10.8-9.355,12.051a26.507,26.507,0,0,0-1.948-8.133C950.35,1094.915,950.274,1084.27,950.274,1084.27Z" transform="translate(-931.983 -1084.27)" fill="#feca2f"/>
                <path id="Trazado_224447" data-name="Trazado 224447" d="M903.152,1154.074a26.507,26.507,0,0,1,1.948,8.133c-11.652,4.521-14.735-4.247-14.735-4.247l2.153-.38C897.381,1158.093,900.778,1156.525,903.152,1154.074Z" transform="translate(-890.365 -1137.667)" fill="url(#linear-gradient-4)"/>
              </g>
              <path id="Trazado_224448" data-name="Trazado 224448" d="M990.918,1009.638l2.8,10.291a2,2,0,0,0,2.678,1.332,40.628,40.628,0,0,0,4.035-1.843,2.7,2.7,0,0,0,.951-3.877l-5.82-8.679Z" transform="translate(-967.284 -1006.863)" fill="url(#linear-gradient-5)"/>
            </g>
            <path id="Trazado_224449" data-name="Trazado 224449" d="M861.764,1141.308l71.736,26.109a5.493,5.493,0,0,1,3.121,7.436l-.218.479a5.106,5.106,0,0,1-6.791,2.521l-69.655-32.223Z" transform="translate(-789.386 -1086.909)" fill="#0f2771"/>
            <ellipse id="Elipse_16402" data-name="Elipse 16402" cx="35.412" cy="34.773" rx="35.412" ry="34.773" transform="translate(3.992 3.92)" opacity="0.2" fill="url(#linear-gradient-6)"/>
            <path id="Trazado_224450" data-name="Trazado 224450" d="M559.7,948.553c0,21.37,17.642,38.693,39.4,38.693s39.4-17.324,39.4-38.693-17.642-38.693-39.4-38.693S559.7,927.184,559.7,948.553Zm5.789,0c0-18.231,15.05-33.01,33.616-33.01s33.616,14.779,33.616,33.01-15.05,33.01-33.616,33.01S565.492,966.784,565.492,948.553Z" transform="translate(-559.704 -909.86)" fill="#0f2771"/>
            <g id="Grupo_212788" data-name="Grupo 212788" transform="translate(19.585 2.546)">
              <path id="Trazado_224451" data-name="Trazado 224451" d="M699.258,961.483h-.015a.114.114,0,0,1-.1-.128c.116-.905.2-1.829.243-2.745a.107.107,0,0,1,.12-.108.114.114,0,0,1,.108.12c-.046.922-.128,1.851-.244,2.763A.114.114,0,0,1,699.258,961.483Zm-.271-10.819a.114.114,0,0,1-.112-.094,35.258,35.258,0,0,0-2.1-7.2,36.027,36.027,0,0,0-13.239-16.161,37.17,37.17,0,0,0-40.329-.676.114.114,0,1,1-.121-.193,37.4,37.4,0,0,1,40.578.679,36.254,36.254,0,0,1,13.322,16.264,35.482,35.482,0,0,1,2.117,7.245.114.114,0,0,1-.092.132Z" transform="translate(-643.03 -920.693)" fill="#e8f3fc"/>
            </g>
            <path id="Trazado_224452" data-name="Trazado 224452" d="M1085.9,1220.607l-6.781-.553-2.937,2.707s.695.961,2.867.409a31.1,31.1,0,0,1,5.148-.687s3,1.352,3.036-1.178Z" transform="translate(-954.794 -1147.147)" fill="url(#linear-gradient-7)"/>
            <path id="Trazado_224453" data-name="Trazado 224453" d="M879.15,1160.725c-.586.458-2.6-.5-3.826-1.16a1.415,1.415,0,0,1-.684-1.672c.3-.933.789-2.138,1.4-2.29C877.045,1155.352,881.567,1158.837,879.15,1160.725Z" transform="translate(-800.569 -1097.835)" fill="url(#linear-gradient-8)"/>
            <path id="Trazado_224454" data-name="Trazado 224454" d="M1140.755,1255.929a.114.114,0,0,1-.037-.222c2.089-.722,3.183-1.9,3.252-3.5a3.889,3.889,0,0,0-2.542-3.743l-8.613-3.359a.114.114,0,0,1,.083-.212l8.613,3.359a4.116,4.116,0,0,1,2.687,3.965c-.074,1.7-1.22,2.951-3.405,3.707A.115.115,0,0,1,1140.755,1255.929Z" transform="translate(-998.056 -1166.141)" fill="#e8f3fc"/>
            <path id="Trazado_224455" data-name="Trazado 224455" d="M1117.93,1239.292a.109.109,0,0,1-.041-.008l-1.116-.435a.114.114,0,0,1,.083-.213l1.116.435a.114.114,0,0,1-.041.22Z" transform="translate(-985.785 -1161.356)" fill="#e8f3fc"/>
            <g id="Grupo_212789" data-name="Grupo 212789" transform="translate(97.744 9.658)">
              <path id="Trazado_224456" data-name="Trazado 224456" d="M979.82,975.685s-2.317,5.323-2.473,8.117-.758,4.607,2.473,5.169a6.867,6.867,0,0,0,7.426-3.83s2.31-4.288,1.792-6.044S979.82,975.685,979.82,975.685Z" transform="translate(-976.818 -969.871)" fill="url(#linear-gradient-9)"/>
              <path id="Trazado_224457" data-name="Trazado 224457" d="M984.9,964.219h-.408s1.683-3.451.2-4.058-7.335-1.8-8.6-3.879a3.864,3.864,0,0,1,1.493-5.315.217.217,0,0,1,.277.1l.135.255a.219.219,0,0,0,.4-.041h0a.218.218,0,0,1,.393-.06c.387.621,1.434,1.632,4.243,2.15,3.986.736,6.621,2.349,6.686,5.1a.219.219,0,0,0,.34.18c.294-.179.765-.263,1.394.266,1.095.92.647,3.307-1.752,5.271a.218.218,0,0,0,.01.352c.435.283,1.083.957-.6,1.855a4.479,4.479,0,0,1-3.119.72.22.22,0,0,1-.166-.227l.151-2.441a.22.22,0,0,0-.219-.233Z" transform="translate(-975.571 -950.95)" fill="#0f2771"/>
              <path id="Trazado_224458" data-name="Trazado 224458" d="M1014.816,1001.066s.884-3.4,2.409-2.447-.791,3.81-2.017,3.937Z" transform="translate(-1005.592 -987.286)" fill="url(#linear-gradient-10)"/>
            </g>
          </g>
        </g>
        <path id="Trazado_224459" data-name="Trazado 224459" d="M631.361,1014.334l13.408,10.436,25.741-21.1,6.641,7.583-32.382,33.881-20.749-22.727Z" transform="translate(-608.904 -981.623)" fill="#feca2f"/>
      </g>
      <path id="Trazado_224460" data-name="Trazado 224460" d="M1624.009,432.771c-17.906-.48-106.477-3.3-124.655-3.883-1.794-.057-3.264,2.574-3.264,5.839v15.094c0,3.225,1.437,5.84,3.209,5.84H1623.96c1.772,0,3.208-2.615,3.208-5.84V438.611C1627.168,435.419,1625.762,432.818,1624.009,432.771Z" transform="translate(-997.937 -225.578)" fill="#0f2771"/>
      <g id="Grupo_212793" data-name="Grupo 212793" transform="translate(502.177 206.36)">
        <path id="Trazado_224461" data-name="Trazado 224461" d="M1518.569,461.949l4.627-2.423a1.234,1.234,0,0,1,1.148,0l4.62,2.438a1.234,1.234,0,0,0,1.792-1.3l-.875-5.149a1.234,1.234,0,0,1,.356-1.092l3.746-3.64a1.234,1.234,0,0,0-.681-2.106l-5.167-.759a1.234,1.234,0,0,1-.928-.676l-2.3-4.687a1.234,1.234,0,0,0-2.213,0l-2.319,4.68a1.234,1.234,0,0,1-.93.674l-5.17.743a1.234,1.234,0,0,0-.687,2.1l3.734,3.652a1.234,1.234,0,0,1,.353,1.093l-.891,5.146A1.234,1.234,0,0,0,1518.569,461.949Z" transform="translate(-1513.21 -441.867)" fill="#feca2f"/>
      </g>
      <g id="Grupo_212794" data-name="Grupo 212794" transform="translate(526.05 207.041)">
        <path id="Trazado_224462" data-name="Trazado 224462" d="M1620.14,464.847l4.627-2.423a1.234,1.234,0,0,1,1.149,0l4.619,2.437a1.234,1.234,0,0,0,1.793-1.3l-.875-5.149a1.235,1.235,0,0,1,.356-1.092l3.746-3.64a1.234,1.234,0,0,0-.681-2.106l-5.167-.759a1.234,1.234,0,0,1-.928-.676l-2.3-4.687a1.234,1.234,0,0,0-2.213,0l-2.319,4.68a1.234,1.234,0,0,1-.93.674l-5.17.743a1.234,1.234,0,0,0-.687,2.1l3.734,3.652a1.235,1.235,0,0,1,.354,1.093l-.891,5.146A1.234,1.234,0,0,0,1620.14,464.847Z" transform="translate(-1614.781 -444.765)" fill="#feca2f"/>
      </g>
      <g id="Grupo_212795" data-name="Grupo 212795" transform="translate(550.132 207.175)">
        <path id="Trazado_224463" data-name="Trazado 224463" d="M1722.6,465.418l4.627-2.423a1.235,1.235,0,0,1,1.149,0l4.619,2.438a1.234,1.234,0,0,0,1.793-1.3l-.875-5.149a1.235,1.235,0,0,1,.357-1.092l3.746-3.64a1.234,1.234,0,0,0-.681-2.106l-5.167-.759a1.234,1.234,0,0,1-.928-.677l-2.3-4.687a1.234,1.234,0,0,0-2.213,0l-2.319,4.68a1.234,1.234,0,0,1-.93.674l-5.17.743a1.234,1.234,0,0,0-.687,2.1l3.735,3.651a1.235,1.235,0,0,1,.353,1.093l-.891,5.147A1.234,1.234,0,0,0,1722.6,465.418Z" transform="translate(-1717.24 -445.336)" fill="#feca2f"/>
      </g>
      <g id="Grupo_212796" data-name="Grupo 212796" transform="translate(573.507 207.45)">
        <path id="Trazado_224464" data-name="Trazado 224464" d="M1822.052,466.584l4.627-2.423a1.235,1.235,0,0,1,1.149,0l4.619,2.438a1.234,1.234,0,0,0,1.793-1.3l-.875-5.149a1.233,1.233,0,0,1,.357-1.092l3.745-3.64a1.234,1.234,0,0,0-.681-2.106l-5.167-.759a1.234,1.234,0,0,1-.928-.676l-2.3-4.687a1.234,1.234,0,0,0-2.213,0l-2.319,4.68a1.234,1.234,0,0,1-.93.674l-5.17.743a1.234,1.234,0,0,0-.687,2.1l3.734,3.651a1.233,1.233,0,0,1,.353,1.093l-.891,5.147A1.234,1.234,0,0,0,1822.052,466.584Z" transform="translate(-1816.694 -446.503)" fill="#feca2f"/>
      </g>
      <g id="Grupo_212797" data-name="Grupo 212797" transform="translate(602.899 342.967)">
        <path id="Trazado_224465" data-name="Trazado 224465" d="M1943.226,1147.283a1.439,1.439,0,0,0,1.454-1.1l22.965-121.564a1.342,1.342,0,0,0-1.21-1.519,1.468,1.468,0,0,0-1.7,1.081l-22.964,121.563a1.342,1.342,0,0,0,1.21,1.52A1.689,1.689,0,0,0,1943.226,1147.283Z" transform="translate(-1941.748 -1023.083)" fill="#0f2771"/>
        <path id="Trazado_224466" data-name="Trazado 224466" d="M2184.752,1152.427a1.608,1.608,0,0,0,.293-.027,1.331,1.331,0,0,0,1.156-1.553l-27.071-119.982a1.476,1.476,0,0,0-1.739-1.032,1.331,1.331,0,0,0-1.156,1.553l27.071,119.982A1.447,1.447,0,0,0,2184.752,1152.427Z" transform="translate(-2105.8 -1028.226)" fill="#0f2771"/>
        <path id="Trazado_224467" data-name="Trazado 224467" d="M2017.785,1148.86h39.244a1.327,1.327,0,1,0,0-2.637h-39.244a1.327,1.327,0,1,0,0,2.637Z" transform="translate(-1998.784 -1117.28)" fill="#0f2771"/>
        <path id="Trazado_224468" data-name="Trazado 224468" d="M2020.987,1148.86h37.82a1.323,1.323,0,1,0,0-2.637h-37.82a1.323,1.323,0,1,0,0,2.637Z" transform="translate(-2001.274 -1117.28)" fill="#0f2771"/>
        <path id="Trazado_224469" data-name="Trazado 224469" d="M2017.785,1242.378h39.244a1.327,1.327,0,1,0,0-2.638h-39.244a1.327,1.327,0,1,0,0,2.638Z" transform="translate(-1998.784 -1188.818)" fill="#0f2771"/>
        <path id="Trazado_224470" data-name="Trazado 224470" d="M2002.624,1242.378H2050.2a1.327,1.327,0,1,0,0-2.638h-47.578a1.327,1.327,0,1,0,0,2.638Z" transform="translate(-1987.187 -1188.818)" fill="#0f2771"/>
        <path id="Trazado_224471" data-name="Trazado 224471" d="M2017.785,1335.9h39.244a1.327,1.327,0,1,0,0-2.638h-39.244a1.327,1.327,0,1,0,0,2.638Z" transform="translate(-1998.784 -1260.356)" fill="#0f2771"/>
        <path id="Trazado_224472" data-name="Trazado 224472" d="M1983.289,1335.9h56.95a1.327,1.327,0,1,0,0-2.638h-56.95a1.327,1.327,0,1,0,0,2.638Z" transform="translate(-1972.396 -1260.356)" fill="#0f2771"/>
        <path id="Trazado_224473" data-name="Trazado 224473" d="M2017.785,1429.416h53.421a1.327,1.327,0,1,0,0-2.638h-53.421a1.327,1.327,0,1,0,0,2.638Z" transform="translate(-1998.784 -1331.895)" fill="#0f2771"/>
        <path id="Trazado_224474" data-name="Trazado 224474" d="M1967.65,1429.416h65.2a1.327,1.327,0,1,0,0-2.638h-65.2a1.327,1.327,0,1,0,0,2.638Z" transform="translate(-1960.432 -1331.895)" fill="#0f2771"/>
      </g>
      <g id="Grupo_212798" data-name="Grupo 212798" transform="translate(314.926 244.024)">
        <path id="Trazado_224475" data-name="Trazado 224475" d="M733.047,633.114l-1.691-7.427h-7.668L722,633.114h-5.474l7.286-29.545h7.427l7.306,29.545Zm-2.717-12.277-1.57-6.843q-.141-.623-.634-3.13t-.593-3.351q-.262,1.731-.664,3.814t-2.093,9.51Z" transform="translate(-716.523 -603.227)" fill="#0f2771"/>
        <path id="Trazado_224476" data-name="Trazado 224476" d="M837.29,613.14q0,4.69-2.365,7.2t-6.833,2.506h-1.369v10.667h-5.474V604.083h7.467Q837.29,604.083,837.29,613.14Zm-10.566,4.951h1.046a3.812,3.812,0,0,0,3-1.107,7.052,7.052,0,0,0,.08-7.054,3.389,3.389,0,0,0-2.8-1.117h-1.328Z" transform="translate(-796.635 -603.62)" fill="#0f2771"/>
        <path id="Trazado_224477" data-name="Trazado 224477" d="M921.292,613.14q0,4.69-2.365,7.2t-6.833,2.506h-1.369v10.667h-5.474V604.083h7.467Q921.293,604.083,921.292,613.14Zm-10.566,4.951h1.046a3.812,3.812,0,0,0,3-1.107,7.053,7.053,0,0,0,.08-7.054,3.389,3.389,0,0,0-2.8-1.117h-1.328Z" transform="translate(-860.894 -603.62)" fill="#0f2771"/>
        <path id="Trazado_224478" data-name="Trazado 224478" d="M994.73,622.056v11.452h-5.474V604.083h7.165q4.548,0,6.712,2.153t2.163,6.581q0,5.575-3.763,7.789l5.655,12.9h-5.857l-4.649-11.452Zm0-4.709h1.409a3.289,3.289,0,0,0,2.777-1.1,5.306,5.306,0,0,0,.845-3.271,4.638,4.638,0,0,0-.9-3.21,3.624,3.624,0,0,0-2.767-.956H994.73Z" transform="translate(-925.154 -603.62)" fill="#0f2771"/>
        <path id="Trazado_224479" data-name="Trazado 224479" d="M1094.24,617.248q0,7.306-2.737,11.231a9.8,9.8,0,0,1-15.678.01q-2.737-3.914-2.737-11.281,0-7.306,2.737-11.2a9.05,9.05,0,0,1,7.889-3.895,8.928,8.928,0,0,1,7.809,3.915Q1094.24,609.942,1094.24,617.248Zm-15.558,0a18.256,18.256,0,0,0,1.268,7.668,4.01,4.01,0,0,0,3.723,2.637q4.951,0,4.951-10.3t-4.911-10.3a4.035,4.035,0,0,0-3.764,2.627A18.247,18.247,0,0,0,1078.682,617.248Z" transform="translate(-989.281 -602.113)" fill="#0f2771"/>
        <path id="Trazado_224480" data-name="Trazado 224480" d="M1185.533,604.083h5.515l-6.924,29.424h-6.963l-6.883-29.424h5.515l3.844,17.973a66.486,66.486,0,0,1,1.027,6.581q.422-3.642,1.067-6.581Z" transform="translate(-1063.628 -603.62)" fill="#0f2771"/>
        <path id="Trazado_224481" data-name="Trazado 224481" d="M1282.957,633.508h-13.263V604.083h13.263v4.73h-7.789v7h7.225v4.75h-7.225v8.151h7.789Z" transform="translate(-1139.678 -603.62)" fill="#0f2771"/>
        <path id="Trazado_224482" data-name="Trazado 224482" d="M1363.081,618.513q0,7.286-2.969,11.14t-8.544,3.854h-7.2V604.083h7.869a9.432,9.432,0,0,1,7.99,3.794Q1363.081,611.671,1363.081,618.513Zm-5.615.161q0-9.861-5.434-9.862h-2.194v19.9h1.771a4.75,4.75,0,0,0,4.427-2.506Q1357.466,623.706,1357.466,618.674Z" transform="translate(-1196.798 -603.62)" fill="#0f2771"/>
      </g>
      <g id="Grupo_212801" data-name="Grupo 212801" transform="translate(374.187 290.187)">
        <g id="Grupo_212799" data-name="Grupo 212799" transform="translate(19.658 3.795)">
          <path id="Trazado_224483" data-name="Trazado 224483" d="M1074.21,853.7a1.338,1.338,0,0,1-1.282-.607l-1.586-2.477a16.3,16.3,0,0,1-4.085-.64l-2.269,1.876a1.335,1.335,0,0,1-1.549.11l-3.594-2.192a1.335,1.335,0,0,1-.61-1.429l.63-2.874a16.292,16.292,0,0,1-2.439-3.34l-2.929-.277a1.339,1.339,0,0,1-1.174-1.017l-.991-4.093a1.337,1.337,0,0,1,.579-1.441l2.477-1.587a16.34,16.34,0,0,1,.64-4.085l-1.876-2.269a1.338,1.338,0,0,1-.111-1.548l2.193-3.6a1.337,1.337,0,0,1,1.428-.61l2.876.63a16.29,16.29,0,0,1,3.339-2.439l.277-2.928a1.339,1.339,0,0,1,1.016-1.174l4.093-.992a1.334,1.334,0,0,1,1.44.575l1.588,2.48a16.3,16.3,0,0,1,4.085.64l2.269-1.876a1.341,1.341,0,0,1,1.547-.113l3.6,2.195a1.339,1.339,0,0,1,.61,1.426l-.63,2.878a16.311,16.311,0,0,1,2.438,3.339l2.929.277a1.338,1.338,0,0,1,1.174,1.016l.991,4.093a1.337,1.337,0,0,1-.579,1.441l-2.477,1.586a16.341,16.341,0,0,1-.64,4.085l1.876,2.269a1.339,1.339,0,0,1,.111,1.548l-2.193,3.6a1.338,1.338,0,0,1-1.426.61l-2.877-.631a16.324,16.324,0,0,1-3.339,2.439l-.277,2.929a1.34,1.34,0,0,1-1.016,1.174l-4.094.991A1.3,1.3,0,0,1,1074.21,853.7Zm-7.408-6.071.55.181a14.223,14.223,0,0,0,4.56.714l.579,0,1.912,2.985,3.039-.736.334-3.53.516-.261a14.226,14.226,0,0,0,3.727-2.721l.406-.413,3.465.759,1.628-2.669-2.261-2.733.181-.55a14.22,14.22,0,0,0,.714-4.559l0-.579,2.985-1.912-.736-3.039-3.529-.334-.261-.516a14.239,14.239,0,0,0-2.721-3.727l-.412-.406.759-3.465-2.669-1.628-2.734,2.261-.55-.181a14.216,14.216,0,0,0-4.559-.714l-.578,0-1.912-2.985-3.039.736-.334,3.529-.516.261a14.227,14.227,0,0,0-3.727,2.721l-.406.413-3.465-.759-1.628,2.669,2.26,2.733-.181.55a14.221,14.221,0,0,0-.714,4.559l0,.579-2.985,1.912.736,3.039,3.529.334.261.517a14.223,14.223,0,0,0,2.722,3.727l.412.406-.759,3.465,2.669,1.628Zm-3.151,2.606,0,0Zm-2.367-1.446v0Zm-.348-.81h0Zm-2.911-24.672v0Zm15,21.978a11.2,11.2,0,1,1,9.921-11.411,1.049,1.049,0,1,1-2.1.053,9.166,9.166,0,0,0-.255-1.924,9.108,9.108,0,1,0-2.468,8.644,1.049,1.049,0,1,1,1.472,1.495,11.193,11.193,0,0,1-5.22,2.9A11.412,11.412,0,0,1,1073.022,845.287Z" transform="translate(-1052.295 -814.668)" fill="#bdd0fb"/>
          <path id="Trazado_224484" data-name="Trazado 224484" d="M1120.319,886.895a4.789,4.789,0,1,1,3.678-6.99h0a4.794,4.794,0,0,1-3.678,6.99Zm-.871-7.431a2.691,2.691,0,1,0,2.693,1.419h0a2.695,2.695,0,0,0-2.693-1.419Z" transform="translate(-1100.24 -862.615)" fill="#bdd0fb"/>
        </g>
        <g id="Grupo_212800" data-name="Grupo 212800" transform="translate(0 0)">
          <path id="Trazado_224485" data-name="Trazado 224485" d="M977.207,817.821a.925.925,0,0,1-.339-.023l-1.961-.507a.926.926,0,0,1-.691-.82l-.1-1.267a8.131,8.131,0,0,1-1.408-1.06l-1.242.252a.921.921,0,0,1-.98-.435l-1.029-1.748a.924.924,0,0,1,.094-1.071l.822-.963a8.114,8.114,0,0,1-.244-1.745l-1.058-.7a.928.928,0,0,1-.384-1l.507-1.96a.94.94,0,0,1,.824-.691l1.263-.1a8.124,8.124,0,0,1,1.06-1.408l-.253-1.242a.929.929,0,0,1,.439-.982l1.744-1.027a.927.927,0,0,1,1.074.1l.961.82a8.112,8.112,0,0,1,1.745-.245l.7-1.057a.927.927,0,0,1,1-.385l1.96.507a.924.924,0,0,1,.691.82l.1,1.267a8.12,8.12,0,0,1,1.407,1.06l1.241-.252a.926.926,0,0,1,.985.441l1.025,1.741a.925.925,0,0,1-.09,1.068l-.825.967a8.1,8.1,0,0,1,.244,1.745l1.057.7a.926.926,0,0,1,.385,1l-.506,1.959a.929.929,0,0,1-.82.691l-1.267.1a8.1,8.1,0,0,1-1.06,1.408l.252,1.242a.924.924,0,0,1-.436.981l-1.746,1.029a.925.925,0,0,1-1.073-.1l-.961-.82a8.157,8.157,0,0,1-1.745.245l-.7,1.057A.923.923,0,0,1,977.207,817.821Zm-.648-1.278,0,0Zm5.737-.811,0,0Zm-.744-.062h0Zm-5.8.213,1.066.276.917-1.385.434.01a6.531,6.531,0,0,0,2.108-.3l.414-.129,1.263,1.077.949-.559-.33-1.627.314-.3a6.562,6.562,0,0,0,1.281-1.7l.2-.384,1.655-.131.276-1.066-1.384-.917.01-.434a6.546,6.546,0,0,0-.3-2.107l-.129-.414,1.077-1.263-.559-.949-1.626.33-.3-.314a6.564,6.564,0,0,0-1.7-1.28l-.384-.2-.131-1.655-1.067-.276-.917,1.384-.434-.01a6.582,6.582,0,0,0-2.107.3l-.414.129-1.262-1.077-.949.559.33,1.627-.314.3a6.563,6.563,0,0,0-1.281,1.7l-.2.384-1.655.131-.276,1.067,1.385.917-.01.434a6.561,6.561,0,0,0,.3,2.107l.129.415-1.077,1.262.559.949,1.626-.33.3.314a6.552,6.552,0,0,0,1.7,1.28l.385.2Zm7.242-.554v0Zm-12.242-3.166h0Zm.063-.75,0,0Zm15.6-2.191a.007.007,0,0,0,0,0Zm-.6-4.291v0Zm-.338-1.439h0Zm-.69-.306,0,.007Zm.531-.465h0ZM973.324,801.7h0Zm7.993-1.124h0Zm-1.959-.506h0Zm-5.04.538,0,0Zm4.613,13.193a5.672,5.672,0,1,1,4.724-7.418.787.787,0,0,1-1.494.494,4.1,4.1,0,1,0-.294,3.25.786.786,0,1,1,1.382.752,5.69,5.69,0,0,1-4.318,2.922Z" transform="translate(-968.655 -798.52)" fill="#bdd0fb"/>
        </g>
      </g>
      <g id="Grupo_212804" data-name="Grupo 212804" transform="translate(596.39 199.986)">
        <g id="Grupo_212802" data-name="Grupo 212802">
          <path id="Trazado_224486" data-name="Trazado 224486" d="M1926.625,455.763l8.9-5.556a2.478,2.478,0,0,1,2.3-.171l9.621,4.179a2.478,2.478,0,0,0,3.393-2.872l-2.535-10.178a2.479,2.479,0,0,1,.548-2.241l6.948-7.858a2.478,2.478,0,0,0-1.683-4.114l-10.464-.734a2.479,2.479,0,0,1-1.961-1.214l-5.327-9.036a2.478,2.478,0,0,0-4.433.33L1928,426.021a2.479,2.479,0,0,1-1.76,1.49L1916,429.785a2.479,2.479,0,0,0-1.056,4.318l8.033,6.744a2.478,2.478,0,0,1,.874,2.135l-1,10.441A2.478,2.478,0,0,0,1926.625,455.763Z" transform="translate(-1914.054 -414.747)" fill="#feca2f"/>
        </g>
        <g id="Grupo_212803" data-name="Grupo 212803" transform="translate(1.367 26.653)">
          <path id="Trazado_224487" data-name="Trazado 224487" d="M2040.949,535.709s-14.59,18.68,2.056,37.678l6.258-.583c-.36.034-1.85-3.363-2-3.659a64.627,64.627,0,0,1-3.861-9.47,43.692,43.692,0,0,1-2.2-12.5,28.577,28.577,0,0,1,.631-6.513,3.266,3.266,0,0,1,1.936-2.664,6.18,6.18,0,0,0,3.174-2.717,4.789,4.789,0,0,0-2.263-6.584c-.392-.187-3.4-.884-3.4-.368,0,1.193.742,2.237,1.227,3.326C2043.417,533.7,2042.62,534.691,2040.949,535.709Z" transform="translate(-2007.966 -528.146)" fill="url(#linear-gradient-11)"/>
          <path id="Trazado_224488" data-name="Trazado 224488" d="M2094.2,933.386s11.821,25.763,18.023,36.435c0,0,1.232,6.715,0,8.826l-1.05.467,4.9-.146s.435-9.032.1-9.536a1.247,1.247,0,0,0-1.02-.471s-2.1-16.643-8.185-20.2l-5.9-20.308Z" transform="translate(-2053.226 -834.369)" fill="url(#linear-gradient-12)"/>
          <path id="Trazado_224489" data-name="Trazado 224489" d="M2157.511,1112.044c-.007.118,3.826.064,5.907.026a1.656,1.656,0,0,0,1.588-1.306l1.573-8.261a1.485,1.485,0,0,0-1.128-1.726l-.877-.2a4.7,4.7,0,0,0-.858,3.334c.394,1.617.745,5.806-.251,6.294a14.535,14.535,0,0,1-3.861.573S2157.576,1110.981,2157.511,1112.044Z" transform="translate(-2101.657 -966.035)" fill="#0f2771"/>
          <path id="Trazado_224490" data-name="Trazado 224490" d="M2045.817,1135.987a.433.433,0,0,0,.218.808c3.484-.035,11.292-.145,11.986-.434.9-.372-.326-3.591-1.613-4.681l-7.1,2.318Z" transform="translate(-2016.047 -989.828)" fill="#0f2771"/>
          <path id="Trazado_224491" data-name="Trazado 224491" d="M2037.151,942.438s7.639,36.954,9.8,44.162l-5.112,3.208s2.562-.436,4.461-.573,3.647-2.318,3.647-2.318l-.613-.977s-1.916-36.753-1.449-40.926Z" transform="translate(-2009.586 -845.064)" fill="url(#linear-gradient-13)"/>
          <path id="Trazado_224492" data-name="Trazado 224492" d="M2010.118,693.05c2.928.812,12.847,3.421,19.04,3.315l-3.8,21.456.3,3.5-12.4-.056s-3.49-8.1-6.243-12.145c-.8-1.167-.2-2.559.247-3.9l-.619-.412a1.686,1.686,0,0,1-.668-1.927l3.019-9.236A.921.921,0,0,1,2010.118,693.05Z" transform="translate(-1985.677 -654.266)" fill="#0f2771"/>
          <path id="Trazado_224493" data-name="Trazado 224493" d="M2030.082,804.014l.244,2.12s-3.5,10.491,1.752,35c0,0,11.381,3.224,20.735-4.491,0,0-2.639-23.128-3.359-24.205-3.59-5.366-5.981-6.532-5.981-6.532l-.108-2.316S2033.36,805.394,2030.082,804.014Z" transform="translate(-2003.49 -738.847)" fill="#0f2771"/>
          <path id="Trazado_224494" data-name="Trazado 224494" d="M2053.656,674.659c-.043-.057,2.588-7.945,2.588-7.945l3.769.342,1.473,8.948S2055.579,677.2,2053.656,674.659Z" transform="translate(-2022.212 -634.145)" fill="url(#linear-gradient-14)"/>
          <path id="Trazado_224495" data-name="Trazado 224495" d="M2055.341,612.539c-.251.156-8.055,3.381-6.378,11.483a1.521,1.521,0,0,0,.865,1.084,13.216,13.216,0,0,0,6.559,1.086c4.088-.416,6.767-7.549,6.653-9.625S2057.832,610.988,2055.341,612.539Z" transform="translate(-2018.441 -592.409)" fill="url(#linear-gradient-15)"/>
          <path id="Trazado_224496" data-name="Trazado 224496" d="M2061.584,599.779c-.205.027-4.51,1.526-2.375,4.645s2.935,4.955,1.926,6.325c-.92,1.248-2.958.537-2.78,3.133a1.456,1.456,0,0,1-.621,1.316c-1.92,1.3-6.6,5.3-1.963,11.006a1.453,1.453,0,0,1,.164,1.626c-1.359,2.438-4.215,9.581,6.123,13.543,10.215,3.915,13.9-2.762,14.934-5.431a1.425,1.425,0,0,1,1.409-.9c1.122.053,2.713-.134,2.64-1.634a3.748,3.748,0,0,0-1.285-2.382,1.423,1.423,0,0,1,.274-2.241,2.789,2.789,0,0,0,1.377-1.731c.619-2.294-.617-9.153-7.191-10.316a1.552,1.552,0,0,1-1.2-1.162c0-.008,0-.016,0-.025a1.422,1.422,0,0,1,.528-1.4,3.69,3.69,0,0,0,1.3-4.807,5.387,5.387,0,0,0-4.212-3.186,1.432,1.432,0,0,1-1.174-1.712C2069.92,602.253,2069.514,598.739,2061.584,599.779Z" transform="translate(-2022.309 -582.799)" fill="#0f2771"/>
          <path id="Trazado_224497" data-name="Trazado 224497" d="M1928.475,540.22s-1.053,19.223,16.448,29.046l-4.213,9.61s-15.845-9.584-15.259-35.724a3.038,3.038,0,0,0-.744-2.047l-3.367-3.907a6.045,6.045,0,0,1-1.286-5.414l.443-1.772a.919.919,0,0,1,1.353-.572l.352.2a6.183,6.183,0,0,1,2.539,2.822l1.691,2.668c.618,1.381.762,1.96,2.269,1.83l2.8.031Z" transform="translate(-1919.872 -529.041)" fill="url(#linear-gradient-16)"/>
        </g>
      </g>
    </g>
  </g>
</svg>
