<svg xmlns="http://www.w3.org/2000/svg" width="136" height="136" viewBox="0 0 136 136">
  <g id="Grupo_215637" data-name="Grupo 215637" transform="translate(-416 -4019)">
    <circle id="Elipse_16393" data-name="Elipse 16393" cx="68" cy="68" r="68" transform="translate(416 4019)" fill="#feca2e"/>
    <g id="Grupo_211498" data-name="Grupo 211498" transform="translate(-470.499 3429.317)">
      <path id="Trazado_224133" data-name="Trazado 224133" d="M908.5,634.867a11.935,11.935,0,0,0,.7-3.01,23.875,23.875,0,0,1,46.618,1.151,23.218,23.218,0,0,1-5.231,19.931c-.159.191-.318.381-.473.574-.017.021-.013.059-.042.209a25.545,25.545,0,0,1,6.787,2.091c-1.79-9.873.87-18.133,8.687-24.379a22.65,22.65,0,0,1,18.408-4.686,23.827,23.827,0,0,1,19.475,28.919,23.426,23.426,0,0,1-4.57,9.474,23.822,23.822,0,0,1-8.209,6.606,23.517,23.517,0,0,1-10.244,2.427,23.913,23.913,0,0,1-10.436-2.291,23.919,23.919,0,0,1-4.084,19.806,22.7,22.7,0,0,1-11.647,8.443,23.834,23.834,0,0,1-26.811-8.516,24.174,24.174,0,0,1,1.656-30.4,24.853,24.853,0,0,1-6.071-1.716,23.611,23.611,0,0,1-14.167-18.028c-.076-.4.025-.869-.346-1.189Zm59,30.831-.025-.027c.406.676.61,1.46,1.353,1.938a20.19,20.19,0,0,0,15.325,2.984,20.674,20.674,0,1,0-23.233-12.723,1.874,1.874,0,0,0,.58.819A24.717,24.717,0,0,1,967.5,665.7Zm-20.83,32.384a20.7,20.7,0,1,0-20.64-20.839A20.8,20.8,0,0,0,946.674,698.082Zm-14.3-81.193a20.68,20.68,0,0,0-2.218,41.238c.857.113,1.84.439,2.631-.121a24.2,24.2,0,0,1,12.27-4.43,1.305,1.305,0,0,0,.812-.378c5.927-5.316,8.209-11.948,6.787-19.724A20.609,20.609,0,0,0,932.375,616.889Z" transform="translate(0)" fill="#0f2771"/>
      <path id="Trazado_224134" data-name="Trazado 224134" d="M1007.4,679.729c-.019-1.49-.1-2.981-.043-4.468a4.654,4.654,0,0,1,4.549-4.527c1.081-.042,2.165-.007,3.354-.007,0-1.026-.008-1.978,0-2.93,0-.332-.208-.49-.419-.675a7.987,7.987,0,0,1-2.771-6.362c.016-1.77-.076-3.539.106-5.311a8.079,8.079,0,0,1,6.656-6.935,7.84,7.84,0,0,1,8.685,5.306,21.167,21.167,0,0,1,.166,9.414,6.157,6.157,0,0,1-2.164,3.615,1.828,1.828,0,0,0-.692,1.688c.047.68.01,1.366.01,2.18.951,0,1.87,0,2.788,0a4.774,4.774,0,0,1,5.142,5.1c.008.84.01,1.679,0,2.519-.02,1.357-.574,1.915-1.94,1.917q-7,.012-13.994,0c-2.332,0-4.666-.052-7,.026a6.315,6.315,0,0,1-2.466-.58Zm7.85-22.731c.068,1.669-.08,3.215.117,4.762a4.663,4.663,0,0,0,3.451,3.961,4.576,4.576,0,0,0,4.8-1.48c1.379-1.5,1.223-3.371,1.209-5.2,0-.394-.337-.382-.607-.431q-2.061-.375-4.123-.748C1018.523,657.578,1016.942,657.3,1015.251,657Zm14.319,20.045c.082-2.9-.156-3.145-2.923-3.145h-.838q-6.658,0-13.317,0c-1.413,0-1.971.559-1.974,1.968a2.454,2.454,0,0,0,.086,1.175Zm-4.9-21.59a4.631,4.631,0,0,0-3.905-3.776,4.4,4.4,0,0,0-4.615,2.226Zm-3.066,15.235V668.97a14.2,14.2,0,0,1-3.157.019,6.876,6.876,0,0,0,.117,1.7Z" transform="translate(-39.896 -14.031)" fill="#0f2771"/>
      <path id="Trazado_224135" data-name="Trazado 224135" d="M959.129,715.039c0-.392-.021-.643,0-.889a3.94,3.94,0,0,0-1.257-3.612,6.919,6.919,0,0,1-1.923-5.1c-.011-.555,0-1.11,0-1.682-.327-.084-.592-.151-.855-.22-2.147-.562-2.474-1.017-2.3-3.2a9.569,9.569,0,0,1,10.016-9.155,9.286,9.286,0,0,1,8.837,7.883,22.833,22.833,0,0,1-.207,8.882,6.709,6.709,0,0,1-2.116,3.333,1.6,1.6,0,0,0-.643,1.43c.052.737.013,1.48.013,2.318,1.026,0,1.98-.008,2.933,0a4.779,4.779,0,0,1,5.03,5.036c.009.933.024,1.867-.006,2.8a1.566,1.566,0,0,1-1.695,1.693q-11.055.02-22.11,0a1.413,1.413,0,0,1-1.576-1.279,14.739,14.739,0,0,1,.086-4.642,4.644,4.644,0,0,1,4.445-3.592C956.88,715.005,957.963,715.039,959.129,715.039Zm9.569-12.75a10.1,10.1,0,0,1-4.154-.973.522.522,0,0,0-.663.131,9.916,9.916,0,0,1-4.719,2.3,11.513,11.513,0,0,0,.1,2.531,4.748,4.748,0,0,0,9.165.738C968.9,705.5,968.613,703.941,968.7,702.289Zm-14.289,19.05h19.013c.209-2.707-.171-3.128-2.777-3.128H957.33C954.552,718.21,954.295,718.479,954.409,721.339Zm9.478-26.749a6.231,6.231,0,0,0-7.863,5.821C959.571,701.637,963.345,698.863,963.887,694.59Zm-1.51,18.711v1.658h3.061V713.31A13.574,13.574,0,0,1,962.376,713.3Zm4.565-16.949-.77,2.206a4.313,4.313,0,0,0,2.274.432A5.82,5.82,0,0,0,966.941,696.352Z" transform="translate(-17.207 -31.28)" fill="#0f2771"/>
      <path id="Trazado_224136" data-name="Trazado 224136" d="M935.145,648.294c0-1.053-.013-1.92.006-2.787a.937.937,0,0,0-.388-.785,8.015,8.015,0,0,1-2.788-6.163,47.2,47.2,0,0,1,.126-5.866,9.477,9.477,0,0,1,7.959-8.205,9.665,9.665,0,0,1,9.95,5.064,11.125,11.125,0,0,1,1.084,4.669c.039,1.428-.28,1.874-1.628,2.328-.493.166-1,.286-1.506.429-.046.9-.053,1.771-.141,2.632a7.27,7.27,0,0,1-2.4,4.8,1.87,1.87,0,0,0-.7,1.684c.049.677.011,1.36.011,2.162.951,0,1.84-.007,2.73,0,3.283.029,5.183,1.939,5.2,5.223,0,.746,0,1.492,0,2.238-.01,1.564-.551,2.093-2.152,2.1-1.15,0-2.3,0-3.451,0h-17.53c-1.831,0-2.314-.483-2.314-2.314,0-.9-.019-1.8.025-2.7a4.625,4.625,0,0,1,4.369-4.492C932.742,648.235,933.89,648.294,935.145,648.294Zm.033-12.791a20.056,20.056,0,0,0,.111,4.2,4.781,4.781,0,0,0,7.243,2.968c2.042-1.4,2.336-3.428,2.13-5.7a9.849,9.849,0,0,1-4.7-2.312.551.551,0,0,0-.677-.109A9.852,9.852,0,0,1,935.178,635.5Zm14.262,19.1c.013-.295.029-.509.031-.724.017-2.033-.383-2.43-2.447-2.431h-7.742c-2.363,0-4.726-.01-7.089.006-1.027.007-1.648.46-1.749,1.309a16.011,16.011,0,0,0-.014,1.84Zm-1.6-20.941c-.041-4.042-4.287-7.054-7.836-5.8A6.281,6.281,0,0,0,947.844,633.665Zm-6.365,12.813a9.638,9.638,0,0,1-3.121.052,4.283,4.283,0,0,0,.1,1.673h3A5.177,5.177,0,0,0,941.479,646.477Zm-3.789-14.72-.8-2.209a6.008,6.008,0,0,0-1.473,2.725A5.356,5.356,0,0,0,937.69,631.757Z" transform="translate(-7.551 -4.31)" fill="#0f2771"/>
    </g>
  </g>
</svg>
