<svg xmlns="http://www.w3.org/2000/svg" width="820" height="513" viewBox="0 0 820 513">
  <g id="Grupo_213680" data-name="Grupo 213680" transform="translate(-264.779 -3227.5)">
    <path id="Trazado_224967" data-name="Trazado 224967" d="M1854-8380.359l60.394-96.728,105.076-36.58,107.04,43.209,53.765,100.165-23.144,111.2-88.069,69.235-114.651-3.421-84.208-76.108Z" transform="translate(-1339.721 11837.667)" fill="#dee4f0" stroke="#4dd0e1" stroke-width="5"/>
    <rect id="Rectángulo_303216" data-name="Rectángulo 303216" width="228" height="70" rx="10" transform="translate(572.779 3227.5)" fill="#bddcf6"/>
    <rect id="Rectángulo_303217" data-name="Rectángulo 303217" width="221" height="69" rx="10" transform="translate(820.779 3316.5)" fill="#bddcf6"/>
    <rect id="Rectángulo_303221" data-name="Rectángulo 303221" width="221" height="69" rx="10" transform="translate(316.779 3300.5)" fill="#bddcf6"/>
    <rect id="Rectángulo_303222" data-name="Rectángulo 303222" width="221" height="68" rx="10" transform="translate(264.779 3426.5)" fill="#bddcf6"/>
    <rect id="Rectángulo_303223" data-name="Rectángulo 303223" width="220" height="70" rx="10" transform="translate(279.779 3542.5)" fill="#bddcf6"/>
    <rect id="Rectángulo_303218" data-name="Rectángulo 303218" width="221" height="70" rx="10" transform="translate(863.779 3430)" fill="#bddcf6"/>
    <rect id="Rectángulo_303219" data-name="Rectángulo 303219" width="221" height="69" rx="10" transform="translate(838.779 3549)" fill="#bddcf6"/>
    <rect id="Rectángulo_303220" data-name="Rectángulo 303220" width="148" height="69" rx="10" transform="translate(703.779 3669.5)" fill="#bddcf6"/>
    <rect id="Rectángulo_303224" data-name="Rectángulo 303224" width="214" height="70" rx="10" transform="translate(466.779 3670.5)" fill="#bddcf6"/>
    <text id="Performance_process_and_service-level_challenges" data-name="Performance, process, and
service-level challenges" transform="translate(686.779 3258.5)" fill="#12263f" font-size="15" font-family="Roboto-Italic, Roboto" font-style="italic"><tspan x="-87.334" y="0">Performance, process, and</tspan><tspan x="-77.333" y="18">service-level challenges</tspan></text>
    <text id="Configuration_management_challenges" data-name="Configuration management
challenges" transform="translate(931.779 3346.5)" fill="#12263f" font-size="15" font-family="Roboto-Italic, Roboto" font-style="italic"><tspan x="-89.103" y="0">Configuration management</tspan><tspan x="-35.222" y="18">challenges</tspan></text>
    <text id="Monitoring_availability_and_health_challenges" data-name="Monitoring availability
and health challenges" transform="translate(427.779 3331.5)" fill="#12263f" font-size="15" font-family="Roboto-Italic, Roboto" font-style="italic"><tspan x="-71.715" y="0">Monitoring availability</tspan><tspan x="-71.268" y="18">and health challenges</tspan></text>
    <text id="Compliance_implementation_challeges" data-name="Compliance implementation
challeges" transform="translate(375.779 3456.5)" fill="#12263f" font-size="15" font-family="Roboto-Italic, Roboto" font-style="italic"><tspan x="-91.948" y="0">Compliance implementation</tspan><tspan x="-31.172" y="18">challeges</tspan></text>
    <text id="Infrastructure_security_challeges" data-name="Infrastructure security 
challeges" transform="translate(389.779 3573.5)" fill="#12263f" font-size="15" font-family="Roboto-Italic, Roboto" font-style="italic"><tspan x="-73.846" y="0">Infrastructure security </tspan><tspan x="-31.172" y="18">challeges</tspan></text>
    <text id="Organizing_bandwith_challenges" data-name="Organizing bandwith
challenges" transform="translate(976.779 3458)" fill="#12263f" font-size="15" font-family="Roboto-Regular, Roboto"><tspan x="-68.372" y="0">Organizing bandwith</tspan><tspan x="-35.936" y="18">challenges</tspan></text>
    <text id="Storage_managemente_challenges" data-name="Storage managemente
challenges" transform="translate(958.779 3577)" fill="#12263f" font-size="15" font-family="Roboto-Regular, Roboto"><tspan x="-75.773" y="0">Storage managemente</tspan><tspan x="-35.936" y="18">challenges</tspan></text>
    <text id="Integration_challenges" data-name="Integration
challenges" transform="translate(777.779 3699.5)" fill="#12263f" font-size="15" font-family="Roboto-Italic, Roboto" font-style="italic"><tspan x="-35.284" y="0">Integration</tspan><tspan x="-35.222" y="18">challenges</tspan></text>
    <text id="IP_address_management_challenges" data-name="IP address management
challenges" transform="translate(573.779 3701.5)" fill="#12263f" font-size="15" font-family="Roboto-Italic, Roboto" font-style="italic"><tspan x="-79.775" y="0">IP address management</tspan><tspan x="-35.222" y="18">challenges</tspan></text>
    <text id="ITIM_Implementation" data-name="ITIM Implementation" transform="translate(574.779 3493.5)" fill="#12263f" font-size="22" font-family="Roboto-Black, Roboto" font-weight="800"><tspan x="0" y="0">ITIM </tspan><tspan y="0" font-family="Roboto-BlackItalic, Roboto" font-style="italic">Implementation</tspan></text>
    <line id="Línea_505" data-name="Línea 505" y2="27.251" transform="translate(680.064 3296.969)" fill="none" stroke="#4dd0e1" stroke-width="5"/>
    <line id="Línea_506" data-name="Línea 506" x1="35.353" y2="15.099" transform="translate(786.122 3354.049)" fill="none" stroke="#4dd0e1" stroke-width="5"/>
    <line id="Línea_509" data-name="Línea 509" x2="35.353" y2="15.099" transform="translate(538.285 3346.684)" fill="none" stroke="#4dd0e1" stroke-width="5"/>
    <line id="Línea_507" data-name="Línea 507" x1="25.778" transform="translate(838.415 3467.84)" fill="none" stroke="#4dd0e1" stroke-width="5"/>
    <line id="Línea_510" data-name="Línea 510" x2="27" transform="translate(487.779 3459)" fill="none" stroke="#4dd0e1" stroke-width="5"/>
    <line id="Línea_508" data-name="Línea 508" x1="22.095" y1="8.47" transform="translate(815.583 3576.844)" fill="none" stroke="#4dd0e1" stroke-width="5"/>
    <line id="Línea_511" data-name="Línea 511" y1="11" x2="32" transform="translate(499.779 3569)" fill="none" stroke="#4dd0e1" stroke-width="5"/>
    <line id="Línea_512" data-name="Línea 512" y1="26" x2="7" transform="translate(606.779 3644)" fill="none" stroke="#4dd0e1" stroke-width="5"/>
    <line id="Línea_513" data-name="Línea 513" x1="7.365" y1="25.778" transform="translate(732.357 3644.604)" fill="none" stroke="#4dd0e1" stroke-width="5"/>
    <circle id="Elipse_16413" data-name="Elipse 16413" cx="11.5" cy="11.5" r="11.5" transform="translate(668.779 3315)" fill="#feca2e"/>
    <circle id="Elipse_16414" data-name="Elipse 16414" cx="11.5" cy="11.5" r="11.5" transform="translate(774.779 3357)" fill="#feca2e"/>
    <circle id="Elipse_16417" data-name="Elipse 16417" cx="11.048" cy="11.048" r="11.048" transform="translate(562.222 3350.735)" fill="#feca2e"/>
    <circle id="Elipse_16415" data-name="Elipse 16415" cx="11" cy="11" r="11" transform="translate(827.779 3457)" fill="#feca2e"/>
    <circle id="Elipse_16418" data-name="Elipse 16418" cx="11.048" cy="11.048" r="11.048" transform="translate(502.564 3447.954)" fill="#feca2e"/>
    <circle id="Elipse_16416" data-name="Elipse 16416" cx="11" cy="11" r="11" transform="translate(804.779 3565)" fill="#feca2e"/>
    <circle id="Elipse_16419" data-name="Elipse 16419" cx="11.048" cy="11.048" r="11.048" transform="translate(520.24 3558.432)" fill="#feca2e"/>
    <circle id="Elipse_16420" data-name="Elipse 16420" cx="11.048" cy="11.048" r="11.048" transform="translate(602.73 3633.556)" fill="#feca2e"/>
    <circle id="Elipse_16421" data-name="Elipse 16421" cx="11" cy="11" r="11" transform="translate(721.779 3633)" fill="#feca2e"/>
  </g>
</svg>
