<svg xmlns="http://www.w3.org/2000/svg" width="200" height="200" viewBox="0 0 200 200">
  <g id="Grupo_215607" data-name="Grupo 215607" transform="translate(-1173 -883)">
    <circle id="Elipse_16412" data-name="Elipse 16412" cx="100" cy="100" r="100" transform="translate(1173 883)" fill="#0f2771"/>
    <g id="Grupo_213655" data-name="Grupo 213655" transform="translate(3757.426 1784.866)">
      <g id="Grupo_213654" data-name="Grupo 213654" transform="translate(-2543.426 -860.866)">
        <g id="Grupo_213653" data-name="Grupo 213653" transform="translate(0)">
          <g id="Grupo_213652" data-name="Grupo 213652">
            <path id="Trazado_224957" data-name="Trazado 224957" d="M-2215.76-759.7l.576-.576v9.019a1.966,1.966,0,0,0,1.967,1.967,1.966,1.966,0,0,0,1.967-1.967v-9.019l.576.576a1.967,1.967,0,0,0,1.9.519,1.967,1.967,0,0,0,1.4-1.4,1.967,1.967,0,0,0-.519-1.9l-3.933-3.933a1.973,1.973,0,0,0-2.782,0l-3.932,3.933a1.966,1.966,0,0,0,.012,2.768A1.967,1.967,0,0,0-2215.76-759.7Z" transform="translate(2293.852 788.622)" fill="#fff"/>
            <path id="Trazado_224958" data-name="Trazado 224958" d="M-2309.626-836.5l.576-.576v9.019a1.967,1.967,0,0,0,1.967,1.967,1.967,1.967,0,0,0,1.967-1.967v-9.019l.576.576a1.967,1.967,0,0,0,2.772-.009,1.966,1.966,0,0,0,.009-2.772l-3.933-3.933a1.973,1.973,0,0,0-2.782,0l-3.933,3.933a1.967,1.967,0,0,0,.012,2.768A1.967,1.967,0,0,0-2309.626-836.5Z" transform="translate(2366.084 847.723)" fill="#fff"/>
            <path id="Trazado_224959" data-name="Trazado 224959" d="M-2403.492-759.7l.576-.576v9.019a1.966,1.966,0,0,0,1.967,1.967,1.967,1.967,0,0,0,1.967-1.967v-9.019l.576.576a1.967,1.967,0,0,0,2.772-.009,1.967,1.967,0,0,0,.009-2.772l-3.933-3.933a1.973,1.973,0,0,0-2.782,0l-3.932,3.933a1.967,1.967,0,0,0,.012,2.768A1.966,1.966,0,0,0-2403.492-759.7Z" transform="translate(2438.317 788.622)" fill="#fff"/>
            <path id="Trazado_224960" data-name="Trazado 224960" d="M-2249.156-860.67a1.969,1.969,0,0,0-2.627.914l-25.7,53.12a1.966,1.966,0,0,0,.7,2.508,23.512,23.512,0,0,0-10.616-3.538c0-.035.02-.064.02-.1v-5.9a1.967,1.967,0,0,0-1.967-1.967,1.966,1.966,0,0,0-1.967,1.967v5.9c0,.035.018.064.02.1a23.394,23.394,0,0,0-7.936,2.1,1.912,1.912,0,0,0-.158-1.109l-1.967-3.933a1.967,1.967,0,0,0-2.639-.88,1.967,1.967,0,0,0-.987,1.137,1.969,1.969,0,0,0,.107,1.5l1.967,3.933a1.937,1.937,0,0,0,.895.869,23.587,23.587,0,0,0-9,29.186,23.587,23.587,0,0,0,27.347,13.6,23.587,23.587,0,0,0,17.843-24.788,23.577,23.577,0,0,0-10.888-18.033c.045.026.089.052.137.075a1.967,1.967,0,0,0,2.627-.914l25.7-53.12A1.968,1.968,0,0,0-2249.156-860.67Zm-20.524,76.505a19.667,19.667,0,0,1-19.667,19.667,19.667,19.667,0,0,1-19.667-19.667,19.667,19.667,0,0,1,19.667-19.667A19.7,19.7,0,0,1-2269.68-784.165Z" transform="translate(2366.048 860.866)" fill="#fff"/>
            <path id="Trazado_224961" data-name="Trazado 224961" d="M-2443.125-746.784h-7.867v-1.967a1.967,1.967,0,0,0-1.967-1.967,1.966,1.966,0,0,0-1.966,1.967v1.967h-3.934v-1.967a1.966,1.966,0,0,0-1.967-1.967,1.966,1.966,0,0,0-1.967,1.967v1.967h-3.934v-1.967a1.966,1.966,0,0,0-1.967-1.967,1.966,1.966,0,0,0-1.967,1.967v1.967h-3.934v-1.967a1.966,1.966,0,0,0-1.966-1.967,1.966,1.966,0,0,0-1.967,1.967v1.967h-3.934v-1.967a1.966,1.966,0,0,0-1.967-1.967,1.966,1.966,0,0,0-1.967,1.967v1.967h-3.934v-1.967a1.967,1.967,0,0,0-1.967-1.967,1.966,1.966,0,0,0-1.967,1.967v1.967h-3.933v-1.967a1.967,1.967,0,0,0-1.967-1.967,1.966,1.966,0,0,0-1.967,1.967v1.967h-3.933v-1.967a1.967,1.967,0,0,0-1.967-1.967,1.966,1.966,0,0,0-1.967,1.967v1.967h-3.934v-1.967a1.966,1.966,0,0,0-1.967-1.967,1.966,1.966,0,0,0-1.967,1.967v1.967h-3.934v-1.967a1.966,1.966,0,0,0-1.967-1.967,1.967,1.967,0,0,0-1.967,1.967v1.967h-3.934v-1.967a1.967,1.967,0,0,0-1.967-1.967,1.966,1.966,0,0,0-1.967,1.967v1.967h-4.348l25.65-41.683a7.75,7.75,0,0,0,2.3.382,7.857,7.857,0,0,0,6.461-3.4l11.049,4.084a1.967,1.967,0,0,0,1.939-.332,1.967,1.967,0,0,0,.682-1.845,1.967,1.967,0,0,0-1.257-1.513l-11.084-4.1a7.682,7.682,0,0,0,.077-.765,7.867,7.867,0,0,0-5.771-7.607,7.867,7.867,0,0,0-8.858,3.564,7.866,7.866,0,0,0,1.1,9.484l-23.842,38.745v-24.519h3.934a1.966,1.966,0,0,0,1.967-1.967,1.966,1.966,0,0,0-1.967-1.967h-3.934v-3.933h3.934a1.967,1.967,0,0,0,1.967-1.967,1.966,1.966,0,0,0-1.967-1.967h-3.934v-3.933h3.934a1.967,1.967,0,0,0,1.967-1.967,1.966,1.966,0,0,0-1.967-1.967h-3.934v-3.933h3.934a1.966,1.966,0,0,0,1.967-1.967,1.966,1.966,0,0,0-1.967-1.967h-3.934v-3.933h3.934a1.966,1.966,0,0,0,1.967-1.967,1.966,1.966,0,0,0-1.967-1.967h-3.934v-3.933h3.934a1.966,1.966,0,0,0,1.967-1.967,1.966,1.966,0,0,0-1.967-1.967h-3.934v-3.933h3.934a1.967,1.967,0,0,0,1.967-1.967,1.966,1.966,0,0,0-1.967-1.967h-3.934v-3.933h3.934a1.966,1.966,0,0,0,1.967-1.967,1.966,1.966,0,0,0-1.967-1.967h-3.934v-3.934h3.934a1.967,1.967,0,0,0,1.967-1.967,1.967,1.967,0,0,0-1.967-1.967h-3.934v-10.986l4.51,4.509a1.967,1.967,0,0,0,2.769-.012,1.966,1.966,0,0,0,.012-2.768l-7.866-7.866a1.969,1.969,0,0,0-2.142-.423,1.97,1.97,0,0,0-1.216,1.813v114.068a1.843,1.843,0,0,0,.043.215,1.913,1.913,0,0,0,.08.393,1.845,1.845,0,0,0,.654.918,1.764,1.764,0,0,0,.16.149c.057.028.115.054.175.077a1.863,1.863,0,0,0,.18.079,1.954,1.954,0,0,0,.673.136h98.337a1.967,1.967,0,0,0,1.967-1.967A1.967,1.967,0,0,0-2443.125-746.784Z" transform="translate(2543.426 860.852)" fill="#fff"/>
            <path id="Trazado_224962" data-name="Trazado 224962" d="M-2278.893-580.6a15.733,15.733,0,0,0,15.734,15.734,15.734,15.734,0,0,0,15.734-15.734,15.734,15.734,0,0,0-15.734-15.734A15.755,15.755,0,0,0-2278.893-580.6Zm17.7-9.833v9.027l5.33,5.31a1.982,1.982,0,0,1,0,2.793,1.994,1.994,0,0,1-2.792,0l-5.9-5.9a2.031,2.031,0,0,1-.57-1.4v-9.834a1.967,1.967,0,0,1,1.967-1.967A1.967,1.967,0,0,1-2261.193-590.433Z" transform="translate(2339.86 657.3)" fill="#fff"/>
          </g>
        </g>
      </g>
    </g>
  </g>
</svg>
