<svg xmlns="http://www.w3.org/2000/svg" width="819.084" height="327.245" viewBox="0 0 819.084 327.245">
  <g id="Grupo_215601" data-name="Grupo 215601" transform="translate(-387.916 -1362.372)">
    <path id="Trazado_228021" data-name="Trazado 228021" d="M20.148,0H330.212A20.148,20.148,0,0,1,350.36,20.148V72.424a20.148,20.148,0,0,1-20.148,20.148H20.148A20.148,20.148,0,0,1,0,72.424V20.148A20.148,20.148,0,0,1,20.148,0Z" transform="translate(611 1362.372)" fill="#0c1f5a"/>
    <path id="Trazado_227976" data-name="Trazado 227976" d="M5.919,0H1.964V-19.2H5.919Zm6.921-14.265.119,1.648a4.98,4.98,0,0,1,4.1-1.912A4.139,4.139,0,0,1,20.435-13.2a6.213,6.213,0,0,1,1.134,3.981V0h-3.81V-9.123a2.472,2.472,0,0,0-.527-1.76,2.361,2.361,0,0,0-1.753-.547,2.621,2.621,0,0,0-2.413,1.371V0H9.255V-14.265ZM25.5,0V-11.47H23.375v-2.795H25.5v-1.213A4.925,4.925,0,0,1,26.875-19.2a5.335,5.335,0,0,1,3.856-1.325,8.907,8.907,0,0,1,1.938.264l-.04,2.953a4.857,4.857,0,0,0-1.16-.119q-2.149,0-2.149,2.017v1.147h2.834v2.795H29.32V0ZM42.148-10.692a10.351,10.351,0,0,0-1.371-.105,2.791,2.791,0,0,0-2.834,1.463V0h-3.81V-14.265h3.6l.105,1.7a3.53,3.53,0,0,1,3.177-1.964,3.992,3.992,0,0,1,1.187.171ZM51.851,0a4.231,4.231,0,0,1-.382-1.279A4.61,4.61,0,0,1,47.87.264,5.065,5.065,0,0,1,44.4-.949a3.9,3.9,0,0,1-1.378-3.059A4.031,4.031,0,0,1,44.7-7.488a8.294,8.294,0,0,1,4.858-1.226h1.753v-.817a2.351,2.351,0,0,0-.508-1.582,2,2,0,0,0-1.6-.593,2.27,2.27,0,0,0-1.51.461,1.568,1.568,0,0,0-.547,1.266h-3.81a3.827,3.827,0,0,1,.765-2.294,5.054,5.054,0,0,1,2.162-1.655,7.88,7.88,0,0,1,3.138-.6A6.225,6.225,0,0,1,53.585-13.2a4.635,4.635,0,0,1,1.549,3.724V-3.3A6.82,6.82,0,0,0,55.7-.224V0ZM48.7-2.65a3.281,3.281,0,0,0,1.556-.376,2.468,2.468,0,0,0,1.055-1.009V-6.486H49.887q-2.861,0-3.045,1.978l-.013.224a1.525,1.525,0,0,0,.5,1.173A1.946,1.946,0,0,0,48.7-2.65ZM64.626.264a7,7,0,0,1-5.109-1.925A6.842,6.842,0,0,1,57.546-6.79v-.369A8.617,8.617,0,0,1,58.377-11a6.1,6.1,0,0,1,2.353-2.61,6.605,6.605,0,0,1,3.474-.916,5.92,5.92,0,0,1,4.608,1.846,7.5,7.5,0,0,1,1.681,5.234v1.556H61.409a3.539,3.539,0,0,0,1.114,2.241,3.368,3.368,0,0,0,2.353.844,4.113,4.113,0,0,0,3.441-1.6l1.872,2.1a5.72,5.72,0,0,1-2.32,1.892A7.613,7.613,0,0,1,64.626.264Zm-.435-11.72a2.381,2.381,0,0,0-1.839.768,3.977,3.977,0,0,0-.9,2.2h5.3v-.3a2.837,2.837,0,0,0-.686-1.966A2.456,2.456,0,0,0,64.191-11.457ZM80.38-3.942a1.228,1.228,0,0,0-.692-1.1,7.862,7.862,0,0,0-2.221-.719q-5.089-1.068-5.089-4.324a3.92,3.92,0,0,1,1.575-3.171,6.355,6.355,0,0,1,4.12-1.272,6.84,6.84,0,0,1,4.344,1.279,4.03,4.03,0,0,1,1.628,3.322h-3.81a1.844,1.844,0,0,0-.527-1.351,2.232,2.232,0,0,0-1.648-.534,2.28,2.28,0,0,0-1.49.435,1.373,1.373,0,0,0-.527,1.107,1.174,1.174,0,0,0,.6,1.022,6.171,6.171,0,0,0,2.024.672,16.529,16.529,0,0,1,2.4.639Q84.085-6.829,84.085-4.1A3.721,3.721,0,0,1,82.411-.943,7.223,7.223,0,0,1,78.086.264,7.544,7.544,0,0,1,74.9-.376a5.342,5.342,0,0,1-2.182-1.753,4.074,4.074,0,0,1-.791-2.406h3.612a1.989,1.989,0,0,0,.751,1.556,2.981,2.981,0,0,0,1.872.541,2.759,2.759,0,0,0,1.655-.415A1.292,1.292,0,0,0,80.38-3.942ZM91.1-17.771v3.507h2.439v2.795H91.1v7.119a1.7,1.7,0,0,0,.3,1.134,1.523,1.523,0,0,0,1.16.343,6.076,6.076,0,0,0,1.121-.092V-.079a7.844,7.844,0,0,1-2.307.343q-4.008,0-4.087-4.047V-11.47H85.206v-2.795h2.083v-3.507Zm12.577,7.08A10.351,10.351,0,0,0,102.3-10.8,2.791,2.791,0,0,0,99.47-9.334V0H95.66V-14.265h3.6l.105,1.7a3.53,3.53,0,0,1,3.177-1.964,3.992,3.992,0,0,1,1.187.171ZM114.051-1.45a4.778,4.778,0,0,1-3.9,1.714,4.506,4.506,0,0,1-3.5-1.318,5.628,5.628,0,0,1-1.233-3.863v-9.347h3.81v9.226q0,2.23,2.03,2.23a2.751,2.751,0,0,0,2.663-1.346v-10.11h3.823V0h-3.586Zm12.5-1.358a2.5,2.5,0,0,0,1.714-.58,2.032,2.032,0,0,0,.686-1.542h3.573a4.887,4.887,0,0,1-.791,2.656A5.219,5.219,0,0,1,129.6-.4a6.664,6.664,0,0,1-2.986.666,6.193,6.193,0,0,1-4.825-1.945,7.7,7.7,0,0,1-1.767-5.372V-7.3a7.607,7.607,0,0,1,1.753-5.26,6.121,6.121,0,0,1,4.812-1.964,6,6,0,0,1,4.291,1.523,5.391,5.391,0,0,1,1.641,4.054h-3.573a2.618,2.618,0,0,0-.686-1.809,2.286,2.286,0,0,0-1.74-.7,2.3,2.3,0,0,0-2.01.97,5.624,5.624,0,0,0-.679,3.149v.4a5.7,5.7,0,0,0,.672,3.169A2.324,2.324,0,0,0,126.549-2.808Zm12.709-14.963v3.507H141.7v2.795h-2.439v7.119a1.7,1.7,0,0,0,.3,1.134,1.523,1.523,0,0,0,1.16.343,6.076,6.076,0,0,0,1.121-.092V-.079a7.844,7.844,0,0,1-2.307.343q-4.008,0-4.087-4.047V-11.47h-2.083v-2.795h2.083v-3.507Zm13.1,16.321a4.778,4.778,0,0,1-3.9,1.714,4.506,4.506,0,0,1-3.5-1.318,5.628,5.628,0,0,1-1.233-3.863v-9.347h3.81v9.226q0,2.23,2.03,2.23a2.751,2.751,0,0,0,2.663-1.346v-10.11h3.823V0h-3.586Zm14.581-9.242a10.351,10.351,0,0,0-1.371-.105,2.791,2.791,0,0,0-2.834,1.463V0h-3.81V-14.265h3.6l.105,1.7a3.53,3.53,0,0,1,3.177-1.964,3.992,3.992,0,0,1,1.187.171ZM176.647,0a4.231,4.231,0,0,1-.382-1.279,4.61,4.61,0,0,1-3.6,1.542,5.065,5.065,0,0,1-3.474-1.213,3.9,3.9,0,0,1-1.378-3.059,4.031,4.031,0,0,1,1.681-3.48,8.294,8.294,0,0,1,4.858-1.226h1.753v-.817a2.351,2.351,0,0,0-.508-1.582,2,2,0,0,0-1.6-.593,2.27,2.27,0,0,0-1.51.461,1.568,1.568,0,0,0-.547,1.266h-3.81a3.827,3.827,0,0,1,.765-2.294,5.054,5.054,0,0,1,2.162-1.655,7.88,7.88,0,0,1,3.138-.6,6.225,6.225,0,0,1,4.186,1.325,4.635,4.635,0,0,1,1.549,3.724V-3.3A6.82,6.82,0,0,0,180.5-.224V0ZM173.5-2.65a3.281,3.281,0,0,0,1.556-.376,2.468,2.468,0,0,0,1.055-1.009V-6.486h-1.424q-2.861,0-3.045,1.978l-.013.224a1.525,1.525,0,0,0,.5,1.173A1.946,1.946,0,0,0,173.5-2.65Zm29.993-13.342h-5.88V0h-3.955V-15.992h-5.8v-3.2h15.636ZM209.949,0h-3.955V-19.2h3.955Z" transform="translate(680 1415.543)" fill="#fff"/>
    <path id="Trazado_228022" data-name="Trazado 228022" d="M10.231,0h173a10.231,10.231,0,0,1,10.231,10.231v77.44A10.231,10.231,0,0,1,183.234,97.9h-173A10.231,10.231,0,0,1,0,87.671V10.231A10.231,10.231,0,0,1,10.231,0Z" transform="translate(387.916 1591.715)" fill="#abb3cd"/>
    <path id="Trazado_228023" data-name="Trazado 228023" d="M10.231,0h173a10.231,10.231,0,0,1,10.231,10.231v77.44A10.231,10.231,0,0,1,183.234,97.9h-173A10.231,10.231,0,0,1,0,87.671V10.231A10.231,10.231,0,0,1,10.231,0Z" transform="translate(596.456 1591.715)" fill="#4dd0e1"/>
    <path id="Trazado_228024" data-name="Trazado 228024" d="M10.231,0h173a10.231,10.231,0,0,1,10.231,10.231v77.44A10.231,10.231,0,0,1,183.234,97.9h-173A10.231,10.231,0,0,1,0,87.671V10.231A10.231,10.231,0,0,1,10.231,0Z" transform="translate(804.995 1591.715)" fill="#feca2e"/>
    <path id="Trazado_228025" data-name="Trazado 228025" d="M10.231,0h173a10.231,10.231,0,0,1,10.231,10.231v77.44A10.231,10.231,0,0,1,183.234,97.9h-173A10.231,10.231,0,0,1,0,87.671V10.231A10.231,10.231,0,0,1,10.231,0Z" transform="translate(1013.535 1591.715)" fill="#bddcf6"/>
    <path id="Trazado_228026" data-name="Trazado 228026" d="M0,0V136.771" transform="translate(901.728 1450.798)" fill="none" stroke="#0c1f5a" stroke-width="3"/>
    <path id="Trazado_228027" data-name="Trazado 228027" d="M0,0,151.179,142.64" transform="translate(954.604 1444.591)" fill="none" stroke="#0c1f5a" stroke-width="3"/>
    <path id="Trazado_228028" data-name="Trazado 228028" d="M0,0V132.625" transform="translate(693.188 1454.943)" fill="none" stroke="#0c1f5a" stroke-width="3"/>
    <path id="Trazado_228029" data-name="Trazado 228029" d="M129.538,0,0,140.975" transform="translate(489 1446.39)" fill="none" stroke="#0c1f5a" stroke-width="3"/>
    <path id="Trazado_227977" data-name="Trazado 227977" d="M-30.352-6.983a9.236,9.236,0,0,1-.738,3.83,5.592,5.592,0,0,1-2.092,2.5A5.755,5.755,0,0,1-36.34.205a5.706,5.706,0,0,1-3.127-.866,5.726,5.726,0,0,1-2.117-2.471,8.861,8.861,0,0,1-.774-3.717V-7.926a9.126,9.126,0,0,1,.749-3.8,5.706,5.706,0,0,1,2.117-2.528,5.682,5.682,0,0,1,3.133-.877,5.788,5.788,0,0,1,3.163.866,5.582,5.582,0,0,1,2.107,2.512,9.28,9.28,0,0,1,.738,3.83Zm-1.958-.964a6.694,6.694,0,0,0-1.066-4.076,3.517,3.517,0,0,0-2.984-1.42,3.48,3.48,0,0,0-2.938,1.42A6.557,6.557,0,0,0-40.4-8.08v1.1a6.7,6.7,0,0,0,1.082,4.045A3.494,3.494,0,0,0-36.34-1.466a3.48,3.48,0,0,0,2.953-1.389A6.666,6.666,0,0,0-32.31-6.839ZM-18.3-5.424a6.6,6.6,0,0,1-1.169,4.086A3.735,3.735,0,0,1-22.61.205a3.868,3.868,0,0,1-3.25-1.487L-25.953,0H-27.7V-15.75h1.9v5.875A3.846,3.846,0,0,1-22.63-11.3a3.758,3.758,0,0,1,3.174,1.528A6.8,6.8,0,0,1-18.3-5.588Zm-1.9-.215a5.126,5.126,0,0,0-.749-2.994A2.478,2.478,0,0,0-23.1-9.69a2.785,2.785,0,0,0-2.7,1.743v4.8A2.863,2.863,0,0,0-23.082-1.4a2.464,2.464,0,0,0,2.123-1.056A5.451,5.451,0,0,0-20.2-5.64Zm6.245-5.455V1.282q0,3.2-2.9,3.2A3.54,3.54,0,0,1-18.016,4.3V2.789a3.667,3.667,0,0,0,.861.082,1.289,1.289,0,0,0,.969-.344,1.7,1.7,0,0,0,.333-1.2V-11.095Zm-2.092-2.943a1.137,1.137,0,0,1,.282-.774,1.037,1.037,0,0,1,.825-.323,1.075,1.075,0,0,1,.841.318,1.12,1.12,0,0,1,.287.779,1.084,1.084,0,0,1-.287.769,1.1,1.1,0,0,1-.841.308,1.061,1.061,0,0,1-.831-.308A1.107,1.107,0,0,1-16.047-14.038ZM-6.3.205A4.848,4.848,0,0,1-9.967-1.277,5.5,5.5,0,0,1-11.382-5.24v-.349a6.658,6.658,0,0,1,.631-2.948,4.919,4.919,0,0,1,1.764-2.03A4.434,4.434,0,0,1-6.532-11.3,4.155,4.155,0,0,1-3.168-9.875a6.171,6.171,0,0,1,1.2,4.081V-5H-9.485a3.944,3.944,0,0,0,.959,2.651,3.014,3.014,0,0,0,2.333,1.01,3.3,3.3,0,0,0,1.7-.41A4.277,4.277,0,0,0-3.271-2.84l1.159.9A4.659,4.659,0,0,1-6.3.205Zm-.236-9.946a2.53,2.53,0,0,0-1.928.836,4.062,4.062,0,0,0-.964,2.343h5.558v-.144a3.613,3.613,0,0,0-.779-2.24A2.382,2.382,0,0,0-6.532-9.741ZM2.8-13.781v2.687H4.871v1.466H2.8v6.889a1.54,1.54,0,0,0,.277,1A1.165,1.165,0,0,0,4.02-1.4a4.593,4.593,0,0,0,.9-.123V0a5.532,5.532,0,0,1-1.456.2A2.362,2.362,0,0,1,1.548-.564,3.3,3.3,0,0,1,.9-2.748v-6.88h-2.02v-1.466H.9v-2.687ZM9.146,0H7.25V-11.095h1.9ZM7.1-14.038a1.132,1.132,0,0,1,.282-.779,1.059,1.059,0,0,1,.836-.318,1.075,1.075,0,0,1,.841.318,1.12,1.12,0,0,1,.287.779,1.084,1.084,0,0,1-.287.769,1.1,1.1,0,0,1-.841.308,1.078,1.078,0,0,1-.836-.308A1.1,1.1,0,0,1,7.1-14.038ZM15.842-2.574l2.748-8.521h1.938L16.55,0H15.1l-4.02-11.095h1.938ZM21.7-5.65a6.553,6.553,0,0,1,.641-2.933,4.781,4.781,0,0,1,1.784-2.01,4.857,4.857,0,0,1,2.61-.708A4.679,4.679,0,0,1,30.4-9.731a6.036,6.036,0,0,1,1.4,4.173v.133a6.61,6.61,0,0,1-.62,2.907,4.71,4.71,0,0,1-1.774,2,4.913,4.913,0,0,1-2.651.718A4.667,4.667,0,0,1,23.1-1.364a6.005,6.005,0,0,1-1.4-4.153Zm1.907.226a4.746,4.746,0,0,0,.856,2.963,2.74,2.74,0,0,0,2.292,1.118,2.724,2.724,0,0,0,2.3-1.133A5.19,5.19,0,0,0,29.9-5.65a4.738,4.738,0,0,0-.866-2.958,2.755,2.755,0,0,0-2.3-1.133,2.724,2.724,0,0,0-2.266,1.118A5.152,5.152,0,0,0,23.6-5.424ZM40.636-2.943a1.4,1.4,0,0,0-.579-1.195,5.576,5.576,0,0,0-2.02-.733,9.551,9.551,0,0,1-2.287-.738A3.253,3.253,0,0,1,34.5-6.634a2.453,2.453,0,0,1-.405-1.415,2.878,2.878,0,0,1,1.154-2.307A4.505,4.505,0,0,1,38.2-11.3a4.636,4.636,0,0,1,3.061.974,3.094,3.094,0,0,1,1.174,2.492H40.523a1.713,1.713,0,0,0-.661-1.343A2.478,2.478,0,0,0,38.2-9.741a2.593,2.593,0,0,0-1.62.451,1.42,1.42,0,0,0-.584,1.179,1.151,1.151,0,0,0,.543,1.036,6.687,6.687,0,0,0,1.964.667,10.231,10.231,0,0,1,2.3.759,3.358,3.358,0,0,1,1.307,1.061,2.609,2.609,0,0,1,.426,1.512A2.839,2.839,0,0,1,41.344-.692a4.989,4.989,0,0,1-3.086.9A5.587,5.587,0,0,1,35.9-.267a3.836,3.836,0,0,1-1.6-1.318,3.176,3.176,0,0,1-.579-1.83h1.9A1.964,1.964,0,0,0,36.376-1.9a2.964,2.964,0,0,0,1.882.559,3.059,3.059,0,0,0,1.728-.436A1.339,1.339,0,0,0,40.636-2.943Z" transform="translate(482.674 1645.496)"/>
    <path id="Trazado_227978" data-name="Trazado 227978" d="M-14.728-13.954h-5.027V0h-2.052V-13.954h-5.017v-1.687h12.1ZM-10.56,0h-1.987V-11.623h1.987Zm-2.148-14.706a1.186,1.186,0,0,1,.3-.816,1.109,1.109,0,0,1,.875-.333,1.126,1.126,0,0,1,.881.333,1.174,1.174,0,0,1,.3.816,1.135,1.135,0,0,1-.3.806,1.147,1.147,0,0,1-.881.322,1.129,1.129,0,0,1-.875-.322A1.147,1.147,0,0,1-12.708-14.706ZM2.438-5.683A6.96,6.96,0,0,1,1.225-1.407,3.89,3.89,0,0,1-2.062.215a4.263,4.263,0,0,1-3.33-1.343v5.6H-7.38V-11.623h1.815l.1,1.289a4.094,4.094,0,0,1,3.373-1.5,3.963,3.963,0,0,1,3.314,1.579A7.036,7.036,0,0,1,2.438-5.865ZM.451-5.908a5.135,5.135,0,0,0-.838-3.1,2.7,2.7,0,0,0-2.3-1.139,2.921,2.921,0,0,0-2.707,1.6V-3a2.927,2.927,0,0,0,2.729,1.59A2.686,2.686,0,0,0-.392-2.541,5.606,5.606,0,0,0,.451-5.908Zm3.985-.011a6.865,6.865,0,0,1,.671-3.072A5.008,5.008,0,0,1,6.977-11.1a5.088,5.088,0,0,1,2.734-.741,4.9,4.9,0,0,1,3.84,1.644,6.323,6.323,0,0,1,1.466,4.372v.14a6.925,6.925,0,0,1-.65,3.045,4.935,4.935,0,0,1-1.858,2.1A5.146,5.146,0,0,1,9.732.215,4.889,4.889,0,0,1,5.9-1.429,6.291,6.291,0,0,1,4.437-5.779Zm2,.236a4.972,4.972,0,0,0,.9,3.1,2.871,2.871,0,0,0,2.4,1.171,2.853,2.853,0,0,0,2.406-1.187,5.437,5.437,0,0,0,.892-3.325,4.964,4.964,0,0,0-.908-3.1,2.886,2.886,0,0,0-2.412-1.187A2.854,2.854,0,0,0,7.337-9.034,5.4,5.4,0,0,0,6.435-5.683Zm17.843,2.6a1.463,1.463,0,0,0-.607-1.251A5.842,5.842,0,0,0,21.554-5.1a10.005,10.005,0,0,1-2.4-.773A3.408,3.408,0,0,1,17.848-6.95a2.57,2.57,0,0,1-.424-1.482,3.015,3.015,0,0,1,1.208-2.417,4.72,4.72,0,0,1,3.088-.988,4.857,4.857,0,0,1,3.207,1.021,3.241,3.241,0,0,1,1.23,2.61h-2a1.794,1.794,0,0,0-.693-1.407,2.6,2.6,0,0,0-1.746-.591,2.717,2.717,0,0,0-1.7.473A1.488,1.488,0,0,0,19.411-8.5a1.205,1.205,0,0,0,.569,1.085,7,7,0,0,0,2.057.7,10.719,10.719,0,0,1,2.412.795,3.518,3.518,0,0,1,1.37,1.112,2.734,2.734,0,0,1,.446,1.584,2.975,2.975,0,0,1-1.246,2.5,5.227,5.227,0,0,1-3.233.94,5.853,5.853,0,0,1-2.471-.494,4.018,4.018,0,0,1-1.681-1.38,3.327,3.327,0,0,1-.607-1.917h1.987a2.058,2.058,0,0,0,.8,1.584,3.1,3.1,0,0,0,1.971.585,3.2,3.2,0,0,0,1.81-.457A1.4,1.4,0,0,0,24.277-3.083Z" transform="translate(692.325 1646.496)"/>
    <path id="Trazado_227979" data-name="Trazado 227979" d="M-23.133-1.958A4.548,4.548,0,0,1-25.25-.333a8.553,8.553,0,0,1-3.163.538,6.135,6.135,0,0,1-3.24-.856,5.7,5.7,0,0,1-2.189-2.435,8.411,8.411,0,0,1-.795-3.661v-1.3a7.852,7.852,0,0,1,1.574-5.229,5.484,5.484,0,0,1,4.425-1.856,5.665,5.665,0,0,1,3.763,1.195,5.2,5.2,0,0,1,1.743,3.389H-25.1a3.255,3.255,0,0,0-3.527-2.974,3.485,3.485,0,0,0-3,1.391,6.79,6.79,0,0,0-1.031,4.028v1.221a6.363,6.363,0,0,0,1.148,4A3.723,3.723,0,0,0-28.4-1.4a6.862,6.862,0,0,0,1.938-.246,3,3,0,0,0,1.374-.829V-5.824h-3.456v-1.61h5.414ZM-15.545.205a4.848,4.848,0,0,1-3.671-1.482A5.5,5.5,0,0,1-20.631-5.24v-.349A6.658,6.658,0,0,1-20-8.536a4.919,4.919,0,0,1,1.764-2.03,4.434,4.434,0,0,1,2.456-.733,4.155,4.155,0,0,1,3.363,1.425,6.171,6.171,0,0,1,1.2,4.081V-5h-7.516a3.944,3.944,0,0,0,.959,2.651,3.014,3.014,0,0,0,2.333,1.01,3.3,3.3,0,0,0,1.7-.41A4.277,4.277,0,0,0-12.52-2.84l1.159.9A4.659,4.659,0,0,1-15.545.205Zm-.236-9.946a2.53,2.53,0,0,0-1.928.836,4.062,4.062,0,0,0-.964,2.343h5.558v-.144a3.613,3.613,0,0,0-.779-2.24A2.382,2.382,0,0,0-15.781-9.741Zm13.217,6.8a1.4,1.4,0,0,0-.579-1.195,5.576,5.576,0,0,0-2.02-.733,9.551,9.551,0,0,1-2.287-.738A3.253,3.253,0,0,1-8.7-6.634a2.453,2.453,0,0,1-.405-1.415,2.878,2.878,0,0,1,1.154-2.307A4.505,4.505,0,0,1-5-11.3a4.636,4.636,0,0,1,3.061.974A3.094,3.094,0,0,1-.769-7.834H-2.676a1.713,1.713,0,0,0-.661-1.343A2.478,2.478,0,0,0-5-9.741a2.593,2.593,0,0,0-1.62.451,1.42,1.42,0,0,0-.584,1.179,1.151,1.151,0,0,0,.543,1.036A6.687,6.687,0,0,0-4.7-6.409a10.231,10.231,0,0,1,2.3.759A3.358,3.358,0,0,1-1.092-4.589,2.609,2.609,0,0,1-.667-3.076,2.839,2.839,0,0,1-1.856-.692a4.989,4.989,0,0,1-3.086.9A5.587,5.587,0,0,1-7.3-.267a3.836,3.836,0,0,1-1.6-1.318,3.176,3.176,0,0,1-.579-1.83h1.9A1.964,1.964,0,0,0-6.824-1.9a2.964,2.964,0,0,0,1.882.559,3.059,3.059,0,0,0,1.728-.436A1.339,1.339,0,0,0-2.563-2.943ZM4.378-13.781v2.687H6.45v1.466H4.378v6.889a1.54,1.54,0,0,0,.277,1A1.165,1.165,0,0,0,5.6-1.4a4.593,4.593,0,0,0,.9-.123V0a5.532,5.532,0,0,1-1.456.2A2.362,2.362,0,0,1,3.127-.564a3.3,3.3,0,0,1-.646-2.184v-6.88H.461v-1.466h2.02v-2.687ZM10.726,0h-1.9V-11.095h1.9ZM8.675-14.038a1.132,1.132,0,0,1,.282-.779,1.059,1.059,0,0,1,.836-.318,1.075,1.075,0,0,1,.841.318,1.12,1.12,0,0,1,.287.779,1.084,1.084,0,0,1-.287.769,1.1,1.1,0,0,1-.841.308,1.078,1.078,0,0,1-.836-.308A1.1,1.1,0,0,1,8.675-14.038ZM13.258-5.65A6.553,6.553,0,0,1,13.9-8.583a4.781,4.781,0,0,1,1.784-2.01,4.857,4.857,0,0,1,2.61-.708,4.679,4.679,0,0,1,3.666,1.569,6.036,6.036,0,0,1,1.4,4.173v.133a6.61,6.61,0,0,1-.62,2.907,4.71,4.71,0,0,1-1.774,2,4.913,4.913,0,0,1-2.651.718,4.667,4.667,0,0,1-3.656-1.569,6.005,6.005,0,0,1-1.4-4.153Zm1.907.226a4.746,4.746,0,0,0,.856,2.963,2.74,2.74,0,0,0,2.292,1.118,2.724,2.724,0,0,0,2.3-1.133,5.19,5.19,0,0,0,.851-3.174,4.738,4.738,0,0,0-.866-2.958,2.755,2.755,0,0,0-2.3-1.133,2.724,2.724,0,0,0-2.266,1.118A5.152,5.152,0,0,0,15.166-5.424ZM19.154-15.75h2.3L18.7-12.735l-1.528-.005Zm8.377,4.655L27.593-9.7a4.043,4.043,0,0,1,3.322-1.6q3.517,0,3.548,3.968V0h-1.9V-7.342a2.554,2.554,0,0,0-.549-1.774,2.2,2.2,0,0,0-1.677-.574,2.738,2.738,0,0,0-1.62.492,3.342,3.342,0,0,0-1.087,1.292V0h-1.9V-11.095Z" transform="translate(900.112 1645.497)"/>
    <path id="Trazado_227980" data-name="Trazado 227980" d="M-49.844,0V-15.641h4.415a7.107,7.107,0,0,1,3.609.9A6.1,6.1,0,0,1-39.4-12.171a8.357,8.357,0,0,1,.865,3.824v1a8.386,8.386,0,0,1-.854,3.878A6.007,6.007,0,0,1-41.825-.913,7.56,7.56,0,0,1-45.515,0Zm2.063-13.954V-1.687h2.17A4.721,4.721,0,0,0-41.9-3.17,6.13,6.13,0,0,0-40.573-7.4V-8.31a6.227,6.227,0,0,0-1.251-4.145,4.453,4.453,0,0,0-3.55-1.5ZM-33.569,0h-1.987V-11.623h1.987Zm-2.148-14.706a1.186,1.186,0,0,1,.3-.816,1.109,1.109,0,0,1,.875-.333,1.126,1.126,0,0,1,.881.333,1.174,1.174,0,0,1,.3.816,1.135,1.135,0,0,1-.3.806,1.147,1.147,0,0,1-.881.322,1.129,1.129,0,0,1-.875-.322A1.147,1.147,0,0,1-35.718-14.706Zm7.208,3.083.064,1.461a4.236,4.236,0,0,1,3.48-1.676q3.685,0,3.717,4.157V0h-1.987V-7.691A2.676,2.676,0,0,0-23.81-9.55a2.3,2.3,0,0,0-1.756-.6,2.868,2.868,0,0,0-1.7.516A3.5,3.5,0,0,0-28.4-8.282V0H-30.39V-11.623ZM-11.075,0a4.175,4.175,0,0,1-.279-1.225A4.434,4.434,0,0,1-14.663.215a4.1,4.1,0,0,1-2.82-.972,3.145,3.145,0,0,1-1.1-2.465,3.286,3.286,0,0,1,1.38-2.82,6.508,6.508,0,0,1,3.883-1h1.934V-7.96a2.232,2.232,0,0,0-.623-1.66,2.5,2.5,0,0,0-1.837-.618A2.9,2.9,0,0,0-15.63-9.7a1.583,1.583,0,0,0-.72,1.3h-2a2.743,2.743,0,0,1,.618-1.681,4.216,4.216,0,0,1,1.676-1.284,5.638,5.638,0,0,1,2.326-.473,4.6,4.6,0,0,1,3.147,1A3.623,3.623,0,0,1-9.4-8.067v5.35A6.54,6.54,0,0,0-8.991-.172V0Zm-3.3-1.515A3.493,3.493,0,0,0-12.6-2a2.924,2.924,0,0,0,1.214-1.257V-5.64h-1.558Q-16.6-5.64-16.6-3.5a1.809,1.809,0,0,0,.623,1.461A2.4,2.4,0,0,0-14.373-1.515ZM-12.536-16.5h2.406l-2.879,3.158-1.6-.005Zm8.121,4.877.054,1.289a4.292,4.292,0,0,1,3.448-1.5A3.323,3.323,0,0,1,2.406-9.969a4.4,4.4,0,0,1,1.509-1.354,4.458,4.458,0,0,1,2.2-.516q3.824,0,3.889,4.05V0H8.014V-7.67a2.669,2.669,0,0,0-.569-1.864,2.507,2.507,0,0,0-1.912-.618A2.635,2.635,0,0,0,3.7-9.491a2.68,2.68,0,0,0-.849,1.778V0h-2V-7.616a2.217,2.217,0,0,0-2.481-2.535A2.659,2.659,0,0,0-4.308-8.486V0H-6.295V-11.623ZM15.157,0H13.17V-11.623h1.987ZM13.009-14.706a1.186,1.186,0,0,1,.3-.816,1.109,1.109,0,0,1,.875-.333,1.126,1.126,0,0,1,.881.333,1.174,1.174,0,0,1,.3.816,1.135,1.135,0,0,1-.3.806,1.147,1.147,0,0,1-.881.322A1.129,1.129,0,0,1,13.3-13.9,1.147,1.147,0,0,1,13.009-14.706ZM23-1.407a2.863,2.863,0,0,0,1.858-.645,2.268,2.268,0,0,0,.881-1.611h1.88a3.6,3.6,0,0,1-.687,1.9A4.528,4.528,0,0,1,25.239-.322,4.882,4.882,0,0,1,23,.215,4.788,4.788,0,0,1,19.223-1.37a6.311,6.311,0,0,1-1.4-4.334v-.333a7,7,0,0,1,.623-3.019,4.745,4.745,0,0,1,1.789-2.052,5.081,5.081,0,0,1,2.755-.73,4.662,4.662,0,0,1,3.25,1.171,4.185,4.185,0,0,1,1.38,3.04h-1.88a2.739,2.739,0,0,0-.854-1.853,2.657,2.657,0,0,0-1.9-.725,2.781,2.781,0,0,0-2.347,1.09,5.121,5.121,0,0,0-.833,3.153v.376a5.019,5.019,0,0,0,.827,3.094A2.8,2.8,0,0,0,23-1.407ZM37.028,0a4.175,4.175,0,0,1-.279-1.225A4.434,4.434,0,0,1,33.44.215a4.1,4.1,0,0,1-2.82-.972,3.145,3.145,0,0,1-1.1-2.465,3.286,3.286,0,0,1,1.38-2.82,6.508,6.508,0,0,1,3.883-1h1.934V-7.96a2.232,2.232,0,0,0-.623-1.66,2.5,2.5,0,0,0-1.837-.618,2.9,2.9,0,0,0-1.783.537,1.583,1.583,0,0,0-.72,1.3h-2a2.743,2.743,0,0,1,.618-1.681,4.216,4.216,0,0,1,1.676-1.284,5.638,5.638,0,0,1,2.326-.473,4.6,4.6,0,0,1,3.147,1A3.623,3.623,0,0,1,38.7-8.067v5.35a6.54,6.54,0,0,0,.408,2.546V0Zm-3.3-1.515A3.493,3.493,0,0,0,35.5-2a2.924,2.924,0,0,0,1.214-1.257V-5.64H35.159q-3.652,0-3.652,2.138a1.809,1.809,0,0,0,.623,1.461A2.4,2.4,0,0,0,33.73-1.515ZM48.587-3.083a1.463,1.463,0,0,0-.607-1.251A5.842,5.842,0,0,0,45.864-5.1a10.005,10.005,0,0,1-2.4-.773A3.408,3.408,0,0,1,42.158-6.95a2.57,2.57,0,0,1-.424-1.482,3.015,3.015,0,0,1,1.208-2.417,4.72,4.72,0,0,1,3.088-.988,4.857,4.857,0,0,1,3.207,1.021,3.241,3.241,0,0,1,1.23,2.61h-2a1.794,1.794,0,0,0-.693-1.407,2.6,2.6,0,0,0-1.746-.591,2.717,2.717,0,0,0-1.7.473A1.488,1.488,0,0,0,43.721-8.5a1.205,1.205,0,0,0,.569,1.085,7,7,0,0,0,2.057.7,10.719,10.719,0,0,1,2.412.795,3.518,3.518,0,0,1,1.37,1.112,2.734,2.734,0,0,1,.446,1.584,2.975,2.975,0,0,1-1.246,2.5,5.227,5.227,0,0,1-3.233.94,5.853,5.853,0,0,1-2.471-.494,4.018,4.018,0,0,1-1.681-1.38,3.327,3.327,0,0,1-.607-1.917h1.987a2.058,2.058,0,0,0,.8,1.584,3.1,3.1,0,0,0,1.971.585,3.2,3.2,0,0,0,1.81-.457A1.4,1.4,0,0,0,48.587-3.083Z" transform="translate(1109.326 1646.497)"/>
    <path id="Trazado_224963" data-name="Trazado 224963" d="M416.811,593.118v15.039h13.255" transform="translate(71.958 979.412)" fill="none" stroke="#0c1f5a" stroke-miterlimit="10" stroke-width="3"/>
    <path id="Trazado_224964" data-name="Trazado 224964" d="M556.358,596.28l10.634,10.634,10.634-10.634" transform="translate(126.827 980.655)" fill="none" stroke="#0c1f5a" stroke-miterlimit="10" stroke-width="3"/>
    <path id="Trazado_224965" data-name="Trazado 224965" d="M705.589,596.28l10.634,10.634,10.634-10.634" transform="translate(185.505 980.655)" fill="none" stroke="#0c1f5a" stroke-miterlimit="10" stroke-width="3"/>
    <path id="Trazado_224966" data-name="Trazado 224966" d="M848.649,608.157h15.039V593.118" transform="translate(241.756 979.412)" fill="none" stroke="#0c1f5a" stroke-miterlimit="10" stroke-width="3"/>
  </g>
</svg>
