<svg xmlns="http://www.w3.org/2000/svg" width="200" height="200" viewBox="0 0 200 200">
  <g id="Grupo_215604" data-name="Grupo 215604" transform="translate(-228 -883)">
    <circle id="Elipse_16409" data-name="Elipse 16409" cx="100" cy="100" r="100" transform="translate(228 883)" fill="#0f2771"/>
    <g id="Grupo_213643" data-name="Grupo 213643" transform="translate(174.33 813.649)">
      <path id="Trazado_224934" data-name="Trazado 224934" d="M91.67,189.51a7.158,7.158,0,0,0,.726-2.5,19.119,19.119,0,0,1,26.043-12.137c1.308.588,1.833,1.462,1.527,2.543-.351,1.242-1.627,1.688-3.1,1.049a14.874,14.874,0,0,0-11.162-.444,15.118,15.118,0,0,0,5.224,29.39,15.8,15.8,0,0,0,5.466-1.075c1.483-.569,2.486-.241,2.96.934.449,1.113-.127,2.125-1.542,2.709a19.128,19.128,0,0,1-25.669-13.425c-.106-.485-.026-1.05-.475-1.428Z" transform="translate(0 -44.387)" fill="#fff"/>
      <path id="Trazado_224935" data-name="Trazado 224935" d="M202.453,290.642c3.432,1.837,4.31,3.088,4.865,6.778,4.649.283,8.184,4.055,6.646,9.8a7.046,7.046,0,0,1,5.024,5.548,6.425,6.425,0,0,1-1.733,5.961c-4.619,4.7-9.112,9.551-14.03,13.922-7.836,6.965-17.059,8.792-26.931,5.352-9.976-3.476-16.041-10.754-17.831-21.165a25.791,25.791,0,0,1,7.032-23.014c3.713-3.932,7.6-7.7,11.448-11.5,3.744-3.694,9.176-2.709,11.522,2.039a3.658,3.658,0,0,0,.253.37c.327-.311.642-.6.943-.9,4.748-4.745,9.471-9.514,14.247-14.229a6.952,6.952,0,0,1,11.664,2.6,6.725,6.725,0,0,1-1.781,7.274c-3.431,3.473-6.9,6.912-10.352,10.358C203.154,290.117,202.813,290.349,202.453,290.642Zm-18.329,45.047c6.526-.087,11.509-1.611,15.611-5.176,5.189-4.511,9.812-9.626,14.693-14.466a1.541,1.541,0,0,0,.147-.194,3.057,3.057,0,0,0-4.363-4.22c-.441.356-.82.788-1.236,1.177a1.971,1.971,0,1,1-2.749-2.776c1.049-1.079,2.137-2.121,3.181-3.205a3.08,3.08,0,1,0-4.309-4.39c-.861.806-1.651,1.688-2.518,2.487a1.94,1.94,0,1,1-2.708-2.775c.748-.8,1.557-1.55,2.32-2.34,1.4-1.453,1.5-3.287.267-4.563-1.3-1.34-3.124-1.261-4.638.216-.961.937-1.873,1.927-2.864,2.831a1.886,1.886,0,0,1-2.735-.079,1.944,1.944,0,0,1-.011-2.656c.258-.313.561-.589.849-.876q8.673-8.674,17.347-17.348a10.412,10.412,0,0,0,.994-1.072,3.021,3.021,0,0,0-1.607-4.781c-1.453-.434-2.488.237-3.461,1.211q-14.273,14.294-28.566,28.568a6.336,6.336,0,0,1-1.091.968,1.769,1.769,0,0,1-2.158-.153,1.854,1.854,0,0,1-.717-1.947,2.918,2.918,0,0,1,.949-1.388q4.624-4.611,9.231-9.238a3.092,3.092,0,0,0,.256-4.553,3.052,3.052,0,0,0-4.55.144c-3.812,3.782-7.745,7.458-11.353,11.428-6.705,7.38-8.309,15.962-4.391,25.1C167.876,330.78,175.338,335.222,184.125,335.688Z" transform="translate(-44.711 -107.858)" fill="#fff"/>
      <path id="Trazado_224936" data-name="Trazado 224936" d="M292.407,107.351A35.665,35.665,0,0,1,298.95,178a34.678,34.678,0,0,1-15.363-.356,1.991,1.991,0,0,1-1.749-2.34,2.016,2.016,0,0,1,2.653-1.425c11.316,2.4,21.426-.054,29.674-8.218,8.919-8.828,11.818-19.666,8.2-31.7-3.606-12-11.915-19.528-24.219-22.023a31.582,31.582,0,0,0-37.543,26.629,31.148,31.148,0,0,0,3.473,19.463c.191.358.4.706.579,1.071a1.952,1.952,0,1,1-3.411,1.884,33.575,33.575,0,0,1-3.863-9.554,35.707,35.707,0,0,1,27.49-43.351A38.725,38.725,0,0,1,292.407,107.351Z" transform="translate(-110.987)" fill="#fff"/>
      <path id="Trazado_224937" data-name="Trazado 224937" d="M337.27,219.082h-36.96c-.278.267-.132.545-.062.807a19.962,19.962,0,0,0,2.493,5.656,1.993,1.993,0,0,1-.414,2.906,1.96,1.96,0,0,1-2.831-.744,22.061,22.061,0,0,1-3.473-9.018,2.926,2.926,0,0,1,2.908-3.549c.324-.025.651-.01.976-.01q18.8,0,37.6,0c3.236,0,4.305,1.318,3.686,4.532a23,23,0,0,1-26.8,18.047c-.119-.023-.236-.063-.354-.092-1.345-.334-1.968-1.159-1.754-2.324a1.9,1.9,0,0,1,2.49-1.481,19.225,19.225,0,0,0,22.4-14.01A5.685,5.685,0,0,0,337.27,219.082Z" transform="translate(-137.653 -72.614)" fill="#fff"/>
      <path id="Trazado_224938" data-name="Trazado 224938" d="M188.46,211.324a19.043,19.043,0,0,1-2.775-37.876,18.672,18.672,0,0,1,8.093.542c1.781.518,2.461,1.4,2.084,2.691-.348,1.187-1.433,1.561-3.138,1.083a15.057,15.057,0,0,0-18.862,10.924A14.344,14.344,0,0,0,179,203.979c4.829,3.962,10.29,4.461,16.017,1.978.3-.129.58-.293.878-.421A1.95,1.95,0,1,1,197.692,209,19.278,19.278,0,0,1,188.46,211.324Z" transform="translate(-52.414 -44.388)" fill="#fff"/>
      <path id="Trazado_224939" data-name="Trazado 224939" d="M314.048,171.926a6.832,6.832,0,1,1,6.876-6.747A6.823,6.823,0,0,1,314.048,171.926Zm.026-3.92a2.892,2.892,0,0,0,2.935-2.915,2.923,2.923,0,0,0-5.845-.023A2.887,2.887,0,0,0,314.075,168.006Z" transform="translate(-145.248 -34.302)" fill="#fff"/>
      <path id="Trazado_224940" data-name="Trazado 224940" d="M389.985,170.949a6.343,6.343,0,1,1,6.312-6.366A6.329,6.329,0,0,1,389.985,170.949Zm0-3.92a2.4,2.4,0,0,0,2.4-2.382,2.435,2.435,0,0,0-4.87-.048A2.4,2.4,0,0,0,389.985,167.029Z" transform="translate(-196.689 -34.302)" fill="#fff"/>
      <path id="Trazado_224941" data-name="Trazado 224941" d="M209.85,245.975c-1.7,0-3.409.018-5.112-.006-1.436-.019-2.29-.783-2.271-1.968a1.98,1.98,0,0,1,2.207-1.929q5.112-.042,10.225,0A1.984,1.984,0,0,1,217.109,244c.021,1.185-.835,1.952-2.269,1.972C213.177,245.993,211.513,245.975,209.85,245.975Z" transform="translate(-74.65 -90.755)" fill="#fff"/>
      <path id="Trazado_224942" data-name="Trazado 224942" d="M131.026,236.361a14.846,14.846,0,0,1,1.512.1,1.914,1.914,0,0,1,1.71,2.138,1.826,1.826,0,0,1-1.988,1.725,9.689,9.689,0,0,0-7.661,2.391,1.887,1.887,0,0,1-2.709-.377,1.947,1.947,0,0,1,.384-2.718A12.7,12.7,0,0,1,131.026,236.361Z" transform="translate(-20.096 -86.922)" fill="#fff"/>
      <path id="Trazado_224943" data-name="Trazado 224943" d="M127.517,215.032a2.892,2.892,0,0,1-2.9-2.96,2.926,2.926,0,0,1,5.851.057A2.9,2.9,0,0,1,127.517,215.032Zm1.005-2.993a.958.958,0,0,0-1.074-.851.941.941,0,1,0,.2,1.871C128.21,213.015,128.48,212.64,128.523,212.039Z" transform="translate(-22.201 -68.624)" fill="#fff"/>
      <path id="Trazado_224944" data-name="Trazado 224944" d="M208.319,212.108a2.927,2.927,0,0,1-5.851.1,2.926,2.926,0,1,1,5.851-.1Zm-1.952.012a.945.945,0,0,0-1.044-.935.94.94,0,1,0,.143,1.874A.916.916,0,0,0,206.367,212.121Z" transform="translate(-74.65 -68.623)" fill="#fff"/>
    </g>
  </g>
</svg>
