<svg xmlns="http://www.w3.org/2000/svg" xmlns:xlink="http://www.w3.org/1999/xlink" width="400" height="219" viewBox="0 0 400 219">
  <defs>
    <clipPath id="clip-path">
      <rect id="Rectángulo_295516" data-name="Rectángulo 295516" width="400" height="219" fill="none" stroke="#707070" stroke-width="1"/>
    </clipPath>
  </defs>
  <g id="Grupo_215599" data-name="Grupo 215599" transform="translate(-180 -417)">
    <g id="Enmascarar_grupo_63" data-name="Enmascarar grupo 63" transform="translate(180 417)" clip-path="url(#clip-path)">
      <g id="Grupo_213797" data-name="Grupo 213797">
        <circle id="Elipse_16428" data-name="Elipse 16428" cx="90.398" cy="90.398" r="90.398" transform="translate(54.106 14.612)" fill="#e8f3fc"/>
        <rect id="Rectángulo_303364" data-name="Rectángulo 303364" width="400" height="29.496" transform="translate(0 201.619)" fill="#e2eaf2"/>
        <g id="Grupo_213796" data-name="Grupo 213796" transform="translate(102.562 11.158)">
          <g id="Grupo_213786" data-name="Grupo 213786" transform="translate(81.661)">
            <rect id="Rectángulo_303365" data-name="Rectángulo 303365" width="56.209" height="56.994" transform="translate(51.663 45.59)" fill="#f5fafe"/>
            <path id="Trazado_225210" data-name="Trazado 225210" d="M53.725,129.534H66.282v35.6" transform="translate(41.591 -83.944)" fill="none" stroke="#536c7f" stroke-linecap="round" stroke-miterlimit="10" stroke-width="1"/>
            <path id="Trazado_225211" data-name="Trazado 225211" d="M167.343,236.941H155.892v-17.69" transform="translate(-104.228 -134.357)" fill="none" stroke="#536c7f" stroke-linecap="round" stroke-miterlimit="10" stroke-width="1"/>
            <g id="Grupo_213748" data-name="Grupo 213748" transform="translate(51.614)">
              <circle id="Elipse_16429" data-name="Elipse 16429" cx="8.919" cy="8.919" r="8.919" transform="translate(37.207 8.804)" fill="#4dd0e1"/>
              <ellipse id="Elipse_16430" data-name="Elipse 16430" cx="6.194" cy="6.194" rx="6.194" ry="6.194" transform="matrix(-0.231, -0.973, 0.973, -0.231, 2.863, 27.905)" fill="#4dd0e1"/>
              <circle id="Elipse_16431" data-name="Elipse 16431" cx="13.321" cy="13.321" r="13.321" transform="translate(12.094)" fill="#4dd0e1"/>
              <path id="Trazado_225212" data-name="Trazado 225212" d="M76.856,70.393h38.668l-1.241-12.387L78.7,64.2Z" transform="translate(-69.398 -43.752)" fill="#4dd0e1"/>
              <path id="Trazado_225213" data-name="Trazado 225213" d="M93.653,50.3c-4.1,2.769-3.744,9.571-3.744,9.571" transform="translate(-53.243 -39.42)" fill="none" stroke="#536c7f" stroke-linecap="round" stroke-miterlimit="10" stroke-width="1"/>
              <path id="Trazado_225214" data-name="Trazado 225214" d="M149.695,34.175c-4.866,5.973-5.06,11.706-3.141,14.2" transform="translate(-133.607 -30.361)" fill="none" stroke="#536c7f" stroke-linecap="round" stroke-miterlimit="10" stroke-width="1"/>
              <line id="Línea_514" data-name="Línea 514" x2="9.326" transform="translate(9.654 26.93)" fill="none" stroke="#536c7f" stroke-linecap="round" stroke-miterlimit="10" stroke-width="1"/>
            </g>
            <line id="Línea_515" data-name="Línea 515" y2="27.802" transform="translate(81.024 103.73)" fill="none" stroke="#a8c5e2" stroke-miterlimit="10" stroke-width="1"/>
            <rect id="Rectángulo_303366" data-name="Rectángulo 303366" width="2.291" height="6.133" transform="translate(84.09 102.584) rotate(90)" fill="#718494"/>
            <rect id="Rectángulo_303367" data-name="Rectángulo 303367" width="2.291" height="6.133" transform="translate(84.09 130.387) rotate(90)" fill="#718494"/>
            <g id="Grupo_213749" data-name="Grupo 213749" transform="translate(77.957 26.471)">
              <line id="Línea_516" data-name="Línea 516" y2="17.503" transform="translate(3.067 0.776)" fill="none" stroke="#a8c5e2" stroke-miterlimit="10" stroke-width="1"/>
              <rect id="Rectángulo_303368" data-name="Rectángulo 303368" width="2.291" height="6.133" transform="translate(6.133 0) rotate(90)" fill="#718494"/>
              <rect id="Rectángulo_303369" data-name="Rectángulo 303369" width="2.291" height="6.133" transform="translate(6.133 16.765) rotate(90)" fill="#718494"/>
            </g>
            <g id="Grupo_213750" data-name="Grupo 213750" transform="translate(35.232 20.448)">
              <path id="Trazado_225215" data-name="Trazado 225215" d="M178.688,72.144" transform="translate(-160.793 -72.144)" fill="none" stroke="#a8c5e2" stroke-miterlimit="10" stroke-width="1"/>
              <path id="Trazado_225216" data-name="Trazado 225216" d="M219.536,72.144" transform="translate(-219.536 -72.144)" fill="none" stroke="#a8c5e2" stroke-miterlimit="10" stroke-width="1"/>
            </g>
            <g id="Grupo_213754" data-name="Grupo 213754" transform="translate(58.316 57.653)">
              <g id="Grupo_213751" data-name="Grupo 213751" transform="translate(0.768)">
                <rect id="Rectángulo_303370" data-name="Rectángulo 303370" width="41.485" height="9.642" fill="#4dd0e1"/>
                <rect id="Rectángulo_303371" data-name="Rectángulo 303371" width="12.133" height="4.588" transform="translate(25.85 2.204)" fill="#fff"/>
                <path id="Trazado_225217" data-name="Trazado 225217" d="M117.878,166.219a1.446,1.446,0,1,0,1.447-1.447A1.446,1.446,0,0,0,117.878,166.219Z" transform="translate(-100.087 -161.397)" fill="#fff"/>
                <path id="Trazado_225218" data-name="Trazado 225218" d="M128.348,166.219a1.446,1.446,0,1,0,1.446-1.447A1.446,1.446,0,0,0,128.348,166.219Z" transform="translate(-115.144 -161.397)" fill="#718494"/>
                <path id="Trazado_225219" data-name="Trazado 225219" d="M138.818,166.219a1.446,1.446,0,1,0,1.446-1.447A1.446,1.446,0,0,0,138.818,166.219Z" transform="translate(-130.201 -161.397)" fill="#fff"/>
                <path id="Trazado_225220" data-name="Trazado 225220" d="M149.288,166.219a1.447,1.447,0,1,0,1.447-1.447A1.447,1.447,0,0,0,149.288,166.219Z" transform="translate(-145.258 -161.397)" fill="#fff"/>
              </g>
              <g id="Grupo_213752" data-name="Grupo 213752" transform="translate(2.108 9.642)">
                <line id="Línea_517" data-name="Línea 517" y2="14.648" transform="translate(19.344)" fill="none" stroke="#708699" stroke-linecap="round" stroke-miterlimit="10" stroke-width="1"/>
                <path id="Trazado_225221" data-name="Trazado 225221" d="M75.649,202.784V195.2h37.844v7.586" transform="translate(-75.649 -188.136)" fill="none" stroke="#708699" stroke-linecap="round" stroke-miterlimit="10" stroke-width="1"/>
              </g>
              <g id="Grupo_213753" data-name="Grupo 213753" transform="translate(0 24.29)">
                <rect id="Rectángulo_303372" data-name="Rectángulo 303372" width="5.904" height="5.904" transform="translate(37)" fill="#a6bacc"/>
                <rect id="Rectángulo_303373" data-name="Rectángulo 303373" width="5.904" height="5.904" transform="translate(18.5)" fill="#a6bacc"/>
                <rect id="Rectángulo_303374" data-name="Rectángulo 303374" width="5.904" height="5.904" transform="translate(0)" fill="#a6bacc"/>
              </g>
            </g>
            <g id="Grupo_213780" data-name="Grupo 213780" transform="translate(46.732 132.677)">
              <g id="Grupo_213759" data-name="Grupo 213759">
                <g id="Grupo_213758" data-name="Grupo 213758">
                  <rect id="Rectángulo_303375" data-name="Rectángulo 303375" width="58.98" height="2.589" transform="translate(4.802 13.32)" fill="#9bb0c4"/>
                  <g id="Grupo_213757" data-name="Grupo 213757" transform="translate(2.291)">
                    <rect id="Rectángulo_303376" data-name="Rectángulo 303376" width="64.002" height="13.32" rx="3.504" fill="#f5fafe"/>
                    <g id="Grupo_213755" data-name="Grupo 213755" transform="translate(35.03 4.011)">
                      <rect id="Rectángulo_303377" data-name="Rectángulo 303377" width="18.974" height="5.937" transform="translate(5.845)" fill="#718494"/>
                      <rect id="Rectángulo_303378" data-name="Rectángulo 303378" width="7.823" height="1.444" transform="translate(15.001 1.525)" fill="#9bb0c4"/>
                      <rect id="Rectángulo_303379" data-name="Rectángulo 303379" width="3.156" height="1.444" transform="translate(9.641 1.525)" fill="#9bb0c4"/>
                      <rect id="Rectángulo_303380" data-name="Rectángulo 303380" width="3.289" height="5.937" transform="translate(0)" fill="#9bb0c4"/>
                    </g>
                    <g id="Grupo_213756" data-name="Grupo 213756" transform="translate(4.721 5.007)">
                      <path id="Trazado_225222" data-name="Trazado 225222" d="M122.6,341.4a1.653,1.653,0,1,0,1.653-1.653A1.654,1.654,0,0,0,122.6,341.4Z" transform="translate(-101.947 -339.749)" fill="#9bb0c4"/>
                      <path id="Trazado_225223" data-name="Trazado 225223" d="M138.309,341.4a1.653,1.653,0,1,0,1.653-1.653A1.653,1.653,0,0,0,138.309,341.4Z" transform="translate(-124.542 -339.749)" fill="#9bb0c4"/>
                      <path id="Trazado_225224" data-name="Trazado 225224" d="M154.021,341.4a1.654,1.654,0,1,0,1.653-1.653A1.654,1.654,0,0,0,154.021,341.4Z" transform="translate(-147.138 -339.749)" fill="#9bb0c4"/>
                      <path id="Trazado_225225" data-name="Trazado 225225" d="M169.734,341.4a1.653,1.653,0,1,0,1.653-1.653A1.654,1.654,0,0,0,169.734,341.4Z" transform="translate(-169.734 -339.749)" fill="#9bb0c4"/>
                    </g>
                  </g>
                  <rect id="Rectángulo_303381" data-name="Rectángulo 303381" width="2.291" height="6.133" transform="translate(66.293 3.594)" fill="#718494"/>
                  <rect id="Rectángulo_303382" data-name="Rectángulo 303382" width="2.291" height="6.133" transform="translate(0 3.594)" fill="#718494"/>
                </g>
                <path id="Trazado_225226" data-name="Trazado 225226" d="M109.188,348.741H49.873a2.175,2.175,0,0,1-2.176-2.175v-5.609" transform="translate(-45.406 -335.421)" fill="none" stroke="#536c7f" stroke-linecap="round" stroke-miterlimit="10" stroke-width="1"/>
              </g>
              <g id="Grupo_213764" data-name="Grupo 213764" transform="translate(0 15.91)">
                <g id="Grupo_213763" data-name="Grupo 213763">
                  <rect id="Rectángulo_303383" data-name="Rectángulo 303383" width="58.98" height="2.589" transform="translate(4.802 13.32)" fill="#9bb0c4"/>
                  <g id="Grupo_213762" data-name="Grupo 213762" transform="translate(2.291)">
                    <rect id="Rectángulo_303384" data-name="Rectángulo 303384" width="64.002" height="13.32" rx="3.504" fill="#f5fafe"/>
                    <g id="Grupo_213760" data-name="Grupo 213760" transform="translate(35.03 4.011)">
                      <rect id="Rectángulo_303385" data-name="Rectángulo 303385" width="18.974" height="5.937" transform="translate(5.845)" fill="#718494"/>
                      <rect id="Rectángulo_303386" data-name="Rectángulo 303386" width="7.823" height="1.444" transform="translate(15.001 1.525)" fill="#9bb0c4"/>
                      <rect id="Rectángulo_303387" data-name="Rectángulo 303387" width="3.156" height="1.444" transform="translate(9.641 1.525)" fill="#9bb0c4"/>
                      <rect id="Rectángulo_303388" data-name="Rectángulo 303388" width="3.289" height="5.937" transform="translate(0)" fill="#9bb0c4"/>
                    </g>
                    <g id="Grupo_213761" data-name="Grupo 213761" transform="translate(4.721 5.007)">
                      <path id="Trazado_225227" data-name="Trazado 225227" d="M122.6,377.718a1.653,1.653,0,1,0,1.653-1.653A1.654,1.654,0,0,0,122.6,377.718Z" transform="translate(-101.947 -376.065)" fill="#9bb0c4"/>
                      <path id="Trazado_225228" data-name="Trazado 225228" d="M138.309,377.718a1.653,1.653,0,1,0,1.653-1.653A1.653,1.653,0,0,0,138.309,377.718Z" transform="translate(-124.542 -376.065)" fill="#9bb0c4"/>
                      <path id="Trazado_225229" data-name="Trazado 225229" d="M154.021,377.718a1.654,1.654,0,1,0,1.653-1.653A1.654,1.654,0,0,0,154.021,377.718Z" transform="translate(-147.138 -376.065)" fill="#9bb0c4"/>
                      <path id="Trazado_225230" data-name="Trazado 225230" d="M169.734,377.718a1.653,1.653,0,1,0,1.653-1.653A1.654,1.654,0,0,0,169.734,377.718Z" transform="translate(-169.734 -376.065)" fill="#9bb0c4"/>
                    </g>
                  </g>
                  <rect id="Rectángulo_303389" data-name="Rectángulo 303389" width="2.291" height="6.133" transform="translate(66.293 3.594)" fill="#718494"/>
                  <rect id="Rectángulo_303390" data-name="Rectángulo 303390" width="2.291" height="6.133" transform="translate(0 3.594)" fill="#718494"/>
                </g>
                <path id="Trazado_225231" data-name="Trazado 225231" d="M109.188,385.057H49.873a2.176,2.176,0,0,1-2.176-2.176v-5.609" transform="translate(-45.406 -371.737)" fill="none" stroke="#536c7f" stroke-linecap="round" stroke-miterlimit="10" stroke-width="1"/>
              </g>
              <g id="Grupo_213769" data-name="Grupo 213769" transform="translate(0 31.819)">
                <g id="Grupo_213768" data-name="Grupo 213768">
                  <rect id="Rectángulo_303391" data-name="Rectángulo 303391" width="58.98" height="2.589" transform="translate(4.802 13.32)" fill="#9bb0c4"/>
                  <g id="Grupo_213767" data-name="Grupo 213767" transform="translate(2.291)">
                    <rect id="Rectángulo_303392" data-name="Rectángulo 303392" width="64.002" height="13.32" rx="3.504" fill="#f5fafe"/>
                    <g id="Grupo_213765" data-name="Grupo 213765" transform="translate(35.03 4.011)">
                      <rect id="Rectángulo_303393" data-name="Rectángulo 303393" width="18.974" height="5.937" transform="translate(5.845)" fill="#718494"/>
                      <rect id="Rectángulo_303394" data-name="Rectángulo 303394" width="7.823" height="1.444" transform="translate(15.001 1.525)" fill="#9bb0c4"/>
                      <rect id="Rectángulo_303395" data-name="Rectángulo 303395" width="3.156" height="1.444" transform="translate(9.641 1.525)" fill="#9bb0c4"/>
                      <rect id="Rectángulo_303396" data-name="Rectángulo 303396" width="3.289" height="5.937" transform="translate(0)" fill="#9bb0c4"/>
                    </g>
                    <g id="Grupo_213766" data-name="Grupo 213766" transform="translate(4.721 5.007)">
                      <path id="Trazado_225232" data-name="Trazado 225232" d="M122.6,414.033a1.653,1.653,0,1,0,1.653-1.653A1.654,1.654,0,0,0,122.6,414.033Z" transform="translate(-101.947 -412.38)" fill="#9bb0c4"/>
                      <path id="Trazado_225233" data-name="Trazado 225233" d="M138.309,414.033a1.653,1.653,0,1,0,1.653-1.653A1.653,1.653,0,0,0,138.309,414.033Z" transform="translate(-124.542 -412.38)" fill="#9bb0c4"/>
                      <path id="Trazado_225234" data-name="Trazado 225234" d="M154.021,414.033a1.654,1.654,0,1,0,1.653-1.653A1.654,1.654,0,0,0,154.021,414.033Z" transform="translate(-147.138 -412.38)" fill="#9bb0c4"/>
                      <path id="Trazado_225235" data-name="Trazado 225235" d="M169.734,414.033a1.653,1.653,0,1,0,1.653-1.653A1.654,1.654,0,0,0,169.734,414.033Z" transform="translate(-169.734 -412.38)" fill="#9bb0c4"/>
                    </g>
                  </g>
                  <rect id="Rectángulo_303397" data-name="Rectángulo 303397" width="2.291" height="6.133" transform="translate(66.293 3.594)" fill="#718494"/>
                  <rect id="Rectángulo_303398" data-name="Rectángulo 303398" width="2.291" height="6.133" transform="translate(0 3.594)" fill="#718494"/>
                </g>
                <path id="Trazado_225236" data-name="Trazado 225236" d="M109.188,421.372H49.873A2.175,2.175,0,0,1,47.7,419.2v-5.609" transform="translate(-45.406 -408.052)" fill="none" stroke="#536c7f" stroke-linecap="round" stroke-miterlimit="10" stroke-width="1"/>
              </g>
              <g id="Grupo_213774" data-name="Grupo 213774" transform="translate(0 47.729)">
                <g id="Grupo_213773" data-name="Grupo 213773">
                  <rect id="Rectángulo_303399" data-name="Rectángulo 303399" width="58.98" height="2.589" transform="translate(4.802 13.32)" fill="#9bb0c4"/>
                  <g id="Grupo_213772" data-name="Grupo 213772" transform="translate(2.291)">
                    <rect id="Rectángulo_303400" data-name="Rectángulo 303400" width="64.002" height="13.32" rx="3.504" fill="#f5fafe"/>
                    <g id="Grupo_213770" data-name="Grupo 213770" transform="translate(35.03 4.011)">
                      <rect id="Rectángulo_303401" data-name="Rectángulo 303401" width="18.974" height="5.937" transform="translate(5.845)" fill="#718494"/>
                      <rect id="Rectángulo_303402" data-name="Rectángulo 303402" width="7.823" height="1.444" transform="translate(15.001 1.525)" fill="#9bb0c4"/>
                      <rect id="Rectángulo_303403" data-name="Rectángulo 303403" width="3.156" height="1.444" transform="translate(9.641 1.525)" fill="#9bb0c4"/>
                      <rect id="Rectángulo_303404" data-name="Rectángulo 303404" width="3.289" height="5.937" transform="translate(0)" fill="#9bb0c4"/>
                    </g>
                    <g id="Grupo_213771" data-name="Grupo 213771" transform="translate(4.721 5.007)">
                      <path id="Trazado_225237" data-name="Trazado 225237" d="M122.6,450.349a1.653,1.653,0,1,0,1.653-1.653A1.654,1.654,0,0,0,122.6,450.349Z" transform="translate(-101.947 -448.696)" fill="#9bb0c4"/>
                      <path id="Trazado_225238" data-name="Trazado 225238" d="M138.309,450.349a1.653,1.653,0,1,0,1.653-1.653A1.653,1.653,0,0,0,138.309,450.349Z" transform="translate(-124.542 -448.696)" fill="#9bb0c4"/>
                      <path id="Trazado_225239" data-name="Trazado 225239" d="M154.021,450.349a1.654,1.654,0,1,0,1.653-1.653A1.654,1.654,0,0,0,154.021,450.349Z" transform="translate(-147.138 -448.696)" fill="#9bb0c4"/>
                      <path id="Trazado_225240" data-name="Trazado 225240" d="M169.734,450.349a1.653,1.653,0,1,0,1.653-1.653A1.654,1.654,0,0,0,169.734,450.349Z" transform="translate(-169.734 -448.696)" fill="#9bb0c4"/>
                    </g>
                  </g>
                  <rect id="Rectángulo_303405" data-name="Rectángulo 303405" width="2.291" height="6.133" transform="translate(66.293 3.594)" fill="#718494"/>
                  <rect id="Rectángulo_303406" data-name="Rectángulo 303406" width="2.291" height="6.133" transform="translate(0 3.594)" fill="#718494"/>
                </g>
                <path id="Trazado_225241" data-name="Trazado 225241" d="M109.188,457.688H49.873a2.176,2.176,0,0,1-2.176-2.176V449.9" transform="translate(-45.406 -444.368)" fill="none" stroke="#536c7f" stroke-linecap="round" stroke-miterlimit="10" stroke-width="1"/>
              </g>
              <g id="Grupo_213779" data-name="Grupo 213779" transform="translate(0 63.638)">
                <g id="Grupo_213778" data-name="Grupo 213778">
                  <rect id="Rectángulo_303407" data-name="Rectángulo 303407" width="58.98" height="2.589" transform="translate(4.802 13.32)" fill="#9bb0c4"/>
                  <g id="Grupo_213777" data-name="Grupo 213777" transform="translate(2.291)">
                    <rect id="Rectángulo_303408" data-name="Rectángulo 303408" width="64.002" height="13.32" rx="3.504" fill="#f5fafe"/>
                    <g id="Grupo_213775" data-name="Grupo 213775" transform="translate(35.03 4.011)">
                      <rect id="Rectángulo_303409" data-name="Rectángulo 303409" width="18.974" height="5.937" transform="translate(5.845)" fill="#718494"/>
                      <rect id="Rectángulo_303410" data-name="Rectángulo 303410" width="7.823" height="1.444" transform="translate(15.001 1.525)" fill="#9bb0c4"/>
                      <rect id="Rectángulo_303411" data-name="Rectángulo 303411" width="3.156" height="1.444" transform="translate(9.641 1.525)" fill="#9bb0c4"/>
                      <rect id="Rectángulo_303412" data-name="Rectángulo 303412" width="3.289" height="5.937" transform="translate(0)" fill="#9bb0c4"/>
                    </g>
                    <g id="Grupo_213776" data-name="Grupo 213776" transform="translate(4.721 5.007)">
                      <path id="Trazado_225242" data-name="Trazado 225242" d="M122.6,486.664a1.653,1.653,0,1,0,1.653-1.653A1.654,1.654,0,0,0,122.6,486.664Z" transform="translate(-101.947 -485.011)" fill="#9bb0c4"/>
                      <path id="Trazado_225243" data-name="Trazado 225243" d="M138.309,486.664a1.653,1.653,0,1,0,1.653-1.653A1.653,1.653,0,0,0,138.309,486.664Z" transform="translate(-124.542 -485.011)" fill="#9bb0c4"/>
                      <path id="Trazado_225244" data-name="Trazado 225244" d="M154.021,486.664a1.654,1.654,0,1,0,1.653-1.653A1.654,1.654,0,0,0,154.021,486.664Z" transform="translate(-147.138 -485.011)" fill="#9bb0c4"/>
                      <path id="Trazado_225245" data-name="Trazado 225245" d="M169.734,486.664a1.653,1.653,0,1,0,1.653-1.653A1.654,1.654,0,0,0,169.734,486.664Z" transform="translate(-169.734 -485.011)" fill="#9bb0c4"/>
                    </g>
                  </g>
                  <rect id="Rectángulo_303413" data-name="Rectángulo 303413" width="2.291" height="6.133" transform="translate(66.293 3.594)" fill="#718494"/>
                  <rect id="Rectángulo_303414" data-name="Rectángulo 303414" width="2.291" height="6.133" transform="translate(0 3.594)" fill="#718494"/>
                </g>
                <path id="Trazado_225246" data-name="Trazado 225246" d="M109.188,494H49.873a2.175,2.175,0,0,1-2.176-2.176v-5.609" transform="translate(-45.406 -480.683)" fill="none" stroke="#536c7f" stroke-linecap="round" stroke-miterlimit="10" stroke-width="1"/>
              </g>
            </g>
            <path id="Trazado_225247" data-name="Trazado 225247" d="M151.28,159.13l-5.322-4.41-8.241,1.209,4.792,3.2" transform="translate(-80.204 -98.096)" fill="none" stroke="#b5574b" stroke-linecap="round" stroke-miterlimit="10" stroke-width="1"/>
            <g id="Grupo_213785" data-name="Grupo 213785" transform="translate(0 39.214)">
              <g id="Grupo_213782" data-name="Grupo 213782" transform="translate(9.292 4.776)">
                <path id="Trazado_225248" data-name="Trazado 225248" d="M248.674,132.42a6.6,6.6,0,1,1-6.6,6.6A6.6,6.6,0,0,1,248.674,132.42Zm0,9.927a3.326,3.326,0,1,0-3.327-3.327A3.325,3.325,0,0,0,248.674,142.347Z" transform="translate(-239.209 -129.556)" fill="#4dd0e1"/>
                <g id="Grupo_213781" data-name="Grupo 213781">
                  <rect id="Rectángulo_303415" data-name="Rectángulo 303415" width="3.563" height="4.604" transform="translate(7.573)" fill="#4dd0e1"/>
                  <rect id="Rectángulo_303416" data-name="Rectángulo 303416" width="3.563" height="4.604" transform="translate(14.084 7.209) rotate(-135)" fill="#4dd0e1"/>
                  <rect id="Rectángulo_303417" data-name="Rectángulo 303417" width="3.563" height="4.604" transform="translate(14.327 11.136) rotate(-90)" fill="#4dd0e1"/>
                  <rect id="Rectángulo_303418" data-name="Rectángulo 303418" width="3.563" height="4.604" transform="translate(11.722 14.084) rotate(-45)" fill="#4dd0e1"/>
                  <rect id="Rectángulo_303419" data-name="Rectángulo 303419" width="3.563" height="4.604" transform="translate(7.796 14.327)" fill="#4dd0e1"/>
                  <rect id="Rectángulo_303420" data-name="Rectángulo 303420" width="3.563" height="4.604" transform="translate(4.847 11.722) rotate(45)" fill="#4dd0e1"/>
                  <rect id="Rectángulo_303421" data-name="Rectángulo 303421" width="3.563" height="4.604" transform="translate(4.604 7.796) rotate(90)" fill="#4dd0e1"/>
                  <rect id="Rectángulo_303422" data-name="Rectángulo 303422" width="3.563" height="4.604" transform="matrix(-0.707, 0.707, -0.707, -0.707, 7.209, 4.847)" fill="#4dd0e1"/>
                </g>
              </g>
              <g id="Grupo_213784" data-name="Grupo 213784">
                <path id="Trazado_225249" data-name="Trazado 225249" d="M284.784,118.279a3.331,3.331,0,1,1-3.33,3.33A3.331,3.331,0,0,1,284.784,118.279Zm0,5.009a1.678,1.678,0,1,0-1.678-1.678A1.677,1.677,0,0,0,284.784,123.288Z" transform="translate(-280.008 -116.834)" fill="#4dd0e1"/>
                <g id="Grupo_213783" data-name="Grupo 213783">
                  <rect id="Rectángulo_303423" data-name="Rectángulo 303423" width="1.798" height="2.323" transform="translate(3.821)" fill="#4dd0e1"/>
                  <rect id="Rectángulo_303424" data-name="Rectángulo 303424" width="1.798" height="2.323" transform="translate(7.106 3.637) rotate(-134.999)" fill="#4dd0e1"/>
                  <rect id="Rectángulo_303425" data-name="Rectángulo 303425" width="1.798" height="2.323" transform="translate(7.229 5.619) rotate(-90)" fill="#4dd0e1"/>
                  <rect id="Rectángulo_303426" data-name="Rectángulo 303426" width="1.798" height="2.323" transform="translate(5.915 7.106) rotate(-45)" fill="#4dd0e1"/>
                  <rect id="Rectángulo_303427" data-name="Rectángulo 303427" width="1.798" height="2.323" transform="translate(3.933 7.229)" fill="#4dd0e1"/>
                  <rect id="Rectángulo_303428" data-name="Rectángulo 303428" width="1.798" height="2.323" transform="translate(2.446 5.915) rotate(45)" fill="#4dd0e1"/>
                  <rect id="Rectángulo_303429" data-name="Rectángulo 303429" width="1.798" height="2.323" transform="translate(2.323 3.933) rotate(90)" fill="#4dd0e1"/>
                  <rect id="Rectángulo_303430" data-name="Rectángulo 303430" width="1.798" height="2.323" transform="translate(3.637 2.446) rotate(135)" fill="#4dd0e1"/>
                </g>
              </g>
            </g>
          </g>
          <g id="Grupo_213795" data-name="Grupo 213795" transform="translate(0 10.658)">
            <g id="Grupo_213791" data-name="Grupo 213791">
              <g id="Grupo_213787" data-name="Grupo 213787" transform="translate(119.131 40.51)">
                <path id="Trazado_225250" data-name="Trazado 225250" d="M161.3,149.827s.279,4.536-.233,5.541-5.217,1.419-5.217,1.419l-9.018-4.968,6.9-4.807,5.82.671Z" transform="translate(-131.761 -144.932)" fill="#cc8e75"/>
                <path id="Trazado_225251" data-name="Trazado 225251" d="M157.532,157.332a3.069,3.069,0,0,1-.39,1.3,3.431,3.431,0,0,1-2.713,1.682l-2.074.182" transform="translate(-130.337 -150.732)" fill="none" stroke="#b5574b" stroke-linecap="round" stroke-miterlimit="10" stroke-width="1"/>
                <path id="Trazado_225252" data-name="Trazado 225252" d="M164.311,155.653a2.041,2.041,0,0,1-1.938,2.054l-3.055.269" transform="translate(-140.167 -149.788)" fill="none" stroke="#b5574b" stroke-linecap="round" stroke-miterlimit="10" stroke-width="1"/>
                <path id="Trazado_225253" data-name="Trazado 225253" d="M171.18,167.028l10.843-11.737,8.1,5.8-9.4,16.714Z" transform="translate(-171.18 -149.585)" fill="#dfab94"/>
                <path id="Trazado_225254" data-name="Trazado 225254" d="M130.825,147.972s4.75-4.958,6.082-5.488,9.771-.024,11.084.8,8.815,8.144,8.613,8.989-2.479,1.6-6.313-1.238a37.987,37.987,0,0,0-4.405-3.06l-7.877,1.872s8.032,3.811,7.77,5.537-6.671.418-6.671.418l-6.385,5.544Z" transform="translate(-119.982 -142.267)" fill="#dfab94"/>
              </g>
              <path id="Trazado_225255" data-name="Trazado 225255" d="M190.582,155.528s19.135-.562,24.562,1.017,35.985,23.683,38.946,24.1L268.5,165.26l10.621,10.447S261.088,207.3,254.927,209.7s-38.8-25.159-38.8-25.159l-20.94-4.292-7.48-16.281Z" transform="translate(-148.281 -109.153)" fill="#feca2e"/>
              <path id="Trazado_225256" data-name="Trazado 225256" d="M305.819,308.824s-15.3,48.68-16.283,82.138h32.695l5.909-52.738,9.6,55.3H363.71s-1.87-55.191-14.284-85.068S305.819,308.824,305.819,308.824Z" transform="translate(-277.483 -187.733)" fill="#5a2402"/>
              <path id="Trazado_225257" data-name="Trazado 225257" d="M432.052,348.936c-7.838,23.143-13.084,73.432-13.084,73.432" transform="translate(-402.528 -217.885)" fill="none" stroke="#af7e62" stroke-linecap="round" stroke-miterlimit="10" stroke-width="1"/>
              <path id="Trazado_225258" data-name="Trazado 225258" d="M367.4,182.391s-29.2-7.715-51.55-.8l4.669,68.434L367.4,250V182.391Z" transform="translate(-292.696 -122.236)" fill="#feca2e"/>
              <path id="Trazado_225259" data-name="Trazado 225259" d="M316.73,260.108c8.494,20.843,48.36,26.6,48.36,26.6v9.025L315.846,297.6Z" transform="translate(-290.39 -167.972)" fill="#cba225"/>
              <path id="Trazado_225260" data-name="Trazado 225260" d="M414.518,150.4c-8.52,3.572-22.074,7.3-25.2,12.212s-18.228,56.582-11.827,61.972,38.774,16.9,38.774,16.9l4.306-12.637-22.391-19.763,11.761-36.718,14.126-.674V154.068Z" transform="translate(-375.684 -106.325)" fill="#feca2e"/>
              <path id="Trazado_225261" data-name="Trazado 225261" d="M376.573,149.283c1.486,9.69-.194,16.09-8.934,17.3-8.224,1.14-16.113-7.939-17.214-15.007C350.425,151.578,358.34,146.443,376.573,149.283Z" transform="translate(-317.502 -105.218)" fill="#fff"/>
              <g id="Grupo_213790" data-name="Grupo 213790" transform="translate(30.986)">
                <g id="Grupo_213789" data-name="Grupo 213789" transform="translate(1.547 8.231)">
                  <path id="Trazado_225262" data-name="Trazado 225262" d="M379.161,136.186v5.022c0,4.522-4.679,7.619-11.061,4.378-5.424-2.755-6.054-6.122-6.054-8.89V122.488l17.088,11.3Z" transform="translate(-357.232 -98.874)" fill="#c48a78"/>
                  <path id="Trazado_225263" data-name="Trazado 225263" d="M362.046,127.758c.945,7.755,6.08,12.621,12.153,12.621.007-.067.007-.139.007-.207V126.036Z" transform="translate(-352.277 -100.867)" fill="#dfab94"/>
                  <path id="Trazado_225264" data-name="Trazado 225264" d="M352.626,69.058c9.582,6.351,9.292,15.04,7.868,22.2-1.539,7.729-6.942,13.174-13.839,13.174-9.332,0-16.959-5.785-17.735-14.768s1.352-19.538,8.274-20.6A66.494,66.494,0,0,1,352.626,69.058Z" transform="translate(-324.726 -68.586)" fill="#dfab94"/>
                  <path id="Trazado_225265" data-name="Trazado 225265" d="M342.234,100.947c0,.843.428,1.527.957,1.527s.957-.683.957-1.527-.428-1.527-.957-1.527S342.234,100.1,342.234,100.947Z" transform="translate(-313.54 -85.912)" fill="#5a2402"/>
                  <path id="Trazado_225266" data-name="Trazado 225266" d="M367.32,100.947c0,.843.428,1.527.957,1.527s.957-.683.957-1.527-.428-1.527-.957-1.527S367.32,100.1,367.32,100.947Z" transform="translate(-349.617 -85.912)" fill="#5a2402"/>
                  <path id="Trazado_225267" data-name="Trazado 225267" d="M369.217,86.525c-2.278-.97-5.809.16-6.138,1.637s.247,2.214.906,2.214,2.264-1.88,5.356-1.107C370.435,89.542,371.237,87.386,369.217,86.525Z" transform="translate(-348.943 -78.463)" fill="#5a2402"/>
                  <path id="Trazado_225268" data-name="Trazado 225268" d="M338.348,86.525c1.9-.97,4.837.16,5.111,1.637s-.206,2.214-.755,2.214-1.885-1.88-4.459-1.107C337.334,89.542,336.666,87.386,338.348,86.525Z" transform="translate(-310.775 -78.463)" fill="#5a2402"/>
                  <path id="Trazado_225269" data-name="Trazado 225269" d="M354.308,100.3c.285,1.556,1.153,5.092,1.562,6.735a.786.786,0,0,1-.686.974,8.624,8.624,0,0,1-3.218-.1" transform="translate(-329.55 -86.408)" fill="none" stroke="#b5574b" stroke-linecap="round" stroke-miterlimit="10" stroke-width="1"/>
                  <path id="Trazado_225270" data-name="Trazado 225270" d="M365.008,120.89a17.89,17.89,0,0,1-3.974-1.164.382.382,0,0,0-.536.39,2.574,2.574,0,0,0,1.844,2.179,2.5,2.5,0,0,0,2.9-.771A.384.384,0,0,0,365.008,120.89Z" transform="translate(-342.724 -97.302)" fill="#fff"/>
                  <g id="Grupo_213788" data-name="Grupo 213788" transform="translate(0 13.836)">
                    <path id="Trazado_225271" data-name="Trazado 225271" d="M402.911,103.7c-2.176-4.3-5.8-4.428-6.893-1.715s1.179,8.258,5.26,8.659" transform="translate(-395.747 -100.168)" fill="#dfab94"/>
                    <path id="Trazado_225272" data-name="Trazado 225272" d="M398.549,106.532c-.8.473-1.513,2.116.318,3.647a5.491,5.491,0,0,0,3.67,1.377,4.564,4.564,0,0,0-.853-3.368C400.52,106.957,399.09,106.172,398.549,106.532Z" transform="translate(-396.273 -103.694)" fill="#c48a78"/>
                    <path id="Trazado_225273" data-name="Trazado 225273" d="M402.817,108.9c-1.9-3.248-3.809-2.7-4.172-1.888" transform="translate(-396.922 -103.664)" fill="none" stroke="#b5574b" stroke-linecap="round" stroke-miterlimit="10" stroke-width="1"/>
                    <path id="Trazado_225274" data-name="Trazado 225274" d="M402.424,109.171c-1.459-.45-1.55,1.488-1.005,1.97" transform="translate(-397.61 -105.189)" fill="none" stroke="#b5574b" stroke-linecap="round" stroke-miterlimit="10" stroke-width="1"/>
                  </g>
                  <path id="Trazado_225275" data-name="Trazado 225275" d="M378.08,138.918c-8.557,0-14.518-5.25-16.034-8.951" transform="translate(-356.151 -103.076)" fill="none" stroke="#b5574b" stroke-linecap="round" stroke-miterlimit="10" stroke-width="1"/>
                  <path id="Trazado_225276" data-name="Trazado 225276" d="M368.118,128.7c-.657,0-2.427-1.319-2.642-.884s.436,1.364,1.075,1.793S368.775,128.7,368.118,128.7Z" transform="translate(-347.831 -101.816)" fill="#c48a78"/>
                  <ellipse id="Elipse_16432" data-name="Elipse 16432" cx="1.991" cy="1.554" rx="1.991" ry="1.554" transform="translate(12.216 16.679)" fill="#c48a78"/>
                  <path id="Trazado_225277" data-name="Trazado 225277" d="M335.331,108.212a2.052,2.052,0,1,0,1.991-1.555A1.814,1.814,0,0,0,335.331,108.212Z" transform="translate(-305.68 -89.978)" fill="#c48a78"/>
                </g>
                <path id="Trazado_225278" data-name="Trazado 225278" d="M334.736,71.923c3.326,1.139,4.642,5.893,4.642,5.893a35.715,35.715,0,0,0-.222-9c2.14-1.174,1.993-5.753,1.975-6.356,0,0,9.278,3,15.057,2.157s7.046-2.343,7.046-2.343a17.392,17.392,0,0,1,4.164,7.04s.472-9.378-4.394-11.283c0,0,2.97-3.811-3.707-6.484-8.158-3.266-26.212-2.533-27.27,7.206-2.682,2.183-3.473,10.34.778,13.487A1.861,1.861,0,0,1,334.736,71.923Z" transform="translate(-329.817 -49.797)" fill="#5a2402"/>
              </g>
              <path id="Trazado_225279" data-name="Trazado 225279" d="M362.477,329.472l8.557,4.391,1.867,12.664-15.118-2.387Z" transform="translate(-316.574 -206.948)" fill="#dfab94"/>
              <line id="Línea_518" data-name="Línea 518" x2="4.527" y2="2.318" transform="translate(48.381 123.795)" fill="none" stroke="#b5574b" stroke-linecap="round" stroke-miterlimit="10" stroke-width="1"/>
              <rect id="Rectángulo_303431" data-name="Rectángulo 303431" width="9.954" height="17.622" transform="translate(42.82 136.905) rotate(-159.694)" fill="#ffedb6"/>
              <rect id="Rectángulo_303432" data-name="Rectángulo 303432" width="9.954" height="18.81" transform="matrix(-0.549, 0.836, -0.836, -0.549, 134.403, 64.053)" fill="#ffedb6"/>
              <path id="Trazado_225280" data-name="Trazado 225280" d="M419.593,185.293c5.076,1.646,9.43,7.189,9.772,10.843s-10.428,32.558-10.428,32.558-7.866,4.607-7.744,8.386" transform="translate(-396.442 -125.933)" fill="none" stroke="#bf7d2e" stroke-linecap="round" stroke-miterlimit="10" stroke-width="1"/>
              <line id="Línea_519" data-name="Línea 519" x2="17.106" y2="14.163" transform="translate(22.494 102.761)" fill="none" stroke="#bf7d2e" stroke-linecap="round" stroke-miterlimit="10" stroke-width="1"/>
              <path id="Trazado_225281" data-name="Trazado 225281" d="M444.187,311.874s-26.435-9.231-29.357-12.849-4.975-4.754-2.235-18.319" transform="translate(-411.307 -179.546)" fill="none" stroke="#bf7d2e" stroke-linecap="round" stroke-miterlimit="10" stroke-width="1"/>
              <path id="Trazado_225282" data-name="Trazado 225282" d="M315.806,174.448c3.968,3.4,3.493,45.733,3.493,45.733" transform="translate(-244.598 -119.839)" fill="none" stroke="#bf7d2e" stroke-linecap="round" stroke-miterlimit="10" stroke-width="1"/>
              <path id="Trazado_225283" data-name="Trazado 225283" d="M244.863,224.038a34.933,34.933,0,0,1,1.369-11.057" transform="translate(-140.423 -141.491)" fill="none" stroke="#bf7d2e" stroke-linecap="round" stroke-miterlimit="10" stroke-width="1"/>
              <path id="Trazado_225284" data-name="Trazado 225284" d="M240.107,215.67a21.757,21.757,0,0,0,1.969,6.047" transform="translate(-134.195 -143.002)" fill="none" stroke="#bf7d2e" stroke-linecap="round" stroke-miterlimit="10" stroke-width="1"/>
              <line id="Línea_520" data-name="Línea 520" x1="11.224" y1="10.284" transform="translate(74.718 79.332)" fill="none" stroke="#bf7d2e" stroke-linecap="round" stroke-miterlimit="10" stroke-width="1"/>
              <path id="Trazado_225285" data-name="Trazado 225285" d="M367.366,358.317v14.22h-5.321V361.609" transform="translate(-312.906 -223.156)" fill="none" stroke="#af7e62" stroke-linecap="round" stroke-miterlimit="10" stroke-width="1"/>
              <line id="Línea_521" data-name="Línea 521" x2="11.586" y2="63.137" transform="translate(54.461 149.381)" fill="none" stroke="#af7e62" stroke-linecap="round" stroke-miterlimit="10" stroke-width="1"/>
            </g>
            <g id="Grupo_213793" data-name="Grupo 213793" transform="translate(0 141.134)">
              <rect id="Rectángulo_303433" data-name="Rectángulo 303433" width="120.506" height="6.621" fill="#cba225"/>
              <g id="Grupo_213792" data-name="Grupo 213792" transform="translate(7.286 6.621)">
                <rect id="Rectángulo_303434" data-name="Rectángulo 303434" width="5.927" height="55.157" transform="translate(101.065)" fill="#cba225"/>
                <rect id="Rectángulo_303435" data-name="Rectángulo 303435" width="5.927" height="8.914" transform="translate(101.065)" fill="#98791c"/>
                <rect id="Rectángulo_303436" data-name="Rectángulo 303436" width="5.927" height="55.157" transform="translate(0)" fill="#cba225"/>
                <rect id="Rectángulo_303437" data-name="Rectángulo 303437" width="5.927" height="8.914" transform="translate(0)" fill="#98791c"/>
              </g>
            </g>
            <g id="Grupo_213794" data-name="Grupo 213794" transform="translate(37.655 103.085)">
              <rect id="Rectángulo_303438" data-name="Rectángulo 303438" width="61.456" height="5.002" rx="2.501" transform="translate(0 33.336)" fill="#7392bf"/>
              <path id="Trazado_225286" data-name="Trazado 225286" d="M225.689,321.112H282.32l6.8-30.636a4.417,4.417,0,0,0-4.312-5.375H238.182a5.6,5.6,0,0,0-5.471,4.39Z" transform="translate(-212.687 -285.101)" fill="#7392bf"/>
              <path id="Trazado_225287" data-name="Trazado 225287" d="M220.551,321.112h56.631l6.8-30.636a4.417,4.417,0,0,0-4.312-5.375H233.044a5.6,5.6,0,0,0-5.471,4.39Z" transform="translate(-205.298 -285.101)" fill="#87a1cf"/>
              <rect id="Rectángulo_303439" data-name="Rectángulo 303439" width="61.456" height="5.002" rx="2.501" transform="translate(13.002 33.336)" fill="#87a1cf"/>
              <line id="Línea_522" data-name="Línea 522" x1="44.473" transform="translate(28.392 33.336)" fill="none" stroke="#b1c6e5" stroke-linecap="round" stroke-miterlimit="10" stroke-width="1"/>
              <path id="Trazado_225288" data-name="Trazado 225288" d="M277.706,317.969c-.533,2.94.513,5.59,2.335,5.92s3.731-1.785,4.264-4.725-.513-5.59-2.335-5.92S278.238,315.029,277.706,317.969Z" transform="translate(-230.628 -300.896)" fill="#fff"/>
            </g>
            <line id="Línea_523" data-name="Línea 523" x1="120.506" transform="translate(0 147.755)" fill="none" stroke="#84261f" stroke-linecap="round" stroke-miterlimit="10" stroke-width="1"/>
          </g>
        </g>
        <rect id="Rectángulo_303440" data-name="Rectángulo 303440" width="219" height="219" transform="translate(96)" fill="none"/>
      </g>
    </g>
  </g>
</svg>
